<?xml version="1.0" encoding="UTF-8"?>
<!DOCTYPE svg PUBLIC "-//W3C//DTD SVG 1.1//EN" "http://www.w3.org/Graphics/SVG/1.1/DTD/svg11.dtd">
<svg xmlns="http://www.w3.org/2000/svg" version="1.1" width="100px" height="100px" style="shape-rendering:geometricPrecision; text-rendering:geometricPrecision; image-rendering:optimizeQuality; fill-rule:evenodd; clip-rule:evenodd" xmlns:xlink="http://www.w3.org/1999/xlink">
<g><path style="opacity:0.114" fill="#7bd792" d="M 51.5,6.5 C 50.7375,7.26791 49.7375,7.76791 48.5,8C 44.5138,8.49885 40.5138,8.66551 36.5,8.5C 31.1029,6.99135 25.7695,7.32469 20.5,9.5C 21.9879,8.16887 22.6545,6.83553 22.5,5.5C 32.1135,6.47425 41.7801,6.80759 51.5,6.5 Z"/></g>
<g><path style="opacity:0.004" fill="#20fe33" d="M 17.5,10.5 C 18.6453,14.3112 18.8119,18.3112 18,22.5C 17.5012,18.5138 17.3345,14.5138 17.5,10.5 Z"/></g>
<g><path style="opacity:0.963" fill="#2e7d1d" d="M 78.5,24.5 C 75.8333,24.5 73.1667,24.5 70.5,24.5C 53.8333,24.5 37.1667,24.5 20.5,24.5C 20.5,24.1667 20.5,23.8333 20.5,23.5C 28.1793,23.4038 35.846,23.0705 43.5,22.5C 46.5,22.5 49.5,22.5 52.5,22.5C 59.8956,22.8003 67.229,22.3003 74.5,21C 75.731,19.8173 75.731,18.6507 74.5,17.5C 72.674,17.9202 70.674,17.9202 68.5,17.5C 68.5,14.8333 68.5,12.1667 68.5,9.5C 69.5,9.5 70.5,9.5 71.5,9.5C 72.9394,18.6212 73.6061,18.2879 73.5,8.5C 71.5,8.5 69.5,8.5 67.5,8.5C 67.5,7.83333 67.5,7.16667 67.5,6.5C 70.909,6.75067 74.2423,6.41734 77.5,5.5C 79.6855,11.7575 80.0188,18.0908 78.5,24.5 Z"/></g>
<g><path style="opacity:1" fill="#23c33e" d="M 36.5,8.5 C 35.2227,9.69363 34.5561,11.3603 34.5,13.5C 34.5396,15.4289 34.8729,17.2622 35.5,19C 34.376,19.2492 33.376,19.7492 32.5,20.5C 36.1073,21.4892 39.774,21.8226 43.5,21.5C 43.5,21.8333 43.5,22.1667 43.5,22.5C 35.846,23.0705 28.1793,23.4038 20.5,23.5C 19.1667,18.8333 19.1667,14.1667 20.5,9.5C 25.7695,7.32469 31.1029,6.99135 36.5,8.5 Z"/></g>
<g><path style="opacity:0.012" fill="#086410" d="M 80.5,9.5 C 81.6484,13.9811 81.8151,18.6478 81,23.5C 80.5008,18.8452 80.3342,14.1785 80.5,9.5 Z"/></g>
<g><path style="opacity:1" fill="#29be3e" d="M 51.5,6.5 C 56.8333,6.5 62.1667,6.5 67.5,6.5C 67.5,7.16667 67.5,7.83333 67.5,8.5C 64.8333,8.5 62.1667,8.5 59.5,8.5C 59.2648,7.90326 58.7648,7.56993 58,7.5C 55.1459,8.11403 52.3125,8.7807 49.5,9.5C 49.7197,14.7946 47.7197,18.7946 43.5,21.5C 39.774,21.8226 36.1073,21.4892 32.5,20.5C 33.376,19.7492 34.376,19.2492 35.5,19C 34.8729,17.2622 34.5396,15.4289 34.5,13.5C 34.5561,11.3603 35.2227,9.69363 36.5,8.5C 40.5138,8.66551 44.5138,8.49885 48.5,8C 49.7375,7.76791 50.7375,7.26791 51.5,6.5 Z"/></g>
<g><path style="opacity:1" fill="#18ab2a" d="M 59.5,8.5 C 57.78,10.6581 56.9467,13.3248 57,16.5C 54.93,18.0703 53.43,20.0703 52.5,22.5C 49.5,22.5 46.5,22.5 43.5,22.5C 43.5,22.1667 43.5,21.8333 43.5,21.5C 47.7197,18.7946 49.7197,14.7946 49.5,9.5C 52.3125,8.7807 55.1459,8.11403 58,7.5C 58.7648,7.56993 59.2648,7.90326 59.5,8.5 Z"/></g>
<g><path style="opacity:1" fill="#169723" d="M 59.5,8.5 C 62.1667,8.5 64.8333,8.5 67.5,8.5C 69.5,8.5 71.5,8.5 73.5,8.5C 73.6061,18.2879 72.9394,18.6212 71.5,9.5C 70.5,9.5 69.5,9.5 68.5,9.5C 68.5,12.1667 68.5,14.8333 68.5,17.5C 70.674,17.9202 72.674,17.9202 74.5,17.5C 75.731,18.6507 75.731,19.8173 74.5,21C 67.229,22.3003 59.8956,22.8003 52.5,22.5C 53.43,20.0703 54.93,18.0703 57,16.5C 56.9467,13.3248 57.78,10.6581 59.5,8.5 Z"/></g>
<g><path style="opacity:1" fill="#eabe4a" d="M 20.5,24.5 C 37.1667,24.5 53.8333,24.5 70.5,24.5C 68.7857,25.7384 66.7857,26.405 64.5,26.5C 55.1379,26.737 45.8046,27.4037 36.5,28.5C 36.7093,29.086 37.0426,29.586 37.5,30C 36.3333,30.1667 35.1667,30.3333 34,30.5C 29.414,29.7276 24.914,28.7276 20.5,27.5C 20.5,26.5 20.5,25.5 20.5,24.5 Z"/></g>
<g><path style="opacity:0.012" fill="#a55b00" d="M 80.5,33.5 C 80.3367,31.1432 80.5034,28.8098 81,26.5C 81.7958,29.0385 81.6291,31.3718 80.5,33.5 Z"/></g>
<g><path style="opacity:0.004" fill="#aa350b" d="M 17.5,27.5 C 18.6225,29.2884 18.7891,31.2884 18,33.5C 17.5045,31.5273 17.3379,29.5273 17.5,27.5 Z"/></g>
<g><path style="opacity:1" fill="#dfa726" d="M 64.5,26.5 C 61.2856,27.282 57.9523,28.1153 54.5,29C 52.4156,29.6972 50.7489,30.8639 49.5,32.5C 39.8333,32.5 30.1667,32.5 20.5,32.5C 20.5,30.8333 20.5,29.1667 20.5,27.5C 24.914,28.7276 29.414,29.7276 34,30.5C 35.1667,30.3333 36.3333,30.1667 37.5,30C 37.0426,29.586 36.7093,29.086 36.5,28.5C 45.8046,27.4037 55.1379,26.737 64.5,26.5 Z"/></g>
<g><path style="opacity:1" fill="#d1912b" d="M 70.5,24.5 C 73.1667,24.5 75.8333,24.5 78.5,24.5C 78.5,25.1667 78.5,25.8333 78.5,26.5C 74.0407,27.8264 69.7073,29.6598 65.5,32C 60.1771,32.4994 54.8437,32.666 49.5,32.5C 50.7489,30.8639 52.4156,29.6972 54.5,29C 57.9523,28.1153 61.2856,27.282 64.5,26.5C 66.7857,26.405 68.7857,25.7384 70.5,24.5 Z"/></g>
<g><path style="opacity:1" fill="#c67b16" d="M 78.5,26.5 C 79.4682,28.6074 79.8016,30.9407 79.5,33.5C 59.8333,33.5 40.1667,33.5 20.5,33.5C 19.1667,31.5 19.1667,29.5 20.5,27.5C 20.5,29.1667 20.5,30.8333 20.5,32.5C 30.1667,32.5 39.8333,32.5 49.5,32.5C 54.8437,32.666 60.1771,32.4994 65.5,32C 69.7073,29.6598 74.0407,27.8264 78.5,26.5 Z"/></g>
<g><path style="opacity:1" fill="#7c3c06" d="M 20.5,34.5 C 20.5,34.1667 20.5,33.8333 20.5,33.5C 40.1667,33.5 59.8333,33.5 79.5,33.5C 79.8333,33.5 80.1667,33.5 80.5,33.5C 80.5,34.1667 80.1667,34.5 79.5,34.5C 79.1667,34.5 78.8333,34.5 78.5,34.5C 78.1667,34.5 77.8333,34.5 77.5,34.5C 58.9924,34.1698 40.6591,34.5032 22.5,35.5C 22.1667,35.5 21.8333,35.5 21.5,35.5C 21.5,34.8333 21.1667,34.5 20.5,34.5 Z"/></g>
<g><path style="opacity:0.005" fill="#140e07" d="M 20.5,34.5 C 21.1667,34.5 21.5,34.8333 21.5,35.5C 21.5,35.8333 21.5,36.1667 21.5,36.5C 20.8333,37.8333 20.1667,39.1667 19.5,40.5C 19.2053,38.2646 19.5386,36.2646 20.5,34.5 Z"/></g>
<g><path style="opacity:0.012" fill="#114208" d="M 21.5,36.5 C 21.5,49.8333 21.5,63.1667 21.5,76.5C 21.1667,76.5 20.8333,76.5 20.5,76.5C 19.5049,64.6783 19.1716,52.6783 19.5,40.5C 20.1667,39.1667 20.8333,37.8333 21.5,36.5 Z"/></g>
<g><path style="opacity:0.999" fill="#149822" d="M 22.5,35.5 C 40.5,35.5 58.5,35.5 76.5,35.5C 76.8835,40.3426 76.2168,45.0093 74.5,49.5C 72.7087,50.9242 70.8754,52.2576 69,53.5C 68.3292,52.7476 67.4959,52.4142 66.5,52.5C 65.5,51.1667 64.5,49.8333 63.5,48.5C 63.5,48.1667 63.5,47.8333 63.5,47.5C 64.5659,46.3079 65.3992,46.6412 66,48.5C 66.9025,47.2986 68.0692,46.4652 69.5,46C 69.1667,45.6667 68.8333,45.3333 68.5,45C 70.0249,43.9914 71.6916,43.4914 73.5,43.5C 73.6621,41.4727 73.4955,39.4727 73,37.5C 71.0018,38.8294 68.8351,39.8294 66.5,40.5C 59.7602,39.6587 53.0935,38.6587 46.5,37.5C 38.8333,37.5 31.1667,37.5 23.5,37.5C 20.8924,48.4354 23.7258,56.4354 32,61.5C 32.1829,58.6353 32.6829,55.9686 33.5,53.5C 32.5644,60.0184 34.2311,65.6851 38.5,70.5C 36.3718,71.6291 34.0385,71.7958 31.5,71C 28.3589,69.6651 25.6922,67.8318 23.5,65.5C 23.8128,61.9581 23.4794,58.6248 22.5,55.5C 22.5,48.8333 22.5,42.1667 22.5,35.5 Z"/></g>
<g><path style="opacity:1" fill="#16a127" d="M 46.5,37.5 C 53.0935,38.6587 59.7602,39.6587 66.5,40.5C 68.8351,39.8294 71.0018,38.8294 73,37.5C 73.4955,39.4727 73.6621,41.4727 73.5,43.5C 71.6916,43.4914 70.0249,43.9914 68.5,45C 68.8333,45.3333 69.1667,45.6667 69.5,46C 68.0692,46.4652 66.9025,47.2986 66,48.5C 65.3992,46.6412 64.5659,46.3079 63.5,47.5C 59.3812,42.4416 54.0478,40.1083 47.5,40.5C 48.6085,39.71 49.9419,39.21 51.5,39C 49.6183,38.8019 47.9516,38.3019 46.5,37.5 Z"/></g>
<g><path style="opacity:1" fill="#16b52e" d="M 46.5,37.5 C 47.9516,38.3019 49.6183,38.8019 51.5,39C 49.9419,39.21 48.6085,39.71 47.5,40.5C 46.209,40.2627 45.209,40.596 44.5,41.5C 39.9164,43.0823 36.5831,46.0823 34.5,50.5C 33.596,51.209 33.2627,52.209 33.5,53.5C 32.6829,55.9686 32.1829,58.6353 32,61.5C 23.7258,56.4354 20.8924,48.4354 23.5,37.5C 31.1667,37.5 38.8333,37.5 46.5,37.5 Z"/></g>
<g><path style="opacity:1" fill="#dadad6" d="M 47.5,40.5 C 54.0478,40.1083 59.3812,42.4416 63.5,47.5C 63.5,47.8333 63.5,48.1667 63.5,48.5C 63.19,49.7383 62.69,49.7383 62,48.5C 60.6457,51.0021 59.1457,53.3354 57.5,55.5C 56.2744,51.38 54.2744,47.7133 51.5,44.5C 49.1124,43.6515 46.7791,42.6515 44.5,41.5C 45.209,40.596 46.209,40.2627 47.5,40.5 Z"/></g>
<g><path style="opacity:1" fill="#cccdc2" d="M 63.5,48.5 C 64.5,49.8333 65.5,51.1667 66.5,52.5C 66.5,55.1667 66.5,57.8333 66.5,60.5C 65.2564,63.9823 63.2564,66.9823 60.5,69.5C 59.8466,68.1932 59.1799,66.8599 58.5,65.5C 59.5748,62.562 59.7415,59.562 59,56.5C 58.8138,59.0356 58.3138,61.369 57.5,63.5C 57.5,61.5 57.5,59.5 57.5,57.5C 57.5,56.8333 57.5,56.1667 57.5,55.5C 59.1457,53.3354 60.6457,51.0021 62,48.5C 62.69,49.7383 63.19,49.7383 63.5,48.5 Z"/></g>
<g><path style="opacity:1" fill="#e6e6e8" d="M 44.5,41.5 C 46.7791,42.6515 49.1124,43.6515 51.5,44.5C 48.6755,44.0807 46.5088,45.0807 45,47.5C 43.1319,50.6051 41.9652,53.9385 41.5,57.5C 40.6909,59.2922 40.1909,61.2922 40,63.5C 39.6667,61.1667 39.3333,58.8333 39,56.5C 38.8078,58.5767 38.3078,60.5767 37.5,62.5C 35.9489,58.6538 34.9489,54.6538 34.5,50.5C 36.5831,46.0823 39.9164,43.0823 44.5,41.5 Z"/></g>
<g><path style="opacity:1" fill="#dededb" d="M 34.5,50.5 C 34.9489,54.6538 35.9489,58.6538 37.5,62.5C 38.3078,60.5767 38.8078,58.5767 39,56.5C 39.3333,58.8333 39.6667,61.1667 40,63.5C 40.1909,61.2922 40.6909,59.2922 41.5,57.5C 41.5,57.8333 41.5,58.1667 41.5,58.5C 40.8229,66.6577 44.4895,70.1577 52.5,69C 55.079,67.9243 56.7457,66.091 57.5,63.5C 58.3138,61.369 58.8138,59.0356 59,56.5C 59.7415,59.562 59.5748,62.562 58.5,65.5C 59.1799,66.8599 59.8466,68.1932 60.5,69.5C 56.573,72.9269 51.9063,74.2603 46.5,73.5C 43.5944,73.0435 40.9278,72.0435 38.5,70.5C 34.2311,65.6851 32.5644,60.0184 33.5,53.5C 33.2627,52.209 33.596,51.209 34.5,50.5 Z"/></g>
<g><path style="opacity:1" fill="#db9d1c" d="M 51.5,44.5 C 54.2744,47.7133 56.2744,51.38 57.5,55.5C 57.5,56.1667 57.5,56.8333 57.5,57.5C 52.1759,58.872 46.8426,59.2054 41.5,58.5C 41.5,58.1667 41.5,57.8333 41.5,57.5C 41.9652,53.9385 43.1319,50.6051 45,47.5C 46.5088,45.0807 48.6755,44.0807 51.5,44.5 Z"/></g>
<g><path style="opacity:0.999" fill="#118118" d="M 22.5,35.5 C 40.6591,34.5032 58.9924,34.1698 77.5,34.5C 77.5,40.8333 77.5,47.1667 77.5,53.5C 76.5489,54.9187 76.2155,56.5853 76.5,58.5C 74.3583,61.2319 71.5249,62.8986 68,63.5C 66.9614,62.7562 66.4614,61.7562 66.5,60.5C 66.5,57.8333 66.5,55.1667 66.5,52.5C 67.4959,52.4142 68.3292,52.7476 69,53.5C 70.8754,52.2576 72.7087,50.9242 74.5,49.5C 76.2168,45.0093 76.8835,40.3426 76.5,35.5C 58.5,35.5 40.5,35.5 22.5,35.5 Z"/></g>
<g><path style="opacity:1" fill="#ce8815" d="M 57.5,57.5 C 57.5,59.5 57.5,61.5 57.5,63.5C 56.7457,66.091 55.079,67.9243 52.5,69C 44.4895,70.1577 40.8229,66.6577 41.5,58.5C 46.8426,59.2054 52.1759,58.872 57.5,57.5 Z"/></g>
<g><path style="opacity:0.999" fill="#148319" d="M 76.5,58.5 C 76.8608,64.5933 76.3608,70.5933 75,76.5C 74.6667,75.5 74.3333,74.5 74,73.5C 72.5384,74.0352 70.8718,74.0352 69,73.5C 64.3354,75.608 59.8354,77.2747 55.5,78.5C 53.6182,77.7627 52.9515,76.5961 53.5,75C 51.5273,74.5045 49.5273,74.3379 47.5,74.5C 46.8333,74.5 46.5,74.1667 46.5,73.5C 51.9063,74.2603 56.573,72.9269 60.5,69.5C 63.2564,66.9823 65.2564,63.9823 66.5,60.5C 66.4614,61.7562 66.9614,62.7562 68,63.5C 71.5249,62.8986 74.3583,61.2319 76.5,58.5 Z"/></g>
<g><path style="opacity:0.999" fill="#1b7b12" d="M 78.5,34.5 C 78.8333,34.5 79.1667,34.5 79.5,34.5C 79.8291,48.6766 79.4958,62.6766 78.5,76.5C 78.1667,75.1667 77.8333,75.1667 77.5,76.5C 71.8878,79.1434 65.8878,80.1434 59.5,79.5C 57.1432,79.6633 54.8098,79.4966 52.5,79C 53.448,78.5172 54.448,78.3505 55.5,78.5C 59.8354,77.2747 64.3354,75.608 69,73.5C 70.8718,74.0352 72.5384,74.0352 74,73.5C 74.3333,74.5 74.6667,75.5 75,76.5C 76.3608,70.5933 76.8608,64.5933 76.5,58.5C 76.2155,56.5853 76.5489,54.9187 77.5,53.5C 77.3337,60.5079 77.5004,67.5079 78,74.5C 78.4999,61.1708 78.6666,47.8375 78.5,34.5 Z"/></g>
<g><path style="opacity:1" fill="#0f8815" d="M 23.5,65.5 C 25.6922,67.8318 28.3589,69.6651 31.5,71C 34.0385,71.7958 36.3718,71.6291 38.5,70.5C 40.9278,72.0435 43.5944,73.0435 46.5,73.5C 46.5,74.1667 46.8333,74.5 47.5,74.5C 48.6085,75.29 49.9419,75.79 51.5,76C 44.3266,78.8387 36.9933,79.172 29.5,77C 24.7709,74.6412 22.7709,70.8078 23.5,65.5 Z"/></g>
<g><path style="opacity:1" fill="#2d8616" d="M 22.5,55.5 C 23.4794,58.6248 23.8128,61.9581 23.5,65.5C 22.7709,70.8078 24.7709,74.6412 29.5,77C 36.9933,79.172 44.3266,78.8387 51.5,76C 49.9419,75.79 48.6085,75.29 47.5,74.5C 49.5273,74.3379 51.5273,74.5045 53.5,75C 52.9515,76.5961 53.6182,77.7627 55.5,78.5C 54.448,78.3505 53.448,78.5172 52.5,79C 54.8098,79.4966 57.1432,79.6633 59.5,79.5C 48.2964,80.865 36.963,80.6983 25.5,79C 24.0577,78.6232 23.0577,77.7899 22.5,76.5C 22.5,69.5 22.5,62.5 22.5,55.5 Z"/></g>
<g><path style="opacity:0.012" fill="#ac640f" d="M 80.5,85.5 C 80.3359,82.8127 80.5026,80.146 81,77.5C 81.8007,80.367 81.6341,83.0336 80.5,85.5 Z"/></g>
<g><path style="opacity:1" fill="#d6a446" d="M 20.5,76.5 C 20.8333,76.5 21.1667,76.5 21.5,76.5C 21.8333,76.5 22.1667,76.5 22.5,76.5C 23.0577,77.7899 24.0577,78.6232 25.5,79C 36.963,80.6983 48.2964,80.865 59.5,79.5C 65.8878,80.1434 71.8878,79.1434 77.5,76.5C 77.8333,76.5 78.1667,76.5 78.5,76.5C 78.5,76.8333 78.5,77.1667 78.5,77.5C 78.3893,78.1174 78.056,78.6174 77.5,79C 74.3718,79.8412 71.3718,80.6746 68.5,81.5C 55.4957,81.6666 42.4957,81.4999 29.5,81C 26.2026,80.7963 23.2026,79.963 20.5,78.5C 20.5,77.8333 20.5,77.1667 20.5,76.5 Z"/></g>
<g><path style="opacity:0.004" fill="#673a11" d="M 18.5,84.5 C 17.3775,82.7116 17.2109,80.7116 18,78.5C 18.4955,80.4727 18.6621,82.4727 18.5,84.5 Z"/></g>
<g><path style="opacity:1" fill="#b26611" d="M 78.5,77.5 C 79.4731,79.9479 79.8064,82.6146 79.5,85.5C 78.6618,85.8417 78.3284,86.5084 78.5,87.5C 78.1667,87.5 77.8333,87.5 77.5,87.5C 61.3723,88.8099 45.3723,88.8099 29.5,87.5C 33.2121,87.3416 36.7121,87.3416 40,87.5C 43.3333,86.8333 46.6667,86.1667 50,85.5C 56.4858,85.8382 62.6524,84.5049 68.5,81.5C 71.3718,80.6746 74.3718,79.8412 77.5,79C 78.056,78.6174 78.3893,78.1174 78.5,77.5 Z"/></g>
<g><path style="opacity:1" fill="#b96e14" d="M 20.5,78.5 C 23.2026,79.963 26.2026,80.7963 29.5,81C 42.4957,81.4999 55.4957,81.6666 68.5,81.5C 62.6524,84.5049 56.4858,85.8382 50,85.5C 46.6667,86.1667 43.3333,86.8333 40,87.5C 36.7121,87.3416 33.2121,87.3416 29.5,87.5C 26.4299,87.6323 23.4299,87.299 20.5,86.5C 20.6716,85.5084 20.3382,84.8417 19.5,84.5C 19.2053,82.2646 19.5386,80.2646 20.5,78.5 Z"/></g>
<g><path style="opacity:0.012" fill="#2d2c09" d="M 18.5,84.5 C 18.8333,84.5 19.1667,84.5 19.5,84.5C 19.1667,88.5 18.8333,88.5 18.5,84.5 Z"/></g>
<g><path style="opacity:0.008" fill="#835e00" d="M 79.5,85.5 C 79.8333,85.5 80.1667,85.5 80.5,85.5C 80.6716,86.4916 80.3382,87.1583 79.5,87.5C 79.5,86.8333 79.5,86.1667 79.5,85.5 Z"/></g>
<g><path style="opacity:0.008" fill="#7e0000" d="M 78.5,87.5 C 78.8333,87.5 79.1667,87.5 79.5,87.5C 79.3147,88.1701 78.9813,88.1701 78.5,87.5 Z"/></g>
<g><path style="opacity:0.008" fill="#7e7f00" d="M 77.5,88.5 C 77.8333,88.5 78.1667,88.5 78.5,88.5C 78.3147,89.1701 77.9813,89.1701 77.5,88.5 Z"/></g>
<g><path style="opacity:0.931" fill="#7a350c" d="M 20.5,86.5 C 23.4299,87.299 26.4299,87.6323 29.5,87.5C 45.3723,88.8099 61.3723,88.8099 77.5,87.5C 77.5,87.8333 77.5,88.1667 77.5,88.5C 76.1667,88.8333 76.1667,89.1667 77.5,89.5C 77.1583,90.3382 76.4916,90.6716 75.5,90.5C 74.8333,89.1667 74.1667,89.1667 73.5,90.5C 69.5,90.8333 69.5,91.1667 73.5,91.5C 70.1317,93.059 66.4651,93.8923 62.5,94C 50.0583,95.0474 37.7249,94.3807 25.5,92C 26.8333,91.6667 28.1667,91.3333 29.5,91C 27.1089,89.9651 24.7756,89.7985 22.5,90.5C 21.6919,90.1924 21.0253,89.6924 20.5,89C 21.5981,88.2303 21.5981,87.397 20.5,86.5 Z"/></g>
<g><path style="opacity:0.012" fill="#c56200" d="M 73.5,91.5 C 73.5,91.1667 73.5,90.8333 73.5,90.5C 74.1667,90.5 74.8333,90.5 75.5,90.5C 75.1583,91.3382 74.4916,91.6716 73.5,91.5 Z"/></g>
</svg>
