<?xml version="1.0" encoding="UTF-8"?>
<!DOCTYPE svg PUBLIC "-//W3C//DTD SVG 1.1//EN" "http://www.w3.org/Graphics/SVG/1.1/DTD/svg11.dtd">
<svg xmlns="http://www.w3.org/2000/svg" version="1.1" width="100px" height="100px" style="shape-rendering:geometricPrecision; text-rendering:geometricPrecision; image-rendering:optimizeQuality; fill-rule:evenodd; clip-rule:evenodd" xmlns:xlink="http://www.w3.org/1999/xlink">
<g><path style="opacity:1" fill="#57cf5f" d="M 72.5,5.5 C 64.5,5.83333 64.5,6.16667 72.5,6.5C 72.5,7.16667 72.8333,7.5 73.5,7.5C 72.3874,10.9101 70.3874,13.7435 67.5,16C 64.328,17.7519 61.328,19.7519 58.5,22C 56.8659,22.4935 55.1992,22.6602 53.5,22.5C 53.5,22.1667 53.5,21.8333 53.5,21.5C 60.7955,19.5138 66.7955,15.5138 71.5,9.5C 68.5818,8.28719 65.9151,8.62052 63.5,10.5C 61.3023,10.5912 60.9689,9.92454 62.5,8.5C 63.1667,8.5 63.5,8.16667 63.5,7.5C 66.1667,7.16667 66.1667,6.83333 63.5,6.5C 63.5,6.16667 63.5,5.83333 63.5,5.5C 66.6377,4.31868 69.6377,4.31868 72.5,5.5 Z"/></g>
<g><path style="opacity:1" fill="#52ca5a" d="M 87.5,9.5 C 85.1432,9.33669 82.8098,9.50335 80.5,10C 81.4506,10.7175 81.6172,11.5509 81,12.5C 80.2411,14.0629 79.0744,15.0629 77.5,15.5C 76.8333,15.1667 76.1667,14.8333 75.5,14.5C 74.962,12.8828 74.6287,11.2161 74.5,9.5C 75.6477,10.895 76.6477,10.7284 77.5,9C 74.9365,8.23703 74.9365,7.73703 77.5,7.5C 80.8561,8.74439 84.1894,8.74439 87.5,7.5C 88.463,7.96983 88.463,8.6365 87.5,9.5 Z"/></g>
<g><path style="opacity:0.486" fill="#73df7b" d="M 63.5,5.5 C 63.5,5.83333 63.5,6.16667 63.5,6.5C 63.5,6.83333 63.5,7.16667 63.5,7.5C 63.5,8.16667 63.1667,8.5 62.5,8.5C 60.9689,9.92454 61.3023,10.5912 63.5,10.5C 60.1667,12.8333 56.8333,15.1667 53.5,17.5C 53.1667,17.5 52.8333,17.5 52.5,17.5C 52.1667,16.1667 51.8333,14.8333 51.5,13.5C 45.9856,12.5252 45.6522,12.5252 50.5,13.5C 50.7373,14.791 50.404,15.791 49.5,16.5C 49.5299,15.5028 49.0299,14.8361 48,14.5C 46.3435,15.4841 44.6768,16.4841 43,17.5C 42.3292,16.7476 41.4959,16.4142 40.5,16.5C 40.5,15.8333 40.1667,15.5 39.5,15.5C 40.7489,13.8639 42.4156,12.6972 44.5,12C 51.396,11.6343 57.7293,9.46763 63.5,5.5 Z"/></g>
<g><path style="opacity:1" fill="#27ab2c" d="M 72.5,6.5 C 72.5,6.16667 72.5,5.83333 72.5,5.5C 74.1765,6.18342 74.8432,7.51676 74.5,9.5C 74.6287,11.2161 74.962,12.8828 75.5,14.5C 74.7979,18.6067 73.4645,22.6067 71.5,26.5C 69.9582,25.6993 68.2915,25.366 66.5,25.5C 62.5876,25.6243 58.9209,26.6243 55.5,28.5C 55.0269,27.0937 54.0269,26.427 52.5,26.5C 52.8333,25.1667 53.1667,23.8333 53.5,22.5C 55.1992,22.6602 56.8659,22.4935 58.5,22C 61.328,19.7519 64.328,17.7519 67.5,16C 70.3874,13.7435 72.3874,10.9101 73.5,7.5C 72.8333,7.5 72.5,7.16667 72.5,6.5 Z"/></g>
<g><path style="opacity:0.012" fill="#094a05" d="M 91.5,18.5 C 91.3379,16.4727 91.5045,14.4727 92,12.5C 92.7891,14.7116 92.6225,16.7116 91.5,18.5 Z"/></g>
<g><path style="opacity:1" fill="#28af2f" d="M 87.5,9.5 C 88.1667,9.5 88.5,9.83333 88.5,10.5C 88.6495,11.552 88.4828,12.552 88,13.5C 85.1667,15.6667 82.6667,18.1667 80.5,21C 79.552,21.4828 78.552,21.6495 77.5,21.5C 77.5,19.5 77.5,17.5 77.5,15.5C 79.0744,15.0629 80.2411,14.0629 81,12.5C 81.6172,11.5509 81.4506,10.7175 80.5,10C 82.8098,9.50335 85.1432,9.33669 87.5,9.5 Z"/></g>
<g><path style="opacity:1" fill="#8ad38f" d="M 53.5,21.5 C 53.5,20.1667 53.5,18.8333 53.5,17.5C 56.8333,15.1667 60.1667,12.8333 63.5,10.5C 65.9151,8.62052 68.5818,8.28719 71.5,9.5C 66.7955,15.5138 60.7955,19.5138 53.5,21.5 Z"/></g>
<g><path style="opacity:0.997" fill="#117a0f" d="M 90.5,13.5 C 90.5,15.1667 90.5,16.8333 90.5,18.5C 89.5655,19.5676 89.2322,20.901 89.5,22.5C 88.8333,22.5 88.5,22.8333 88.5,23.5C 85.8333,23.5 83.1667,23.5 80.5,23.5C 83.2764,19.6435 86.6097,16.3102 90.5,13.5 Z"/></g>
<g><path style="opacity:1" fill="#89dc8f" d="M 49.5,16.5 C 46.7746,17.713 44.4412,19.5464 42.5,22C 41.552,22.4828 40.552,22.6495 39.5,22.5C 39.33,21.1779 39.6634,20.0113 40.5,19C 39.1772,18.1841 38.5106,17.0174 38.5,15.5C 38.8333,15.5 39.1667,15.5 39.5,15.5C 40.1667,15.5 40.5,15.8333 40.5,16.5C 41.4959,16.4142 42.3292,16.7476 43,17.5C 44.6768,16.4841 46.3435,15.4841 48,14.5C 49.0299,14.8361 49.5299,15.5028 49.5,16.5 Z"/></g>
<g><path style="opacity:0.012" fill="#005f00" d="M 90.5,18.5 C 90.8333,18.5 91.1667,18.5 91.5,18.5C 91.1667,22.5 90.8333,22.5 90.5,18.5 Z"/></g>
<g><path style="opacity:1" fill="#18841b" d="M 88.5,10.5 C 89.4013,11.2905 90.0679,12.2905 90.5,13.5C 86.6097,16.3102 83.2764,19.6435 80.5,23.5C 77.7846,25.0719 74.7846,26.0719 71.5,26.5C 73.4645,22.6067 74.7979,18.6067 75.5,14.5C 76.1667,14.8333 76.8333,15.1667 77.5,15.5C 77.5,17.5 77.5,19.5 77.5,21.5C 78.552,21.6495 79.552,21.4828 80.5,21C 82.6667,18.1667 85.1667,15.6667 88,13.5C 88.4828,12.552 88.6495,11.552 88.5,10.5 Z"/></g>
<g><path style="opacity:1" fill="#2ac231" d="M 50.5,13.5 C 50.8333,13.5 51.1667,13.5 51.5,13.5C 51.8333,14.8333 52.1667,16.1667 52.5,17.5C 52.702,19.9496 52.3686,22.283 51.5,24.5C 48.3926,24.3512 45.3926,24.8512 42.5,26C 37.8389,27.1743 33.8389,29.341 30.5,32.5C 29.1974,30.2431 29.864,28.4098 32.5,27C 40.0614,26.6118 45.7281,23.1118 49.5,16.5C 50.404,15.791 50.7373,14.791 50.5,13.5 Z"/></g>
<g><path style="opacity:0.984" fill="#71e888" d="M 36.5,17.5 C 36.5,18.1667 36.8333,18.5 37.5,18.5C 37.9382,18.4346 38.2716,18.6012 38.5,19C 36.6038,21.068 34.6038,22.9013 32.5,24.5C 30.9382,24.7329 29.6049,25.3995 28.5,26.5C 27.8333,26.5 27.5,26.8333 27.5,27.5C 27.5654,27.9382 27.3988,28.2716 27,28.5C 25.8061,27.5697 24.4728,26.9031 23,26.5C 20.6227,28.8619 18.1227,30.1952 15.5,30.5C 17.36,27.9332 18.6933,25.4332 19.5,23C 22.5876,22.1533 25.4209,22.6533 28,24.5C 30.4356,21.5532 33.2689,19.2199 36.5,17.5 Z"/></g>
<g><path style="opacity:1" fill="#1e911c" d="M 89.5,22.5 C 92.4811,22.7944 93.1478,24.1278 91.5,26.5C 88.324,27.4212 85.324,28.9212 82.5,31C 79.5184,31.498 76.5184,31.6646 73.5,31.5C 73.5,30.5 73.5,29.5 73.5,28.5C 79.4404,28.9652 84.4404,27.2985 88.5,23.5C 89.1667,23.5 89.5,23.1667 89.5,22.5 Z"/></g>
<g><path style="opacity:0.008" fill="#108c09" d="M 93.5,33.5 C 93.3367,31.1432 93.5034,28.8098 94,26.5C 94.7958,29.0385 94.6291,31.3718 93.5,33.5 Z"/></g>
<g><path style="opacity:1" fill="#4fe474" d="M 32.5,24.5 C 30.832,26.34 29.332,28.34 28,30.5C 22.1784,28.4682 17.6784,30.1348 14.5,35.5C 13.8333,35.8333 13.1667,36.1667 12.5,36.5C 12.7549,34.0326 13.7549,32.0326 15.5,30.5C 18.1227,30.1952 20.6227,28.8619 23,26.5C 24.4728,26.9031 25.8061,27.5697 27,28.5C 27.3988,28.2716 27.5654,27.9382 27.5,27.5C 28.1667,27.5 28.5,27.1667 28.5,26.5C 29.6049,25.3995 30.9382,24.7329 32.5,24.5 Z"/></g>
<g><path style="opacity:1" fill="#1eb922" d="M 51.5,24.5 C 44.742,27.6421 38.0753,30.9755 31.5,34.5C 31.1667,34.5 30.8333,34.5 30.5,34.5C 30.5,33.8333 30.5,33.1667 30.5,32.5C 33.8389,29.341 37.8389,27.1743 42.5,26C 45.3926,24.8512 48.3926,24.3512 51.5,24.5 Z"/></g>
<g><path style="opacity:1" fill="#60ce65" d="M 66.5,25.5 C 64.8861,27.4559 63.2194,29.4559 61.5,31.5C 59.2549,32.6352 56.9216,33.1352 54.5,33C 55.3802,31.6439 55.7135,30.1439 55.5,28.5C 58.9209,26.6243 62.5876,25.6243 66.5,25.5 Z"/></g>
<g><path style="opacity:1" fill="#45d95d" d="M 38.5,15.5 C 38.5106,17.0174 39.1772,18.1841 40.5,19C 39.6634,20.0113 39.33,21.1779 39.5,22.5C 40.552,22.6495 41.552,22.4828 42.5,22C 44.4412,19.5464 46.7746,17.713 49.5,16.5C 45.7281,23.1118 40.0614,26.6118 32.5,27C 29.864,28.4098 29.1974,30.2431 30.5,32.5C 30.5,33.1667 30.5,33.8333 30.5,34.5C 30.1667,35.8333 29.8333,35.8333 29.5,34.5C 28.9218,32.6198 27.5885,31.6198 25.5,31.5C 21.4924,32.0565 17.8257,33.3898 14.5,35.5C 17.6784,30.1348 22.1784,28.4682 28,30.5C 29.332,28.34 30.832,26.34 32.5,24.5C 34.6038,22.9013 36.6038,21.068 38.5,19C 38.2716,18.6012 37.9382,18.4346 37.5,18.5C 36.8333,18.5 36.5,18.1667 36.5,17.5C 36.8333,16.5 37.5,15.8333 38.5,15.5 Z"/></g>
<g><path style="opacity:1" fill="#1caf1f" d="M 72.5,28.5 C 72.5,29.5 72.5,30.5 72.5,31.5C 68.7344,34.1313 64.5677,36.1313 60,37.5C 58.6898,38.1301 57.8565,39.1301 57.5,40.5C 57.1667,41.1667 56.8333,41.8333 56.5,42.5C 55.391,42.4431 54.391,42.1098 53.5,41.5C 54.1098,40.609 54.4431,39.609 54.5,38.5C 60.9726,36.0298 66.9726,32.6964 72.5,28.5 Z"/></g>
<g><path style="opacity:1" fill="#1da520" d="M 80.5,23.5 C 83.1667,23.5 85.8333,23.5 88.5,23.5C 84.4404,27.2985 79.4404,28.9652 73.5,28.5C 73.5,29.5 73.5,30.5 73.5,31.5C 73.5,31.8333 73.5,32.1667 73.5,32.5C 68.7219,36.2224 63.3885,38.8891 57.5,40.5C 57.8565,39.1301 58.6898,38.1301 60,37.5C 64.5677,36.1313 68.7344,34.1313 72.5,31.5C 72.5,30.5 72.5,29.5 72.5,28.5C 72.1667,27.8333 71.8333,27.1667 71.5,26.5C 74.7846,26.0719 77.7846,25.0719 80.5,23.5 Z"/></g>
<g><path style="opacity:1" fill="#2eda51" d="M 29.5,34.5 C 23.6494,33.674 18.316,34.8407 13.5,38C 12.7476,38.6708 12.4142,39.5041 12.5,40.5C 11.7281,41.6935 10.7281,42.6935 9.5,43.5C 9.5,42.8333 9.16667,42.5 8.5,42.5C 8.37201,40.3453 8.87201,38.3453 10,36.5C 10.3333,37.1667 10.6667,37.8333 11,38.5C 11.2784,37.5842 11.7784,36.9175 12.5,36.5C 13.1667,36.1667 13.8333,35.8333 14.5,35.5C 17.8257,33.3898 21.4924,32.0565 25.5,31.5C 27.5885,31.6198 28.9218,32.6198 29.5,34.5 Z"/></g>
<g><path style="opacity:1" fill="#12a514" d="M 52.5,17.5 C 52.8333,17.5 53.1667,17.5 53.5,17.5C 53.5,18.8333 53.5,20.1667 53.5,21.5C 53.5,21.8333 53.5,22.1667 53.5,22.5C 53.1667,23.8333 52.8333,25.1667 52.5,26.5C 52.1667,27.1667 51.8333,27.8333 51.5,28.5C 45.0937,31.2017 38.7603,34.2017 32.5,37.5C 31.596,36.791 31.2627,35.791 31.5,34.5C 38.0753,30.9755 44.742,27.6421 51.5,24.5C 52.3686,22.283 52.702,19.9496 52.5,17.5 Z"/></g>
<g><path style="opacity:1" fill="#0d940c" d="M 51.5,28.5 C 51.5,29.1667 51.5,29.8333 51.5,30.5C 50.5,30.5 49.5,30.5 48.5,30.5C 48.5,31.5 48.5,32.5 48.5,33.5C 43.6379,34.928 38.9713,36.928 34.5,39.5C 34.1667,39.5 33.8333,39.5 33.5,39.5C 33.1667,39.5 32.8333,39.5 32.5,39.5C 32.5,38.8333 32.5,38.1667 32.5,37.5C 38.7603,34.2017 45.0937,31.2017 51.5,28.5 Z"/></g>
<g><path style="opacity:1" fill="#0b890a" d="M 51.5,30.5 C 50.8333,31.8333 50.1667,33.1667 49.5,34.5C 46.6667,36.4779 43.6667,38.3112 40.5,40C 38.8988,40.2734 37.3988,40.7734 36,41.5C 35.2828,40.9558 34.7828,40.2891 34.5,39.5C 38.9713,36.928 43.6379,34.928 48.5,33.5C 48.5,32.5 48.5,31.5 48.5,30.5C 49.5,30.5 50.5,30.5 51.5,30.5 Z"/></g>
<g><path style="opacity:1" fill="#097d08" d="M 49.5,34.5 C 48.6394,36.3863 47.6394,38.2196 46.5,40C 43.3877,41.3058 40.2211,42.4724 37,43.5C 36.0979,43.2568 35.2646,42.9234 34.5,42.5C 34.1667,42.5 33.8333,42.5 33.5,42.5C 33.5,41.5 33.5,40.5 33.5,39.5C 33.8333,39.5 34.1667,39.5 34.5,39.5C 34.7828,40.2891 35.2828,40.9558 36,41.5C 37.3988,40.7734 38.8988,40.2734 40.5,40C 43.6667,38.3112 46.6667,36.4779 49.5,34.5 Z"/></g>
<g><path style="opacity:1" fill="#0d760c" d="M 91.5,26.5 C 92.4511,27.9187 92.7845,29.5853 92.5,31.5C 91.8826,31.3893 91.3826,31.056 91,30.5C 90.3333,35.8333 89.6667,35.8333 89,30.5C 86.5719,31.63 84.4053,33.13 82.5,35C 80.0709,35.7033 77.7375,35.5366 75.5,34.5C 74.8333,34.5 74.1667,34.5 73.5,34.5C 73.5,33.8333 73.5,33.1667 73.5,32.5C 73.5,32.1667 73.5,31.8333 73.5,31.5C 76.5184,31.6646 79.5184,31.498 82.5,31C 85.324,28.9212 88.324,27.4212 91.5,26.5 Z"/></g>
<g><path style="opacity:0.998" fill="#0d6509" d="M 92.5,31.5 C 92.3284,32.4916 92.6618,33.1583 93.5,33.5C 93.5979,35.5529 92.9313,37.2196 91.5,38.5C 91.1667,35.8333 90.8333,35.8333 90.5,38.5C 89.6618,38.8417 89.3284,39.5084 89.5,40.5C 89.1667,40.5 88.8333,40.5 88.5,40.5C 88.6567,39.1266 88.49,37.7932 88,36.5C 85.0558,37.2566 82.0558,37.9233 79,38.5C 76.9264,37.9283 75.7598,36.595 75.5,34.5C 77.7375,35.5366 80.0709,35.7033 82.5,35C 84.4053,33.13 86.5719,31.63 89,30.5C 89.6667,35.8333 90.3333,35.8333 91,30.5C 91.3826,31.056 91.8826,31.3893 92.5,31.5 Z"/></g>
<g><path style="opacity:1" fill="#22d144" d="M 29.5,34.5 C 29.8333,35.8333 30.1667,35.8333 30.5,34.5C 30.8333,34.5 31.1667,34.5 31.5,34.5C 31.2627,35.791 31.596,36.791 32.5,37.5C 32.5,38.1667 32.5,38.8333 32.5,39.5C 32.1667,39.5 31.8333,39.5 31.5,39.5C 29.9687,37.3199 27.8021,36.3199 25,36.5C 20.5385,37.1522 16.3719,38.4855 12.5,40.5C 12.4142,39.5041 12.7476,38.6708 13.5,38C 18.316,34.8407 23.6494,33.674 29.5,34.5 Z"/></g>
<g><path style="opacity:1" fill="#2abf30" d="M 66.5,25.5 C 68.2915,25.366 69.9582,25.6993 71.5,26.5C 71.8333,27.1667 72.1667,27.8333 72.5,28.5C 66.9726,32.6964 60.9726,36.0298 54.5,38.5C 56.5272,35.8061 58.8605,33.4728 61.5,31.5C 63.2194,29.4559 64.8861,27.4559 66.5,25.5 Z"/></g>
<g><path style="opacity:0.999" fill="#0a5c08" d="M 73.5,34.5 C 74.1667,34.5 74.8333,34.5 75.5,34.5C 75.7598,36.595 76.9264,37.9283 79,38.5C 82.0558,37.9233 85.0558,37.2566 88,36.5C 88.49,37.7932 88.6567,39.1266 88.5,40.5C 88.5,40.8333 88.5,41.1667 88.5,41.5C 84.5483,40.8042 80.5483,40.3042 76.5,40C 75.8366,38.4815 74.8366,37.3149 73.5,36.5C 73.5,35.8333 73.5,35.1667 73.5,34.5 Z"/></g>
<g><path style="opacity:1" fill="#1acb3a" d="M 31.5,39.5 C 24.7825,37.7992 18.4492,38.7992 12.5,42.5C 11.8728,43.4168 11.5394,44.4168 11.5,45.5C 11.1583,46.3382 10.4916,46.6716 9.5,46.5C 9.5,45.5 9.5,44.5 9.5,43.5C 10.7281,42.6935 11.7281,41.6935 12.5,40.5C 16.3719,38.4855 20.5385,37.1522 25,36.5C 27.8021,36.3199 29.9687,37.3199 31.5,39.5 Z"/></g>
<g><path style="opacity:1" fill="#0e8f0e" d="M 73.5,32.5 C 73.5,33.1667 73.5,33.8333 73.5,34.5C 73.5,35.1667 73.5,35.8333 73.5,36.5C 73.5,37.1667 73.1667,37.5 72.5,37.5C 66.8213,38.4981 61.8213,40.8315 57.5,44.5C 57.1667,44.5 56.8333,44.5 56.5,44.5C 56.5,43.8333 56.5,43.1667 56.5,42.5C 56.8333,41.8333 57.1667,41.1667 57.5,40.5C 63.3885,38.8891 68.7219,36.2224 73.5,32.5 Z"/></g>
<g><path style="opacity:1" fill="#16c231" d="M 31.5,39.5 C 31.8333,39.5 32.1667,39.5 32.5,39.5C 32.8333,39.5 33.1667,39.5 33.5,39.5C 33.5,40.5 33.5,41.5 33.5,42.5C 33.631,43.2389 33.4643,43.9056 33,44.5C 29.2389,41.7575 25.0722,40.9241 20.5,42C 17.4005,42.9386 14.4005,44.1052 11.5,45.5C 11.5394,44.4168 11.8728,43.4168 12.5,42.5C 18.4492,38.7992 24.7825,37.7992 31.5,39.5 Z"/></g>
<g><path style="opacity:1" fill="#2eb434" d="M 55.5,28.5 C 55.7135,30.1439 55.3802,31.6439 54.5,33C 56.9216,33.1352 59.2549,32.6352 61.5,31.5C 58.8605,33.4728 56.5272,35.8061 54.5,38.5C 54.4431,39.609 54.1098,40.609 53.5,41.5C 51.5,41.5 49.5,41.5 47.5,41.5C 50.2327,37.1239 52.8994,32.7906 55.5,28.5 Z"/></g>
<g><path style="opacity:0.004" fill="#0f1f06" d="M 90.5,38.5 C 90.8333,38.5 91.1667,38.5 91.5,38.5C 91.6716,39.4916 91.3382,40.1583 90.5,40.5C 90.5,39.8333 90.5,39.1667 90.5,38.5 Z"/></g>
<g><path style="opacity:1" fill="#0b7e0a" d="M 72.5,37.5 C 72.5,38.1667 72.5,38.8333 72.5,39.5C 72.1667,40.1667 71.8333,40.8333 71.5,41.5C 70.8826,41.3893 70.3826,41.056 70,40.5C 66.4397,42.0738 62.9397,43.7405 59.5,45.5C 58.8243,46.6016 58.1577,47.6016 57.5,48.5C 57.5,47.1667 57.5,45.8333 57.5,44.5C 61.8213,40.8315 66.8213,38.4981 72.5,37.5 Z"/></g>
<g><path style="opacity:0.008" fill="#14530c" d="M 89.5,40.5 C 89.8333,40.5 90.1667,40.5 90.5,40.5C 90.6716,41.4916 90.3382,42.1583 89.5,42.5C 89.5,41.8333 89.5,41.1667 89.5,40.5 Z"/></g>
<g><path style="opacity:1" fill="#11b525" d="M 33.5,42.5 C 33.8333,42.5 34.1667,42.5 34.5,42.5C 34.5,43.8333 34.5,45.1667 34.5,46.5C 30.7196,45.5974 26.8862,44.9308 23,44.5C 18.5632,45.1429 14.3966,46.4763 10.5,48.5C 9.83333,48.5 9.5,48.1667 9.5,47.5C 9.5,47.1667 9.5,46.8333 9.5,46.5C 10.4916,46.6716 11.1583,46.3382 11.5,45.5C 14.4005,44.1052 17.4005,42.9386 20.5,42C 25.0722,40.9241 29.2389,41.7575 33,44.5C 33.4643,43.9056 33.631,43.2389 33.5,42.5 Z"/></g>
<g><path style="opacity:1" fill="#054805" d="M 72.5,39.5 C 73.2485,40.531 73.9152,41.6976 74.5,43C 77.7305,43.8611 80.7305,45.0278 83.5,46.5C 75.3616,45.8842 68.0283,47.8842 61.5,52.5C 60.8333,52.8333 60.1667,53.1667 59.5,53.5C 58.8333,53.8333 58.1667,54.1667 57.5,54.5C 57.5,54.1667 57.5,53.8333 57.5,53.5C 57.5,52.5 57.5,51.5 57.5,50.5C 58.8249,49.0474 59.6582,49.3808 60,51.5C 62.5272,49.903 65.1939,48.5697 68,47.5C 69.9347,45.9661 71.1013,43.9661 71.5,41.5C 71.8333,40.8333 72.1667,40.1667 72.5,39.5 Z"/></g>
<g><path style="opacity:1" fill="#0a5007" d="M 73.5,36.5 C 74.8366,37.3149 75.8366,38.4815 76.5,40C 80.5483,40.3042 84.5483,40.8042 88.5,41.5C 88.5,41.8333 88.5,42.1667 88.5,42.5C 87.6618,42.8417 87.3284,43.5084 87.5,44.5C 86.8333,44.5 86.5,44.8333 86.5,45.5C 85.6618,45.8417 85.3284,46.5084 85.5,47.5C 85.1667,47.5 84.8333,47.5 84.5,47.5C 83.8333,47.5 83.5,47.1667 83.5,46.5C 80.7305,45.0278 77.7305,43.8611 74.5,43C 73.9152,41.6976 73.2485,40.531 72.5,39.5C 72.5,38.8333 72.5,38.1667 72.5,37.5C 73.1667,37.5 73.5,37.1667 73.5,36.5 Z"/></g>
<g><path style="opacity:1" fill="#0b6d0d" d="M 52.5,26.5 C 54.0269,26.427 55.0269,27.0937 55.5,28.5C 52.8994,32.7906 50.2327,37.1239 47.5,41.5C 43.2807,42.6087 39.2807,44.2754 35.5,46.5C 35.1667,46.5 34.8333,46.5 34.5,46.5C 34.5,45.1667 34.5,43.8333 34.5,42.5C 35.2646,42.9234 36.0979,43.2568 37,43.5C 40.2211,42.4724 43.3877,41.3058 46.5,40C 47.6394,38.2196 48.6394,36.3863 49.5,34.5C 50.1667,33.1667 50.8333,31.8333 51.5,30.5C 51.5,29.8333 51.5,29.1667 51.5,28.5C 51.8333,27.8333 52.1667,27.1667 52.5,26.5 Z"/></g>
<g><path style="opacity:0.008" fill="#006801" d="M 88.5,42.5 C 88.8333,42.5 89.1667,42.5 89.5,42.5C 89.6716,43.4916 89.3382,44.1583 88.5,44.5C 88.5,43.8333 88.5,43.1667 88.5,42.5 Z"/></g>
<g><path style="opacity:0.016" fill="#003f00" d="M 87.5,44.5 C 87.8333,44.5 88.1667,44.5 88.5,44.5C 88.3147,45.1701 87.9813,45.1701 87.5,44.5 Z"/></g>
<g><path style="opacity:1" fill="#0ea81f" d="M 34.5,46.5 C 34.8333,46.5 35.1667,46.5 35.5,46.5C 35.5,46.8333 35.5,47.1667 35.5,47.5C 33.9382,47.7329 32.6049,48.3995 31.5,49.5C 24.5189,46.5866 17.6856,46.92 11,50.5C 10.5357,49.9056 10.369,49.2389 10.5,48.5C 14.3966,46.4763 18.5632,45.1429 23,44.5C 26.8862,44.9308 30.7196,45.5974 34.5,46.5 Z"/></g>
<g><path style="opacity:1" fill="#3ddd64" d="M 47.5,41.5 C 49.5,41.5 51.5,41.5 53.5,41.5C 54.391,42.1098 55.391,42.4431 56.5,42.5C 56.5,43.1667 56.5,43.8333 56.5,44.5C 56.5,44.8333 56.5,45.1667 56.5,45.5C 49.4851,46.1256 42.4851,46.7922 35.5,47.5C 35.5,47.1667 35.5,46.8333 35.5,46.5C 39.2807,44.2754 43.2807,42.6087 47.5,41.5 Z"/></g>
<g><path style="opacity:0.006" fill="#1a3b13" d="M 86.5,45.5 C 86.8333,45.5 87.1667,45.5 87.5,45.5C 87.5,46.5 87.5,47.5 87.5,48.5C 87.1667,48.5 86.8333,48.5 86.5,48.5C 86.5,47.5 86.5,46.5 86.5,45.5 Z"/></g>
<g><path style="opacity:1" fill="#23d349" d="M 56.5,45.5 C 56.6309,46.3764 56.2975,47.0431 55.5,47.5C 47.4022,50.1745 39.0689,51.1745 30.5,50.5C 30.5,49.8333 30.8333,49.5 31.5,49.5C 32.6049,48.3995 33.9382,47.7329 35.5,47.5C 42.4851,46.7922 49.4851,46.1256 56.5,45.5 Z"/></g>
<g><path style="opacity:1" fill="#076706" d="M 71.5,41.5 C 71.1013,43.9661 69.9347,45.9661 68,47.5C 65.1939,48.5697 62.5272,49.903 60,51.5C 59.6582,49.3808 58.8249,49.0474 57.5,50.5C 57.5,50.1667 57.5,49.8333 57.5,49.5C 57.5,49.1667 57.5,48.8333 57.5,48.5C 58.1577,47.6016 58.8243,46.6016 59.5,45.5C 62.9397,43.7405 66.4397,42.0738 70,40.5C 70.3826,41.056 70.8826,41.3893 71.5,41.5 Z"/></g>
<g><path style="opacity:1" fill="#2bb630" d="M 83.5,46.5 C 83.5,47.1667 83.8333,47.5 84.5,47.5C 77.3483,49.7901 70.015,51.7901 62.5,53.5C 61.8333,53.5 61.5,53.1667 61.5,52.5C 68.0283,47.8842 75.3616,45.8842 83.5,46.5 Z"/></g>
<g><path style="opacity:1" fill="#139619" d="M 8.5,42.5 C 8.21552,44.4147 8.54885,46.0813 9.5,47.5C 9.5,48.1667 9.83333,48.5 10.5,48.5C 10.369,49.2389 10.5357,49.9056 11,50.5C 17.6856,46.92 24.5189,46.5866 31.5,49.5C 30.8333,49.5 30.5,49.8333 30.5,50.5C 29.6618,50.8417 29.3284,51.5084 29.5,52.5C 29.1667,52.5 28.8333,52.5 28.5,52.5C 22.8966,51.0681 17.3966,51.7348 12,54.5C 11.3292,53.7476 10.4959,53.4142 9.5,53.5C 9.30678,49.551 8.80678,49.551 8,53.5C 6.34425,49.6843 6.51092,46.0176 8.5,42.5 Z"/></g>
<g><path style="opacity:0.02" fill="#008600" d="M 87.5,48.5 C 88.6225,50.2884 88.7891,52.2884 88,54.5C 87.5045,52.5273 87.3379,50.5273 87.5,48.5 Z"/></g>
<g><path style="opacity:1" fill="#19cb3a" d="M 56.5,44.5 C 56.8333,44.5 57.1667,44.5 57.5,44.5C 57.5,45.8333 57.5,47.1667 57.5,48.5C 57.5,48.8333 57.5,49.1667 57.5,49.5C 54.5,50.1667 51.5,50.8333 48.5,51.5C 42.1903,52.1904 35.857,52.5237 29.5,52.5C 29.3284,51.5084 29.6618,50.8417 30.5,50.5C 39.0689,51.1745 47.4022,50.1745 55.5,47.5C 56.2975,47.0431 56.6309,46.3764 56.5,45.5C 56.5,45.1667 56.5,44.8333 56.5,44.5 Z"/></g>
<g><path style="opacity:1" fill="#14c633" d="M 48.5,51.5 C 48.3893,52.1174 48.056,52.6174 47.5,53C 43.5497,53.4622 39.7164,54.2955 36,55.5C 34,54.8333 32,54.1667 30,53.5C 29.6012,53.7284 29.4346,54.0618 29.5,54.5C 28.8333,54.8333 28.1667,55.1667 27.5,55.5C 27.5,55.1667 27.5,54.8333 27.5,54.5C 27.8333,53.8333 28.1667,53.1667 28.5,52.5C 28.8333,52.5 29.1667,52.5 29.5,52.5C 35.857,52.5237 42.1903,52.1904 48.5,51.5 Z"/></g>
<g><path style="opacity:1" fill="#129c13" d="M 83.5,50.5 C 79.4339,52.3694 75.4339,54.5361 71.5,57C 66.7761,57.9891 62.7761,56.8224 59.5,53.5C 60.1667,53.1667 60.8333,52.8333 61.5,52.5C 61.5,53.1667 61.8333,53.5 62.5,53.5C 64.9664,54.6341 67.633,54.8007 70.5,54C 74.8264,52.6691 79.1597,51.5024 83.5,50.5 Z"/></g>
<g><path style="opacity:1" fill="#12be2c" d="M 57.5,49.5 C 57.5,49.8333 57.5,50.1667 57.5,50.5C 57.5,51.5 57.5,52.5 57.5,53.5C 57.1667,53.5 56.8333,53.5 56.5,53.5C 55.8826,53.3893 55.3826,53.056 55,52.5C 49.3799,54.5255 43.5466,55.8588 37.5,56.5C 34.5619,56.4324 31.8952,55.7658 29.5,54.5C 29.4346,54.0618 29.6012,53.7284 30,53.5C 32,54.1667 34,54.8333 36,55.5C 39.7164,54.2955 43.5497,53.4622 47.5,53C 48.056,52.6174 48.3893,52.1174 48.5,51.5C 51.5,50.8333 54.5,50.1667 57.5,49.5 Z"/></g>
<g><path style="opacity:1" fill="#18a71b" d="M 84.5,47.5 C 84.8333,47.5 85.1667,47.5 85.5,47.5C 85.5,48.1667 85.8333,48.5 86.5,48.5C 86.5,49.1667 86.5,49.8333 86.5,50.5C 86.1667,50.5 85.8333,50.5 85.5,50.5C 84.8333,50.5 84.1667,50.5 83.5,50.5C 79.1597,51.5024 74.8264,52.6691 70.5,54C 67.633,54.8007 64.9664,54.6341 62.5,53.5C 70.015,51.7901 77.3483,49.7901 84.5,47.5 Z"/></g>
<g><path style="opacity:1" fill="#0fb827" d="M 56.5,53.5 C 56.5,54.1667 56.5,54.8333 56.5,55.5C 50.7997,55.5405 45.2997,56.5405 40,58.5C 35.8464,58.0969 31.6798,57.0969 27.5,55.5C 28.1667,55.1667 28.8333,54.8333 29.5,54.5C 31.8952,55.7658 34.5619,56.4324 37.5,56.5C 43.5466,55.8588 49.3799,54.5255 55,52.5C 55.3826,53.056 55.8826,53.3893 56.5,53.5 Z"/></g>
<g><path style="opacity:1" fill="#0f7912" d="M 28.5,52.5 C 28.1667,53.1667 27.8333,53.8333 27.5,54.5C 27.1667,54.5 26.8333,54.5 26.5,54.5C 22.3181,58.7188 17.6514,59.7188 12.5,57.5C 12.5,56.8333 12.1667,56.5 11.5,56.5C 11.5,55.8333 11.1667,55.5 10.5,55.5C 10.1667,54.8333 9.83333,54.1667 9.5,53.5C 10.4959,53.4142 11.3292,53.7476 12,54.5C 17.3966,51.7348 22.8966,51.0681 28.5,52.5 Z"/></g>
<g><path style="opacity:0.008" fill="#0f1f06" d="M 86.5,55.5 C 87.8333,56.1667 87.8333,56.8333 86.5,57.5C 86.5,56.8333 86.5,56.1667 86.5,55.5 Z"/></g>
<g><path style="opacity:1" fill="#0daf21" d="M 26.5,54.5 C 26.8333,54.5 27.1667,54.5 27.5,54.5C 27.5,54.8333 27.5,55.1667 27.5,55.5C 31.6798,57.0969 35.8464,58.0969 40,58.5C 45.2997,56.5405 50.7997,55.5405 56.5,55.5C 56.5,55.8333 56.5,56.1667 56.5,56.5C 55.8333,57.5 55.1667,58.5 54.5,59.5C 53.8826,59.3893 53.3826,59.056 53,58.5C 44.1884,61.1473 35.355,61.1473 26.5,58.5C 26.5,57.8333 26.5,57.1667 26.5,56.5C 26.5,55.8333 26.5,55.1667 26.5,54.5 Z"/></g>
<g><path style="opacity:1" fill="#0d7508" d="M 85.5,50.5 C 85.8333,50.5 86.1667,50.5 86.5,50.5C 86.5,52.1667 86.5,53.8333 86.5,55.5C 85.6618,55.8417 85.3284,56.5084 85.5,57.5C 84.8333,57.5 84.5,57.8333 84.5,58.5C 83.5041,58.5858 82.6708,58.2524 82,57.5C 80.2745,58.464 78.4412,59.1307 76.5,59.5C 72.0303,61.0479 67.5303,62.7145 63,64.5C 61.0706,61.7274 58.9039,59.0608 56.5,56.5C 56.5,56.1667 56.5,55.8333 56.5,55.5C 56.5,54.8333 56.5,54.1667 56.5,53.5C 56.8333,53.5 57.1667,53.5 57.5,53.5C 57.5,53.8333 57.5,54.1667 57.5,54.5C 59.7296,55.775 61.063,57.775 61.5,60.5C 62.6667,60.8333 63.8333,61.1667 65,61.5C 68.8646,60.4872 72.6979,59.3205 76.5,58C 79.2748,54.9854 82.2748,52.4854 85.5,50.5 Z"/></g>
<g><path style="opacity:0.012" fill="#006200" d="M 85.5,57.5 C 85.8333,57.5 86.1667,57.5 86.5,57.5C 86.6716,58.4916 86.3382,59.1583 85.5,59.5C 85.5,58.8333 85.5,58.1667 85.5,57.5 Z"/></g>
<g><path style="opacity:1" fill="#205e0e" d="M 26.5,54.5 C 26.5,55.1667 26.5,55.8333 26.5,56.5C 25.5655,57.5676 25.2322,58.901 25.5,60.5C 23.8333,60.5 22.1667,60.5 20.5,60.5C 19.5,60.5 18.5,60.5 17.5,60.5C 16.5084,60.3284 15.8417,60.6618 15.5,61.5C 13.2843,60.7974 11.451,59.4641 10,57.5C 9.30831,56.5632 9.47498,55.8966 10.5,55.5C 11.1667,55.5 11.5,55.8333 11.5,56.5C 12.1667,56.5 12.5,56.8333 12.5,57.5C 17.6514,59.7188 22.3181,58.7188 26.5,54.5 Z"/></g>
<g><path style="opacity:1" fill="#0c880c" d="M 83.5,50.5 C 84.1667,50.5 84.8333,50.5 85.5,50.5C 82.2748,52.4854 79.2748,54.9854 76.5,58C 72.6979,59.3205 68.8646,60.4872 65,61.5C 63.8333,61.1667 62.6667,60.8333 61.5,60.5C 61.063,57.775 59.7296,55.775 57.5,54.5C 58.1667,54.1667 58.8333,53.8333 59.5,53.5C 62.7761,56.8224 66.7761,57.9891 71.5,57C 75.4339,54.5361 79.4339,52.3694 83.5,50.5 Z"/></g>
<g><path style="opacity:1" fill="#0aa11a" d="M 26.5,58.5 C 35.355,61.1473 44.1884,61.1473 53,58.5C 53.3826,59.056 53.8826,59.3893 54.5,59.5C 54.2671,61.0618 53.6005,62.3951 52.5,63.5C 47.3686,63.5357 42.0352,63.3691 36.5,63C 32.7548,62.2093 29.4215,60.7093 26.5,58.5 Z"/></g>
<g><path style="opacity:1" fill="#066506" d="M 56.5,56.5 C 58.9039,59.0608 61.0706,61.7274 63,64.5C 67.5303,62.7145 72.0303,61.0479 76.5,59.5C 72.5918,62.9495 68.2585,65.6161 63.5,67.5C 60.8877,66.6295 58.221,65.9628 55.5,65.5C 54.791,64.596 53.791,64.2627 52.5,64.5C 52.5,64.1667 52.5,63.8333 52.5,63.5C 53.6005,62.3951 54.2671,61.0618 54.5,59.5C 55.1667,58.5 55.8333,57.5 56.5,56.5 Z"/></g>
<g><path style="opacity:1" fill="#0a9316" d="M 26.5,56.5 C 26.5,57.1667 26.5,57.8333 26.5,58.5C 29.4215,60.7093 32.7548,62.2093 36.5,63C 42.0352,63.3691 47.3686,63.5357 52.5,63.5C 52.5,63.8333 52.5,64.1667 52.5,64.5C 51.1667,65.1667 50.1667,66.1667 49.5,67.5C 49.1667,68.5 48.5,69.1667 47.5,69.5C 40.5051,67.5006 33.5051,65.5006 26.5,63.5C 25.596,62.791 25.2627,61.791 25.5,60.5C 25.2322,58.901 25.5655,57.5676 26.5,56.5 Z"/></g>
<g><path style="opacity:0.012" fill="#005500" d="M 82.5,62.5 C 82.8333,62.5 83.1667,62.5 83.5,62.5C 83.3147,63.1701 82.9813,63.1701 82.5,62.5 Z"/></g>
<g><path style="opacity:1" fill="#15570d" d="M 81.5,62.5 C 81.5,63.1667 81.8333,63.5 82.5,63.5C 82.2624,65.4044 81.2624,66.7377 79.5,67.5C 79.1667,66.1667 78.8333,66.1667 78.5,67.5C 77.8333,67.5 77.5,67.8333 77.5,68.5C 76.8333,68.5 76.5,68.8333 76.5,69.5C 75.8333,69.5 75.5,69.8333 75.5,70.5C 74.1667,70.8333 74.1667,71.1667 75.5,71.5C 75.5,72.1667 75.5,72.8333 75.5,73.5C 75.1667,73.5 74.8333,73.5 74.5,73.5C 74.5,72.8333 74.1667,72.5 73.5,72.5C 73.1667,71.1667 72.8333,71.1667 72.5,72.5C 70.3295,70.9138 67.9962,69.5804 65.5,68.5C 66.3132,67.3473 67.3132,67.3473 68.5,68.5C 69.1667,67.5 69.8333,66.5 70.5,65.5C 74.1254,63.3873 77.7921,62.3873 81.5,62.5 Z"/></g>
<g><path style="opacity:1" fill="#0b6009" d="M 84.5,58.5 C 84.5,59.1667 84.8333,59.5 85.5,59.5C 85.573,61.0269 84.9063,62.0269 83.5,62.5C 83.1667,61.1667 82.8333,61.1667 82.5,62.5C 82.1667,62.5 81.8333,62.5 81.5,62.5C 77.7921,62.3873 74.1254,63.3873 70.5,65.5C 69.8333,66.5 69.1667,67.5 68.5,68.5C 67.3132,67.3473 66.3132,67.3473 65.5,68.5C 64.5084,68.6716 63.8417,68.3382 63.5,67.5C 68.2585,65.6161 72.5918,62.9495 76.5,59.5C 78.4412,59.1307 80.2745,58.464 82,57.5C 82.6708,58.2524 83.5041,58.5858 84.5,58.5 Z"/></g>
<g><path style="opacity:1" fill="#087f10" d="M 26.5,63.5 C 33.5051,65.5006 40.5051,67.5006 47.5,69.5C 45.9779,71.3332 43.9779,72.3332 41.5,72.5C 37.6442,70.9302 33.6442,69.9302 29.5,69.5C 27.9752,67.7837 26.9752,65.7837 26.5,63.5 Z"/></g>
<g><path style="opacity:0.012" fill="#005500" d="M 78.5,67.5 C 78.8333,67.5 79.1667,67.5 79.5,67.5C 79.3147,68.1701 78.9813,68.1701 78.5,67.5 Z"/></g>
<g><path style="opacity:1" fill="#09520b" d="M 20.5,61.5 C 20.5,61.1667 20.5,60.8333 20.5,60.5C 22.1667,60.5 23.8333,60.5 25.5,60.5C 25.2627,61.791 25.596,62.791 26.5,63.5C 26.9752,65.7837 27.9752,67.7837 29.5,69.5C 29.3522,71.9339 29.1856,74.6005 29,77.5C 28.7216,78.4158 28.2216,79.0825 27.5,79.5C 25.3661,81.4702 23.3661,83.6369 21.5,86C 19.9343,86.765 18.6009,86.5983 17.5,85.5C 18.552,85.6495 19.552,85.4828 20.5,85C 22.2932,82.2047 24.4598,79.7047 27,77.5C 27.8184,74.7728 27.6517,72.1062 26.5,69.5C 24.0498,67.0665 22.0498,64.3998 20.5,61.5 Z"/></g>
<g><path style="opacity:0.008" fill="#007f00" d="M 77.5,68.5 C 77.8333,68.5 78.1667,68.5 78.5,68.5C 78.3147,69.1701 77.9813,69.1701 77.5,68.5 Z"/></g>
<g><path style="opacity:1" fill="#23c53e" d="M 54.5,65.5 C 54.8333,65.5 55.1667,65.5 55.5,65.5C 58.221,65.9628 60.8877,66.6295 63.5,67.5C 63.8417,68.3382 64.5084,68.6716 65.5,68.5C 67.9962,69.5804 70.3295,70.9138 72.5,72.5C 72.8333,72.5 73.1667,72.5 73.5,72.5C 74.1667,72.5 74.5,72.8333 74.5,73.5C 74.5,74.5 74.5,75.5 74.5,76.5C 72.9699,75.7888 71.6366,74.7888 70.5,73.5C 70.3893,72.8826 70.056,72.3826 69.5,72C 66.8333,71.6667 64.1667,71.3333 61.5,71C 59.8246,68.1811 57.4913,66.3478 54.5,65.5 Z"/></g>
<g><path style="opacity:0.008" fill="#007f00" d="M 76.5,69.5 C 76.8333,69.5 77.1667,69.5 77.5,69.5C 77.3147,70.1701 76.9813,70.1701 76.5,69.5 Z"/></g>
<g><path style="opacity:1" fill="#0a8e14" d="M 52.5,64.5 C 52.5988,67.6727 51.9322,70.6727 50.5,73.5C 50.6082,74.4419 50.9415,75.2753 51.5,76C 59.0952,77.3561 66.7618,77.8561 74.5,77.5C 74.5,77.8333 74.5,78.1667 74.5,78.5C 66.16,78.6664 57.8267,78.4997 49.5,78C 48.3511,75.5408 48.3511,73.0408 49.5,70.5C 50.625,69.3478 50.625,68.3478 49.5,67.5C 50.1667,66.1667 51.1667,65.1667 52.5,64.5 Z"/></g>
<g><path style="opacity:0.012" fill="#005500" d="M 75.5,70.5 C 75.8333,70.5 76.1667,70.5 76.5,70.5C 76.3147,71.1701 75.9813,71.1701 75.5,70.5 Z"/></g>
<g><path style="opacity:0.98" fill="#54b15f" d="M 17.5,60.5 C 18.5,60.5 19.5,60.5 20.5,60.5C 20.5,60.8333 20.5,61.1667 20.5,61.5C 20.6085,63.5138 19.9418,65.1805 18.5,66.5C 17.8333,66.5 17.5,66.8333 17.5,67.5C 16.1667,68.1667 15.1667,69.1667 14.5,70.5C 12.7036,72.9 10.3702,74.5667 7.5,75.5C 6.69708,74.5768 6.53042,73.5768 7,72.5C 10.8231,70.7413 14.3231,67.9079 17.5,64C 16.6195,63.2917 15.9528,62.4584 15.5,61.5C 16.4916,61.6716 17.1583,61.3382 17.5,60.5 Z"/></g>
<g><path style="opacity:1" fill="#13b327" d="M 54.5,65.5 C 57.4913,66.3478 59.8246,68.1811 61.5,71C 64.1667,71.3333 66.8333,71.6667 69.5,72C 70.056,72.3826 70.3893,72.8826 70.5,73.5C 64.8796,74.9301 59.3796,74.2634 54,71.5C 53.2109,69.2884 53.3775,67.2884 54.5,65.5 Z"/></g>
<g><path style="opacity:1" fill="#16600f" d="M 49.5,67.5 C 50.625,68.3478 50.625,69.3478 49.5,70.5C 48.1283,71.5116 46.795,72.5116 45.5,73.5C 43.2362,74.2186 40.9029,74.552 38.5,74.5C 38.1107,77.5533 38.7773,80.22 40.5,82.5C 40.5569,83.609 40.8902,84.609 41.5,85.5C 42.1667,86.5 42.8333,87.5 43.5,88.5C 43.5,88.8333 43.5,89.1667 43.5,89.5C 40.5,88.5 38.5,86.5 37.5,83.5C 38.8333,82.8333 38.8333,82.1667 37.5,81.5C 37.5,80.8333 37.5,80.1667 37.5,79.5C 37.5,77.5 37.5,75.5 37.5,73.5C 35.7839,73.3713 34.1172,73.038 32.5,72.5C 31.6935,71.2719 30.6935,70.2719 29.5,69.5C 33.6442,69.9302 37.6442,70.9302 41.5,72.5C 43.9779,72.3332 45.9779,71.3332 47.5,69.5C 48.5,69.1667 49.1667,68.5 49.5,67.5 Z"/></g>
<g><path style="opacity:1" fill="#18951e" d="M 17.5,67.5 C 21.0761,69.8232 22.2427,73.1566 21,77.5C 18.7004,80.7624 15.8671,81.7624 12.5,80.5C 13.5,80.5 14.5,80.5 15.5,80.5C 15.8664,78.095 16.5331,75.7617 17.5,73.5C 17.4841,71.484 16.4841,70.484 14.5,70.5C 15.1667,69.1667 16.1667,68.1667 17.5,67.5 Z"/></g>
<g><path style="opacity:0.999" fill="#0e9e1b" d="M 52.5,64.5 C 53.791,64.2627 54.791,64.596 55.5,65.5C 55.1667,65.5 54.8333,65.5 54.5,65.5C 53.3775,67.2884 53.2109,69.2884 54,71.5C 59.3796,74.2634 64.8796,74.9301 70.5,73.5C 71.6366,74.7888 72.9699,75.7888 74.5,76.5C 74.5,76.8333 74.5,77.1667 74.5,77.5C 66.7618,77.8561 59.0952,77.3561 51.5,76C 50.9415,75.2753 50.6082,74.4419 50.5,73.5C 51.9322,70.6727 52.5988,67.6727 52.5,64.5 Z"/></g>
<g><path style="opacity:0.012" fill="#1ab224" d="M 75.5,73.5 C 76.8333,75.5 76.8333,77.5 75.5,79.5C 75.5,77.5 75.5,75.5 75.5,73.5 Z"/></g>
<g><path style="opacity:1" fill="#0f7d11" d="M 17.5,67.5 C 17.5,66.8333 17.8333,66.5 18.5,66.5C 19.5,66.5 20.5,66.5 21.5,66.5C 21.4609,68.3588 22.2942,69.6921 24,70.5C 26.0008,77.1661 23.6675,81.4994 17,83.5C 13.7904,83.2644 11.2904,81.9311 9.5,79.5C 10.609,79.5569 11.609,79.8902 12.5,80.5C 15.8671,81.7624 18.7004,80.7624 21,77.5C 22.2427,73.1566 21.0761,69.8232 17.5,67.5 Z"/></g>
<g><path style="opacity:0.008" fill="#147b0c" d="M 5.5,79.5 C 4.40168,78.3991 4.23502,77.0657 5,75.5C 5.49001,76.7932 5.65668,78.1266 5.5,79.5 Z"/></g>
<g><path style="opacity:1" fill="#0e4607" d="M 29.5,69.5 C 30.6935,70.2719 31.6935,71.2719 32.5,72.5C 31.6137,76.0833 30.6137,79.75 29.5,83.5C 27.1217,84.6924 25.1217,86.359 23.5,88.5C 21.604,89.4656 19.604,89.7989 17.5,89.5C 17.1667,89.5 16.8333,89.5 16.5,89.5C 15.8333,89.5 15.5,89.8333 15.5,90.5C 14.1667,89.8333 13.1667,88.8333 12.5,87.5C 13.1667,87.5 13.5,87.1667 13.5,86.5C 20.8629,89.4582 25.5296,87.1249 27.5,79.5C 28.2216,79.0825 28.7216,78.4158 29,77.5C 29.1856,74.6005 29.3522,71.9339 29.5,69.5 Z"/></g>
<g><path style="opacity:1" fill="#1fa426" d="M 14.5,70.5 C 16.4841,70.484 17.4841,71.484 17.5,73.5C 16.5331,75.7617 15.8664,78.095 15.5,80.5C 14.5,80.5 13.5,80.5 12.5,80.5C 11.609,79.8902 10.609,79.5569 9.5,79.5C 8.70951,78.5987 7.70951,77.9321 6.5,77.5C 6.32842,76.5084 6.66175,75.8417 7.5,75.5C 10.3702,74.5667 12.7036,72.9 14.5,70.5 Z"/></g>
<g><path style="opacity:1" fill="#083406" d="M 32.5,72.5 C 34.1172,73.038 35.7839,73.3713 37.5,73.5C 37.5,75.5 37.5,77.5 37.5,79.5C 36.8333,79.8333 36.1667,80.1667 35.5,80.5C 34.5041,80.4142 33.6708,80.7476 33,81.5C 32.6667,80.8333 32.3333,80.1667 32,79.5C 31.8784,81.437 31.045,82.7703 29.5,83.5C 30.6137,79.75 31.6137,76.0833 32.5,72.5 Z"/></g>
<g><path style="opacity:1" fill="#0c8713" d="M 49.5,70.5 C 48.3511,73.0408 48.3511,75.5408 49.5,78C 57.8267,78.4997 66.16,78.6664 74.5,78.5C 74.5,78.8333 74.5,79.1667 74.5,79.5C 74.1667,79.5 73.8333,79.5 73.5,79.5C 72.1667,79.5 70.8333,79.5 69.5,79.5C 61.8261,79.6664 54.1594,79.4997 46.5,79C 42.6702,78.7243 42.0035,77.5576 44.5,75.5C 44.8333,74.8333 45.1667,74.1667 45.5,73.5C 46.795,72.5116 48.1283,71.5116 49.5,70.5 Z"/></g>
<g><path style="opacity:1" fill="#12650f" d="M 20.5,61.5 C 22.0498,64.3998 24.0498,67.0665 26.5,69.5C 27.6517,72.1062 27.8184,74.7728 27,77.5C 24.4598,79.7047 22.2932,82.2047 20.5,85C 19.552,85.4828 18.552,85.6495 17.5,85.5C 15.412,84.0605 13.0786,83.3939 10.5,83.5C 10.5,82.8333 10.1667,82.5 9.5,82.5C 9.5,81.8333 9.16667,81.5 8.5,81.5C 8.5,80.8333 8.16667,80.5 7.5,80.5C 7.5,79.8333 7.16667,79.5 6.5,79.5C 6.5,78.8333 6.5,78.1667 6.5,77.5C 7.70951,77.9321 8.70951,78.5987 9.5,79.5C 11.2904,81.9311 13.7904,83.2644 17,83.5C 23.6675,81.4994 26.0008,77.1661 24,70.5C 22.2942,69.6921 21.4609,68.3588 21.5,66.5C 20.5,66.5 19.5,66.5 18.5,66.5C 19.9418,65.1805 20.6085,63.5138 20.5,61.5 Z"/></g>
<g><path style="opacity:1" fill="#098011" d="M 44.5,75.5 C 42.0035,77.5576 42.6702,78.7243 46.5,79C 54.1594,79.4997 61.8261,79.6664 69.5,79.5C 66.0264,80.5249 62.3597,81.1916 58.5,81.5C 52.8236,81.6661 47.1569,81.4994 41.5,81C 38.4133,77.1178 39.4133,75.2845 44.5,75.5 Z"/></g>
<g><path style="opacity:0.012" fill="#00aa00" d="M 74.5,79.5 C 74.8333,79.5 75.1667,79.5 75.5,79.5C 75.3147,80.1701 74.9813,80.1701 74.5,79.5 Z"/></g>
<g><path style="opacity:0.998" fill="#0b7710" d="M 45.5,73.5 C 45.1667,74.1667 44.8333,74.8333 44.5,75.5C 39.4133,75.2845 38.4133,77.1178 41.5,81C 47.1569,81.4994 52.8236,81.6661 58.5,81.5C 52.6209,82.8215 46.6209,83.1548 40.5,82.5C 38.7773,80.22 38.1107,77.5533 38.5,74.5C 40.9029,74.552 43.2362,74.2186 45.5,73.5 Z"/></g>
<g><path style="opacity:0.016" fill="#007f00" d="M 73.5,80.5 C 73.8333,80.5 74.1667,80.5 74.5,80.5C 74.3147,81.1701 73.9813,81.1701 73.5,80.5 Z"/></g>
<g><path style="opacity:0.008" fill="#010f00" d="M 35.5,82.5 C 35.5,82.1667 35.5,81.8333 35.5,81.5C 36.1667,81.5 36.8333,81.5 37.5,81.5C 37.5,82.1667 37.5,82.8333 37.5,83.5C 36.8333,83.1667 36.1667,82.8333 35.5,82.5 Z"/></g>
<g><path style="opacity:0.992" fill="#107613" d="M 69.5,79.5 C 70.8333,79.5 72.1667,79.5 73.5,79.5C 73.5,79.8333 73.5,80.1667 73.5,80.5C 72.8333,80.5 72.5,80.8333 72.5,81.5C 72.1667,81.5 71.8333,81.5 71.5,81.5C 69.9557,81.7031 68.6223,82.3698 67.5,83.5C 65.2576,82.9128 63.0909,82.5794 61,82.5C 54.245,83.6015 47.745,84.6015 41.5,85.5C 40.8902,84.609 40.5569,83.609 40.5,82.5C 46.6209,83.1548 52.6209,82.8215 58.5,81.5C 62.3597,81.1916 66.0264,80.5249 69.5,79.5 Z"/></g>
<g><path style="opacity:0.012" fill="#005500" d="M 72.5,81.5 C 72.8333,81.5 73.1667,81.5 73.5,81.5C 73.3147,82.1701 72.9813,82.1701 72.5,81.5 Z"/></g>
<g><path style="opacity:0.016" fill="#003f00" d="M 34.5,82.5 C 34.8333,82.5 35.1667,82.5 35.5,82.5C 35.3147,83.1701 34.9813,83.1701 34.5,82.5 Z"/></g>
<g><path style="opacity:0.016" fill="#003f00" d="M 71.5,82.5 C 71.8333,82.5 72.1667,82.5 72.5,82.5C 72.3147,83.1701 71.9813,83.1701 71.5,82.5 Z"/></g>
<g><path style="opacity:0.012" fill="#000000" d="M 33.5,83.5 C 33.8333,83.5 34.1667,83.5 34.5,83.5C 34.3147,84.1701 33.9813,84.1701 33.5,83.5 Z"/></g>
<g><path style="opacity:0.012" fill="#54aa00" d="M 70.5,83.5 C 70.8333,83.5 71.1667,83.5 71.5,83.5C 71.3147,84.1701 70.9813,84.1701 70.5,83.5 Z"/></g>
<g><path style="opacity:0.02" fill="#323300" d="M 32.5,84.5 C 32.8333,84.5 33.1667,84.5 33.5,84.5C 33.3147,85.1701 32.9813,85.1701 32.5,84.5 Z"/></g>
<g><path style="opacity:0.016" fill="#003f00" d="M 31.5,85.5 C 31.8333,85.5 32.1667,85.5 32.5,85.5C 32.3147,86.1701 31.9813,86.1701 31.5,85.5 Z"/></g>
<g><path style="opacity:0.995" fill="#126a12" d="M 71.5,81.5 C 71.5,81.8333 71.5,82.1667 71.5,82.5C 70.8333,82.5 70.5,82.8333 70.5,83.5C 69.1667,83.8333 69.1667,84.1667 70.5,84.5C 70.1667,85.5 69.5,86.1667 68.5,86.5C 68.5,86.1667 68.5,85.8333 68.5,85.5C 68.1667,84.1667 67.8333,84.1667 67.5,85.5C 67.1667,85.5 66.8333,85.5 66.5,85.5C 65.8333,85.5 65.5,85.8333 65.5,86.5C 65.1667,86.5 64.8333,86.5 64.5,86.5C 64.1667,86.5 63.8333,86.5 63.5,86.5C 62.8333,86.5 62.5,86.8333 62.5,87.5C 61.8333,87.5 61.1667,87.5 60.5,87.5C 55.1951,88.1942 49.8617,88.5276 44.5,88.5C 44.1667,88.5 43.8333,88.5 43.5,88.5C 42.8333,87.5 42.1667,86.5 41.5,85.5C 47.745,84.6015 54.245,83.6015 61,82.5C 63.0909,82.5794 65.2576,82.9128 67.5,83.5C 68.6223,82.3698 69.9557,81.7031 71.5,81.5 Z"/></g>
<g><path style="opacity:1" fill="#1c430d" d="M 5.5,79.5 C 5.83333,79.5 6.16667,79.5 6.5,79.5C 7.16667,79.5 7.5,79.8333 7.5,80.5C 8.16667,80.5 8.5,80.8333 8.5,81.5C 9.16667,81.5 9.5,81.8333 9.5,82.5C 10.1667,82.5 10.5,82.8333 10.5,83.5C 13.0786,83.3939 15.412,84.0605 17.5,85.5C 18.6009,86.5983 19.9343,86.765 21.5,86C 23.3661,83.6369 25.3661,81.4702 27.5,79.5C 25.5296,87.1249 20.8629,89.4582 13.5,86.5C 12.794,85.4427 12.4607,85.7761 12.5,87.5C 9.42747,85.4309 7.09413,82.7642 5.5,79.5 Z"/></g>
<g><path style="opacity:0.988" fill="#1e3c12" d="M 35.5,80.5 C 35.5,80.8333 35.5,81.1667 35.5,81.5C 34.8333,81.5 34.5,81.8333 34.5,82.5C 33.8333,82.5 33.5,82.8333 33.5,83.5C 32.8333,83.5 32.5,83.8333 32.5,84.5C 31.8333,84.5 31.5,84.8333 31.5,85.5C 30.8333,85.5 30.5,85.8333 30.5,86.5C 29.8333,86.5 29.5,86.8333 29.5,87.5C 28.1667,87.8333 28.1667,88.1667 29.5,88.5C 28.0892,90.914 26.0892,92.5806 23.5,93.5C 22.1667,92.1667 20.8333,92.1667 19.5,93.5C 17.5956,93.2624 16.2623,92.2624 15.5,90.5C 15.5,89.8333 15.8333,89.5 16.5,89.5C 16.8333,90.8333 17.1667,90.8333 17.5,89.5C 19.604,89.7989 21.604,89.4656 23.5,88.5C 25.1217,86.359 27.1217,84.6924 29.5,83.5C 31.045,82.7703 31.8784,81.437 32,79.5C 32.3333,80.1667 32.6667,80.8333 33,81.5C 33.6708,80.7476 34.5041,80.4142 35.5,80.5 Z"/></g>
<g><path style="opacity:0.008" fill="#000000" d="M 30.5,86.5 C 30.8333,86.5 31.1667,86.5 31.5,86.5C 31.3147,87.1701 30.9813,87.1701 30.5,86.5 Z"/></g>
<g><path style="opacity:0.008" fill="#007f00" d="M 29.5,87.5 C 29.8333,87.5 30.1667,87.5 30.5,87.5C 30.3147,88.1701 29.9813,88.1701 29.5,87.5 Z"/></g>
<g><path style="opacity:0.835" fill="#175410" d="M 66.5,85.5 C 66.8333,85.5 67.1667,85.5 67.5,85.5C 67.8333,85.5 68.1667,85.5 68.5,85.5C 68.5,85.8333 68.5,86.1667 68.5,86.5C 62.9506,89.7238 56.9506,91.7238 50.5,92.5C 47.7082,92.2394 45.3749,91.2394 43.5,89.5C 44.1667,89.5 44.5,89.1667 44.5,88.5C 49.8617,88.5276 55.1951,88.1942 60.5,87.5C 61.1667,88.8333 61.8333,88.8333 62.5,87.5C 62.5,86.8333 62.8333,86.5 63.5,86.5C 63.8333,87.8333 64.1667,87.8333 64.5,86.5C 64.8333,86.5 65.1667,86.5 65.5,86.5C 66.1667,86.5 66.5,86.1667 66.5,85.5 Z"/></g>
<g><path style="opacity:0.006" fill="#000000" d="M 19.5,93.5 C 20.8333,93.5 22.1667,93.5 23.5,93.5C 22.1667,94.8333 20.8333,94.8333 19.5,93.5 Z"/></g>
</svg>
