<?xml version="1.0" encoding="UTF-8"?>
<!DOCTYPE svg PUBLIC "-//W3C//DTD SVG 1.1//EN" "http://www.w3.org/Graphics/SVG/1.1/DTD/svg11.dtd">
<svg xmlns="http://www.w3.org/2000/svg" version="1.1" width="94px" height="94px" style="shape-rendering:geometricPrecision; text-rendering:geometricPrecision; image-rendering:optimizeQuality; fill-rule:evenodd; clip-rule:evenodd" xmlns:xlink="http://www.w3.org/1999/xlink">
<g><path style="opacity:0.813" fill="#8ee7ac" d="M 54.5,2.5 C 54.5,2.83333 54.5,3.16667 54.5,3.5C 53.8333,3.5 53.5,3.83333 53.5,4.5C 48.8333,4.5 44.1667,4.5 39.5,4.5C 39.1583,5.33825 38.4916,5.67158 37.5,5.5C 31.3503,11.5196 27.5169,18.853 26,27.5C 25.2917,28.3805 24.4584,29.0472 23.5,29.5C 22.1707,26.4563 22.3374,23.4563 24,20.5C 24.3333,21.5 24.6667,22.5 25,23.5C 25.813,21.5643 26.313,19.5643 26.5,17.5C 27.3382,17.1583 27.6716,16.4916 27.5,15.5C 29.5499,11.9386 32.2166,8.77197 35.5,6C 35.1667,5.66667 34.8333,5.33333 34.5,5C 40.7087,0.223894 47.3754,-0.609439 54.5,2.5 Z"/></g>
<g><path style="opacity:1" fill="#328746" d="M 61.5,19.5 C 53.9298,6.72812 44.7631,5.39478 34,15.5C 31.5915,19.8918 30.0915,24.5584 29.5,29.5C 26.8393,38.517 24.506,47.517 22.5,56.5C 20.8268,59.2995 19.6601,62.9662 19,67.5C 18.9005,65.3474 18.0672,63.6808 16.5,62.5C 16.5,61.8333 16.5,61.1667 16.5,60.5C 18.3131,56.2093 18.6465,51.7093 17.5,47C 17.8017,44.6005 18.4684,42.4338 19.5,40.5C 19.2322,42.099 19.5655,43.4324 20.5,44.5C 21.4972,44.5299 22.1639,44.0299 22.5,43C 24.679,33.4893 27.8457,24.3226 32,15.5C 40.9369,3.87708 50.2703,3.54375 60,14.5C 61.0086,16.0249 61.5086,17.6916 61.5,19.5 Z"/></g>
<g><path style="opacity:0.012" fill="#77d787" d="M 27.5,15.5 C 26.6618,15.8417 26.3284,16.5084 26.5,17.5C 25.2035,16.1512 25.3702,14.8179 27,13.5C 27.4643,14.0944 27.631,14.7611 27.5,15.5 Z"/></g>
<g><path style="opacity:0.012" fill="#439040" d="M 66.5,17.5 C 66.6716,16.5084 66.3382,15.8417 65.5,15.5C 65.3932,13.6214 65.8932,13.2881 67,14.5C 67.7401,15.7494 67.5735,16.7494 66.5,17.5 Z"/></g>
<g><path style="opacity:0.993" fill="#46b069" d="M 54.5,2.5 C 55.9733,3.07204 57.3066,3.90537 58.5,5C 58.1667,5.33333 57.8333,5.66667 57.5,6C 60.7834,8.77197 63.4501,11.9386 65.5,15.5C 65.3284,16.4916 65.6618,17.1583 66.5,17.5C 66.7215,20.0673 67.3882,22.4006 68.5,24.5C 68.2627,25.791 68.596,26.791 69.5,27.5C 69.7038,30.5176 70.0371,33.5176 70.5,36.5C 70.8515,39.0728 70.3515,41.4062 69,43.5C 68.7216,42.5842 68.2216,41.9175 67.5,41.5C 67.1667,41.5 66.8333,41.5 66.5,41.5C 65.1479,34.0919 63.4812,26.7586 61.5,19.5C 61.5086,17.6916 61.0086,16.0249 60,14.5C 50.2703,3.54375 40.9369,3.87708 32,15.5C 27.8457,24.3226 24.679,33.4893 22.5,43C 22.1639,44.0299 21.4972,44.5299 20.5,44.5C 20.5,43.1667 20.5,41.8333 20.5,40.5C 21.4345,39.4324 21.7678,38.099 21.5,36.5C 22.6118,34.4006 23.2785,32.0673 23.5,29.5C 24.4584,29.0472 25.2917,28.3805 26,27.5C 27.5169,18.853 31.3503,11.5196 37.5,5.5C 38.4916,5.67158 39.1583,5.33825 39.5,4.5C 44.1667,4.5 48.8333,4.5 53.5,4.5C 54.1667,4.5 54.5,4.16667 54.5,3.5C 54.5,3.16667 54.5,2.83333 54.5,2.5 Z"/></g>
<g><path style="opacity:1" fill="#abd686" d="M 61.5,19.5 C 63.4812,26.7586 65.1479,34.0919 66.5,41.5C 64.0152,36.5364 61.6819,31.5364 59.5,26.5C 58.4886,24.6284 57.6552,22.6284 57,20.5C 54.4571,18.658 52.2904,16.4913 50.5,14C 47.1177,13.1764 43.7844,13.343 40.5,14.5C 36.3216,19.3125 32.655,24.3125 29.5,29.5C 30.0915,24.5584 31.5915,19.8918 34,15.5C 44.7631,5.39478 53.9298,6.72812 61.5,19.5 Z"/></g>
<g><path style="opacity:0.008" fill="#598b62" d="M 69.5,27.5 C 69.7373,26.209 69.404,25.209 68.5,24.5C 68.8357,19.5894 69.5024,19.9228 70.5,25.5C 70.4573,26.4164 70.1239,27.0831 69.5,27.5 Z"/></g>
<g><path style="opacity:1" fill="#c4dc97" d="M 59.5,26.5 C 61.7952,35.6894 63.4618,45.0227 64.5,54.5C 64.3333,56.1667 64.1667,57.8333 64,59.5C 63.2917,58.6195 62.4584,57.9528 61.5,57.5C 60.1658,53.4949 58.8325,49.4949 57.5,45.5C 57.4431,44.391 57.1098,43.391 56.5,42.5C 57.8221,42.67 58.9887,42.3366 60,41.5C 59.795,33.9169 56.9616,27.4169 51.5,22C 45.0306,19.0032 39.5306,20.5032 35,26.5C 29.8861,34.6846 28.2194,43.3513 30,52.5C 31.1889,50.7669 32.3556,49.1002 33.5,47.5C 33.5,48.5 33.5,49.5 33.5,50.5C 26.938,64.1565 29.938,75.1565 42.5,83.5C 42.3764,84.1067 42.0431,84.44 41.5,84.5C 31.7537,82.9273 25.587,77.2607 23,67.5C 22.5014,63.8484 22.3347,60.1817 22.5,56.5C 24.506,47.517 26.8393,38.517 29.5,29.5C 32.655,24.3125 36.3216,19.3125 40.5,14.5C 43.7844,13.343 47.1177,13.1764 50.5,14C 52.2904,16.4913 54.4571,18.658 57,20.5C 57.6552,22.6284 58.4886,24.6284 59.5,26.5 Z"/></g>
<g><path style="opacity:1" fill="#d9e6a8" d="M 56.5,42.5 C 57.1098,43.391 57.4431,44.391 57.5,45.5C 48.1265,40.9652 40.1265,42.6319 33.5,50.5C 33.5,49.5 33.5,48.5 33.5,47.5C 30.4874,36.6423 33.9874,28.3089 44,22.5C 49.8426,23.3223 53.6759,26.8223 55.5,33C 54.6919,33.3076 54.0253,33.8076 53.5,34.5C 55.0761,36.9793 56.0761,39.646 56.5,42.5 Z"/></g>
<g><path style="opacity:1" fill="#d1e4a5" d="M 56.5,42.5 C 56.0761,39.646 55.0761,36.9793 53.5,34.5C 54.0253,33.8076 54.6919,33.3076 55.5,33C 53.6759,26.8223 49.8426,23.3223 44,22.5C 33.9874,28.3089 30.4874,36.6423 33.5,47.5C 32.3556,49.1002 31.1889,50.7669 30,52.5C 28.2194,43.3513 29.8861,34.6846 35,26.5C 39.5306,20.5032 45.0306,19.0032 51.5,22C 56.9616,27.4169 59.795,33.9169 60,41.5C 58.9887,42.3366 57.8221,42.67 56.5,42.5 Z"/></g>
<g><path style="opacity:0.012" fill="#589d6f" d="M 21.5,36.5 C 20.5655,37.5676 20.2322,38.901 20.5,40.5C 20.1667,40.5 19.8333,40.5 19.5,40.5C 19.4207,37.7294 19.9207,35.0627 21,32.5C 21.49,33.7932 21.6567,35.1266 21.5,36.5 Z"/></g>
<g><path style="opacity:0.012" fill="#449f67" d="M 72.5,40.5 C 72.7678,38.901 72.4345,37.5676 71.5,36.5C 71.4568,32.1074 71.9568,31.7741 73,35.5C 73.7796,37.3869 73.6129,39.0536 72.5,40.5 Z"/></g>
<g><path style="opacity:1" fill="#bcd38e" d="M 59.5,26.5 C 61.6819,31.5364 64.0152,36.5364 66.5,41.5C 66.8333,41.5 67.1667,41.5 67.5,41.5C 68.7386,47.9568 69.7386,54.4568 70.5,61C 70.5393,65.7467 69.5393,70.2467 67.5,74.5C 64.0499,80.0649 59.0499,83.3983 52.5,84.5C 54.5047,81.2015 57.0047,78.2015 60,75.5C 60.9632,69.535 61.4632,63.535 61.5,57.5C 62.4584,57.9528 63.2917,58.6195 64,59.5C 64.1667,57.8333 64.3333,56.1667 64.5,54.5C 63.4618,45.0227 61.7952,35.6894 59.5,26.5 Z"/></g>
<g><path style="opacity:1" fill="#d5d18a" d="M 57.5,45.5 C 58.8325,49.4949 60.1658,53.4949 61.5,57.5C 61.4632,63.535 60.9632,69.535 60,75.5C 57.0047,78.2015 54.5047,81.2015 52.5,84.5C 48.7316,85.7866 45.0649,85.7866 41.5,84.5C 42.0431,84.44 42.3764,84.1067 42.5,83.5C 29.938,75.1565 26.938,64.1565 33.5,50.5C 40.1265,42.6319 48.1265,40.9652 57.5,45.5 Z"/></g>
<g><path style="opacity:0.016" fill="#3f7640" d="M 74.5,49.5 C 74.7678,47.901 74.4345,46.5676 73.5,45.5C 73.4568,41.1074 73.9568,40.7741 75,44.5C 75.7796,46.3869 75.6129,48.0536 74.5,49.5 Z"/></g>
<g><path style="opacity:1" fill="#b8795c" d="M 49.5,47.5 C 48.7611,47.369 48.0944,47.5357 47.5,48C 49.8373,50.5931 50.004,53.4264 48,56.5C 45.5967,57.7808 43.7633,59.6142 42.5,62C 40.3981,62.2832 38.7315,61.4499 37.5,59.5C 36.914,59.7093 36.414,60.0426 36,60.5C 35.7216,59.5842 35.2216,58.9175 34.5,58.5C 36.6922,50.231 41.6922,46.5643 49.5,47.5 Z"/></g>
<g><path style="opacity:1" fill="#5e4130" d="M 51.5,48.5 C 58.6457,55.0778 60.8124,63.0778 58,72.5C 55.6872,75.0723 52.8539,76.739 49.5,77.5C 48.1667,77.5 46.8333,77.5 45.5,77.5C 48.0355,70.2664 50.7022,63.0998 53.5,56C 53.2612,53.3647 52.5945,50.8647 51.5,48.5 Z"/></g>
<g><path style="opacity:0.012" fill="#2d3c29" d="M 16.5,70.5 C 16.8333,70.5 17.1667,70.5 17.5,70.5C 17.5,71.8333 17.5,73.1667 17.5,74.5C 16.5655,73.4324 16.2322,72.099 16.5,70.5 Z"/></g>
<g><path style="opacity:1" fill="#875039" d="M 49.5,47.5 C 50.4916,47.3284 51.1583,47.6618 51.5,48.5C 52.5945,50.8647 53.2612,53.3647 53.5,56C 50.7022,63.0998 48.0355,70.2664 45.5,77.5C 46.8333,77.5 48.1667,77.5 49.5,77.5C 36.2992,78.2608 31.2992,71.9274 34.5,58.5C 35.2216,58.9175 35.7216,59.5842 36,60.5C 36.414,60.0426 36.914,59.7093 37.5,59.5C 38.7315,61.4499 40.3981,62.2832 42.5,62C 43.7633,59.6142 45.5967,57.7808 48,56.5C 50.004,53.4264 49.8373,50.5931 47.5,48C 48.0944,47.5357 48.7611,47.369 49.5,47.5 Z"/></g>
<g><path style="opacity:1" fill="#297442" d="M 70.5,36.5 C 70.8333,36.5 71.1667,36.5 71.5,36.5C 71.2322,38.099 71.5655,39.4324 72.5,40.5C 72.2155,42.4147 72.5489,44.0813 73.5,45.5C 73.2322,47.099 73.5655,48.4324 74.5,49.5C 74.5,51.1667 74.5,52.8333 74.5,54.5C 75.348,61.7695 73.848,68.4362 70,74.5C 69.2303,75.5981 68.397,75.5981 67.5,74.5C 69.5393,70.2467 70.5393,65.7467 70.5,61C 69.7386,54.4568 68.7386,47.9568 67.5,41.5C 68.2216,41.9175 68.7216,42.5842 69,43.5C 70.3515,41.4062 70.8515,39.0728 70.5,36.5 Z"/></g>
<g><path style="opacity:0.008" fill="#175322" d="M 75.5,74.5 C 75.3505,73.448 75.5172,72.448 76,71.5C 76.7401,72.7494 76.5735,73.7494 75.5,74.5 Z"/></g>
<g><path style="opacity:0.004" fill="#191919" d="M 17.5,74.5 C 17.8333,74.5 18.1667,74.5 18.5,74.5C 18.1667,77.1667 17.8333,77.1667 17.5,74.5 Z"/></g>
<g><path style="opacity:0.004" fill="#0b1919" d="M 74.5,74.5 C 74.8333,74.5 75.1667,74.5 75.5,74.5C 75.6716,75.4916 75.3382,76.1583 74.5,76.5C 74.5,75.8333 74.5,75.1667 74.5,74.5 Z"/></g>
<g><path style="opacity:0.012" fill="#005554" d="M 73.5,76.5 C 73.8333,76.5 74.1667,76.5 74.5,76.5C 74.3147,77.1701 73.9813,77.1701 73.5,76.5 Z"/></g>
<g><path style="opacity:0.008" fill="#132b0c" d="M 72.5,77.5 C 72.8333,77.5 73.1667,77.5 73.5,77.5C 73.6716,78.4916 73.3382,79.1583 72.5,79.5C 72.5,78.8333 72.5,78.1667 72.5,77.5 Z"/></g>
<g><path style="opacity:0.016" fill="#003f3e" d="M 71.5,79.5 C 71.8333,79.5 72.1667,79.5 72.5,79.5C 72.3147,80.1701 71.9813,80.1701 71.5,79.5 Z"/></g>
<g><path style="opacity:0.016" fill="#003f00" d="M 70.5,80.5 C 70.8333,80.5 71.1667,80.5 71.5,80.5C 71.3147,81.1701 70.9813,81.1701 70.5,80.5 Z"/></g>
<g><path style="opacity:0.004" fill="#1f3030" d="M 23.5,81.5 C 23.5,82.1667 23.8333,82.5 24.5,82.5C 24.5,82.8333 24.5,83.1667 24.5,83.5C 22.5759,83.2893 22.2426,82.6226 23.5,81.5 Z"/></g>
<g><path style="opacity:0.004" fill="#303030" d="M 69.5,81.5 C 69.8333,81.5 70.1667,81.5 70.5,81.5C 70.5,82.8333 69.8333,83.5 68.5,83.5C 68.5,83.1667 68.5,82.8333 68.5,82.5C 69.1667,82.5 69.5,82.1667 69.5,81.5 Z"/></g>
<g><path style="opacity:0.004" fill="#182b22" d="M 24.5,83.5 C 24.8333,83.5 25.1667,83.5 25.5,83.5C 25.5,84.1667 25.8333,84.5 26.5,84.5C 26.5,85.1667 26.8333,85.5 27.5,85.5C 27.5,85.8333 27.5,86.1667 27.5,86.5C 25.5,86.5 24.5,85.5 24.5,83.5 Z"/></g>
<g><path style="opacity:0.004" fill="#121e19" d="M 67.5,83.5 C 67.8333,83.5 68.1667,83.5 68.5,83.5C 68.5,85.5 67.5,86.5 65.5,86.5C 65.5,86.1667 65.5,85.8333 65.5,85.5C 66.1667,85.5 66.5,85.1667 66.5,84.5C 67.1667,84.5 67.5,84.1667 67.5,83.5 Z"/></g>
<g><path style="opacity:0.991" fill="#225333" d="M 16.5,60.5 C 15.4738,64.7301 15.4738,65.3968 16.5,62.5C 18.0672,63.6808 18.9005,65.3474 19,67.5C 19.6601,62.9662 20.8268,59.2995 22.5,56.5C 22.3347,60.1817 22.5014,63.8484 23,67.5C 25.587,77.2607 31.7537,82.9273 41.5,84.5C 45.0649,85.7866 48.7316,85.7866 52.5,84.5C 59.0499,83.3983 64.0499,80.0649 67.5,74.5C 68.397,75.5981 69.2303,75.5981 70,74.5C 73.848,68.4362 75.348,61.7695 74.5,54.5C 75.3091,56.2922 75.8091,58.2922 76,60.5C 76.3333,58.5 76.6667,56.5 77,54.5C 78.8399,59.8602 78.8399,65.1935 77,70.5C 76.6667,69.1667 76.3333,67.8333 76,66.5C 75.1785,69.1168 74.6785,71.7835 74.5,74.5C 73.6618,74.8417 73.3284,75.5084 73.5,76.5C 72.8333,76.5 72.5,76.8333 72.5,77.5C 71.6618,77.8417 71.3284,78.5084 71.5,79.5C 70.8333,79.5 70.5,79.8333 70.5,80.5C 69.8333,80.5 69.5,80.8333 69.5,81.5C 68.8333,81.5 68.5,81.8333 68.5,82.5C 67.8333,82.5 67.5,82.8333 67.5,83.5C 66.8333,83.5 66.5,83.8333 66.5,84.5C 65.8333,84.5 65.5,84.8333 65.5,85.5C 64.1667,85.8333 64.1667,86.1667 65.5,86.5C 64.3406,88.2503 62.674,89.2503 60.5,89.5C 59.8333,88.1667 59.1667,88.1667 58.5,89.5C 54.5,89.8333 54.5,90.1667 58.5,90.5C 56.7986,91.7342 54.7986,92.4008 52.5,92.5C 48.5,91.1667 44.5,91.1667 40.5,92.5C 39.5,92.3333 38.5,92.1667 37.5,92C 39.1667,91.6667 40.8333,91.3333 42.5,91C 39.3728,90.6082 36.3728,89.7749 33.5,88.5C 30.9824,89.5819 28.9824,88.9152 27.5,86.5C 28.8333,86.1667 28.8333,85.8333 27.5,85.5C 26.8333,85.5 26.5,85.1667 26.5,84.5C 25.8333,84.5 25.5,84.1667 25.5,83.5C 25.5,82.8333 25.1667,82.5 24.5,82.5C 23.8333,82.5 23.5,82.1667 23.5,81.5C 22.0664,78.9528 20.3998,76.6195 18.5,74.5C 18.7678,72.901 18.4345,71.5676 17.5,70.5C 17.1667,65.1667 16.8333,65.1667 16.5,70.5C 14.1137,65.3994 13.947,60.0661 16,54.5C 16.4955,56.4727 16.6621,58.4727 16.5,60.5 Z"/></g>
<g><path style="opacity:0.01" fill="#000000" d="M 58.5,90.5 C 58.5,90.1667 58.5,89.8333 58.5,89.5C 59.1667,89.5 59.8333,89.5 60.5,89.5C 60.1583,90.3382 59.4916,90.6716 58.5,90.5 Z"/></g>
</svg>
