<?xml version="1.0" encoding="UTF-8"?>
<!DOCTYPE svg PUBLIC "-//W3C//DTD SVG 1.1//EN" "http://www.w3.org/Graphics/SVG/1.1/DTD/svg11.dtd">
<svg xmlns="http://www.w3.org/2000/svg" version="1.1" width="94px" height="94px" style="shape-rendering:geometricPrecision; text-rendering:geometricPrecision; image-rendering:optimizeQuality; fill-rule:evenodd; clip-rule:evenodd" xmlns:xlink="http://www.w3.org/1999/xlink">
<g><path style="opacity:0.012" fill="#feaa54" d="M 77.5,14.5 C 77.369,13.7611 77.5357,13.0944 78,12.5C 78.6917,13.4368 78.525,14.1034 77.5,14.5 Z"/></g>
<g><path style="opacity:1" fill="#e59c56" d="M 75.5,12.5 C 76.1667,13.1667 76.8333,13.8333 77.5,14.5C 77.5,16.1667 77.5,17.8333 77.5,19.5C 77.5,20.1667 77.5,20.8333 77.5,21.5C 76.7321,20.7375 76.2321,19.7375 76,18.5C 75.1184,21.7895 74.4517,25.1228 74,28.5C 71.876,32.2969 70.2093,36.2969 69,40.5C 67.2658,42.4506 65.0991,43.4506 62.5,43.5C 61.6618,43.1583 61.3284,42.4916 61.5,41.5C 63.9339,40.2287 65.4339,38.2287 66,35.5C 67.2513,27.8249 68.5847,20.1582 70,12.5C 71.6255,12.8541 73.4588,12.8541 75.5,12.5 Z"/></g>
<g><path style="opacity:0.996" fill="#feecbf" d="M 74.5,10.5 C 71.7752,7.5301 69.7752,7.86343 68.5,11.5C 67.1301,11.8565 66.1301,12.6898 65.5,14C 64.8459,18.6273 63.5126,22.794 61.5,26.5C 61.1667,25.5 60.5,24.8333 59.5,24.5C 59.5,23.8333 59.1667,23.5 58.5,23.5C 58.5188,16.4694 59.0188,16.136 60,22.5C 60.6756,18.7977 61.5089,15.131 62.5,11.5C 60.9548,8.73682 61.6215,6.57015 64.5,5C 67.1667,5.66667 69.8333,5.66667 72.5,5C 72.5873,6.75 73.254,8.58334 74.5,10.5 Z"/></g>
<g><path style="opacity:0.02" fill="#ca713e" d="M 79.5,36.5 C 79.3339,30.8236 79.5006,25.1569 80,19.5C 80.8184,25.3487 80.6517,31.0154 79.5,36.5 Z"/></g>
<g><path style="opacity:0.012" fill="#ffefb0" d="M 58.5,23.5 C 58.5,25.1667 58.5,26.8333 58.5,28.5C 57.596,29.209 57.2627,30.209 57.5,31.5C 56.6618,31.8417 56.3284,32.5084 56.5,33.5C 55.8333,33.5 55.1667,33.5 54.5,33.5C 54.5,33.1667 54.5,32.8333 54.5,32.5C 56.2243,29.6552 57.5577,26.6552 58.5,23.5 Z"/></g>
<g><path style="opacity:0.983" fill="#df8541" d="M 77.5,21.5 C 77.6653,25.1817 77.4986,28.8484 77,32.5C 76.6667,31.5 76.3333,30.5 76,29.5C 75,33.8333 74,38.1667 73,42.5C 72.3021,43.6906 71.4687,44.6906 70.5,45.5C 69.5084,45.3284 68.8417,45.6618 68.5,46.5C 67.5041,46.4142 66.6708,46.7476 66,47.5C 65.2904,46.0267 64.1238,45.3601 62.5,45.5C 62.5,44.8333 62.5,44.1667 62.5,43.5C 65.0991,43.4506 67.2658,42.4506 69,40.5C 70.2093,36.2969 71.876,32.2969 74,28.5C 74.4517,25.1228 75.1184,21.7895 76,18.5C 76.2321,19.7375 76.7321,20.7375 77.5,21.5 Z"/></g>
<g><path style="opacity:1" fill="#fedd9f" d="M 68.5,11.5 C 66.0354,20.0666 63.8687,28.7332 62,37.5C 58.9433,38.4505 55.7766,38.7839 52.5,38.5C 52.5,38.1667 52.5,37.8333 52.5,37.5C 54.924,37.8076 57.2573,37.4742 59.5,36.5C 60.2598,33.1792 60.9264,29.8459 61.5,26.5C 63.5126,22.794 64.8459,18.6273 65.5,14C 66.1301,12.6898 67.1301,11.8565 68.5,11.5 Z"/></g>
<g><path style="opacity:1" fill="#f9c37b" d="M 74.5,10.5 C 75.3382,10.8417 75.6716,11.5084 75.5,12.5C 73.4588,12.8541 71.6255,12.8541 70,12.5C 68.5847,20.1582 67.2513,27.8249 66,35.5C 65.4339,38.2287 63.9339,40.2287 61.5,41.5C 58.1538,39.6764 54.4872,39.0097 50.5,39.5C 50.8417,38.6618 51.5084,38.3284 52.5,38.5C 55.7766,38.7839 58.9433,38.4505 62,37.5C 63.8687,28.7332 66.0354,20.0666 68.5,11.5C 69.7752,7.86343 71.7752,7.5301 74.5,10.5 Z"/></g>
<g><path style="opacity:0.791" fill="#fff8e2" d="M 54.5,32.5 C 53.1667,32.8333 53.1667,33.1667 54.5,33.5C 54.5,33.8333 54.5,34.1667 54.5,34.5C 49.9463,33.0962 45.2797,32.0962 40.5,31.5C 35.9089,31.5305 31.7422,32.8638 28,35.5C 27.6012,35.2716 27.4346,34.9382 27.5,34.5C 27.5,34.1667 27.5,33.8333 27.5,33.5C 28.1667,33.5 28.5,33.1667 28.5,32.5C 29.8333,32.1667 29.8333,31.8333 28.5,31.5C 29.8336,30.3479 31.3336,29.3479 33,28.5C 37.8481,29.1395 42.6815,29.8062 47.5,30.5C 50.2746,29.5351 52.6079,30.2017 54.5,32.5 Z"/></g>
<g><path style="opacity:0.999" fill="#fff4cb" d="M 28.5,31.5 C 28.5,31.8333 28.5,32.1667 28.5,32.5C 27.8333,32.5 27.5,32.8333 27.5,33.5C 26.1667,33.8333 26.1667,34.1667 27.5,34.5C 27.4346,34.9382 27.6012,35.2716 28,35.5C 31.7422,32.8638 35.9089,31.5305 40.5,31.5C 45.2797,32.0962 49.9463,33.0962 54.5,34.5C 55.1667,34.5 55.5,34.8333 55.5,35.5C 48.2117,35.9122 40.545,36.0788 32.5,36C 29.1284,37.0189 26.1284,38.5189 23.5,40.5C 22.5,40.8333 21.8333,41.5 21.5,42.5C 20.8333,43.5 20.1667,44.5 19.5,45.5C 18.8333,45.8333 18.1667,46.1667 17.5,46.5C 18.6045,44.8467 18.7712,43.18 18,41.5C 18.9138,42.6537 19.7471,42.487 20.5,41C 19.5494,40.2825 19.3828,39.4491 20,38.5C 22.1193,38.4928 23.9526,37.3261 25.5,35C 24.9683,32.9952 25.9683,31.8286 28.5,31.5 Z"/></g>
<g><path style="opacity:0.998" fill="#cd773a" d="M 77.5,19.5 C 78.4889,24.9753 78.8222,30.642 78.5,36.5C 77.5489,37.9187 77.2155,39.5853 77.5,41.5C 76.596,42.209 76.2627,43.209 76.5,44.5C 75.8333,44.5 75.5,44.8333 75.5,45.5C 74.0011,46.494 72.3344,46.494 70.5,45.5C 71.4687,44.6906 72.3021,43.6906 73,42.5C 74,38.1667 75,33.8333 76,29.5C 76.3333,30.5 76.6667,31.5 77,32.5C 77.4986,28.8484 77.6653,25.1817 77.5,21.5C 77.5,20.8333 77.5,20.1667 77.5,19.5 Z"/></g>
<g><path style="opacity:0.999" fill="#ffeec0" d="M 59.5,24.5 C 60.5,24.8333 61.1667,25.5 61.5,26.5C 60.9264,29.8459 60.2598,33.1792 59.5,36.5C 57.2573,37.4742 54.924,37.8076 52.5,37.5C 47.6441,37.5312 42.8108,37.1978 38,36.5C 33.2512,37.9129 28.4179,39.2463 23.5,40.5C 26.1284,38.5189 29.1284,37.0189 32.5,36C 40.545,36.0788 48.2117,35.9122 55.5,35.5C 56.3382,35.1583 56.6716,34.4916 56.5,33.5C 57.3382,33.1583 57.6716,32.4916 57.5,31.5C 58.404,30.791 58.7373,29.791 58.5,28.5C 59.4345,27.4324 59.7678,26.099 59.5,24.5 Z"/></g>
<g><path style="opacity:1" fill="#fee4b1" d="M 52.5,37.5 C 52.5,37.8333 52.5,38.1667 52.5,38.5C 51.5084,38.3284 50.8417,38.6618 50.5,39.5C 50.1667,39.5 49.8333,39.5 49.5,39.5C 48.8333,39.5 48.1667,39.5 47.5,39.5C 42.8749,39.7584 38.3749,39.7584 34,39.5C 29.8403,40.4447 25.6736,41.4447 21.5,42.5C 21.8333,41.5 22.5,40.8333 23.5,40.5C 28.4179,39.2463 33.2512,37.9129 38,36.5C 42.8108,37.1978 47.6441,37.5312 52.5,37.5 Z"/></g>
<g><path style="opacity:0.012" fill="#ab4e00" d="M 78.5,36.5 C 78.8333,36.5 79.1667,36.5 79.5,36.5C 79.7845,38.4147 79.4511,40.0813 78.5,41.5C 78.5,39.8333 78.5,38.1667 78.5,36.5 Z"/></g>
<g><path style="opacity:1" fill="#fedba1" d="M 47.5,39.5 C 44.2109,40.8283 40.8776,42.1616 37.5,43.5C 34.822,44.6184 32.1553,44.6184 29.5,43.5C 26.5588,44.2026 23.7255,45.2026 21,46.5C 20.2352,46.4301 19.7352,46.0967 19.5,45.5C 20.1667,44.5 20.8333,43.5 21.5,42.5C 25.6736,41.4447 29.8403,40.4447 34,39.5C 38.3749,39.7584 42.8749,39.7584 47.5,39.5 Z"/></g>
<g><path style="opacity:1" fill="#e77e18" d="M 49.5,39.5 C 49.8333,39.5 50.1667,39.5 50.5,39.5C 54.4872,39.0097 58.1538,39.6764 61.5,41.5C 61.3284,42.4916 61.6618,43.1583 62.5,43.5C 62.5,44.1667 62.5,44.8333 62.5,45.5C 64.17,48.8494 64.5034,52.5161 63.5,56.5C 63.2893,59.4859 63.956,62.1526 65.5,64.5C 65.5,65.5 65.5,66.5 65.5,67.5C 64.209,67.2627 63.209,67.596 62.5,68.5C 62.1667,68.5 61.8333,68.5 61.5,68.5C 60.5175,61.883 60.3508,55.2163 61,48.5C 59.1843,48.6491 57.351,48.6491 55.5,48.5C 52.7234,46.7315 50.7234,44.3982 49.5,41.5C 49.1667,41.5 48.8333,41.5 48.5,41.5C 48.8333,40.8333 49.1667,40.1667 49.5,39.5 Z"/></g>
<g><path style="opacity:1" fill="#f4bf62" d="M 47.5,39.5 C 48.1667,39.5 48.8333,39.5 49.5,39.5C 49.1667,40.1667 48.8333,40.8333 48.5,41.5C 46.3023,41.4088 45.9689,42.0755 47.5,43.5C 46.8333,43.5 46.5,43.8333 46.5,44.5C 45.8333,44.5 45.5,44.8333 45.5,45.5C 44.8333,45.5 44.5,45.8333 44.5,46.5C 43.8333,46.5 43.5,46.8333 43.5,47.5C 42.8333,47.5 42.5,47.8333 42.5,48.5C 41.8333,48.8333 41.1667,49.1667 40.5,49.5C 38.7367,48.0462 37.4033,48.3796 36.5,50.5C 35.5041,50.5858 34.6708,50.2524 34,49.5C 33.0793,50.7083 32.5793,52.0416 32.5,53.5C 31.8333,53.5 31.1667,53.5 30.5,53.5C 30.5,53.1667 30.5,52.8333 30.5,52.5C 31.8333,52.1667 31.8333,51.8333 30.5,51.5C 30.3505,50.448 30.5172,49.448 31,48.5C 32.5185,47.8366 33.6851,46.8366 34.5,45.5C 36.0269,45.573 37.0269,44.9063 37.5,43.5C 40.8776,42.1616 44.2109,40.8283 47.5,39.5 Z"/></g>
<g><path style="opacity:0.012" fill="#ffd792" d="M 37.5,43.5 C 37.0269,44.9063 36.0269,45.573 34.5,45.5C 31.5001,46.6468 28.5001,46.8134 25.5,46C 23.9991,47.2515 22.3325,48.2515 20.5,49C 22.1667,49.3333 23.8333,49.6667 25.5,50C 22.7658,50.2104 20.2658,51.0437 18,52.5C 17.7216,51.5842 17.2216,50.9175 16.5,50.5C 15.2587,48.676 15.2587,50.0094 16.5,54.5C 16.6068,56.3786 16.1068,56.7119 15,55.5C 14.1628,51.7054 14.4961,48.0387 16,44.5C 16.2784,45.4158 16.7784,46.0825 17.5,46.5C 18.1667,46.1667 18.8333,45.8333 19.5,45.5C 19.7352,46.0967 20.2352,46.4301 21,46.5C 23.7255,45.2026 26.5588,44.2026 29.5,43.5C 32.1553,44.6184 34.822,44.6184 37.5,43.5 Z"/></g>
<g><path style="opacity:1" fill="#f8c67a" d="M 34.5,45.5 C 33.6851,46.8366 32.5185,47.8366 31,48.5C 30.5172,49.448 30.3505,50.448 30.5,51.5C 30.5,51.8333 30.5,52.1667 30.5,52.5C 29.1667,52.8333 29.1667,53.1667 30.5,53.5C 30.1667,54.1667 29.8333,54.8333 29.5,55.5C 28.8333,55.5 28.5,55.8333 28.5,56.5C 27.8333,56.5 27.1667,56.5 26.5,56.5C 25.8333,55.1667 25.1667,55.1667 24.5,56.5C 21.8333,56.8333 21.8333,57.1667 24.5,57.5C 22.4194,59.8995 20.0861,60.0662 17.5,58C 18.2871,56.687 17.9538,55.5203 16.5,54.5C 16.5,53.1667 16.5,51.8333 16.5,50.5C 17.2216,50.9175 17.7216,51.5842 18,52.5C 20.2658,51.0437 22.7658,50.2104 25.5,50C 23.8333,49.6667 22.1667,49.3333 20.5,49C 22.3325,48.2515 23.9991,47.2515 25.5,46C 28.5001,46.8134 31.5001,46.6468 34.5,45.5 Z"/></g>
<g><path style="opacity:0.902" fill="#f5ccab" d="M 77.5,41.5 C 77.8333,41.5 78.1667,41.5 78.5,41.5C 79.0597,44.9966 81.0597,47.4966 84.5,49C 83.8288,49.9862 83.8288,51.1529 84.5,52.5C 79.6962,50.1987 74.6962,49.532 69.5,50.5C 69.7373,49.209 69.404,48.209 68.5,47.5C 68.5,47.1667 68.5,46.8333 68.5,46.5C 68.8417,45.6618 69.5084,45.3284 70.5,45.5C 72.3344,46.494 74.0011,46.494 75.5,45.5C 76.1667,45.5 76.5,45.1667 76.5,44.5C 77.404,43.791 77.7373,42.791 77.5,41.5 Z"/></g>
<g><path style="opacity:1" fill="#ee8b21" d="M 61.5,68.5 C 61.5,68.8333 61.5,69.1667 61.5,69.5C 60.8333,69.5 60.5,69.8333 60.5,70.5C 59.8333,70.5 59.5,70.8333 59.5,71.5C 58.1667,71.8333 58.1667,72.1667 59.5,72.5C 59.0269,73.9063 58.0269,74.573 56.5,74.5C 56.5,74.1667 56.5,73.8333 56.5,73.5C 56.8564,68.8362 57.523,64.0029 58.5,59C 56.5835,55.7518 55.5835,52.2518 55.5,48.5C 57.351,48.6491 59.1843,48.6491 61,48.5C 60.3508,55.2163 60.5175,61.883 61.5,68.5 Z"/></g>
<g><path style="opacity:1" fill="#d85e14" d="M 62.5,45.5 C 64.1238,45.3601 65.2904,46.0267 66,47.5C 66.6708,46.7476 67.5041,46.4142 68.5,46.5C 68.5,46.8333 68.5,47.1667 68.5,47.5C 68.5874,52.5365 68.254,57.5365 67.5,62.5C 67.1667,63.1667 66.8333,63.8333 66.5,64.5C 66.1667,64.5 65.8333,64.5 65.5,64.5C 63.956,62.1526 63.2893,59.4859 63.5,56.5C 64.5034,52.5161 64.17,48.8494 62.5,45.5 Z"/></g>
<g><path style="opacity:1" fill="#f59f23" d="M 49.5,41.5 C 50.7234,44.3982 52.7234,46.7315 55.5,48.5C 55.5835,52.2518 56.5835,55.7518 58.5,59C 57.523,64.0029 56.8564,68.8362 56.5,73.5C 55.1667,73.8333 55.1667,74.1667 56.5,74.5C 56.0269,75.9063 55.0269,76.573 53.5,76.5C 53.5,75.8333 53.1667,75.5 52.5,75.5C 51.3228,73.8974 51.4894,72.564 53,71.5C 53.3333,72.1667 53.6667,72.8333 54,73.5C 54.6667,70.1667 54.6667,66.8333 54,63.5C 52.8036,61.714 51.3036,60.3807 49.5,59.5C 54.0299,54.8183 54.1966,50.1516 50,45.5C 49.51,44.2068 49.3433,42.8734 49.5,41.5 Z"/></g>
<g><path style="opacity:1" fill="#e8b584" d="M 84.5,52.5 C 85.4511,53.9187 85.7845,55.5853 85.5,57.5C 80.2923,55.9921 74.9589,54.9921 69.5,54.5C 69.5,53.1667 69.5,51.8333 69.5,50.5C 74.6962,49.532 79.6962,50.1987 84.5,52.5 Z"/></g>
<g><path style="opacity:1" fill="#ffe788" d="M 47.5,46.5 C 47.8789,50.5823 46.8789,54.2489 44.5,57.5C 39.2147,59.206 34.048,61.206 29,63.5C 28.3292,62.7476 27.4959,62.4142 26.5,62.5C 34.0008,57.906 41.0008,52.5727 47.5,46.5 Z"/></g>
<g><path style="opacity:0.004" fill="#ffe333" d="M 24.5,57.5 C 24.5,57.1667 24.5,56.8333 24.5,56.5C 25.1667,56.5 25.8333,56.5 26.5,56.5C 26.1583,57.3382 25.4916,57.6716 24.5,57.5 Z"/></g>
<g><path style="opacity:0.729" fill="#fff1c2" d="M 47.5,43.5 C 47.8333,43.5 48.1667,43.5 48.5,43.5C 48.5,44.1667 48.5,44.8333 48.5,45.5C 47.8333,45.5 47.5,45.8333 47.5,46.5C 41.0008,52.5727 34.0008,57.906 26.5,62.5C 24.9275,63.6873 23.2608,64.6873 21.5,65.5C 18.0026,68.083 14.3359,70.4164 10.5,72.5C 9.83333,72.5 9.5,72.8333 9.5,73.5C 8.47498,73.1034 8.30831,72.4368 9,71.5C 10.5,70 12,68.5 13.5,67C 15.0948,67.6171 16.4281,67.2837 17.5,66C 17.1667,65.6667 16.8333,65.3333 16.5,65C 18.7398,62.3332 21.4065,61.3332 24.5,62C 25.8333,61.3333 25.8333,60.6667 24.5,60C 26.0931,59.0513 27.4264,57.8846 28.5,56.5C 29.1667,56.5 29.5,56.1667 29.5,55.5C 31.0269,55.573 32.0269,54.9063 32.5,53.5C 33.4959,53.4142 34.3292,53.7476 35,54.5C 35.9207,53.2917 36.4207,51.9584 36.5,50.5C 38.3747,52.0781 39.7081,51.7448 40.5,49.5C 41.1667,49.1667 41.8333,48.8333 42.5,48.5C 43.1667,48.5 43.5,48.1667 43.5,47.5C 44.1667,47.5 44.5,47.1667 44.5,46.5C 45.1667,46.5 45.5,46.1667 45.5,45.5C 46.1667,45.5 46.5,45.1667 46.5,44.5C 47.1667,44.5 47.5,44.1667 47.5,43.5 Z"/></g>
<g><path style="opacity:1" fill="#e4a567" d="M 68.5,47.5 C 69.404,48.209 69.7373,49.209 69.5,50.5C 69.5,51.8333 69.5,53.1667 69.5,54.5C 69.5,55.8333 69.5,57.1667 69.5,58.5C 72.7216,58.1081 75.7216,58.6081 78.5,60C 76.6711,60.2735 75.1711,61.1068 74,62.5C 73.4153,63.9976 73.9153,64.9976 75.5,65.5C 75.0825,66.2216 74.4158,66.7216 73.5,67C 73.7284,67.3988 74.0618,67.5654 74.5,67.5C 74.5386,68.7562 74.0386,69.7562 73,70.5C 71.205,67.9007 69.705,65.2341 68.5,62.5C 68.1667,62.5 67.8333,62.5 67.5,62.5C 68.254,57.5365 68.5874,52.5365 68.5,47.5 Z"/></g>
<g><path style="opacity:1" fill="#e1a369" d="M 69.5,54.5 C 74.9589,54.9921 80.2923,55.9921 85.5,57.5C 85.5,59.5 85.5,61.5 85.5,63.5C 85.1667,63.5 84.8333,63.5 84.5,63.5C 81.2518,62.459 78.2518,63.1257 75.5,65.5C 73.9153,64.9976 73.4153,63.9976 74,62.5C 75.1711,61.1068 76.6711,60.2735 78.5,60C 75.7216,58.6081 72.7216,58.1081 69.5,58.5C 69.5,57.1667 69.5,55.8333 69.5,54.5 Z"/></g>
<g><path style="opacity:0.012" fill="#e38f5c" d="M 86.5,63.5 C 86.3347,59.8183 86.5014,56.1516 87,52.5C 87.8099,56.3575 87.6433,60.0242 86.5,63.5 Z"/></g>
<g><path style="opacity:1" fill="#e19d5f" d="M 84.5,63.5 C 84.5,64.5 84.5,65.5 84.5,66.5C 83.6618,66.8417 83.3284,67.5084 83.5,68.5C 82.596,69.209 82.2627,70.209 82.5,71.5C 81.8333,71.5 81.5,71.8333 81.5,72.5C 80.6618,72.8417 80.3284,73.5084 80.5,74.5C 79.6618,74.8417 79.3284,75.5084 79.5,76.5C 79.1667,76.5 78.8333,76.5 78.5,76.5C 77.0125,73.5161 75.6792,70.5161 74.5,67.5C 74.0618,67.5654 73.7284,67.3988 73.5,67C 74.4158,66.7216 75.0825,66.2216 75.5,65.5C 78.2518,63.1257 81.2518,62.459 84.5,63.5 Z"/></g>
<g><path style="opacity:0.998" fill="#fedc6e" d="M 48.5,45.5 C 48.7496,46.9221 49.583,47.9221 51,48.5C 51.6667,50.1667 51.6667,51.8333 51,53.5C 46.9192,57.4511 42.4192,60.7845 37.5,63.5C 33.3664,63.8961 29.3664,64.8961 25.5,66.5C 24.1508,66.1543 22.8175,65.821 21.5,65.5C 23.2608,64.6873 24.9275,63.6873 26.5,62.5C 27.4959,62.4142 28.3292,62.7476 29,63.5C 34.048,61.206 39.2147,59.206 44.5,57.5C 46.8789,54.2489 47.8789,50.5823 47.5,46.5C 47.5,45.8333 47.8333,45.5 48.5,45.5 Z"/></g>
<g><path style="opacity:0.997" fill="#e8a964" d="M 68.5,62.5 C 69.705,65.2341 71.205,67.9007 73,70.5C 74.0386,69.7562 74.5386,68.7562 74.5,67.5C 75.6792,70.5161 77.0125,73.5161 78.5,76.5C 78.5,76.8333 78.5,77.1667 78.5,77.5C 77.6618,77.8417 77.3284,78.5084 77.5,79.5C 76.8333,79.5 76.5,79.8333 76.5,80.5C 76.1667,80.5 75.8333,80.5 75.5,80.5C 73.8495,77.8589 71.8495,74.6923 69.5,71C 68.6521,68.2305 68.3187,65.3971 68.5,62.5 Z"/></g>
<g><path style="opacity:1" fill="#fdb72c" d="M 49.5,73.5 C 46.7332,74.0507 44.3999,75.3841 42.5,77.5C 41.1667,76.1667 39.8333,76.1667 38.5,77.5C 38.1436,74.808 37.8102,72.1413 37.5,69.5C 40.7186,66.7097 44.3853,65.2097 48.5,65C 51.7901,67.6377 52.1234,70.471 49.5,73.5 Z"/></g>
<g><path style="opacity:0.016" fill="#c08955" d="M 85.5,63.5 C 85.8333,63.5 86.1667,63.5 86.5,63.5C 86.7373,64.791 86.404,65.791 85.5,66.5C 85.5,65.5 85.5,64.5 85.5,63.5 Z"/></g>
<g><path style="opacity:1" fill="#fbbe3e" d="M 48.5,41.5 C 48.8333,41.5 49.1667,41.5 49.5,41.5C 49.3433,42.8734 49.51,44.2068 50,45.5C 54.1966,50.1516 54.0299,54.8183 49.5,59.5C 44.4771,62.8666 39.4771,66.2 34.5,69.5C 33.1667,70.1667 31.8333,70.8333 30.5,71.5C 25.5251,72.9934 20.5251,74.3268 15.5,75.5C 19.0005,71.871 23.3338,69.7044 28.5,69C 31.5638,67.1412 34.5638,65.3079 37.5,63.5C 42.4192,60.7845 46.9192,57.4511 51,53.5C 51.6667,51.8333 51.6667,50.1667 51,48.5C 49.583,47.9221 48.7496,46.9221 48.5,45.5C 48.5,44.8333 48.5,44.1667 48.5,43.5C 48.5,42.8333 48.5,42.1667 48.5,41.5 Z"/></g>
<g><path style="opacity:0.008" fill="#ec971b" d="M 84.5,66.5 C 84.8333,66.5 85.1667,66.5 85.5,66.5C 85.6716,67.4916 85.3382,68.1583 84.5,68.5C 84.5,67.8333 84.5,67.1667 84.5,66.5 Z"/></g>
<g><path style="opacity:1" fill="#f8ae2b" d="M 49.5,59.5 C 51.3036,60.3807 52.8036,61.714 54,63.5C 54.6667,66.8333 54.6667,70.1667 54,73.5C 53.6667,72.8333 53.3333,72.1667 53,71.5C 51.4894,72.564 51.3228,73.8974 52.5,75.5C 53.1667,75.5 53.5,75.8333 53.5,76.5C 52.3406,78.2503 50.674,79.2503 48.5,79.5C 48.1583,78.6618 47.4916,78.3284 46.5,78.5C 47.5981,77.603 47.5981,76.7697 46.5,76C 47.9423,75.6232 48.9423,74.7899 49.5,73.5C 52.1234,70.471 51.7901,67.6377 48.5,65C 44.3853,65.2097 40.7186,66.7097 37.5,69.5C 37.1667,69.5 36.8333,69.5 36.5,69.5C 35.8333,69.5 35.1667,69.5 34.5,69.5C 39.4771,66.2 44.4771,62.8666 49.5,59.5 Z"/></g>
<g><path style="opacity:0.012" fill="#dba736" d="M 83.5,68.5 C 83.8333,68.5 84.1667,68.5 84.5,68.5C 84.7373,69.791 84.404,70.791 83.5,71.5C 83.5,70.5 83.5,69.5 83.5,68.5 Z"/></g>
<g><path style="opacity:1" fill="#fed45f" d="M 37.5,63.5 C 34.5638,65.3079 31.5638,67.1412 28.5,69C 23.3338,69.7044 19.0005,71.871 15.5,75.5C 13.4862,75.6085 11.8195,74.9418 10.5,73.5C 10.5,73.1667 10.5,72.8333 10.5,72.5C 14.3359,70.4164 18.0026,68.083 21.5,65.5C 22.8175,65.821 24.1508,66.1543 25.5,66.5C 29.3664,64.8961 33.3664,63.8961 37.5,63.5 Z"/></g>
<g><path style="opacity:0.016" fill="#fe7f00" d="M 60.5,70.5 C 60.8333,70.5 61.1667,70.5 61.5,70.5C 61.3147,71.1701 60.9813,71.1701 60.5,70.5 Z"/></g>
<g><path style="opacity:0.012" fill="#feaa54" d="M 59.5,71.5 C 59.8333,71.5 60.1667,71.5 60.5,71.5C 60.3147,72.1701 59.9813,72.1701 59.5,71.5 Z"/></g>
<g><path style="opacity:0.998" fill="#f3bd71" d="M 67.5,62.5 C 67.8333,62.5 68.1667,62.5 68.5,62.5C 68.3187,65.3971 68.6521,68.2305 69.5,71C 71.8495,74.6923 73.8495,77.8589 75.5,80.5C 75.5,80.8333 75.5,81.1667 75.5,81.5C 74.8333,81.5 74.5,81.8333 74.5,82.5C 73.8333,82.5 73.5,82.8333 73.5,83.5C 72.8333,83.5 72.5,83.8333 72.5,84.5C 71.1667,84.8333 71.1667,85.1667 72.5,85.5C 72.1583,86.3382 71.4916,86.6716 70.5,86.5C 68.369,85.6862 66.0356,85.1862 63.5,85C 63.7375,82.7116 63.7375,80.2116 63.5,77.5C 64.6129,76.0536 64.7796,74.3869 64,72.5C 63.5831,71.244 62.7498,70.5774 61.5,70.5C 61.5,70.1667 61.5,69.8333 61.5,69.5C 62.1667,69.5 62.5,69.1667 62.5,68.5C 63.209,67.596 64.209,67.2627 65.5,67.5C 66.404,66.791 66.7373,65.791 66.5,64.5C 66.8333,63.8333 67.1667,63.1667 67.5,62.5 Z"/></g>
<g><path style="opacity:0.008" fill="#c37e5b" d="M 82.5,71.5 C 82.8333,71.5 83.1667,71.5 83.5,71.5C 83.573,73.0269 82.9063,74.0269 81.5,74.5C 81.5,73.8333 81.5,73.1667 81.5,72.5C 82.1667,72.5 82.5,72.1667 82.5,71.5 Z"/></g>
<g><path style="opacity:0.999" fill="#e7971d" d="M 30.5,71.5 C 29.0858,73.0542 27.4192,74.3875 25.5,75.5C 25.8333,76.1667 26.1667,76.8333 26.5,77.5C 23.7736,78.9441 22.7736,80.9441 23.5,83.5C 20.8728,82.9084 18.2062,82.5751 15.5,82.5C 14.5084,82.3284 13.8417,82.6618 13.5,83.5C 10.8333,82.8333 9.16667,81.1667 8.5,78.5C 9.45115,77.0813 9.78448,75.4147 9.5,73.5C 9.83333,73.5 10.1667,73.5 10.5,73.5C 11.8195,74.9418 13.4862,75.6085 15.5,75.5C 20.5251,74.3268 25.5251,72.9934 30.5,71.5 Z"/></g>
<g><path style="opacity:1" fill="#f5aa22" d="M 34.5,69.5 C 35.1667,69.5 35.8333,69.5 36.5,69.5C 34.0711,70.7577 32.0711,72.591 30.5,75C 30.8881,76.5252 30.8881,78.1918 30.5,80C 32.8098,80.4966 35.1432,80.6633 37.5,80.5C 33.2622,82.9561 28.5955,83.9561 23.5,83.5C 22.7736,80.9441 23.7736,78.9441 26.5,77.5C 26.1667,76.8333 25.8333,76.1667 25.5,75.5C 27.4192,74.3875 29.0858,73.0542 30.5,71.5C 31.8333,70.8333 33.1667,70.1667 34.5,69.5 Z"/></g>
<g><path style="opacity:0.008" fill="#ffac80" d="M 80.5,74.5 C 80.8333,74.5 81.1667,74.5 81.5,74.5C 81.6716,75.4916 81.3382,76.1583 80.5,76.5C 80.5,75.8333 80.5,75.1667 80.5,74.5 Z"/></g>
<g><path style="opacity:0.02" fill="#cb6632" d="M 79.5,76.5 C 79.8333,76.5 80.1667,76.5 80.5,76.5C 80.3147,77.1701 79.9813,77.1701 79.5,76.5 Z"/></g>
<g><path style="opacity:0.004" fill="#6e3d0f" d="M 8.5,78.5 C 7.40168,77.3991 7.23502,76.0657 8,74.5C 8.49001,75.7932 8.65668,77.1266 8.5,78.5 Z"/></g>
<g><path style="opacity:1" fill="#f9b226" d="M 36.5,69.5 C 36.8333,69.5 37.1667,69.5 37.5,69.5C 37.8102,72.1413 38.1436,74.808 38.5,77.5C 39.8333,76.1667 41.1667,76.1667 42.5,77.5C 44.3999,75.3841 46.7332,74.0507 49.5,73.5C 48.9423,74.7899 47.9423,75.6232 46.5,76C 47.5981,76.7697 47.5981,77.603 46.5,78.5C 43.5739,79.4608 40.5739,80.1274 37.5,80.5C 35.1432,80.6633 32.8098,80.4966 30.5,80C 30.8881,78.1918 30.8881,76.5252 30.5,75C 32.0711,72.591 34.0711,70.7577 36.5,69.5 Z"/></g>
<g><path style="opacity:0.008" fill="#c47356" d="M 78.5,77.5 C 78.8333,77.5 79.1667,77.5 79.5,77.5C 79.6716,78.4916 79.3382,79.1583 78.5,79.5C 78.5,78.8333 78.5,78.1667 78.5,77.5 Z"/></g>
<g><path style="opacity:0.008" fill="#ff7e5f" d="M 46.5,80.5 C 46.5,80.1667 46.5,79.8333 46.5,79.5C 47.1667,79.5 47.8333,79.5 48.5,79.5C 48.1583,80.3382 47.4916,80.6716 46.5,80.5 Z"/></g>
<g><path style="opacity:0.016" fill="#fe7f3e" d="M 77.5,79.5 C 77.8333,79.5 78.1667,79.5 78.5,79.5C 78.3147,80.1701 77.9813,80.1701 77.5,79.5 Z"/></g>
<g><path style="opacity:0.012" fill="#ff75ff" d="M 44.5,81.5 C 44.5,81.1667 44.5,80.8333 44.5,80.5C 45.1667,80.5 45.8333,80.5 46.5,80.5C 46.1583,81.3382 45.4916,81.6716 44.5,81.5 Z"/></g>
<g><path style="opacity:0.016" fill="#fdda77" d="M 63.5,77.5 C 62.6909,79.2922 62.1909,81.2922 62,83.5C 61.2989,80.0717 61.6323,76.7383 63,73.5C 63.49,74.7932 63.6567,76.1266 63.5,77.5 Z"/></g>
<g><path style="opacity:0.016" fill="#bebf3e" d="M 76.5,80.5 C 76.8333,80.5 77.1667,80.5 77.5,80.5C 77.3147,81.1701 76.9813,81.1701 76.5,80.5 Z"/></g>
<g><path style="opacity:0.012" fill="#feaa54" d="M 75.5,81.5 C 75.8333,81.5 76.1667,81.5 76.5,81.5C 76.3147,82.1701 75.9813,82.1701 75.5,81.5 Z"/></g>
<g><path style="opacity:0.016" fill="#d47f31" d="M 39.5,83.5 C 39.5,83.1667 39.5,82.8333 39.5,82.5C 40.1667,82.5 40.8333,82.5 41.5,82.5C 41.1583,83.3382 40.4916,83.6716 39.5,83.5 Z"/></g>
<g><path style="opacity:0.02" fill="#fe9932" d="M 74.5,82.5 C 74.8333,82.5 75.1667,82.5 75.5,82.5C 75.3147,83.1701 74.9813,83.1701 74.5,82.5 Z"/></g>
<g><path style="opacity:0.012" fill="#ff9c00" d="M 13.5,83.5 C 14.1667,83.5 14.8333,83.5 15.5,83.5C 14.8333,84.8333 14.1667,84.8333 13.5,83.5 Z"/></g>
<g><path style="opacity:0.265" fill="#de8a2e" d="M 46.5,78.5 C 46.5,78.8333 46.5,79.1667 46.5,79.5C 45.5084,79.3284 44.8417,79.6618 44.5,80.5C 41.8333,80.8333 41.8333,81.1667 44.5,81.5C 43.791,82.404 42.791,82.7373 41.5,82.5C 40.8333,81.1667 40.1667,81.1667 39.5,82.5C 38.209,82.2627 37.209,82.596 36.5,83.5C 31.1667,83.8333 31.1667,84.1667 36.5,84.5C 31.103,86.4426 25.4363,86.9426 19.5,86C 17.3582,85.5616 16.0249,84.7282 15.5,83.5C 15.5,83.1667 15.5,82.8333 15.5,82.5C 18.2062,82.5751 20.8728,82.9084 23.5,83.5C 28.5955,83.9561 33.2622,82.9561 37.5,80.5C 40.5739,80.1274 43.5739,79.4608 46.5,78.5 Z"/></g>
<g><path style="opacity:0.012" fill="#eba024" d="M 36.5,84.5 C 36.5,84.1667 36.5,83.8333 36.5,83.5C 37.5,83.5 38.5,83.5 39.5,83.5C 38.791,84.404 37.791,84.7373 36.5,84.5 Z"/></g>
<g><path style="opacity:0.012" fill="#feaa54" d="M 73.5,83.5 C 73.8333,83.5 74.1667,83.5 74.5,83.5C 74.3147,84.1701 73.9813,84.1701 73.5,83.5 Z"/></g>
<g><path style="opacity:0.012" fill="#feaa54" d="M 72.5,84.5 C 72.8333,84.5 73.1667,84.5 73.5,84.5C 73.3147,85.1701 72.9813,85.1701 72.5,84.5 Z"/></g>
<g><path style="opacity:0.012" fill="#f7da87" d="M 70.5,86.5 C 68.7116,87.6225 66.7116,87.7891 64.5,87C 66.4727,86.5045 68.4727,86.3379 70.5,86.5 Z"/></g>
</svg>
