<?xml version="1.0" encoding="UTF-8"?>
<!DOCTYPE svg PUBLIC "-//W3C//DTD SVG 1.1//EN" "http://www.w3.org/Graphics/SVG/1.1/DTD/svg11.dtd">
<svg xmlns="http://www.w3.org/2000/svg" version="1.1" width="100px" height="100px" style="shape-rendering:geometricPrecision; text-rendering:geometricPrecision; image-rendering:optimizeQuality; fill-rule:evenodd; clip-rule:evenodd" xmlns:xlink="http://www.w3.org/1999/xlink">
<g><path style="opacity:0.998" fill="#117e23" d="M 88.5,11.5 C 88.631,12.2389 88.4643,12.9056 88,13.5C 86.285,13.4803 84.4516,12.8136 82.5,11.5C 79.5509,12.7328 78.8842,14.7328 80.5,17.5C 77.2317,18.487 73.8984,18.8204 70.5,18.5C 67.8395,16.7282 64.8395,15.3948 61.5,14.5C 62.5,13.6667 63.5,12.8333 64.5,12C 69.6026,11.5719 74.6026,10.7386 79.5,9.5C 82.6918,9.44884 85.6918,10.1155 88.5,11.5 Z"/></g>
<g><path style="opacity:1" fill="#1b9c36" d="M 33.5,11.5 C 31.076,11.1924 28.7427,11.5258 26.5,12.5C 25.8721,14.2581 24.8721,15.7581 23.5,17C 27.4159,18.1024 31.4159,18.769 35.5,19C 26.657,19.1704 17.9903,19.6704 9.5,20.5C 8.56552,21.5676 8.23219,22.901 8.5,24.5C 8.16667,24.5 7.83333,24.5 7.5,24.5C 7.67158,23.5084 7.33825,22.8417 6.5,22.5C 6.16667,15.8333 5.83333,15.8333 5.5,22.5C 4.13115,19.0304 4.63115,15.6971 7,12.5C 7.33333,13.1667 7.66667,13.8333 8,14.5C 8.9959,12.3395 10.4959,10.6728 12.5,9.5C 14.4523,9.00512 16.4523,8.67178 18.5,8.5C 23.5696,9.72027 28.5696,10.7203 33.5,11.5 Z"/></g>
<g><path style="opacity:0.997" fill="#1d9130" d="M 33.5,11.5 C 36.7577,12.1708 40.0911,13.0042 43.5,14C 44.9657,18.2828 46.799,22.4495 49,26.5C 49.1862,23.9644 49.6862,21.631 50.5,19.5C 50.5,23.8333 50.5,28.1667 50.5,32.5C 49.5,32.5 48.5,32.5 47.5,32.5C 47.1667,32.5 46.8333,32.5 46.5,32.5C 46.6633,30.1432 46.4966,27.8098 46,25.5C 45.5065,27.1341 45.3398,28.8008 45.5,30.5C 45.1667,30.5 44.8333,30.5 44.5,30.5C 43.791,29.596 42.791,29.2627 41.5,29.5C 36.1941,28.6286 35.8607,28.6286 40.5,29.5C 38.7354,30.4614 36.7354,30.7947 34.5,30.5C 34.5,30.1667 34.5,29.8333 34.5,29.5C 35.8333,29.1667 35.8333,28.8333 34.5,28.5C 37.5443,26.9886 40.8776,26.322 44.5,26.5C 44.5,24.5 44.5,22.5 44.5,20.5C 32.8333,20.5 21.1667,20.5 9.5,20.5C 17.9903,19.6704 26.657,19.1704 35.5,19C 31.4159,18.769 27.4159,18.1024 23.5,17C 24.8721,15.7581 25.8721,14.2581 26.5,12.5C 28.7427,11.5258 31.076,11.1924 33.5,11.5 Z"/></g>
<g><path style="opacity:0.999" fill="#218e33" d="M 88.5,11.5 C 85.6918,10.1155 82.6918,9.44884 79.5,9.5C 74.6026,10.7386 69.6026,11.5719 64.5,12C 63.5,12.8333 62.5,13.6667 61.5,14.5C 64.8395,15.3948 67.8395,16.7282 70.5,18.5C 65.8215,18.6658 61.1548,18.4992 56.5,18C 57.4506,17.2825 57.6172,16.4491 57,15.5C 55.7012,15.9662 54.2012,15.9662 52.5,15.5C 53.4523,13.8877 53.7856,12.3877 53.5,11C 56.4008,11.2342 59.4008,10.9009 62.5,10C 60.8333,9.66667 59.1667,9.33333 57.5,9C 62.4606,9.02335 67.294,9.19002 72,9.5C 73.1192,8.44786 73.6192,7.2812 73.5,6C 80.9247,3.08988 85.9247,4.92321 88.5,11.5 Z"/></g>
<g><path style="opacity:0.004" fill="#000000" d="M 93.5,21.5 C 93.3433,20.1266 93.51,18.7932 94,17.5C 94.765,19.0657 94.5983,20.3991 93.5,21.5 Z"/></g>
<g><path style="opacity:1" fill="#1a7b27" d="M 88.5,11.5 C 91.1807,14.1918 92.5141,17.5252 92.5,21.5C 91.596,22.209 91.2627,23.209 91.5,24.5C 90.6618,24.8417 90.3284,25.5084 90.5,26.5C 90.1667,26.5 89.8333,26.5 89.5,26.5C 89.3573,24.7376 89.6906,23.0709 90.5,21.5C 84.5368,20.5041 78.5368,20.1707 72.5,20.5C 66.4908,20.3338 60.4908,20.5005 54.5,21C 53.1669,22.8402 53.3335,23.3402 55,22.5C 54.8516,23.825 55.0183,24.9916 55.5,26C 58.2507,26.9428 60.9174,27.7761 63.5,28.5C 61.2646,28.2053 59.2646,28.5386 57.5,29.5C 56.209,29.2627 55.209,29.596 54.5,30.5C 54.5,30.8333 54.5,31.1667 54.5,31.5C 54.5,31.8333 54.5,32.1667 54.5,32.5C 54.1667,32.5 53.8333,32.5 53.5,32.5C 53.2606,30.5328 53.5939,28.6995 54.5,27C 54,26.5 53.5,26 53,25.5C 52.5034,27.8098 52.3367,30.1432 52.5,32.5C 50.9582,33.3007 49.2915,33.634 47.5,33.5C 47.5,33.1667 47.5,32.8333 47.5,32.5C 48.5,32.5 49.5,32.5 50.5,32.5C 50.5,28.1667 50.5,23.8333 50.5,19.5C 51.6005,18.3951 52.2671,17.0618 52.5,15.5C 54.2012,15.9662 55.7012,15.9662 57,15.5C 57.6172,16.4491 57.4506,17.2825 56.5,18C 61.1548,18.4992 65.8215,18.6658 70.5,18.5C 73.8984,18.8204 77.2317,18.487 80.5,17.5C 78.8842,14.7328 79.5509,12.7328 82.5,11.5C 84.4516,12.8136 86.285,13.4803 88,13.5C 88.4643,12.9056 88.631,12.2389 88.5,11.5 Z M 53.5,32.5 C 53.1667,32.5 52.8333,32.5 52.5,32.5C 52.3367,30.1432 52.5034,27.8098 53,25.5C 53.5,26 54,26.5 54.5,27C 53.5939,28.6995 53.2606,30.5328 53.5,32.5 Z"/></g>
<g><path style="opacity:0.998" fill="#45a759" d="M 52.5,15.5 C 52.2671,17.0618 51.6005,18.3951 50.5,19.5C 49.6862,21.631 49.1862,23.9644 49,26.5C 46.799,22.4495 44.9657,18.2828 43.5,14C 40.0911,13.0042 36.7577,12.1708 33.5,11.5C 28.5696,10.7203 23.5696,9.72027 18.5,8.5C 16.4523,8.67178 14.4523,9.00512 12.5,9.5C 11.6061,6.7576 12.6061,6.09094 15.5,7.5C 20.7808,5.23608 26.1141,5.06941 31.5,7C 30.1667,7.33333 28.8333,7.66667 27.5,8C 29.3553,8.42214 31.1886,8.92214 33,9.5C 35.7866,8.48259 38.62,8.31593 41.5,9C 45.3278,11.8298 48.9945,13.9964 52.5,15.5 Z"/></g>
<g><path style="opacity:0.999" fill="#208834" d="M 72.5,20.5 C 78.5368,20.1707 84.5368,20.5041 90.5,21.5C 89.6906,23.0709 89.3573,24.7376 89.5,26.5C 89.5,26.8333 89.5,27.1667 89.5,27.5C 88.8333,27.5 88.5,27.8333 88.5,28.5C 87.8333,28.5 87.5,28.8333 87.5,29.5C 86.8333,29.5 86.5,29.8333 86.5,30.5C 85.1667,30.8333 85.1667,31.1667 86.5,31.5C 86.1344,32.6946 85.301,33.3613 84,33.5C 81.0169,32.2679 78.1836,32.2679 75.5,33.5C 74.8333,33.5 74.1667,33.5 73.5,33.5C 73.1583,32.6618 72.4916,32.3284 71.5,32.5C 70.8333,32.5 70.1667,32.5 69.5,32.5C 68.8333,32.5 68.1667,32.5 67.5,32.5C 67.5,32.1667 67.5,31.8333 67.5,31.5C 72.8333,31.1667 72.8333,30.8333 67.5,30.5C 67.1667,30.5 66.8333,30.5 66.5,30.5C 66.1583,29.6618 65.4916,29.3284 64.5,29.5C 64.5,29.1667 64.5,28.8333 64.5,28.5C 69.3548,29.4833 72.6881,27.8167 74.5,23.5C 73.8075,22.4822 73.1408,21.4822 72.5,20.5 Z"/></g>
<g><path style="opacity:1" fill="#42a85b" d="M 9.5,20.5 C 21.1667,20.5 32.8333,20.5 44.5,20.5C 44.5,22.5 44.5,24.5 44.5,26.5C 40.8776,26.322 37.5443,26.9886 34.5,28.5C 34.5,28.8333 34.5,29.1667 34.5,29.5C 33.5084,29.3284 32.8417,29.6618 32.5,30.5C 32.1667,30.5 31.8333,30.5 31.5,30.5C 28.9588,30.1486 27.2921,30.4819 26.5,31.5C 26.5,31.8333 26.5,32.1667 26.5,32.5C 25.8333,32.5 25.1667,32.5 24.5,32.5C 24.5,33.1667 24.1667,33.5 23.5,33.5C 23.1667,33.5 22.8333,33.5 22.5,33.5C 19.6461,32.6192 16.6461,32.4525 13.5,33C 11.9095,31.9542 10.4095,30.7875 9,29.5C 9.7712,27.82 9.60453,26.1533 8.5,24.5C 8.23219,22.901 8.56552,21.5676 9.5,20.5 Z"/></g>
<g><path style="opacity:0.999" fill="#289b44" d="M 72.5,20.5 C 73.1408,21.4822 73.8075,22.4822 74.5,23.5C 72.6881,27.8167 69.3548,29.4833 64.5,28.5C 64.1667,28.5 63.8333,28.5 63.5,28.5C 60.9174,27.7761 58.2507,26.9428 55.5,26C 55.0183,24.9916 54.8516,23.825 55,22.5C 53.3335,23.3402 53.1669,22.8402 54.5,21C 60.4908,20.5005 66.4908,20.3338 72.5,20.5 Z"/></g>
<g><path style="opacity:0.016" fill="#037e35" d="M 92.5,21.5 C 92.8333,21.5 93.1667,21.5 93.5,21.5C 93.7373,22.791 93.404,23.791 92.5,24.5C 92.5,23.5 92.5,22.5 92.5,21.5 Z"/></g>
<g><path style="opacity:0.008" fill="#456e45" d="M 5.5,22.5 C 5.83333,22.5 6.16667,22.5 6.5,22.5C 6.32842,23.4916 6.66175,24.1583 7.5,24.5C 7.63101,25.2389 7.46434,25.9056 7,26.5C 5.81181,25.4366 5.31181,24.1033 5.5,22.5 Z"/></g>
<g><path style="opacity:0.008" fill="#019319" d="M 91.5,24.5 C 91.8333,24.5 92.1667,24.5 92.5,24.5C 92.6716,25.4916 92.3382,26.1583 91.5,26.5C 91.5,25.8333 91.5,25.1667 91.5,24.5 Z"/></g>
<g><path style="opacity:0.008" fill="#007f00" d="M 90.5,26.5 C 90.8333,26.5 91.1667,26.5 91.5,26.5C 91.3147,27.1701 90.9813,27.1701 90.5,26.5 Z"/></g>
<g><path style="opacity:0.012" fill="#00aa00" d="M 89.5,27.5 C 89.8333,27.5 90.1667,27.5 90.5,27.5C 90.3147,28.1701 89.9813,28.1701 89.5,27.5 Z"/></g>
<g><path style="opacity:0.012" fill="#00aa00" d="M 88.5,28.5 C 88.8333,28.5 89.1667,28.5 89.5,28.5C 89.3147,29.1701 88.9813,29.1701 88.5,28.5 Z"/></g>
<g><path style="opacity:0.016" fill="#003f00" d="M 87.5,29.5 C 87.8333,29.5 88.1667,29.5 88.5,29.5C 88.3147,30.1701 87.9813,30.1701 87.5,29.5 Z"/></g>
<g><path style="opacity:0.016" fill="#bb5e62" d="M 57.5,29.5 C 59.8333,29.5 62.1667,29.5 64.5,29.5C 64.8417,30.3382 65.5084,30.6716 66.5,30.5C 66.8333,30.5 67.1667,30.5 67.5,30.5C 67.5,30.8333 67.5,31.1667 67.5,31.5C 63.1667,31.5 58.8333,31.5 54.5,31.5C 54.5,31.1667 54.5,30.8333 54.5,30.5C 55.791,30.7373 56.791,30.404 57.5,29.5 Z"/></g>
<g><path style="opacity:0.012" fill="#00aa54" d="M 86.5,30.5 C 86.8333,30.5 87.1667,30.5 87.5,30.5C 87.3147,31.1701 86.9813,31.1701 86.5,30.5 Z"/></g>
<g><path style="opacity:0.99" fill="#ee5887" d="M 40.5,29.5 C 40.8333,29.5 41.1667,29.5 41.5,29.5C 42.209,30.404 43.209,30.7373 44.5,30.5C 44.8333,30.5 45.1667,30.5 45.5,30.5C 45.3284,31.4916 45.6618,32.1583 46.5,32.5C 46.8333,32.5 47.1667,32.5 47.5,32.5C 47.5,32.8333 47.5,33.1667 47.5,33.5C 49.7397,34.2644 52.0731,35.0977 54.5,36C 53.3636,37.1451 52.3636,38.3117 51.5,39.5C 51.4894,37.9826 50.8228,36.8159 49.5,36C 43.7469,35.1492 38.0802,35.4826 32.5,37C 31.1154,39.5848 31.7821,41.5848 34.5,43C 38.4862,43.4988 42.4862,43.6655 46.5,43.5C 46.5,44.1667 46.1667,44.5 45.5,44.5C 36.3061,44.439 27.3061,43.7723 18.5,42.5C 20.0659,39.9226 21.0659,37.4226 21.5,35C 16.4591,33.9924 16.7924,33.4924 22.5,33.5C 22.8333,34.8333 23.1667,34.8333 23.5,33.5C 24.1667,33.5 24.5,33.1667 24.5,32.5C 25.1667,32.5 25.8333,32.5 26.5,32.5C 26.5,32.1667 26.5,31.8333 26.5,31.5C 32.4717,32.4739 38.4717,32.6406 44.5,32C 39.9805,31.8247 35.6472,31.3247 31.5,30.5C 31.8333,30.5 32.1667,30.5 32.5,30.5C 33.1667,30.5 33.8333,30.5 34.5,30.5C 36.7354,30.7947 38.7354,30.4614 40.5,29.5 Z"/></g>
<g><path style="opacity:1" fill="#f46f9a" d="M 51.5,39.5 C 50.1667,40.5 48.8333,41.5 47.5,42.5C 46.8333,42.5 46.5,42.8333 46.5,43.5C 42.4862,43.6655 38.4862,43.4988 34.5,43C 31.7821,41.5848 31.1154,39.5848 32.5,37C 38.0802,35.4826 43.7469,35.1492 49.5,36C 50.8228,36.8159 51.4894,37.9826 51.5,39.5 Z"/></g>
<g><path style="opacity:1" fill="#f34d83" d="M 52.5,32.5 C 52.8333,32.5 53.1667,32.5 53.5,32.5C 53.8333,32.5 54.1667,32.5 54.5,32.5C 58.8333,32.5 63.1667,32.5 67.5,32.5C 68.1667,32.5 68.8333,32.5 69.5,32.5C 69.5,32.8333 69.5,33.1667 69.5,33.5C 67.1432,33.3367 64.8098,33.5034 62.5,34C 65.8007,35.5418 69.1341,36.8751 72.5,38C 71.062,38.2189 69.7287,38.7189 68.5,39.5C 69.0253,40.1924 69.6919,40.6924 70.5,41C 67.1968,40.1529 63.6968,39.6529 60,39.5C 56.0774,41.2026 51.9107,42.2026 47.5,42.5C 48.8333,41.5 50.1667,40.5 51.5,39.5C 52.3636,38.3117 53.3636,37.1451 54.5,36C 52.0731,35.0977 49.7397,34.2644 47.5,33.5C 49.2915,33.634 50.9582,33.3007 52.5,32.5 Z"/></g>
<g><path style="opacity:1" fill="#e24264" d="M 71.5,32.5 C 72.4916,32.3284 73.1583,32.6618 73.5,33.5C 74.1667,33.5 74.8333,33.5 75.5,33.5C 77.2091,33.6079 79.2091,33.7746 81.5,34C 80.1667,34.3333 78.8333,34.6667 77.5,35C 79.3937,36.0793 79.727,37.4126 78.5,39C 79.2529,40.487 80.0862,40.6537 81,39.5C 82.0386,40.2438 82.5386,41.2438 82.5,42.5C 82.1667,42.5 81.8333,42.5 81.5,42.5C 81.1667,41.1667 80.8333,41.1667 80.5,42.5C 80.4606,43.5832 80.1272,44.5832 79.5,45.5C 75.8333,45.8333 72.1667,46.1667 68.5,46.5C 61.032,45.7012 53.6987,44.7012 46.5,43.5C 46.5,42.8333 46.8333,42.5 47.5,42.5C 51.9107,42.2026 56.0774,41.2026 60,39.5C 63.6968,39.6529 67.1968,40.1529 70.5,41C 69.6919,40.6924 69.0253,40.1924 68.5,39.5C 69.7287,38.7189 71.062,38.2189 72.5,38C 69.1341,36.8751 65.8007,35.5418 62.5,34C 64.8098,33.5034 67.1432,33.3367 69.5,33.5C 70.4916,33.6716 71.1583,33.3382 71.5,32.5 Z"/></g>
<g><path style="opacity:0.012" fill="#db5479" d="M 16.5,45.5 C 15.4265,44.7494 15.2599,43.7494 16,42.5C 16.4828,43.448 16.6495,44.448 16.5,45.5 Z"/></g>
<g><path style="opacity:1" fill="#ea285b" d="M 18.5,42.5 C 27.3061,43.7723 36.3061,44.439 45.5,44.5C 45.5743,46.4109 46.5743,47.5776 48.5,48C 38.0203,49.0336 27.687,48.5336 17.5,46.5C 17.5,46.1667 17.5,45.8333 17.5,45.5C 17.2627,44.209 17.596,43.209 18.5,42.5 Z"/></g>
<g><path style="opacity:0.004" fill="#ba1808" d="M 14.5,46.5 C 15.6291,48.6282 15.7958,50.9615 15,53.5C 14.5034,51.1902 14.3367,48.8568 14.5,46.5 Z"/></g>
<g><path style="opacity:1" fill="#dc1939" d="M 80.5,42.5 C 80.8333,42.5 81.1667,42.5 81.5,42.5C 81.8333,42.5 82.1667,42.5 82.5,42.5C 83.8333,44.1667 83.8333,45.8333 82.5,47.5C 82.5,47.1667 82.5,46.8333 82.5,46.5C 82.1667,42.5 81.8333,42.5 81.5,46.5C 76.3491,47.3267 71.0158,47.8267 65.5,48C 64.2574,50.4549 62.2574,51.6216 59.5,51.5C 52.2496,51.7877 45.0829,52.4544 38,53.5C 37.51,52.2068 37.3433,50.8734 37.5,49.5C 31.0463,49.6938 24.7129,49.6938 18.5,49.5C 17.8902,48.609 17.5569,47.609 17.5,46.5C 27.687,48.5336 38.0203,49.0336 48.5,48C 46.5743,47.5776 45.5743,46.4109 45.5,44.5C 46.1667,44.5 46.5,44.1667 46.5,43.5C 53.6987,44.7012 61.032,45.7012 68.5,46.5C 72.1667,46.1667 75.8333,45.8333 79.5,45.5C 80.1272,44.5832 80.4606,43.5832 80.5,42.5 Z"/></g>
<g><path style="opacity:0.004" fill="#000000" d="M 83.5,48.5 C 84.5735,49.2506 84.7401,50.2506 84,51.5C 83.5172,50.552 83.3505,49.552 83.5,48.5 Z"/></g>
<g><path style="opacity:1" fill="#d10f29" d="M 18.5,49.5 C 24.7129,49.6938 31.0463,49.6938 37.5,49.5C 37.3433,50.8734 37.51,52.2068 38,53.5C 45.0829,52.4544 52.2496,51.7877 59.5,51.5C 57.9236,52.1429 56.5903,53.1429 55.5,54.5C 44.2297,56.8373 32.8964,57.0039 21.5,55C 20.1259,51.5899 19.4592,51.7566 19.5,55.5C 18.5386,53.7354 18.2053,51.7354 18.5,49.5 Z"/></g>
<g><path style="opacity:0.999" fill="#c41125" d="M 81.5,46.5 C 81.8333,46.5 82.1667,46.5 82.5,46.5C 82.5,46.8333 82.5,47.1667 82.5,47.5C 82.5715,50.1933 82.9049,52.8599 83.5,55.5C 83.5643,57.5566 82.8976,59.2233 81.5,60.5C 81.5,59.5 81.5,58.5 81.5,57.5C 82.633,54.6453 82.633,53.9786 81.5,55.5C 80.0689,55.1193 79.2355,54.1193 79,52.5C 71.2395,53.4341 63.4062,54.1007 55.5,54.5C 56.5903,53.1429 57.9236,52.1429 59.5,51.5C 62.2574,51.6216 64.2574,50.4549 65.5,48C 71.0158,47.8267 76.3491,47.3267 81.5,46.5 Z"/></g>
<g><path style="opacity:1" fill="#ca0c22" d="M 55.5,54.5 C 63.4062,54.1007 71.2395,53.4341 79,52.5C 79.2355,54.1193 80.0689,55.1193 81.5,55.5C 81.5,56.1667 81.5,56.8333 81.5,57.5C 80.596,58.209 80.2627,59.209 80.5,60.5C 80.1667,60.5 79.8333,60.5 79.5,60.5C 79.1667,60.5 78.8333,60.5 78.5,60.5C 78.6602,58.8008 78.4935,57.1341 78,55.5C 77.6924,56.3081 77.1924,56.9747 76.5,57.5C 72.1922,56.7684 67.8589,56.1017 63.5,55.5C 48.7423,58.6895 34.0757,59.0228 19.5,56.5C 19.5,56.1667 19.5,55.8333 19.5,55.5C 19.4592,51.7566 20.1259,51.5899 21.5,55C 32.8964,57.0039 44.2297,56.8373 55.5,54.5 Z"/></g>
<g><path style="opacity:0.012" fill="#cc2a1d" d="M 16.5,54.5 C 16.5,55.8333 16.5,57.1667 16.5,58.5C 15.1667,57.1667 15.1667,55.8333 16.5,54.5 Z"/></g>
<g><path style="opacity:1" fill="#be091a" d="M 78.5,60.5 C 77.1679,61.8304 76.3345,63.4971 76,65.5C 72.6293,64.6735 68.9627,64.0068 65,63.5C 62.9674,63.5056 61.134,63.8389 59.5,64.5C 50.8269,64.6664 42.1603,64.4998 33.5,64C 37.1667,63.6667 40.8333,63.3333 44.5,63C 45.3366,61.9887 45.67,60.8221 45.5,59.5C 40.8333,59.5 36.1667,59.5 31.5,59.5C 31.6567,60.8734 31.49,62.2068 31,63.5C 27.2859,62.6136 23.9526,60.947 21,58.5C 20.6012,58.7284 20.4346,59.0618 20.5,59.5C 19.596,58.791 19.2627,57.791 19.5,56.5C 34.0757,59.0228 48.7423,58.6895 63.5,55.5C 67.8589,56.1017 72.1922,56.7684 76.5,57.5C 77.1924,56.9747 77.6924,56.3081 78,55.5C 78.4935,57.1341 78.6602,58.8008 78.5,60.5 Z"/></g>
<g><path style="opacity:0.012" fill="#b00000" d="M 80.5,60.5 C 80.8333,60.5 81.1667,60.5 81.5,60.5C 81.6716,61.4916 81.3382,62.1583 80.5,62.5C 80.5,61.8333 80.5,61.1667 80.5,60.5 Z"/></g>
<g><path style="opacity:0.008" fill="#a41a0a" d="M 79.5,62.5 C 79.8333,62.5 80.1667,62.5 80.5,62.5C 80.1667,65.1667 79.8333,65.1667 79.5,62.5 Z"/></g>
<g><path style="opacity:0.004" fill="#e10000" d="M 18.5,63.5 C 18.8333,63.5 19.1667,63.5 19.5,63.5C 19.5,64.1667 19.5,64.8333 19.5,65.5C 18.6618,65.1583 18.3284,64.4916 18.5,63.5 Z"/></g>
<g><path style="opacity:1" fill="#a60811" d="M 59.5,64.5 C 59.4142,65.4959 59.7476,66.3292 60.5,67C 63.5535,67.1786 66.5535,67.6786 69.5,68.5C 69.2907,69.086 68.9574,69.586 68.5,70C 53.8777,70.691 39.5444,69.0244 25.5,65C 23.6045,63.2761 21.9378,61.4428 20.5,59.5C 20.4346,59.0618 20.6012,58.7284 21,58.5C 23.9526,60.947 27.2859,62.6136 31,63.5C 31.49,62.2068 31.6567,60.8734 31.5,59.5C 36.1667,59.5 40.8333,59.5 45.5,59.5C 45.67,60.8221 45.3366,61.9887 44.5,63C 40.8333,63.3333 37.1667,63.6667 33.5,64C 42.1603,64.4998 50.8269,64.6664 59.5,64.5 Z"/></g>
<g><path style="opacity:0.004" fill="#e10000" d="M 19.5,65.5 C 19.8333,65.5 20.1667,65.5 20.5,65.5C 20.1667,68.1667 19.8333,68.1667 19.5,65.5 Z"/></g>
<g><path style="opacity:0.008" fill="#790e04" d="M 78.5,65.5 C 79.7152,66.779 79.3818,67.779 77.5,68.5C 77.5,67.8333 77.5,67.1667 77.5,66.5C 78.1667,66.5 78.5,66.1667 78.5,65.5 Z"/></g>
<g><path style="opacity:1" fill="#9f0f14" d="M 16.5,45.5 C 16.8333,45.5 17.1667,45.5 17.5,45.5C 17.5,45.8333 17.5,46.1667 17.5,46.5C 17.5569,47.609 17.8902,48.609 18.5,49.5C 18.2053,51.7354 18.5386,53.7354 19.5,55.5C 19.5,55.8333 19.5,56.1667 19.5,56.5C 19.2627,57.791 19.596,58.791 20.5,59.5C 21.9378,61.4428 23.6045,63.2761 25.5,65C 39.5444,69.0244 53.8777,70.691 68.5,70C 68.9574,69.586 69.2907,69.086 69.5,68.5C 66.5535,67.6786 63.5535,67.1786 60.5,67C 59.7476,66.3292 59.4142,65.4959 59.5,64.5C 61.134,63.8389 62.9674,63.5056 65,63.5C 68.9627,64.0068 72.6293,64.6735 76,65.5C 76.3345,63.4971 77.1679,61.8304 78.5,60.5C 78.8333,60.5 79.1667,60.5 79.5,60.5C 79.5,61.1667 79.5,61.8333 79.5,62.5C 78.596,63.209 78.2627,64.209 78.5,65.5C 77.8333,65.5 77.5,65.8333 77.5,66.5C 76.6618,66.8417 76.3284,67.5084 76.5,68.5C 75.8333,68.5 75.5,68.8333 75.5,69.5C 75.1667,69.5 74.8333,69.5 74.5,69.5C 68.1097,70.8814 61.6097,72.2147 55,73.5C 50.5113,72.9595 46.0113,72.6262 41.5,72.5C 36.5,72.5 31.5,72.5 26.5,72.5C 25.2719,71.6935 24.2719,70.6935 23.5,69.5C 22.4884,68.1283 21.4884,66.795 20.5,65.5C 20.6716,64.5084 20.3382,63.8417 19.5,63.5C 19.1667,60.8333 18.8333,60.8333 18.5,63.5C 17.0687,62.2196 16.4021,60.5529 16.5,58.5C 17.8333,57.1667 17.8333,55.8333 16.5,54.5C 16.5,51.5 16.5,48.5 16.5,45.5 Z"/></g>
<g><path style="opacity:0.012" fill="#a90000" d="M 76.5,68.5 C 76.8333,68.5 77.1667,68.5 77.5,68.5C 77.3147,69.1701 76.9813,69.1701 76.5,68.5 Z"/></g>
<g><path style="opacity:0.012" fill="#540000" d="M 75.5,69.5 C 75.8333,69.5 76.1667,69.5 76.5,69.5C 76.3147,70.1701 75.9813,70.1701 75.5,69.5 Z"/></g>
<g><path style="opacity:0.004" fill="#2f0e00" d="M 23.5,69.5 C 23.631,70.2389 23.4643,70.9056 23,71.5C 22.3083,70.5632 22.475,69.8966 23.5,69.5 Z"/></g>
<g><path style="opacity:1" fill="#8f0a0d" d="M 74.5,69.5 C 74.5,70.1667 74.8333,70.5 75.5,70.5C 74.5,73.5 72.5,75.5 69.5,76.5C 69.1667,75.1667 68.8333,75.1667 68.5,76.5C 59.5274,77.5493 50.5274,77.7159 41.5,77C 41.0338,75.7012 41.0338,74.2012 41.5,72.5C 46.0113,72.6262 50.5113,72.9595 55,73.5C 61.6097,72.2147 68.1097,70.8814 74.5,69.5 Z"/></g>
<g><path style="opacity:0.984" fill="#7e110f" d="M 26.5,72.5 C 31.5,72.5 36.5,72.5 41.5,72.5C 41.0338,74.2012 41.0338,75.7012 41.5,77C 50.5274,77.7159 59.5274,77.5493 68.5,76.5C 68.8333,76.5 69.1667,76.5 69.5,76.5C 65.4482,80.6906 60.4482,83.0239 54.5,83.5C 53.4537,85.8817 53.4537,88.2151 54.5,90.5C 53.8333,90.5 53.5,90.8333 53.5,91.5C 52.8333,91.5 52.5,91.8333 52.5,92.5C 51.5084,92.3284 50.8417,92.6618 50.5,93.5C 48.6214,93.6068 48.2881,93.1068 49.5,92C 48.9341,91.0053 48.2674,90.172 47.5,89.5C 47.1667,86.8333 46.8333,86.8333 46.5,89.5C 44.9261,87.8984 44.2594,85.8984 44.5,83.5C 39.8071,83.1021 35.4738,81.6021 31.5,79C 31.6192,77.7188 31.1192,76.5521 30,75.5C 28.7025,76.7836 27.5358,76.6169 26.5,75C 27.5981,74.2303 27.5981,73.397 26.5,72.5 Z"/></g>
<g><path style="opacity:0.004" fill="#2f0e00" d="M 55.5,90.5 C 55.369,89.7611 55.5357,89.0944 56,88.5C 56.6917,89.4368 56.525,90.1034 55.5,90.5 Z"/></g>
<g><path style="opacity:0.004" fill="#1e0300" d="M 46.5,89.5 C 46.8333,89.5 47.1667,89.5 47.5,89.5C 47.1667,92.1667 46.8333,92.1667 46.5,89.5 Z"/></g>
<g><path style="opacity:0.004" fill="#000000" d="M 54.5,90.5 C 54.8333,90.5 55.1667,90.5 55.5,90.5C 55.3147,91.1701 54.9813,91.1701 54.5,90.5 Z"/></g>
<g><path style="opacity:0.004" fill="#fe0000" d="M 53.5,91.5 C 53.8333,91.5 54.1667,91.5 54.5,91.5C 54.3147,92.1701 53.9813,92.1701 53.5,91.5 Z"/></g>
<g><path style="opacity:0.008" fill="#fe0000" d="M 52.5,92.5 C 52.8333,92.5 53.1667,92.5 53.5,92.5C 53.3147,93.1701 52.9813,93.1701 52.5,92.5 Z"/></g>
<g><path style="opacity:0.004" fill="#52170a" d="M 50.5,93.5 C 51.1667,93.5 51.8333,93.5 52.5,93.5C 51.8333,94.8333 51.1667,94.8333 50.5,93.5 Z"/></g>
</svg>
