<?xml version="1.0" encoding="UTF-8"?>
<!DOCTYPE svg PUBLIC "-//W3C//DTD SVG 1.1//EN" "http://www.w3.org/Graphics/SVG/1.1/DTD/svg11.dtd">
<svg xmlns="http://www.w3.org/2000/svg" version="1.1" width="128px" height="128px" style="shape-rendering:geometricPrecision; text-rendering:geometricPrecision; image-rendering:optimizeQuality; fill-rule:evenodd; clip-rule:evenodd" xmlns:xlink="http://www.w3.org/1999/xlink">
<g><path style="opacity:0.016" fill="#f9ac7e" d="M 39.5,11.5 C 45.6529,10.3467 51.9863,10.18 58.5,11C 52.1754,11.4995 45.8421,11.6662 39.5,11.5 Z"/></g>
<g><path style="opacity:0.016" fill="#e3c9b4" d="M 62.5,12.5 C 61.448,12.6495 60.448,12.4828 59.5,12C 60.7494,11.2599 61.7494,11.4265 62.5,12.5 Z"/></g>
<g><path style="opacity:0.008" fill="#fffeab" d="M 13.5,30.5 C 13.1667,30.5 12.8333,30.5 12.5,30.5C 12.8333,27.8333 13.1667,27.8333 13.5,30.5 Z"/></g>
<g><path style="opacity:0.016" fill="#e0c9c9" d="M 12.5,30.5 C 12.6495,31.552 12.4828,32.552 12,33.5C 11.2599,32.2506 11.4265,31.2506 12.5,30.5 Z"/></g>
<g><path style="opacity:0.004" fill="#4f4e17" d="M 10.5,35.5 C 11.525,35.8966 11.6917,36.5632 11,37.5C 10.5357,36.9056 10.369,36.2389 10.5,35.5 Z"/></g>
<g><path style="opacity:0.008" fill="#f0f0f0" d="M 12.5,42.5 C 11.4017,41.3991 11.235,40.0657 12,38.5C 12.49,39.7932 12.6567,41.1266 12.5,42.5 Z"/></g>
<g><path style="opacity:0.012" fill="#ffe0b4" d="M 12.5,42.5 C 12.8333,42.5 13.1667,42.5 13.5,42.5C 13.5,43.5 13.5,44.5 13.5,45.5C 12.596,44.791 12.2627,43.791 12.5,42.5 Z"/></g>
<g><path style="opacity:0.016" fill="#fedb9d" d="M 93.5,47.5 C 93.3347,43.8183 93.5014,40.1516 94,36.5C 94.8099,40.3575 94.6433,44.0242 93.5,47.5 Z"/></g>
<g><path style="opacity:0.004" fill="#fffee2" d="M 13.5,45.5 C 13.8333,45.5 14.1667,45.5 14.5,45.5C 14.1667,48.1667 13.8333,48.1667 13.5,45.5 Z"/></g>
<g><path style="opacity:1" fill="#edc66f" d="M 68.5,25.5 C 74.5543,25.8719 79.8877,27.8719 84.5,31.5C 81.0821,30.8118 77.7488,29.8118 74.5,28.5C 73.5836,28.5427 72.9169,28.8761 72.5,29.5C 62.4075,27.3625 52.7409,28.5292 43.5,33C 41.0038,34.331 39.0038,36.1644 37.5,38.5C 36.6618,38.8417 36.3284,39.5084 36.5,40.5C 35.8826,40.6107 35.3826,40.944 35,41.5C 33.5315,47.8972 34.8648,53.5639 39,58.5C 39.2882,65.1692 39.1216,71.8359 38.5,78.5C 36.7089,80.4133 34.7089,82.08 32.5,83.5C 32.2141,75.0691 32.8807,66.7358 34.5,58.5C 30.6324,55.2249 28.2991,51.0582 27.5,46C 27.7586,44.2134 28.4253,42.7134 29.5,41.5C 33.8207,39.0965 37.154,35.5965 39.5,31C 43.7886,29.346 48.122,27.6794 52.5,26C 57.8229,25.5006 63.1563,25.334 68.5,25.5 Z"/></g>
<g><path style="opacity:0.012" fill="#ffd4bf" d="M 92.5,47.5 C 92.8333,47.5 93.1667,47.5 93.5,47.5C 93.7373,48.791 93.404,49.791 92.5,50.5C 92.5,49.5 92.5,48.5 92.5,47.5 Z"/></g>
<g><path style="opacity:0.004" fill="#fffee2" d="M 91.5,50.5 C 91.8333,50.5 92.1667,50.5 92.5,50.5C 92.6716,51.4916 92.3382,52.1583 91.5,52.5C 91.5,51.8333 91.5,51.1667 91.5,50.5 Z"/></g>
<g><path style="opacity:1" fill="#e3c99d" d="M 23.5,26.5 C 23.5,26.8333 23.5,27.1667 23.5,27.5C 21.5636,29.2432 21.2302,31.2432 22.5,33.5C 23.5223,33.1445 24.189,32.4778 24.5,31.5C 24.8333,31.5 25.1667,31.5 25.5,31.5C 25.2308,33.4286 25.7308,35.0953 27,36.5C 29.3997,32.5978 32.5664,29.5978 36.5,27.5C 33.7606,30.2327 31.4273,33.2327 29.5,36.5C 28.506,37.9989 28.506,39.6656 29.5,41.5C 28.4253,42.7134 27.7586,44.2134 27.5,46C 28.2991,51.0582 30.6324,55.2249 34.5,58.5C 32.8807,66.7358 32.2141,75.0691 32.5,83.5C 31.8826,83.6107 31.3826,83.944 31,84.5C 30.8333,82.3333 30.6667,80.1667 30.5,78C 31.5262,71.1498 31.5262,64.3164 30.5,57.5C 29.6936,65.156 29.0269,72.8227 28.5,80.5C 28.5507,82.0998 28.8841,83.5998 29.5,85C 28.552,85.4828 27.552,85.6495 26.5,85.5C 27.1279,75.1436 27.1279,64.8102 26.5,54.5C 25.6823,63.4897 25.0156,72.4897 24.5,81.5C 24.6132,83.6413 25.2799,85.4747 26.5,87C 25.015,88.7565 25.3484,89.9232 27.5,90.5C 27.8333,91.1667 28.1667,91.8333 28.5,92.5C 27.1667,92.5 25.8333,92.5 24.5,92.5C 24.6602,94.1992 24.4935,95.8659 24,97.5C 23.8171,94.6353 23.3171,91.9686 22.5,89.5C 22.8228,77.132 22.8228,64.7987 22.5,52.5C 21.2035,64.7995 20.5369,77.1329 20.5,89.5C 19.6689,76.0061 19.1689,62.3395 19,48.5C 17.0432,45.2962 15.8765,41.7962 15.5,38C 15.6083,36.3189 16.2749,35.1522 17.5,34.5C 19.0134,31.4756 21.0134,28.8089 23.5,26.5 Z"/></g>
<g><path style="opacity:0.004" fill="#fffee2" d="M 90.5,52.5 C 90.8333,52.5 91.1667,52.5 91.5,52.5C 91.6716,53.4916 91.3382,54.1583 90.5,54.5C 90.5,53.8333 90.5,53.1667 90.5,52.5 Z"/></g>
<g><path style="opacity:0.008" fill="#feff7e" d="M 89.5,54.5 C 89.8333,54.5 90.1667,54.5 90.5,54.5C 90.3147,55.1701 89.9813,55.1701 89.5,54.5 Z"/></g>
<g><path style="opacity:0.012" fill="#feaaa9" d="M 88.5,55.5 C 88.8333,55.5 89.1667,55.5 89.5,55.5C 89.3147,56.1701 88.9813,56.1701 88.5,55.5 Z"/></g>
<g><path style="opacity:0.012" fill="#ffe7b6" d="M 15.5,70.5 C 16.6533,76.6529 16.82,82.9863 16,89.5C 15.5005,83.1754 15.3338,76.8421 15.5,70.5 Z"/></g>
<g><path style="opacity:1" fill="#f1e99e" d="M 36.5,40.5 C 35.3757,48.2926 37.5423,54.9593 43,60.5C 43.5562,65.5998 45.3896,70.0998 48.5,74C 58.7701,78.0265 69.4368,79.5265 80.5,78.5C 81.7079,79.2341 83.0413,79.5674 84.5,79.5C 84.1746,71.6484 84.508,63.9818 85.5,56.5C 85.5,64.1667 85.5,71.8333 85.5,79.5C 86.8333,79.5 88.1667,79.5 89.5,79.5C 89.573,81.0269 88.9063,82.0269 87.5,82.5C 84.9272,81.4448 82.2605,81.2782 79.5,82C 78.8333,84 77.5,85.3333 75.5,86C 78.9233,85.8551 80.9233,87.3551 81.5,90.5C 64.4476,90.7388 47.4476,89.9055 30.5,88C 29.1667,87.3333 29.1667,86.6667 30.5,86C 32.9005,85.8142 35.2338,85.3142 37.5,84.5C 38.6022,82.1106 40.2689,80.2773 42.5,79C 41.2068,78.51 39.8734,78.3433 38.5,78.5C 39.1216,71.8359 39.2882,65.1692 39,58.5C 34.8648,53.5639 33.5315,47.8972 35,41.5C 35.3826,40.944 35.8826,40.6107 36.5,40.5 Z"/></g>
<g><path style="opacity:1" fill="#dbb869" d="M 22.5,89.5 C 22.2627,93.2887 21.5961,93.2887 20.5,89.5C 20.5369,77.1329 21.2035,64.7995 22.5,52.5C 22.8228,64.7987 22.8228,77.132 22.5,89.5 Z"/></g>
<g><path style="opacity:1" fill="#efdb98" d="M 32.5,83.5 C 34.7089,82.08 36.7089,80.4133 38.5,78.5C 39.8734,78.3433 41.2068,78.51 42.5,79C 40.2689,80.2773 38.6022,82.1106 37.5,84.5C 35.2338,85.3142 32.9005,85.8142 30.5,86C 29.1667,86.6667 29.1667,87.3333 30.5,88C 47.4476,89.9055 64.4476,90.7388 81.5,90.5C 80.9233,87.3551 78.9233,85.8551 75.5,86C 77.5,85.3333 78.8333,84 79.5,82C 82.2605,81.2782 84.9272,81.4448 87.5,82.5C 87.0766,83.2646 86.7432,84.0979 86.5,85C 90.5886,89.6888 92.5886,95.1888 92.5,101.5C 96.1817,101.335 99.8484,101.501 103.5,102C 100.896,102.39 98.5625,103.224 96.5,104.5C 93.2869,104.81 90.2869,104.477 87.5,103.5C 88.1667,103.167 88.8333,102.833 89.5,102.5C 90.9931,101.688 91.6598,100.355 91.5,98.5C 91.4622,95.8129 90.4622,95.1463 88.5,96.5C 82.9395,94.8756 77.2728,93.709 71.5,93C 56.8158,92.3495 42.1492,91.5162 27.5,90.5C 25.3484,89.9232 25.015,88.7565 26.5,87C 25.2799,85.4747 24.6132,83.6413 24.5,81.5C 25.0156,72.4897 25.6823,63.4897 26.5,54.5C 27.1279,64.8102 27.1279,75.1436 26.5,85.5C 27.552,85.6495 28.552,85.4828 29.5,85C 28.8841,83.5998 28.5507,82.0998 28.5,80.5C 29.0269,72.8227 29.6936,65.156 30.5,57.5C 31.5262,64.3164 31.5262,71.1498 30.5,78C 30.6667,80.1667 30.8333,82.3333 31,84.5C 31.3826,83.944 31.8826,83.6107 32.5,83.5 Z"/></g>
<g><path style="opacity:0.016" fill="#f6dbc0" d="M 21.5,94.5 C 21.6567,95.8734 21.49,97.2068 21,98.5C 20.235,96.9343 20.4017,95.6009 21.5,94.5 Z"/></g>
<g><path style="opacity:1" fill="#e46f20" d="M 28.5,92.5 C 41.823,93.1395 55.1564,93.6395 68.5,94C 72.9048,94.7639 76.9048,96.4306 80.5,99C 83.2305,99.7284 85.8971,99.5617 88.5,98.5C 89.4287,99.6888 89.762,101.022 89.5,102.5C 88.8333,102.833 88.1667,103.167 87.5,103.5C 81.0076,105.145 81.0076,106.645 87.5,108C 95.9955,110.082 104.662,111.082 113.5,111C 112.944,111.383 112.611,111.883 112.5,112.5C 105.217,113.66 97.8834,114.327 90.5,114.5C 90.6107,113.883 90.944,113.383 91.5,113C 86.3396,112.42 82.0063,110.253 78.5,106.5C 73.544,105.506 68.544,105.173 63.5,105.5C 69.5,104.833 75.5,104.167 81.5,103.5C 82.7175,102.839 84.0508,102.172 85.5,101.5C 75.8886,100.173 66.5553,98.0067 57.5,95C 47.8333,94.3333 38.1667,94.3333 28.5,95C 27.2427,97.0765 27.576,98.9098 29.5,100.5C 26.0132,99.5554 24.6799,97.2221 25.5,93.5C 26.791,93.7373 27.791,93.404 28.5,92.5 Z"/></g>
<g><path style="opacity:1" fill="#eda154" d="M 27.5,90.5 C 42.1492,91.5162 56.8158,92.3495 71.5,93C 77.2728,93.709 82.9395,94.8756 88.5,96.5C 90.4622,95.1463 91.4622,95.8129 91.5,98.5C 91.6598,100.355 90.9931,101.688 89.5,102.5C 89.762,101.022 89.4287,99.6888 88.5,98.5C 85.8971,99.5617 83.2305,99.7284 80.5,99C 76.9048,96.4306 72.9048,94.7639 68.5,94C 55.1564,93.6395 41.823,93.1395 28.5,92.5C 28.1667,91.8333 27.8333,91.1667 27.5,90.5 Z"/></g>
<g><path style="opacity:1" fill="#f6e9bf" d="M 89.5,79.5 C 91.0174,79.5106 92.1841,80.1772 93,81.5C 93.6667,93.5 94.3333,93.5 95,81.5C 95.3333,83.8333 95.6667,86.1667 96,88.5C 98.7344,89.3617 98.9011,90.195 96.5,91C 97.5,91.5 98.5,92 99.5,92.5C 101.432,91.4798 103.432,91.3131 105.5,92C 104.167,92.3333 102.833,92.6667 101.5,93C 103.058,93.21 104.391,93.71 105.5,94.5C 101.126,94.971 97.126,93.971 93.5,91.5C 92.479,92.0016 92.3123,92.6683 93,93.5C 94.6095,94.1466 96.1095,94.98 97.5,96C 102.863,96.5589 108.196,96.8922 113.5,97C 112.944,96.6174 112.611,96.1174 112.5,95.5C 114.68,94.1448 116.68,94.3115 118.5,96C 118.167,96.3333 117.833,96.6667 117.5,97C 120.154,100.327 121.154,104.161 120.5,108.5C 119.662,108.842 119.328,109.508 119.5,110.5C 119.167,110.5 118.833,110.5 118.5,110.5C 118.768,107.881 118.435,105.381 117.5,103C 110.616,103.989 103.616,104.489 96.5,104.5C 98.5625,103.224 100.896,102.39 103.5,102C 99.8484,101.501 96.1817,101.335 92.5,101.5C 92.5886,95.1888 90.5886,89.6888 86.5,85C 86.7432,84.0979 87.0766,83.2646 87.5,82.5C 88.9063,82.0269 89.573,81.0269 89.5,79.5 Z"/></g>
<g><path style="opacity:1" fill="#f6d979" d="M 105.5,94.5 C 107.903,94.448 110.236,94.7814 112.5,95.5C 112.611,96.1174 112.944,96.6174 113.5,97C 108.196,96.8922 102.863,96.5589 97.5,96C 96.1095,94.98 94.6095,94.1466 93,93.5C 92.3123,92.6683 92.479,92.0016 93.5,91.5C 97.126,93.971 101.126,94.971 105.5,94.5 Z"/></g>
<g><path style="opacity:1" fill="#d74509" d="M 81.5,103.5 C 72.5,103.5 63.5,103.5 54.5,103.5C 45.9469,103.963 37.6136,102.963 29.5,100.5C 27.576,98.9098 27.2427,97.0765 28.5,95C 38.1667,94.3333 47.8333,94.3333 57.5,95C 66.5553,98.0067 75.8886,100.173 85.5,101.5C 84.0508,102.172 82.7175,102.839 81.5,103.5 Z"/></g>
<g><path style="opacity:0.016" fill="#f1bdb2" d="M 121.5,108.5 C 121.336,105.813 121.503,103.146 122,100.5C 122.801,103.367 122.634,106.034 121.5,108.5 Z"/></g>
<g><path style="opacity:0.835" fill="#eccaaf" d="M 62.5,12.5 C 65.4067,12.5752 68.0734,13.4086 70.5,15C 70.3808,16.2812 70.8808,17.4479 72,18.5C 75.9524,18.3782 79.4524,19.8782 82.5,23C 81.3463,23.9138 81.513,24.7471 83,25.5C 84.2975,24.2164 85.4642,24.3831 86.5,26C 86.1667,26.3333 85.8333,26.6667 85.5,27C 91.655,32.4867 93.9883,39.3201 92.5,47.5C 91.596,48.209 91.2627,49.209 91.5,50.5C 90.6618,50.8417 90.3284,51.5084 90.5,52.5C 89.6618,52.8417 89.3284,53.5084 89.5,54.5C 88.8333,54.5 88.5,54.8333 88.5,55.5C 87.1667,55.8333 87.1667,56.1667 88.5,56.5C 88.2866,64.527 88.6199,72.1937 89.5,79.5C 88.1667,79.5 86.8333,79.5 85.5,79.5C 85.5,71.8333 85.5,64.1667 85.5,56.5C 92.4728,47.7945 92.1394,39.4612 84.5,31.5C 79.8877,27.8719 74.5543,25.8719 68.5,25.5C 69.2739,24.8529 70.2739,24.5195 71.5,24.5C 74.8476,25.3433 78.1809,25.8433 81.5,26C 76.3802,24.0858 72.0468,21.9191 68.5,19.5C 66.2646,19.7947 64.2646,19.4614 62.5,18.5C 63.9516,17.6981 65.6183,17.1981 67.5,17C 64.9196,15.8555 62.2529,15.0222 59.5,14.5C 43.7569,11.3107 29.9236,14.9773 18,25.5C 16.3024,28.3963 16.1357,31.3963 17.5,34.5C 16.2749,35.1522 15.6083,36.3189 15.5,38C 15.8765,41.7962 17.0432,45.2962 19,48.5C 19.1689,62.3395 19.6689,76.0061 20.5,89.5C 21.5961,93.2887 22.2627,93.2887 22.5,89.5C 23.3171,91.9686 23.8171,94.6353 24,97.5C 24.4935,95.8659 24.6602,94.1992 24.5,92.5C 25.8333,92.5 27.1667,92.5 28.5,92.5C 27.791,93.404 26.791,93.7373 25.5,93.5C 24.6799,97.2221 26.0132,99.5554 29.5,100.5C 37.6136,102.963 45.9469,103.963 54.5,103.5C 54.3367,105.857 54.5034,108.19 55,110.5C 57.9701,112.084 60.8034,113.751 63.5,115.5C 61.901,115.232 60.5676,115.566 59.5,116.5C 58.1266,116.657 56.7932,116.49 55.5,116C 55.121,113.812 53.9543,111.645 52,109.5C 51.6667,110.167 51.3333,110.833 51,111.5C 50.7216,110.584 50.2216,109.918 49.5,109.5C 47.7857,108.262 45.7857,107.595 43.5,107.5C 42.8333,106.167 42.1667,106.167 41.5,107.5C 38.7528,106.034 35.7528,105.201 32.5,105C 33.8333,104.667 35.1667,104.333 36.5,104C 32.8618,102.495 29.1951,102.162 25.5,103C 26.1667,102.667 26.8333,102.333 27.5,102C 24.1077,100.458 22.1077,97.9583 21.5,94.5C 20.1639,92.9897 18.9973,91.3231 18,89.5C 18.0633,76.1683 18.0633,62.8349 18,49.5C 16.5952,48.2695 15.4286,46.9361 14.5,45.5C 14.7373,44.209 14.404,43.209 13.5,42.5C 12.3749,38.4787 12.3749,34.4787 13.5,30.5C 15.5573,28.4275 16.3907,26.0941 16,23.5C 16.3333,23.8333 16.6667,24.1667 17,24.5C 18.5,23 20,21.5 21.5,20C 21.1667,19.6667 20.8333,19.3333 20.5,19C 23.2565,15.7714 26.5898,14.6048 30.5,15.5C 33.0698,14.3657 35.7365,13.5323 38.5,13C 46.704,12.6582 54.704,12.4915 62.5,12.5 Z"/></g>
<g><path style="opacity:1" fill="#eebf4c" d="M 72.5,29.5 C 72.9169,28.8761 73.5836,28.5427 74.5,28.5C 77.7488,29.8118 81.0821,30.8118 84.5,31.5C 92.1394,39.4612 92.4728,47.7945 85.5,56.5C 84.508,63.9818 84.1746,71.6484 84.5,79.5C 83.0413,79.5674 81.7079,79.2341 80.5,78.5C 80.3337,71.825 80.5004,65.1583 81,58.5C 82.332,56.34 83.832,54.34 85.5,52.5C 90.2201,39.8587 85.8868,32.192 72.5,29.5 Z"/></g>
<g><path style="opacity:1" fill="#f4eeb0" d="M 37.5,38.5 C 37.6782,41.8788 37.6782,45.0454 37.5,48C 38.2947,51.6565 40.4614,54.1565 44,55.5C 45.3104,53.8678 45.8104,52.2012 45.5,50.5C 46.4776,50.9767 47.3109,51.6433 48,52.5C 48.4186,51.3279 49.0853,50.3279 50,49.5C 52.0412,49.3573 54.2079,49.6906 56.5,50.5C 57.4776,50.0233 58.3109,49.3567 59,48.5C 60.2426,50.8329 61.9093,51.4996 64,50.5C 65.5122,51.2567 66.8455,52.2567 68,53.5C 68.6667,52.8333 69.3333,52.1667 70,51.5C 73.9295,52.0286 77.2629,53.6953 80,56.5C 81.3333,54.5 82.6667,52.5 84,50.5C 84.2784,51.4158 84.7784,52.0825 85.5,52.5C 83.832,54.34 82.332,56.34 81,58.5C 80.5004,65.1583 80.3337,71.825 80.5,78.5C 69.4368,79.5265 58.7701,78.0265 48.5,74C 45.3896,70.0998 43.5562,65.5998 43,60.5C 37.5423,54.9593 35.3757,48.2926 36.5,40.5C 36.3284,39.5084 36.6618,38.8417 37.5,38.5 Z"/></g>
<g><path style="opacity:1" fill="#f3eeb3" d="M 72.5,29.5 C 85.8868,32.192 90.2201,39.8587 85.5,52.5C 84.7784,52.0825 84.2784,51.4158 84,50.5C 82.6667,52.5 81.3333,54.5 80,56.5C 77.2629,53.6953 73.9295,52.0286 70,51.5C 69.3333,52.1667 68.6667,52.8333 68,53.5C 66.8455,52.2567 65.5122,51.2567 64,50.5C 61.9093,51.4996 60.2426,50.8329 59,48.5C 58.3109,49.3567 57.4776,50.0233 56.5,50.5C 54.2079,49.6906 52.0412,49.3573 50,49.5C 49.0853,50.3279 48.4186,51.3279 48,52.5C 47.3109,51.6433 46.4776,50.9767 45.5,50.5C 45.8104,52.2012 45.3104,53.8678 44,55.5C 40.4614,54.1565 38.2947,51.6565 37.5,48C 37.6782,45.0454 37.6782,41.8788 37.5,38.5C 39.0038,36.1644 41.0038,34.331 43.5,33C 52.7409,28.5292 62.4075,27.3625 72.5,29.5 Z"/></g>
<g><path style="opacity:1" fill="#e46615" d="M 29.5,36.5 C 31.4273,33.2327 33.7606,30.2327 36.5,27.5C 47.6422,21.9047 59.3089,20.4047 71.5,23C 59.8056,22.3423 48.8056,24.6757 38.5,30C 35.794,32.3706 33.4606,35.0372 31.5,38C 30.184,38.5281 29.5173,38.0281 29.5,36.5 Z"/></g>
<g><path style="opacity:1" fill="#e26518" d="M 62.5,18.5 C 64.2646,19.4614 66.2646,19.7947 68.5,19.5C 61.6302,20.2083 54.6302,21.0416 47.5,22C 43.2131,22.81 39.5464,24.6433 36.5,27.5C 32.5664,29.5978 29.3997,32.5978 27,36.5C 25.7308,35.0953 25.2308,33.4286 25.5,31.5C 35.8057,21.8401 48.139,17.5068 62.5,18.5 Z"/></g>
<g><path style="opacity:1" fill="#e6956a" d="M 59.5,14.5 C 62.2529,15.0222 64.9196,15.8555 67.5,17C 65.6183,17.1981 63.9516,17.6981 62.5,18.5C 48.139,17.5068 35.8057,21.8401 25.5,31.5C 25.1667,31.5 24.8333,31.5 24.5,31.5C 30.4996,23.6614 38.4996,19.1614 48.5,18C 38.897,17.8006 30.5637,20.9672 23.5,27.5C 23.5,27.1667 23.5,26.8333 23.5,26.5C 26.8665,22.3199 31.1999,19.4866 36.5,18C 44.1912,16.1348 51.8579,14.9682 59.5,14.5 Z"/></g>
<g><path style="opacity:1" fill="#dc5c18" d="M 24.5,31.5 C 24.189,32.4778 23.5223,33.1445 22.5,33.5C 21.2302,31.2432 21.5636,29.2432 23.5,27.5C 30.5637,20.9672 38.897,17.8006 48.5,18C 38.4996,19.1614 30.4996,23.6614 24.5,31.5 Z"/></g>
<g><path style="opacity:1" fill="#eea666" d="M 68.5,19.5 C 72.0468,21.9191 76.3802,24.0858 81.5,26C 78.1809,25.8433 74.8476,25.3433 71.5,24.5C 70.2739,24.5195 69.2739,24.8529 68.5,25.5C 63.1563,25.334 57.8229,25.5006 52.5,26C 48.122,27.6794 43.7886,29.346 39.5,31C 37.154,35.5965 33.8207,39.0965 29.5,41.5C 28.506,39.6656 28.506,37.9989 29.5,36.5C 29.5173,38.0281 30.184,38.5281 31.5,38C 33.4606,35.0372 35.794,32.3706 38.5,30C 48.8056,24.6757 59.8056,22.3423 71.5,23C 59.3089,20.4047 47.6422,21.9047 36.5,27.5C 39.5464,24.6433 43.2131,22.81 47.5,22C 54.6302,21.0416 61.6302,20.2083 68.5,19.5 Z"/></g>
<g><path style="opacity:1" fill="#e1681e" d="M 59.5,14.5 C 51.8579,14.9682 44.1912,16.1348 36.5,18C 31.1999,19.4866 26.8665,22.3199 23.5,26.5C 21.0134,28.8089 19.0134,31.4756 17.5,34.5C 16.1357,31.3963 16.3024,28.3963 18,25.5C 29.9236,14.9773 43.7569,11.3107 59.5,14.5 Z"/></g>
<g><path style="opacity:1" fill="#f19a57" d="M 118.5,110.5 C 118.5,110.833 118.5,111.167 118.5,111.5C 118.167,111.5 117.833,111.5 117.5,111.5C 115.784,111.629 114.117,111.962 112.5,112.5C 112.611,111.883 112.944,111.383 113.5,111C 104.662,111.082 95.9955,110.082 87.5,108C 81.0076,106.645 81.0076,105.145 87.5,103.5C 90.2869,104.477 93.2869,104.81 96.5,104.5C 103.616,104.489 110.616,103.989 117.5,103C 118.435,105.381 118.768,107.881 118.5,110.5 Z"/></g>
<g><path style="opacity:0.016" fill="#d9aba9" d="M 41.5,107.5 C 42.1667,107.5 42.8333,107.5 43.5,107.5C 42.8333,108.833 42.1667,108.833 41.5,107.5 Z"/></g>
<g><path style="opacity:0.012" fill="#7c7c7c" d="M 49.5,109.5 C 48.7494,110.573 47.7494,110.74 46.5,110C 47.448,109.517 48.448,109.351 49.5,109.5 Z"/></g>
<g><path style="opacity:0.008" fill="#fffed5" d="M 120.5,108.5 C 120.833,108.5 121.167,108.5 121.5,108.5C 121.672,109.492 121.338,110.158 120.5,110.5C 120.5,109.833 120.5,109.167 120.5,108.5 Z"/></g>
<g><path style="opacity:0.008" fill="#feff7e" d="M 119.5,110.5 C 119.833,110.5 120.167,110.5 120.5,110.5C 120.315,111.17 119.981,111.17 119.5,110.5 Z"/></g>
<g><path style="opacity:0.008" fill="#fe7f7e" d="M 118.5,111.5 C 118.833,111.5 119.167,111.5 119.5,111.5C 119.315,112.17 118.981,112.17 118.5,111.5 Z"/></g>
<g><path style="opacity:0.996" fill="#cd6b34" d="M 54.5,103.5 C 63.5,103.5 72.5,103.5 81.5,103.5C 75.5,104.167 69.5,104.833 63.5,105.5C 60.2663,106.089 58.933,108.089 59.5,111.5C 61.9013,112.049 64.2346,112.882 66.5,114C 74.1594,114.5 81.8261,114.666 89.5,114.5C 83.3554,115.49 77.0221,115.823 70.5,115.5C 68.1667,115.5 65.8333,115.5 63.5,115.5C 60.8034,113.751 57.9701,112.084 55,110.5C 54.5034,108.19 54.3367,105.857 54.5,103.5 Z"/></g>
<g><path style="opacity:0.008" fill="#fe7f7e" d="M 117.5,112.5 C 117.833,112.5 118.167,112.5 118.5,112.5C 118.315,113.17 117.981,113.17 117.5,112.5 Z"/></g>
<g><path style="opacity:1" fill="#d64608" d="M 63.5,105.5 C 68.544,105.173 73.544,105.506 78.5,106.5C 82.0063,110.253 86.3396,112.42 91.5,113C 90.944,113.383 90.6107,113.883 90.5,114.5C 90.1667,114.5 89.8333,114.5 89.5,114.5C 81.8261,114.666 74.1594,114.5 66.5,114C 64.2346,112.882 61.9013,112.049 59.5,111.5C 58.933,108.089 60.2663,106.089 63.5,105.5 Z"/></g>
<g><path style="opacity:0.486" fill="#e9beac" d="M 117.5,111.5 C 117.5,111.833 117.5,112.167 117.5,112.5C 116.167,112.833 116.167,113.167 117.5,113.5C 117.158,114.338 116.492,114.672 115.5,114.5C 114.5,113.167 113.5,113.167 112.5,114.5C 101.847,115.299 91.1807,115.966 80.5,116.5C 76.9825,116.498 73.6491,116.165 70.5,115.5C 77.0221,115.823 83.3554,115.49 89.5,114.5C 89.8333,114.5 90.1667,114.5 90.5,114.5C 97.8834,114.327 105.217,113.66 112.5,112.5C 114.117,111.962 115.784,111.629 117.5,111.5 Z"/></g>
<g><path style="opacity:0.008" fill="#ffac89" d="M 112.5,114.5 C 113.5,114.5 114.5,114.5 115.5,114.5C 112.877,116.265 109.877,116.932 106.5,116.5C 108.5,115.833 110.5,115.167 112.5,114.5 Z"/></g>
<g><path style="opacity:0.012" fill="#eb8b60" d="M 59.5,116.5 C 62.5184,116.335 65.5184,116.502 68.5,117C 65.3035,117.805 62.3035,117.638 59.5,116.5 Z"/></g>
<g><path style="opacity:0.012" fill="#d8996a" d="M 106.5,116.5 C 102.019,117.648 97.3522,117.815 92.5,117C 97.1548,116.501 101.821,116.334 106.5,116.5 Z"/></g>
<g><path style="opacity:0.004" fill="#e9cdc6" d="M 71.5,118.5 C 77.3188,117.347 83.3188,117.181 89.5,118C 83.5092,118.499 77.5092,118.666 71.5,118.5 Z"/></g>
</svg>
