<?xml version="1.0" encoding="UTF-8"?>
<!DOCTYPE svg PUBLIC "-//W3C//DTD SVG 1.1//EN" "http://www.w3.org/Graphics/SVG/1.1/DTD/svg11.dtd">
<svg xmlns="http://www.w3.org/2000/svg" version="1.1" width="100px" height="100px" style="shape-rendering:geometricPrecision; text-rendering:geometricPrecision; image-rendering:optimizeQuality; fill-rule:evenodd; clip-rule:evenodd" xmlns:xlink="http://www.w3.org/1999/xlink">
<g><path style="opacity:0.016" fill="#dafffe" d="M 53.5,4.5 C 56.9758,3.35673 60.6425,3.19007 64.5,4C 60.8484,4.49863 57.1817,4.6653 53.5,4.5 Z"/></g>
<g><path style="opacity:0.724" fill="#dbfefd" d="M 64.5,6.5 C 61.9407,6.19845 59.6074,6.53178 57.5,7.5C 54.8478,7.40953 52.5145,8.07619 50.5,9.5C 48.7162,9.89254 47.0495,10.5592 45.5,11.5C 45.5569,10.391 45.8902,9.39105 46.5,8.5C 47.8333,8.16667 47.8333,7.83333 46.5,7.5C 46.1667,7.5 45.8333,7.5 45.5,7.5C 45.1667,7.5 44.8333,7.5 44.5,7.5C 44.5,7.16667 44.5,6.83333 44.5,6.5C 46.7867,6.2761 48.9534,5.60943 51,4.5C 52.7618,4.94437 52.5951,5.44437 50.5,6C 51,6.16667 51.5,6.33333 52,6.5C 56.311,5.23157 60.4776,5.23157 64.5,6.5 Z"/></g>
<g><path style="opacity:0.994" fill="#c8fefa" d="M 57.5,7.5 C 59.6074,6.53178 61.9407,6.19845 64.5,6.5C 65.5,6.5 66.5,6.5 67.5,6.5C 67.5,7.16667 67.8333,7.5 68.5,7.5C 68.5,8.16667 68.8333,8.5 69.5,8.5C 69.5,9.16667 69.5,9.83333 69.5,10.5C 65.8323,8.27946 61.8323,7.27946 57.5,7.5 Z"/></g>
<g><path style="opacity:0.008" fill="#b7e4df" d="M 67.5,6.5 C 69.0699,5.44072 70.4032,5.94072 71.5,8C 70.7417,9.36387 71.2417,10.5305 73,11.5C 74.6255,10.5881 75.4588,11.2547 75.5,13.5C 74.1667,13.8333 74.1667,14.1667 75.5,14.5C 75.6287,16.2161 75.962,17.8828 76.5,19.5C 74.4842,17.751 72.8175,15.751 71.5,13.5C 70.8333,12.5 70.1667,11.5 69.5,10.5C 69.5,9.83333 69.5,9.16667 69.5,8.5C 68.8333,8.5 68.5,8.16667 68.5,7.5C 67.8333,7.5 67.5,7.16667 67.5,6.5 Z"/></g>
<g><path style="opacity:0.625" fill="#e3fefd" d="M 30.5,5.5 C 30.5,5.83333 30.5,6.16667 30.5,6.5C 29.5084,6.32842 28.8417,6.66175 28.5,7.5C 28.1667,7.5 27.8333,7.5 27.5,7.5C 26.1667,7.83333 26.1667,8.16667 27.5,8.5C 27.5,9.16667 27.5,9.83333 27.5,10.5C 24.0026,11.9107 21.3359,14.244 19.5,17.5C 19.5,18.1667 19.1667,18.5 18.5,18.5C 18.5,17.5 18.5,16.5 18.5,15.5C 19.9599,13.5372 21.6266,11.7038 23.5,10C 23.1667,9.66667 22.8333,9.33333 22.5,9C 24.8175,7.0073 27.4842,5.84063 30.5,5.5 Z"/></g>
<g><path style="opacity:0.861" fill="#d3fffc" d="M 30.5,5.5 C 32.3035,4.83798 34.3035,4.50465 36.5,4.5C 39.5267,4.28653 42.1934,4.9532 44.5,6.5C 41.8333,6.83333 41.8333,7.16667 44.5,7.5C 44.8333,8.83333 45.1667,8.83333 45.5,7.5C 45.8333,7.5 46.1667,7.5 46.5,7.5C 46.5,7.83333 46.5,8.16667 46.5,8.5C 45.8902,9.39105 45.5569,10.391 45.5,11.5C 44.7582,13.3497 43.7582,14.0164 42.5,13.5C 42.5,13.1667 42.5,12.8333 42.5,12.5C 45.3382,10.6941 45.0048,9.69409 41.5,9.5C 40.036,8.84014 38.3693,8.50681 36.5,8.5C 33.5143,8.38165 30.8476,9.04832 28.5,10.5C 28.1667,10.5 27.8333,10.5 27.5,10.5C 27.5,9.83333 27.5,9.16667 27.5,8.5C 27.5,8.16667 27.5,7.83333 27.5,7.5C 27.8333,7.5 28.1667,7.5 28.5,7.5C 29.4916,7.67158 30.1583,7.33825 30.5,6.5C 45.1667,6.16667 45.1667,5.83333 30.5,5.5 Z"/></g>
<g><path style="opacity:1" fill="#69f7d7" d="M 57.5,7.5 C 61.8323,7.27946 65.8323,8.27946 69.5,10.5C 70.1667,11.5 70.8333,12.5 71.5,13.5C 69.0722,11.9565 66.4056,10.9565 63.5,10.5C 60.7131,9.52333 57.7131,9.19 54.5,9.5C 55.5,8.83333 56.5,8.16667 57.5,7.5 Z"/></g>
<g><path style="opacity:1" fill="#5bfcd2" d="M 54.5,9.5 C 57.7131,9.19 60.7131,9.52333 63.5,10.5C 59.5842,10.0255 56.2509,11.0255 53.5,13.5C 52.1667,13.5 50.8333,13.5 49.5,13.5C 50.5846,11.4131 52.2512,10.0798 54.5,9.5 Z"/></g>
<g><path style="opacity:1" fill="#58fdd6" d="M 41.5,9.5 C 45.0048,9.69409 45.3382,10.6941 42.5,12.5C 37.8623,11.1947 33.1956,11.528 28.5,13.5C 29.343,11.8267 30.6763,10.66 32.5,10C 35.4816,9.50204 38.4816,9.33537 41.5,9.5 Z"/></g>
<g><path style="opacity:1" fill="#43fbc8" d="M 42.5,12.5 C 42.5,12.8333 42.5,13.1667 42.5,13.5C 42.1667,13.5 41.8333,13.5 41.5,13.5C 40.1667,12.1667 38.8333,12.1667 37.5,13.5C 32.1878,13.0392 28.1878,15.0392 25.5,19.5C 24.209,19.2627 23.209,19.596 22.5,20.5C 21.8333,20.5 21.1667,20.5 20.5,20.5C 21.1667,19.5 21.8333,18.5 22.5,17.5C 25.1979,17.1551 27.1979,15.8218 28.5,13.5C 33.1956,11.528 37.8623,11.1947 42.5,12.5 Z"/></g>
<g><path style="opacity:1" fill="#affeeb" d="M 50.5,9.5 C 48.5047,11.3043 46.8381,13.3043 45.5,15.5C 44.1214,17.5969 42.4547,17.9302 40.5,16.5C 40.5569,15.391 40.8902,14.391 41.5,13.5C 41.8333,13.5 42.1667,13.5 42.5,13.5C 43.7582,14.0164 44.7582,13.3497 45.5,11.5C 47.0495,10.5592 48.7162,9.89254 50.5,9.5 Z"/></g>
<g><path style="opacity:1" fill="#42f2c0" d="M 63.5,10.5 C 66.4056,10.9565 69.0722,11.9565 71.5,13.5C 71.5,14.1667 71.5,14.8333 71.5,15.5C 70.391,15.4431 69.391,15.1098 68.5,14.5C 67.4324,13.5655 66.099,13.2322 64.5,13.5C 61.995,12.5033 59.3283,12.5033 56.5,13.5C 55.5,13.5 54.5,13.5 53.5,13.5C 56.2509,11.0255 59.5842,10.0255 63.5,10.5 Z"/></g>
<g><path style="opacity:1" fill="#89fee1" d="M 41.5,9.5 C 38.4816,9.33537 35.4816,9.50204 32.5,10C 30.6763,10.66 29.343,11.8267 28.5,13.5C 27.1979,15.8218 25.1979,17.1551 22.5,17.5C 23.8103,14.5268 25.8103,12.1935 28.5,10.5C 30.8476,9.04832 33.5143,8.38165 36.5,8.5C 38.3693,8.50681 40.036,8.84014 41.5,9.5 Z"/></g>
<g><path style="opacity:1" fill="#25f6b8" d="M 41.5,13.5 C 40.8902,14.391 40.5569,15.391 40.5,16.5C 40.1667,16.5 39.8333,16.5 39.5,16.5C 38.7978,15.8843 37.7978,15.8843 36.5,16.5C 34.5,16.5 32.5,16.5 30.5,16.5C 32.9752,15.8686 35.3085,14.8686 37.5,13.5C 38.8333,12.1667 40.1667,12.1667 41.5,13.5 Z"/></g>
<g><path style="opacity:1" fill="#99fee6" d="M 57.5,7.5 C 56.5,8.16667 55.5,8.83333 54.5,9.5C 52.2512,10.0798 50.5846,11.4131 49.5,13.5C 47.9382,13.7329 46.6049,14.3995 45.5,15.5C 46.8381,13.3043 48.5047,11.3043 50.5,9.5C 52.5145,8.07619 54.8478,7.40953 57.5,7.5 Z"/></g>
<g><path style="opacity:0.008" fill="#fefffe" d="M 75.5,13.5 C 76.8333,14.1667 76.8333,14.1667 75.5,13.5 Z"/></g>
<g><path style="opacity:1" fill="#38f3b7" d="M 64.5,13.5 C 62.0202,14.242 59.6869,15.242 57.5,16.5C 56.8826,16.3893 56.3826,16.056 56,15.5C 54.2745,16.464 52.4412,17.1307 50.5,17.5C 52.364,15.9862 54.364,14.6528 56.5,13.5C 59.3283,12.5033 61.995,12.5033 64.5,13.5 Z"/></g>
<g><path style="opacity:1" fill="#adfee8" d="M 27.5,10.5 C 27.8333,10.5 28.1667,10.5 28.5,10.5C 25.8103,12.1935 23.8103,14.5268 22.5,17.5C 21.5,17.5 20.5,17.5 19.5,17.5C 21.3359,14.244 24.0026,11.9107 27.5,10.5 Z"/></g>
<g><path style="opacity:1" fill="#35f5b4" d="M 57.5,16.5 C 55.5,17.5 53.5,18.5 51.5,19.5C 48.562,19.2733 46.2287,20.2733 44.5,22.5C 43.8333,22.5 43.1667,22.5 42.5,22.5C 43.2341,21.2921 43.5674,19.9587 43.5,18.5C 44.1667,18.5 44.8333,18.5 45.5,18.5C 47.2161,18.3713 48.8828,18.038 50.5,17.5C 52.4412,17.1307 54.2745,16.464 56,15.5C 56.3826,16.056 56.8826,16.3893 57.5,16.5 Z"/></g>
<g><path style="opacity:1" fill="#46f9c3" d="M 49.5,13.5 C 50.8333,13.5 52.1667,13.5 53.5,13.5C 54.5,13.5 55.5,13.5 56.5,13.5C 54.364,14.6528 52.364,15.9862 50.5,17.5C 48.8828,18.038 47.2161,18.3713 45.5,18.5C 46.8333,16.8333 48.1667,15.1667 49.5,13.5 Z"/></g>
<g><path style="opacity:1" fill="#2feaa6" d="M 64.5,13.5 C 66.099,13.2322 67.4324,13.5655 68.5,14.5C 68.1667,15.1667 67.8333,15.8333 67.5,16.5C 65.9139,17.4132 64.4139,17.4132 63,16.5C 61.2811,17.8688 59.4478,18.8688 57.5,19.5C 55.5,19.5 53.5,19.5 51.5,19.5C 53.5,18.5 55.5,17.5 57.5,16.5C 59.6869,15.242 62.0202,14.242 64.5,13.5 Z"/></g>
<g><path style="opacity:1" fill="#32da9b" d="M 68.5,14.5 C 69.391,15.1098 70.391,15.4431 71.5,15.5C 71.5,16.1667 71.5,16.8333 71.5,17.5C 71.5,18.1667 71.5,18.8333 71.5,19.5C 70.5,19.5 69.5,19.5 68.5,19.5C 67.8902,18.609 67.5569,17.609 67.5,16.5C 67.8333,15.8333 68.1667,15.1667 68.5,14.5 Z"/></g>
<g><path style="opacity:1" fill="#31f9be" d="M 37.5,13.5 C 35.3085,14.8686 32.9752,15.8686 30.5,16.5C 29.3303,18.2785 27.6636,19.2785 25.5,19.5C 28.1878,15.0392 32.1878,13.0392 37.5,13.5 Z"/></g>
<g><path style="opacity:1" fill="#27f6b4" d="M 30.5,16.5 C 32.5,16.5 34.5,16.5 36.5,16.5C 32.573,19.9269 27.9063,21.2603 22.5,20.5C 23.209,19.596 24.209,19.2627 25.5,19.5C 27.6636,19.2785 29.3303,18.2785 30.5,16.5 Z"/></g>
<g><path style="opacity:1" fill="#1bf3a9" d="M 39.5,16.5 C 39.5,17.1667 39.5,17.8333 39.5,18.5C 39.1667,18.5 38.8333,18.5 38.5,18.5C 35.318,19.5945 32.318,20.9278 29.5,22.5C 28.8333,22.5 28.1667,22.5 27.5,22.5C 25.1667,21.8333 22.8333,21.1667 20.5,20.5C 21.1667,20.5 21.8333,20.5 22.5,20.5C 27.9063,21.2603 32.573,19.9269 36.5,16.5C 37.7978,15.8843 38.7978,15.8843 39.5,16.5 Z"/></g>
<g><path style="opacity:1" fill="#6ffed6" d="M 49.5,13.5 C 48.1667,15.1667 46.8333,16.8333 45.5,18.5C 44.8333,18.5 44.1667,18.5 43.5,18.5C 41.8762,18.3601 40.7096,19.0267 40,20.5C 39.5357,19.9056 39.369,19.2389 39.5,18.5C 39.5,17.8333 39.5,17.1667 39.5,16.5C 39.8333,16.5 40.1667,16.5 40.5,16.5C 42.4547,17.9302 44.1214,17.5969 45.5,15.5C 46.6049,14.3995 47.9382,13.7329 49.5,13.5 Z"/></g>
<g><path style="opacity:1" fill="#2be194" d="M 67.5,16.5 C 67.5569,17.609 67.8902,18.609 68.5,19.5C 69.463,20.3635 69.463,21.0302 68.5,21.5C 67.2638,20.7542 65.9305,20.4208 64.5,20.5C 62.1667,20.5 59.8333,20.5 57.5,20.5C 57.5,20.1667 57.5,19.8333 57.5,19.5C 59.4478,18.8688 61.2811,17.8688 63,16.5C 64.4139,17.4132 65.9139,17.4132 67.5,16.5 Z"/></g>
<g><path style="opacity:1" fill="#68f9cd" d="M 19.5,17.5 C 20.5,17.5 21.5,17.5 22.5,17.5C 21.8333,18.5 21.1667,19.5 20.5,20.5C 22.8333,21.1667 25.1667,21.8333 27.5,22.5C 24.1501,22.665 20.8168,22.4983 17.5,22C 18.3366,20.9887 18.67,19.8221 18.5,18.5C 19.1667,18.5 19.5,18.1667 19.5,17.5 Z"/></g>
<g><path style="opacity:1" fill="#19ef98" d="M 38.5,18.5 C 38.5,19.8333 38.5,21.1667 38.5,22.5C 37.0413,22.4326 35.7079,22.7659 34.5,23.5C 32.5853,23.7845 30.9187,23.4511 29.5,22.5C 32.318,20.9278 35.318,19.5945 38.5,18.5 Z"/></g>
<g><path style="opacity:1" fill="#48fac9" d="M 38.5,18.5 C 38.8333,18.5 39.1667,18.5 39.5,18.5C 39.369,19.2389 39.5357,19.9056 40,20.5C 40.7096,19.0267 41.8762,18.3601 43.5,18.5C 43.5674,19.9587 43.2341,21.2921 42.5,22.5C 41.1667,22.5 39.8333,22.5 38.5,22.5C 38.5,21.1667 38.5,19.8333 38.5,18.5 Z"/></g>
<g><path style="opacity:1" fill="#22e993" d="M 57.5,20.5 C 59.8333,20.5 62.1667,20.5 64.5,20.5C 64.5,20.8333 64.5,21.1667 64.5,21.5C 63.1667,21.5 61.8333,21.5 60.5,21.5C 58.1432,21.3367 55.8098,21.5034 53.5,22C 51.9443,22.7202 50.9443,23.8868 50.5,25.5C 49.2905,25.0679 48.2905,24.4013 47.5,23.5C 50.381,21.32 53.7144,20.32 57.5,20.5 Z"/></g>
<g><path style="opacity:1" fill="#27ce7e" d="M 68.5,19.5 C 69.5,19.5 70.5,19.5 71.5,19.5C 72.5,19.8333 73.1667,20.5 73.5,21.5C 72.209,21.2627 71.209,21.596 70.5,22.5C 69.8333,22.5 69.1667,22.5 68.5,22.5C 67.5,22.5 66.5,22.5 65.5,22.5C 65.5,21.8333 65.1667,21.5 64.5,21.5C 64.5,21.1667 64.5,20.8333 64.5,20.5C 65.9305,20.4208 67.2638,20.7542 68.5,21.5C 69.463,21.0302 69.463,20.3635 68.5,19.5 Z"/></g>
<g><path style="opacity:0.784" fill="#b2f0e7" d="M 86.5,25.5 C 86.5,26.1667 86.5,26.8333 86.5,27.5C 84.7541,25.7484 82.7541,24.4151 80.5,23.5C 79.1667,23.5 77.8333,23.5 76.5,23.5C 76.5,22.5 76.5,21.5 76.5,20.5C 77.2679,19.7375 77.7679,18.7375 78,17.5C 80.7022,19.4408 83.5355,21.2742 86.5,23C 87.5981,23.7697 87.5981,24.603 86.5,25.5 Z"/></g>
<g><path style="opacity:0.996" fill="#c7fdf0" d="M 18.5,15.5 C 18.5,16.5 18.5,17.5 18.5,18.5C 18.67,19.8221 18.3366,20.9887 17.5,22C 20.8168,22.4983 24.1501,22.665 27.5,22.5C 24.8333,23.1667 22.1667,23.8333 19.5,24.5C 19.1667,24.5 18.8333,24.5 18.5,24.5C 17.8333,23.8333 17.1667,23.1667 16.5,22.5C 16.6816,20.4086 16.3482,18.4086 15.5,16.5C 16.1329,14.4807 17.1329,14.1474 18.5,15.5 Z"/></g>
<g><path style="opacity:1" fill="#27f1a6" d="M 51.5,19.5 C 53.5,19.5 55.5,19.5 57.5,19.5C 57.5,19.8333 57.5,20.1667 57.5,20.5C 53.7144,20.32 50.381,21.32 47.5,23.5C 47.1667,23.5 46.8333,23.5 46.5,23.5C 45.5084,23.6716 44.8417,23.3382 44.5,22.5C 46.2287,20.2733 48.562,19.2733 51.5,19.5 Z"/></g>
<g><path style="opacity:1" fill="#2fb67f" d="M 71.5,17.5 C 74.5847,19.3494 76.2514,22.0161 76.5,25.5C 76.573,27.0269 75.9063,28.0269 74.5,28.5C 74.702,26.0504 74.3686,23.717 73.5,21.5C 73.1667,20.5 72.5,19.8333 71.5,19.5C 71.5,18.8333 71.5,18.1667 71.5,17.5 Z"/></g>
<g><path style="opacity:1" fill="#89fee8" d="M 27.5,22.5 C 28.1667,22.5 28.8333,22.5 29.5,22.5C 30.9187,23.4511 32.5853,23.7845 34.5,23.5C 34.5,23.8333 34.5,24.1667 34.5,24.5C 33.0413,24.4326 31.7079,24.7659 30.5,25.5C 27.0381,24.5184 23.3714,24.185 19.5,24.5C 22.1667,23.8333 24.8333,23.1667 27.5,22.5 Z"/></g>
<g><path style="opacity:1" fill="#adfdee" d="M 38.5,22.5 C 39.8333,22.5 41.1667,22.5 42.5,22.5C 43.1667,22.5 43.8333,22.5 44.5,22.5C 44.8417,23.3382 45.5084,23.6716 46.5,23.5C 46.5,24.1667 46.1667,24.5 45.5,24.5C 41.8333,24.5 38.1667,24.5 34.5,24.5C 34.5,24.1667 34.5,23.8333 34.5,23.5C 35.7079,22.7659 37.0413,22.4326 38.5,22.5 Z"/></g>
<g><path style="opacity:1" fill="#17e283" d="M 60.5,21.5 C 57.5474,22.6903 54.8807,24.357 52.5,26.5C 51.8333,26.1667 51.1667,25.8333 50.5,25.5C 50.9443,23.8868 51.9443,22.7202 53.5,22C 55.8098,21.5034 58.1432,21.3367 60.5,21.5 Z"/></g>
<g><path style="opacity:1" fill="#1ad879" d="M 60.5,21.5 C 61.8333,21.5 63.1667,21.5 64.5,21.5C 65.1667,21.5 65.5,21.8333 65.5,22.5C 63.9731,22.427 62.9731,23.0937 62.5,24.5C 58.919,24.1376 55.919,25.1376 53.5,27.5C 52.8333,27.5 52.5,27.1667 52.5,26.5C 54.8807,24.357 57.5474,22.6903 60.5,21.5 Z"/></g>
<g><path style="opacity:1" fill="#17cc69" d="M 65.5,22.5 C 66.5,22.5 67.5,22.5 68.5,22.5C 68.5,23.8333 67.8333,24.5 66.5,24.5C 64.0034,26.8711 61.0034,27.8711 57.5,27.5C 59.42,26.9348 61.0867,25.9348 62.5,24.5C 62.9731,23.0937 63.9731,22.427 65.5,22.5 Z"/></g>
<g><path style="opacity:1" fill="#49ceaa" d="M 71.5,13.5 C 72.8175,15.751 74.4842,17.751 76.5,19.5C 76.5,19.8333 76.5,20.1667 76.5,20.5C 76.5,21.5 76.5,22.5 76.5,23.5C 77.8333,23.5 79.1667,23.5 80.5,23.5C 80.5,24.1667 80.5,24.8333 80.5,25.5C 80.1667,25.5 79.8333,25.5 79.5,25.5C 78.3478,24.375 77.3478,24.375 76.5,25.5C 76.2514,22.0161 74.5847,19.3494 71.5,17.5C 71.5,16.8333 71.5,16.1667 71.5,15.5C 71.5,14.8333 71.5,14.1667 71.5,13.5 Z"/></g>
<g><path style="opacity:0.009" fill="#fefffe" d="M 9.5,26.5 C 8.83333,26.5 8.5,26.8333 8.5,27.5C 7.83333,27.5 7.5,27.8333 7.5,28.5C 6.47498,28.1034 6.30831,27.4368 7,26.5C 7.97722,25.2264 8.81056,25.2264 9.5,26.5 Z"/></g>
<g><path style="opacity:0.641" fill="#d8f8f5" d="M 16.5,22.5 C 17.1667,23.1667 17.8333,23.8333 18.5,24.5C 11.5098,25.4902 7.50977,29.4902 6.5,36.5C 5.97588,38.3057 5.30921,39.9724 4.5,41.5C 4.16667,41.5 3.83333,41.5 3.5,41.5C 3.5,40.8333 3.5,40.1667 3.5,39.5C 4.45115,38.0813 4.78448,36.4147 4.5,34.5C 5.48615,32.5739 6.48615,30.5739 7.5,28.5C 8.16667,28.5 8.5,28.1667 8.5,27.5C 9.16667,27.5 9.5,27.1667 9.5,26.5C 10.9311,24.0024 12.7645,21.3357 15,18.5C 15.21,20.0581 15.71,21.3915 16.5,22.5 Z"/></g>
<g><path style="opacity:1" fill="#69fcd5" d="M 34.5,24.5 C 38.1667,24.5 41.8333,24.5 45.5,24.5C 46.1667,25.1667 46.8333,25.8333 47.5,26.5C 40.8792,25.3741 35.2125,27.0407 30.5,31.5C 31.8333,29.1667 33.1667,26.8333 34.5,24.5 Z"/></g>
<g><path style="opacity:1" fill="#14d36d" d="M 62.5,24.5 C 61.0867,25.9348 59.42,26.9348 57.5,27.5C 56.209,27.2627 55.209,27.596 54.5,28.5C 54.1667,28.5 53.8333,28.5 53.5,28.5C 53.5,28.1667 53.5,27.8333 53.5,27.5C 55.919,25.1376 58.919,24.1376 62.5,24.5 Z"/></g>
<g><path style="opacity:1" fill="#5dfed4" d="M 19.5,24.5 C 23.3714,24.185 27.0381,24.5184 30.5,25.5C 29.8333,26.8333 28.8333,27.8333 27.5,28.5C 21.7033,26.5914 16.7033,27.9248 12.5,32.5C 12.1667,32.5 11.8333,32.5 11.5,32.5C 13.8123,29.5211 16.4789,26.8544 19.5,24.5 Z"/></g>
<g><path style="opacity:1" fill="#1db55f" d="M 68.5,22.5 C 69.1667,22.5 69.8333,22.5 70.5,22.5C 72.8918,23.7421 72.7251,25.0755 70,26.5C 69.51,27.7932 69.3433,29.1266 69.5,30.5C 66.8333,30.5 64.1667,30.5 61.5,30.5C 65.275,30.3843 66.9417,28.3843 66.5,24.5C 67.8333,24.5 68.5,23.8333 68.5,22.5 Z"/></g>
<g><path style="opacity:1" fill="#1da258" d="M 70.5,22.5 C 71.209,21.596 72.209,21.2627 73.5,21.5C 74.3686,23.717 74.702,26.0504 74.5,28.5C 73.5987,29.2905 72.9321,30.2905 72.5,31.5C 71.391,31.4431 70.391,31.1098 69.5,30.5C 69.3433,29.1266 69.51,27.7932 70,26.5C 72.7251,25.0755 72.8918,23.7421 70.5,22.5 Z"/></g>
<g><path style="opacity:1" fill="#63ddc3" d="M 80.5,23.5 C 82.7541,24.4151 84.7541,25.7484 86.5,27.5C 88.2503,28.6594 89.2503,30.326 89.5,32.5C 88.609,31.8902 87.609,31.5569 86.5,31.5C 85.5223,28.5222 83.5223,26.5222 80.5,25.5C 80.5,24.8333 80.5,24.1667 80.5,23.5 Z"/></g>
<g><path style="opacity:1" fill="#b0fee9" d="M 34.5,24.5 C 33.1667,26.8333 31.8333,29.1667 30.5,31.5C 30.1667,31.5 29.8333,31.5 29.5,31.5C 28.2022,32.1157 27.2022,32.1157 26.5,31.5C 26.5,30.8333 26.5,30.1667 26.5,29.5C 27.1667,29.5 27.5,29.1667 27.5,28.5C 28.8333,27.8333 29.8333,26.8333 30.5,25.5C 31.7079,24.7659 33.0413,24.4326 34.5,24.5 Z"/></g>
<g><path style="opacity:1" fill="#0ec45c" d="M 66.5,24.5 C 66.9417,28.3843 65.275,30.3843 61.5,30.5C 60.209,30.2627 59.209,30.596 58.5,31.5C 57.8333,31.8333 57.1667,32.1667 56.5,32.5C 55.3263,31.4863 54.6596,30.153 54.5,28.5C 55.209,27.596 56.209,27.2627 57.5,27.5C 61.0034,27.8711 64.0034,26.8711 66.5,24.5 Z"/></g>
<g><path style="opacity:1" fill="#9cfde2" d="M 18.5,24.5 C 18.8333,24.5 19.1667,24.5 19.5,24.5C 16.4789,26.8544 13.8123,29.5211 11.5,32.5C 9.83333,33.8333 8.16667,35.1667 6.5,36.5C 7.50977,29.4902 11.5098,25.4902 18.5,24.5 Z"/></g>
<g><path style="opacity:1" fill="#45fac5" d="M 27.5,28.5 C 27.5,29.1667 27.1667,29.5 26.5,29.5C 26.5654,29.0618 26.3988,28.7284 26,28.5C 21.4989,30.1678 16.9989,31.8344 12.5,33.5C 12.5,33.1667 12.5,32.8333 12.5,32.5C 16.7033,27.9248 21.7033,26.5914 27.5,28.5 Z"/></g>
<g><path style="opacity:1" fill="#5af9c8" d="M 47.5,26.5 C 47.5,26.8333 47.5,27.1667 47.5,27.5C 40.5766,26.3607 34.91,28.3607 30.5,33.5C 30.1667,33.5 29.8333,33.5 29.5,33.5C 29.5,32.8333 29.5,32.1667 29.5,31.5C 29.8333,31.5 30.1667,31.5 30.5,31.5C 35.2125,27.0407 40.8792,25.3741 47.5,26.5 Z"/></g>
<g><path style="opacity:1" fill="#44f2bc" d="M 47.5,27.5 C 48.609,27.5569 49.609,27.8902 50.5,28.5C 50.5,29.1667 50.5,29.8333 50.5,30.5C 49.391,30.4431 48.391,30.1098 47.5,29.5C 45.3718,28.3709 43.0385,28.2042 40.5,29C 38.3474,29.0995 36.6808,29.9328 35.5,31.5C 34.1805,32.9418 32.5138,33.6085 30.5,33.5C 34.91,28.3607 40.5766,26.3607 47.5,27.5 Z"/></g>
<g><path style="opacity:1" fill="#66f1d0" d="M 46.5,23.5 C 46.8333,23.5 47.1667,23.5 47.5,23.5C 48.2905,24.4013 49.2905,25.0679 50.5,25.5C 51.1667,25.8333 51.8333,26.1667 52.5,26.5C 52.5,27.1667 52.8333,27.5 53.5,27.5C 53.5,27.8333 53.5,28.1667 53.5,28.5C 52.7978,29.1157 51.7978,29.1157 50.5,28.5C 49.609,27.8902 48.609,27.5569 47.5,27.5C 47.5,27.1667 47.5,26.8333 47.5,26.5C 46.8333,25.8333 46.1667,25.1667 45.5,24.5C 46.1667,24.5 46.5,24.1667 46.5,23.5 Z"/></g>
<g><path style="opacity:1" fill="#3cf0b4" d="M 47.5,29.5 C 44.6726,29.5838 42.006,30.2504 39.5,31.5C 38.1667,31.5 36.8333,31.5 35.5,31.5C 36.6808,29.9328 38.3474,29.0995 40.5,29C 43.0385,28.2042 45.3718,28.3709 47.5,29.5 Z"/></g>
<g><path style="opacity:1" fill="#33cf99" d="M 79.5,25.5 C 79.8333,25.5 80.1667,25.5 80.5,25.5C 83.5223,26.5222 85.5223,28.5222 86.5,31.5C 86.5,32.1667 86.5,32.8333 86.5,33.5C 85.1667,32.5 83.8333,31.5 82.5,30.5C 82.573,28.9731 81.9063,27.9731 80.5,27.5C 80.1667,26.8333 79.8333,26.1667 79.5,25.5 Z"/></g>
<g><path style="opacity:0.384" fill="#b9eae3" d="M 86.5,25.5 C 89.2768,27.9505 91.2768,30.9505 92.5,34.5C 92.1667,34.5 91.8333,34.5 91.5,34.5C 90.8333,33.8333 90.1667,33.1667 89.5,32.5C 89.2503,30.326 88.2503,28.6594 86.5,27.5C 86.5,26.8333 86.5,26.1667 86.5,25.5 Z"/></g>
<g><path style="opacity:1" fill="#1ec57b" d="M 80.5,27.5 C 81.9063,27.9731 82.573,28.9731 82.5,30.5C 82.366,32.2915 82.6993,33.9582 83.5,35.5C 80.5,35.8333 79.1667,34.5 79.5,31.5C 79.2322,29.901 79.5655,28.5676 80.5,27.5 Z"/></g>
<g><path style="opacity:1" fill="#3df5b9" d="M 26.5,29.5 C 26.5,30.1667 26.5,30.8333 26.5,31.5C 26.1667,31.5 25.8333,31.5 25.5,31.5C 25.5654,31.0618 25.3988,30.7284 25,30.5C 23.2811,31.8688 21.4478,32.8688 19.5,33.5C 16.6916,34.9288 13.6916,35.5955 10.5,35.5C 10.8333,34.5 11.5,33.8333 12.5,33.5C 16.9989,31.8344 21.4989,30.1678 26,28.5C 26.3988,28.7284 26.5654,29.0618 26.5,29.5 Z"/></g>
<g><path style="opacity:1" fill="#41eead" d="M 35.5,31.5 C 36.8333,31.5 38.1667,31.5 39.5,31.5C 37.9236,32.1429 36.5903,33.1429 35.5,34.5C 33.901,34.2322 32.5676,34.5655 31.5,35.5C 29.8577,36.803 28.1911,38.1363 26.5,39.5C 26.0246,36.6874 27.0246,34.6874 29.5,33.5C 29.8333,33.5 30.1667,33.5 30.5,33.5C 32.5138,33.6085 34.1805,32.9418 35.5,31.5 Z"/></g>
<g><path style="opacity:1" fill="#35e9a6" d="M 47.5,29.5 C 48.391,30.1098 49.391,30.4431 50.5,30.5C 51.1667,31.5 51.8333,32.5 52.5,33.5C 50.8439,32.8535 49.1772,32.1869 47.5,31.5C 43.5858,32.9173 39.5858,33.9173 35.5,34.5C 36.5903,33.1429 37.9236,32.1429 39.5,31.5C 42.006,30.2504 44.6726,29.5838 47.5,29.5 Z"/></g>
<g><path style="opacity:1" fill="#42d6a8" d="M 50.5,28.5 C 51.7978,29.1157 52.7978,29.1157 53.5,28.5C 53.8333,28.5 54.1667,28.5 54.5,28.5C 54.6596,30.153 55.3263,31.4863 56.5,32.5C 56.5,32.8333 56.5,33.1667 56.5,33.5C 56.6495,34.552 56.4828,35.552 56,36.5C 55.3292,35.7476 54.4959,35.4142 53.5,35.5C 53.1667,34.8333 52.8333,34.1667 52.5,33.5C 51.8333,32.5 51.1667,31.5 50.5,30.5C 50.5,29.8333 50.5,29.1667 50.5,28.5 Z"/></g>
<g><path style="opacity:1" fill="#62dec0" d="M 61.5,30.5 C 64.1667,30.5 66.8333,30.5 69.5,30.5C 70.391,31.1098 71.391,31.4431 72.5,31.5C 73.795,32.4884 75.1283,33.4884 76.5,34.5C 76.5,35.1667 76.8333,35.5 77.5,35.5C 77.5569,36.609 77.8902,37.609 78.5,38.5C 78.5,38.8333 78.5,39.1667 78.5,39.5C 78.6716,40.4916 78.3382,41.1583 77.5,41.5C 77.1667,40.5 76.5,39.8333 75.5,39.5C 76.0262,36.1922 74.6928,34.0255 71.5,33C 68.0477,32.1153 64.7144,31.282 61.5,30.5 Z"/></g>
<g><path style="opacity:1" fill="#1bb66d" d="M 76.5,25.5 C 77.3478,24.375 78.3478,24.375 79.5,25.5C 79.8333,26.1667 80.1667,26.8333 80.5,27.5C 79.5655,28.5676 79.2322,29.901 79.5,31.5C 78.8333,32.8333 78.1667,34.1667 77.5,35.5C 76.8333,35.5 76.5,35.1667 76.5,34.5C 77.6813,31.3623 77.6813,28.3623 76.5,25.5 Z"/></g>
<g><path style="opacity:1" fill="#39f0b0" d="M 25.5,31.5 C 25.5,34.5 25.5,37.5 25.5,40.5C 24.6618,40.1583 24.3284,39.4916 24.5,38.5C 24.5,37.8333 24.5,37.1667 24.5,36.5C 24.7373,35.209 24.404,34.209 23.5,33.5C 22.1667,33.5 20.8333,33.5 19.5,33.5C 21.4478,32.8688 23.2811,31.8688 25,30.5C 25.3988,30.7284 25.5654,31.0618 25.5,31.5 Z"/></g>
<g><path style="opacity:1" fill="#71f6cb" d="M 25.5,31.5 C 25.8333,31.5 26.1667,31.5 26.5,31.5C 27.2022,32.1157 28.2022,32.1157 29.5,31.5C 29.5,32.1667 29.5,32.8333 29.5,33.5C 27.0246,34.6874 26.0246,36.6874 26.5,39.5C 26.5,40.1667 26.1667,40.5 25.5,40.5C 25.5,37.5 25.5,34.5 25.5,31.5 Z"/></g>
<g><path style="opacity:1" fill="#42e6b4" d="M 61.5,30.5 C 64.7144,31.282 68.0477,32.1153 71.5,33C 74.6928,34.0255 76.0262,36.1922 75.5,39.5C 74.8333,39.1667 74.1667,38.8333 73.5,38.5C 73.5,37.1667 72.8333,36.5 71.5,36.5C 71.1667,35.5 70.5,34.8333 69.5,34.5C 65.9943,33.502 62.3276,33.502 58.5,34.5C 58.5,33.5 58.5,32.5 58.5,31.5C 59.209,30.596 60.209,30.2627 61.5,30.5 Z"/></g>
<g><path style="opacity:1" fill="#19a05e" d="M 76.5,25.5 C 77.6813,28.3623 77.6813,31.3623 76.5,34.5C 75.1283,33.4884 73.795,32.4884 72.5,31.5C 72.9321,30.2905 73.5987,29.2905 74.5,28.5C 75.9063,28.0269 76.573,27.0269 76.5,25.5 Z"/></g>
<g><path style="opacity:1" fill="#32e299" d="M 52.5,33.5 C 52.8333,34.1667 53.1667,34.8333 53.5,35.5C 52.8333,35.5 52.1667,35.5 51.5,35.5C 47.8013,34.4208 44.1346,34.4208 40.5,35.5C 37.5,35.5 34.5,35.5 31.5,35.5C 32.5676,34.5655 33.901,34.2322 35.5,34.5C 39.5858,33.9173 43.5858,32.9173 47.5,31.5C 49.1772,32.1869 50.8439,32.8535 52.5,33.5 Z"/></g>
<g><path style="opacity:1" fill="#28c37f" d="M 82.5,30.5 C 83.8333,31.5 85.1667,32.5 86.5,33.5C 87.4884,34.795 88.4884,36.1283 89.5,37.5C 88.8333,37.5 88.1667,37.5 87.5,37.5C 85.6203,37.7709 84.287,37.1042 83.5,35.5C 82.6993,33.9582 82.366,32.2915 82.5,30.5 Z"/></g>
<g><path style="opacity:1" fill="#39e7ac" d="M 58.5,31.5 C 58.5,32.5 58.5,33.5 58.5,34.5C 62.3276,33.502 65.9943,33.502 69.5,34.5C 65.8212,34.7244 62.1545,35.0578 58.5,35.5C 58.1667,35.5 57.8333,35.5 57.5,35.5C 57.6716,34.5084 57.3382,33.8417 56.5,33.5C 56.5,33.1667 56.5,32.8333 56.5,32.5C 57.1667,32.1667 57.8333,31.8333 58.5,31.5 Z"/></g>
<g><path style="opacity:1" fill="#33e2a2" d="M 69.5,34.5 C 70.5,34.8333 71.1667,35.5 71.5,36.5C 70.8333,36.5 70.1667,36.5 69.5,36.5C 66.0825,36.2963 62.4158,36.2963 58.5,36.5C 58.5,36.1667 58.5,35.8333 58.5,35.5C 62.1545,35.0578 65.8212,34.7244 69.5,34.5 Z"/></g>
<g><path style="opacity:1" fill="#43c297" d="M 86.5,31.5 C 87.609,31.5569 88.609,31.8902 89.5,32.5C 90.1667,33.1667 90.8333,33.8333 91.5,34.5C 91.6287,36.2161 91.962,37.8828 92.5,39.5C 91.609,38.8902 90.609,38.5569 89.5,38.5C 89.5,38.1667 89.5,37.8333 89.5,37.5C 88.4884,36.1283 87.4884,34.795 86.5,33.5C 86.5,32.8333 86.5,32.1667 86.5,31.5 Z"/></g>
<g><path style="opacity:1" fill="#65efbc" d="M 11.5,32.5 C 11.8333,32.5 12.1667,32.5 12.5,32.5C 12.5,32.8333 12.5,33.1667 12.5,33.5C 11.5,33.8333 10.8333,34.5 10.5,35.5C 8.41311,36.5846 7.07978,38.2512 6.5,40.5C 6.5,42.1667 6.5,43.8333 6.5,45.5C 5.83333,44.8333 5.16667,44.1667 4.5,43.5C 4.5,42.8333 4.5,42.1667 4.5,41.5C 5.30921,39.9724 5.97588,38.3057 6.5,36.5C 8.16667,35.1667 9.83333,33.8333 11.5,32.5 Z"/></g>
<g><path style="opacity:1" fill="#3aefab" d="M 19.5,33.5 C 20.8333,33.5 22.1667,33.5 23.5,33.5C 23.4226,34.7498 22.756,35.5831 21.5,36C 15.7841,35.5491 10.7841,37.0491 6.5,40.5C 7.07978,38.2512 8.41311,36.5846 10.5,35.5C 13.6916,35.5955 16.6916,34.9288 19.5,33.5 Z"/></g>
<g><path style="opacity:1" fill="#34df8f" d="M 31.5,35.5 C 34.5,35.5 37.5,35.5 40.5,35.5C 40.5,35.8333 40.5,36.1667 40.5,36.5C 37.8127,36.3359 35.146,36.5026 32.5,37C 31.1772,37.8159 30.5106,38.9826 30.5,40.5C 28.8102,40.8564 27.8102,41.8564 27.5,43.5C 27.5,44.1667 27.1667,44.5 26.5,44.5C 26.5,43.8333 26.1667,43.5 25.5,43.5C 25.5,43.1667 25.5,42.8333 25.5,42.5C 25.5,41.8333 25.5,41.1667 25.5,40.5C 26.1667,40.5 26.5,40.1667 26.5,39.5C 28.1911,38.1363 29.8577,36.803 31.5,35.5 Z"/></g>
<g><path style="opacity:1" fill="#2bd886" d="M 51.5,35.5 C 51.5,35.8333 51.5,36.1667 51.5,36.5C 51.5,36.8333 51.5,37.1667 51.5,37.5C 50.5,37.5 49.5,37.5 48.5,37.5C 46.3926,36.5318 44.0593,36.1984 41.5,36.5C 41.1667,36.5 40.8333,36.5 40.5,36.5C 40.5,36.1667 40.5,35.8333 40.5,35.5C 44.1346,34.4208 47.8013,34.4208 51.5,35.5 Z"/></g>
<g><path style="opacity:1" fill="#20bb6c" d="M 79.5,31.5 C 79.1667,34.5 80.5,35.8333 83.5,35.5C 84.287,37.1042 85.6203,37.7709 87.5,37.5C 87.5,38.1667 87.5,38.8333 87.5,39.5C 84.4299,39.6323 81.4299,39.299 78.5,38.5C 77.8902,37.609 77.5569,36.609 77.5,35.5C 78.1667,34.1667 78.8333,32.8333 79.5,31.5 Z"/></g>
<g><path style="opacity:1" fill="#35e69b" d="M 23.5,33.5 C 24.404,34.209 24.7373,35.209 24.5,36.5C 20.9186,37.2599 17.2519,37.7599 13.5,38C 12.944,38.3826 12.6107,38.8826 12.5,39.5C 10.0274,39.0882 8.69408,40.0882 8.5,42.5C 8.5,42.8333 8.5,43.1667 8.5,43.5C 7.56552,44.5676 7.23219,45.901 7.5,47.5C 6.66175,47.1583 6.32842,46.4916 6.5,45.5C 6.5,43.8333 6.5,42.1667 6.5,40.5C 10.7841,37.0491 15.7841,35.5491 21.5,36C 22.756,35.5831 23.4226,34.7498 23.5,33.5 Z"/></g>
<g><path style="opacity:1" fill="#2fdf99" d="M 69.5,36.5 C 67.6137,37.3606 65.7804,38.3606 64,39.5C 62.6703,38.4178 61.1703,37.7512 59.5,37.5C 59.1667,37.5 58.8333,37.5 58.5,37.5C 58.5,37.1667 58.5,36.8333 58.5,36.5C 62.4158,36.2963 66.0825,36.2963 69.5,36.5 Z"/></g>
<g><path style="opacity:1" fill="#28e794" d="M 24.5,36.5 C 24.5,37.1667 24.5,37.8333 24.5,38.5C 24.1667,38.5 23.8333,38.5 23.5,38.5C 19.8648,39.1143 16.1981,39.4476 12.5,39.5C 12.6107,38.8826 12.944,38.3826 13.5,38C 17.2519,37.7599 20.9186,37.2599 24.5,36.5 Z"/></g>
<g><path style="opacity:1" fill="#26dd82" d="M 40.5,36.5 C 40.8333,36.5 41.1667,36.5 41.5,36.5C 39.9275,37.6873 38.2608,38.6873 36.5,39.5C 34.6208,40.3414 32.6208,40.6747 30.5,40.5C 30.5106,38.9826 31.1772,37.8159 32.5,37C 35.146,36.5026 37.8127,36.3359 40.5,36.5 Z"/></g>
<g><path style="opacity:1" fill="#23d578" d="M 41.5,36.5 C 44.0593,36.1984 46.3926,36.5318 48.5,37.5C 47.5084,37.3284 46.8417,37.6618 46.5,38.5C 43.2356,39.3242 39.9023,39.6576 36.5,39.5C 38.2608,38.6873 39.9275,37.6873 41.5,36.5 Z"/></g>
<g><path style="opacity:1" fill="#26bb78" d="M 56.5,33.5 C 57.3382,33.8417 57.6716,34.5084 57.5,35.5C 57.5,36.1667 57.5,36.8333 57.5,37.5C 56.6618,37.8417 56.3284,38.5084 56.5,39.5C 55.8333,39.8333 55.1667,40.1667 54.5,40.5C 54.9118,38.0274 53.9118,36.6941 51.5,36.5C 51.5,36.1667 51.5,35.8333 51.5,35.5C 52.1667,35.5 52.8333,35.5 53.5,35.5C 54.4959,35.4142 55.3292,35.7476 56,36.5C 56.4828,35.552 56.6495,34.552 56.5,33.5 Z"/></g>
<g><path style="opacity:1" fill="#2ddc92" d="M 69.5,36.5 C 70.1667,36.5 70.8333,36.5 71.5,36.5C 68.8082,39.1807 65.4748,40.5141 61.5,40.5C 60.8333,39.5 60.1667,38.5 59.5,37.5C 61.1703,37.7512 62.6703,38.4178 64,39.5C 65.7804,38.3606 67.6137,37.3606 69.5,36.5 Z"/></g>
<g><path style="opacity:0.125" fill="#67b894" d="M 94.5,48.5 C 94.5,47.5 94.5,46.5 94.5,45.5C 95.7884,42.8761 95.7884,40.8761 94.5,39.5C 93.6618,39.1583 93.3284,38.4916 93.5,37.5C 94.2679,36.7375 94.7679,35.7375 95,34.5C 97.1409,39.4089 96.9742,44.0755 94.5,48.5 Z"/></g>
<g><path style="opacity:1" fill="#25e187" d="M 23.5,38.5 C 23.5,39.1667 23.5,39.8333 23.5,40.5C 18.9946,40.2705 14.6613,40.9372 10.5,42.5C 10.0623,41.4937 9.39567,41.4937 8.5,42.5C 8.69408,40.0882 10.0274,39.0882 12.5,39.5C 16.1981,39.4476 19.8648,39.1143 23.5,38.5 Z"/></g>
<g><path style="opacity:1" fill="#2cd48a" d="M 71.5,36.5 C 72.8333,36.5 73.5,37.1667 73.5,38.5C 73.573,40.0269 72.9063,41.0269 71.5,41.5C 68.0929,41.4141 64.7596,41.0808 61.5,40.5C 65.4748,40.5141 68.8082,39.1807 71.5,36.5 Z"/></g>
<g><path style="opacity:1" fill="#22db7c" d="M 23.5,40.5 C 20.3783,42.428 17.0449,43.7613 13.5,44.5C 11.8212,44.7148 10.8212,44.0481 10.5,42.5C 14.6613,40.9372 18.9946,40.2705 23.5,40.5 Z"/></g>
<g><path style="opacity:1" fill="#18a955" d="M 78.5,39.5 C 78.5,39.1667 78.5,38.8333 78.5,38.5C 81.4299,39.299 84.4299,39.6323 87.5,39.5C 86.3202,41.913 84.3202,42.913 81.5,42.5C 81.1667,41.5 80.5,40.8333 79.5,40.5C 79.5,39.8333 79.1667,39.5 78.5,39.5 Z"/></g>
<g><path style="opacity:0.961" fill="#5bb999" d="M 91.5,34.5 C 91.8333,34.5 92.1667,34.5 92.5,34.5C 93.404,35.209 93.7373,36.209 93.5,37.5C 93.3284,38.4916 93.6618,39.1583 94.5,39.5C 94.5,41.5 94.5,43.5 94.5,45.5C 93.596,46.209 93.2627,47.209 93.5,48.5C 93.1667,48.5 92.8333,48.5 92.5,48.5C 92.5,45.5 92.5,42.5 92.5,39.5C 91.962,37.8828 91.6287,36.2161 91.5,34.5 Z"/></g>
<g><path style="opacity:1" fill="#25cd6d" d="M 46.5,38.5 C 45.9423,39.7899 44.9423,40.6232 43.5,41C 38.7057,41.9021 34.039,42.7355 29.5,43.5C 28.8333,43.5 28.1667,43.5 27.5,43.5C 27.8102,41.8564 28.8102,40.8564 30.5,40.5C 32.6208,40.6747 34.6208,40.3414 36.5,39.5C 39.9023,39.6576 43.2356,39.3242 46.5,38.5 Z"/></g>
<g><path style="opacity:1" fill="#22c060" d="M 48.5,37.5 C 49.5,37.5 50.5,37.5 51.5,37.5C 51.1667,38.1667 50.8333,38.8333 50.5,39.5C 44.5964,43.6868 37.9297,45.3534 30.5,44.5C 30.5,43.8333 30.1667,43.5 29.5,43.5C 34.039,42.7355 38.7057,41.9021 43.5,41C 44.9423,40.6232 45.9423,39.7899 46.5,38.5C 46.8417,37.6618 47.5084,37.3284 48.5,37.5 Z"/></g>
<g><path style="opacity:1" fill="#29d482" d="M 58.5,37.5 C 58.8333,37.5 59.1667,37.5 59.5,37.5C 60.1667,38.5 60.8333,39.5 61.5,40.5C 64.7596,41.0808 68.0929,41.4141 71.5,41.5C 71.5,41.8333 71.5,42.1667 71.5,42.5C 70.8333,42.5 70.1667,42.5 69.5,42.5C 66.1667,42.5 62.8333,42.5 59.5,42.5C 58.5489,41.0813 58.2155,39.4147 58.5,37.5 Z"/></g>
<g><path style="opacity:1" fill="#2aba73" d="M 73.5,38.5 C 74.1667,38.8333 74.8333,39.1667 75.5,39.5C 76.5,39.8333 77.1667,40.5 77.5,41.5C 76.8333,41.5 76.5,41.8333 76.5,42.5C 75.8333,42.8333 75.1667,43.1667 74.5,43.5C 73.8333,43.5 73.1667,43.5 72.5,43.5C 72.1667,43.5 71.8333,43.5 71.5,43.5C 71.5,43.1667 71.5,42.8333 71.5,42.5C 71.5,42.1667 71.5,41.8333 71.5,41.5C 72.9063,41.0269 73.573,40.0269 73.5,38.5 Z"/></g>
<g><path style="opacity:0.024" fill="#8ad9b4" d="M 4.5,34.5 C 3.54885,35.9187 3.21552,37.5853 3.5,39.5C 3.5,40.1667 3.5,40.8333 3.5,41.5C 3.5,43.1667 3.5,44.8333 3.5,46.5C 0.897642,41.5635 1.06431,36.5635 4,31.5C 4.48278,32.448 4.64945,33.448 4.5,34.5 Z"/></g>
<g><path style="opacity:1" fill="#1fd370" d="M 23.5,38.5 C 23.8333,38.5 24.1667,38.5 24.5,38.5C 24.3284,39.4916 24.6618,40.1583 25.5,40.5C 25.5,41.1667 25.5,41.8333 25.5,42.5C 24.7777,43.5511 23.7777,44.2178 22.5,44.5C 19.5,44.5 16.5,44.5 13.5,44.5C 17.0449,43.7613 20.3783,42.428 23.5,40.5C 23.5,39.8333 23.5,39.1667 23.5,38.5 Z"/></g>
<g><path style="opacity:1" fill="#20b255" d="M 50.5,39.5 C 51.3382,39.8417 51.6716,40.5084 51.5,41.5C 50.1283,42.5116 48.795,43.5116 47.5,44.5C 42.8809,45.3136 38.2142,45.6469 33.5,45.5C 32.5,45.5 31.5,45.5 30.5,45.5C 30.5,45.1667 30.5,44.8333 30.5,44.5C 37.9297,45.3534 44.5964,43.6868 50.5,39.5 Z"/></g>
<g><path style="opacity:1" fill="#16883d" d="M 79.5,40.5 C 80.5,40.8333 81.1667,41.5 81.5,42.5C 83.2713,45.2226 85.6046,45.8893 88.5,44.5C 88.5,45.1667 88.5,45.8333 88.5,46.5C 86.368,46.5544 85.0347,47.5544 84.5,49.5C 82.1453,48.452 80.4787,46.7854 79.5,44.5C 79.5,43.1667 79.5,41.8333 79.5,40.5 Z"/></g>
<g><path style="opacity:1" fill="#1c9e51" d="M 87.5,37.5 C 88.1667,37.5 88.8333,37.5 89.5,37.5C 89.5,37.8333 89.5,38.1667 89.5,38.5C 89.1667,40.5 88.8333,42.5 88.5,44.5C 85.6046,45.8893 83.2713,45.2226 81.5,42.5C 84.3202,42.913 86.3202,41.913 87.5,39.5C 87.5,38.8333 87.5,38.1667 87.5,37.5 Z"/></g>
<g><path style="opacity:1" fill="#25ce6d" d="M 10.5,42.5 C 10.8212,44.0481 11.8212,44.7148 13.5,44.5C 16.5,44.5 19.5,44.5 22.5,44.5C 20.0521,45.4731 17.3854,45.8064 14.5,45.5C 12.5,45.5 10.5,45.5 8.5,45.5C 8.5,44.8333 8.5,44.1667 8.5,43.5C 8.5,43.1667 8.5,42.8333 8.5,42.5C 9.39567,41.4937 10.0623,41.4937 10.5,42.5 Z"/></g>
<g><path style="opacity:1" fill="#21ab4f" d="M 47.5,44.5 C 47.2504,45.9221 46.417,46.9221 45,47.5C 41.6991,47.5008 38.1991,47.3341 34.5,47C 33.944,46.6174 33.6107,46.1174 33.5,45.5C 38.2142,45.6469 42.8809,45.3136 47.5,44.5 Z"/></g>
<g><path style="opacity:1" fill="#25af62" d="M 51.5,36.5 C 53.9118,36.6941 54.9118,38.0274 54.5,40.5C 54.539,43.089 53.539,45.089 51.5,46.5C 51.5,45.8333 51.5,45.1667 51.5,44.5C 52.8333,43.5 52.8333,42.5 51.5,41.5C 51.6716,40.5084 51.3382,39.8417 50.5,39.5C 50.8333,38.8333 51.1667,38.1667 51.5,37.5C 51.5,37.1667 51.5,36.8333 51.5,36.5 Z"/></g>
<g><path style="opacity:1" fill="#2baa68" d="M 56.5,39.5 C 56.5,40.1667 56.5,40.8333 56.5,41.5C 55.596,42.209 55.2627,43.209 55.5,44.5C 54.5116,45.795 53.5116,47.1283 52.5,48.5C 51.5,48.8333 50.8333,49.5 50.5,50.5C 50.1667,50.5 49.8333,50.5 49.5,50.5C 49.6596,48.847 50.3263,47.5137 51.5,46.5C 53.539,45.089 54.539,43.089 54.5,40.5C 55.1667,40.1667 55.8333,39.8333 56.5,39.5 Z"/></g>
<g><path style="opacity:1" fill="#39a874" d="M 78.5,39.5 C 79.1667,39.5 79.5,39.8333 79.5,40.5C 79.5,41.8333 79.5,43.1667 79.5,44.5C 79.1667,45.8333 78.8333,47.1667 78.5,48.5C 77.8333,49.8333 77.1667,51.1667 76.5,52.5C 76.1667,52.5 75.8333,52.5 75.5,52.5C 76.9193,48.9852 77.586,45.3186 77.5,41.5C 78.3382,41.1583 78.6716,40.4916 78.5,39.5 Z"/></g>
<g><path style="opacity:1" fill="#1cc45d" d="M 25.5,42.5 C 25.5,42.8333 25.5,43.1667 25.5,43.5C 25.6399,45.1238 24.9733,46.2904 23.5,47C 20.1834,47.7809 17.1834,47.2809 14.5,45.5C 17.3854,45.8064 20.0521,45.4731 22.5,44.5C 23.7777,44.2178 24.7777,43.5511 25.5,42.5 Z"/></g>
<g><path style="opacity:1" fill="#1cc162" d="M 57.5,35.5 C 57.8333,35.5 58.1667,35.5 58.5,35.5C 58.5,35.8333 58.5,36.1667 58.5,36.5C 58.5,36.8333 58.5,37.1667 58.5,37.5C 58.2155,39.4147 58.5489,41.0813 59.5,42.5C 59.5587,44.7224 60.7253,45.7224 63,45.5C 65.5459,45.1414 67.7126,44.1414 69.5,42.5C 70.1667,42.5 70.8333,42.5 71.5,42.5C 71.5,42.8333 71.5,43.1667 71.5,43.5C 68.3134,46.9253 64.3134,48.2587 59.5,47.5C 58.8333,46.5 58.1667,45.5 57.5,44.5C 57.5,42.1667 57.5,39.8333 57.5,37.5C 57.5,36.8333 57.5,36.1667 57.5,35.5 Z"/></g>
<g><path style="opacity:1" fill="#1fcb6e" d="M 59.5,42.5 C 62.8333,42.5 66.1667,42.5 69.5,42.5C 67.7126,44.1414 65.5459,45.1414 63,45.5C 60.7253,45.7224 59.5587,44.7224 59.5,42.5 Z"/></g>
<g><path style="opacity:1" fill="#2a9a5e" d="M 89.5,38.5 C 90.609,38.5569 91.609,38.8902 92.5,39.5C 92.5,42.5 92.5,45.5 92.5,48.5C 92.1667,48.5 91.8333,48.5 91.5,48.5C 91.6332,45.075 90.9665,44.7417 89.5,47.5C 89.5,46.8333 89.1667,46.5 88.5,46.5C 88.5,45.8333 88.5,45.1667 88.5,44.5C 88.8333,42.5 89.1667,40.5 89.5,38.5 Z"/></g>
<g><path style="opacity:1" fill="#24a852" d="M 51.5,41.5 C 52.8333,42.5 52.8333,43.5 51.5,44.5C 46.8894,48.1511 41.5561,49.4845 35.5,48.5C 33.326,48.2503 31.6594,47.2503 30.5,45.5C 31.5,45.5 32.5,45.5 33.5,45.5C 33.6107,46.1174 33.944,46.6174 34.5,47C 38.1991,47.3341 41.6991,47.5008 45,47.5C 46.417,46.9221 47.2504,45.9221 47.5,44.5C 48.795,43.5116 50.1283,42.5116 51.5,41.5 Z"/></g>
<g><path style="opacity:0.008" fill="#73ffd5" d="M 3.5,46.5 C 3.83333,46.5 4.16667,46.5 4.5,46.5C 4.5,47.1667 4.5,47.8333 4.5,48.5C 3.66175,48.1583 3.32842,47.4916 3.5,46.5 Z"/></g>
<g><path style="opacity:1" fill="#20b855" d="M 25.5,43.5 C 26.1667,43.5 26.5,43.8333 26.5,44.5C 26.5,44.8333 26.5,45.1667 26.5,45.5C 26.5,46.1667 26.5,46.8333 26.5,47.5C 23.418,49.181 20.0847,49.8476 16.5,49.5C 16.1667,49.5 15.8333,49.5 15.5,49.5C 12.9453,48.5389 10.612,47.2055 8.5,45.5C 10.5,45.5 12.5,45.5 14.5,45.5C 17.1834,47.2809 20.1834,47.7809 23.5,47C 24.9733,46.2904 25.6399,45.1238 25.5,43.5 Z"/></g>
<g><path style="opacity:1" fill="#31ad5d" d="M 27.5,43.5 C 28.1667,43.5 28.8333,43.5 29.5,43.5C 30.1667,43.5 30.5,43.8333 30.5,44.5C 30.5,44.8333 30.5,45.1667 30.5,45.5C 31.6594,47.2503 33.326,48.2503 35.5,48.5C 35.1583,49.3382 34.4916,49.6716 33.5,49.5C 31.5,48.5 29.5,47.5 27.5,46.5C 27.5,45.8333 27.1667,45.5 26.5,45.5C 26.5,45.1667 26.5,44.8333 26.5,44.5C 27.1667,44.5 27.5,44.1667 27.5,43.5 Z"/></g>
<g><path style="opacity:1" fill="#2ba455" d="M 51.5,44.5 C 51.5,45.1667 51.5,45.8333 51.5,46.5C 50.3263,47.5137 49.6596,48.847 49.5,50.5C 49.1667,50.5 48.8333,50.5 48.5,50.5C 45.6811,50.8688 42.8477,51.2022 40,51.5C 37.4563,51.664 35.2897,50.9973 33.5,49.5C 34.4916,49.6716 35.1583,49.3382 35.5,48.5C 41.5561,49.4845 46.8894,48.1511 51.5,44.5 Z"/></g>
<g><path style="opacity:1" fill="#1db558" d="M 71.5,43.5 C 71.8333,43.5 72.1667,43.5 72.5,43.5C 72.4894,45.0174 71.8228,46.1841 70.5,47C 67.7236,48.0367 64.8902,48.87 62,49.5C 60.6244,49.3158 59.7911,48.6491 59.5,47.5C 64.3134,48.2587 68.3134,46.9253 71.5,43.5 Z"/></g>
<g><path style="opacity:1" fill="#1e8844" d="M 88.5,46.5 C 89.1667,46.5 89.5,46.8333 89.5,47.5C 89.573,49.0269 88.9063,50.0269 87.5,50.5C 86.561,50.3738 85.561,50.0405 84.5,49.5C 85.0347,47.5544 86.368,46.5544 88.5,46.5 Z"/></g>
<g><path style="opacity:1" fill="#2eb35e" d="M 8.5,43.5 C 8.5,44.1667 8.5,44.8333 8.5,45.5C 10.612,47.2055 12.9453,48.5389 15.5,49.5C 12.9213,49.1348 10.588,49.1348 8.5,49.5C 7.66175,49.1583 7.32842,48.4916 7.5,47.5C 7.23219,45.901 7.56552,44.5676 8.5,43.5 Z"/></g>
<g><path style="opacity:1" fill="#1da74e" d="M 72.5,43.5 C 73.1667,43.5 73.8333,43.5 74.5,43.5C 74.4431,44.609 74.1098,45.609 73.5,46.5C 68.8482,50.2266 63.6816,51.2266 58,49.5C 57.5065,47.8659 57.3398,46.1992 57.5,44.5C 58.1667,45.5 58.8333,46.5 59.5,47.5C 59.7911,48.6491 60.6244,49.3158 62,49.5C 64.8902,48.87 67.7236,48.0367 70.5,47C 71.8228,46.1841 72.4894,45.0174 72.5,43.5 Z"/></g>
<g><path style="opacity:1" fill="#187c37" d="M 79.5,44.5 C 80.4787,46.7854 82.1453,48.452 84.5,49.5C 85.561,50.0405 86.561,50.3738 87.5,50.5C 85.9478,53.1119 83.6145,54.4452 80.5,54.5C 80.1249,52.3024 79.4582,50.3024 78.5,48.5C 78.8333,47.1667 79.1667,45.8333 79.5,44.5 Z"/></g>
<g><path style="opacity:0.008" fill="#72feab" d="M 4.5,48.5 C 4.83333,48.5 5.16667,48.5 5.5,48.5C 5.5,49.1667 5.5,49.8333 5.5,50.5C 4.66175,50.1583 4.32842,49.4916 4.5,48.5 Z"/></g>
<g><path style="opacity:1" fill="#1da244" d="M 26.5,47.5 C 26.67,48.8221 26.3366,49.9887 25.5,51C 23.5273,51.4955 21.5273,51.6621 19.5,51.5C 18.5,50.8333 17.5,50.1667 16.5,49.5C 20.0847,49.8476 23.418,49.181 26.5,47.5 Z"/></g>
<g><path style="opacity:0.008" fill="#78a8a7" d="M 93.5,48.5 C 93.8333,48.5 94.1667,48.5 94.5,48.5C 94.6716,49.4916 94.3382,50.1583 93.5,50.5C 93.5,49.8333 93.5,49.1667 93.5,48.5 Z"/></g>
<g><path style="opacity:1" fill="#27a14c" d="M 15.5,49.5 C 15.8333,49.5 16.1667,49.5 16.5,49.5C 17.5,50.1667 18.5,50.8333 19.5,51.5C 17.8333,51.5 16.1667,51.5 14.5,51.5C 13.8333,51.5 13.1667,51.5 12.5,51.5C 11.0755,49.9689 10.4088,50.3023 10.5,52.5C 9.59872,51.7095 8.93205,50.7095 8.5,49.5C 10.588,49.1348 12.9213,49.1348 15.5,49.5 Z"/></g>
<g><path style="opacity:1" fill="#1c9e48" d="M 57.5,37.5 C 57.5,39.8333 57.5,42.1667 57.5,44.5C 57.3398,46.1992 57.5065,47.8659 58,49.5C 63.6816,51.2266 68.8482,50.2266 73.5,46.5C 72.8333,49.1667 71.1667,50.8333 68.5,51.5C 64.8354,52.5722 61.1687,52.4055 57.5,51C 56.5495,47.9433 56.2161,44.7766 56.5,41.5C 56.5,40.8333 56.5,40.1667 56.5,39.5C 56.3284,38.5084 56.6618,37.8417 57.5,37.5 Z"/></g>
<g><path style="opacity:1" fill="#219b4f" d="M 76.5,42.5 C 76.5068,47.1702 74.5068,50.5035 70.5,52.5C 69.8333,52.5 69.1667,52.5 68.5,52.5C 68.5,52.1667 68.5,51.8333 68.5,51.5C 71.1667,50.8333 72.8333,49.1667 73.5,46.5C 74.1098,45.609 74.4431,44.609 74.5,43.5C 75.1667,43.1667 75.8333,42.8333 76.5,42.5 Z"/></g>
<g><path style="opacity:1" fill="#209942" d="M 26.5,45.5 C 27.1667,45.5 27.5,45.8333 27.5,46.5C 27.5,46.8333 27.5,47.1667 27.5,47.5C 28.0352,50.2385 27.0352,52.0718 24.5,53C 20.8877,53.6744 17.5544,53.1744 14.5,51.5C 16.1667,51.5 17.8333,51.5 19.5,51.5C 21.5273,51.6621 23.5273,51.4955 25.5,51C 26.3366,49.9887 26.67,48.8221 26.5,47.5C 26.5,46.8333 26.5,46.1667 26.5,45.5 Z"/></g>
<g><path style="opacity:1" fill="#1c833a" d="M 29.5,49.5 C 31.7128,50.7729 34.0462,51.7729 36.5,52.5C 36.5,52.8333 36.5,53.1667 36.5,53.5C 34.9991,54.7515 33.3325,55.7515 31.5,56.5C 30.8333,55.8333 30.1667,55.1667 29.5,54.5C 30.494,53.0011 30.494,51.3344 29.5,49.5 Z"/></g>
<g><path style="opacity:1" fill="#3ca865" d="M 27.5,47.5 C 27.5,47.1667 27.5,46.8333 27.5,46.5C 29.5,47.5 31.5,48.5 33.5,49.5C 35.2897,50.9973 37.4563,51.664 40,51.5C 42.8477,51.2022 45.6811,50.8688 48.5,50.5C 48.0825,51.2216 47.4158,51.7216 46.5,52C 43.1832,52.4983 39.8499,52.665 36.5,52.5C 34.0462,51.7729 31.7128,50.7729 29.5,49.5C 29.1667,48.5 28.5,47.8333 27.5,47.5 Z"/></g>
<g><path style="opacity:1" fill="#145725" d="M 48.5,50.5 C 48.8333,50.5 49.1667,50.5 49.5,50.5C 49.8333,50.5 50.1667,50.5 50.5,50.5C 53.2426,53.5358 56.576,55.5358 60.5,56.5C 61.5676,57.4345 62.901,57.7678 64.5,57.5C 63.0512,59.1644 61.0512,59.9977 58.5,60C 57.6195,60.7083 56.9528,61.5416 56.5,62.5C 56.1667,62.5 55.8333,62.5 55.5,62.5C 56.1495,60.5648 56.4828,58.5648 56.5,56.5C 54.4352,56.4828 52.4352,56.1495 50.5,55.5C 48.5,54.1667 46.5,54.1667 44.5,55.5C 44.6107,54.8826 44.944,54.3826 45.5,54C 42.5184,53.502 39.5184,53.3354 36.5,53.5C 36.5,53.1667 36.5,52.8333 36.5,52.5C 39.8499,52.665 43.1832,52.4983 46.5,52C 47.4158,51.7216 48.0825,51.2216 48.5,50.5 Z"/></g>
<g><path style="opacity:1" fill="#1b8a3f" d="M 55.5,44.5 C 55.3367,46.8568 55.5034,49.1902 56,51.5C 56.3826,52.056 56.8826,52.3893 57.5,52.5C 57.5,52.8333 57.5,53.1667 57.5,53.5C 54.8001,52.8002 53.1334,51.1336 52.5,48.5C 53.5116,47.1283 54.5116,45.795 55.5,44.5 Z"/></g>
<g><path style="opacity:1" fill="#1e9645" d="M 56.5,41.5 C 56.2161,44.7766 56.5495,47.9433 57.5,51C 61.1687,52.4055 64.8354,52.5722 68.5,51.5C 68.5,51.8333 68.5,52.1667 68.5,52.5C 64.8828,53.6567 61.2161,53.6567 57.5,52.5C 56.8826,52.3893 56.3826,52.056 56,51.5C 55.5034,49.1902 55.3367,46.8568 55.5,44.5C 55.2627,43.209 55.596,42.209 56.5,41.5 Z"/></g>
<g><path style="opacity:1" fill="#177331" d="M 78.5,48.5 C 79.4582,50.3024 80.1249,52.3024 80.5,54.5C 80.5,54.8333 80.5,55.1667 80.5,55.5C 79.5041,55.4142 78.6708,55.7476 78,56.5C 77.79,54.9419 77.29,53.6085 76.5,52.5C 77.1667,51.1667 77.8333,49.8333 78.5,48.5 Z"/></g>
<g><path style="opacity:0.608" fill="#5ea178" d="M 91.5,48.5 C 91.8333,48.5 92.1667,48.5 92.5,48.5C 92.5,49.1667 92.5,49.8333 92.5,50.5C 91.8333,50.5 91.5,50.8333 91.5,51.5C 90.6618,51.8417 90.3284,52.5084 90.5,53.5C 89.8333,53.5 89.5,53.8333 89.5,54.5C 88.1667,54.8333 88.1667,55.1667 89.5,55.5C 89.1667,56.5 88.5,57.1667 87.5,57.5C 87.7373,56.209 87.404,55.209 86.5,54.5C 88.1964,52.4752 89.863,50.4752 91.5,48.5 Z"/></g>
<g><path style="opacity:0.004" fill="#4fb14d" d="M 92.5,50.5 C 92.8333,50.5 93.1667,50.5 93.5,50.5C 93.573,52.0269 92.9063,53.0269 91.5,53.5C 91.5,52.8333 91.5,52.1667 91.5,51.5C 92.1667,51.5 92.5,51.1667 92.5,50.5 Z"/></g>
<g><path style="opacity:1" fill="#229140" d="M 27.5,47.5 C 28.5,47.8333 29.1667,48.5 29.5,49.5C 30.494,51.3344 30.494,53.0011 29.5,54.5C 24.8215,54.6658 20.1548,54.4992 15.5,54C 14.0577,53.6232 13.0577,52.7899 12.5,51.5C 13.1667,51.5 13.8333,51.5 14.5,51.5C 17.5544,53.1744 20.8877,53.6744 24.5,53C 27.0352,52.0718 28.0352,50.2385 27.5,47.5 Z"/></g>
<g><path style="opacity:1" fill="#239247" d="M 57.5,52.5 C 61.2161,53.6567 64.8828,53.6567 68.5,52.5C 69.1667,52.5 69.8333,52.5 70.5,52.5C 70.3893,53.1174 70.056,53.6174 69.5,54C 66.9644,54.1862 64.631,54.6862 62.5,55.5C 60.302,55.8799 58.6354,55.2132 57.5,53.5C 57.5,53.1667 57.5,52.8333 57.5,52.5 Z"/></g>
<g><path style="opacity:1" fill="#2a9652" d="M 77.5,41.5 C 77.586,45.3186 76.9193,48.9852 75.5,52.5C 73.3131,53.758 70.9798,54.758 68.5,55.5C 66.5,55.5 64.5,55.5 62.5,55.5C 64.631,54.6862 66.9644,54.1862 69.5,54C 70.056,53.6174 70.3893,53.1174 70.5,52.5C 74.5068,50.5035 76.5068,47.1702 76.5,42.5C 76.5,41.8333 76.8333,41.5 77.5,41.5 Z"/></g>
<g><path style="opacity:0.976" fill="#65a875" d="M 4.5,43.5 C 5.16667,44.1667 5.83333,44.8333 6.5,45.5C 6.32842,46.4916 6.66175,47.1583 7.5,47.5C 7.32842,48.4916 7.66175,49.1583 8.5,49.5C 8.93205,50.7095 9.59872,51.7095 10.5,52.5C 11.5,52.8333 12.1667,53.5 12.5,54.5C 10.965,53.6457 9.63163,53.6457 8.5,54.5C 6.73758,53.7377 5.73758,52.4044 5.5,50.5C 6.83333,49.8333 6.83333,49.1667 5.5,48.5C 5.67158,47.5084 5.33825,46.8417 4.5,46.5C 4.5,45.5 4.5,44.5 4.5,43.5 Z"/></g>
<g><path style="opacity:0.008" fill="#7e7f7e" d="M 90.5,53.5 C 90.8333,53.5 91.1667,53.5 91.5,53.5C 91.3147,54.1701 90.9813,54.1701 90.5,53.5 Z"/></g>
<g><path style="opacity:0.993" fill="#2a8045" d="M 91.5,48.5 C 89.863,50.4752 88.1964,52.4752 86.5,54.5C 85.1667,55.1667 83.8333,55.8333 82.5,56.5C 81.8333,56.5 81.1667,56.5 80.5,56.5C 80.5,56.1667 80.5,55.8333 80.5,55.5C 80.5,55.1667 80.5,54.8333 80.5,54.5C 83.6145,54.4452 85.9478,53.1119 87.5,50.5C 88.9063,50.0269 89.573,49.0269 89.5,47.5C 90.9665,44.7417 91.6332,45.075 91.5,48.5 Z"/></g>
<g><path style="opacity:0.008" fill="#007f00" d="M 89.5,54.5 C 89.8333,54.5 90.1667,54.5 90.5,54.5C 90.3147,55.1701 89.9813,55.1701 89.5,54.5 Z"/></g>
<g><path style="opacity:0.467" fill="#638a5c" d="M 12.5,54.5 C 13.5,54.8333 14.1667,55.5 14.5,56.5C 13.1667,56.8333 13.1667,57.1667 14.5,57.5C 11.9528,58.231 9.95278,57.231 8.5,54.5C 9.63163,53.6457 10.965,53.6457 12.5,54.5 Z"/></g>
<g><path style="opacity:0.985" fill="#32914b" d="M 12.5,51.5 C 13.0577,52.7899 14.0577,53.6232 15.5,54C 20.1548,54.4992 24.8215,54.6658 29.5,54.5C 30.1667,55.1667 30.8333,55.8333 31.5,56.5C 30.5084,56.3284 29.8417,56.6618 29.5,57.5C 24.4725,57.4971 19.4725,57.1637 14.5,56.5C 14.1667,55.5 13.5,54.8333 12.5,54.5C 12.1667,53.5 11.5,52.8333 10.5,52.5C 10.4088,50.3023 11.0755,49.9689 12.5,51.5 Z"/></g>
<g><path style="opacity:1" fill="#175b29" d="M 36.5,53.5 C 37.9187,54.4511 39.5853,54.7845 41.5,54.5C 41.4677,56.6188 42.4677,57.9522 44.5,58.5C 44.8333,58.5 45.1667,58.5 45.5,58.5C 45.2627,59.791 45.596,60.791 46.5,61.5C 46.5,62.8333 46.5,64.1667 46.5,65.5C 46.1667,65.5 45.8333,65.5 45.5,65.5C 44.2141,62.883 42.5475,60.5496 40.5,58.5C 37.3509,55.9997 34.0175,55.9997 30.5,58.5C 29.8333,58.5 29.5,58.1667 29.5,57.5C 29.8417,56.6618 30.5084,56.3284 31.5,56.5C 33.3325,55.7515 34.9991,54.7515 36.5,53.5 Z"/></g>
<g><path style="opacity:0.992" fill="#11441d" d="M 36.5,53.5 C 39.5184,53.3354 42.5184,53.502 45.5,54C 44.944,54.3826 44.6107,54.8826 44.5,55.5C 43.1667,55.8333 43.1667,56.1667 44.5,56.5C 44.5,57.1667 44.5,57.8333 44.5,58.5C 42.4677,57.9522 41.4677,56.6188 41.5,54.5C 39.5853,54.7845 37.9187,54.4511 36.5,53.5 Z"/></g>
<g><path style="opacity:0.624" fill="#3d6540" d="M 50.5,55.5 C 50.8333,56.1667 51.1667,56.8333 51.5,57.5C 48.9623,57.831 47.2957,59.1643 46.5,61.5C 46.7373,60.209 46.404,59.209 45.5,58.5C 45.6716,57.5084 45.3382,56.8417 44.5,56.5C 43.1667,56.1667 43.1667,55.8333 44.5,55.5C 46.5,54.1667 48.5,54.1667 50.5,55.5 Z"/></g>
<g><path style="opacity:1" fill="#2d8e4e" d="M 52.5,48.5 C 53.1334,51.1336 54.8001,52.8002 57.5,53.5C 58.6354,55.2132 60.302,55.8799 62.5,55.5C 64.5,55.5 66.5,55.5 68.5,55.5C 66.0521,56.4731 63.3854,56.8064 60.5,56.5C 56.576,55.5358 53.2426,53.5358 50.5,50.5C 50.8333,49.5 51.5,48.8333 52.5,48.5 Z"/></g>
<g><path style="opacity:1" fill="#3d8e57" d="M 75.5,52.5 C 73.8693,54.6433 71.8693,56.31 69.5,57.5C 68.8333,57.5 68.1667,57.5 67.5,57.5C 66.5,57.5 65.5,57.5 64.5,57.5C 62.901,57.7678 61.5676,57.4345 60.5,56.5C 63.3854,56.8064 66.0521,56.4731 68.5,55.5C 70.9798,54.758 73.3131,53.758 75.5,52.5 Z"/></g>
<g><path style="opacity:0.976" fill="#1f6f33" d="M 75.5,52.5 C 75.8333,52.5 76.1667,52.5 76.5,52.5C 77.29,53.6085 77.79,54.9419 78,56.5C 78.6708,55.7476 79.5041,55.4142 80.5,55.5C 80.5,55.8333 80.5,56.1667 80.5,56.5C 76.9359,57.4227 73.2693,57.756 69.5,57.5C 71.8693,56.31 73.8693,54.6433 75.5,52.5 Z"/></g>
<g><path style="opacity:0.665" fill="#4b8555" d="M 14.5,57.5 C 14.5,57.1667 14.5,56.8333 14.5,56.5C 19.4725,57.1637 24.4725,57.4971 29.5,57.5C 29.5,58.1667 29.8333,58.5 30.5,58.5C 30.5,58.8333 30.5,59.1667 30.5,59.5C 30.5569,60.609 30.8902,61.609 31.5,62.5C 31.5,63.5 31.5,64.5 31.5,65.5C 31.1667,65.5 30.8333,65.5 30.5,65.5C 30.7373,64.209 30.404,63.209 29.5,62.5C 29.1667,58.5 28.8333,58.5 28.5,62.5C 27.7784,62.0825 27.2784,61.4158 27,60.5C 23.8893,61.2931 20.7227,61.1264 17.5,60C 20.5,59.6667 23.5,59.3333 26.5,59C 22.4724,58.6082 18.4724,58.1082 14.5,57.5 Z"/></g>
<g><path style="opacity:1" fill="#106524" d="M 40.5,58.5 C 37.3148,58.0196 34.4815,58.6863 32,60.5C 31.6174,59.944 31.1174,59.6107 30.5,59.5C 30.5,59.1667 30.5,58.8333 30.5,58.5C 34.0175,55.9997 37.3509,55.9997 40.5,58.5 Z"/></g>
<g><path style="opacity:1" fill="#3d854e" d="M 80.5,56.5 C 81.1667,56.5 81.8333,56.5 82.5,56.5C 82.0825,57.2216 81.4158,57.7216 80.5,58C 77.1832,58.4983 73.8499,58.665 70.5,58.5C 69.5084,58.3284 68.8417,58.6618 68.5,59.5C 67.6618,59.8417 67.3284,60.5084 67.5,61.5C 66.6618,61.8417 66.3284,62.5084 66.5,63.5C 65.6618,63.8417 65.3284,64.5084 65.5,65.5C 65.1667,65.5 64.8333,65.5 64.5,65.5C 64.1667,65.5 63.8333,65.5 63.5,65.5C 63.5,65.1667 63.5,64.8333 63.5,64.5C 64.1098,63.609 64.4431,62.609 64.5,61.5C 65.4884,60.205 66.4884,58.8717 67.5,57.5C 68.1667,57.5 68.8333,57.5 69.5,57.5C 73.2693,57.756 76.9359,57.4227 80.5,56.5 Z"/></g>
<g><path style="opacity:0.546" fill="#4e7a52" d="M 86.5,54.5 C 87.404,55.209 87.7373,56.209 87.5,57.5C 81.7821,61.1602 75.4487,62.4935 68.5,61.5C 68.5,60.8333 68.5,60.1667 68.5,59.5C 69.4916,59.6716 70.1583,59.3382 70.5,58.5C 73.8499,58.665 77.1832,58.4983 80.5,58C 81.4158,57.7216 82.0825,57.2216 82.5,56.5C 83.8333,55.8333 85.1667,55.1667 86.5,54.5 Z"/></g>
<g><path style="opacity:1" fill="#437953" d="M 50.5,55.5 C 52.4352,56.1495 54.4352,56.4828 56.5,56.5C 56.4828,58.5648 56.1495,60.5648 55.5,62.5C 54.407,64.3492 53.0737,66.0158 51.5,67.5C 51.5332,63.5659 51.5332,60.2326 51.5,57.5C 51.1667,56.8333 50.8333,56.1667 50.5,55.5 Z"/></g>
<g><path style="opacity:1" fill="#14732e" d="M 40.5,58.5 C 42.5475,60.5496 44.2141,62.883 45.5,65.5C 45.7373,66.791 45.404,67.791 44.5,68.5C 44.2451,66.0326 43.2451,64.0326 41.5,62.5C 38.4597,59.8821 35.6264,60.2155 33,63.5C 32.6174,62.944 32.1174,62.6107 31.5,62.5C 30.8902,61.609 30.5569,60.609 30.5,59.5C 31.1174,59.6107 31.6174,59.944 32,60.5C 34.4815,58.6863 37.3148,58.0196 40.5,58.5 Z"/></g>
<g><path style="opacity:0.998" fill="#116627" d="M 64.5,57.5 C 65.5,57.5 66.5,57.5 67.5,57.5C 66.4884,58.8717 65.4884,60.205 64.5,61.5C 63.5,61.5 62.5,61.5 61.5,61.5C 59.7839,61.6287 58.1172,61.962 56.5,62.5C 56.9528,61.5416 57.6195,60.7083 58.5,60C 61.0512,59.9977 63.0512,59.1644 64.5,57.5 Z"/></g>
<g><path style="opacity:1" fill="#167e31" d="M 41.5,62.5 C 40.6618,62.8417 40.3284,63.5084 40.5,64.5C 40.5,64.8333 40.5,65.1667 40.5,65.5C 40.1667,65.5 39.8333,65.5 39.5,65.5C 37.0195,66.5272 34.3529,66.5272 31.5,65.5C 31.5,64.5 31.5,63.5 31.5,62.5C 32.1174,62.6107 32.6174,62.944 33,63.5C 35.6264,60.2155 38.4597,59.8821 41.5,62.5 Z"/></g>
<g><path style="opacity:0.012" fill="#3b723b" d="M 28.5,62.5 C 28.8333,62.5 29.1667,62.5 29.5,62.5C 29.5,63.5 29.5,64.5 29.5,65.5C 28.596,64.791 28.2627,63.791 28.5,62.5 Z"/></g>
<g><path style="opacity:1" fill="#14762e" d="M 61.5,61.5 C 62.5,61.5 63.5,61.5 64.5,61.5C 64.4431,62.609 64.1098,63.609 63.5,64.5C 62.1667,64.8333 60.8333,65.1667 59.5,65.5C 59.1583,64.6618 58.4916,64.3284 57.5,64.5C 58.8333,63.5 60.1667,62.5 61.5,61.5 Z"/></g>
<g><path style="opacity:1" fill="#117930" d="M 57.5,64.5 C 58.4916,64.3284 59.1583,64.6618 59.5,65.5C 59.1667,66.1667 58.8333,66.8333 58.5,67.5C 57.2905,67.9321 56.2905,68.5987 55.5,69.5C 54.8333,69.8333 54.1667,70.1667 53.5,70.5C 53.8592,67.7633 55.1925,65.7633 57.5,64.5 Z"/></g>
<g><path style="opacity:0.016" fill="#2d602b" d="M 67.5,61.5 C 67.8333,61.5 68.1667,61.5 68.5,61.5C 68.7709,63.3797 68.1042,64.713 66.5,65.5C 66.5,64.8333 66.5,64.1667 66.5,63.5C 67.3382,63.1583 67.6716,62.4916 67.5,61.5 Z"/></g>
<g><path style="opacity:0.998" fill="#1d8639" d="M 39.5,65.5 C 38.3303,67.2785 36.6636,68.2785 34.5,68.5C 33.609,67.8902 32.609,67.5569 31.5,67.5C 31.5,66.8333 31.5,66.1667 31.5,65.5C 34.3529,66.5272 37.0195,66.5272 39.5,65.5 Z"/></g>
<g><path style="opacity:0.997" fill="#188038" d="M 63.5,64.5 C 63.5,64.8333 63.5,65.1667 63.5,65.5C 63.2671,67.0618 62.6005,68.3951 61.5,69.5C 60.8333,69.5 60.1667,69.5 59.5,69.5C 59.6716,68.5084 59.3382,67.8417 58.5,67.5C 58.8333,66.8333 59.1667,66.1667 59.5,65.5C 60.8333,65.1667 62.1667,64.8333 63.5,64.5 Z"/></g>
<g><path style="opacity:0.012" fill="#3a8c47" d="M 29.5,65.5 C 29.8333,65.5 30.1667,65.5 30.5,65.5C 30.5,66.8333 30.5,68.1667 30.5,69.5C 29.5655,68.4324 29.2322,67.099 29.5,65.5 Z"/></g>
<g><path style="opacity:0.012" fill="#6a9067" d="M 65.5,65.5 C 65.8333,65.5 66.1667,65.5 66.5,65.5C 66.7373,66.791 66.404,67.791 65.5,68.5C 65.5,67.5 65.5,66.5 65.5,65.5 Z"/></g>
<g><path style="opacity:0.984" fill="#127230" d="M 61.5,61.5 C 60.1667,62.5 58.8333,63.5 57.5,64.5C 55.1925,65.7633 53.8592,67.7633 53.5,70.5C 53.4431,71.609 53.1098,72.609 52.5,73.5C 52.1667,74.1667 51.8333,74.8333 51.5,75.5C 51.5,76.1667 51.5,76.8333 51.5,77.5C 50.5084,77.6716 49.8417,77.3382 49.5,76.5C 50.7682,74.0948 51.4349,71.4282 51.5,68.5C 51.5,68.1667 51.5,67.8333 51.5,67.5C 53.0737,66.0158 54.407,64.3492 55.5,62.5C 55.8333,62.5 56.1667,62.5 56.5,62.5C 58.1172,61.962 59.7839,61.6287 61.5,61.5 Z"/></g>
<g><path style="opacity:0.998" fill="#148736" d="M 39.5,65.5 C 39.8333,65.5 40.1667,65.5 40.5,65.5C 40.4595,68.8806 40.7929,72.2139 41.5,75.5C 39.9468,73.615 37.9468,72.615 35.5,72.5C 34.7659,71.2921 34.4326,69.9587 34.5,68.5C 36.6636,68.2785 38.3303,67.2785 39.5,65.5 Z"/></g>
<g><path style="opacity:1" fill="#168a3b" d="M 40.5,64.5 C 41.4013,65.2905 42.0679,66.2905 42.5,67.5C 42.3424,70.9023 42.6758,74.2356 43.5,77.5C 42.5,77.1667 41.8333,76.5 41.5,75.5C 40.7929,72.2139 40.4595,68.8806 40.5,65.5C 40.5,65.1667 40.5,64.8333 40.5,64.5 Z"/></g>
<g><path style="opacity:0.994" fill="#2e7c49" d="M 50.5,68.5 C 49.8333,68.8333 49.1667,69.1667 48.5,69.5C 48.1667,65.5 47.8333,65.5 47.5,69.5C 46.8333,70.5 46.1667,71.5 45.5,72.5C 45.1667,71.1667 44.8333,69.8333 44.5,68.5C 45.404,67.791 45.7373,66.791 45.5,65.5C 45.8333,65.5 46.1667,65.5 46.5,65.5C 47.2679,64.7375 47.7679,63.7375 48,62.5C 49.1223,64.4205 49.9556,66.4205 50.5,68.5 Z"/></g>
<g><path style="opacity:1" fill="#138035" d="M 58.5,67.5 C 59.3382,67.8417 59.6716,68.5084 59.5,69.5C 59.3059,71.9118 57.9726,72.9118 55.5,72.5C 55.5,71.5 55.5,70.5 55.5,69.5C 56.2905,68.5987 57.2905,67.9321 58.5,67.5 Z"/></g>
<g><path style="opacity:1" fill="#4ea56e" d="M 63.5,65.5 C 63.8333,65.5 64.1667,65.5 64.5,65.5C 64.2627,66.791 64.596,67.791 65.5,68.5C 65.5,69.8333 65.5,71.1667 65.5,72.5C 65.1667,72.5 64.8333,72.5 64.5,72.5C 64.1667,68.5 63.8333,68.5 63.5,72.5C 62.8333,72.5 62.5,72.8333 62.5,73.5C 62.1667,73.5 61.8333,73.5 61.5,73.5C 61.5,72.8333 61.5,72.1667 61.5,71.5C 61.5,70.8333 61.5,70.1667 61.5,69.5C 62.6005,68.3951 63.2671,67.0618 63.5,65.5 Z"/></g>
<g><path style="opacity:1" fill="#188e43" d="M 42.5,67.5 C 42.9805,70.0783 43.9805,72.4116 45.5,74.5C 45.5,75.1667 45.5,75.8333 45.5,76.5C 44.5352,82.0339 46.5352,85.7006 51.5,87.5C 51.1667,87.5 50.8333,87.5 50.5,87.5C 48.302,87.8799 46.6354,87.2132 45.5,85.5C 45.0372,82.6697 44.3705,80.003 43.5,77.5C 42.6758,74.2356 42.3424,70.9023 42.5,67.5 Z"/></g>
<g><path style="opacity:0.998" fill="#16833a" d="M 55.5,69.5 C 55.5,70.5 55.5,71.5 55.5,72.5C 57.9726,72.9118 59.3059,71.9118 59.5,69.5C 60.1667,69.5 60.8333,69.5 61.5,69.5C 61.5,70.1667 61.5,70.8333 61.5,71.5C 60.9373,73.3195 59.7706,74.6529 58,75.5C 56.4329,74.1439 54.5996,73.4772 52.5,73.5C 53.1098,72.609 53.4431,71.609 53.5,70.5C 54.1667,70.1667 54.8333,69.8333 55.5,69.5 Z"/></g>
<g><path style="opacity:0.431" fill="#58b06c" d="M 31.5,67.5 C 32.609,67.5569 33.609,67.8902 34.5,68.5C 34.4326,69.9587 34.7659,71.2921 35.5,72.5C 35.5,73.5 35.5,74.5 35.5,75.5C 34.8333,75.5 34.5,75.8333 34.5,76.5C 33.7321,77.2625 33.2321,78.2625 33,79.5C 31.6476,76.2799 30.8143,72.9466 30.5,69.5C 31.3382,69.1583 31.6716,68.4916 31.5,67.5 Z"/></g>
<g><path style="opacity:1" fill="#1a8a46" d="M 41.5,62.5 C 43.2451,64.0326 44.2451,66.0326 44.5,68.5C 44.8333,69.8333 45.1667,71.1667 45.5,72.5C 45.5,73.1667 45.5,73.8333 45.5,74.5C 43.9805,72.4116 42.9805,70.0783 42.5,67.5C 42.0679,66.2905 41.4013,65.2905 40.5,64.5C 40.3284,63.5084 40.6618,62.8417 41.5,62.5 Z"/></g>
<g><path style="opacity:0.02" fill="#519c7a" d="M 63.5,72.5 C 63.8333,72.5 64.1667,72.5 64.5,72.5C 64.8333,72.5 65.1667,72.5 65.5,72.5C 64.589,77.4389 63.7557,82.4389 63,87.5C 62.8138,84.9644 62.3138,82.631 61.5,80.5C 61.5,78.8333 61.5,77.1667 61.5,75.5C 61.5,74.8333 61.5,74.1667 61.5,73.5C 61.8333,73.5 62.1667,73.5 62.5,73.5C 62.3379,75.5273 62.5045,77.5273 63,79.5C 63.4966,77.1902 63.6633,74.8568 63.5,72.5 Z"/></g>
<g><path style="opacity:1" fill="#148c3b" d="M 35.5,72.5 C 37.9468,72.615 39.9468,73.615 41.5,75.5C 41.8333,76.5 42.5,77.1667 43.5,77.5C 43.6495,78.552 43.4828,79.552 43,80.5C 42.3292,79.7476 41.4959,79.4142 40.5,79.5C 40.1667,78.5 39.5,77.8333 38.5,77.5C 37.7095,76.5987 36.7095,75.9321 35.5,75.5C 35.5,74.5 35.5,73.5 35.5,72.5 Z"/></g>
<g><path style="opacity:0.994" fill="#1a8845" d="M 61.5,71.5 C 61.5,72.1667 61.5,72.8333 61.5,73.5C 61.5,74.1667 61.5,74.8333 61.5,75.5C 60.596,76.209 60.2627,77.209 60.5,78.5C 60.0603,80.8439 59.0603,82.8439 57.5,84.5C 57.5,84.1667 57.5,83.8333 57.5,83.5C 57.2437,81.0628 56.5771,78.7294 55.5,76.5C 54.3112,75.5713 52.9778,75.238 51.5,75.5C 51.8333,74.8333 52.1667,74.1667 52.5,73.5C 54.5996,73.4772 56.4329,74.1439 58,75.5C 59.7706,74.6529 60.9373,73.3195 61.5,71.5 Z"/></g>
<g><path style="opacity:0.965" fill="#378962" d="M 50.5,68.5 C 50.8333,68.5 51.1667,68.5 51.5,68.5C 51.4349,71.4282 50.7682,74.0948 49.5,76.5C 47.8372,74.5615 47.1706,72.2282 47.5,69.5C 47.8333,69.5 48.1667,69.5 48.5,69.5C 49.2675,73.139 49.9342,72.8057 50.5,68.5 Z"/></g>
<g><path style="opacity:1" fill="#1b8a48" d="M 51.5,75.5 C 52.9778,75.238 54.3112,75.5713 55.5,76.5C 56.5771,78.7294 57.2437,81.0628 57.5,83.5C 55.9328,82.3192 55.0995,80.6526 55,78.5C 54.0471,76.6269 52.8804,76.2935 51.5,77.5C 51.5,76.8333 51.5,76.1667 51.5,75.5 Z"/></g>
<g><path style="opacity:0.624" fill="#6fba95" d="M 35.5,75.5 C 36.3755,79.4616 37.0422,83.4616 37.5,87.5C 37.1667,87.5 36.8333,87.5 36.5,87.5C 36.7373,86.209 36.404,85.209 35.5,84.5C 35.1667,80.5 34.8333,80.5 34.5,84.5C 33.7417,82.0185 33.7417,79.3519 34.5,76.5C 34.5,75.8333 34.8333,75.5 35.5,75.5 Z"/></g>
<g><path style="opacity:1" fill="#1b924e" d="M 45.5,76.5 C 46.4725,78.1392 47.8058,79.4726 49.5,80.5C 51.4714,82.3005 53.1381,84.3005 54.5,86.5C 54.5,86.8333 54.5,87.1667 54.5,87.5C 53.5,87.5 52.5,87.5 51.5,87.5C 46.5352,85.7006 44.5352,82.0339 45.5,76.5 Z"/></g>
<g><path style="opacity:1" fill="#1a8d4d" d="M 57.5,83.5 C 57.5,83.8333 57.5,84.1667 57.5,84.5C 56.5,85.1667 55.5,85.8333 54.5,86.5C 53.1381,84.3005 51.4714,82.3005 49.5,80.5C 51.0481,80.1788 51.7148,79.1788 51.5,77.5C 52.8804,76.2935 54.0471,76.6269 55,78.5C 55.0995,80.6526 55.9328,82.3192 57.5,83.5 Z"/></g>
<g><path style="opacity:1" fill="#178a4b" d="M 47.5,69.5 C 47.1706,72.2282 47.8372,74.5615 49.5,76.5C 49.8417,77.3382 50.5084,77.6716 51.5,77.5C 51.7148,79.1788 51.0481,80.1788 49.5,80.5C 47.8058,79.4726 46.4725,78.1392 45.5,76.5C 45.5,75.8333 45.5,75.1667 45.5,74.5C 45.5,73.8333 45.5,73.1667 45.5,72.5C 46.1667,71.5 46.8333,70.5 47.5,69.5 Z"/></g>
<g><path style="opacity:1" fill="#13903e" d="M 38.5,77.5 C 39.5,77.8333 40.1667,78.5 40.5,79.5C 41.3414,81.3792 41.6747,83.3792 41.5,85.5C 41.1583,86.3382 40.4916,86.6716 39.5,86.5C 39.6323,83.4299 39.299,80.4299 38.5,77.5 Z"/></g>
<g><path style="opacity:0.992" fill="#239c4e" d="M 35.5,75.5 C 36.7095,75.9321 37.7095,76.5987 38.5,77.5C 39.299,80.4299 39.6323,83.4299 39.5,86.5C 39.5,87.1667 39.5,87.8333 39.5,88.5C 39.5,88.8333 39.5,89.1667 39.5,89.5C 38.8333,88.8333 38.1667,88.1667 37.5,87.5C 37.0422,83.4616 36.3755,79.4616 35.5,75.5 Z"/></g>
<g><path style="opacity:1" fill="#118f3d" d="M 43.5,77.5 C 44.3705,80.003 45.0372,82.6697 45.5,85.5C 44.2976,86.4054 42.9643,86.4054 41.5,85.5C 41.6747,83.3792 41.3414,81.3792 40.5,79.5C 41.4959,79.4142 42.3292,79.7476 43,80.5C 43.4828,79.552 43.6495,78.552 43.5,77.5 Z"/></g>
<g><path style="opacity:0.02" fill="#328556" d="M 34.5,84.5 C 34.8333,84.5 35.1667,84.5 35.5,84.5C 35.2627,85.791 35.596,86.791 36.5,87.5C 36.6068,89.3786 36.1068,89.7119 35,88.5C 34.51,87.2068 34.3433,85.8734 34.5,84.5 Z"/></g>
<g><path style="opacity:1" fill="#148b3c" d="M 41.5,85.5 C 42.9643,86.4054 44.2976,86.4054 45.5,85.5C 46.6354,87.2132 48.302,87.8799 50.5,87.5C 47.0381,88.4816 43.3714,88.815 39.5,88.5C 39.5,87.8333 39.5,87.1667 39.5,86.5C 40.4916,86.6716 41.1583,86.3382 41.5,85.5 Z"/></g>
<g><path style="opacity:1" fill="#1b8749" d="M 60.5,78.5 C 60.8412,82.1595 60.1745,85.4928 58.5,88.5C 58.0623,87.4937 57.3957,87.4937 56.5,88.5C 56.1583,87.6618 55.4916,87.3284 54.5,87.5C 54.5,87.1667 54.5,86.8333 54.5,86.5C 55.5,85.8333 56.5,85.1667 57.5,84.5C 59.0603,82.8439 60.0603,80.8439 60.5,78.5 Z"/></g>
<g><path style="opacity:1" fill="#138037" d="M 50.5,87.5 C 50.8333,87.5 51.1667,87.5 51.5,87.5C 52.5,87.5 53.5,87.5 54.5,87.5C 55.4916,87.3284 56.1583,87.6618 56.5,88.5C 52.8131,90.3429 48.8131,91.0095 44.5,90.5C 42.7085,90.634 41.0418,90.3007 39.5,89.5C 39.5,89.1667 39.5,88.8333 39.5,88.5C 43.3714,88.815 47.0381,88.4816 50.5,87.5 Z"/></g>
<g><path style="opacity:0.694" fill="#489e73" d="M 61.5,75.5 C 61.5,77.1667 61.5,78.8333 61.5,80.5C 61.5405,83.8806 61.2071,87.2139 60.5,90.5C 60.1667,90.5 59.8333,90.5 59.5,90.5C 58.8333,90.5 58.1667,90.5 57.5,90.5C 57.8333,89.8333 58.1667,89.1667 58.5,88.5C 60.1745,85.4928 60.8412,82.1595 60.5,78.5C 60.2627,77.209 60.596,76.209 61.5,75.5 Z"/></g>
<g><path style="opacity:0.004" fill="#213720" d="M 61.5,90.5 C 61.369,89.7611 61.5357,89.0944 62,88.5C 62.6917,89.4368 62.525,90.1034 61.5,90.5 Z"/></g>
<g><path style="opacity:1" fill="#20793d" d="M 58.5,88.5 C 58.1667,89.1667 57.8333,89.8333 57.5,90.5C 53.0661,91.7943 48.7327,91.7943 44.5,90.5C 48.8131,91.0095 52.8131,90.3429 56.5,88.5C 57.3957,87.4937 58.0623,87.4937 58.5,88.5 Z"/></g>
<g><path style="opacity:0.004" fill="#00fffe" d="M 60.5,90.5 C 60.8333,90.5 61.1667,90.5 61.5,90.5C 61.3147,91.1701 60.9813,91.1701 60.5,90.5 Z"/></g>
<g><path style="opacity:0.326" fill="#4c8556" d="M 37.5,87.5 C 38.1667,88.1667 38.8333,88.8333 39.5,89.5C 41.0418,90.3007 42.7085,90.634 44.5,90.5C 48.7327,91.7943 53.0661,91.7943 57.5,90.5C 58.1667,90.5 58.8333,90.5 59.5,90.5C 59.5,91.1667 59.8333,91.5 60.5,91.5C 60.0269,92.9063 59.0269,93.573 57.5,93.5C 51.8333,92.1667 46.1667,92.1667 40.5,93.5C 38.6214,93.6068 38.2881,93.1068 39.5,92C 37.9632,90.8904 37.2965,89.3904 37.5,87.5 Z"/></g>
<g><path style="opacity:0.012" fill="#3f5f3c" d="M 40.5,93.5 C 46.1667,93.5 51.8333,93.5 57.5,93.5C 51.8333,94.8333 46.1667,94.8333 40.5,93.5 Z"/></g>
</svg>
