<?xml version="1.0" encoding="UTF-8"?>
<!DOCTYPE svg PUBLIC "-//W3C//DTD SVG 1.1//EN" "http://www.w3.org/Graphics/SVG/1.1/DTD/svg11.dtd">
<svg xmlns="http://www.w3.org/2000/svg" version="1.1" width="100px" height="100px" style="shape-rendering:geometricPrecision; text-rendering:geometricPrecision; image-rendering:optimizeQuality; fill-rule:evenodd; clip-rule:evenodd" xmlns:xlink="http://www.w3.org/1999/xlink">
<g><path style="opacity:0.016" fill="#8ecbb5" d="M 54.5,8.5 C 53.209,8.26269 52.209,8.59603 51.5,9.5C 50.1667,9.5 48.8333,9.5 47.5,9.5C 48.2625,8.73209 49.2625,8.23209 50.5,8C 49.5,7.66667 48.5,7.33333 47.5,7C 50.1394,6.41187 52.4727,6.91187 54.5,8.5 Z"/></g>
<g><path style="opacity:0.553" fill="#4ee16b" d="M 47.5,9.5 C 48.8333,9.5 50.1667,9.5 51.5,9.5C 52.791,9.73731 53.791,9.40397 54.5,8.5C 57.7957,8.45009 59.129,9.78342 58.5,12.5C 57.8333,12.5 57.5,12.1667 57.5,11.5C 57.1667,10.1667 56.8333,10.1667 56.5,11.5C 55.8333,11.5 55.1667,11.5 54.5,11.5C 51.0381,10.5184 47.3714,10.185 43.5,10.5C 43.1667,9.16667 42.8333,9.16667 42.5,10.5C 41.1667,10.8333 41.1667,11.1667 42.5,11.5C 41.2983,13.3925 39.965,15.2258 38.5,17C 35.0712,17.5334 31.7379,18.3668 28.5,19.5C 28.5,19.1667 28.5,18.8333 28.5,18.5C 29.8333,18.1667 29.8333,17.8333 28.5,17.5C 28.8656,16.3054 29.699,15.6387 31,15.5C 32.4651,16.3295 33.9651,16.4962 35.5,16C 34.8333,15.6667 34.1667,15.3333 33.5,15C 35.4025,14.8008 36.9025,13.9675 38,12.5C 38.3333,12.8333 38.6667,13.1667 39,13.5C 39.242,11.8619 40.0753,10.3619 41.5,9C 43.4884,8.8195 45.4884,8.98617 47.5,9.5 Z"/></g>
<g><path style="opacity:1" fill="#04870b" d="M 54.5,11.5 C 55.1667,11.5 55.8333,11.5 56.5,11.5C 56.8333,11.5 57.1667,11.5 57.5,11.5C 57.5,12.1667 57.8333,12.5 58.5,12.5C 59.397,13.5981 60.2303,13.5981 61,12.5C 61.4643,13.0944 61.631,13.7611 61.5,14.5C 61.1667,14.5 60.8333,14.5 60.5,14.5C 59.7611,14.369 59.0944,14.5357 58.5,15C 59.7101,16.0391 60.7101,17.2058 61.5,18.5C 59.8333,18.5 58.1667,18.5 56.5,18.5C 47.0106,18.2051 38.344,20.7051 30.5,26C 28.5359,27.451 27.2026,29.2843 26.5,31.5C 26.2671,33.0618 25.6005,34.3951 24.5,35.5C 23.5386,33.7354 23.2053,31.7354 23.5,29.5C 23.6036,27.2972 24.2702,25.2972 25.5,23.5C 31.9856,22.7608 37.9856,20.5941 43.5,17C 48.1998,16.3294 52.8664,15.4961 57.5,14.5C 56.6602,13.265 55.6602,12.265 54.5,11.5 Z"/></g>
<g><path style="opacity:0.984" fill="#48c560" d="M 60.5,14.5 C 60.8333,15.8333 61.1667,15.8333 61.5,14.5C 62.8734,14.3433 64.2068,14.51 65.5,15C 63.4049,15.5556 63.2382,16.0556 65,16.5C 67.8385,15.1088 70.3385,15.6088 72.5,18C 74.8089,20.4866 77.4756,22.4866 80.5,24C 80.1667,24.3333 79.8333,24.6667 79.5,25C 80.7101,26.0391 81.7101,27.2058 82.5,28.5C 80.0786,26.7622 77.4119,25.4289 74.5,24.5C 71.0763,20.6227 66.743,18.6227 61.5,18.5C 60.7101,17.2058 59.7101,16.0391 58.5,15C 59.0944,14.5357 59.7611,14.369 60.5,14.5 Z"/></g>
<g><path style="opacity:0.997" fill="#03a20e" d="M 42.5,10.5 C 42.8333,10.5 43.1667,10.5 43.5,10.5C 47.3714,10.185 51.0381,10.5184 54.5,11.5C 55.6602,12.265 56.6602,13.265 57.5,14.5C 52.8664,15.4961 48.1998,16.3294 43.5,17C 37.9856,20.5941 31.9856,22.7608 25.5,23.5C 25.5,23.1667 25.5,22.8333 25.5,22.5C 25.5,22.1667 25.5,21.8333 25.5,21.5C 26.1667,21.5 26.5,21.1667 26.5,20.5C 27.1667,20.5 27.5,20.1667 27.5,19.5C 27.8333,19.5 28.1667,19.5 28.5,19.5C 31.7379,18.3668 35.0712,17.5334 38.5,17C 39.965,15.2258 41.2983,13.3925 42.5,11.5C 42.5,11.1667 42.5,10.8333 42.5,10.5 Z"/></g>
<g><path style="opacity:1" fill="#015807" d="M 56.5,18.5 C 62.4207,19.9703 67.5873,22.9703 72,27.5C 72.765,29.0657 72.5983,30.3991 71.5,31.5C 70.1667,30.5 68.8333,29.5 67.5,28.5C 65.6597,26.3311 63.3263,24.9977 60.5,24.5C 58.8516,23.0735 56.8516,22.2401 54.5,22C 45.1823,19.8352 37.1823,22.0019 30.5,28.5C 29.1667,29.1667 28.1667,30.1667 27.5,31.5C 27.1667,31.5 26.8333,31.5 26.5,31.5C 27.2026,29.2843 28.5359,27.451 30.5,26C 38.344,20.7051 47.0106,18.2051 56.5,18.5 Z"/></g>
<g><path style="opacity:1" fill="#02770a" d="M 56.5,18.5 C 58.1667,18.5 59.8333,18.5 61.5,18.5C 66.743,18.6227 71.0763,20.6227 74.5,24.5C 75.1098,25.391 75.4431,26.391 75.5,27.5C 76.2186,29.7638 76.552,32.0971 76.5,34.5C 75.8333,35.1667 75.1667,35.8333 74.5,36.5C 73.9744,34.7697 72.9744,33.4363 71.5,32.5C 71.5,32.1667 71.5,31.8333 71.5,31.5C 72.5983,30.3991 72.765,29.0657 72,27.5C 67.5873,22.9703 62.4207,19.9703 56.5,18.5 Z"/></g>
<g><path style="opacity:1" fill="#35e47b" d="M 60.5,24.5 C 56.758,23.7257 54.258,25.059 53,28.5C 51.8139,26.3234 49.9806,25.3234 47.5,25.5C 45.3037,25.41 43.137,25.0767 41,24.5C 37.1903,25.1741 33.6903,26.5075 30.5,28.5C 37.1823,22.0019 45.1823,19.8352 54.5,22C 56.8516,22.2401 58.8516,23.0735 60.5,24.5 Z"/></g>
<g><path style="opacity:1" fill="#53e68f" d="M 47.5,25.5 C 51.3452,27.6027 52.3452,30.6027 50.5,34.5C 47.9879,26.9168 43.4879,25.5835 37,30.5C 34.9629,36.187 36.7962,38.8536 42.5,38.5C 40.7354,39.4614 38.7354,39.7947 36.5,39.5C 34.6878,37.5395 33.6878,35.2061 33.5,32.5C 31.5165,32.3832 29.8498,33.0499 28.5,34.5C 27.6143,33.675 27.281,32.675 27.5,31.5C 28.1667,30.1667 29.1667,29.1667 30.5,28.5C 33.6903,26.5075 37.1903,25.1741 41,24.5C 43.137,25.0767 45.3037,25.41 47.5,25.5 Z"/></g>
<g><path style="opacity:1" fill="#47e281" d="M 60.5,24.5 C 63.3263,24.9977 65.6597,26.3311 67.5,28.5C 65.0367,27.7674 62.7033,26.7674 60.5,25.5C 59.8333,25.8333 59.1667,26.1667 58.5,26.5C 60.2776,28.264 61.6109,30.264 62.5,32.5C 62.5,33.1667 62.5,33.8333 62.5,34.5C 57.8294,30.2201 54.1628,31.0534 51.5,37C 48.6907,38.0934 46.024,39.2601 43.5,40.5C 40.9407,40.8016 38.6074,40.4682 36.5,39.5C 38.7354,39.7947 40.7354,39.4614 42.5,38.5C 45.5447,37.7206 48.2114,36.3873 50.5,34.5C 52.3452,30.6027 51.3452,27.6027 47.5,25.5C 49.9806,25.3234 51.8139,26.3234 53,28.5C 54.258,25.059 56.758,23.7257 60.5,24.5 Z"/></g>
<g><path style="opacity:0.995" fill="#35d95b" d="M 74.5,24.5 C 77.4119,25.4289 80.0786,26.7622 82.5,28.5C 83.8943,30.9514 84.7276,33.6181 85,36.5C 85.3333,34.8333 85.6667,33.1667 86,31.5C 86.2511,33.433 86.7511,35.2663 87.5,37C 86.8333,37.3333 86.1667,37.6667 85.5,38C 88.0226,39.3597 90.0226,41.193 91.5,43.5C 91.5,44.1667 91.5,44.8333 91.5,45.5C 89.8448,43.014 87.6781,41.014 85,39.5C 84.5,39.8333 84,40.1667 83.5,40.5C 84.7053,41.9948 84.7053,43.3281 83.5,44.5C 80.6297,41.4483 79.963,37.9483 81.5,34C 79.9588,32.4207 78.7922,30.5873 78,28.5C 77.3292,27.7476 76.4959,27.4142 75.5,27.5C 75.4431,26.391 75.1098,25.391 74.5,24.5 Z"/></g>
<g><path style="opacity:1" fill="#39dd70" d="M 62.5,34.5 C 63.0786,36.8671 64.412,38.7005 66.5,40C 64.8659,40.4935 63.1992,40.6602 61.5,40.5C 60.7659,39.2921 60.4326,37.9587 60.5,36.5C 59.1779,36.67 58.0113,36.3366 57,35.5C 56.6667,36.1667 56.3333,36.8333 56,37.5C 55.6667,36.1667 55.3333,34.8333 55,33.5C 54.0617,35.4885 53.2283,37.4885 52.5,39.5C 49.4824,39.7038 46.4824,40.0371 43.5,40.5C 46.024,39.2601 48.6907,38.0934 51.5,37C 54.1628,31.0534 57.8294,30.2201 62.5,34.5 Z"/></g>
<g><path style="opacity:1" fill="#1cbc36" d="M 75.5,27.5 C 76.4959,27.4142 77.3292,27.7476 78,28.5C 78.7922,30.5873 79.9588,32.4207 81.5,34C 79.963,37.9483 80.6297,41.4483 83.5,44.5C 83.7692,48.4735 84.9359,52.1402 87,55.5C 87.3333,54.8333 87.6667,54.1667 88,53.5C 88.4169,54.756 89.2502,55.4226 90.5,55.5C 90.5,56.1667 90.5,56.8333 90.5,57.5C 89.8333,57.5 89.5,57.8333 89.5,58.5C 88.8333,58.5 88.5,58.8333 88.5,59.5C 88.1667,59.5 87.8333,59.5 87.5,59.5C 85.8762,59.6399 84.7096,58.9733 84,57.5C 81.0202,50.0592 78.5202,42.3925 76.5,34.5C 76.552,32.0971 76.2186,29.7638 75.5,27.5 Z"/></g>
<g><path style="opacity:1" fill="#81e9a4" d="M 50.5,34.5 C 48.2114,36.3873 45.5447,37.7206 42.5,38.5C 36.7962,38.8536 34.9629,36.187 37,30.5C 43.4879,25.5835 47.9879,26.9168 50.5,34.5 Z"/></g>
<g><path style="opacity:1" fill="#5ad880" d="M 67.5,28.5 C 68.8333,29.5 70.1667,30.5 71.5,31.5C 71.5,31.8333 71.5,32.1667 71.5,32.5C 71.5,34.5 71.5,36.5 71.5,38.5C 67.6834,37.6765 64.6834,35.6765 62.5,32.5C 61.6109,30.264 60.2776,28.264 58.5,26.5C 59.1667,26.1667 59.8333,25.8333 60.5,25.5C 62.7033,26.7674 65.0367,27.7674 67.5,28.5 Z"/></g>
<g><path style="opacity:0.012" fill="#439073" d="M 11.5,37.5 C 11.5,37.8333 11.5,38.1667 11.5,38.5C 10.8333,38.5 10.5,38.8333 10.5,39.5C 9.24258,38.3774 9.57591,37.7107 11.5,37.5 Z"/></g>
<g><path style="opacity:1" fill="#36dd71" d="M 26.5,31.5 C 26.8333,31.5 27.1667,31.5 27.5,31.5C 27.281,32.675 27.6143,33.675 28.5,34.5C 29.8498,33.0499 31.5165,32.3832 33.5,32.5C 33.6878,35.2061 34.6878,37.5395 36.5,39.5C 38.6074,40.4682 40.9407,40.8016 43.5,40.5C 46.4824,40.0371 49.4824,39.7038 52.5,39.5C 52.5,39.8333 52.5,40.1667 52.5,40.5C 51.209,40.2627 50.209,40.596 49.5,41.5C 40.7215,42.4382 32.0548,42.4382 23.5,41.5C 23.5,40.5 23.5,39.5 23.5,38.5C 23.5569,37.391 23.8902,36.391 24.5,35.5C 25.6005,34.3951 26.2671,33.0618 26.5,31.5 Z"/></g>
<g><path style="opacity:1" fill="#23d154" d="M 61.5,40.5 C 62.1667,41.5 62.8333,42.5 63.5,43.5C 62.2264,44.1894 62.2264,45.0228 63.5,46C 61.6854,46.7568 60.0188,47.5902 58.5,48.5C 58.1667,48.5 57.8333,48.5 57.5,48.5C 57.1667,48.5 56.8333,48.5 56.5,48.5C 55.2842,46.5491 53.6175,45.0491 51.5,44C 53.3115,42.9593 53.6448,41.7927 52.5,40.5C 52.5,40.1667 52.5,39.8333 52.5,39.5C 53.2283,37.4885 54.0617,35.4885 55,33.5C 55.3333,34.8333 55.6667,36.1667 56,37.5C 56.3333,36.8333 56.6667,36.1667 57,35.5C 58.0113,36.3366 59.1779,36.67 60.5,36.5C 60.4326,37.9587 60.7659,39.2921 61.5,40.5 Z"/></g>
<g><path style="opacity:1" fill="#3bc95e" d="M 62.5,32.5 C 64.6834,35.6765 67.6834,37.6765 71.5,38.5C 71.5,36.5 71.5,34.5 71.5,32.5C 72.9744,33.4363 73.9744,34.7697 74.5,36.5C 74.5,36.8333 74.5,37.1667 74.5,37.5C 74.5,39.1667 74.5,40.8333 74.5,42.5C 70.8212,42.7244 67.1545,43.0578 63.5,43.5C 62.8333,42.5 62.1667,41.5 61.5,40.5C 63.1992,40.6602 64.8659,40.4935 66.5,40C 64.412,38.7005 63.0786,36.8671 62.5,34.5C 62.5,33.8333 62.5,33.1667 62.5,32.5 Z"/></g>
<g><path style="opacity:0.012" fill="#5cff8d" d="M 7.5,43.5 C 6.66175,43.8417 6.32842,44.5084 6.5,45.5C 6.16667,45.5 5.83333,45.5 5.5,45.5C 5.31181,43.8967 5.81181,42.5634 7,41.5C 7.46434,42.0944 7.63101,42.7611 7.5,43.5 Z"/></g>
<g><path style="opacity:0.012" fill="#3fcc82" d="M 93.5,45.5 C 93.1667,45.5 92.8333,45.5 92.5,45.5C 92.6716,44.5084 92.3382,43.8417 91.5,43.5C 91.369,42.7611 91.5357,42.0944 92,41.5C 93.1882,42.5634 93.6882,43.8967 93.5,45.5 Z"/></g>
<g><path style="opacity:1" fill="#42e265" d="M 28.5,17.5 C 28.5,17.8333 28.5,18.1667 28.5,18.5C 27.8333,18.5 27.5,18.8333 27.5,19.5C 26.8333,19.5 26.5,19.8333 26.5,20.5C 25.8333,20.5 25.5,20.8333 25.5,21.5C 24.8333,21.5 24.5,21.8333 24.5,22.5C 23.8333,22.5 23.5,22.8333 23.5,23.5C 19.0363,27.0135 16.5363,31.6802 16,37.5C 14.0655,40.3707 12.3988,43.3707 11,46.5C 10.6667,46.1667 10.3333,45.8333 10,45.5C 9.18405,46.8228 8.01739,47.4894 6.5,47.5C 6.5,46.8333 6.5,46.1667 6.5,45.5C 7.33825,45.1583 7.67158,44.4916 7.5,43.5C 8.48837,42.205 9.48837,40.8717 10.5,39.5C 11.1667,39.5 11.5,39.1667 11.5,38.5C 14.1667,38.1667 14.1667,37.8333 11.5,37.5C 12.1847,35.5856 12.6847,33.5856 13,31.5C 13.6667,38.1667 14.3333,38.1667 15,31.5C 15.8834,28.8976 17.3834,26.7309 19.5,25C 19.1667,24.6667 18.8333,24.3333 18.5,24C 22.0035,21.9778 25.3368,19.8112 28.5,17.5 Z"/></g>
<g><path style="opacity:1" fill="#19b832" d="M 20.5,30.5 C 19.8333,36.8333 19.1667,43.1667 18.5,49.5C 17.3592,52.6399 17.1925,55.9733 18,59.5C 20.0921,63.1968 21.2588,67.1968 21.5,71.5C 19.7839,71.3713 18.1172,71.038 16.5,70.5C 16.5,69.8333 16.1667,69.5 15.5,69.5C 15.6716,68.5084 15.3382,67.8417 14.5,67.5C 14.1667,59.5 13.8333,59.5 13.5,67.5C 12.9265,65.2121 11.9265,63.0454 10.5,61C 10.8333,60.6667 11.1667,60.3333 11.5,60C 10.2899,58.9609 9.2899,57.7942 8.5,56.5C 10.4352,57.1495 12.4352,57.4828 14.5,57.5C 16.4432,49.2805 17.9432,40.9472 19,32.5C 19.2784,31.5842 19.7784,30.9175 20.5,30.5 Z"/></g>
<g><path style="opacity:1" fill="#139b25" d="M 76.5,34.5 C 78.5202,42.3925 81.0202,50.0592 84,57.5C 84.7096,58.9733 85.8762,59.6399 87.5,59.5C 87.5,60.1667 87.8333,60.5 88.5,60.5C 87.1311,62.7323 86.1311,65.0656 85.5,67.5C 85.1667,59.5 84.8333,59.5 84.5,67.5C 83.6618,67.8417 83.3284,68.5084 83.5,69.5C 82.8333,69.5 82.5,69.8333 82.5,70.5C 82.4044,65.368 82.2377,60.0347 82,54.5C 81.4389,52.2746 80.4389,50.2746 79,48.5C 78.79,50.0581 78.29,51.3915 77.5,52.5C 77.5,51.8333 77.5,51.1667 77.5,50.5C 77.7359,47.3915 77.4025,44.3915 76.5,41.5C 76.3404,39.847 75.6737,38.5137 74.5,37.5C 74.5,37.1667 74.5,36.8333 74.5,36.5C 75.1667,35.8333 75.8333,35.1667 76.5,34.5 Z"/></g>
<g><path style="opacity:1" fill="#22c045" d="M 74.5,37.5 C 75.6737,38.5137 76.3404,39.847 76.5,41.5C 75.7515,42.531 75.0848,43.6976 74.5,45C 69.5661,47.9383 64.2328,49.1049 58.5,48.5C 60.0188,47.5902 61.6854,46.7568 63.5,46C 62.2264,45.0228 62.2264,44.1894 63.5,43.5C 67.1545,43.0578 70.8212,42.7244 74.5,42.5C 74.5,40.8333 74.5,39.1667 74.5,37.5 Z"/></g>
<g><path style="opacity:1" fill="#18cc47" d="M 23.5,38.5 C 23.5,39.5 23.5,40.5 23.5,41.5C 24.3479,43.0931 25.6813,44.2597 27.5,45C 31.4682,45.2337 35.3015,46.067 39,47.5C 42.4507,45.4061 45.9507,43.4061 49.5,41.5C 50.209,40.596 51.209,40.2627 52.5,40.5C 53.6448,41.7927 53.3115,42.9593 51.5,44C 53.6175,45.0491 55.2842,46.5491 56.5,48.5C 54.0587,47.4434 51.7254,46.11 49.5,44.5C 47.0901,46.3716 44.4234,47.705 41.5,48.5C 40.8333,48.5 40.5,48.8333 40.5,49.5C 34.1899,51.619 28.5233,50.619 23.5,46.5C 22.5481,44.9547 22.2148,43.288 22.5,41.5C 22.2627,40.209 22.596,39.209 23.5,38.5 Z"/></g>
<g><path style="opacity:1" fill="#26d95f" d="M 49.5,41.5 C 45.9507,43.4061 42.4507,45.4061 39,47.5C 35.3015,46.067 31.4682,45.2337 27.5,45C 25.6813,44.2597 24.3479,43.0931 23.5,41.5C 32.0548,42.4382 40.7215,42.4382 49.5,41.5 Z"/></g>
<g><path style="opacity:0.012" fill="#25cd45" d="M 5.5,45.5 C 5.5,48.1667 5.5,50.8333 5.5,53.5C 4.16667,50.8333 4.16667,48.1667 5.5,45.5 Z"/></g>
<g><path style="opacity:0.012" fill="#1aa72e" d="M 93.5,45.5 C 94.8333,48.1667 94.8333,50.8333 93.5,53.5C 93.5,50.8333 93.5,48.1667 93.5,45.5 Z"/></g>
<g><path style="opacity:1" fill="#16a628" d="M 23.5,29.5 C 23.2053,31.7354 23.5386,33.7354 24.5,35.5C 23.8902,36.391 23.5569,37.391 23.5,38.5C 22.596,39.209 22.2627,40.209 22.5,41.5C 21.5269,43.9479 21.1936,46.6146 21.5,49.5C 21.5,49.8333 21.5,50.1667 21.5,50.5C 20.7321,49.7375 20.2321,48.7375 20,47.5C 19.5014,51.1516 19.3347,54.8183 19.5,58.5C 18.5233,55.7131 18.19,52.7131 18.5,49.5C 19.1667,43.1667 19.8333,36.8333 20.5,30.5C 21.609,30.4431 22.609,30.1098 23.5,29.5 Z"/></g>
<g><path style="opacity:1" fill="#15b735" d="M 76.5,41.5 C 77.4025,44.3915 77.7359,47.3915 77.5,50.5C 70.7275,50.2214 64.7275,52.2214 59.5,56.5C 58.914,56.2907 58.414,55.9574 58,55.5C 57.5034,53.1902 57.3367,50.8568 57.5,48.5C 57.8333,48.5 58.1667,48.5 58.5,48.5C 64.2328,49.1049 69.5661,47.9383 74.5,45C 75.0848,43.6976 75.7515,42.531 76.5,41.5 Z"/></g>
<g><path style="opacity:1" fill="#10c32e" d="M 24.5,22.5 C 24.8333,22.5 25.1667,22.5 25.5,22.5C 25.5,22.8333 25.5,23.1667 25.5,23.5C 24.2702,25.2972 23.6036,27.2972 23.5,29.5C 22.609,30.1098 21.609,30.4431 20.5,30.5C 19.7784,30.9175 19.2784,31.5842 19,32.5C 17.9432,40.9472 16.4432,49.2805 14.5,57.5C 12.4352,57.4828 10.4352,57.1495 8.5,56.5C 8.5,55.8333 8.16667,55.5 7.5,55.5C 7.67158,54.5084 7.33825,53.8417 6.5,53.5C 6.5,51.5 6.5,49.5 6.5,47.5C 8.01739,47.4894 9.18405,46.8228 10,45.5C 10.3333,45.8333 10.6667,46.1667 11,46.5C 12.3988,43.3707 14.0655,40.3707 16,37.5C 16.5363,31.6802 19.0363,27.0135 23.5,23.5C 24.1667,23.5 24.5,23.1667 24.5,22.5 Z"/></g>
<g><path style="opacity:1" fill="#0b9b20" d="M 56.5,48.5 C 56.8333,48.5 57.1667,48.5 57.5,48.5C 57.3367,50.8568 57.5034,53.1902 58,55.5C 58.414,55.9574 58.914,56.2907 59.5,56.5C 64.7275,52.2214 70.7275,50.2214 77.5,50.5C 77.5,51.1667 77.5,51.8333 77.5,52.5C 77.5,53.8333 77.5,55.1667 77.5,56.5C 71.3949,61.134 65.2282,61.4674 59,57.5C 58.5357,58.0944 58.369,58.7611 58.5,59.5C 55.8344,60.5071 52.6678,61.1737 49,61.5C 44.8528,60.8773 40.6861,60.5439 36.5,60.5C 37.5137,59.3263 38.847,58.6596 40.5,58.5C 46.2324,58.7168 51.899,58.2168 57.5,57C 56.7362,54.9307 56.2362,52.764 56,50.5C 54.082,49.4582 52.2487,48.2915 50.5,47C 48.0417,48.0381 45.3751,48.8714 42.5,49.5C 42.6633,51.8568 42.4966,54.1902 42,56.5C 41.5026,53.854 41.3359,51.1873 41.5,48.5C 44.4234,47.705 47.0901,46.3716 49.5,44.5C 51.7254,46.11 54.0587,47.4434 56.5,48.5 Z"/></g>
<g><path style="opacity:1" fill="#0fbf35" d="M 22.5,41.5 C 22.2148,43.288 22.5481,44.9547 23.5,46.5C 28.5233,50.619 34.1899,51.619 40.5,49.5C 40.5,52.5 40.5,55.5 40.5,58.5C 38.847,58.6596 37.5137,59.3263 36.5,60.5C 36.1667,60.5 35.8333,60.5 35.5,60.5C 34.6676,59.6715 35.001,58.8382 36.5,58C 35.354,57.3551 34.354,56.5217 33.5,55.5C 29.2643,53.921 25.2643,51.921 21.5,49.5C 21.1936,46.6146 21.5269,43.9479 22.5,41.5 Z"/></g>
<g><path style="opacity:1" fill="#0dad28" d="M 40.5,58.5 C 40.5,55.5 40.5,52.5 40.5,49.5C 40.5,48.8333 40.8333,48.5 41.5,48.5C 41.3359,51.1873 41.5026,53.854 42,56.5C 42.4966,54.1902 42.6633,51.8568 42.5,49.5C 45.3751,48.8714 48.0417,48.0381 50.5,47C 52.2487,48.2915 54.082,49.4582 56,50.5C 56.2362,52.764 56.7362,54.9307 57.5,57C 51.899,58.2168 46.2324,58.7168 40.5,58.5 Z"/></g>
<g><path style="opacity:0.992" fill="#0fd53e" d="M 91.5,45.5 C 91.8333,45.5 92.1667,45.5 92.5,45.5C 92.5,48.1667 92.5,50.8333 92.5,53.5C 91.6618,53.8417 91.3284,54.5084 91.5,55.5C 91.1667,55.5 90.8333,55.5 90.5,55.5C 89.2502,55.4226 88.4169,54.756 88,53.5C 87.6667,54.1667 87.3333,54.8333 87,55.5C 84.9359,52.1402 83.7692,48.4735 83.5,44.5C 84.7053,43.3281 84.7053,41.9948 83.5,40.5C 84,40.1667 84.5,39.8333 85,39.5C 87.6781,41.014 89.8448,43.014 91.5,45.5 Z"/></g>
<g><path style="opacity:0.012" fill="#00c500" d="M 5.5,53.5 C 5.83333,53.5 6.16667,53.5 6.5,53.5C 6.5,54.1667 6.5,54.8333 6.5,55.5C 5.66175,55.1583 5.32842,54.4916 5.5,53.5 Z"/></g>
<g><path style="opacity:1" fill="#199d29" d="M 21.5,50.5 C 21.33,51.8221 21.6634,52.9887 22.5,54C 25.8,56.6971 29.4667,58.8637 33.5,60.5C 32.6431,61.4252 31.6431,62.0919 30.5,62.5C 27.5691,60.9092 24.9024,58.9092 22.5,56.5C 22.1667,56.8333 21.8333,57.1667 21.5,57.5C 23.7113,61.6809 25.3779,66.0142 26.5,70.5C 25.9463,68.1112 24.4463,66.4445 22,65.5C 21.6207,62.9699 20.7874,60.6365 19.5,58.5C 19.3347,54.8183 19.5014,51.1516 20,47.5C 20.2321,48.7375 20.7321,49.7375 21.5,50.5 Z"/></g>
<g><path style="opacity:1" fill="#0eac28" d="M 21.5,49.5 C 25.2643,51.921 29.2643,53.921 33.5,55.5C 34.354,56.5217 35.354,57.3551 36.5,58C 35.001,58.8382 34.6676,59.6715 35.5,60.5C 34.6935,61.7281 33.6935,62.7281 32.5,63.5C 31.8333,63.5 31.5,63.8333 31.5,64.5C 30.8333,64.5 30.5,64.8333 30.5,65.5C 29.375,64.6522 29.375,63.6522 30.5,62.5C 31.6431,62.0919 32.6431,61.4252 33.5,60.5C 29.4667,58.8637 25.8,56.6971 22.5,54C 21.6634,52.9887 21.33,51.8221 21.5,50.5C 21.5,50.1667 21.5,49.8333 21.5,49.5 Z"/></g>
<g><path style="opacity:0.012" fill="#03c524" d="M 92.5,53.5 C 92.8333,53.5 93.1667,53.5 93.5,53.5C 93.6716,54.4916 93.3382,55.1583 92.5,55.5C 92.5,54.8333 92.5,54.1667 92.5,53.5 Z"/></g>
<g><path style="opacity:0.004" fill="#00db00" d="M 6.5,55.5 C 6.83333,55.5 7.16667,55.5 7.5,55.5C 7.16667,58.1667 6.83333,58.1667 6.5,55.5 Z"/></g>
<g><path style="opacity:0.004" fill="#15330f" d="M 91.5,55.5 C 91.8333,55.5 92.1667,55.5 92.5,55.5C 92.6716,56.4916 92.3382,57.1583 91.5,57.5C 91.5,56.8333 91.5,56.1667 91.5,55.5 Z"/></g>
<g><path style="opacity:0.008" fill="#007f00" d="M 90.5,57.5 C 90.8333,57.5 91.1667,57.5 91.5,57.5C 91.3147,58.1701 90.9813,58.1701 90.5,57.5 Z"/></g>
<g><path style="opacity:0.012" fill="#005500" d="M 89.5,58.5 C 89.8333,58.5 90.1667,58.5 90.5,58.5C 90.3147,59.1701 89.9813,59.1701 89.5,58.5 Z"/></g>
<g><path style="opacity:0.016" fill="#007f00" d="M 88.5,59.5 C 88.8333,59.5 89.1667,59.5 89.5,59.5C 89.3147,60.1701 88.9813,60.1701 88.5,59.5 Z"/></g>
<g><path style="opacity:1" fill="#1fa631" d="M 18.5,49.5 C 18.19,52.7131 18.5233,55.7131 19.5,58.5C 20.7874,60.6365 21.6207,62.9699 22,65.5C 24.4463,66.4445 25.9463,68.1112 26.5,70.5C 27.1667,71.1667 27.8333,71.8333 28.5,72.5C 28.427,74.0269 29.0937,75.0269 30.5,75.5C 30.7031,77.0443 31.3698,78.3777 32.5,79.5C 38.8856,82.122 45.5523,83.122 52.5,82.5C 47.9063,82.8651 43.573,83.8651 39.5,85.5C 38.7784,85.0825 38.2784,84.4158 38,83.5C 37.6667,84.1667 37.3333,84.8333 37,85.5C 35.2663,84.7511 33.433,84.2511 31.5,84C 32.8333,83.6667 34.1667,83.3333 35.5,83C 32.7724,81.9138 30.1057,81.5804 27.5,82C 27.6192,80.7188 27.1192,79.5521 26,78.5C 24.0573,78.9589 22.724,77.9589 22,75.5C 20.1291,76.6678 18.6291,76.1678 17.5,74C 17.8333,73.6667 18.1667,73.3333 18.5,73C 17.6195,72.2917 16.9528,71.4584 16.5,70.5C 18.1172,71.038 19.7839,71.3713 21.5,71.5C 21.2588,67.1968 20.0921,63.1968 18,59.5C 17.1925,55.9733 17.3592,52.6399 18.5,49.5 Z"/></g>
<g><path style="opacity:1" fill="#088e18" d="M 58.5,59.5 C 59.4793,60.7653 60.4793,62.0986 61.5,63.5C 51.848,64.3645 42.1813,64.3645 32.5,63.5C 33.6935,62.7281 34.6935,61.7281 35.5,60.5C 35.8333,60.5 36.1667,60.5 36.5,60.5C 40.6861,60.5439 44.8528,60.8773 49,61.5C 52.6678,61.1737 55.8344,60.5071 58.5,59.5 Z"/></g>
<g><path style="opacity:1" fill="#0a8618" d="M 77.5,56.5 C 76.2311,61.4006 73.5644,65.0673 69.5,67.5C 67.1386,66.5652 64.9719,65.2318 63,63.5C 62.5304,64.5768 62.6971,65.5768 63.5,66.5C 52.7702,66.7073 42.1035,66.0406 31.5,64.5C 31.5,63.8333 31.8333,63.5 32.5,63.5C 42.1813,64.3645 51.848,64.3645 61.5,63.5C 60.4793,62.0986 59.4793,60.7653 58.5,59.5C 58.369,58.7611 58.5357,58.0944 59,57.5C 65.2282,61.4674 71.3949,61.134 77.5,56.5 Z"/></g>
<g><path style="opacity:1" fill="#087f15" d="M 30.5,65.5 C 30.5,64.8333 30.8333,64.5 31.5,64.5C 42.1035,66.0406 52.7702,66.7073 63.5,66.5C 64.1667,66.5 64.5,66.8333 64.5,67.5C 53.0597,69.0495 41.7263,68.3829 30.5,65.5 Z"/></g>
<g><path style="opacity:1" fill="#0d7c17" d="M 30.5,62.5 C 29.375,63.6522 29.375,64.6522 30.5,65.5C 41.7263,68.3829 53.0597,69.0495 64.5,67.5C 64.8333,67.5 65.1667,67.5 65.5,67.5C 65.3893,68.1174 65.056,68.6174 64.5,69C 60.5408,69.8265 56.5408,70.3265 52.5,70.5C 44.4734,69.4853 36.4734,68.4853 28.5,67.5C 28.5,69.1667 28.5,70.8333 28.5,72.5C 27.8333,71.8333 27.1667,71.1667 26.5,70.5C 25.3779,66.0142 23.7113,61.6809 21.5,57.5C 21.8333,57.1667 22.1667,56.8333 22.5,56.5C 24.9024,58.9092 27.5691,60.9092 30.5,62.5 Z"/></g>
<g><path style="opacity:0.008" fill="#1cfe76" d="M 13.5,67.5 C 13.8333,67.5 14.1667,67.5 14.5,67.5C 14.5,68.1667 14.5,68.8333 14.5,69.5C 13.6618,69.1583 13.3284,68.4916 13.5,67.5 Z"/></g>
<g><path style="opacity:0.008" fill="#07ed66" d="M 84.5,67.5 C 84.8333,67.5 85.1667,67.5 85.5,67.5C 85.6716,68.4916 85.3382,69.1583 84.5,69.5C 84.5,68.8333 84.5,68.1667 84.5,67.5 Z"/></g>
<g><path style="opacity:0.012" fill="#00aa00" d="M 83.5,69.5 C 83.8333,69.5 84.1667,69.5 84.5,69.5C 84.3147,70.1701 83.9813,70.1701 83.5,69.5 Z"/></g>
<g><path style="opacity:0.004" fill="#163720" d="M 14.5,69.5 C 14.8333,69.5 15.1667,69.5 15.5,69.5C 15.1667,72.1667 14.8333,72.1667 14.5,69.5 Z"/></g>
<g><path style="opacity:1" fill="#0c6f14" d="M 65.5,67.5 C 69.6282,68.8814 69.9615,70.2147 66.5,71.5C 55.7543,74.3121 45.0877,73.9788 34.5,70.5C 33.0518,72.3618 31.3852,73.0284 29.5,72.5C 30.1272,73.4168 30.4606,74.4168 30.5,75.5C 29.0937,75.0269 28.427,74.0269 28.5,72.5C 28.5,70.8333 28.5,69.1667 28.5,67.5C 36.4734,68.4853 44.4734,69.4853 52.5,70.5C 56.5408,70.3265 60.5408,69.8265 64.5,69C 65.056,68.6174 65.3893,68.1174 65.5,67.5 Z"/></g>
<g><path style="opacity:1" fill="#096510" d="M 66.5,71.5 C 63.1487,73.7734 59.4821,75.6068 55.5,77C 47.4089,78.3772 39.7422,77.2106 32.5,73.5C 31.537,73.9698 31.537,74.6365 32.5,75.5C 31.8333,75.5 31.1667,75.5 30.5,75.5C 30.4606,74.4168 30.1272,73.4168 29.5,72.5C 31.3852,73.0284 33.0518,72.3618 34.5,70.5C 45.0877,73.9788 55.7543,74.3121 66.5,71.5 Z"/></g>
<g><path style="opacity:0.008" fill="#00ff00" d="M 81.5,72.5 C 81.8333,72.5 82.1667,72.5 82.5,72.5C 82.3147,73.1701 81.9813,73.1701 81.5,72.5 Z"/></g>
<g><path style="opacity:1" fill="#06550c" d="M 69.5,67.5 C 70.7387,68.212 71.2387,69.212 71,70.5C 67.031,73.8893 62.8643,76.8893 58.5,79.5C 58.1667,79.5 57.8333,79.5 57.5,79.5C 48.7332,80.4377 40.3999,79.1044 32.5,75.5C 31.537,74.6365 31.537,73.9698 32.5,73.5C 39.7422,77.2106 47.4089,78.3772 55.5,77C 59.4821,75.6068 63.1487,73.7734 66.5,71.5C 69.9615,70.2147 69.6282,68.8814 65.5,67.5C 65.1667,67.5 64.8333,67.5 64.5,67.5C 64.5,66.8333 64.1667,66.5 63.5,66.5C 62.6971,65.5768 62.5304,64.5768 63,63.5C 64.9719,65.2318 67.1386,66.5652 69.5,67.5 Z"/></g>
<g><path style="opacity:1" fill="#0a6d13" d="M 82.5,70.5 C 82.8333,70.5 83.1667,70.5 83.5,70.5C 83.6716,71.4916 83.3382,72.1583 82.5,72.5C 82.1667,71.1667 81.8333,71.1667 81.5,72.5C 80.1667,72.8333 80.1667,73.1667 81.5,73.5C 80.5009,76.1741 78.8342,76.8408 76.5,75.5C 76.1667,75.5 75.8333,75.5 75.5,75.5C 75.1667,75.5 74.8333,75.5 74.5,75.5C 75.4731,73.9317 75.6397,72.265 75,70.5C 70.5301,75.4878 65.0301,78.4878 58.5,79.5C 62.8643,76.8893 67.031,73.8893 71,70.5C 71.2387,69.212 70.7387,68.212 69.5,67.5C 73.5644,65.0673 76.2311,61.4006 77.5,56.5C 77.5,55.1667 77.5,53.8333 77.5,52.5C 78.29,51.3915 78.79,50.0581 79,48.5C 80.4389,50.2746 81.4389,52.2746 82,54.5C 82.2377,60.0347 82.4044,65.368 82.5,70.5 Z"/></g>
<g><path style="opacity:0.008" fill="#7e7f7e" d="M 72.5,79.5 C 72.8333,79.5 73.1667,79.5 73.5,79.5C 73.3147,80.1701 72.9813,80.1701 72.5,79.5 Z"/></g>
<g><path style="opacity:1" fill="#078416" d="M 30.5,75.5 C 31.1667,75.5 31.8333,75.5 32.5,75.5C 40.3999,79.1044 48.7332,80.4377 57.5,79.5C 56.0867,80.9348 54.42,81.9348 52.5,82.5C 45.5523,83.122 38.8856,82.122 32.5,79.5C 31.3698,78.3777 30.7031,77.0443 30.5,75.5 Z"/></g>
<g><path style="opacity:0.537" fill="#19a22a" d="M 74.5,75.5 C 74.8333,76.8333 75.1667,76.8333 75.5,75.5C 75.8333,75.5 76.1667,75.5 76.5,75.5C 76.2624,77.4044 75.2624,78.7377 73.5,79.5C 73.1667,78.1667 72.8333,78.1667 72.5,79.5C 71.1667,79.8333 71.1667,80.1667 72.5,80.5C 72.0269,81.9063 71.0269,82.573 69.5,82.5C 68.8333,81.1667 68.1667,81.1667 67.5,82.5C 63.1074,82.4568 62.7741,82.9568 66.5,84C 64.7525,84.3519 63.0858,84.8519 61.5,85.5C 61.5,84.8333 61.5,84.1667 61.5,83.5C 62.8333,83.1667 62.8333,82.8333 61.5,82.5C 58.7484,82.2382 55.7484,82.2382 52.5,82.5C 54.42,81.9348 56.0867,80.9348 57.5,79.5C 57.8333,79.5 58.1667,79.5 58.5,79.5C 65.0301,78.4878 70.5301,75.4878 75,70.5C 75.6397,72.265 75.4731,73.9317 74.5,75.5 Z"/></g>
<g><path style="opacity:0.008" fill="#00e100" d="M 67.5,82.5 C 68.1667,82.5 68.8333,82.5 69.5,82.5C 68.8333,83.8333 68.1667,83.8333 67.5,82.5 Z"/></g>
<g><path style="opacity:0.996" fill="#0db429" d="M 61.5,82.5 C 61.5,82.8333 61.5,83.1667 61.5,83.5C 60.6618,83.8417 60.3284,84.5084 60.5,85.5C 59.8333,85.5 59.5,85.8333 59.5,86.5C 58.8333,86.5 58.5,86.8333 58.5,87.5C 57.1667,87.8333 57.1667,88.1667 58.5,88.5C 53.3256,93.1327 47.6589,93.6327 41.5,90C 41.8363,88.371 41.1696,86.871 39.5,85.5C 43.573,83.8651 47.9063,82.8651 52.5,82.5C 55.7484,82.2382 58.7484,82.2382 61.5,82.5 Z"/></g>
<g><path style="opacity:0.012" fill="#00ff54" d="M 60.5,85.5 C 60.8333,85.5 61.1667,85.5 61.5,85.5C 61.3147,86.1701 60.9813,86.1701 60.5,85.5 Z"/></g>
<g><path style="opacity:0.012" fill="#005500" d="M 59.5,86.5 C 59.8333,86.5 60.1667,86.5 60.5,86.5C 60.3147,87.1701 59.9813,87.1701 59.5,86.5 Z"/></g>
<g><path style="opacity:0.008" fill="#00ff00" d="M 58.5,87.5 C 58.8333,87.5 59.1667,87.5 59.5,87.5C 59.3147,88.1701 58.9813,88.1701 58.5,87.5 Z"/></g>
</svg>
