<?xml version="1.0" encoding="UTF-8"?>
<!DOCTYPE svg PUBLIC "-//W3C//DTD SVG 1.1//EN" "http://www.w3.org/Graphics/SVG/1.1/DTD/svg11.dtd">
<svg xmlns="http://www.w3.org/2000/svg" version="1.1" width="100px" height="100px" style="shape-rendering:geometricPrecision; text-rendering:geometricPrecision; image-rendering:optimizeQuality; fill-rule:evenodd; clip-rule:evenodd" xmlns:xlink="http://www.w3.org/1999/xlink">
<g><path style="opacity:0.243" fill="#7ee2b8" d="M 76.5,6.5 C 75.8333,6.5 75.5,6.83333 75.5,7.5C 71.5,7.5 67.5,7.5 63.5,7.5C 62.1667,9.5 60.5,11.1667 58.5,12.5C 58.8588,10.629 59.8588,9.12901 61.5,8C 60.6548,6.44185 61.3215,5.44185 63.5,5C 67.5,4.33333 71.5,4.33333 75.5,5C 76.056,5.38258 76.3893,5.88258 76.5,6.5 Z"/></g>
<g><path style="opacity:0.988" fill="#3edb8f" d="M 76.5,6.5 C 79.6382,6.91627 82.6382,7.08294 85.5,7C 86.2886,9.70851 87.9553,12.2085 90.5,14.5C 90.5,15.1667 90.8333,15.5 91.5,15.5C 91.8333,16.8333 92.1667,18.1667 92.5,19.5C 91.5,19.5 90.5,19.5 89.5,19.5C 85.1667,16.1667 80.8333,12.8333 76.5,9.5C 76.1667,8.83333 75.8333,8.16667 75.5,7.5C 76.1667,7.5 76.5,7.16667 76.5,6.5 Z"/></g>
<g><path style="opacity:1" fill="#12b540" d="M 63.5,7.5 C 67.5,7.5 71.5,7.5 75.5,7.5C 75.8333,8.16667 76.1667,8.83333 76.5,9.5C 74.8853,11.3742 72.8853,12.7075 70.5,13.5C 66.8455,13.9422 63.1788,14.2756 59.5,14.5C 59.1667,14.5 58.8333,14.5 58.5,14.5C 58.5,13.8333 58.5,13.1667 58.5,12.5C 60.5,11.1667 62.1667,9.5 63.5,7.5 Z"/></g>
<g><path style="opacity:0.008" fill="#62f07f" d="M 57.5,14.5 C 56.4017,13.3991 56.235,12.0657 57,10.5C 57.49,11.7932 57.6567,13.1266 57.5,14.5 Z"/></g>
<g><path style="opacity:0.004" fill="#54da57" d="M 91.5,15.5 C 90.8333,15.5 90.5,15.1667 90.5,14.5C 90.7467,12.0248 91.4134,12.0248 92.5,14.5C 92.3764,15.1067 92.0431,15.44 91.5,15.5 Z"/></g>
<g><path style="opacity:1" fill="#308c2e" d="M 70.5,13.5 C 69.3157,14.6879 69.3157,15.8545 70.5,17C 67.1694,17.0794 64.1694,17.9127 61.5,19.5C 61.631,18.7611 61.4643,18.0944 61,17.5C 60.6667,18.8333 60.3333,20.1667 60,21.5C 59.6162,18.9398 58.7829,16.6064 57.5,14.5C 57.8333,14.5 58.1667,14.5 58.5,14.5C 58.8333,15.8333 59.1667,15.8333 59.5,14.5C 63.1788,14.2756 66.8455,13.9422 70.5,13.5 Z"/></g>
<g><path style="opacity:1" fill="#148d2b" d="M 76.5,9.5 C 76.5,10.8333 76.5,12.1667 76.5,13.5C 75.791,14.404 74.791,14.7373 73.5,14.5C 73.5,15.8333 73.5,17.1667 73.5,18.5C 73.1699,21.1094 71.6699,22.7761 69,23.5C 68.3448,25.6284 67.5114,27.6284 66.5,29.5C 65.5,28.8333 64.5,28.1667 63.5,27.5C 63.5,27.1667 63.5,26.8333 63.5,26.5C 63.5,26.1667 63.5,25.8333 63.5,25.5C 63.5,25.1667 63.5,24.8333 63.5,24.5C 64.8333,23.8333 64.8333,23.1667 63.5,22.5C 63.1667,22.5 62.8333,22.5 62.5,22.5C 61.8902,21.609 61.5569,20.609 61.5,19.5C 64.1694,17.9127 67.1694,17.0794 70.5,17C 69.3157,15.8545 69.3157,14.6879 70.5,13.5C 72.8853,12.7075 74.8853,11.3742 76.5,9.5 Z"/></g>
<g><path style="opacity:1" fill="#11c76c" d="M 76.5,13.5 C 78.0838,16.4256 80.0838,19.0922 82.5,21.5C 82.6716,22.4916 82.3382,23.1583 81.5,23.5C 78.3189,22.6515 75.6523,20.9848 73.5,18.5C 73.5,17.1667 73.5,15.8333 73.5,14.5C 74.791,14.7373 75.791,14.404 76.5,13.5 Z"/></g>
<g><path style="opacity:1" fill="#07bd49" d="M 76.5,9.5 C 80.8333,12.8333 85.1667,16.1667 89.5,19.5C 87.2854,20.2679 84.9521,20.9346 82.5,21.5C 80.0838,19.0922 78.0838,16.4256 76.5,13.5C 76.5,12.1667 76.5,10.8333 76.5,9.5 Z"/></g>
<g><path style="opacity:0.012" fill="#ffeddb" d="M 46.5,22.5 C 50.3112,21.3547 54.3112,21.1881 58.5,22C 54.5138,22.4988 50.5138,22.6655 46.5,22.5 Z"/></g>
<g><path style="opacity:0.008" fill="#2e8e51" d="M 93.5,22.5 C 93.3398,20.8008 93.5065,19.1341 94,17.5C 94.7796,19.3869 94.6129,21.0536 93.5,22.5 Z"/></g>
<g><path style="opacity:1" fill="#1cb555" d="M 73.5,18.5 C 75.6523,20.9848 78.3189,22.6515 81.5,23.5C 80.0484,24.3019 78.3817,24.8019 76.5,25C 75.6634,26.0113 75.33,27.1779 75.5,28.5C 73.0656,29.1311 70.7323,30.1311 68.5,31.5C 67.8333,31.1667 67.1667,30.8333 66.5,30.5C 66.5,30.1667 66.5,29.8333 66.5,29.5C 67.5114,27.6284 68.3448,25.6284 69,23.5C 71.6699,22.7761 73.1699,21.1094 73.5,18.5 Z"/></g>
<g><path style="opacity:0.862" fill="#1f7b2b" d="M 89.5,19.5 C 90.5,19.5 91.5,19.5 92.5,19.5C 92.2627,20.791 92.596,21.791 93.5,22.5C 95.0608,27.4173 94.7275,32.084 92.5,36.5C 92.1667,32.5 91.8333,32.5 91.5,36.5C 91.1667,36.5 90.8333,36.5 90.5,36.5C 88.9397,36.5191 87.4397,36.8524 86,37.5C 84.5,37.3333 83.6667,36.5 83.5,35C 84.3767,33.1327 85.8767,31.966 88,31.5C 88.662,29.1873 89.162,26.854 89.5,24.5C 88.7002,22.2591 87.0336,21.2591 84.5,21.5C 84.67,22.8221 84.3366,23.9887 83.5,25C 81.5,25.3333 79.5,25.6667 77.5,26C 76.9341,26.9947 76.2674,27.828 75.5,28.5C 75.33,27.1779 75.6634,26.0113 76.5,25C 78.3817,24.8019 80.0484,24.3019 81.5,23.5C 82.3382,23.1583 82.6716,22.4916 82.5,21.5C 84.9521,20.9346 87.2854,20.2679 89.5,19.5 Z"/></g>
<g><path style="opacity:1" fill="#feb137" d="M 63.5,26.5 C 63.5,26.8333 63.5,27.1667 63.5,27.5C 62.448,27.3505 61.448,27.5172 60.5,28C 64.9989,31.529 64.3322,33.529 58.5,34C 57.9341,34.9947 57.2674,35.828 56.5,36.5C 53.5807,34.9244 50.914,32.9244 48.5,30.5C 48.1667,29.8333 47.8333,29.1667 47.5,28.5C 48.2891,28.2172 48.9558,27.7172 49.5,27C 54.1548,26.5008 58.8215,26.3342 63.5,26.5 Z"/></g>
<g><path style="opacity:1" fill="#0d4416" d="M 89.5,24.5 C 86.3309,26.8505 83.1642,29.1839 80,31.5C 79.516,33.1933 80.016,34.5267 81.5,35.5C 80.1667,35.5 78.8333,35.5 77.5,35.5C 77.6602,33.8008 77.4935,32.1341 77,30.5C 76.6667,31.1667 76.3333,31.8333 76,32.5C 74.9335,30.7174 73.4335,30.2174 71.5,31C 70.7476,31.6708 70.4142,32.5041 70.5,33.5C 69.8333,33.1667 69.1667,32.8333 68.5,32.5C 68.5,32.1667 68.5,31.8333 68.5,31.5C 70.7323,30.1311 73.0656,29.1311 75.5,28.5C 76.2674,27.828 76.9341,26.9947 77.5,26C 79.5,25.6667 81.5,25.3333 83.5,25C 84.3366,23.9887 84.67,22.8221 84.5,21.5C 87.0336,21.2591 88.7002,22.2591 89.5,24.5 Z"/></g>
<g><path style="opacity:0.991" fill="#fbe0c3" d="M 62.5,22.5 C 62.8333,23.8333 63.1667,23.8333 63.5,22.5C 64.8333,23.1667 64.8333,23.8333 63.5,24.5C 62.5084,24.3284 61.8417,24.6618 61.5,25.5C 56.8215,25.3342 52.1548,25.5008 47.5,26C 43.9664,28.0331 41.2997,30.8665 39.5,34.5C 37.2592,35.1286 35.2592,36.1286 33.5,37.5C 36.8502,32.8232 40.5169,28.4899 44.5,24.5C 49.4699,23.1712 54.4699,23.1712 59.5,24.5C 60.5178,23.8075 61.5178,23.1408 62.5,22.5 Z"/></g>
<g><path style="opacity:1" fill="#fea13e" d="M 48.5,30.5 C 50.914,32.9244 53.5807,34.9244 56.5,36.5C 56.4894,38.0174 55.8228,39.1841 54.5,40C 48.6681,42.2227 42.6681,43.7227 36.5,44.5C 37.7093,40.6311 40.376,38.6311 44.5,38.5C 44.9819,35.2972 46.3152,32.6306 48.5,30.5 Z"/></g>
<g><path style="opacity:1" fill="#f68e2f" d="M 66.5,30.5 C 67.1667,30.8333 67.8333,31.1667 68.5,31.5C 68.5,31.8333 68.5,32.1667 68.5,32.5C 68.4326,33.9587 68.7659,35.2921 69.5,36.5C 67.8333,36.5 66.1667,36.5 64.5,36.5C 64.3465,38.9699 63.3465,40.9699 61.5,42.5C 59.5,42.5 57.5,42.5 55.5,42.5C 57.8877,38.1337 61.5544,35.467 66.5,34.5C 66.5,33.1667 66.5,31.8333 66.5,30.5 Z"/></g>
<g><path style="opacity:0.016" fill="#00bf3e" d="M 91.5,36.5 C 91.8333,36.5 92.1667,36.5 92.5,36.5C 92.3147,37.1701 91.9813,37.1701 91.5,36.5 Z"/></g>
<g><path style="opacity:1" fill="#ffd097" d="M 61.5,25.5 C 62.1667,25.5 62.8333,25.5 63.5,25.5C 63.5,25.8333 63.5,26.1667 63.5,26.5C 58.8215,26.3342 54.1548,26.5008 49.5,27C 48.9558,27.7172 48.2891,28.2172 47.5,28.5C 45.9826,28.5106 44.8159,29.1772 44,30.5C 43.6401,32.6079 42.9734,34.6079 42,36.5C 38.3664,40.1481 34.5331,43.4814 30.5,46.5C 29.609,45.8902 28.609,45.5569 27.5,45.5C 29.0252,42.437 31.0252,39.7703 33.5,37.5C 35.2592,36.1286 37.2592,35.1286 39.5,34.5C 41.2997,30.8665 43.9664,28.0331 47.5,26C 52.1548,25.5008 56.8215,25.3342 61.5,25.5 Z"/></g>
<g><path style="opacity:1" fill="#feaf54" d="M 47.5,28.5 C 47.8333,29.1667 48.1667,29.8333 48.5,30.5C 46.3152,32.6306 44.9819,35.2972 44.5,38.5C 40.376,38.6311 37.7093,40.6311 36.5,44.5C 34.8089,45.8637 33.1423,47.197 31.5,48.5C 30.8333,48.5 30.1667,48.5 29.5,48.5C 29.8333,47.8333 30.1667,47.1667 30.5,46.5C 34.5331,43.4814 38.3664,40.1481 42,36.5C 42.9734,34.6079 43.6401,32.6079 44,30.5C 44.8159,29.1772 45.9826,28.5106 47.5,28.5 Z"/></g>
<g><path style="opacity:1" fill="#fd9a33" d="M 63.5,27.5 C 64.5,28.1667 65.5,28.8333 66.5,29.5C 66.5,29.8333 66.5,30.1667 66.5,30.5C 66.5,31.8333 66.5,33.1667 66.5,34.5C 61.5544,35.467 57.8877,38.1337 55.5,42.5C 49.2705,44.1396 42.9372,45.3063 36.5,46C 35.4092,47.5501 34.0758,48.7168 32.5,49.5C 31.8333,49.5 31.5,49.1667 31.5,48.5C 33.1423,47.197 34.8089,45.8637 36.5,44.5C 42.6681,43.7227 48.6681,42.2227 54.5,40C 55.8228,39.1841 56.4894,38.0174 56.5,36.5C 57.2674,35.828 57.9341,34.9947 58.5,34C 64.3322,33.529 64.9989,31.529 60.5,28C 61.448,27.5172 62.448,27.3505 63.5,27.5 Z"/></g>
<g><path style="opacity:0.996" fill="#0d631c" d="M 89.5,24.5 C 89.162,26.854 88.662,29.1873 88,31.5C 85.8767,31.966 84.3767,33.1327 83.5,35C 83.6667,36.5 84.5,37.3333 86,37.5C 87.4397,36.8524 88.9397,36.5191 90.5,36.5C 90.5,36.8333 90.5,37.1667 90.5,37.5C 89.8333,37.5 89.5,37.8333 89.5,38.5C 86.014,39.1715 83.3473,38.1715 81.5,35.5C 80.016,34.5267 79.516,33.1933 80,31.5C 83.1642,29.1839 86.3309,26.8505 89.5,24.5 Z"/></g>
<g><path style="opacity:0.006" fill="#000000" d="M 90.5,37.5 C 90.8333,37.5 91.1667,37.5 91.5,37.5C 91.6716,38.4916 91.3382,39.1583 90.5,39.5C 90.5,38.8333 90.5,38.1667 90.5,37.5 Z"/></g>
<g><path style="opacity:0.831" fill="#354025" d="M 81.5,35.5 C 83.3473,38.1715 86.014,39.1715 89.5,38.5C 89.5,39.1667 89.8333,39.5 90.5,39.5C 90.1583,40.3382 89.4916,40.6716 88.5,40.5C 88.1667,39.1667 87.8333,39.1667 87.5,40.5C 84.8333,40.8333 84.8333,41.1667 87.5,41.5C 87.2648,42.0967 86.7648,42.4301 86,42.5C 83.1987,40.6934 80.1987,39.3601 77,38.5C 76.5357,39.0944 76.369,39.7611 76.5,40.5C 76.1667,40.5 75.8333,40.5 75.5,40.5C 75.7373,39.209 75.404,38.209 74.5,37.5C 74.6716,36.5084 74.3382,35.8417 73.5,35.5C 73.1667,35.5 72.8333,35.5 72.5,35.5C 71.5,35.1667 70.8333,34.5 70.5,33.5C 70.4142,32.5041 70.7476,31.6708 71.5,31C 73.4335,30.2174 74.9335,30.7174 76,32.5C 76.3333,31.8333 76.6667,31.1667 77,30.5C 77.4935,32.1341 77.6602,33.8008 77.5,35.5C 78.8333,35.5 80.1667,35.5 81.5,35.5 Z"/></g>
<g><path style="opacity:1" fill="#ed8438" d="M 69.5,36.5 C 71.0739,38.1016 71.7406,40.1016 71.5,42.5C 69.901,42.2322 68.5676,42.5655 67.5,43.5C 66.5,43.5 65.5,43.5 64.5,43.5C 63.5,43.5 62.5,43.5 61.5,43.5C 61.5,43.1667 61.5,42.8333 61.5,42.5C 63.3465,40.9699 64.3465,38.9699 64.5,36.5C 66.1667,36.5 67.8333,36.5 69.5,36.5 Z"/></g>
<g><path style="opacity:0.012" fill="#545500" d="M 87.5,40.5 C 87.8333,40.5 88.1667,40.5 88.5,40.5C 88.3147,41.1701 87.9813,41.1701 87.5,40.5 Z"/></g>
<g><path style="opacity:0.835" fill="#fdebdd" d="M 44.5,24.5 C 40.5169,28.4899 36.8502,32.8232 33.5,37.5C 31.0252,39.7703 29.0252,42.437 27.5,45.5C 20.6753,56.4753 14.342,67.8086 8.5,79.5C 8.16667,79.5 7.83333,79.5 7.5,79.5C 7.5,78.8333 7.5,78.1667 7.5,77.5C 9.06518,75.4907 10.0652,73.1573 10.5,70.5C 11.1667,70.5 11.5,70.1667 11.5,69.5C 12.9313,68.2196 13.5979,66.5529 13.5,64.5C 14.1667,64.5 14.5,64.1667 14.5,63.5C 17.0078,59.8178 19.0078,55.8178 20.5,51.5C 21.1667,51.5 21.5,51.1667 21.5,50.5C 22.2674,49.828 22.9341,48.9947 23.5,48C 22.1669,46.1598 22.3335,45.6598 24,46.5C 26.6668,44.2602 27.6668,41.5935 27,38.5C 28.3619,37.0753 29.8619,36.242 31.5,36C 30.5494,35.2825 30.3828,34.4491 31,33.5C 34.8333,32.3333 37.3333,29.8333 38.5,26C 40.2806,23.9599 42.2806,23.4599 44.5,24.5 Z"/></g>
<g><path style="opacity:0.016" fill="#b94e16" d="M 76.5,40.5 C 77.8333,44.5 77.8333,48.5 76.5,52.5C 76.5,48.5 76.5,44.5 76.5,40.5 Z"/></g>
<g><path style="opacity:1" fill="#d4571b" d="M 68.5,32.5 C 69.1667,32.8333 69.8333,33.1667 70.5,33.5C 70.8333,34.5 71.5,35.1667 72.5,35.5C 73.0834,39.337 73.7501,43.1703 74.5,47C 74.0773,50.2691 73.244,53.4358 72,56.5C 71.7216,55.5842 71.2216,54.9175 70.5,54.5C 70.2916,50.7291 70.2916,47.2291 70.5,44C 69.552,43.5172 68.552,43.3505 67.5,43.5C 68.5676,42.5655 69.901,42.2322 71.5,42.5C 71.7406,40.1016 71.0739,38.1016 69.5,36.5C 68.7659,35.2921 68.4326,33.9587 68.5,32.5 Z"/></g>
<g><path style="opacity:1" fill="#e65b15" d="M 67.5,45.5 C 66.8505,47.4352 66.5172,49.4352 66.5,51.5C 64.549,51.2267 63.049,51.8934 62,53.5C 60.841,52.434 60.0076,52.7673 59.5,54.5C 58.1667,53.5 56.8333,52.5 55.5,51.5C 58.9136,48.4598 62.9136,46.4598 67.5,45.5 Z"/></g>
<g><path style="opacity:1" fill="#fd8526" d="M 55.5,42.5 C 57.5,42.5 59.5,42.5 61.5,42.5C 61.5,42.8333 61.5,43.1667 61.5,43.5C 52.419,46.0187 43.419,48.6853 34.5,51.5C 33.8333,51.1667 33.1667,50.8333 32.5,50.5C 32.5,50.1667 32.5,49.8333 32.5,49.5C 34.0758,48.7168 35.4092,47.5501 36.5,46C 42.9372,45.3063 49.2705,44.1396 55.5,42.5 Z"/></g>
<g><path style="opacity:0.009" fill="#ffeeed" d="M 21.5,50.5 C 20.8333,50.5 20.5,50.8333 20.5,51.5C 19.2875,50.5029 19.4542,49.5029 21,48.5C 21.4643,49.0944 21.631,49.7611 21.5,50.5 Z"/></g>
<g><path style="opacity:1" fill="#fa741d" d="M 61.5,43.5 C 62.5,43.5 63.5,43.5 64.5,43.5C 55.6349,47.9226 46.3015,51.256 36.5,53.5C 35.5,53.1667 34.8333,52.5 34.5,51.5C 43.419,48.6853 52.419,46.0187 61.5,43.5 Z"/></g>
<g><path style="opacity:1" fill="#f46b19" d="M 64.5,43.5 C 65.5,43.5 66.5,43.5 67.5,43.5C 67.5,44.1667 67.5,44.8333 67.5,45.5C 62.9136,46.4598 58.9136,48.4598 55.5,51.5C 54.8333,51.5 54.1667,51.5 53.5,51.5C 48.1764,52.4953 42.8431,53.4953 37.5,54.5C 36.8333,54.5 36.5,54.1667 36.5,53.5C 46.3015,51.256 55.6349,47.9226 64.5,43.5 Z"/></g>
<g><path style="opacity:1" fill="#df5314" d="M 67.5,43.5 C 68.552,43.3505 69.552,43.5172 70.5,44C 70.2916,47.2291 70.2916,50.7291 70.5,54.5C 70.5,54.8333 70.5,55.1667 70.5,55.5C 68.8333,57.5 67.1667,59.5 65.5,61.5C 63.5,59.1667 61.5,56.8333 59.5,54.5C 60.0076,52.7673 60.841,52.434 62,53.5C 63.049,51.8934 64.549,51.2267 66.5,51.5C 66.5172,49.4352 66.8505,47.4352 67.5,45.5C 67.5,44.8333 67.5,44.1667 67.5,43.5 Z"/></g>
<g><path style="opacity:0.925" fill="#c2693b" d="M 72.5,35.5 C 72.8333,35.5 73.1667,35.5 73.5,35.5C 73.3284,36.4916 73.6618,37.1583 74.5,37.5C 74.2627,38.791 74.596,39.791 75.5,40.5C 75.1832,44.7016 75.5166,48.7016 76.5,52.5C 76.7373,53.791 76.404,54.791 75.5,55.5C 75.1667,52.8333 74.8333,52.8333 74.5,55.5C 73.6618,55.8417 73.3284,56.5084 73.5,57.5C 72.1667,57.8333 72.1667,58.1667 73.5,58.5C 73.573,60.0269 72.9063,61.0269 71.5,61.5C 71.5,60.8333 71.1667,60.5 70.5,60.5C 70.5,58.8333 70.5,57.1667 70.5,55.5C 70.5,55.1667 70.5,54.8333 70.5,54.5C 71.2216,54.9175 71.7216,55.5842 72,56.5C 73.244,53.4358 74.0773,50.2691 74.5,47C 73.7501,43.1703 73.0834,39.337 72.5,35.5 Z"/></g>
<g><path style="opacity:1" fill="#f46219" d="M 53.5,51.5 C 53.1667,52.1667 52.8333,52.8333 52.5,53.5C 48.7054,55.2329 44.3721,56.8996 39.5,58.5C 39.2671,56.9382 38.6005,55.6049 37.5,54.5C 42.8431,53.4953 48.1764,52.4953 53.5,51.5 Z"/></g>
<g><path style="opacity:1" fill="#e74d11" d="M 32.5,50.5 C 33.1667,50.8333 33.8333,51.1667 34.5,51.5C 34.8333,52.5 35.5,53.1667 36.5,53.5C 36.5,54.1667 36.8333,54.5 37.5,54.5C 38.6005,55.6049 39.2671,56.9382 39.5,58.5C 38.713,60.1042 37.3797,60.7709 35.5,60.5C 34.1667,58.5 32.5,56.8333 30.5,55.5C 29.1592,53.1658 29.8259,51.4991 32.5,50.5 Z"/></g>
<g><path style="opacity:1" fill="#d3360c" d="M 53.5,51.5 C 54.1667,51.5 54.8333,51.5 55.5,51.5C 56.8333,52.5 58.1667,53.5 59.5,54.5C 61.5,56.8333 63.5,59.1667 65.5,61.5C 63.7376,62.2623 62.7376,63.5956 62.5,65.5C 61.5,64.8333 60.5,64.1667 59.5,63.5C 58.1667,61.5 56.5,59.8333 54.5,58.5C 53.0582,57.1805 52.3915,55.5138 52.5,53.5C 52.8333,52.8333 53.1667,52.1667 53.5,51.5 Z"/></g>
<g><path style="opacity:0.008" fill="#9c6d59" d="M 74.5,55.5 C 74.8333,55.5 75.1667,55.5 75.5,55.5C 75.6716,56.4916 75.3382,57.1583 74.5,57.5C 74.5,56.8333 74.5,56.1667 74.5,55.5 Z"/></g>
<g><path style="opacity:0.012" fill="#a95554" d="M 73.5,57.5 C 73.8333,57.5 74.1667,57.5 74.5,57.5C 74.3147,58.1701 73.9813,58.1701 73.5,57.5 Z"/></g>
<g><path style="opacity:1" fill="#fa6521" d="M 30.5,55.5 C 32.5,56.8333 34.1667,58.5 35.5,60.5C 34.1535,62.5368 32.8202,64.5368 31.5,66.5C 29.9468,64.615 27.9468,63.615 25.5,63.5C 26.1821,60.1187 27.8488,57.452 30.5,55.5 Z"/></g>
<g><path style="opacity:1" fill="#e84c15" d="M 54.5,58.5 C 56.5,59.8333 58.1667,61.5 59.5,63.5C 57.9991,64.7515 56.3325,65.7515 54.5,66.5C 53.0357,67.4054 51.7024,67.4054 50.5,66.5C 49.4019,65.603 49.4019,64.7697 50.5,64C 47.7724,62.9138 45.1057,62.5804 42.5,63C 43.5707,62.1482 44.5707,61.3149 45.5,60.5C 48.3033,59.0721 51.3033,58.4054 54.5,58.5 Z"/></g>
<g><path style="opacity:1" fill="#f1551a" d="M 52.5,53.5 C 52.3915,55.5138 53.0582,57.1805 54.5,58.5C 51.3033,58.4054 48.3033,59.0721 45.5,60.5C 43.4357,60.687 41.4357,61.187 39.5,62C 37.2312,64.6415 35.5645,67.1415 34.5,69.5C 33.1667,68.8333 32.1667,67.8333 31.5,66.5C 32.8202,64.5368 34.1535,62.5368 35.5,60.5C 37.3797,60.7709 38.713,60.1042 39.5,58.5C 44.3721,56.8996 48.7054,55.2329 52.5,53.5 Z"/></g>
<g><path style="opacity:0.008" fill="#fff2f1" d="M 14.5,63.5 C 13.8333,63.5 13.5,63.8333 13.5,64.5C 12.2875,63.5029 12.4542,62.5029 14,61.5C 14.4643,62.0944 14.631,62.7611 14.5,63.5 Z"/></g>
<g><path style="opacity:0.989" fill="#cb542c" d="M 70.5,55.5 C 70.5,57.1667 70.5,58.8333 70.5,60.5C 70.5,60.8333 70.5,61.1667 70.5,61.5C 69.8333,61.5 69.5,61.8333 69.5,62.5C 68.8333,62.5 68.5,62.8333 68.5,63.5C 67.1667,63.8333 67.1667,64.1667 68.5,64.5C 65.0711,68.2624 61.0711,71.2624 56.5,73.5C 56.5,73.1667 56.5,72.8333 56.5,72.5C 57.1667,72.5 57.5,72.1667 57.5,71.5C 57.7713,69.6883 58.438,68.0217 59.5,66.5C 60.9217,67.7768 61.9217,67.4435 62.5,65.5C 62.7376,63.5956 63.7376,62.2623 65.5,61.5C 67.1667,59.5 68.8333,57.5 70.5,55.5 Z"/></g>
<g><path style="opacity:0.012" fill="#545500" d="M 70.5,61.5 C 70.8333,61.5 71.1667,61.5 71.5,61.5C 71.3147,62.1701 70.9813,62.1701 70.5,61.5 Z"/></g>
<g><path style="opacity:1" fill="#fea66b" d="M 27.5,45.5 C 28.609,45.5569 29.609,45.8902 30.5,46.5C 30.1667,47.1667 29.8333,47.8333 29.5,48.5C 23.9071,57.3534 18.5738,66.3534 13.5,75.5C 12.4412,77.5554 10.7746,78.8888 8.5,79.5C 14.342,67.8086 20.6753,56.4753 27.5,45.5 Z"/></g>
<g><path style="opacity:1" fill="#fd7e38" d="M 29.5,48.5 C 30.1667,48.5 30.8333,48.5 31.5,48.5C 31.5,49.1667 31.8333,49.5 32.5,49.5C 32.5,49.8333 32.5,50.1667 32.5,50.5C 29.8259,51.4991 29.1592,53.1658 30.5,55.5C 27.8488,57.452 26.1821,60.1187 25.5,63.5C 24.8333,63.8333 24.1667,64.1667 23.5,64.5C 20.8579,68.7755 17.5246,72.4421 13.5,75.5C 18.5738,66.3534 23.9071,57.3534 29.5,48.5 Z"/></g>
<g><path style="opacity:1" fill="#ec4817" d="M 45.5,60.5 C 44.5707,61.3149 43.5707,62.1482 42.5,63C 45.1057,62.5804 47.7724,62.9138 50.5,64C 49.4019,64.7697 49.4019,65.603 50.5,66.5C 47.3388,67.9131 44.3388,69.5797 41.5,71.5C 40.7677,70.1917 39.9344,68.8584 39,67.5C 38.34,69.3237 37.1733,70.657 35.5,71.5C 35.1667,70.8333 34.8333,70.1667 34.5,69.5C 35.5645,67.1415 37.2312,64.6415 39.5,62C 41.4357,61.187 43.4357,60.687 45.5,60.5 Z"/></g>
<g><path style="opacity:0.008" fill="#fe7f7e" d="M 69.5,62.5 C 69.8333,62.5 70.1667,62.5 70.5,62.5C 70.3147,63.1701 69.9813,63.1701 69.5,62.5 Z"/></g>
<g><path style="opacity:0.012" fill="#a95554" d="M 68.5,63.5 C 68.8333,63.5 69.1667,63.5 69.5,63.5C 69.3147,64.1701 68.9813,64.1701 68.5,63.5 Z"/></g>
<g><path style="opacity:1" fill="#e54116" d="M 50.5,66.5 C 51.7024,67.4054 53.0357,67.4054 54.5,66.5C 51.4708,68.9117 48.4708,71.4117 45.5,74C 44.0544,75.298 42.7211,75.4646 41.5,74.5C 41.5,73.5 41.5,72.5 41.5,71.5C 44.3388,69.5797 47.3388,67.9131 50.5,66.5 Z"/></g>
<g><path style="opacity:0.008" fill="#fffef4" d="M 11.5,69.5 C 10.8333,69.5 10.5,69.8333 10.5,70.5C 9.28749,69.5029 9.45415,68.5029 11,67.5C 11.4643,68.0944 11.631,68.7611 11.5,69.5 Z"/></g>
<g><path style="opacity:1" fill="#e9471a" d="M 41.5,71.5 C 41.5,72.5 41.5,73.5 41.5,74.5C 37.5504,77.3078 33.217,79.3078 28.5,80.5C 30.2528,78.7775 32.2528,77.2775 34.5,76C 33.5842,75.7216 32.9175,75.2216 32.5,74.5C 33.5,74.5 34.5,74.5 35.5,74.5C 35.5,73.5 35.5,72.5 35.5,71.5C 37.1733,70.657 38.34,69.3237 39,67.5C 39.9344,68.8584 40.7677,70.1917 41.5,71.5 Z"/></g>
<g><path style="opacity:1" fill="#fb6f2f" d="M 23.5,64.5 C 23.5569,65.609 23.8902,66.609 24.5,67.5C 21.9895,73.6786 17.9895,78.6786 12.5,82.5C 11.3951,81.3995 10.0618,80.7329 8.5,80.5C 8.5,80.1667 8.5,79.8333 8.5,79.5C 10.7746,78.8888 12.4412,77.5554 13.5,75.5C 17.5246,72.4421 20.8579,68.7755 23.5,64.5 Z"/></g>
<g><path style="opacity:1" fill="#de370d" d="M 25.5,63.5 C 27.9468,63.615 29.9468,64.615 31.5,66.5C 32.1667,67.8333 33.1667,68.8333 34.5,69.5C 34.8333,70.1667 35.1667,70.8333 35.5,71.5C 35.5,72.5 35.5,73.5 35.5,74.5C 34.5,74.5 33.5,74.5 32.5,74.5C 31.1667,73.5 29.8333,72.5 28.5,71.5C 27.5275,69.8608 26.1942,68.5274 24.5,67.5C 23.8902,66.609 23.5569,65.609 23.5,64.5C 24.1667,64.1667 24.8333,63.8333 25.5,63.5 Z"/></g>
<g><path style="opacity:0.012" fill="#ecb5a2" d="M 7.5,77.5 C 6.66175,77.8417 6.32842,78.5084 6.5,79.5C 5.66175,79.8417 5.32842,80.5084 5.5,81.5C 5.16667,81.5 4.83333,81.5 4.5,81.5C 4.50414,79.1579 5.33747,77.1579 7,75.5C 7.46434,76.0944 7.63101,76.7611 7.5,77.5 Z"/></g>
<g><path style="opacity:1" fill="#f6632a" d="M 24.5,67.5 C 26.1942,68.5274 27.5275,69.8608 28.5,71.5C 27.2427,74.4274 25.2427,76.7607 22.5,78.5C 20.6203,78.2291 19.287,78.8958 18.5,80.5C 16.2921,81.023 14.7921,82.3563 14,84.5C 13.2828,83.9558 12.7828,83.2891 12.5,82.5C 17.9895,78.6786 21.9895,73.6786 24.5,67.5 Z"/></g>
<g><path style="opacity:1" fill="#ed4e20" d="M 28.5,71.5 C 29.8333,72.5 31.1667,73.5 32.5,74.5C 32.9175,75.2216 33.5842,75.7216 34.5,76C 32.2528,77.2775 30.2528,78.7775 28.5,80.5C 27.391,80.5569 26.391,80.8902 25.5,81.5C 24.1667,80.8333 23.1667,79.8333 22.5,78.5C 25.2427,76.7607 27.2427,74.4274 28.5,71.5 Z"/></g>
<g><path style="opacity:0.239" fill="#cb5b3d" d="M 55.5,72.5 C 55.5,73.1667 55.8333,73.5 56.5,73.5C 50.0657,77.892 43.399,82.0587 36.5,86C 35.552,86.4828 34.552,86.6495 33.5,86.5C 33.5,86.1667 33.5,85.8333 33.5,85.5C 33.4142,84.5041 33.7476,83.6708 34.5,83C 38.0561,81.3924 41.3894,79.5591 44.5,77.5C 48.0846,75.5391 51.7513,73.8724 55.5,72.5 Z"/></g>
<g><path style="opacity:1" fill="#de431b" d="M 59.5,63.5 C 60.5,64.1667 61.5,64.8333 62.5,65.5C 61.9217,67.4435 60.9217,67.7768 59.5,66.5C 58.438,68.0217 57.7713,69.6883 57.5,71.5C 56.8333,71.5 56.5,71.8333 56.5,72.5C 56.1667,72.5 55.8333,72.5 55.5,72.5C 51.7513,73.8724 48.0846,75.5391 44.5,77.5C 38.6152,78.1194 33.6152,80.4527 29.5,84.5C 27.5956,84.2624 26.2623,83.2624 25.5,81.5C 26.391,80.8902 27.391,80.5569 28.5,80.5C 33.217,79.3078 37.5504,77.3078 41.5,74.5C 42.7211,75.4646 44.0544,75.298 45.5,74C 48.4708,71.4117 51.4708,68.9117 54.5,66.5C 56.3325,65.7515 57.9991,64.7515 59.5,63.5 Z"/></g>
<g><path style="opacity:0.996" fill="#cd4324" d="M 44.5,77.5 C 41.3894,79.5591 38.0561,81.3924 34.5,83C 33.7476,83.6708 33.4142,84.5041 33.5,85.5C 30.8333,85.8333 30.8333,86.1667 33.5,86.5C 31.4208,88.873 28.7541,90.2064 25.5,90.5C 25.5,89.8333 25.1667,89.5 24.5,89.5C 24.5,88.8333 24.5,88.1667 24.5,87.5C 26.674,87.2503 28.3406,86.2503 29.5,84.5C 33.6152,80.4527 38.6152,78.1194 44.5,77.5 Z"/></g>
<g><path style="opacity:1" fill="#d6290d" d="M 22.5,78.5 C 23.1667,79.8333 24.1667,80.8333 25.5,81.5C 26.2623,83.2624 27.5956,84.2624 29.5,84.5C 28.3406,86.2503 26.674,87.2503 24.5,87.5C 23.8333,87.1667 23.1667,86.8333 22.5,86.5C 21.8333,85.1667 20.8333,84.1667 19.5,83.5C 18.596,82.791 18.2627,81.791 18.5,80.5C 19.287,78.8958 20.6203,78.2291 22.5,78.5 Z"/></g>
<g><path style="opacity:1" fill="#f04b20" d="M 8.5,80.5 C 10.0618,80.7329 11.3951,81.3995 12.5,82.5C 12.7828,83.2891 13.2828,83.9558 14,84.5C 14.7921,82.3563 16.2921,81.023 18.5,80.5C 18.2627,81.791 18.596,82.791 19.5,83.5C 16.3786,84.8953 13.3786,86.5619 10.5,88.5C 7.62962,86.352 6.96296,83.6853 8.5,80.5 Z"/></g>
<g><path style="opacity:1" fill="#f77d4d" d="M 6.5,79.5 C 6.83333,79.5 7.16667,79.5 7.5,79.5C 7.83333,79.5 8.16667,79.5 8.5,79.5C 8.5,79.8333 8.5,80.1667 8.5,80.5C 6.96296,83.6853 7.62962,86.352 10.5,88.5C 7.06501,89.1916 5.06501,91.1916 4.5,94.5C 3.77842,94.0825 3.27842,93.4158 3,92.5C 2.44437,94.5951 1.94437,94.7618 1.5,93C 1.73456,90.6483 1.90123,88.1483 2,85.5C 2.6082,83.9336 3.44153,82.6002 4.5,81.5C 4.83333,84.1667 5.16667,84.1667 5.5,81.5C 6.33825,81.1583 6.67158,80.4916 6.5,79.5 Z"/></g>
<g><path style="opacity:1" fill="#e64221" d="M 19.5,83.5 C 20.8333,84.1667 21.8333,85.1667 22.5,86.5C 19.1324,88.6085 15.4658,90.2751 11.5,91.5C 10.6143,92.325 10.281,93.325 10.5,94.5C 8.5,94.5 6.5,94.5 4.5,94.5C 5.06501,91.1916 7.06501,89.1916 10.5,88.5C 13.3786,86.5619 16.3786,84.8953 19.5,83.5 Z"/></g>
<g><path style="opacity:0.008" fill="#fe7f00" d="M 23.5,91.5 C 23.5,91.1667 23.5,90.8333 23.5,90.5C 24.1667,90.5 24.8333,90.5 25.5,90.5C 25.1583,91.3382 24.4916,91.6716 23.5,91.5 Z"/></g>
<g><path style="opacity:1" fill="#d04326" d="M 22.5,86.5 C 23.1667,86.8333 23.8333,87.1667 24.5,87.5C 24.5,88.1667 24.5,88.8333 24.5,89.5C 23.8333,89.5 23.5,89.8333 23.5,90.5C 20.8333,90.8333 20.8333,91.1667 23.5,91.5C 22.713,93.1042 21.3797,93.7709 19.5,93.5C 18.8333,92.1667 18.1667,92.1667 17.5,93.5C 14.4017,93.4125 14.0684,93.9125 16.5,95C 12.7824,97.2984 8.78238,97.9651 4.5,97C 3.40191,96.2303 3.40191,95.397 4.5,94.5C 6.5,94.5 8.5,94.5 10.5,94.5C 10.281,93.325 10.6143,92.325 11.5,91.5C 15.4658,90.2751 19.1324,88.6085 22.5,86.5 Z"/></g>
<g><path style="opacity:0.008" fill="#ff4433" d="M 17.5,93.5 C 18.1667,93.5 18.8333,93.5 19.5,93.5C 18.8333,94.8333 18.1667,94.8333 17.5,93.5 Z"/></g>
</svg>
