<?xml version="1.0" encoding="UTF-8"?>
<!DOCTYPE svg PUBLIC "-//W3C//DTD SVG 1.1//EN" "http://www.w3.org/Graphics/SVG/1.1/DTD/svg11.dtd">
<svg xmlns="http://www.w3.org/2000/svg" version="1.1" width="94px" height="94px" style="shape-rendering:geometricPrecision; text-rendering:geometricPrecision; image-rendering:optimizeQuality; fill-rule:evenodd; clip-rule:evenodd" xmlns:xlink="http://www.w3.org/1999/xlink">
<g><path style="opacity:0.941" fill="#4cb39a" d="M 51.5,3.5 C 55.0562,3.75014 58.7228,3.91681 62.5,4C 60.8333,4.33333 59.1667,4.66667 57.5,5C 61.2761,6.11335 64.9428,6.78002 68.5,7C 67.3463,7.9138 67.513,8.74714 69,9.5C 69.414,9.04265 69.914,8.70931 70.5,8.5C 71.8309,9.59219 72.6643,10.9255 73,12.5C 73.6667,11.1667 74.3333,11.1667 75,12.5C 74.2288,14.18 74.3955,15.8467 75.5,17.5C 71.6925,13.0351 67.0258,9.70178 61.5,7.5C 59.0521,6.52693 56.3854,6.1936 53.5,6.5C 53.1583,5.66175 52.4916,5.32842 51.5,5.5C 51.5,5.16667 51.5,4.83333 51.5,4.5C 51.5,4.16667 51.5,3.83333 51.5,3.5 Z"/></g>
<g><path style="opacity:0.02" fill="#fffe84" d="M 42.5,12.5 C 41.8333,12.5 41.5,12.8333 41.5,13.5C 40.9569,13.44 40.6236,13.1067 40.5,12.5C 41.2565,11.2267 41.9232,11.2267 42.5,12.5 Z"/></g>
<g><path style="opacity:0.988" fill="#faf4a4" d="M 49.5,6.5 C 50.8333,7.5 50.8333,8.5 49.5,9.5C 49.5654,9.06178 49.3988,8.72845 49,8.5C 43.936,13.3953 39.1026,18.3953 34.5,23.5C 36.0293,19.6319 38.3626,16.2985 41.5,13.5C 42.1667,13.5 42.5,13.1667 42.5,12.5C 44.8333,10.5 47.1667,8.5 49.5,6.5 Z"/></g>
<g><path style="opacity:1" fill="#20c28b" d="M 53.5,6.5 C 56.3854,6.1936 59.0521,6.52693 61.5,7.5C 58.4281,7.18259 55.4281,7.51592 52.5,8.5C 59.5162,16.3498 67.0162,23.6831 75,30.5C 75.4828,31.448 75.6495,32.448 75.5,33.5C 72.1667,33.5 68.8333,33.5 65.5,33.5C 65.5,32.8333 65.1667,32.5 64.5,32.5C 64.1667,32.5 63.8333,32.5 63.5,32.5C 63.1667,32.5 62.8333,32.5 62.5,32.5C 60.4504,30.4525 58.117,28.7859 55.5,27.5C 55.1667,26.8333 54.8333,26.1667 54.5,25.5C 55.172,24.7326 56.0053,24.0659 57,23.5C 60.9467,25.7798 64.6134,28.4465 68,31.5C 68.7504,30.8742 69.5838,30.3742 70.5,30C 63.4444,23.6132 57.1111,16.6132 51.5,9C 51.6842,7.62439 52.3509,6.79106 53.5,6.5 Z"/></g>
<g><path style="opacity:1" fill="#128f50" d="M 61.5,7.5 C 67.0258,9.70178 71.6925,13.0351 75.5,17.5C 76.1667,18.1667 76.8333,18.8333 77.5,19.5C 77.5188,26.5306 78.0188,26.864 79,20.5C 80.6863,24.8941 80.6863,29.2275 79,33.5C 78.6667,32.8333 78.3333,32.1667 78,31.5C 77.5831,32.756 76.7498,33.4226 75.5,33.5C 75.6495,32.448 75.4828,31.448 75,30.5C 67.0162,23.6831 59.5162,16.3498 52.5,8.5C 55.4281,7.51592 58.4281,7.18259 61.5,7.5 Z"/></g>
<g><path style="opacity:1" fill="#9e4619" d="M 49.5,10.5 C 49.5,11.5 49.5,12.5 49.5,13.5C 48.5,13.8333 47.8333,14.5 47.5,15.5C 46.8333,15.5 46.5,15.8333 46.5,16.5C 45.8333,16.5 45.5,16.8333 45.5,17.5C 44.8333,17.5 44.5,17.8333 44.5,18.5C 43.5116,19.795 42.5116,21.1283 41.5,22.5C 40.8333,22.5 40.5,22.8333 40.5,23.5C 39.7326,24.172 39.0659,25.0053 38.5,26C 39.8331,27.8402 39.6665,28.3402 38,27.5C 37.0853,28.3279 36.4186,29.3279 36,30.5C 36.9924,33.5698 36.6591,36.5698 35,39.5C 34.6667,38.5 34.3333,37.5 34,36.5C 33.8253,39.1572 33.9919,41.8239 34.5,44.5C 34.1667,44.5 33.8333,44.5 33.5,44.5C 33.6495,43.448 33.4828,42.448 33,41.5C 32.5065,43.1341 32.3398,44.8008 32.5,46.5C 31.2921,47.2341 29.9587,47.5674 28.5,47.5C 30.6851,32.3617 37.6851,20.0284 49.5,10.5 Z"/></g>
<g><path style="opacity:0.004" fill="#552517" d="M 47.5,15.5 C 48.525,15.8966 48.6917,16.5632 48,17.5C 47,18.5 46,19.5 45,20.5C 44.5357,19.9056 44.369,19.2389 44.5,18.5C 45.1667,18.5 45.5,18.1667 45.5,17.5C 46.1667,17.5 46.5,17.1667 46.5,16.5C 47.1667,16.5 47.5,16.1667 47.5,15.5 Z"/></g>
<g><path style="opacity:1" fill="#31d3a2" d="M 51.5,3.5 C 51.5,3.83333 51.5,4.16667 51.5,4.5C 50.1667,4.83333 50.1667,5.16667 51.5,5.5C 52.4916,5.32842 53.1583,5.66175 53.5,6.5C 52.3509,6.79106 51.6842,7.62439 51.5,9C 57.1111,16.6132 63.4444,23.6132 70.5,30C 69.5838,30.3742 68.7504,30.8742 68,31.5C 64.6134,28.4465 60.9467,25.7798 57,23.5C 56.0053,24.0659 55.172,24.7326 54.5,25.5C 51.2935,22.2321 49.6268,18.2321 49.5,13.5C 49.5,12.5 49.5,11.5 49.5,10.5C 49.5,10.1667 49.5,9.83333 49.5,9.5C 50.8333,8.5 50.8333,7.5 49.5,6.5C 48.3264,4.63216 48.9931,3.63216 51.5,3.5 Z"/></g>
<g><path style="opacity:0.016" fill="#428054" d="M 77.5,19.5 C 77.369,18.7611 77.5357,18.0944 78,17.5C 78.6917,18.4368 78.525,19.1034 77.5,19.5 Z"/></g>
<g><path style="opacity:0.016" fill="#fffeb8" d="M 33.5,23.5 C 32.8333,23.5 32.5,23.8333 32.5,24.5C 31.2875,23.5029 31.4542,22.5029 33,21.5C 33.4643,22.0944 33.631,22.7611 33.5,23.5 Z"/></g>
<g><path style="opacity:0.008" fill="#651e03" d="M 41.5,22.5 C 42.7125,23.4971 42.5458,24.4971 41,25.5C 40.5357,24.9056 40.369,24.2389 40.5,23.5C 41.1667,23.5 41.5,23.1667 41.5,22.5 Z"/></g>
<g><path style="opacity:0.976" fill="#df9533" d="M 49.5,9.5 C 49.5,9.83333 49.5,10.1667 49.5,10.5C 37.6851,20.0284 30.6851,32.3617 28.5,47.5C 28.1667,47.5 27.8333,47.5 27.5,47.5C 27.1667,47.5 26.8333,47.5 26.5,47.5C 26.5,47.1667 26.5,46.8333 26.5,46.5C 25.0983,42.0986 25.2649,37.7653 27,33.5C 27.3333,34.8333 27.6667,36.1667 28,37.5C 29.0107,32.9668 30.5107,28.6334 32.5,24.5C 33.1667,24.5 33.5,24.1667 33.5,23.5C 33.8333,23.5 34.1667,23.5 34.5,23.5C 39.1026,18.3953 43.936,13.3953 49,8.5C 49.3988,8.72845 49.5654,9.06178 49.5,9.5 Z"/></g>
<g><path style="opacity:0.016" fill="#279d59" d="M 66.5,35.5 C 69.9758,34.3567 73.6425,34.1901 77.5,35C 73.8484,35.4986 70.1817,35.6653 66.5,35.5 Z"/></g>
<g><path style="opacity:0.016" fill="#dd694d" d="M 57.5,38.5 C 57.5,41.1667 57.5,43.8333 57.5,46.5C 57.1667,46.5 56.8333,46.5 56.5,46.5C 54.0521,45.5269 51.3854,45.1936 48.5,45.5C 50.9479,44.5269 53.6146,44.1936 56.5,44.5C 56.2053,42.2646 56.5386,40.2646 57.5,38.5 Z"/></g>
<g><path style="opacity:0.757" fill="#974427" d="M 55.5,27.5 C 58.117,28.7859 60.4504,30.4525 62.5,32.5C 62.8333,35.1667 63.1667,35.1667 63.5,32.5C 63.8333,32.5 64.1667,32.5 64.5,32.5C 65.1667,32.5 65.5,32.8333 65.5,33.5C 63.537,36.518 63.037,39.8513 64,43.5C 67.6748,43.9754 71.5081,44.6421 75.5,45.5C 72.2869,45.19 69.2869,45.5233 66.5,46.5C 66.1667,46.5 65.8333,46.5 65.5,46.5C 65.1667,45.1667 64.8333,45.1667 64.5,46.5C 63.8333,46.5 63.5,46.8333 63.5,47.5C 63.1667,47.5 62.8333,47.5 62.5,47.5C 62.1667,47.5 61.8333,47.5 61.5,47.5C 60.8333,47.5 60.1667,47.5 59.5,47.5C 59.5,46.8333 59.1667,46.5 58.5,46.5C 58.8064,43.6146 58.4731,40.9479 57.5,38.5C 57.3089,34.7379 56.6422,31.0712 55.5,27.5 Z"/></g>
<g><path style="opacity:0.635" fill="#ffcbd5" d="M 26.5,46.5 C 26.5,46.8333 26.5,47.1667 26.5,47.5C 23.8127,47.3359 21.146,47.5026 18.5,48C 17.0027,49.8706 15.0027,50.8706 12.5,51C 11.7476,51.6708 11.4142,52.5041 11.5,53.5C 10.5326,54.8062 9.19928,55.4729 7.5,55.5C 8.5361,52.5987 10.2028,50.0987 12.5,48C 11.6548,46.4419 12.3215,45.4419 14.5,45C 18.0894,44.7931 21.5894,44.2931 25,43.5C 25.2321,44.7375 25.7321,45.7375 26.5,46.5 Z"/></g>
<g><path style="opacity:0.705" fill="#ffb9c9" d="M 33.5,44.5 C 33.8333,44.5 34.1667,44.5 34.5,44.5C 38.5839,44.0431 42.4172,44.7098 46,46.5C 46.6708,45.7476 47.5041,45.4142 48.5,45.5C 50.9479,46.4731 53.6146,46.8064 56.5,46.5C 56.8333,46.5 57.1667,46.5 57.5,46.5C 57.8333,46.5 58.1667,46.5 58.5,46.5C 59.1667,46.5 59.5,46.8333 59.5,47.5C 57.1667,47.5 54.8333,47.5 52.5,47.5C 53.1089,50.8784 51.7756,52.8784 48.5,53.5C 44.3999,48.3558 39.0666,46.0225 32.5,46.5C 33.3382,46.1583 33.6716,45.4916 33.5,44.5 Z"/></g>
<g><path style="opacity:0.886" fill="#f8c2de" d="M 75.5,45.5 C 77.7453,45.5412 78.4119,46.3745 77.5,48C 79.1412,49.129 80.1412,50.629 80.5,52.5C 78.2545,50.4589 75.5879,48.9589 72.5,48C 69.5184,47.502 66.5184,47.3354 63.5,47.5C 63.5,46.8333 63.8333,46.5 64.5,46.5C 64.8333,46.5 65.1667,46.5 65.5,46.5C 65.8333,46.5 66.1667,46.5 66.5,46.5C 69.7131,46.81 72.7131,46.4767 75.5,45.5 Z"/></g>
<g><path style="opacity:1" fill="#e24576" d="M 62.5,47.5 C 62.8333,47.5 63.1667,47.5 63.5,47.5C 66.5184,47.3354 69.5184,47.502 72.5,48C 75.5879,48.9589 78.2545,50.4589 80.5,52.5C 80.5,53.5 80.5,54.5 80.5,55.5C 78.1667,55.5 75.8333,55.5 73.5,55.5C 73.6495,54.448 73.4828,53.448 73,52.5C 71.2287,51.6959 69.7287,50.5292 68.5,49C 66.2922,48.8091 64.2922,48.3091 62.5,47.5 Z"/></g>
<g><path style="opacity:1" fill="#fe889a" d="M 26.5,47.5 C 26.8333,47.5 27.1667,47.5 27.5,47.5C 24.4721,48.0676 21.8054,49.401 19.5,51.5C 17.0948,52.7682 14.4282,53.4349 11.5,53.5C 11.4142,52.5041 11.7476,51.6708 12.5,51C 15.0027,50.8706 17.0027,49.8706 18.5,48C 21.146,47.5026 23.8127,47.3359 26.5,47.5 Z"/></g>
<g><path style="opacity:1" fill="#f6346e" d="M 32.5,46.5 C 39.0666,46.0225 44.3999,48.3558 48.5,53.5C 48.5,54.8333 48.5,56.1667 48.5,57.5C 46.2646,57.2053 44.2646,57.5386 42.5,58.5C 39.6181,58.3924 37.2847,57.2257 35.5,55C 30.1927,53.5004 24.8593,52.3338 19.5,51.5C 21.8054,49.401 24.4721,48.0676 27.5,47.5C 27.8333,47.5 28.1667,47.5 28.5,47.5C 29.9587,47.5674 31.2921,47.2341 32.5,46.5 Z"/></g>
<g><path style="opacity:1" fill="#d92a4c" d="M 61.5,47.5 C 61.8333,47.5 62.1667,47.5 62.5,47.5C 64.2922,48.3091 66.2922,48.8091 68.5,49C 69.7287,50.5292 71.2287,51.6959 73,52.5C 73.4828,53.448 73.6495,54.448 73.5,55.5C 75.8333,55.5 78.1667,55.5 80.5,55.5C 80.5,54.5 80.5,53.5 80.5,52.5C 81.404,53.209 81.7373,54.209 81.5,55.5C 78.713,57.3288 75.5463,58.3288 72,58.5C 68.8571,57.8926 65.6905,57.5592 62.5,57.5C 61.1917,56.7677 59.8584,55.9344 58.5,55C 59.3366,53.9887 59.67,52.8221 59.5,51.5C 69.4695,51.7517 69.8028,50.9184 60.5,49C 61.056,48.6174 61.3893,48.1174 61.5,47.5 Z"/></g>
<g><path style="opacity:1" fill="#ec364e" d="M 19.5,51.5 C 24.8593,52.3338 30.1927,53.5004 35.5,55C 37.2847,57.2257 39.6181,58.3924 42.5,58.5C 41.791,59.404 40.791,59.7373 39.5,59.5C 33.6174,59.2274 27.9508,58.2274 22.5,56.5C 17.365,56.0054 12.365,56.0054 7.5,56.5C 7.5,56.1667 7.5,55.8333 7.5,55.5C 9.19928,55.4729 10.5326,54.8062 11.5,53.5C 14.4282,53.4349 17.0948,52.7682 19.5,51.5 Z"/></g>
<g><path style="opacity:1" fill="#dd243e" d="M 59.5,47.5 C 60.1667,47.5 60.8333,47.5 61.5,47.5C 61.3893,48.1174 61.056,48.6174 60.5,49C 69.8028,50.9184 69.4695,51.7517 59.5,51.5C 59.67,52.8221 59.3366,53.9887 58.5,55C 59.8584,55.9344 61.1917,56.7677 62.5,57.5C 60.139,57.3259 57.8056,56.9926 55.5,56.5C 53.8583,54.9192 51.8583,54.2525 49.5,54.5C 49.5,55.5 49.5,56.5 49.5,57.5C 49.5,58.5 49.5,59.5 49.5,60.5C 48.8423,61.3984 48.1757,62.3984 47.5,63.5C 44.8956,61.8663 42.2289,60.533 39.5,59.5C 40.791,59.7373 41.791,59.404 42.5,58.5C 44.2646,57.5386 46.2646,57.2053 48.5,57.5C 48.5,56.1667 48.5,54.8333 48.5,53.5C 51.7756,52.8784 53.1089,50.8784 52.5,47.5C 54.8333,47.5 57.1667,47.5 59.5,47.5 Z"/></g>
<g><path style="opacity:1" fill="#c50f16" d="M 23.5,72.5 C 22.5637,73.9744 21.2303,74.9744 19.5,75.5C 17.1569,74.0327 17.4903,72.6994 20.5,71.5C 19.675,70.6143 18.675,70.281 17.5,70.5C 17.7852,68.712 17.4519,67.0453 16.5,65.5C 15.1451,64.8118 14.1451,63.8118 13.5,62.5C 17.4501,62.5361 21.2835,61.8694 25,60.5C 29.713,60.585 31.8797,62.9183 31.5,67.5C 27.5674,67.4554 24.2341,68.7888 21.5,71.5C 21.9569,72.2975 22.6236,72.6309 23.5,72.5 Z"/></g>
<g><path style="opacity:1" fill="#ce111a" d="M 22.5,56.5 C 23.4293,57.3149 24.4293,58.1482 25.5,59C 28.2263,59.1816 30.8929,59.6816 33.5,60.5C 34.8037,63.1301 36.4704,65.4634 38.5,67.5C 37.448,67.3505 36.448,67.5172 35.5,68C 36.8331,69.8402 36.6665,70.3402 35,69.5C 31.3096,71.0072 27.4763,72.0072 23.5,72.5C 22.6236,72.6309 21.9569,72.2975 21.5,71.5C 24.2341,68.7888 27.5674,67.4554 31.5,67.5C 31.8797,62.9183 29.713,60.585 25,60.5C 21.2835,61.8694 17.4501,62.5361 13.5,62.5C 11.5,61.8333 9.5,61.1667 7.5,60.5C 7.5,59.1667 7.5,57.8333 7.5,56.5C 12.365,56.0054 17.365,56.0054 22.5,56.5 Z"/></g>
<g><path style="opacity:1" fill="#bf0e16" d="M 55.5,56.5 C 56.347,57.9663 57.6803,58.7996 59.5,59C 62.146,59.4974 64.8127,59.6641 67.5,59.5C 67.5,60.8333 67.5,62.1667 67.5,63.5C 66.0222,63.238 64.6888,63.5713 63.5,64.5C 62.9645,67.1052 62.7978,69.7718 63,72.5C 60.6541,76.1818 58.1541,76.3485 55.5,73C 57.1277,66.3771 55.1277,61.2105 49.5,57.5C 49.5,56.5 49.5,55.5 49.5,54.5C 51.8583,54.2525 53.8583,54.9192 55.5,56.5 Z"/></g>
<g><path style="opacity:0.012" fill="#bf3e36" d="M 83.5,65.5 C 83.335,62.1501 83.5017,58.8168 84,55.5C 84.8075,59.0267 84.6408,62.3601 83.5,65.5 Z"/></g>
<g><path style="opacity:1" fill="#bb1724" d="M 81.5,55.5 C 82.4511,56.9187 82.7845,58.5853 82.5,60.5C 80.8327,63.8239 78.6661,66.8239 76,69.5C 75.3292,70.2524 74.4959,70.5858 73.5,70.5C 71.5808,68.1799 69.5808,65.8466 67.5,63.5C 67.5,62.1667 67.5,60.8333 67.5,59.5C 64.8127,59.6641 62.146,59.4974 59.5,59C 57.6803,58.7996 56.347,57.9663 55.5,56.5C 57.8056,56.9926 60.139,57.3259 62.5,57.5C 65.6905,57.5592 68.8571,57.8926 72,58.5C 75.5463,58.3288 78.713,57.3288 81.5,55.5 Z"/></g>
<g><path style="opacity:1" fill="#c72d2a" d="M 7.5,60.5 C 9.5,61.1667 11.5,61.8333 13.5,62.5C 14.1451,63.8118 15.1451,64.8118 16.5,65.5C 17.4519,67.0453 17.7852,68.712 17.5,70.5C 18.675,70.281 19.675,70.6143 20.5,71.5C 17.4903,72.6994 17.1569,74.0327 19.5,75.5C 21.3092,76.4812 22.6426,77.9812 23.5,80C 29.7937,81.0505 35.7937,80.2172 41.5,77.5C 41.5,77.8333 41.5,78.1667 41.5,78.5C 40.1667,78.8333 40.1667,79.1667 41.5,79.5C 41.189,80.4778 40.5223,81.1445 39.5,81.5C 38.2322,80.5721 36.8989,80.4054 35.5,81C 37.3008,81.3173 37.6341,81.984 36.5,83C 32.9031,84.2765 29.2364,84.6099 25.5,84C 27.5,83.6667 29.5,83.3333 31.5,83C 27.7279,82.594 24.0613,81.7607 20.5,80.5C 19.8333,80.8333 19.1667,81.1667 18.5,81.5C 17.2997,80.4688 15.9663,79.6355 14.5,79C 14.4928,76.8807 13.3261,75.0474 11,73.5C 9.37453,74.4119 8.5412,73.7453 8.5,71.5C 9.83333,70.8333 9.83333,70.1667 8.5,69.5C 8.67158,68.5084 8.33825,67.8417 7.5,67.5C 7.16667,59.5 6.83333,59.5 6.5,67.5C 5.35303,63.3537 5.18636,59.0204 6,54.5C 6.19088,56.7078 6.69088,58.7078 7.5,60.5 Z"/></g>
<g><path style="opacity:1" fill="#d61928" d="M 22.5,56.5 C 27.9508,58.2274 33.6174,59.2274 39.5,59.5C 42.2289,60.533 44.8956,61.8663 47.5,63.5C 48.1757,62.3984 48.8423,61.3984 49.5,60.5C 50.1616,65.495 48.8283,69.8284 45.5,73.5C 45.5,73.8333 45.5,74.1667 45.5,74.5C 44.8333,74.5 44.5,74.8333 44.5,75.5C 43.8333,75.5 43.5,75.8333 43.5,76.5C 42.8333,76.5 42.5,76.8333 42.5,77.5C 42.1667,77.5 41.8333,77.5 41.5,77.5C 41.6633,75.1432 41.4966,72.8098 41,70.5C 40.6232,69.0577 39.7899,68.0577 38.5,67.5C 36.4704,65.4634 34.8037,63.1301 33.5,60.5C 30.8929,59.6816 28.2263,59.1816 25.5,59C 24.4293,58.1482 23.4293,57.3149 22.5,56.5 Z"/></g>
<g><path style="opacity:1" fill="#b41318" d="M 49.5,57.5 C 55.1277,61.2105 57.1277,66.3771 55.5,73C 58.1541,76.3485 60.6541,76.1818 63,72.5C 62.7978,69.7718 62.9645,67.1052 63.5,64.5C 64.6888,63.5713 66.0222,63.238 67.5,63.5C 69.5808,65.8466 71.5808,68.1799 73.5,70.5C 71.257,73.2428 68.757,75.9095 66,78.5C 61.8484,79.5995 57.6818,79.5995 53.5,78.5C 53.0269,77.0937 52.0269,76.427 50.5,76.5C 49.1667,76.8333 49.1667,77.1667 50.5,77.5C 50.5,77.8333 50.5,78.1667 50.5,78.5C 48.9731,78.573 47.9731,77.9063 47.5,76.5C 48.8333,76.1667 48.8333,75.8333 47.5,75.5C 47.5,74.8333 47.1667,74.5 46.5,74.5C 46.5,73.8333 46.1667,73.5 45.5,73.5C 48.8283,69.8284 50.1616,65.495 49.5,60.5C 49.5,59.5 49.5,58.5 49.5,57.5 Z"/></g>
<g><path style="opacity:0.012" fill="#ac423a" d="M 6.5,67.5 C 6.83333,67.5 7.16667,67.5 7.5,67.5C 7.5,68.1667 7.5,68.8333 7.5,69.5C 6.66175,69.1583 6.32842,68.4916 6.5,67.5 Z"/></g>
<g><path style="opacity:0.008" fill="#a70003" d="M 7.5,69.5 C 7.83333,69.5 8.16667,69.5 8.5,69.5C 8.5,70.1667 8.5,70.8333 8.5,71.5C 7.66175,71.1583 7.32842,70.4916 7.5,69.5 Z"/></g>
<g><path style="opacity:0.016" fill="#7e3f3e" d="M 79.5,71.5 C 79.8333,71.5 80.1667,71.5 80.5,71.5C 80.3147,72.1701 79.9813,72.1701 79.5,71.5 Z"/></g>
<g><path style="opacity:1" fill="#d6131c" d="M 38.5,67.5 C 39.7899,68.0577 40.6232,69.0577 41,70.5C 41.4966,72.8098 41.6633,75.1432 41.5,77.5C 35.7937,80.2172 29.7937,81.0505 23.5,80C 22.6426,77.9812 21.3092,76.4812 19.5,75.5C 21.2303,74.9744 22.5637,73.9744 23.5,72.5C 27.4763,72.0072 31.3096,71.0072 35,69.5C 36.6665,70.3402 36.8331,69.8402 35.5,68C 36.448,67.5172 37.448,67.3505 38.5,67.5 Z"/></g>
<g><path style="opacity:0.016" fill="#3e0000" d="M 78.5,72.5 C 78.8333,72.5 79.1667,72.5 79.5,72.5C 79.3147,73.1701 78.9813,73.1701 78.5,72.5 Z"/></g>
<g><path style="opacity:0.994" fill="#a8352d" d="M 82.5,60.5 C 82.2155,62.4147 82.5489,64.0813 83.5,65.5C 83.3465,67.9699 82.3465,69.9699 80.5,71.5C 80.1667,70.1667 79.8333,70.1667 79.5,71.5C 78.8333,71.5 78.5,71.8333 78.5,72.5C 77.8333,72.5 77.5,72.8333 77.5,73.5C 76.8333,73.5 76.5,73.8333 76.5,74.5C 75.8333,74.5 75.5,74.8333 75.5,75.5C 74.8333,75.5 74.5,75.8333 74.5,76.5C 73.1667,76.8333 73.1667,77.1667 74.5,77.5C 72.4208,79.873 69.7541,81.2064 66.5,81.5C 62.8118,80.238 58.9785,80.238 55,81.5C 53.0188,81.1015 51.5188,80.1015 50.5,78.5C 51.8333,78.1667 51.8333,77.8333 50.5,77.5C 50.5,77.1667 50.5,76.8333 50.5,76.5C 52.0269,76.427 53.0269,77.0937 53.5,78.5C 57.6818,79.5995 61.8484,79.5995 66,78.5C 68.757,75.9095 71.257,73.2428 73.5,70.5C 74.4959,70.5858 75.3292,70.2524 76,69.5C 78.6661,66.8239 80.8327,63.8239 82.5,60.5 Z"/></g>
<g><path style="opacity:0.006" fill="#bd2417" d="M 45.5,74.5 C 45.8333,74.5 46.1667,74.5 46.5,74.5C 47.1667,74.5 47.5,74.8333 47.5,75.5C 47.5,75.8333 47.5,76.1667 47.5,76.5C 45.8333,77.1667 44.1667,77.8333 42.5,78.5C 42.5,78.1667 42.5,77.8333 42.5,77.5C 43.1667,77.5 43.5,77.1667 43.5,76.5C 44.1667,76.5 44.5,76.1667 44.5,75.5C 45.1667,75.5 45.5,75.1667 45.5,74.5 Z"/></g>
<g><path style="opacity:0.004" fill="#442322" d="M 77.5,73.5 C 77.8333,73.5 78.1667,73.5 78.5,73.5C 78.5,75.5 77.5,76.5 75.5,76.5C 75.5,76.1667 75.5,75.8333 75.5,75.5C 76.1667,75.5 76.5,75.1667 76.5,74.5C 77.1667,74.5 77.5,74.1667 77.5,73.5 Z"/></g>
<g><path style="opacity:0.016" fill="#7e3f00" d="M 74.5,76.5 C 74.8333,76.5 75.1667,76.5 75.5,76.5C 75.3147,77.1701 74.9813,77.1701 74.5,76.5 Z"/></g>
<g><path style="opacity:0.012" fill="#fe5554" d="M 41.5,78.5 C 41.8333,78.5 42.1667,78.5 42.5,78.5C 42.3147,79.1701 41.9813,79.1701 41.5,78.5 Z"/></g>
<g><path style="opacity:0.012" fill="#a03e37" d="M 66.5,81.5 C 63.6965,82.6378 60.6965,82.8045 57.5,82C 60.4816,81.502 63.4816,81.3354 66.5,81.5 Z"/></g>
</svg>
