<?xml version="1.0" encoding="UTF-8"?>
<!DOCTYPE svg PUBLIC "-//W3C//DTD SVG 1.1//EN" "http://www.w3.org/Graphics/SVG/1.1/DTD/svg11.dtd">
<svg xmlns="http://www.w3.org/2000/svg" version="1.1" width="94px" height="94px" style="shape-rendering:geometricPrecision; text-rendering:geometricPrecision; image-rendering:optimizeQuality; fill-rule:evenodd; clip-rule:evenodd" xmlns:xlink="http://www.w3.org/1999/xlink">
<g><path style="opacity:1" fill="#596071" d="M 70.5,12.5 C 70.3284,13.4916 70.6618,14.1583 71.5,14.5C 71.5,15.1667 71.5,15.8333 71.5,16.5C 71.5,17.1667 71.1667,17.5 70.5,17.5C 69.4314,15.0313 68.0981,12.6979 66.5,10.5C 64.9291,9.69063 63.2624,9.35729 61.5,9.5C 62.2297,7.95496 63.563,7.12162 65.5,7C 64.1667,6.66667 62.8333,6.33333 61.5,6C 63.1667,5.33333 64.8333,5.33333 66.5,6C 66.9361,8.3661 68.2695,10.5328 70.5,12.5 Z"/></g>
<g><path style="opacity:0.008" fill="#444d43" d="M 59.5,7.5 C 60.5983,8.60093 60.765,9.93426 60,11.5C 59.51,10.2068 59.3433,8.87344 59.5,7.5 Z"/></g>
<g><path style="opacity:1" fill="#2c2624" d="M 61.5,9.5 C 63.2624,9.35729 64.9291,9.69063 66.5,10.5C 68.0981,12.6979 69.4314,15.0313 70.5,17.5C 69.1667,17.5 67.8333,17.5 66.5,17.5C 66.5,17.1667 66.5,16.8333 66.5,16.5C 66.5,15.8333 66.1667,15.5 65.5,15.5C 65.1667,12.8333 64.8333,12.8333 64.5,15.5C 64.1667,15.5 63.8333,15.5 63.5,15.5C 63.0472,14.5416 62.3805,13.7083 61.5,13C 62.1712,12.0138 62.1712,10.8471 61.5,9.5 Z"/></g>
<g><path style="opacity:0.006" fill="#554e53" d="M 76.5,16.5 C 75.5,16.5 74.5,16.5 73.5,16.5C 73.1667,16.5 72.8333,16.5 72.5,16.5C 72.6716,15.5084 72.3382,14.8417 71.5,14.5C 71.6716,13.5084 71.3382,12.8417 70.5,12.5C 70.369,11.7611 70.5357,11.0944 71,10.5C 72.1737,13.2381 74.0071,15.2381 76.5,16.5 Z"/></g>
<g><path style="opacity:0.012" fill="#ffd555" d="M 30.5,17.5 C 29.448,17.6495 28.448,17.4828 27.5,17C 28.7494,16.2599 29.7494,16.4265 30.5,17.5 Z"/></g>
<g><path style="opacity:0.075" fill="#fdc2ce" d="M 71.5,16.5 C 71.8333,16.5 72.1667,16.5 72.5,16.5C 72.8333,16.5 73.1667,16.5 73.5,16.5C 74.5,17.8333 75.5,17.8333 76.5,16.5C 77.2389,16.369 77.9056,16.5357 78.5,17C 78.0111,18.5523 78.6777,19.719 80.5,20.5C 80.5,21.1667 80.8333,21.5 81.5,21.5C 81.5,22.1667 81.8333,22.5 82.5,22.5C 84.0248,24.2163 85.0248,26.2163 85.5,28.5C 84.5041,28.5858 83.6708,28.2524 83,27.5C 82.6541,25.1523 81.4875,23.3189 79.5,22C 76.4081,20.4541 73.4081,18.9541 70.5,17.5C 71.1667,17.5 71.5,17.1667 71.5,16.5 Z"/></g>
<g><path style="opacity:0.816" fill="#fdc2ce" d="M 63.5,15.5 C 63.8333,15.5 64.1667,15.5 64.5,15.5C 64.8333,15.5 65.1667,15.5 65.5,15.5C 66.1667,15.5 66.5,15.8333 66.5,16.5C 66.5,16.8333 66.5,17.1667 66.5,17.5C 65.6851,18.8366 64.5185,19.8366 63,20.5C 63.1667,24.9996 61.0001,27.1662 56.5,27C 55.7476,27.6708 55.4142,28.5041 55.5,29.5C 54.8333,29.8333 54.1667,30.1667 53.5,30.5C 53.722,27.4958 54.722,24.8292 56.5,22.5C 57.1667,22.5 57.5,22.1667 57.5,21.5C 59.5053,20.746 60.172,19.5793 59.5,18C 60.6934,16.9054 62.0267,16.072 63.5,15.5 Z"/></g>
<g><path style="opacity:0.006" fill="#ffdae0" d="M 80.5,20.5 C 80.8966,19.475 81.5632,19.3083 82.5,20C 83.7736,20.9772 83.7736,21.8106 82.5,22.5C 81.8333,22.5 81.5,22.1667 81.5,21.5C 80.8333,21.5 80.5,21.1667 80.5,20.5 Z"/></g>
<g><path style="opacity:0.008" fill="#fefffe" d="M 57.5,21.5 C 56.8333,21.5 56.5,21.8333 56.5,22.5C 55.9569,22.44 55.6236,22.1067 55.5,21.5C 56.2565,20.2267 56.9232,20.2267 57.5,21.5 Z"/></g>
<g><path style="opacity:0.875" fill="#fdd7a4" d="M 30.5,17.5 C 34.0495,18.7232 37.0495,20.7232 39.5,23.5C 38.1667,24.1667 38.1667,24.8333 39.5,25.5C 39.5,26.1667 39.8333,26.5 40.5,26.5C 41.1098,27.391 41.4431,28.391 41.5,29.5C 39.5,27.8333 37.5,26.1667 35.5,24.5C 35.1667,23.5 34.5,22.8333 33.5,22.5C 31.9197,20.1946 29.9197,19.528 27.5,20.5C 28.0998,19.1001 29.0998,18.1001 30.5,17.5 Z"/></g>
<g><path style="opacity:0.004" fill="#ffe65a" d="M 39.5,23.5 C 41.3818,24.221 41.7152,25.221 40.5,26.5C 39.8333,26.5 39.5,26.1667 39.5,25.5C 39.5,24.8333 39.5,24.1667 39.5,23.5 Z"/></g>
<g><path style="opacity:1" fill="#fb4350" d="M 66.5,17.5 C 67.8333,17.5 69.1667,17.5 70.5,17.5C 73.4081,18.9541 76.4081,20.4541 79.5,22C 81.4875,23.3189 82.6541,25.1523 83,27.5C 83.6708,28.2524 84.5041,28.5858 85.5,28.5C 85.5,29.1667 85.5,29.8333 85.5,30.5C 85.1667,30.5 84.8333,30.5 84.5,30.5C 82.139,30.6741 79.8056,31.0074 77.5,31.5C 77.3573,29.7376 77.6906,28.0709 78.5,26.5C 77.0499,25.1502 76.3832,23.4835 76.5,21.5C 74.2075,21.2436 72.0408,21.5769 70,22.5C 70.2068,24.7513 70.3735,27.0846 70.5,29.5C 65.5,29.5 60.5,29.5 55.5,29.5C 55.4142,28.5041 55.7476,27.6708 56.5,27C 61.0001,27.1662 63.1667,24.9996 63,20.5C 64.5185,19.8366 65.6851,18.8366 66.5,17.5 Z"/></g>
<g><path style="opacity:1" fill="#fd3f42" d="M 77.5,31.5 C 77.5,31.8333 77.5,32.1667 77.5,32.5C 75.965,31.6457 74.6316,31.6457 73.5,32.5C 71.5,32.5 69.5,32.5 67.5,32.5C 65.7986,31.2658 63.7986,30.5992 61.5,30.5C 59.1817,30.9971 56.8484,31.3305 54.5,31.5C 54.5979,33.5529 53.9313,35.2196 52.5,36.5C 52.6602,34.8008 52.4935,33.1341 52,31.5C 51.8171,34.3647 51.3171,37.0314 50.5,39.5C 50.6716,38.5084 50.3382,37.8417 49.5,37.5C 50.1404,34.1351 50.9738,30.8017 52,27.5C 52.2321,28.7375 52.7321,29.7375 53.5,30.5C 54.1667,30.1667 54.8333,29.8333 55.5,29.5C 60.5,29.5 65.5,29.5 70.5,29.5C 70.3735,27.0846 70.2068,24.7513 70,22.5C 72.0408,21.5769 74.2075,21.2436 76.5,21.5C 76.3832,23.4835 77.0499,25.1502 78.5,26.5C 77.6906,28.0709 77.3573,29.7376 77.5,31.5 Z"/></g>
<g><path style="opacity:0.008" fill="#f57777" d="M 86.5,30.5 C 86.3433,29.1266 86.51,27.7932 87,26.5C 87.765,28.0657 87.5983,29.3991 86.5,30.5 Z"/></g>
<g><path style="opacity:1" fill="#f99732" d="M 35.5,24.5 C 37.5,26.1667 39.5,27.8333 41.5,29.5C 42.4731,31.9479 42.8064,34.6146 42.5,37.5C 41.2921,40.0442 39.2921,41.3775 36.5,41.5C 36.7422,36.5039 36.0755,31.6706 34.5,27C 35.2524,26.3292 35.5858,25.4959 35.5,24.5 Z"/></g>
<g><path style="opacity:1" fill="#fec045" d="M 33.5,22.5 C 32.2749,23.1522 31.6083,24.3189 31.5,26C 32.1767,32.1503 32.6767,38.3169 33,44.5C 34.1451,45.6364 35.3117,46.6364 36.5,47.5C 35.5,48.1667 34.5,48.8333 33.5,49.5C 31.3331,48.802 29.4998,47.4687 28,45.5C 26.1841,47.4414 24.1841,48.1081 22,47.5C 21.5507,44.9063 22.5507,42.9063 25,41.5C 25.6077,39.8455 26.1077,38.1789 26.5,36.5C 27.4469,34.2655 28.1136,31.9322 28.5,29.5C 28.4805,28.2739 28.1471,27.2739 27.5,26.5C 27.5,24.5 27.5,22.5 27.5,20.5C 29.9197,19.528 31.9197,20.1946 33.5,22.5 Z"/></g>
<g><path style="opacity:0.745" fill="#f7bb99" d="M 49.5,37.5 C 49.3284,38.4916 49.6618,39.1583 50.5,39.5C 50.6596,41.153 51.3263,42.4863 52.5,43.5C 52.5,43.8333 52.5,44.1667 52.5,44.5C 52.5,45.1667 52.5,45.8333 52.5,46.5C 50.613,44.4197 48.9463,42.0864 47.5,39.5C 47.5,39.1667 47.5,38.8333 47.5,38.5C 46.7753,34.9686 45.4419,34.302 43.5,36.5C 43.3367,34.1432 43.5034,31.8098 44,29.5C 44.5,30.6667 45.3333,31.5 46.5,32C 45.8333,32.3333 45.1667,32.6667 44.5,33C 46.687,34.025 48.3536,35.525 49.5,37.5 Z"/></g>
<g><path style="opacity:1" fill="#f91c20" d="M 67.5,32.5 C 66.0322,33.8057 64.6988,35.3057 63.5,37C 64.8602,38.9376 64.5268,40.6043 62.5,42C 61.0337,42.6355 59.7003,43.4688 58.5,44.5C 57.2638,43.7542 55.9305,43.4208 54.5,43.5C 54.7373,44.791 54.404,45.791 53.5,46.5C 53.6716,45.5084 53.3382,44.8417 52.5,44.5C 52.5,44.1667 52.5,43.8333 52.5,43.5C 52.5,41.1667 52.5,38.8333 52.5,36.5C 53.9313,35.2196 54.5979,33.5529 54.5,31.5C 56.8484,31.3305 59.1817,30.9971 61.5,30.5C 63.7986,30.5992 65.7986,31.2658 67.5,32.5 Z"/></g>
<g><path style="opacity:1" fill="#e0151c" d="M 73.5,32.5 C 74.6316,31.6457 75.965,31.6457 77.5,32.5C 77.5955,35.6916 76.9288,38.6916 75.5,41.5C 73.2413,44.5263 71.5746,47.8597 70.5,51.5C 69.5,51.8333 68.8333,52.5 68.5,53.5C 67.8333,53.8333 67.1667,54.1667 66.5,54.5C 66.5,54.1667 66.5,53.8333 66.5,53.5C 68.9689,50.7642 69.9689,47.7642 69.5,44.5C 70.2159,41.4024 71.7159,38.7357 74,36.5C 74.765,34.9343 74.5983,33.6009 73.5,32.5 Z"/></g>
<g><path style="opacity:0.008" fill="#7d0803" d="M 87.5,31.5 C 88.6408,34.6399 88.8075,37.9733 88,41.5C 87.5017,38.1832 87.335,34.8499 87.5,31.5 Z"/></g>
<g><path style="opacity:1" fill="#f11b22" d="M 67.5,32.5 C 69.5,32.5 71.5,32.5 73.5,32.5C 74.5983,33.6009 74.765,34.9343 74,36.5C 71.7159,38.7357 70.2159,41.4024 69.5,44.5C 66.5177,44.9911 64.1844,46.4911 62.5,49C 60.8659,49.4935 59.1992,49.6602 57.5,49.5C 57.719,48.325 57.3857,47.325 56.5,46.5C 56.1667,46.8333 55.8333,47.1667 55.5,47.5C 54.907,51.5374 53.5737,55.204 51.5,58.5C 52.1667,54.5 52.8333,50.5 53.5,46.5C 54.404,45.791 54.7373,44.791 54.5,43.5C 55.9305,43.4208 57.2638,43.7542 58.5,44.5C 59.7003,43.4688 61.0337,42.6355 62.5,42C 64.5268,40.6043 64.8602,38.9376 63.5,37C 64.6988,35.3057 66.0322,33.8057 67.5,32.5 Z"/></g>
<g><path style="opacity:1" fill="#ffebd2" d="M 27.5,27.5 C 27.6567,28.8734 27.49,30.2068 27,31.5C 21.9055,36.7537 17.4055,42.4204 13.5,48.5C 13.1667,49.5 12.5,50.1667 11.5,50.5C 11.1667,47.8333 10.8333,47.8333 10.5,50.5C 10.1667,50.5 9.83333,50.5 9.5,50.5C 9.75526,47.9837 10.5886,45.6504 12,43.5C 13.7566,43.8671 15.2566,43.0338 16.5,41C 15.5494,40.2825 15.3828,39.4491 16,38.5C 19.0114,34.7544 22.3448,32.0877 26,30.5C 25.4816,26.5753 25.4816,22.5753 26,18.5C 26.1805,21.6946 26.6805,24.6946 27.5,27.5 Z"/></g>
<g><path style="opacity:1" fill="#fdb239" d="M 33.5,22.5 C 34.5,22.8333 35.1667,23.5 35.5,24.5C 35.5858,25.4959 35.2524,26.3292 34.5,27C 36.0755,31.6706 36.7422,36.5039 36.5,41.5C 39.2921,41.3775 41.2921,40.0442 42.5,37.5C 43.1667,37.5 43.5,37.1667 43.5,36.5C 45.4419,34.302 46.7753,34.9686 47.5,38.5C 46.6873,40.2608 45.6873,41.9275 44.5,43.5C 42.5544,44.0347 41.5544,45.368 41.5,47.5C 40.0361,48.045 38.3694,48.045 36.5,47.5C 35.3117,46.6364 34.1451,45.6364 33,44.5C 32.6767,38.3169 32.1767,32.1503 31.5,26C 31.6083,24.3189 32.2749,23.1522 33.5,22.5 Z"/></g>
<g><path style="opacity:1" fill="#bf1516" d="M 84.5,30.5 C 84.8333,30.5 85.1667,30.5 85.5,30.5C 84.6814,40.4121 82.6814,50.0788 79.5,59.5C 78.5768,58.6971 77.5768,58.5304 76.5,59C 75.8448,61.159 74.5115,62.659 72.5,63.5C 74.3153,57.6346 75.8153,51.6346 77,45.5C 81.0738,41.2671 83.5738,36.2671 84.5,30.5 Z"/></g>
<g><path style="opacity:1" fill="#ad3b31" d="M 85.5,30.5 C 85.8333,30.5 86.1667,30.5 86.5,30.5C 86.5,34.5 86.5,38.5 86.5,42.5C 85.1667,44.1667 85.1667,45.8333 86.5,47.5C 86.7406,49.8984 86.0739,51.8984 84.5,53.5C 84.1667,49.5 83.8333,49.5 83.5,53.5C 82.6618,53.8417 82.3284,54.5084 82.5,55.5C 81.6618,55.8417 81.3284,56.5084 81.5,57.5C 80.1667,57.8333 80.1667,58.1667 81.5,58.5C 81.6716,59.4916 81.3382,60.1583 80.5,60.5C 80.5,59.8333 80.1667,59.5 79.5,59.5C 82.6814,50.0788 84.6814,40.4121 85.5,30.5 Z"/></g>
<g><path style="opacity:0.998" fill="#ffe1a0" d="M 27.5,26.5 C 28.1471,27.2739 28.4805,28.2739 28.5,29.5C 28.1136,31.9322 27.4469,34.2655 26.5,36.5C 23.7465,40.7593 20.4132,44.5926 16.5,48C 15.552,48.4828 14.552,48.6495 13.5,48.5C 17.4055,42.4204 21.9055,36.7537 27,31.5C 27.49,30.2068 27.6567,28.8734 27.5,27.5C 27.5,27.1667 27.5,26.8333 27.5,26.5 Z"/></g>
<g><path style="opacity:1" fill="#fec14e" d="M 26.5,36.5 C 26.1077,38.1789 25.6077,39.8455 25,41.5C 22.5507,42.9063 21.5507,44.9063 22,47.5C 24.1841,48.1081 26.1841,47.4414 28,45.5C 29.4998,47.4687 31.3331,48.802 33.5,49.5C 32.3915,50.29 31.0581,50.79 29.5,51C 23.5092,51.4995 17.5092,51.6662 11.5,51.5C 11.5,51.1667 11.5,50.8333 11.5,50.5C 12.5,50.1667 13.1667,49.5 13.5,48.5C 14.552,48.6495 15.552,48.4828 16.5,48C 20.4132,44.5926 23.7465,40.7593 26.5,36.5 Z"/></g>
<g><path style="opacity:0.006" fill="#ef3000" d="M 86.5,42.5 C 87.8333,44.1667 87.8333,45.8333 86.5,47.5C 86.5,45.8333 86.5,44.1667 86.5,42.5 Z"/></g>
<g><path style="opacity:1" fill="#f42f34" d="M 69.5,44.5 C 69.9689,47.7642 68.9689,50.7642 66.5,53.5C 64.1609,54.6371 61.8275,54.8037 59.5,54C 55.2786,59.6211 50.9453,65.1211 46.5,70.5C 45.3951,71.6005 44.0618,72.2671 42.5,72.5C 44.795,69.7029 47.295,67.0362 50,64.5C 50.6917,63.5632 50.525,62.8966 49.5,62.5C 50.1667,61.1667 50.8333,59.8333 51.5,58.5C 53.5737,55.204 54.907,51.5374 55.5,47.5C 55.8333,47.1667 56.1667,46.8333 56.5,46.5C 57.3857,47.325 57.719,48.325 57.5,49.5C 59.1992,49.6602 60.8659,49.4935 62.5,49C 64.1844,46.4911 66.5177,44.9911 69.5,44.5 Z"/></g>
<g><path style="opacity:0.012" fill="#ff7d3b" d="M 9.5,50.5 C 9.5,54.1667 9.5,57.8333 9.5,61.5C 8.16667,57.8333 8.16667,54.1667 9.5,50.5 Z"/></g>
<g><path style="opacity:1" fill="#fdb443" d="M 41.5,47.5 C 41.7035,49.3904 41.0368,50.8904 39.5,52C 37.2115,52.8221 34.8782,53.4888 32.5,54C 25.4268,54.554 18.4268,54.054 11.5,52.5C 11.5,52.1667 11.5,51.8333 11.5,51.5C 17.5092,51.6662 23.5092,51.4995 29.5,51C 31.0581,50.79 32.3915,50.29 33.5,49.5C 34.5,48.8333 35.5,48.1667 36.5,47.5C 38.3694,48.045 40.0361,48.045 41.5,47.5 Z"/></g>
<g><path style="opacity:0.008" fill="#9164fe" d="M 83.5,53.5 C 83.8333,53.5 84.1667,53.5 84.5,53.5C 84.6716,54.4916 84.3382,55.1583 83.5,55.5C 83.5,54.8333 83.5,54.1667 83.5,53.5 Z"/></g>
<g><path style="opacity:1" fill="#fba836" d="M 44.5,43.5 C 44.8563,46.5641 44.0229,49.2307 42,51.5C 32.2921,58.6227 22.1254,59.2893 11.5,53.5C 11.5,53.1667 11.5,52.8333 11.5,52.5C 18.4268,54.054 25.4268,54.554 32.5,54C 34.8782,53.4888 37.2115,52.8221 39.5,52C 41.0368,50.8904 41.7035,49.3904 41.5,47.5C 41.5544,45.368 42.5544,44.0347 44.5,43.5 Z"/></g>
<g><path style="opacity:1" fill="#cd1316" d="M 84.5,30.5 C 83.5738,36.2671 81.0738,41.2671 77,45.5C 75.8153,51.6346 74.3153,57.6346 72.5,63.5C 70.8305,65.5921 69.1638,67.5921 67.5,69.5C 72.0621,60.507 74.7288,51.1736 75.5,41.5C 76.9288,38.6916 77.5955,35.6916 77.5,32.5C 77.5,32.1667 77.5,31.8333 77.5,31.5C 79.8056,31.0074 82.139,30.6741 84.5,30.5 Z"/></g>
<g><path style="opacity:1" fill="#d21113" d="M 75.5,41.5 C 74.7288,51.1736 72.0621,60.507 67.5,69.5C 66.596,70.209 66.2627,71.209 66.5,72.5C 65.0413,72.4326 63.7079,72.7659 62.5,73.5C 67.7905,66.9497 70.4572,59.6164 70.5,51.5C 71.5746,47.8597 73.2413,44.5263 75.5,41.5 Z"/></g>
<g><path style="opacity:0.008" fill="#7f1f00" d="M 82.5,55.5 C 82.8333,55.5 83.1667,55.5 83.5,55.5C 83.6716,56.4916 83.3382,57.1583 82.5,57.5C 82.5,56.8333 82.5,56.1667 82.5,55.5 Z"/></g>
<g><path style="opacity:1" fill="#f99b2f" d="M 47.5,38.5 C 47.5,38.8333 47.5,39.1667 47.5,39.5C 47.5,41.1667 47.5,42.8333 47.5,44.5C 45.9016,46.8567 44.9016,49.5234 44.5,52.5C 40.7123,53.8985 37.3789,56.0651 34.5,59C 30.2589,60.4573 25.9255,60.7907 21.5,60C 18.4469,58.4734 15.4469,56.9734 12.5,55.5C 11.6618,55.1583 11.3284,54.4916 11.5,53.5C 22.1254,59.2893 32.2921,58.6227 42,51.5C 44.0229,49.2307 44.8563,46.5641 44.5,43.5C 45.6873,41.9275 46.6873,40.2608 47.5,38.5 Z"/></g>
<g><path style="opacity:0.012" fill="#a95554" d="M 81.5,57.5 C 81.8333,57.5 82.1667,57.5 82.5,57.5C 82.3147,58.1701 81.9813,58.1701 81.5,57.5 Z"/></g>
<g><path style="opacity:1" fill="#f31a1a" d="M 66.5,53.5 C 66.5,53.8333 66.5,54.1667 66.5,54.5C 64.2989,55.7386 62.1322,57.0719 60,58.5C 59.3856,60.3134 59.7189,60.6467 61,59.5C 61.3845,61.1966 61.2178,62.8632 60.5,64.5C 56.9703,69.6 52.3037,73.2667 46.5,75.5C 50.9733,72.5249 54.6399,68.6915 57.5,64C 56.8333,63.3333 56.1667,63.3333 55.5,64C 52.6032,66.41 49.6032,68.5767 46.5,70.5C 50.9453,65.1211 55.2786,59.6211 59.5,54C 61.8275,54.8037 64.1609,54.6371 66.5,53.5 Z"/></g>
<g><path style="opacity:1" fill="#ef6b21" d="M 47.5,39.5 C 48.9463,42.0864 50.613,44.4197 52.5,46.5C 52.5,47.1667 52.5,47.8333 52.5,48.5C 51.5041,48.5858 50.6708,48.2524 50,47.5C 48.8955,56.418 44.3955,62.7513 36.5,66.5C 35.8333,66.5 35.1667,66.5 34.5,66.5C 34.4142,65.5041 34.7476,64.6708 35.5,64C 43.1873,59.7959 47.1873,53.2959 47.5,44.5C 47.5,42.8333 47.5,41.1667 47.5,39.5 Z"/></g>
<g><path style="opacity:1" fill="#db110f" d="M 70.5,51.5 C 70.4572,59.6164 67.7905,66.9497 62.5,73.5C 61.8333,73.5 61.5,73.8333 61.5,74.5C 58.91,75.1283 56.5766,76.295 54.5,78C 52.8659,78.4935 51.1992,78.6602 49.5,78.5C 59.4133,73.0586 65.7466,64.7252 68.5,53.5C 68.8333,52.5 69.5,51.8333 70.5,51.5 Z"/></g>
<g><path style="opacity:1" fill="#e51110" d="M 68.5,53.5 C 65.7466,64.7252 59.4133,73.0586 49.5,78.5C 47.4855,79.9238 45.1522,80.5905 42.5,80.5C 42.3691,79.6236 42.7025,78.9569 43.5,78.5C 51.6721,76.6439 57.3388,71.9772 60.5,64.5C 61.2178,62.8632 61.3845,61.1966 61,59.5C 59.7189,60.6467 59.3856,60.3134 60,58.5C 62.1322,57.0719 64.2989,55.7386 66.5,54.5C 67.1667,54.1667 67.8333,53.8333 68.5,53.5 Z"/></g>
<g><path style="opacity:0.004" fill="#541813" d="M 79.5,60.5 C 79.8333,60.5 80.1667,60.5 80.5,60.5C 80.573,62.0269 79.9063,63.0269 78.5,63.5C 78.5,62.8333 78.5,62.1667 78.5,61.5C 79.1667,61.5 79.5,61.1667 79.5,60.5 Z"/></g>
<g><path style="opacity:0.016" fill="#f59f63" d="M 9.5,61.5 C 9.83333,61.5 10.1667,61.5 10.5,61.5C 10.5,62.5 10.5,63.5 10.5,64.5C 9.59603,63.791 9.26269,62.791 9.5,61.5 Z"/></g>
<g><path style="opacity:1" fill="#f17f2b" d="M 47.5,44.5 C 47.1873,53.2959 43.1873,59.7959 35.5,64C 34.7476,64.6708 34.4142,65.5041 34.5,66.5C 30.1539,66.6657 25.8206,66.499 21.5,66C 18.9096,64.5549 16.243,63.3882 13.5,62.5C 13.8782,64.921 14.5448,67.2543 15.5,69.5C 14.2719,68.6935 13.2719,67.6935 12.5,66.5C 12.6716,65.5084 12.3382,64.8417 11.5,64.5C 11.7373,63.209 11.404,62.209 10.5,61.5C 10.5,57.8333 10.5,54.1667 10.5,50.5C 10.8333,50.5 11.1667,50.5 11.5,50.5C 11.5,50.8333 11.5,51.1667 11.5,51.5C 11.5,51.8333 11.5,52.1667 11.5,52.5C 11.5,52.8333 11.5,53.1667 11.5,53.5C 11.3284,54.4916 11.6618,55.1583 12.5,55.5C 13.6138,56.8853 14.6138,58.3853 15.5,60C 24.962,65.1701 33.7953,64.3368 42,57.5C 42.8466,55.8068 43.6799,54.1401 44.5,52.5C 44.9016,49.5234 45.9016,46.8567 47.5,44.5 Z"/></g>
<g><path style="opacity:1" fill="#f78e2b" d="M 44.5,52.5 C 43.6799,54.1401 42.8466,55.8068 42,57.5C 33.7953,64.3368 24.962,65.1701 15.5,60C 14.6138,58.3853 13.6138,56.8853 12.5,55.5C 15.4469,56.9734 18.4469,58.4734 21.5,60C 25.9255,60.7907 30.2589,60.4573 34.5,59C 37.3789,56.0651 40.7123,53.8985 44.5,52.5 Z"/></g>
<g><path style="opacity:0.016" fill="#7e3f00" d="M 77.5,63.5 C 77.8333,63.5 78.1667,63.5 78.5,63.5C 78.3147,64.1701 77.9813,64.1701 77.5,63.5 Z"/></g>
<g><path style="opacity:0.016" fill="#be3f3e" d="M 76.5,64.5 C 76.8333,64.5 77.1667,64.5 77.5,64.5C 77.3147,65.1701 76.9813,65.1701 76.5,64.5 Z"/></g>
<g><path style="opacity:0.004" fill="#ffcb38" d="M 10.5,64.5 C 10.8333,64.5 11.1667,64.5 11.5,64.5C 11.5,65.1667 11.5,65.8333 11.5,66.5C 10.6618,66.1583 10.3284,65.4916 10.5,64.5 Z"/></g>
<g><path style="opacity:0.008" fill="#7e0000" d="M 75.5,65.5 C 75.8333,65.5 76.1667,65.5 76.5,65.5C 76.6716,66.4916 76.3382,67.1583 75.5,67.5C 75.5,66.8333 75.5,66.1667 75.5,65.5 Z"/></g>
<g><path style="opacity:1" fill="#f61d17" d="M 46.5,75.5 C 41.5533,77.7379 36.5533,79.9045 31.5,82C 24.7833,82.2038 18.1166,82.7038 11.5,83.5C 10.5832,82.8728 9.58317,82.5394 8.5,82.5C 8.5,81.8333 8.5,81.1667 8.5,80.5C 8.83333,80.5 9.16667,80.5 9.5,80.5C 17.8471,79.9285 26.1805,79.0952 34.5,78C 36.6659,75.4187 39.3325,73.5854 42.5,72.5C 44.0618,72.2671 45.3951,71.6005 46.5,70.5C 49.6032,68.5767 52.6032,66.41 55.5,64C 56.1667,63.3333 56.8333,63.3333 57.5,64C 54.6399,68.6915 50.9733,72.5249 46.5,75.5 Z"/></g>
<g><path style="opacity:0.008" fill="#8f722a" d="M 11.5,66.5 C 11.8333,66.5 12.1667,66.5 12.5,66.5C 12.1667,69.1667 11.8333,69.1667 11.5,66.5 Z"/></g>
<g><path style="opacity:1" fill="#eb5f23" d="M 34.5,66.5 C 35.1667,66.5 35.8333,66.5 36.5,66.5C 35.3192,68.0672 33.6526,68.9005 31.5,69C 26.098,68.6499 20.7647,68.8166 15.5,69.5C 14.5448,67.2543 13.8782,64.921 13.5,62.5C 16.243,63.3882 18.9096,64.5549 21.5,66C 25.8206,66.499 30.1539,66.6657 34.5,66.5 Z"/></g>
<g><path style="opacity:0.008" fill="#7e0000" d="M 74.5,67.5 C 74.8333,67.5 75.1667,67.5 75.5,67.5C 75.3147,68.1701 74.9813,68.1701 74.5,67.5 Z"/></g>
<g><path style="opacity:0.008" fill="#7e7f00" d="M 73.5,68.5 C 73.8333,68.5 74.1667,68.5 74.5,68.5C 74.3147,69.1701 73.9813,69.1701 73.5,68.5 Z"/></g>
<g><path style="opacity:0.012" fill="#fe5554" d="M 72.5,69.5 C 72.8333,69.5 73.1667,69.5 73.5,69.5C 73.3147,70.1701 72.9813,70.1701 72.5,69.5 Z"/></g>
<g><path style="opacity:0.98" fill="#bf392a" d="M 79.5,59.5 C 79.5,59.8333 79.5,60.1667 79.5,60.5C 78.8333,60.5 78.5,60.8333 78.5,61.5C 77.6618,61.8417 77.3284,62.5084 77.5,63.5C 76.8333,63.5 76.5,63.8333 76.5,64.5C 75.8333,64.5 75.5,64.8333 75.5,65.5C 74.6618,65.8417 74.3284,66.5084 74.5,67.5C 73.8333,67.5 73.5,67.8333 73.5,68.5C 72.8333,68.5 72.5,68.8333 72.5,69.5C 71.8333,69.5 71.5,69.8333 71.5,70.5C 70.1667,70.8333 70.1667,71.1667 71.5,71.5C 70.4154,73.5869 68.7488,74.9202 66.5,75.5C 66.1667,74.1667 65.8333,74.1667 65.5,75.5C 64.1667,75.8333 64.1667,76.1667 65.5,76.5C 64.3406,78.2503 62.674,79.2503 60.5,79.5C 59.8333,78.1667 59.1667,78.1667 58.5,79.5C 57.5084,79.3284 56.8417,79.6618 56.5,80.5C 53.8333,80.8333 53.8333,81.1667 56.5,81.5C 55.791,82.404 54.791,82.7373 53.5,82.5C 52.8333,81.1667 52.1667,81.1667 51.5,82.5C 50.209,82.2627 49.209,82.596 48.5,83.5C 46.901,83.2322 45.5676,83.5655 44.5,84.5C 43.5,84.5 42.5,84.5 41.5,84.5C 45.8692,82.2043 50.5359,80.3709 55.5,79C 58.1767,78.1864 60.1767,76.6864 61.5,74.5C 61.5,73.8333 61.8333,73.5 62.5,73.5C 63.7079,72.7659 65.0413,72.4326 66.5,72.5C 66.2627,71.209 66.596,70.209 67.5,69.5C 69.1638,67.5921 70.8305,65.5921 72.5,63.5C 74.5115,62.659 75.8448,61.159 76.5,59C 77.5768,58.5304 78.5768,58.6971 79.5,59.5 Z"/></g>
<g><path style="opacity:0.012" fill="#a95554" d="M 71.5,70.5 C 71.8333,70.5 72.1667,70.5 72.5,70.5C 72.3147,71.1701 71.9813,71.1701 71.5,70.5 Z"/></g>
<g><path style="opacity:1" fill="#d53517" d="M 52.5,48.5 C 49.8916,57.5377 44.8916,65.0377 37.5,71C 33.2663,73.9117 28.5996,75.745 23.5,76.5C 23.1667,75.1667 22.8333,75.1667 22.5,76.5C 22.1667,76.5 21.8333,76.5 21.5,76.5C 21.631,75.7611 21.4643,75.0944 21,74.5C 20.3292,75.2524 19.4959,75.5858 18.5,75.5C 19.8146,74.1054 19.4812,73.1054 17.5,72.5C 17.5,71.8333 17.1667,71.5 16.5,71.5C 16.1667,70.8333 15.8333,70.1667 15.5,69.5C 20.7647,68.8166 26.098,68.6499 31.5,69C 33.6526,68.9005 35.3192,68.0672 36.5,66.5C 44.3955,62.7513 48.8955,56.418 50,47.5C 50.6708,48.2524 51.5041,48.5858 52.5,48.5 Z"/></g>
<g><path style="opacity:0.004" fill="#58280b" d="M 16.5,71.5 C 17.1667,71.5 17.5,71.8333 17.5,72.5C 17.44,73.0431 17.1067,73.3764 16.5,73.5C 15.2267,72.7435 15.2267,72.0768 16.5,71.5 Z"/></g>
<g><path style="opacity:1" fill="#f52118" d="M 52.5,44.5 C 53.3382,44.8417 53.6716,45.5084 53.5,46.5C 52.8333,50.5 52.1667,54.5 51.5,58.5C 50.8333,59.8333 50.1667,61.1667 49.5,62.5C 41.5499,72.8255 31.5499,77.4921 19.5,76.5C 20.1667,76.5 20.8333,76.5 21.5,76.5C 21.8333,76.5 22.1667,76.5 22.5,76.5C 22.8333,76.5 23.1667,76.5 23.5,76.5C 28.5996,75.745 33.2663,73.9117 37.5,71C 44.8916,65.0377 49.8916,57.5377 52.5,48.5C 52.5,47.8333 52.5,47.1667 52.5,46.5C 52.5,45.8333 52.5,45.1667 52.5,44.5 Z"/></g>
<g><path style="opacity:0.012" fill="#a90000" d="M 65.5,75.5 C 65.8333,75.5 66.1667,75.5 66.5,75.5C 66.3147,76.1701 65.9813,76.1701 65.5,75.5 Z"/></g>
<g><path style="opacity:0.996" fill="#fe5f54" d="M 49.5,62.5 C 50.525,62.8966 50.6917,63.5632 50,64.5C 47.295,67.0362 44.795,69.7029 42.5,72.5C 39.3325,73.5854 36.6659,75.4187 34.5,78C 26.1805,79.0952 17.8471,79.9285 9.5,80.5C 11.5418,78.1703 14.2084,77.0036 17.5,77C 11.136,76.0188 11.4694,75.5188 18.5,75.5C 18.5,76.1667 18.8333,76.5 19.5,76.5C 31.5499,77.4921 41.5499,72.8255 49.5,62.5 Z"/></g>
<g><path style="opacity:0.012" fill="#725622" d="M 58.5,80.5 C 58.5,80.1667 58.5,79.8333 58.5,79.5C 59.1667,79.5 59.8333,79.5 60.5,79.5C 60.1583,80.3382 59.4916,80.6716 58.5,80.5 Z"/></g>
<g><path style="opacity:0.012" fill="#a16334" d="M 56.5,81.5 C 56.5,81.1667 56.5,80.8333 56.5,80.5C 57.1667,80.5 57.8333,80.5 58.5,80.5C 58.1583,81.3382 57.4916,81.6716 56.5,81.5 Z"/></g>
<g><path style="opacity:0.016" fill="#ec512b" d="M 8.5,80.5 C 7.73209,81.2625 7.23209,82.2625 7,83.5C 6.21948,82.0563 6.38615,80.723 7.5,79.5C 8.10667,79.6236 8.44001,79.9569 8.5,80.5 Z"/></g>
<g><path style="opacity:0.99" fill="#ce2015" d="M 61.5,74.5 C 60.1767,76.6864 58.1767,78.1864 55.5,79C 50.5359,80.3709 45.8692,82.2043 41.5,84.5C 42.209,85.404 43.209,85.7373 44.5,85.5C 43.4324,86.4345 42.099,86.7678 40.5,86.5C 33.024,86.1845 25.3574,86.1845 17.5,86.5C 15.8333,85.1667 14.1667,85.1667 12.5,86.5C 12.1667,86.5 11.8333,86.5 11.5,86.5C 11.5,86.1667 11.5,85.8333 11.5,85.5C 11.5,85.1667 11.5,84.8333 11.5,84.5C 18.5002,84.0769 25.5002,83.5769 32.5,83C 36.0899,82.6894 39.4233,81.856 42.5,80.5C 45.1522,80.5905 47.4855,79.9238 49.5,78.5C 51.1992,78.6602 52.8659,78.4935 54.5,78C 56.5766,76.295 58.91,75.1283 61.5,74.5 Z"/></g>
<g><path style="opacity:0.999" fill="#e60e0b" d="M 60.5,64.5 C 57.3388,71.9772 51.6721,76.6439 43.5,78.5C 42.7025,78.9569 42.3691,79.6236 42.5,80.5C 39.4233,81.856 36.0899,82.6894 32.5,83C 25.5002,83.5769 18.5002,84.0769 11.5,84.5C 10.1667,84.8333 10.1667,85.1667 11.5,85.5C 11.5,85.8333 11.5,86.1667 11.5,86.5C 10.2438,86.5386 9.24382,86.0386 8.5,85C 9.59809,84.2303 9.59809,83.397 8.5,82.5C 9.58317,82.5394 10.5832,82.8728 11.5,83.5C 18.1166,82.7038 24.7833,82.2038 31.5,82C 36.5533,79.9045 41.5533,77.7379 46.5,75.5C 52.3037,73.2667 56.9703,69.6 60.5,64.5 Z"/></g>
<g><path style="opacity:0.016" fill="#a92d2a" d="M 51.5,83.5 C 51.5,83.1667 51.5,82.8333 51.5,82.5C 52.1667,82.5 52.8333,82.5 53.5,82.5C 53.1583,83.3382 52.4916,83.6716 51.5,83.5 Z"/></g>
<g><path style="opacity:0.012" fill="#b30001" d="M 48.5,83.5 C 49.5,83.5 50.5,83.5 51.5,83.5C 50.5,84.8333 49.5,84.8333 48.5,83.5 Z"/></g>
<g><path style="opacity:0.016" fill="#c45043" d="M 44.5,85.5 C 44.5,85.1667 44.5,84.8333 44.5,84.5C 48.5,84.8333 48.5,85.1667 44.5,85.5 Z"/></g>
<g><path style="opacity:0.006" fill="#e60000" d="M 12.5,86.5 C 14.1667,86.5 15.8333,86.5 17.5,86.5C 15.8333,87.8333 14.1667,87.8333 12.5,86.5 Z"/></g>
<g><path style="opacity:0.008" fill="#e02013" d="M 40.5,86.5 C 38.7116,87.6225 36.7116,87.7891 34.5,87C 36.4727,86.5045 38.4727,86.3379 40.5,86.5 Z"/></g>
<g><path style="opacity:0.012" fill="#9a1904" d="M 18.5,88.5 C 23.3158,87.3503 28.3158,87.1837 33.5,88C 28.5111,88.4993 23.5111,88.6659 18.5,88.5 Z"/></g>
</svg>
