<?xml version="1.0" encoding="UTF-8"?>
<!DOCTYPE svg PUBLIC "-//W3C//DTD SVG 1.1//EN" "http://www.w3.org/Graphics/SVG/1.1/DTD/svg11.dtd">
<svg xmlns="http://www.w3.org/2000/svg" version="1.1" width="100px" height="100px" style="shape-rendering:geometricPrecision; text-rendering:geometricPrecision; image-rendering:optimizeQuality; fill-rule:evenodd; clip-rule:evenodd" xmlns:xlink="http://www.w3.org/1999/xlink">
<g><path style="opacity:0.004" fill="#fffe87" d="M 25.5,5.5 C 40.9946,4.33868 56.6612,4.17202 72.5,5C 56.8369,5.49992 41.1702,5.66659 25.5,5.5 Z"/></g>
<g><path style="opacity:0.932" fill="#cf813e" d="M 47.5,6.5 C 56.3494,6.17364 65.0161,6.50698 73.5,7.5C 71.6675,8.24848 70.0009,9.24848 68.5,10.5C 65.7508,10.2739 63.0841,10.6072 60.5,11.5C 59.1667,10.5 57.8333,9.5 56.5,8.5C 54.8405,9.17159 53.5072,10.1716 52.5,11.5C 49.2893,11.012 46.456,11.6787 44,13.5C 41.9782,12.1982 40.4782,10.5315 39.5,8.5C 41.0699,7.44072 42.4032,7.94072 43.5,10C 45.5,10.6667 47.5,10.6667 49.5,10C 48.1772,9.18405 47.5106,8.01739 47.5,6.5 Z"/></g>
<g><path style="opacity:0.992" fill="#e2bb9b" d="M 24.5,7.5 C 31.9818,6.50797 39.6484,6.17464 47.5,6.5C 47.5106,8.01739 48.1772,9.18405 49.5,10C 47.5,10.6667 45.5,10.6667 43.5,10C 42.4032,7.94072 41.0699,7.44072 39.5,8.5C 34.2613,12.7229 29.2613,12.3896 24.5,7.5 Z"/></g>
<g><path style="opacity:1" fill="#b05219" d="M 24.5,7.5 C 29.2613,12.3896 34.2613,12.7229 39.5,8.5C 40.4782,10.5315 41.9782,12.1982 44,13.5C 46.456,11.6787 49.2893,11.012 52.5,11.5C 52.5,13.8333 52.5,16.1667 52.5,18.5C 48.3966,17.7691 44.8966,18.7691 42,21.5C 40.9562,19.2852 40.2895,16.9519 40,14.5C 38.2942,15.3079 37.4609,16.6412 37.5,18.5C 34.2869,18.19 31.2869,18.5233 28.5,19.5C 26.3176,20.8233 25.6509,22.4899 26.5,24.5C 29.5046,26.2994 32.838,26.9661 36.5,26.5C 36.5,26.8333 36.5,27.1667 36.5,27.5C 32.3705,27.5343 28.3705,28.201 24.5,29.5C 24.5,22.1667 24.5,14.8333 24.5,7.5 Z"/></g>
<g><path style="opacity:0.882" fill="#7e2f10" d="M 73.5,7.5 C 73.5,20.8333 73.5,34.1667 73.5,47.5C 72.8333,44.8333 72.1667,42.1667 71.5,39.5C 70.8897,37.5659 69.8897,35.8993 68.5,34.5C 67.7691,30.3966 68.7691,26.8966 71.5,24C 66.7982,23.8283 62.1315,23.3283 57.5,22.5C 60.1755,18.8476 63.8422,17.5142 68.5,18.5C 68.5,15.8333 68.5,13.1667 68.5,10.5C 70.0009,9.24848 71.6675,8.24848 73.5,7.5 Z"/></g>
<g><path style="opacity:1" fill="#d3ad9a" d="M 26.5,24.5 C 30.6463,23.353 34.9796,23.1864 39.5,24C 38.6266,25.045 37.6266,25.8783 36.5,26.5C 32.838,26.9661 29.5046,26.2994 26.5,24.5 Z"/></g>
<g><path style="opacity:1" fill="#943912" d="M 68.5,10.5 C 68.5,13.1667 68.5,15.8333 68.5,18.5C 63.8422,17.5142 60.1755,18.8476 57.5,22.5C 62.1315,23.3283 66.7982,23.8283 71.5,24C 68.7691,26.8966 67.7691,30.3966 68.5,34.5C 64.3966,33.7691 60.8966,34.7691 58,37.5C 57.7285,32.9244 56.8951,28.5911 55.5,24.5C 51.0189,23.3516 46.3522,23.1849 41.5,24C 44.4225,27.1733 48.0892,28.34 52.5,27.5C 52.5,29.8333 52.5,32.1667 52.5,34.5C 48.2473,33.8075 44.5807,34.8075 41.5,37.5C 41.1333,32.1352 40.4666,26.8018 39.5,21.5C 36.1232,19.6751 32.4565,19.0084 28.5,19.5C 31.2869,18.5233 34.2869,18.19 37.5,18.5C 37.4609,16.6412 38.2942,15.3079 40,14.5C 40.2895,16.9519 40.9562,19.2852 42,21.5C 44.8966,18.7691 48.3966,17.7691 52.5,18.5C 52.5,16.1667 52.5,13.8333 52.5,11.5C 53.5072,10.1716 54.8405,9.17159 56.5,8.5C 57.8333,9.5 59.1667,10.5 60.5,11.5C 63.0841,10.6072 65.7508,10.2739 68.5,10.5 Z"/></g>
<g><path style="opacity:1" fill="#ba6f49" d="M 55.5,24.5 C 54.1667,25.1667 53.1667,26.1667 52.5,27.5C 48.0892,28.34 44.4225,27.1733 41.5,24C 46.3522,23.1849 51.0189,23.3516 55.5,24.5 Z"/></g>
<g><path style="opacity:1" fill="#c49789" d="M 26.5,39.5 C 30.8461,39.3343 35.1794,39.501 39.5,40C 38.6195,40.7083 37.9528,41.5416 37.5,42.5C 34.4816,42.6646 31.4816,42.498 28.5,42C 27.6195,41.2917 26.9528,40.4584 26.5,39.5 Z"/></g>
<g><path style="opacity:1" fill="#6a1f0e" d="M 55.5,24.5 C 56.8951,28.5911 57.7285,32.9244 58,37.5C 60.8966,34.7691 64.3966,33.7691 68.5,34.5C 69.8897,35.8993 70.8897,37.5659 71.5,39.5C 66.8333,39.5 62.1667,39.5 57.5,39.5C 57.5,42.8333 57.5,46.1667 57.5,49.5C 55.8333,49.5 54.1667,49.5 52.5,49.5C 51.8144,45.713 52.8144,42.5463 55.5,40C 50.9132,39.2009 46.4132,39.3676 42,40.5C 41.5172,39.552 41.3505,38.552 41.5,37.5C 44.5807,34.8075 48.2473,33.8075 52.5,34.5C 52.5,32.1667 52.5,29.8333 52.5,27.5C 53.1667,26.1667 54.1667,25.1667 55.5,24.5 Z"/></g>
<g><path style="opacity:0.997" fill="#933211" d="M 36.5,27.5 C 36.5,29.8333 36.5,32.1667 36.5,34.5C 31.5815,33.3719 27.9148,34.8719 25.5,39C 25.7284,39.3988 26.0618,39.5654 26.5,39.5C 26.9528,40.4584 27.6195,41.2917 28.5,42C 31.4816,42.498 34.4816,42.6646 37.5,42.5C 36.6586,44.3792 36.3253,46.3792 36.5,48.5C 32.8333,48.5 29.1667,48.5 25.5,48.5C 25.1667,48.5 24.8333,48.5 24.5,48.5C 24.5,42.1667 24.5,35.8333 24.5,29.5C 28.3705,28.201 32.3705,27.5343 36.5,27.5 Z"/></g>
<g><path style="opacity:1" fill="#822c14" d="M 28.5,19.5 C 32.4565,19.0084 36.1232,19.6751 39.5,21.5C 40.4666,26.8018 41.1333,32.1352 41.5,37.5C 41.3505,38.552 41.5172,39.552 42,40.5C 46.4132,39.3676 50.9132,39.2009 55.5,40C 52.8144,42.5463 51.8144,45.713 52.5,49.5C 49.8333,49.5 47.1667,49.5 44.5,49.5C 37.9779,49.8235 31.6446,49.4902 25.5,48.5C 29.1667,48.5 32.8333,48.5 36.5,48.5C 36.3253,46.3792 36.6586,44.3792 37.5,42.5C 37.9528,41.5416 38.6195,40.7083 39.5,40C 35.1794,39.501 30.8461,39.3343 26.5,39.5C 26.0618,39.5654 25.7284,39.3988 25.5,39C 27.9148,34.8719 31.5815,33.3719 36.5,34.5C 36.5,32.1667 36.5,29.8333 36.5,27.5C 36.5,27.1667 36.5,26.8333 36.5,26.5C 37.6266,25.8783 38.6266,25.045 39.5,24C 34.9796,23.1864 30.6463,23.353 26.5,24.5C 25.6509,22.4899 26.3176,20.8233 28.5,19.5 Z"/></g>
<g><path style="opacity:0.824" fill="#873018" d="M 75.5,50.5 C 75.1667,50.5 74.8333,50.5 74.5,50.5C 74.1667,49.1667 73.8333,49.1667 73.5,50.5C 63.6522,50.8271 53.9856,50.4938 44.5,49.5C 47.1667,49.5 49.8333,49.5 52.5,49.5C 54.1667,49.5 55.8333,49.5 57.5,49.5C 57.5,46.1667 57.5,42.8333 57.5,39.5C 62.1667,39.5 66.8333,39.5 71.5,39.5C 72.1667,42.1667 72.8333,44.8333 73.5,47.5C 74.3413,34.9093 74.8413,21.576 75,7.5C 75.1757,21.7414 75.6757,35.9081 76.5,50C 76.2716,50.3988 75.9382,50.5654 75.5,50.5 Z"/></g>
<g><path style="opacity:1" fill="#eccaad" d="M 24.5,48.5 C 24.8333,48.5 25.1667,48.5 25.5,48.5C 31.6446,49.4902 37.9779,49.8235 44.5,49.5C 53.9856,50.4938 63.6522,50.8271 73.5,50.5C 73.8333,50.5 74.1667,50.5 74.5,50.5C 74.8333,50.5 75.1667,50.5 75.5,50.5C 76.6693,53.5113 78.336,56.178 80.5,58.5C 80.5,58.8333 80.5,59.1667 80.5,59.5C 80.44,60.0431 80.1067,60.3764 79.5,60.5C 77.5879,58.3428 75.9213,56.0094 74.5,53.5C 64.8795,51.9585 55.2128,51.4585 45.5,52C 50.3481,52.0591 55.0148,52.7258 59.5,54C 56.853,55.2989 54.1863,56.6322 51.5,58C 48.3348,57.6327 45.3348,57.7994 42.5,58.5C 35.8333,55.8333 29.1667,53.1667 22.5,50.5C 22.3334,36.1628 22.5001,21.8295 23,7.5C 23.1689,21.3395 23.6689,35.0061 24.5,48.5 Z"/></g>
<g><path style="opacity:1" fill="#e4ceb0" d="M 80.5,59.5 C 80.8333,59.5 81.1667,59.5 81.5,59.5C 81.5,60.5 81.5,61.5 81.5,62.5C 80.8333,62.5 80.5,62.8333 80.5,63.5C 79.8333,63.5 79.5,63.8333 79.5,64.5C 78.1667,64.8333 78.1667,65.1667 79.5,65.5C 79.189,66.4778 78.5223,67.1445 77.5,67.5C 76.8333,75.3229 76.1666,82.9896 75.5,90.5C 75.8245,83.3134 75.4912,76.3134 74.5,69.5C 74.2893,67.5759 73.6226,67.2426 72.5,68.5C 70.2625,69.5366 67.9291,69.7033 65.5,69C 57.6892,65.5743 50.0225,62.0743 42.5,58.5C 45.3348,57.7994 48.3348,57.6327 51.5,58C 54.1863,56.6322 56.853,55.2989 59.5,54C 55.0148,52.7258 50.3481,52.0591 45.5,52C 55.2128,51.4585 64.8795,51.9585 74.5,53.5C 75.9213,56.0094 77.5879,58.3428 79.5,60.5C 80.1067,60.3764 80.44,60.0431 80.5,59.5 Z"/></g>
<g><path style="opacity:0.999" fill="#d21110" d="M 52.5,70.5 C 43.5822,70.1828 34.7489,70.5161 26,71.5C 24.6326,67.3004 24.1326,62.9671 24.5,58.5C 24.5,57.1667 24.5,55.8333 24.5,54.5C 26.1992,54.3398 27.8659,54.5065 29.5,55C 30.5,56.6667 31.8333,58 33.5,59C 39.9295,62.8722 46.2628,66.7055 52.5,70.5 Z"/></g>
<g><path style="opacity:0.016" fill="#ffe2b9" d="M 82.5,59.5 C 82.1667,59.5 81.8333,59.5 81.5,59.5C 81.5,58.8333 81.1667,58.5 80.5,58.5C 81.3013,56.2071 81.968,56.5404 82.5,59.5 Z"/></g>
<g><path style="opacity:0.012" fill="#dedd95" d="M 82.5,59.5 C 83.8333,60.5 83.8333,61.5 82.5,62.5C 82.5,61.5 82.5,60.5 82.5,59.5 Z"/></g>
<g><path style="opacity:0.012" fill="#feaaa9" d="M 81.5,62.5 C 81.8333,62.5 82.1667,62.5 82.5,62.5C 82.3147,63.1701 81.9813,63.1701 81.5,62.5 Z"/></g>
<g><path style="opacity:0.004" fill="#fefffe" d="M 80.5,63.5 C 80.8333,63.5 81.1667,63.5 81.5,63.5C 81.3147,64.1701 80.9813,64.1701 80.5,63.5 Z"/></g>
<g><path style="opacity:0.008" fill="#fefffe" d="M 79.5,64.5 C 79.8333,64.5 80.1667,64.5 80.5,64.5C 80.3147,65.1701 79.9813,65.1701 79.5,64.5 Z"/></g>
<g><path style="opacity:0.999" fill="#c3180f" d="M 22.5,50.5 C 29.1667,53.1667 35.8333,55.8333 42.5,58.5C 50.0225,62.0743 57.6892,65.5743 65.5,69C 67.9291,69.7033 70.2625,69.5366 72.5,68.5C 72.5,71.5 72.5,74.5 72.5,77.5C 71.5,77.5 70.5,77.5 69.5,77.5C 63.7668,75.4712 58.1002,73.1379 52.5,70.5C 46.2628,66.7055 39.9295,62.8722 33.5,59C 31.8333,58 30.5,56.6667 29.5,55C 27.8659,54.5065 26.1992,54.3398 24.5,54.5C 24.5,55.8333 24.5,57.1667 24.5,58.5C 23.8333,60.8333 23.1667,63.1667 22.5,65.5C 22.5,60.5 22.5,55.5 22.5,50.5 Z"/></g>
<g><path style="opacity:1" fill="#d3200f" d="M 24.5,58.5 C 24.1326,62.9671 24.6326,67.3004 26,71.5C 34.7489,70.5161 43.5822,70.1828 52.5,70.5C 58.1002,73.1379 63.7668,75.4712 69.5,77.5C 55.1748,76.6225 40.8415,76.4558 26.5,77C 25.9558,77.7172 25.2891,78.2172 24.5,78.5C 23.8333,74.5 23.1667,70.5 22.5,66.5C 22.5,66.1667 22.5,65.8333 22.5,65.5C 23.1667,63.1667 23.8333,60.8333 24.5,58.5 Z"/></g>
<g><path style="opacity:0.999" fill="#d4280e" d="M 74.5,69.5 C 74.5,72.5 74.5,75.5 74.5,78.5C 72.6687,79.9949 70.502,80.6616 68,80.5C 54.1809,79.4148 40.3476,79.2482 26.5,80C 25.7476,80.6708 25.4142,81.5041 25.5,82.5C 24.5655,81.4324 24.2322,80.099 24.5,78.5C 25.2891,78.2172 25.9558,77.7172 26.5,77C 40.8415,76.4558 55.1748,76.6225 69.5,77.5C 70.5,77.5 71.5,77.5 72.5,77.5C 72.5,74.5 72.5,71.5 72.5,68.5C 73.6226,67.2426 74.2893,67.5759 74.5,69.5 Z"/></g>
<g><path style="opacity:1" fill="#d52f0e" d="M 74.5,78.5 C 74.5,82.1667 74.5,85.8333 74.5,89.5C 73.5084,89.6716 72.8417,89.3382 72.5,88.5C 72.5,86.8333 72.5,85.1667 72.5,83.5C 61.8392,83.7493 51.5059,83.4159 41.5,82.5C 36.3016,83.1435 31.1349,83.8102 26,84.5C 25.5357,83.9056 25.369,83.2389 25.5,82.5C 25.4142,81.5041 25.7476,80.6708 26.5,80C 40.3476,79.2482 54.1809,79.4148 68,80.5C 70.502,80.6616 72.6687,79.9949 74.5,78.5 Z"/></g>
<g><path style="opacity:1" fill="#d8350e" d="M 22.5,66.5 C 23.1667,70.5 23.8333,74.5 24.5,78.5C 24.2322,80.099 24.5655,81.4324 25.5,82.5C 25.369,83.2389 25.5357,83.9056 26,84.5C 31.1349,83.8102 36.3016,83.1435 41.5,82.5C 51.5059,83.4159 61.8392,83.7493 72.5,83.5C 72.5,85.1667 72.5,86.8333 72.5,88.5C 56.1192,88.1961 39.7859,88.5294 23.5,89.5C 23.5654,89.0618 23.3988,88.7284 23,88.5C 22.3333,91.1667 21.6667,91.1667 21,88.5C 20.3333,75.1667 20.3333,61.8333 21,48.5C 21.3333,61.5 21.6667,74.5 22,87.5C 22.4996,80.5079 22.6663,73.5079 22.5,66.5 Z"/></g>
<g><path style="opacity:1" fill="#b72409" d="M 72.5,88.5 C 72.8417,89.3382 73.5084,89.6716 74.5,89.5C 74.5,89.8333 74.5,90.1667 74.5,90.5C 73.1667,90.8333 73.1667,91.1667 74.5,91.5C 74.0269,92.9063 73.0269,93.573 71.5,93.5C 56.5,92.1667 41.5,92.1667 26.5,93.5C 24.6214,93.6068 24.2881,93.1068 25.5,92C 24.6195,91.2917 23.9528,90.4584 23.5,89.5C 39.7859,88.5294 56.1192,88.1961 72.5,88.5 Z"/></g>
<g><path style="opacity:0.004" fill="#fe0000" d="M 74.5,90.5 C 74.8333,90.5 75.1667,90.5 75.5,90.5C 75.3147,91.1701 74.9813,91.1701 74.5,90.5 Z"/></g>
<g><path style="opacity:0.008" fill="#a30003" d="M 26.5,93.5 C 41.5,93.5 56.5,93.5 71.5,93.5C 56.5,94.8333 41.5,94.8333 26.5,93.5 Z"/></g>
</svg>
