<?xml version="1.0" encoding="UTF-8"?>
<!DOCTYPE svg PUBLIC "-//W3C//DTD SVG 1.1//EN" "http://www.w3.org/Graphics/SVG/1.1/DTD/svg11.dtd">
<svg xmlns="http://www.w3.org/2000/svg" version="1.1" width="100px" height="100px" style="shape-rendering:geometricPrecision; text-rendering:geometricPrecision; image-rendering:optimizeQuality; fill-rule:evenodd; clip-rule:evenodd" xmlns:xlink="http://www.w3.org/1999/xlink">
<g><path style="opacity:0.989" fill="#cd7934" d="M 61.5,12.5 C 65.813,11.4869 68.1463,13.1536 68.5,17.5C 68.5,17.8333 68.5,18.1667 68.5,18.5C 67.1667,17.5 65.8333,16.5 64.5,15.5C 61.6702,13.9652 60.3369,14.9652 60.5,18.5C 59.5655,17.4324 59.2322,16.099 59.5,14.5C 59.5,13.1667 60.1667,12.5 61.5,12.5 Z"/></g>
<g><path style="opacity:1" fill="#c67533" d="M 59.5,14.5 C 59.2322,16.099 59.5655,17.4324 60.5,18.5C 62.099,18.2322 63.4324,18.5655 64.5,19.5C 63.1667,20.5 61.8333,21.5 60.5,22.5C 60.5,21.8333 60.1667,21.5 59.5,21.5C 59.1667,20.8333 58.8333,20.1667 58.5,19.5C 58.2155,17.5853 58.5489,15.9187 59.5,14.5 Z"/></g>
<g><path style="opacity:1" fill="#c37942" d="M 62.5,9.5 C 64.205,10.5353 65.8716,10.5353 67.5,9.5C 67.2936,11.6102 68.1269,13.6102 70,15.5C 70.3333,14.8333 70.6667,14.1667 71,13.5C 72.1545,14.7433 73.4878,15.7433 75,16.5C 75.4696,17.5768 75.3029,18.5768 74.5,19.5C 72.7028,18.2702 70.7028,17.6036 68.5,17.5C 68.1463,13.1536 65.813,11.4869 61.5,12.5C 62.1098,11.609 62.4431,10.609 62.5,9.5 Z"/></g>
<g><path style="opacity:0.588" fill="#d99c7f" d="M 58.5,11.5 C 58.3404,13.153 57.6737,14.4863 56.5,15.5C 55.065,17.4011 53.3983,17.7345 51.5,16.5C 52.5,14.8333 53.8333,13.5 55.5,12.5C 55.8333,13.8333 56.1667,13.8333 56.5,12.5C 57.1667,12.1667 57.8333,11.8333 58.5,11.5 Z"/></g>
<g><path style="opacity:0.998" fill="#da7f32" d="M 62.5,9.5 C 62.4431,10.609 62.1098,11.609 61.5,12.5C 60.1667,12.5 59.5,13.1667 59.5,14.5C 58.5489,15.9187 58.2155,17.5853 58.5,19.5C 57.609,18.8902 56.609,18.5569 55.5,18.5C 56.1098,17.609 56.4431,16.609 56.5,15.5C 57.6737,14.4863 58.3404,13.153 58.5,11.5C 57.8333,11.8333 57.1667,12.1667 56.5,12.5C 56.1667,12.5 55.8333,12.5 55.5,12.5C 56.9155,9.04079 59.2488,8.04079 62.5,9.5 Z"/></g>
<g><path style="opacity:1" fill="#58160a" d="M 64.5,15.5 C 65.6298,17.3146 66.2964,19.3146 66.5,21.5C 66.1667,21.5 65.8333,21.5 65.5,21.5C 65.6716,20.5084 65.3382,19.8417 64.5,19.5C 63.4324,18.5655 62.099,18.2322 60.5,18.5C 60.3369,14.9652 61.6702,13.9652 64.5,15.5 Z"/></g>
<g><path style="opacity:0.994" fill="#c0702f" d="M 68.5,17.5 C 70.7028,17.6036 72.7028,18.2702 74.5,19.5C 75.1667,21.5 75.8333,23.5 76.5,25.5C 75.9202,27.7488 74.5869,29.4154 72.5,30.5C 72.5,30.1667 72.5,29.8333 72.5,29.5C 70.7354,28.5386 68.7354,28.2053 66.5,28.5C 66.5,28.1667 66.5,27.8333 66.5,27.5C 67.8333,27.5 69.1667,27.5 70.5,27.5C 70.7373,26.209 70.404,25.209 69.5,24.5C 70.8647,22.2492 70.5314,20.2492 68.5,18.5C 68.5,18.1667 68.5,17.8333 68.5,17.5 Z"/></g>
<g><path style="opacity:1" fill="#deb187" d="M 56.5,15.5 C 56.4431,16.609 56.1098,17.609 55.5,18.5C 52.9066,19.7536 50.5732,21.4202 48.5,23.5C 48.5,22.8333 48.5,22.1667 48.5,21.5C 47.5326,22.8062 46.1993,23.4729 44.5,23.5C 46.5,20.8333 48.8333,18.5 51.5,16.5C 53.3983,17.7345 55.065,17.4011 56.5,15.5 Z"/></g>
<g><path style="opacity:1" fill="#832507" d="M 64.5,15.5 C 65.8333,16.5 67.1667,17.5 68.5,18.5C 70.5314,20.2492 70.8647,22.2492 69.5,24.5C 67.5,24.5 66.5,23.5 66.5,21.5C 66.2964,19.3146 65.6298,17.3146 64.5,15.5 Z"/></g>
<g><path style="opacity:0.016" fill="#d7703a" d="M 76.5,25.5 C 76.3379,23.4727 76.5045,21.4727 77,19.5C 77.7891,21.7116 77.6225,23.7116 76.5,25.5 Z"/></g>
<g><path style="opacity:1" fill="#cb7835" d="M 65.5,21.5 C 65.8333,21.5 66.1667,21.5 66.5,21.5C 66.5,23.5 67.5,24.5 69.5,24.5C 70.404,25.209 70.7373,26.209 70.5,27.5C 69.1667,27.5 67.8333,27.5 66.5,27.5C 66.1667,27.5 65.8333,27.5 65.5,27.5C 64.3065,26.7281 63.3065,25.7281 62.5,24.5C 63.6935,23.7281 64.6935,22.7281 65.5,21.5 Z"/></g>
<g><path style="opacity:1" fill="#ca6814" d="M 55.5,18.5 C 56.609,18.5569 57.609,18.8902 58.5,19.5C 58.8333,20.1667 59.1667,20.8333 59.5,21.5C 58.448,21.3505 57.448,21.5172 56.5,22C 54.9625,23.7073 53.2959,25.2073 51.5,26.5C 50.1667,26.8333 48.8333,27.1667 47.5,27.5C 50.1667,24.5 52.8333,21.5 55.5,18.5 Z"/></g>
<g><path style="opacity:1" fill="#250c02" d="M 64.5,19.5 C 65.3382,19.8417 65.6716,20.5084 65.5,21.5C 64.6935,22.7281 63.6935,23.7281 62.5,24.5C 59.1667,27.1667 56.1667,30.1667 53.5,33.5C 50.5,36.1667 47.5,38.8333 44.5,41.5C 44.1667,41.5 43.8333,41.5 43.5,41.5C 46.5,38.1667 49.5,34.8333 52.5,31.5C 54.1667,30.5 55.5,29.1667 56.5,27.5C 57.8333,25.8333 59.1667,24.1667 60.5,22.5C 61.8333,21.5 63.1667,20.5 64.5,19.5 Z"/></g>
<g><path style="opacity:1" fill="#a9400a" d="M 59.5,21.5 C 60.1667,21.5 60.5,21.8333 60.5,22.5C 59.1667,24.1667 57.8333,25.8333 56.5,27.5C 53.5466,27.1496 51.2133,28.1496 49.5,30.5C 49.5,29.8333 49.5,29.1667 49.5,28.5C 50.5,28.1667 51.1667,27.5 51.5,26.5C 53.2959,25.2073 54.9625,23.7073 56.5,22C 57.448,21.5172 58.448,21.3505 59.5,21.5 Z"/></g>
<g><path style="opacity:1" fill="#c45e12" d="M 51.5,26.5 C 51.1667,27.5 50.5,28.1667 49.5,28.5C 45.8333,31.1667 42.1667,33.8333 38.5,36.5C 41.1667,33.1667 44.1667,30.1667 47.5,27.5C 48.8333,27.1667 50.1667,26.8333 51.5,26.5 Z"/></g>
<g><path style="opacity:1" fill="#cd9681" d="M 48.5,21.5 C 48.5,22.1667 48.5,22.8333 48.5,23.5C 46.1667,26.5 43.5,29.1667 40.5,31.5C 40.5,30.8333 40.5,30.1667 40.5,29.5C 41.8333,29.1667 41.8333,28.8333 40.5,28.5C 40.1667,28.5 39.8333,28.5 39.5,28.5C 40.8333,26.5 42.5,24.8333 44.5,23.5C 46.1993,23.4729 47.5326,22.8062 48.5,21.5 Z"/></g>
<g><path style="opacity:1" fill="#b6510c" d="M 62.5,24.5 C 63.3065,25.7281 64.3065,26.7281 65.5,27.5C 64.209,27.2627 63.209,27.596 62.5,28.5C 59.8863,30.0857 57.2197,31.7524 54.5,33.5C 54.1667,33.5 53.8333,33.5 53.5,33.5C 56.1667,30.1667 59.1667,27.1667 62.5,24.5 Z"/></g>
<g><path style="opacity:1" fill="#9c3209" d="M 65.5,27.5 C 65.8333,27.5 66.1667,27.5 66.5,27.5C 66.5,27.8333 66.5,28.1667 66.5,28.5C 64.8212,28.2852 63.8212,28.9519 63.5,30.5C 59.5617,33.6187 55.895,36.952 52.5,40.5C 52.1667,40.5 51.8333,40.5 51.5,40.5C 51.5,40.1667 51.5,39.8333 51.5,39.5C 55.3176,36.0698 58.9843,32.4032 62.5,28.5C 63.209,27.596 64.209,27.2627 65.5,27.5 Z"/></g>
<g><path style="opacity:1" fill="#8e250a" d="M 63.5,30.5 C 63.984,32.8456 64.3173,35.1789 64.5,37.5C 64.8333,37.5 65.1667,37.5 65.5,37.5C 64.8333,38.8333 63.8333,39.8333 62.5,40.5C 62.1788,38.9519 61.1788,38.2852 59.5,38.5C 59.7148,40.1788 59.0481,41.1788 57.5,41.5C 56.3656,39.2187 55.0322,39.2187 53.5,41.5C 53.1667,41.5 52.8333,41.5 52.5,41.5C 52.5,41.1667 52.5,40.8333 52.5,40.5C 55.895,36.952 59.5617,33.6187 63.5,30.5 Z"/></g>
<g><path style="opacity:0.997" fill="#873014" d="M 66.5,28.5 C 68.7354,28.2053 70.7354,28.5386 72.5,29.5C 71.1667,29.8333 71.1667,30.1667 72.5,30.5C 70.5,33.1667 68.1667,35.5 65.5,37.5C 65.1667,36.1667 64.8333,36.1667 64.5,37.5C 64.3173,35.1789 63.984,32.8456 63.5,30.5C 63.8212,28.9519 64.8212,28.2852 66.5,28.5 Z"/></g>
<g><path style="opacity:0.996" fill="#cd783a" d="M 55.5,18.5 C 52.8333,21.5 50.1667,24.5 47.5,27.5C 44.1667,30.1667 41.1667,33.1667 38.5,36.5C 36.7541,38.2516 34.7541,39.5849 32.5,40.5C 35.1667,37.5 37.8333,34.5 40.5,31.5C 43.5,29.1667 46.1667,26.5 48.5,23.5C 50.5732,21.4202 52.9066,19.7536 55.5,18.5 Z"/></g>
<g><path style="opacity:1" fill="#b1470b" d="M 62.5,28.5 C 58.9843,32.4032 55.3176,36.0698 51.5,39.5C 50.8333,39.5 50.1667,39.5 49.5,39.5C 51.1667,37.5 52.8333,35.5 54.5,33.5C 57.2197,31.7524 59.8863,30.0857 62.5,28.5 Z"/></g>
<g><path style="opacity:0.012" fill="#c35e4e" d="M 39.5,28.5 C 39.8333,28.5 40.1667,28.5 40.5,28.5C 40.5,28.8333 40.5,29.1667 40.5,29.5C 39.5,29.8333 38.8333,30.5 38.5,31.5C 37.8333,31.5 37.5,31.8333 37.5,32.5C 36.8333,32.5 36.5,32.8333 36.5,33.5C 35.8333,33.5 35.5,33.8333 35.5,34.5C 34.8333,34.5 34.5,34.8333 34.5,35.5C 33.8333,35.5 33.5,35.8333 33.5,36.5C 32.8333,36.5 32.5,36.8333 32.5,37.5C 31.8333,37.5 31.5,37.8333 31.5,38.5C 30.8333,38.5 30.5,38.8333 30.5,39.5C 29.8333,39.5 29.5,39.8333 29.5,40.5C 28.8333,40.5 28.5,40.8333 28.5,41.5C 27.8333,41.5 27.5,41.8333 27.5,42.5C 26.8333,42.5 26.5,42.8333 26.5,43.5C 25.8333,43.5 25.5,43.8333 25.5,44.5C 24.8333,44.5 24.5,44.8333 24.5,45.5C 23.8333,45.5 23.5,45.8333 23.5,46.5C 22.8333,46.5 22.5,46.8333 22.5,47.5C 21.8333,47.5 21.5,47.8333 21.5,48.5C 21.1667,48.5 20.8333,48.5 20.5,48.5C 26.1089,41.2224 32.4423,34.5557 39.5,28.5 Z"/></g>
<g><path style="opacity:1" fill="#852509" d="M 52.5,31.5 C 49.5,34.8333 46.5,38.1667 43.5,41.5C 41.5,43.1667 39.5,44.8333 37.5,46.5C 36.8333,46.5 36.1667,46.5 35.5,46.5C 39.3303,42.5014 42.997,38.3347 46.5,34C 48.4205,32.8777 50.4205,32.0444 52.5,31.5 Z"/></g>
<g><path style="opacity:1" fill="#99340b" d="M 56.5,27.5 C 55.5,29.1667 54.1667,30.5 52.5,31.5C 50.4205,32.0444 48.4205,32.8777 46.5,34C 42.997,38.3347 39.3303,42.5014 35.5,46.5C 35.1667,46.5 34.8333,46.5 34.5,46.5C 34.7215,44.3364 35.7215,42.6697 37.5,41.5C 40.8483,37.1529 44.8483,33.4863 49.5,30.5C 51.2133,28.1496 53.5466,27.1496 56.5,27.5 Z"/></g>
<g><path style="opacity:1" fill="#cb8e72" d="M 40.5,29.5 C 40.5,30.1667 40.5,30.8333 40.5,31.5C 37.8333,34.5 35.1667,37.5 32.5,40.5C 31.8333,40.8333 31.1667,41.1667 30.5,41.5C 30.5,41.1667 30.5,40.8333 30.5,40.5C 30.5,40.1667 30.5,39.8333 30.5,39.5C 31.1667,39.5 31.5,39.1667 31.5,38.5C 32.1667,38.5 32.5,38.1667 32.5,37.5C 33.1667,37.5 33.5,37.1667 33.5,36.5C 34.1667,36.5 34.5,36.1667 34.5,35.5C 35.1667,35.5 35.5,35.1667 35.5,34.5C 36.1667,34.5 36.5,34.1667 36.5,33.5C 37.1667,33.5 37.5,33.1667 37.5,32.5C 38.1667,32.5 38.5,32.1667 38.5,31.5C 38.8333,30.5 39.5,29.8333 40.5,29.5 Z"/></g>
<g><path style="opacity:1" fill="#b44910" d="M 49.5,28.5 C 49.5,29.1667 49.5,29.8333 49.5,30.5C 44.8483,33.4863 40.8483,37.1529 37.5,41.5C 34.9501,42.0568 32.9501,43.3901 31.5,45.5C 30.7611,45.631 30.0944,45.4643 29.5,45C 31.1412,43.871 32.1412,42.371 32.5,40.5C 34.7541,39.5849 36.7541,38.2516 38.5,36.5C 42.1667,33.8333 45.8333,31.1667 49.5,28.5 Z"/></g>
<g><path style="opacity:0.998" fill="#8c2a0c" d="M 57.5,41.5 C 56.6618,41.8417 56.3284,42.5084 56.5,43.5C 56.5,43.8333 56.5,44.1667 56.5,44.5C 55.5,44.8333 54.8333,45.5 54.5,46.5C 53.1667,47.1667 53.1667,47.8333 54.5,48.5C 53.1667,50.5 51.5,52.1667 49.5,53.5C 48.8333,53.5 48.5,53.1667 48.5,52.5C 48.5,51.8333 48.8333,51.5 49.5,51.5C 50.1667,51.5 50.5,51.1667 50.5,50.5C 51.1667,50.5 51.5,50.1667 51.5,49.5C 52.8146,47.8653 52.8146,46.1986 51.5,44.5C 52.1925,43.4822 52.8592,42.4822 53.5,41.5C 55.0322,39.2187 56.3656,39.2187 57.5,41.5 Z"/></g>
<g><path style="opacity:1" fill="#952e0a" d="M 51.5,40.5 C 51.8333,40.5 52.1667,40.5 52.5,40.5C 52.5,40.8333 52.5,41.1667 52.5,41.5C 50.6593,42.4023 49.326,43.7356 48.5,45.5C 45.5505,47.1153 42.8838,49.1153 40.5,51.5C 40.1667,51.5 39.8333,51.5 39.5,51.5C 39.8333,50.8333 40.1667,50.1667 40.5,49.5C 44.4819,46.8482 48.1486,43.8482 51.5,40.5 Z"/></g>
<g><path style="opacity:1" fill="#b84a0e" d="M 53.5,33.5 C 53.8333,33.5 54.1667,33.5 54.5,33.5C 52.8333,35.5 51.1667,37.5 49.5,39.5C 47.5,40.976 45.8334,42.8094 44.5,45C 43.255,45.7914 41.9217,46.2914 40.5,46.5C 41.8333,44.8333 43.1667,43.1667 44.5,41.5C 47.5,38.8333 50.5,36.1667 53.5,33.5 Z"/></g>
<g><path style="opacity:0.584" fill="#783e14" d="M 62.5,40.5 C 60.1667,43.5 57.5,46.1667 54.5,48.5C 54.5,47.8333 54.5,47.1667 54.5,46.5C 54.8333,45.5 55.5,44.8333 56.5,44.5C 57.8333,44.1667 57.8333,43.8333 56.5,43.5C 56.3284,42.5084 56.6618,41.8417 57.5,41.5C 59.0481,41.1788 59.7148,40.1788 59.5,38.5C 61.1788,38.2852 62.1788,38.9519 62.5,40.5 Z"/></g>
<g><path style="opacity:1" fill="#d2813f" d="M 86.5,46.5 C 86.6567,47.8734 86.49,49.2068 86,50.5C 85.9005,48.3474 85.0672,46.6808 83.5,45.5C 81.5,45.5 79.5,45.5 77.5,45.5C 77.5,45.1667 77.5,44.8333 77.5,44.5C 77.5,43.8333 77.1667,43.5 76.5,43.5C 76.1667,43.5 75.8333,43.5 75.5,43.5C 78.1001,40.5773 81.1001,40.0773 84.5,42C 83.8333,42.3333 83.1667,42.6667 82.5,43C 84.3237,43.66 85.657,44.8267 86.5,46.5 Z"/></g>
<g><path style="opacity:0.99" fill="#bd6a2f" d="M 77.5,45.5 C 79.5,45.5 81.5,45.5 83.5,45.5C 81.9236,46.1429 80.5903,47.1429 79.5,48.5C 79.6287,50.2161 79.962,51.8828 80.5,53.5C 79.609,54.1098 78.609,54.4431 77.5,54.5C 76.8333,54.5 76.5,54.1667 76.5,53.5C 76.1667,52.8333 75.8333,52.1667 75.5,51.5C 75.5,51.1667 75.5,50.8333 75.5,50.5C 75.3915,48.4862 76.0582,46.8195 77.5,45.5 Z"/></g>
<g><path style="opacity:1" fill="#b34c1f" d="M 32.5,40.5 C 32.1412,42.371 31.1412,43.871 29.5,45C 30.0944,45.4643 30.7611,45.631 31.5,45.5C 29.2118,48.4563 26.2118,50.123 22.5,50.5C 25.1667,47.5 27.8333,44.5 30.5,41.5C 31.1667,41.1667 31.8333,40.8333 32.5,40.5 Z"/></g>
<g><path style="opacity:1" fill="#7c210a" d="M 34.5,46.5 C 34.8333,46.5 35.1667,46.5 35.5,46.5C 36.1667,46.5 36.8333,46.5 37.5,46.5C 35.214,50.4707 31.8807,52.8041 27.5,53.5C 30.1395,51.5272 32.4728,49.1939 34.5,46.5 Z"/></g>
<g><path style="opacity:1" fill="#ac400d" d="M 49.5,39.5 C 50.1667,39.5 50.8333,39.5 51.5,39.5C 51.5,39.8333 51.5,40.1667 51.5,40.5C 48.1486,43.8482 44.4819,46.8482 40.5,49.5C 39.5,49.5 38.5,49.5 37.5,49.5C 38.1667,48.1667 39.1667,47.1667 40.5,46.5C 41.9217,46.2914 43.255,45.7914 44.5,45C 45.8334,42.8094 47.5,40.976 49.5,39.5 Z"/></g>
<g><path style="opacity:0.996" fill="#8b230c" d="M 52.5,41.5 C 52.8333,41.5 53.1667,41.5 53.5,41.5C 52.8592,42.4822 52.1925,43.4822 51.5,44.5C 52.8146,46.1986 52.8146,47.8653 51.5,49.5C 50.8333,49.5 50.5,49.8333 50.5,50.5C 49.8333,50.5 49.5,50.8333 49.5,51.5C 48.8333,51.5 48.5,51.8333 48.5,52.5C 47.8333,52.5 47.5,52.8333 47.5,53.5C 46.8333,53.5 46.5,53.8333 46.5,54.5C 46.1667,54.5 45.8333,54.5 45.5,54.5C 45.5,53.5 45.5,52.5 45.5,51.5C 46.2279,49.2654 47.5612,47.4321 49.5,46C 49.2716,45.6012 48.9382,45.4346 48.5,45.5C 49.326,43.7356 50.6593,42.4023 52.5,41.5 Z"/></g>
<g><path style="opacity:0.965" fill="#d58740" d="M 75.5,43.5 C 75.8333,43.5 76.1667,43.5 76.5,43.5C 77.1667,43.5 77.5,43.8333 77.5,44.5C 77.5,44.8333 77.5,45.1667 77.5,45.5C 76.0582,46.8195 75.3915,48.4862 75.5,50.5C 73.1667,50.5 70.8333,50.5 68.5,50.5C 68.5,50.1667 68.5,49.8333 68.5,49.5C 69.8333,49.1667 69.8333,48.8333 68.5,48.5C 70.5313,46.4776 72.8646,44.8109 75.5,43.5 Z"/></g>
<g><path style="opacity:1" fill="#832109" d="M 48.5,45.5 C 48.9382,45.4346 49.2716,45.6012 49.5,46C 47.5612,47.4321 46.2279,49.2654 45.5,51.5C 44.5,52.1667 43.5,52.8333 42.5,53.5C 42.5654,53.0618 42.3988,52.7284 42,52.5C 40.9609,53.7101 39.7942,54.7101 38.5,55.5C 38.1667,55.5 37.8333,55.5 37.5,55.5C 38.5,54.1667 39.5,52.8333 40.5,51.5C 42.8838,49.1153 45.5505,47.1153 48.5,45.5 Z"/></g>
<g><path style="opacity:0.651" fill="#bb652b" d="M 83.5,45.5 C 85.0672,46.6808 85.9005,48.3474 86,50.5C 86.49,49.2068 86.6567,47.8734 86.5,46.5C 87.1667,47.8333 87.8333,49.1667 88.5,50.5C 87.8505,52.4771 87.8505,54.3105 88.5,56C 88.1639,57.0299 87.4972,57.5299 86.5,57.5C 86.7723,52.442 84.4389,49.442 79.5,48.5C 80.5903,47.1429 81.9236,46.1429 83.5,45.5 Z"/></g>
<g><path style="opacity:1" fill="#a73a0e" d="M 37.5,49.5 C 38.5,49.5 39.5,49.5 40.5,49.5C 40.1667,50.1667 39.8333,50.8333 39.5,51.5C 37.6115,52.604 35.9448,53.9373 34.5,55.5C 33.5,55.5 32.5,55.5 31.5,55.5C 33.1667,53.1667 35.1667,51.1667 37.5,49.5 Z"/></g>
<g><path style="opacity:0.99" fill="#7f2211" d="M 45.5,51.5 C 45.5,52.5 45.5,53.5 45.5,54.5C 45.8333,55.8333 46.1667,55.8333 46.5,54.5C 47.1667,54.5 47.5,54.1667 47.5,53.5C 47.5,52.8333 47.8333,52.5 48.5,52.5C 48.5,53.1667 48.8333,53.5 49.5,53.5C 47.8333,55.8333 45.8333,57.8333 43.5,59.5C 43.5,59.1667 43.5,58.8333 43.5,58.5C 43.5,57.8333 43.1667,57.5 42.5,57.5C 42.5,56.1667 42.5,54.8333 42.5,53.5C 43.5,52.8333 44.5,52.1667 45.5,51.5 Z"/></g>
<g><path style="opacity:0.016" fill="#9a4638" d="M 20.5,48.5 C 20.5,48.8333 20.5,49.1667 20.5,49.5C 19.8333,49.5 19.5,49.8333 19.5,50.5C 18.8333,50.5 18.5,50.8333 18.5,51.5C 17.8333,51.5 17.5,51.8333 17.5,52.5C 16.8333,52.5 16.5,52.8333 16.5,53.5C 15.8333,53.5 15.5,53.8333 15.5,54.5C 14.8333,54.5 14.5,54.8333 14.5,55.5C 14.1667,55.5 13.8333,55.5 13.5,55.5C 14.8333,52.1667 17.1667,49.8333 20.5,48.5 Z"/></g>
<g><path style="opacity:1" fill="#a33910" d="M 37.5,41.5 C 35.7215,42.6697 34.7215,44.3364 34.5,46.5C 30.2458,48.7485 26.2458,51.4152 22.5,54.5C 22.5,53.1667 22.5,51.8333 22.5,50.5C 26.2118,50.123 29.2118,48.4563 31.5,45.5C 32.9501,43.3901 34.9501,42.0568 37.5,41.5 Z"/></g>
<g><path style="opacity:0.986" fill="#cf7429" d="M 68.5,48.5 C 68.5,48.8333 68.5,49.1667 68.5,49.5C 67.1667,49.8333 67.1667,50.1667 68.5,50.5C 70.8333,50.5 73.1667,50.5 75.5,50.5C 75.5,50.8333 75.5,51.1667 75.5,51.5C 71.2067,52.6566 66.8734,53.6566 62.5,54.5C 62.5,54.1667 62.5,53.8333 62.5,53.5C 63.1667,53.5 63.5,53.1667 63.5,52.5C 63.5,52.1667 63.5,51.8333 63.5,51.5C 64.8993,50.1103 66.5659,49.1103 68.5,48.5 Z"/></g>
<g><path style="opacity:1" fill="#661a08" d="M 43.5,41.5 C 43.8333,41.5 44.1667,41.5 44.5,41.5C 43.1667,43.1667 41.8333,44.8333 40.5,46.5C 39.1667,47.1667 38.1667,48.1667 37.5,49.5C 35.1667,51.1667 33.1667,53.1667 31.5,55.5C 29.5,56.8333 27.8333,58.5 26.5,60.5C 25.8333,60.8333 25.1667,61.1667 24.5,61.5C 23.3143,60.2946 23.3143,58.9613 24.5,57.5C 25.5,56.1667 26.5,54.8333 27.5,53.5C 31.8807,52.8041 35.214,50.4707 37.5,46.5C 39.5,44.8333 41.5,43.1667 43.5,41.5 Z"/></g>
<g><path style="opacity:1" fill="#912c0c" d="M 39.5,51.5 C 39.8333,51.5 40.1667,51.5 40.5,51.5C 39.5,52.8333 38.5,54.1667 37.5,55.5C 35.1162,57.8847 32.4495,59.8847 29.5,61.5C 29.5,61.1667 29.5,60.8333 29.5,60.5C 31.4727,59.194 33.1394,57.5273 34.5,55.5C 35.9448,53.9373 37.6115,52.604 39.5,51.5 Z"/></g>
<g><path style="opacity:1" fill="#470f04" d="M 79.5,48.5 C 84.4389,49.442 86.7723,52.442 86.5,57.5C 86.44,58.0431 86.1067,58.3764 85.5,58.5C 84.265,57.6602 83.265,56.6602 82.5,55.5C 82.1667,54.5 81.5,53.8333 80.5,53.5C 79.962,51.8828 79.6287,50.2161 79.5,48.5 Z"/></g>
<g><path style="opacity:0.016" fill="#cd7725" d="M 13.5,55.5 C 13.5,55.8333 13.5,56.1667 13.5,56.5C 12.8333,56.5 12.5,56.8333 12.5,57.5C 12.1667,57.5 11.8333,57.5 11.5,57.5C 11.5,56.1667 12.1667,55.5 13.5,55.5 Z"/></g>
<g><path style="opacity:0.976" fill="#be7763" d="M 29.5,40.5 C 29.8333,40.5 30.1667,40.5 30.5,40.5C 30.5,40.8333 30.5,41.1667 30.5,41.5C 27.8333,44.5 25.1667,47.5 22.5,50.5C 19.5,52.8333 16.8333,55.5 14.5,58.5C 12.5,59.8333 10.8333,61.5 9.5,63.5C 8.83333,63.5 8.16667,63.5 7.5,63.5C 8.16667,62.5 8.83333,61.5 9.5,60.5C 10.1667,60.5 10.5,60.1667 10.5,59.5C 11.1667,59.5 11.5,59.1667 11.5,58.5C 12.1667,58.5 12.5,58.1667 12.5,57.5C 13.1667,57.5 13.5,57.1667 13.5,56.5C 14.1667,56.5 14.5,56.1667 14.5,55.5C 15.1667,55.5 15.5,55.1667 15.5,54.5C 16.1667,54.5 16.5,54.1667 16.5,53.5C 17.1667,53.5 17.5,53.1667 17.5,52.5C 18.1667,52.5 18.5,52.1667 18.5,51.5C 19.1667,51.5 19.5,51.1667 19.5,50.5C 20.1667,50.5 20.5,50.1667 20.5,49.5C 21.1667,49.5 21.5,49.1667 21.5,48.5C 22.1667,48.5 22.5,48.1667 22.5,47.5C 23.1667,47.5 23.5,47.1667 23.5,46.5C 24.1667,46.5 24.5,46.1667 24.5,45.5C 25.1667,45.5 25.5,45.1667 25.5,44.5C 26.1667,44.5 26.5,44.1667 26.5,43.5C 27.1667,43.5 27.5,43.1667 27.5,42.5C 28.1667,42.5 28.5,42.1667 28.5,41.5C 29.1667,41.5 29.5,41.1667 29.5,40.5 Z"/></g>
<g><path style="opacity:1" fill="#a7401b" d="M 22.5,50.5 C 22.5,51.8333 22.5,53.1667 22.5,54.5C 20.3478,56.7782 17.6812,58.1116 14.5,58.5C 16.8333,55.5 19.5,52.8333 22.5,50.5 Z"/></g>
<g><path style="opacity:1" fill="#973212" d="M 34.5,46.5 C 32.4728,49.1939 30.1395,51.5272 27.5,53.5C 24.0237,55.4819 20.6904,57.6485 17.5,60C 15.8082,61.3073 14.4749,62.8073 13.5,64.5C 12.1667,64.8333 10.8333,65.1667 9.5,65.5C 9.5,64.8333 9.5,64.1667 9.5,63.5C 10.8333,61.5 12.5,59.8333 14.5,58.5C 17.6812,58.1116 20.3478,56.7782 22.5,54.5C 26.2458,51.4152 30.2458,48.7485 34.5,46.5 Z"/></g>
<g><path style="opacity:1" fill="#9e340f" d="M 31.5,55.5 C 32.5,55.5 33.5,55.5 34.5,55.5C 33.1394,57.5273 31.4727,59.194 29.5,60.5C 28.5,60.5 27.5,60.5 26.5,60.5C 27.8333,58.5 29.5,56.8333 31.5,55.5 Z"/></g>
<g><path style="opacity:1" fill="#c66319" d="M 75.5,51.5 C 75.8333,52.1667 76.1667,52.8333 76.5,53.5C 76.1667,53.5 75.8333,53.5 75.5,53.5C 72.5145,53.9028 69.8478,54.9028 67.5,56.5C 66.5,56.5 65.5,56.5 64.5,56.5C 62.0065,56.8693 61.3398,56.2027 62.5,54.5C 66.8734,53.6566 71.2067,52.6566 75.5,51.5 Z"/></g>
<g><path style="opacity:0.008" fill="#b58efd" d="M 93.5,58.5 C 93.3433,57.1266 93.51,55.7932 94,54.5C 94.765,56.0657 94.5983,57.3991 93.5,58.5 Z"/></g>
<g><path style="opacity:1" fill="#210902" d="M 80.5,53.5 C 81.5,53.8333 82.1667,54.5 82.5,55.5C 81.5,56.1667 80.5,56.8333 79.5,57.5C 77.4832,58.5294 75.4832,59.5294 73.5,60.5C 73.1583,59.6618 72.4916,59.3284 71.5,59.5C 73.5,57.8333 75.5,56.1667 77.5,54.5C 78.609,54.4431 79.609,54.1098 80.5,53.5 Z"/></g>
<g><path style="opacity:1" fill="#6c2014" d="M 37.5,57.5 C 37.9382,57.4346 38.2716,57.6012 38.5,58C 36.3123,59.9643 36.3123,61.4643 38.5,62.5C 39.1667,62.5 39.5,62.1667 39.5,61.5C 40.1667,61.5 40.5,61.1667 40.5,60.5C 41.1667,60.5 41.5,60.1667 41.5,59.5C 41.5,58.8333 41.8333,58.5 42.5,58.5C 42.8333,58.5 43.1667,58.5 43.5,58.5C 43.5,58.8333 43.5,59.1667 43.5,59.5C 42.1667,61.5 40.5,63.1667 38.5,64.5C 38.1667,64.5 37.8333,64.5 37.5,64.5C 37.1667,63.1667 36.8333,63.1667 36.5,64.5C 35.8333,64.5 35.5,64.8333 35.5,65.5C 34.8333,65.5 34.5,65.8333 34.5,66.5C 34.1667,66.5 33.8333,66.5 33.5,66.5C 33.1667,66.5 32.8333,66.5 32.5,66.5C 33.2899,65.2058 34.2899,64.0391 35.5,63C 34.9558,62.2828 34.2891,61.7828 33.5,61.5C 34.5,59.8333 35.8333,58.5 37.5,57.5 Z"/></g>
<g><path style="opacity:0.993" fill="#c15f23" d="M 63.5,51.5 C 63.5,51.8333 63.5,52.1667 63.5,52.5C 62.8333,52.5 62.5,52.8333 62.5,53.5C 62.5,53.8333 62.5,54.1667 62.5,54.5C 61.3398,56.2027 62.0065,56.8693 64.5,56.5C 62.238,58.9735 59.5713,59.6401 56.5,58.5C 56.5,58.1667 56.5,57.8333 56.5,57.5C 57.1667,57.5 57.5,57.1667 57.5,56.5C 60.4559,55.1583 62.4559,53.4916 63.5,51.5 Z"/></g>
<g><path style="opacity:1" fill="#b04c11" d="M 75.5,53.5 C 72.3671,55.2379 69.3671,57.2379 66.5,59.5C 65.8333,59.5 65.1667,59.5 64.5,59.5C 65.6935,58.7281 66.6935,57.7281 67.5,56.5C 69.8478,54.9028 72.5145,53.9028 75.5,53.5 Z"/></g>
<g><path style="opacity:1" fill="#903510" d="M 75.5,53.5 C 75.8333,53.5 76.1667,53.5 76.5,53.5C 76.5,54.1667 76.8333,54.5 77.5,54.5C 75.5,56.1667 73.5,57.8333 71.5,59.5C 70.8333,59.8333 70.1667,60.1667 69.5,60.5C 68.5,60.5 67.5,60.5 66.5,60.5C 66.5,60.1667 66.5,59.8333 66.5,59.5C 69.3671,57.2379 72.3671,55.2379 75.5,53.5 Z"/></g>
<g><path style="opacity:0.02" fill="#7a4337" d="M 11.5,57.5 C 11.5,57.8333 11.5,58.1667 11.5,58.5C 10.8333,58.5 10.5,58.8333 10.5,59.5C 9.83333,59.5 9.5,59.8333 9.5,60.5C 8.28194,58.6682 8.9486,57.6682 11.5,57.5 Z"/></g>
<g><path style="opacity:1" fill="#7b210c" d="M 37.5,55.5 C 37.8333,55.5 38.1667,55.5 38.5,55.5C 38.1667,56.1667 37.8333,56.8333 37.5,57.5C 35.8333,58.5 34.5,59.8333 33.5,61.5C 31.4099,63.3902 29.0765,65.0569 26.5,66.5C 26.5,66.1667 26.5,65.8333 26.5,65.5C 27.5,64.1667 28.5,62.8333 29.5,61.5C 32.4495,59.8847 35.1162,57.8847 37.5,55.5 Z"/></g>
<g><path style="opacity:0.982" fill="#c06c30" d="M 92.5,58.5 C 91.6618,58.8417 91.3284,59.5084 91.5,60.5C 91.1667,60.5 90.8333,60.5 90.5,60.5C 87.9039,61.2653 85.2372,61.5987 82.5,61.5C 82.5,60.8333 82.1667,60.5 81.5,60.5C 80.8333,59.5 80.1667,58.5 79.5,57.5C 80.5,56.8333 81.5,56.1667 82.5,55.5C 83.265,56.6602 84.265,57.6602 85.5,58.5C 86.1067,58.3764 86.44,58.0431 86.5,57.5C 87.4972,57.5299 88.1639,57.0299 88.5,56C 87.8505,54.3105 87.8505,52.4771 88.5,50.5C 88.3433,49.1266 88.51,47.7932 89,46.5C 90.0555,50.2439 91.2222,54.2439 92.5,58.5 Z"/></g>
<g><path style="opacity:1" fill="#bf5716" d="M 64.5,56.5 C 65.5,56.5 66.5,56.5 67.5,56.5C 66.6935,57.7281 65.6935,58.7281 64.5,59.5C 62.2895,60.1228 60.2895,61.1228 58.5,62.5C 57.1266,62.6567 55.7932,62.49 54.5,62C 55.305,60.8873 55.9717,59.7206 56.5,58.5C 59.5713,59.6401 62.238,58.9735 64.5,56.5 Z"/></g>
<g><path style="opacity:0.008" fill="#8f722a" d="M 92.5,58.5 C 92.8333,58.5 93.1667,58.5 93.5,58.5C 93.6716,59.4916 93.3382,60.1583 92.5,60.5C 92.5,59.8333 92.5,59.1667 92.5,58.5 Z"/></g>
<g><path style="opacity:1" fill="#962f10" d="M 26.5,60.5 C 27.5,60.5 28.5,60.5 29.5,60.5C 29.5,60.8333 29.5,61.1667 29.5,61.5C 28.5,62.8333 27.5,64.1667 26.5,65.5C 25.391,65.5569 24.391,65.8902 23.5,66.5C 22.5,66.5 21.5,66.5 20.5,66.5C 20.8333,65.8333 21.1667,65.1667 21.5,64.5C 22.8333,63.8333 23.8333,62.8333 24.5,61.5C 25.1667,61.1667 25.8333,60.8333 26.5,60.5 Z"/></g>
<g><path style="opacity:0.012" fill="#a95500" d="M 91.5,60.5 C 91.8333,60.5 92.1667,60.5 92.5,60.5C 92.3147,61.1701 91.9813,61.1701 91.5,60.5 Z"/></g>
<g><path style="opacity:1" fill="#89290f" d="M 27.5,53.5 C 26.5,54.8333 25.5,56.1667 24.5,57.5C 21.8292,60.1606 18.8292,62.4939 15.5,64.5C 14.8333,64.5 14.1667,64.5 13.5,64.5C 14.4749,62.8073 15.8082,61.3073 17.5,60C 20.6904,57.6485 24.0237,55.4819 27.5,53.5 Z"/></g>
<g><path style="opacity:1" fill="#731e0c" d="M 24.5,57.5 C 23.3143,58.9613 23.3143,60.2946 24.5,61.5C 23.8333,62.8333 22.8333,63.8333 21.5,64.5C 21.2648,63.9033 20.7648,63.5699 20,63.5C 18.5936,64.4138 17.0936,65.0805 15.5,65.5C 15.5,65.1667 15.5,64.8333 15.5,64.5C 18.8292,62.4939 21.8292,60.1606 24.5,57.5 Z"/></g>
<g><path style="opacity:1" fill="#7b1a09" d="M 42.5,53.5 C 42.5,54.8333 42.5,56.1667 42.5,57.5C 42.5,57.8333 42.5,58.1667 42.5,58.5C 41.8333,58.5 41.5,58.8333 41.5,59.5C 40.8333,59.5 40.5,59.8333 40.5,60.5C 39.8333,60.5 39.5,60.8333 39.5,61.5C 38.8333,61.5 38.5,61.8333 38.5,62.5C 36.3123,61.4643 36.3123,59.9643 38.5,58C 38.2716,57.6012 37.9382,57.4346 37.5,57.5C 37.8333,56.8333 38.1667,56.1667 38.5,55.5C 39.7942,54.7101 40.9609,53.7101 42,52.5C 42.3988,52.7284 42.5654,53.0618 42.5,53.5 Z"/></g>
<g><path style="opacity:1" fill="#8a3010" d="M 66.5,60.5 C 67.5,60.5 68.5,60.5 69.5,60.5C 67.3805,62.3998 65.0472,64.0664 62.5,65.5C 61.5,65.5 60.5,65.5 59.5,65.5C 59.5,65.1667 59.5,64.8333 59.5,64.5C 61.8372,63.1637 64.1705,61.8304 66.5,60.5 Z"/></g>
<g><path style="opacity:1" fill="#ae4c10" d="M 79.5,57.5 C 80.1667,58.5 80.8333,59.5 81.5,60.5C 79.8333,61.1667 78.1667,61.8333 76.5,62.5C 74.8333,62.5 73.1667,62.5 71.5,62.5C 72.1667,61.8333 72.8333,61.1667 73.5,60.5C 75.4832,59.5294 77.4832,58.5294 79.5,57.5 Z"/></g>
<g><path style="opacity:0.997" fill="#8a3a18" d="M 90.5,60.5 C 90.5,60.8333 90.5,61.1667 90.5,61.5C 89.8333,61.5 89.5,61.8333 89.5,62.5C 89.1667,62.5 88.8333,62.5 88.5,62.5C 86.0733,62.523 83.74,63.023 81.5,64C 82.6843,65.1455 82.6843,66.3121 81.5,67.5C 80.1667,67.8333 80.1667,68.1667 81.5,68.5C 81.5,68.8333 81.5,69.1667 81.5,69.5C 80.8333,69.8333 80.1667,70.1667 79.5,70.5C 79.1667,70.5 78.8333,70.5 78.5,70.5C 78.5,69.8333 78.1667,69.5 77.5,69.5C 76.8973,68.3652 76.5639,67.3652 76.5,66.5C 77.6385,63.9138 79.6385,62.2471 82.5,61.5C 85.2372,61.5987 87.9039,61.2653 90.5,60.5 Z"/></g>
<g><path style="opacity:0.008" fill="#7e7f00" d="M 90.5,61.5 C 90.8333,61.5 91.1667,61.5 91.5,61.5C 91.3147,62.1701 90.9813,62.1701 90.5,61.5 Z"/></g>
<g><path style="opacity:0.998" fill="#6d1d0d" d="M 33.5,61.5 C 34.2891,61.7828 34.9558,62.2828 35.5,63C 34.2899,64.0391 33.2899,65.2058 32.5,66.5C 30.0554,67.3124 27.7221,68.3124 25.5,69.5C 25.8333,68.8333 26.1667,68.1667 26.5,67.5C 26.5,67.1667 26.5,66.8333 26.5,66.5C 29.0765,65.0569 31.4099,63.3902 33.5,61.5 Z"/></g>
<g><path style="opacity:1" fill="#be4f19" d="M 57.5,56.5 C 56.8333,56.5 56.5,56.8333 56.5,57.5C 55.1667,57.8333 55.1667,58.1667 56.5,58.5C 55.9717,59.7206 55.305,60.8873 54.5,62C 55.7932,62.49 57.1266,62.6567 58.5,62.5C 57.0697,63.5375 55.403,64.2041 53.5,64.5C 50.9931,64.3678 50.3264,63.3678 51.5,61.5C 51.5,61.1667 51.5,60.8333 51.5,60.5C 52.8333,60.1667 52.8333,59.8333 51.5,59.5C 52.9361,58.5714 54.2695,57.4048 55.5,56C 56.4368,55.3083 57.1034,55.475 57.5,56.5 Z"/></g>
<g><path style="opacity:1" fill="#a94711" d="M 69.5,63.5 C 69.8417,62.6618 70.5084,62.3284 71.5,62.5C 73.1667,62.5 74.8333,62.5 76.5,62.5C 74.5574,65.4707 71.8908,67.4707 68.5,68.5C 69.4756,67.1851 70.4756,65.8518 71.5,64.5C 71.0431,63.7025 70.3764,63.3691 69.5,63.5 Z"/></g>
<g><path style="opacity:0.012" fill="#a95500" d="M 89.5,62.5 C 89.8333,62.5 90.1667,62.5 90.5,62.5C 90.3147,63.1701 89.9813,63.1701 89.5,62.5 Z"/></g>
<g><path style="opacity:1" fill="#1d0801" d="M 71.5,59.5 C 72.4916,59.3284 73.1583,59.6618 73.5,60.5C 72.8333,61.1667 72.1667,61.8333 71.5,62.5C 70.5084,62.3284 69.8417,62.6618 69.5,63.5C 65.9046,65.1023 62.5712,67.1023 59.5,69.5C 58.609,70.1098 57.609,70.4431 56.5,70.5C 58.5,68.8333 60.5,67.1667 62.5,65.5C 65.0472,64.0664 67.3805,62.3998 69.5,60.5C 70.1667,60.1667 70.8333,59.8333 71.5,59.5 Z"/></g>
<g><path style="opacity:0.996" fill="#6a3318" d="M 88.5,62.5 C 88.5,63.1667 88.8333,63.5 89.5,63.5C 87.1401,65.8532 84.4735,67.8532 81.5,69.5C 81.5,69.1667 81.5,68.8333 81.5,68.5C 81.5,68.1667 81.5,67.8333 81.5,67.5C 82.6843,66.3121 82.6843,65.1455 81.5,64C 83.74,63.023 86.0733,62.523 88.5,62.5 Z"/></g>
<g><path style="opacity:1" fill="#ae4713" d="M 64.5,59.5 C 65.1667,59.5 65.8333,59.5 66.5,59.5C 66.5,59.8333 66.5,60.1667 66.5,60.5C 64.1705,61.8304 61.8372,63.1637 59.5,64.5C 57.3146,64.7036 55.3146,65.3702 53.5,66.5C 53.5,65.8333 53.5,65.1667 53.5,64.5C 55.403,64.2041 57.0697,63.5375 58.5,62.5C 60.2895,61.1228 62.2895,60.1228 64.5,59.5 Z"/></g>
<g><path style="opacity:1" fill="#711e0d" d="M 21.5,64.5 C 21.1667,65.1667 20.8333,65.8333 20.5,66.5C 18.2034,68.2941 16.0367,70.2941 14,72.5C 12.9887,71.6634 11.8221,71.33 10.5,71.5C 10.1667,71.5 9.83333,71.5 9.5,71.5C 9.5,71.1667 9.5,70.8333 9.5,70.5C 11.7805,69.1815 13.7805,67.5148 15.5,65.5C 17.0936,65.0805 18.5936,64.4138 20,63.5C 20.7648,63.5699 21.2648,63.9033 21.5,64.5 Z"/></g>
<g><path style="opacity:0.999" fill="#b34215" d="M 51.5,59.5 C 51.5,59.8333 51.5,60.1667 51.5,60.5C 50.1667,60.8333 50.1667,61.1667 51.5,61.5C 50.3264,63.3678 50.9931,64.3678 53.5,64.5C 53.5,65.1667 53.5,65.8333 53.5,66.5C 51.9275,67.6873 50.2608,68.6873 48.5,69.5C 47.325,69.719 46.325,69.3857 45.5,68.5C 46.2599,66.6396 47.2599,64.973 48.5,63.5C 48.5,63.1667 48.5,62.8333 48.5,62.5C 49.8333,62.1667 49.8333,61.8333 48.5,61.5C 48.9731,60.0937 49.9731,59.427 51.5,59.5 Z"/></g>
<g><path style="opacity:1" fill="#a33817" d="M 7.5,63.5 C 8.16667,63.5 8.83333,63.5 9.5,63.5C 9.5,64.1667 9.5,64.8333 9.5,65.5C 9.71481,67.1788 9.04814,68.1788 7.5,68.5C 6.83333,68.5 6.5,68.8333 6.5,69.5C 4.62313,68.3409 4.12313,66.6742 5,64.5C 5.8817,68.0416 6.71503,67.7083 7.5,63.5 Z"/></g>
<g><path style="opacity:1" fill="#832b10" d="M 59.5,65.5 C 60.5,65.5 61.5,65.5 62.5,65.5C 60.5,67.1667 58.5,68.8333 56.5,70.5C 54.7659,71.562 53.0992,71.562 51.5,70.5C 53.822,68.336 56.4887,66.6693 59.5,65.5 Z"/></g>
<g><path style="opacity:0.993" fill="#823819" d="M 76.5,66.5 C 76.5639,67.3652 76.8973,68.3652 77.5,69.5C 78.1667,69.5 78.5,69.8333 78.5,70.5C 78.8333,70.5 79.1667,70.5 79.5,70.5C 74.5112,74.3308 69.1778,77.6641 63.5,80.5C 63.5,80.1667 63.5,79.8333 63.5,79.5C 64.8333,79.1667 64.8333,78.8333 63.5,78.5C 63.5569,77.391 63.8902,76.391 64.5,75.5C 67.5345,75.817 68.5345,74.817 67.5,72.5C 70.4771,70.5333 73.4771,68.5333 76.5,66.5 Z"/></g>
<g><path style="opacity:1" fill="#882b12" d="M 13.5,64.5 C 14.1667,64.5 14.8333,64.5 15.5,64.5C 15.5,64.8333 15.5,65.1667 15.5,65.5C 13.7805,67.5148 11.7805,69.1815 9.5,70.5C 9.16667,70.5 8.83333,70.5 8.5,70.5C 8.5,69.8333 8.16667,69.5 7.5,69.5C 7.5,69.1667 7.5,68.8333 7.5,68.5C 9.04814,68.1788 9.71481,67.1788 9.5,65.5C 10.8333,65.1667 12.1667,64.8333 13.5,64.5 Z"/></g>
<g><path style="opacity:1" fill="#a03a13" d="M 59.5,64.5 C 59.5,64.8333 59.5,65.1667 59.5,65.5C 56.4887,66.6693 53.822,68.336 51.5,70.5C 50.5084,70.3284 49.8417,70.6618 49.5,71.5C 48.5,71.5 47.5,71.5 46.5,71.5C 47.1667,70.8333 47.8333,70.1667 48.5,69.5C 50.2608,68.6873 51.9275,67.6873 53.5,66.5C 55.3146,65.3702 57.3146,64.7036 59.5,64.5 Z"/></g>
<g><path style="opacity:1" fill="#ae4812" d="M 69.5,63.5 C 70.3764,63.3691 71.0431,63.7025 71.5,64.5C 70.4756,65.8518 69.4756,67.1851 68.5,68.5C 67.713,70.1042 66.3797,70.7709 64.5,70.5C 62.9064,70.9195 61.4064,71.5862 60,72.5C 59.5,72.3333 59,72.1667 58.5,72C 59.2524,71.3292 59.5858,70.4959 59.5,69.5C 62.5712,67.1023 65.9046,65.1023 69.5,63.5 Z"/></g>
<g><path style="opacity:1" fill="#75200e" d="M 26.5,67.5 C 26.1667,68.1667 25.8333,68.8333 25.5,69.5C 22.7861,72.2154 19.7861,74.5488 16.5,76.5C 16.4142,75.5041 16.7476,74.6708 17.5,74C 20.3968,71.59 23.3968,69.4233 26.5,67.5 Z"/></g>
<g><path style="opacity:0.992" fill="#8e341d" d="M 48.5,61.5 C 48.5,61.8333 48.5,62.1667 48.5,62.5C 47.8333,62.5 47.5,62.8333 47.5,63.5C 47.1667,63.5 46.8333,63.5 46.5,63.5C 45.8333,63.5 45.5,63.8333 45.5,64.5C 44.8333,64.5 44.5,64.8333 44.5,65.5C 44.0129,69.5092 42.0129,71.3426 38.5,71C 37.1175,72.2708 36.1175,73.7708 35.5,75.5C 35.1667,75.5 34.8333,75.5 34.5,75.5C 34.6716,74.5084 34.3382,73.8417 33.5,73.5C 33.3932,71.6214 33.8932,71.2881 35,72.5C 35.8333,71.6667 36.6667,70.8333 37.5,70C 36.1667,69.3333 36.1667,68.6667 37.5,68C 41.0709,65.5794 44.7375,63.4127 48.5,61.5 Z"/></g>
<g><path style="opacity:1" fill="#8d2d12" d="M 20.5,66.5 C 21.5,66.5 22.5,66.5 23.5,66.5C 20.7536,69.5709 18.0869,72.5709 15.5,75.5C 14.8333,75.5 14.1667,75.5 13.5,75.5C 11.9776,75.3371 10.311,74.5038 8.5,73C 7.17723,72.1841 6.51056,71.0174 6.5,69.5C 6.83333,69.5 7.16667,69.5 7.5,69.5C 8.16667,69.5 8.5,69.8333 8.5,70.5C 8.5,71.1667 8.83333,71.5 9.5,71.5C 9.83333,72.8333 10.1667,72.8333 10.5,71.5C 11.8221,71.33 12.9887,71.6634 14,72.5C 16.0367,70.2941 18.2034,68.2941 20.5,66.5 Z"/></g>
<g><path style="opacity:1" fill="#903512" d="M 81.5,60.5 C 82.1667,60.5 82.5,60.8333 82.5,61.5C 79.6385,62.2471 77.6385,63.9138 76.5,66.5C 73.4771,68.5333 70.4771,70.5333 67.5,72.5C 65.9582,73.3007 64.2915,73.634 62.5,73.5C 63.1667,72.5 63.8333,71.5 64.5,70.5C 66.3797,70.7709 67.713,70.1042 68.5,68.5C 71.8908,67.4707 74.5574,65.4707 76.5,62.5C 78.1667,61.8333 79.8333,61.1667 81.5,60.5 Z"/></g>
<g><path style="opacity:1" fill="#82260f" d="M 26.5,65.5 C 26.5,65.8333 26.5,66.1667 26.5,66.5C 26.5,66.8333 26.5,67.1667 26.5,67.5C 23.3968,69.4233 20.3968,71.59 17.5,74C 16.7476,74.6708 16.4142,75.5041 16.5,76.5C 15.8333,76.5 15.5,76.1667 15.5,75.5C 18.0869,72.5709 20.7536,69.5709 23.5,66.5C 24.391,65.8902 25.391,65.5569 26.5,65.5 Z"/></g>
<g><path style="opacity:0.99" fill="#6c2313" d="M 32.5,66.5 C 32.8333,66.5 33.1667,66.5 33.5,66.5C 33.5,66.8333 33.5,67.1667 33.5,67.5C 32.8333,67.5 32.5,67.8333 32.5,68.5C 32.1667,68.5 31.8333,68.5 31.5,68.5C 28.0622,70.7589 24.7289,73.2589 21.5,76C 20.7476,76.6708 20.4142,77.5041 20.5,78.5C 18.901,78.2322 17.5676,78.5655 16.5,79.5C 15.2438,79.5386 14.2438,79.0386 13.5,78C 14.5981,77.2303 14.5981,76.397 13.5,75.5C 14.1667,75.5 14.8333,75.5 15.5,75.5C 15.5,76.1667 15.8333,76.5 16.5,76.5C 19.7861,74.5488 22.7861,72.2154 25.5,69.5C 27.7221,68.3124 30.0554,67.3124 32.5,66.5 Z"/></g>
<g><path style="opacity:1" fill="#a13412" d="M 46.5,63.5 C 46.8333,63.5 47.1667,63.5 47.5,63.5C 47.8333,63.5 48.1667,63.5 48.5,63.5C 47.2599,64.973 46.2599,66.6396 45.5,68.5C 46.325,69.3857 47.325,69.719 48.5,69.5C 47.8333,70.1667 47.1667,70.8333 46.5,71.5C 43.0757,73.2387 39.5757,74.9054 36,76.5C 35.6012,76.2716 35.4346,75.9382 35.5,75.5C 36.1175,73.7708 37.1175,72.2708 38.5,71C 42.0129,71.3426 44.0129,69.5092 44.5,65.5C 45.1667,65.5 45.5,65.1667 45.5,64.5C 46.1667,64.5 46.5,64.1667 46.5,63.5 Z"/></g>
<g><path style="opacity:1" fill="#a63e13" d="M 59.5,69.5 C 59.5858,70.4959 59.2524,71.3292 58.5,72C 59,72.1667 59.5,72.3333 60,72.5C 61.4064,71.5862 62.9064,70.9195 64.5,70.5C 63.8333,71.5 63.1667,72.5 62.5,73.5C 61.1667,73.8333 59.8333,74.1667 58.5,74.5C 57.4168,74.5394 56.4168,74.8728 55.5,75.5C 54.6143,74.675 54.281,73.675 54.5,72.5C 55.5,72.1667 56.1667,71.5 56.5,70.5C 57.609,70.4431 58.609,70.1098 59.5,69.5 Z"/></g>
<g><path style="opacity:0.514" fill="#4f2314" d="M 36.5,64.5 C 36.8333,64.5 37.1667,64.5 37.5,64.5C 37.8333,64.5 38.1667,64.5 38.5,64.5C 34.4407,69.562 29.774,73.8953 24.5,77.5C 24.1667,76.1667 23.8333,76.1667 23.5,77.5C 22.1667,77.8333 22.1667,78.1667 23.5,78.5C 22.6879,79.9931 21.3545,80.6598 19.5,80.5C 18.2739,80.4805 17.2739,80.1471 16.5,79.5C 18.7674,79.8545 20.1007,79.5211 20.5,78.5C 20.4142,77.5041 20.7476,76.6708 21.5,76C 24.7289,73.2589 28.0622,70.7589 31.5,68.5C 31.8333,69.8333 32.1667,69.8333 32.5,68.5C 33.1667,68.5 33.5,68.1667 33.5,67.5C 34.1667,67.5 34.5,67.1667 34.5,66.5C 34.5,65.8333 34.8333,65.5 35.5,65.5C 36.1667,65.5 36.5,65.1667 36.5,64.5 Z"/></g>
<g><path style="opacity:1" fill="#923215" d="M 46.5,71.5 C 47.5,71.5 48.5,71.5 49.5,71.5C 49.5,71.8333 49.5,72.1667 49.5,72.5C 47.8211,72.8923 46.1545,73.3923 44.5,74C 42.2295,76.7821 39.5628,78.9488 36.5,80.5C 34.7868,79.3646 34.1201,77.698 34.5,75.5C 34.8333,75.5 35.1667,75.5 35.5,75.5C 35.4346,75.9382 35.6012,76.2716 36,76.5C 39.5757,74.9054 43.0757,73.2387 46.5,71.5 Z"/></g>
<g><path style="opacity:0.012" fill="#581405" d="M 33.5,73.5 C 33.6602,75.1992 33.4935,76.8659 33,78.5C 32.2204,76.6131 32.3871,74.9464 33.5,73.5 Z"/></g>
<g><path style="opacity:1" fill="#792612" d="M 49.5,72.5 C 50.2389,72.369 50.9056,72.5357 51.5,73C 48.8333,74.6667 46.1667,76.3333 43.5,78C 42.2617,78.69 42.2617,79.19 43.5,79.5C 40.9908,80.6824 39.6574,82.6824 39.5,85.5C 38.8333,84.5 38.1667,83.5 37.5,82.5C 37.1667,81.8333 36.8333,81.1667 36.5,80.5C 39.5628,78.9488 42.2295,76.7821 44.5,74C 46.1545,73.3923 47.8211,72.8923 49.5,72.5 Z"/></g>
<g><path style="opacity:1" fill="#a03914" d="M 54.5,72.5 C 54.281,73.675 54.6143,74.675 55.5,75.5C 56.4168,74.8728 57.4168,74.5394 58.5,74.5C 57.2318,76.047 55.5652,77.047 53.5,77.5C 52.4168,77.5394 51.4168,77.8728 50.5,78.5C 49.7025,78.0431 49.3691,77.3764 49.5,76.5C 50.9448,74.9373 52.6115,73.604 54.5,72.5 Z"/></g>
<g><path style="opacity:1" fill="#892f12" d="M 67.5,72.5 C 68.5345,74.817 67.5345,75.817 64.5,75.5C 61.2542,76.0541 58.2542,77.0541 55.5,78.5C 54.609,79.1098 53.609,79.4431 52.5,79.5C 52.8333,78.8333 53.1667,78.1667 53.5,77.5C 55.5652,77.047 57.2318,76.047 58.5,74.5C 59.8333,74.1667 61.1667,73.8333 62.5,73.5C 64.2915,73.634 65.9582,73.3007 67.5,72.5 Z"/></g>
<g><path style="opacity:0.016" fill="#7e3f3e" d="M 23.5,77.5 C 23.8333,77.5 24.1667,77.5 24.5,77.5C 24.3147,78.1701 23.9813,78.1701 23.5,77.5 Z"/></g>
<g><path style="opacity:1" fill="#993516" d="M 49.5,76.5 C 49.3691,77.3764 49.7025,78.0431 50.5,78.5C 51.4168,77.8728 52.4168,77.5394 53.5,77.5C 53.1667,78.1667 52.8333,78.8333 52.5,79.5C 50.8211,79.8923 49.1545,80.3923 47.5,81C 45.2482,83.1024 42.9149,84.9357 40.5,86.5C 39.8333,86.5 39.5,86.1667 39.5,85.5C 39.6574,82.6824 40.9908,80.6824 43.5,79.5C 45.5168,78.4706 47.5168,77.4706 49.5,76.5 Z"/></g>
<g><path style="opacity:1" fill="#813715" d="M 64.5,75.5 C 63.8902,76.391 63.5569,77.391 63.5,78.5C 63.5,78.8333 63.5,79.1667 63.5,79.5C 62.1667,79.8333 62.1667,80.1667 63.5,80.5C 63.0269,81.9063 62.0269,82.573 60.5,82.5C 60.5,82.1667 60.5,81.8333 60.5,81.5C 61.8333,81.1667 61.8333,80.8333 60.5,80.5C 61.087,79.2334 61.087,78.2334 60.5,77.5C 58.9291,78.3094 57.2624,78.6427 55.5,78.5C 58.2542,77.0541 61.2542,76.0541 64.5,75.5 Z"/></g>
<g><path style="opacity:1" fill="#61190b" d="M 51.5,70.5 C 53.0992,71.562 54.7659,71.562 56.5,70.5C 56.1667,71.5 55.5,72.1667 54.5,72.5C 52.6115,73.604 50.9448,74.9373 49.5,76.5C 47.5168,77.4706 45.5168,78.4706 43.5,79.5C 42.2617,79.19 42.2617,78.69 43.5,78C 46.1667,76.3333 48.8333,74.6667 51.5,73C 50.9056,72.5357 50.2389,72.369 49.5,72.5C 49.5,72.1667 49.5,71.8333 49.5,71.5C 49.8417,70.6618 50.5084,70.3284 51.5,70.5 Z"/></g>
<g><path style="opacity:1" fill="#7d2913" d="M 60.5,80.5 C 59.8333,80.5 59.1667,80.5 58.5,80.5C 58.44,79.9569 58.1067,79.6236 57.5,79.5C 52.1134,82.2599 46.7801,84.9266 41.5,87.5C 41.1667,87.5 40.8333,87.5 40.5,87.5C 40.5,87.1667 40.5,86.8333 40.5,86.5C 42.9149,84.9357 45.2482,83.1024 47.5,81C 49.1545,80.3923 50.8211,79.8923 52.5,79.5C 53.609,79.4431 54.609,79.1098 55.5,78.5C 57.2624,78.6427 58.9291,78.3094 60.5,77.5C 61.087,78.2334 61.087,79.2334 60.5,80.5 Z"/></g>
<g><path style="opacity:0.627" fill="#7c3620" d="M 58.5,80.5 C 59.1667,80.5 59.8333,80.5 60.5,80.5C 60.5,80.8333 60.5,81.1667 60.5,81.5C 59.1667,81.8333 59.1667,82.1667 60.5,82.5C 60.1583,83.3382 59.4916,83.6716 58.5,83.5C 58.1667,82.1667 57.8333,82.1667 57.5,83.5C 56.1667,83.8333 56.1667,84.1667 57.5,84.5C 57.0269,85.9063 56.0269,86.573 54.5,86.5C 54.5,86.1667 54.5,85.8333 54.5,85.5C 55.8333,85.1667 55.8333,84.8333 54.5,84.5C 54.1667,84.5 53.8333,84.5 53.5,84.5C 54.5794,82.457 56.246,81.1237 58.5,80.5 Z"/></g>
<g><path style="opacity:0.004" fill="#d20002" d="M 37.5,82.5 C 37.631,83.2389 37.4643,83.9056 37,84.5C 36.3083,83.5632 36.475,82.8966 37.5,82.5 Z"/></g>
<g><path style="opacity:0.016" fill="#7e3f3e" d="M 57.5,83.5 C 57.8333,83.5 58.1667,83.5 58.5,83.5C 58.3147,84.1701 57.9813,84.1701 57.5,83.5 Z"/></g>
<g><path style="opacity:0.99" fill="#702816" d="M 58.5,80.5 C 56.246,81.1237 54.5794,82.457 53.5,84.5C 51.368,84.5544 50.0347,85.5544 49.5,87.5C 47.8212,87.2852 46.8212,87.9519 46.5,89.5C 45.1667,89.5 43.8333,89.5 42.5,89.5C 42.5,88.8333 42.1667,88.5 41.5,88.5C 41.5,88.1667 41.5,87.8333 41.5,87.5C 46.7801,84.9266 52.1134,82.2599 57.5,79.5C 58.1067,79.6236 58.44,79.9569 58.5,80.5 Z"/></g>
<g><path style="opacity:0.875" fill="#723c1a" d="M 53.5,84.5 C 53.8333,84.5 54.1667,84.5 54.5,84.5C 54.5,84.8333 54.5,85.1667 54.5,85.5C 53.1667,85.8333 53.1667,86.1667 54.5,86.5C 52.6597,88.6689 50.3263,90.0023 47.5,90.5C 47.5,89.8333 47.1667,89.5 46.5,89.5C 46.8212,87.9519 47.8212,87.2852 49.5,87.5C 50.0347,85.5544 51.368,84.5544 53.5,84.5 Z"/></g>
<g><path style="opacity:0.004" fill="#3b0d01" d="M 40.5,87.5 C 40.5,88.1667 40.8333,88.5 41.5,88.5C 42.1667,88.5 42.5,88.8333 42.5,89.5C 42.1034,90.525 41.4368,90.6917 40.5,90C 39.2264,89.0228 39.2264,88.1894 40.5,87.5 Z"/></g>
<g><path style="opacity:0.012" fill="#4f3a05" d="M 47.5,90.5 C 46.3991,91.5983 45.0657,91.765 43.5,91C 44.7932,90.51 46.1266,90.3433 47.5,90.5 Z"/></g>
</svg>
