<?xml version="1.0" encoding="UTF-8"?>
<!DOCTYPE svg PUBLIC "-//W3C//DTD SVG 1.1//EN" "http://www.w3.org/Graphics/SVG/1.1/DTD/svg11.dtd">
<svg xmlns="http://www.w3.org/2000/svg" version="1.1" width="100px" height="100px" style="shape-rendering:geometricPrecision; text-rendering:geometricPrecision; image-rendering:optimizeQuality; fill-rule:evenodd; clip-rule:evenodd" xmlns:xlink="http://www.w3.org/1999/xlink">
<g><path style="opacity:0.835" fill="#d47743" d="M 28.5,13.5 C 31.7131,13.19 34.7131,13.5233 37.5,14.5C 37.1667,14.5 36.8333,14.5 36.5,14.5C 25.0756,14.7442 16.909,20.0776 12,30.5C 10.2103,34.3268 9.04361,38.3268 8.5,42.5C 7.83333,48.8333 7.16667,55.1667 6.5,61.5C 5.49595,55.8211 5.49595,50.1544 6.5,44.5C 6.33333,43.1667 6.16667,41.8333 6,40.5C 5.66667,42.8333 5.33333,45.1667 5,47.5C 4.19277,42.6248 4.85944,37.9581 7,33.5C 7.33333,34.5 7.66667,35.5 8,36.5C 8.81299,34.5643 9.31299,32.5643 9.5,30.5C 10.8333,29.8333 10.8333,29.1667 9.5,28.5C 11.4487,27.4142 13.1154,25.4142 14.5,22.5C 15.1667,22.5 15.5,22.1667 15.5,21.5C 17.9327,20.4523 17.9327,19.7856 15.5,19.5C 18.6614,14.6125 22.9947,12.6125 28.5,13.5 Z"/></g>
<g><path style="opacity:0.992" fill="#f6b793" d="M 28.5,13.5 C 41.3795,12.6563 54.3795,12.4896 67.5,13C 70.4167,14.5275 73.4167,15.8608 76.5,17C 76.3808,18.2812 76.8808,19.4479 78,20.5C 78.7175,19.5494 79.5509,19.3828 80.5,20C 81.8333,20.6667 81.8333,21.3333 80.5,22C 82.7089,23.8734 84.5422,26.04 86,28.5C 87.1011,30.3939 88.4345,31.0606 90,30.5C 90.6917,31.4368 90.525,32.1034 89.5,32.5C 89.1667,31.1667 88.8333,31.1667 88.5,32.5C 88.631,33.2389 88.4643,33.9056 88,34.5C 85.4136,28.9122 81.2469,25.0789 75.5,23C 67.6374,23.0848 59.8041,23.5848 52,24.5C 48.3383,19.3178 43.505,15.9845 37.5,14.5C 34.7131,13.5233 31.7131,13.19 28.5,13.5 Z"/></g>
<g><path style="opacity:0.016" fill="#946637" d="M 15.5,19.5 C 15.5,20.1667 15.5,20.8333 15.5,21.5C 14.8333,21.5 14.5,21.8333 14.5,22.5C 13.2848,21.221 13.6182,20.221 15.5,19.5 Z"/></g>
<g><path style="opacity:1" fill="#b1a69a" d="M 31.5,22.5 C 20.6948,30.9957 18.1948,41.6623 24,54.5C 27.2589,62.702 31.7589,70.0353 37.5,76.5C 38.7658,77.3624 40.0992,78.0291 41.5,78.5C 41.0831,79.1239 40.4164,79.4573 39.5,79.5C 36.7335,78.0331 33.7335,77.1997 30.5,77C 26.0635,71.3488 22.5635,65.1821 20,58.5C 18.7993,56.0905 17.1326,54.0905 15,52.5C 14.5017,49.1832 14.335,45.8499 14.5,42.5C 15.9049,34.0645 20.2383,27.5645 27.5,23C 28.7932,22.51 30.1266,22.3433 31.5,22.5 Z"/></g>
<g><path style="opacity:1" fill="#998c80" d="M 31.5,22.5 C 35.7065,21.945 39.3731,22.945 42.5,25.5C 34.9082,29.1495 30.9082,35.3161 30.5,44C 32.1229,51.8717 33.9562,59.705 36,67.5C 38.705,70.7615 41.8717,73.4281 45.5,75.5C 44.7377,77.2624 43.4044,78.2624 41.5,78.5C 40.0992,78.0291 38.7658,77.3624 37.5,76.5C 31.7589,70.0353 27.2589,62.702 24,54.5C 18.1948,41.6623 20.6948,30.9957 31.5,22.5 Z"/></g>
<g><path style="opacity:1" fill="#e59269" d="M 36.5,14.5 C 36.8333,14.5 37.1667,14.5 37.5,14.5C 43.505,15.9845 48.3383,19.3178 52,24.5C 59.8041,23.5848 67.6374,23.0848 75.5,23C 81.2469,25.0789 85.4136,28.9122 88,34.5C 88.4643,33.9056 88.631,33.2389 88.5,32.5C 88.8333,32.5 89.1667,32.5 89.5,32.5C 89.8333,33.8333 90.1667,35.1667 90.5,36.5C 90.719,37.675 90.3857,38.675 89.5,39.5C 87.6385,38.4717 86.3052,36.9717 85.5,35C 82.7478,34.7882 80.2478,33.9548 78,32.5C 71.2454,33.9171 64.4121,34.5838 57.5,34.5C 57.7373,35.791 57.404,36.791 56.5,37.5C 53.353,26.6918 46.6864,19.0251 36.5,14.5 Z"/></g>
<g><path style="opacity:1" fill="#877a6e" d="M 42.5,25.5 C 48.0047,29.8262 51.5047,35.4928 53,42.5C 53.7131,49.203 53.5464,55.8697 52.5,62.5C 50.9639,67.2373 48.6306,71.5707 45.5,75.5C 41.8717,73.4281 38.705,70.7615 36,67.5C 33.9562,59.705 32.1229,51.8717 30.5,44C 30.9082,35.3161 34.9082,29.1495 42.5,25.5 Z"/></g>
<g><path style="opacity:0.012" fill="#d56b3f" d="M 9.5,28.5 C 9.5,29.1667 9.5,29.8333 9.5,30.5C 8.16667,29.8333 8.16667,29.1667 9.5,28.5 Z"/></g>
<g><path style="opacity:1" fill="#e7dfd8" d="M 36.5,14.5 C 46.6864,19.0251 53.353,26.6918 56.5,37.5C 57.1495,39.4352 57.4828,41.4352 57.5,43.5C 58.2788,51.3082 56.9455,58.6416 53.5,65.5C 52.6143,64.675 52.281,63.675 52.5,62.5C 53.5464,55.8697 53.7131,49.203 53,42.5C 51.5047,35.4928 48.0047,29.8262 42.5,25.5C 39.3731,22.945 35.7065,21.945 31.5,22.5C 30.1266,22.3433 28.7932,22.51 27.5,23C 20.2383,27.5645 15.9049,34.0645 14.5,42.5C 12.6723,53.8411 14.839,64.5078 21,74.5C 22.8734,76.7089 25.04,78.5422 27.5,80C 24.2607,79.5544 21.2607,78.221 18.5,76C 15.2364,72.5526 12.2364,69.0526 9.5,65.5C 8.64227,57.8678 8.30894,50.2011 8.5,42.5C 9.04361,38.3268 10.2103,34.3268 12,30.5C 16.909,20.0776 25.0756,14.7442 36.5,14.5 Z"/></g>
<g><path style="opacity:1" fill="#c16e4f" d="M 90.5,36.5 C 91.2216,36.0825 91.7216,35.4158 92,34.5C 92.6377,35.6086 93.1377,36.7753 93.5,38C 93.2073,44.0978 93.2073,50.2644 93.5,56.5C 92.8333,56.5 92.1667,56.5 91.5,56.5C 91.5,54.8333 91.5,53.1667 91.5,51.5C 91.1913,48.6545 89.5246,47.1545 86.5,47C 77.5062,46.5002 68.5062,46.3336 59.5,46.5C 59.8404,44.4524 59.5071,43.4524 58.5,43.5C 58.1667,43.5 57.8333,43.5 57.5,43.5C 57.4828,41.4352 57.1495,39.4352 56.5,37.5C 57.404,36.791 57.7373,35.791 57.5,34.5C 64.4121,34.5838 71.2454,33.9171 78,32.5C 80.2478,33.9548 82.7478,34.7882 85.5,35C 86.3052,36.9717 87.6385,38.4717 89.5,39.5C 90.3857,38.675 90.719,37.675 90.5,36.5 Z"/></g>
<g><path style="opacity:0.008" fill="#77503c" d="M 94.5,60.5 C 94.3339,54.8236 94.5006,49.1569 95,43.5C 95.3148,46.3715 95.8148,49.2048 96.5,52C 95.9646,54.9956 95.2979,57.8289 94.5,60.5 Z"/></g>
<g><path style="opacity:0.004" fill="#dc1105" d="M 4.5,55.5 C 3.37086,53.3718 3.20419,51.0385 4,48.5C 4.49665,50.8098 4.66331,53.1432 4.5,55.5 Z"/></g>
<g><path style="opacity:1" fill="#a3553a" d="M 91.5,51.5 C 88.1864,53.3713 84.8531,55.038 81.5,56.5C 73.7771,57.1971 66.1105,57.8638 58.5,58.5C 58.5,53.5 58.5,48.5 58.5,43.5C 59.5071,43.4524 59.8404,44.4524 59.5,46.5C 68.5062,46.3336 77.5062,46.5002 86.5,47C 89.5246,47.1545 91.1913,48.6545 91.5,51.5 Z"/></g>
<g><path style="opacity:0.012" fill="#843b1b" d="M 4.5,55.5 C 5.47307,57.9479 5.8064,60.6146 5.5,63.5C 4.52693,61.0521 4.1936,58.3854 4.5,55.5 Z"/></g>
<g><path style="opacity:1" fill="#894c38" d="M 91.5,51.5 C 91.5,53.1667 91.5,54.8333 91.5,56.5C 90.8283,60.1883 89.9949,63.8549 89,67.5C 88.1841,68.8228 87.0174,69.4894 85.5,69.5C 84.2642,67.9572 82.5976,66.9572 80.5,66.5C 79.6143,67.325 79.281,68.325 79.5,69.5C 72.1894,68.5309 64.8561,68.3642 57.5,69C 56.526,71.6645 55.8593,71.8312 55.5,69.5C 56.2967,65.7768 57.2967,62.1101 58.5,58.5C 66.1105,57.8638 73.7771,57.1971 81.5,56.5C 84.8531,55.038 88.1864,53.3713 91.5,51.5 Z"/></g>
<g><path style="opacity:0.012" fill="#59413b" d="M 93.5,60.5 C 93.8333,60.5 94.1667,60.5 94.5,60.5C 94.7678,62.099 94.4345,63.4324 93.5,64.5C 93.5,63.1667 93.5,61.8333 93.5,60.5 Z"/></g>
<g><path style="opacity:0.008" fill="#816a68" d="M 88.5,72.5 C 88.8333,72.5 89.1667,72.5 89.5,72.5C 89.6716,73.4916 89.3382,74.1583 88.5,74.5C 88.5,73.8333 88.5,73.1667 88.5,72.5 Z"/></g>
<g><path style="opacity:0.012" fill="#a95554" d="M 87.5,74.5 C 87.8333,74.5 88.1667,74.5 88.5,74.5C 88.3147,75.1701 87.9813,75.1701 87.5,74.5 Z"/></g>
<g><path style="opacity:0.012" fill="#540000" d="M 86.5,75.5 C 86.8333,75.5 87.1667,75.5 87.5,75.5C 87.3147,76.1701 86.9813,76.1701 86.5,75.5 Z"/></g>
<g><path style="opacity:0.008" fill="#2c1919" d="M 10.5,76.5 C 10.8333,76.5 11.1667,76.5 11.5,76.5C 11.5,77.1667 11.5,77.8333 11.5,78.5C 10.6618,78.1583 10.3284,77.4916 10.5,76.5 Z"/></g>
<g><path style="opacity:0.004" fill="#38201f" d="M 11.5,78.5 C 11.8333,78.5 12.1667,78.5 12.5,78.5C 12.1667,81.1667 11.8333,81.1667 11.5,78.5 Z"/></g>
<g><path style="opacity:1" fill="#cec7bf" d="M 14.5,42.5 C 14.335,45.8499 14.5017,49.1832 15,52.5C 17.1326,54.0905 18.7993,56.0905 20,58.5C 22.5635,65.1821 26.0635,71.3488 30.5,77C 33.7335,77.1997 36.7335,78.0331 39.5,79.5C 40.4164,79.4573 41.0831,79.1239 41.5,78.5C 43.4044,78.2624 44.7377,77.2624 45.5,75.5C 48.6306,71.5707 50.9639,67.2373 52.5,62.5C 52.281,63.675 52.6143,64.675 53.5,65.5C 56.9455,58.6416 58.2788,51.3082 57.5,43.5C 57.8333,43.5 58.1667,43.5 58.5,43.5C 58.5,48.5 58.5,53.5 58.5,58.5C 57.2967,62.1101 56.2967,65.7768 55.5,69.5C 53.2826,74.9288 50.2826,79.9288 46.5,84.5C 34.9677,91.2149 24.801,89.5483 16,79.5C 13.5482,74.9317 11.3815,70.265 9.5,65.5C 12.2364,69.0526 15.2364,72.5526 18.5,76C 21.2607,78.221 24.2607,79.5544 27.5,80C 25.04,78.5422 22.8734,76.7089 21,74.5C 14.839,64.5078 12.6723,53.8411 14.5,42.5 Z"/></g>
<g><path style="opacity:0.999" fill="#765c52" d="M 8.5,42.5 C 8.30894,50.2011 8.64227,57.8678 9.5,65.5C 11.3815,70.265 13.5482,74.9317 16,79.5C 24.801,89.5483 34.9677,91.2149 46.5,84.5C 54.3192,83.7758 61.8192,83.4424 69,83.5C 71.2575,81.8764 73.4242,80.0431 75.5,78C 79.9781,77.062 83.3114,74.2287 85.5,69.5C 87.0174,69.4894 88.1841,68.8228 89,67.5C 89.9949,63.8549 90.8283,60.1883 91.5,56.5C 92.1667,56.5 92.8333,56.5 93.5,56.5C 93.5,57.8333 93.5,59.1667 93.5,60.5C 92.1667,61.8333 92.1667,63.1667 93.5,64.5C 93.2064,67.7541 91.873,70.4208 89.5,72.5C 89.1667,71.1667 88.8333,71.1667 88.5,72.5C 87.6618,72.8417 87.3284,73.5084 87.5,74.5C 86.8333,74.5 86.5,74.8333 86.5,75.5C 85.1667,75.8333 85.1667,76.1667 86.5,76.5C 85.1667,79.8333 82.8333,82.1667 79.5,83.5C 79.1667,82.1667 78.8333,82.1667 78.5,83.5C 77.1667,83.8333 77.1667,84.1667 78.5,84.5C 74.8557,87.8198 70.5224,89.8198 65.5,90.5C 63.8333,89.1667 62.1667,89.1667 60.5,90.5C 47.1667,90.8333 47.1667,91.1667 60.5,91.5C 50.0528,93.4362 39.3861,93.9362 28.5,93C 26.0506,92.2754 23.7173,91.2754 21.5,90C 20.1667,89.3333 20.1667,88.6667 21.5,88C 18.2678,84.9377 15.2678,81.771 12.5,78.5C 12.6716,77.5084 12.3382,76.8417 11.5,76.5C 11.1667,75.1667 10.8333,75.1667 10.5,76.5C 7.49086,72.7942 5.82419,68.4608 5.5,63.5C 6.33825,63.1583 6.67158,62.4916 6.5,61.5C 7.16667,55.1667 7.83333,48.8333 8.5,42.5 Z"/></g>
<g><path style="opacity:1" fill="#69473b" d="M 85.5,69.5 C 83.3114,74.2287 79.9781,77.062 75.5,78C 73.4242,80.0431 71.2575,81.8764 69,83.5C 61.8192,83.4424 54.3192,83.7758 46.5,84.5C 50.2826,79.9288 53.2826,74.9288 55.5,69.5C 55.8593,71.8312 56.526,71.6645 57.5,69C 64.8561,68.3642 72.1894,68.5309 79.5,69.5C 79.281,68.325 79.6143,67.325 80.5,66.5C 82.5976,66.9572 84.2642,67.9572 85.5,69.5 Z"/></g>
<g><path style="opacity:0.016" fill="#3e3f3e" d="M 78.5,83.5 C 78.8333,83.5 79.1667,83.5 79.5,83.5C 79.3147,84.1701 78.9813,84.1701 78.5,83.5 Z"/></g>
<g><path style="opacity:0.006" fill="#2d2625" d="M 60.5,91.5 C 60.5,91.1667 60.5,90.8333 60.5,90.5C 62.1667,90.5 63.8333,90.5 65.5,90.5C 64.0813,91.4511 62.4147,91.7845 60.5,91.5 Z"/></g>
</svg>
