<?xml version="1.0" encoding="UTF-8"?>
<!DOCTYPE svg PUBLIC "-//W3C//DTD SVG 1.1//EN" "http://www.w3.org/Graphics/SVG/1.1/DTD/svg11.dtd">
<svg xmlns="http://www.w3.org/2000/svg" version="1.1" width="100px" height="100px" style="shape-rendering:geometricPrecision; text-rendering:geometricPrecision; image-rendering:optimizeQuality; fill-rule:evenodd; clip-rule:evenodd" xmlns:xlink="http://www.w3.org/1999/xlink">
<g><path style="opacity:0.651" fill="#dea376" d="M 51.5,21.5 C 51.5,22.1667 51.8333,22.5 52.5,22.5C 52.5,23.1667 52.5,23.8333 52.5,24.5C 52.5,25.1667 52.5,25.8333 52.5,26.5C 51.2719,25.6935 50.2719,24.6935 49.5,23.5C 45.8798,14.3649 39.2131,9.86485 29.5,10C 37.4699,11.8222 37.4699,13.3222 29.5,14.5C 27.4559,15.0312 25.7893,16.1978 24.5,18C 22.5643,18.813 20.5643,19.313 18.5,19.5C 18.6495,18.448 18.4828,17.448 18,16.5C 15.932,18.3962 14.0987,20.3962 12.5,22.5C 13.6045,20.8467 13.7712,19.18 13,17.5C 13.3333,17.8333 13.6667,18.1667 14,18.5C 15.8333,16.6667 17.6667,14.8333 19.5,13C 19.1667,12.6667 18.8333,12.3333 18.5,12C 20.2652,10.7022 22.0986,9.53553 24,8.5C 26.6166,9.42138 29.2833,9.42138 32,8.5C 34.6369,8.65679 37.1369,9.32346 39.5,10.5C 40.1667,10.1667 40.8333,9.83333 41.5,9.5C 41.2964,10.5294 41.7964,11.5294 43,12.5C 43.7175,11.5494 44.5509,11.3828 45.5,12C 46.8333,12.6667 46.8333,13.3333 45.5,14C 46.7434,16.0338 48.2434,16.8671 50,16.5C 50.6172,17.4491 50.4506,18.2825 49.5,19C 50.0659,19.9947 50.7326,20.828 51.5,21.5 Z"/></g>
<g><path style="opacity:0.008" fill="#ec6b3c" d="M 52.5,22.5 C 51.8333,22.5 51.5,22.1667 51.5,21.5C 51.7467,19.0248 52.4134,19.0248 53.5,21.5C 53.3764,22.1067 53.0431,22.44 52.5,22.5 Z"/></g>
<g><path style="opacity:1" fill="#d07f3f" d="M 49.5,23.5 C 44.871,22.4624 40.2043,22.629 35.5,24C 34.7894,25.2547 33.956,26.4214 33,27.5C 32.404,24.3137 32.904,21.3137 34.5,18.5C 34.8432,16.5168 34.1765,15.1834 32.5,14.5C 31.5,14.5 30.5,14.5 29.5,14.5C 37.4699,13.3222 37.4699,11.8222 29.5,10C 39.2131,9.86485 45.8798,14.3649 49.5,23.5 Z"/></g>
<g><path style="opacity:0.008" fill="#ff8444" d="M 10.5,24.5 C 9.66175,24.8417 9.32842,25.5084 9.5,26.5C 8.2035,25.1512 8.37017,23.8179 10,22.5C 10.4643,23.0944 10.631,23.7611 10.5,24.5 Z"/></g>
<g><path style="opacity:1" fill="#c26325" d="M 34.5,18.5 C 32.904,21.3137 32.404,24.3137 33,27.5C 33.956,26.4214 34.7894,25.2547 35.5,24C 40.2043,22.629 44.871,22.4624 49.5,23.5C 50.2719,24.6935 51.2719,25.6935 52.5,26.5C 51.8333,27.5 51.1667,28.5 50.5,29.5C 44.258,28.8918 38.258,29.8918 32.5,32.5C 31.8796,29.6596 31.2129,26.8263 30.5,24C 31.3968,21.6892 32.7301,19.8559 34.5,18.5 Z"/></g>
<g><path style="opacity:1" fill="#c76b2e" d="M 29.5,14.5 C 25.4252,19.7375 23.7585,25.7375 24.5,32.5C 20.3119,32.7196 15.9786,32.3863 11.5,31.5C 10.7492,32.376 10.2492,33.376 10,34.5C 9.76791,33.2625 9.26791,32.2625 8.5,31.5C 9.038,29.8828 9.37133,28.2161 9.5,26.5C 10.3382,26.1583 10.6716,25.4916 10.5,24.5C 11.1667,23.8333 11.8333,23.1667 12.5,22.5C 14.0987,20.3962 15.932,18.3962 18,16.5C 18.4828,17.448 18.6495,18.448 18.5,19.5C 20.5643,19.313 22.5643,18.813 24.5,18C 25.7893,16.1978 27.4559,15.0312 29.5,14.5 Z"/></g>
<g><path style="opacity:1" fill="#ba551e" d="M 50.5,29.5 C 52.1157,31.4158 51.7823,32.9158 49.5,34C 44.1526,35.1706 38.8193,36.3373 33.5,37.5C 32.6993,35.9582 32.366,34.2915 32.5,32.5C 38.258,29.8918 44.258,28.8918 50.5,29.5 Z"/></g>
<g><path style="opacity:1" fill="#ae4d1e" d="M 52.5,24.5 C 53.8908,26.9596 55.0575,29.6262 56,32.5C 56.3333,31.5 56.6667,30.5 57,29.5C 58.1488,32.3926 58.6488,35.3926 58.5,38.5C 58.5,38.8333 58.5,39.1667 58.5,39.5C 57.8333,39.5 57.5,39.8333 57.5,40.5C 55.6208,41.3414 53.6208,41.6747 51.5,41.5C 51.9175,40.7784 52.5842,40.2784 53.5,40C 51.5188,39.3946 51.1854,38.3946 52.5,37C 51.8333,36.8333 51.1667,36.6667 50.5,36.5C 46.6935,38.4027 42.6935,39.736 38.5,40.5C 35.9524,40.7351 34.2858,39.7351 33.5,37.5C 38.8193,36.3373 44.1526,35.1706 49.5,34C 51.7823,32.9158 52.1157,31.4158 50.5,29.5C 51.1667,28.5 51.8333,27.5 52.5,26.5C 52.5,25.8333 52.5,25.1667 52.5,24.5 Z"/></g>
<g><path style="opacity:0.999" fill="#d79768" d="M 58.5,39.5 C 58.5,39.1667 58.5,38.8333 58.5,38.5C 67.7793,38.6485 76.1126,41.4818 83.5,47C 83.1667,47.3333 82.8333,47.6667 82.5,48C 84.3734,49.7038 86.0401,51.5372 87.5,53.5C 87.631,54.2389 87.4643,54.9056 87,55.5C 85.9609,54.2899 84.7942,53.2899 83.5,52.5C 76.6567,45.4955 68.3234,42.3288 58.5,43C 59.5,43.3333 60.5,43.6667 61.5,44C 55.8973,45.1237 50.2306,45.7904 44.5,46C 41.2577,47.6395 37.9243,48.6395 34.5,49C 35.3805,48.2917 36.0472,47.4584 36.5,46.5C 40.8132,43.1623 45.8132,41.4956 51.5,41.5C 53.6208,41.6747 55.6208,41.3414 57.5,40.5C 59.8568,40.6633 62.1902,40.4966 64.5,40C 62.5273,39.5045 60.5273,39.3379 58.5,39.5 Z"/></g>
<g><path style="opacity:1" fill="#a84014" d="M 32.5,14.5 C 34.1765,15.1834 34.8432,16.5168 34.5,18.5C 32.7301,19.8559 31.3968,21.6892 30.5,24C 31.2129,26.8263 31.8796,29.6596 32.5,32.5C 32.366,34.2915 32.6993,35.9582 33.5,37.5C 34.2858,39.7351 35.9524,40.7351 38.5,40.5C 42.6935,39.736 46.6935,38.4027 50.5,36.5C 51.1667,36.6667 51.8333,36.8333 52.5,37C 51.1854,38.3946 51.5188,39.3946 53.5,40C 52.5842,40.2784 51.9175,40.7784 51.5,41.5C 45.8132,41.4956 40.8132,43.1623 36.5,46.5C 34.9731,46.427 33.9731,47.0937 33.5,48.5C 32.8333,48.5 32.1667,48.5 31.5,48.5C 27.7832,39.539 26.6166,30.2056 28,20.5C 29.4196,18.578 31.2529,17.2446 33.5,16.5C 33.1373,15.8165 32.8039,15.1499 32.5,14.5 Z"/></g>
<g><path style="opacity:1" fill="#c5723a" d="M 83.5,52.5 C 75.7355,49.1119 67.5688,47.7785 59,48.5C 54.5,48.6667 50,48.8333 45.5,49C 40.9116,50.3979 36.245,51.0646 31.5,51C 32.3805,50.2917 33.0472,49.4584 33.5,48.5C 33.9731,47.0937 34.9731,46.427 36.5,46.5C 36.0472,47.4584 35.3805,48.2917 34.5,49C 37.9243,48.6395 41.2577,47.6395 44.5,46C 50.2306,45.7904 55.8973,45.1237 61.5,44C 60.5,43.6667 59.5,43.3333 58.5,43C 68.3234,42.3288 76.6567,45.4955 83.5,52.5 Z"/></g>
<g><path style="opacity:1" fill="#9f3811" d="M 29.5,14.5 C 30.5,14.5 31.5,14.5 32.5,14.5C 32.8039,15.1499 33.1373,15.8165 33.5,16.5C 31.2529,17.2446 29.4196,18.578 28,20.5C 26.6166,30.2056 27.7832,39.539 31.5,48.5C 30.1667,50.5 28.5,52.1667 26.5,53.5C 23.131,53.5261 19.4643,53.3594 15.5,53C 13.6769,52.0027 12.0103,50.8361 10.5,49.5C 9.41383,49.38 8.74716,48.7133 8.5,47.5C 7.67296,44.2169 7.33963,40.8835 7.5,37.5C 7.16667,32.1667 6.83333,32.1667 6.5,37.5C 6.5,37.8333 6.5,38.1667 6.5,38.5C 5.51658,42.2984 5.18325,46.2984 5.5,50.5C 4.07419,43.5217 4.57419,36.5217 7,29.5C 7.23209,30.7375 7.73209,31.7375 8.5,32.5C 8.5,34.5 8.5,36.5 8.5,38.5C 9.32577,41.2429 10.6591,43.7429 12.5,46C 17.4707,47.0424 22.4707,47.8757 27.5,48.5C 28.3328,45.342 27.9994,42.342 26.5,39.5C 26.5905,36.8478 25.9238,34.5145 24.5,32.5C 23.7585,25.7375 25.4252,19.7375 29.5,14.5 Z"/></g>
<g><path style="opacity:1" fill="#ad4617" d="M 8.5,38.5 C 11.8355,39.9998 15.3355,40.9998 19,41.5C 21.4751,40.4647 23.4751,40.798 25,42.5C 26.0386,41.7562 26.5386,40.7562 26.5,39.5C 27.9994,42.342 28.3328,45.342 27.5,48.5C 22.4707,47.8757 17.4707,47.0424 12.5,46C 10.6591,43.7429 9.32577,41.2429 8.5,38.5 Z"/></g>
<g><path style="opacity:1" fill="#b6501b" d="M 8.5,31.5 C 9.26791,32.2625 9.76791,33.2625 10,34.5C 10.2492,33.376 10.7492,32.376 11.5,31.5C 15.9786,32.3863 20.3119,32.7196 24.5,32.5C 25.9238,34.5145 26.5905,36.8478 26.5,39.5C 26.5386,40.7562 26.0386,41.7562 25,42.5C 23.4751,40.798 21.4751,40.4647 19,41.5C 15.3355,40.9998 11.8355,39.9998 8.5,38.5C 8.5,36.5 8.5,34.5 8.5,32.5C 8.5,32.1667 8.5,31.8333 8.5,31.5 Z"/></g>
<g><path style="opacity:1" fill="#b95d28" d="M 31.5,48.5 C 32.1667,48.5 32.8333,48.5 33.5,48.5C 33.0472,49.4584 32.3805,50.2917 31.5,51C 36.245,51.0646 40.9116,50.3979 45.5,49C 50,48.8333 54.5,48.6667 59,48.5C 67.5688,47.7785 75.7355,49.1119 83.5,52.5C 83.2648,53.0967 82.7648,53.4301 82,53.5C 65.8901,49.7812 49.7234,49.6145 33.5,53C 30.5916,55.9004 27.5916,57.7337 24.5,58.5C 24.8925,56.7162 25.5592,55.0495 26.5,53.5C 28.5,52.1667 30.1667,50.5 31.5,48.5 Z"/></g>
<g><path style="opacity:0.016" fill="#472605" d="M 5.5,50.5 C 5.83333,50.5 6.16667,50.5 6.5,50.5C 6.21552,52.4147 6.54885,54.0813 7.5,55.5C 7.26269,56.791 7.59603,57.791 8.5,58.5C 8.58747,61.5983 8.08747,61.9316 7,59.5C 5.85123,56.6074 5.35123,53.6074 5.5,50.5 Z"/></g>
<g><path style="opacity:1" fill="#922e0e" d="M 10.5,49.5 C 12.0103,50.8361 13.6769,52.0027 15.5,53C 19.4643,53.3594 23.131,53.5261 26.5,53.5C 25.5592,55.0495 24.8925,56.7162 24.5,58.5C 23.6618,58.8417 23.3284,59.5084 23.5,60.5C 22.6618,60.8417 22.3284,61.5084 22.5,62.5C 19.2132,63.8138 16.0465,63.4805 13,61.5C 12.4869,58.9733 11.3202,56.8067 9.5,55C 10.0223,54.0497 10.689,53.2164 11.5,52.5C 10.8728,51.5832 10.5394,50.5832 10.5,49.5 Z"/></g>
<g><path style="opacity:1" fill="#ab4c1c" d="M 83.5,52.5 C 84.7942,53.2899 85.9609,54.2899 87,55.5C 87.4643,54.9056 87.631,54.2389 87.5,53.5C 88.5,54.8333 89.5,56.1667 90.5,57.5C 90.5,58.1667 90.5,58.8333 90.5,59.5C 90.5299,60.4972 90.0299,61.1639 89,61.5C 87.8767,59.9003 86.3767,58.9003 84.5,58.5C 83.7326,57.828 83.0659,56.9947 82.5,56C 62.6194,51.4337 43.4527,53.267 25,61.5C 24.2352,61.4301 23.7352,61.0967 23.5,60.5C 23.3284,59.5084 23.6618,58.8417 24.5,58.5C 27.5916,57.7337 30.5916,55.9004 33.5,53C 49.7234,49.6145 65.8901,49.7812 82,53.5C 82.7648,53.4301 83.2648,53.0967 83.5,52.5 Z"/></g>
<g><path style="opacity:1" fill="#9b3c13" d="M 84.5,58.5 C 83.4324,59.4345 82.099,59.7678 80.5,59.5C 70.1241,58.0883 60.1241,59.5883 50.5,64C 44.3185,64.9639 38.3185,64.4639 32.5,62.5C 28.2858,60.7132 26.9525,62.0466 28.5,66.5C 34.3895,69.8574 40.7229,71.1907 47.5,70.5C 43.8333,71.1667 40.1667,71.8333 36.5,72.5C 31.5994,71.383 27.2661,69.2164 23.5,66C 22.6634,64.9887 22.33,63.8221 22.5,62.5C 22.3284,61.5084 22.6618,60.8417 23.5,60.5C 23.7352,61.0967 24.2352,61.4301 25,61.5C 43.4527,53.267 62.6194,51.4337 82.5,56C 83.0659,56.9947 83.7326,57.828 84.5,58.5 Z"/></g>
<g><path style="opacity:0.016" fill="#6f4223" d="M 93.5,62.5 C 93.1667,62.5 92.8333,62.5 92.5,62.5C 92.7373,61.209 92.404,60.209 91.5,59.5C 91.6716,58.5084 91.3382,57.8417 90.5,57.5C 90.3932,55.6214 90.8932,55.2881 92,56.5C 93.128,58.3453 93.628,60.3453 93.5,62.5 Z"/></g>
<g><path style="opacity:1" fill="#641d0d" d="M 32.5,62.5 C 31.448,62.3505 30.448,62.5172 29.5,63C 33.7196,65.1782 38.2196,66.3449 43,66.5C 49.9876,65.7115 56.8209,64.2115 63.5,62C 68.8333,61.3333 74.1667,61.3333 79.5,62C 81.4211,62.3603 83.0878,63.1936 84.5,64.5C 85.1067,64.3764 85.44,64.0431 85.5,63.5C 86.6464,65.5592 85.8131,66.5592 83,66.5C 77.2691,64.7366 71.4358,64.2366 65.5,65C 59.7411,67.53 53.7411,69.3634 47.5,70.5C 40.7229,71.1907 34.3895,69.8574 28.5,66.5C 26.9525,62.0466 28.2858,60.7132 32.5,62.5 Z"/></g>
<g><path style="opacity:0.004" fill="#1e0300" d="M 9.5,62.5 C 9.5,63.1667 9.5,63.8333 9.5,64.5C 8.16667,63.8333 8.16667,63.1667 9.5,62.5 Z"/></g>
<g><path style="opacity:0.004" fill="#b11909" d="M 93.5,62.5 C 94.8333,64.5 94.8333,66.5 93.5,68.5C 93.5,66.5 93.5,64.5 93.5,62.5 Z"/></g>
<g><path style="opacity:1" fill="#450b02" d="M 80.5,59.5 C 82.3492,60.593 84.0158,61.9263 85.5,63.5C 85.44,64.0431 85.1067,64.3764 84.5,64.5C 83.0878,63.1936 81.4211,62.3603 79.5,62C 74.1667,61.3333 68.8333,61.3333 63.5,62C 56.8209,64.2115 49.9876,65.7115 43,66.5C 38.2196,66.3449 33.7196,65.1782 29.5,63C 30.448,62.5172 31.448,62.3505 32.5,62.5C 38.3185,64.4639 44.3185,64.9639 50.5,64C 60.1241,59.5883 70.1241,58.0883 80.5,59.5 Z"/></g>
<g><path style="opacity:0.008" fill="#321402" d="M 9.5,64.5 C 9.83333,64.5 10.1667,64.5 10.5,64.5C 10.5,65.1667 10.8333,65.5 11.5,65.5C 11.5,66.1667 11.5,66.8333 11.5,67.5C 10.0937,67.0269 9.42702,66.0269 9.5,64.5 Z"/></g>
<g><path style="opacity:1" fill="#a14724" d="M 84.5,58.5 C 86.3767,58.9003 87.8767,59.9003 89,61.5C 90.0299,61.1639 90.5299,60.4972 90.5,59.5C 90.8333,59.5 91.1667,59.5 91.5,59.5C 91.5,60.5 91.5,61.5 91.5,62.5C 90.603,63.5981 89.7697,63.5981 89,62.5C 87.8797,64.0302 87.0464,65.6968 86.5,67.5C 83.3904,69.9341 80.0571,70.1008 76.5,68C 72.1667,67.3333 67.8333,67.3333 63.5,68C 55.4831,71.2542 47.1498,72.7542 38.5,72.5C 37.8333,72.5 37.1667,72.5 36.5,72.5C 40.1667,71.8333 43.8333,71.1667 47.5,70.5C 53.7411,69.3634 59.7411,67.53 65.5,65C 71.4358,64.2366 77.2691,64.7366 83,66.5C 85.8131,66.5592 86.6464,65.5592 85.5,63.5C 84.0158,61.9263 82.3492,60.593 80.5,59.5C 82.099,59.7678 83.4324,59.4345 84.5,58.5 Z"/></g>
<g><path style="opacity:0.004" fill="#240800" d="M 11.5,67.5 C 11.8333,67.5 12.1667,67.5 12.5,67.5C 12.1667,70.1667 11.8333,70.1667 11.5,67.5 Z"/></g>
<g><path style="opacity:1" fill="#882c0f" d="M 86.5,67.5 C 86.5858,68.4959 86.2524,69.3292 85.5,70C 74.232,71.7366 62.8987,72.9032 51.5,73.5C 46.9677,73.8182 42.6344,73.4849 38.5,72.5C 47.1498,72.7542 55.4831,71.2542 63.5,68C 67.8333,67.3333 72.1667,67.3333 76.5,68C 80.0571,70.1008 83.3904,69.9341 86.5,67.5 Z"/></g>
<g><path style="opacity:0.016" fill="#6b3802" d="M 92.5,68.5 C 92.8333,68.5 93.1667,68.5 93.5,68.5C 93.7373,69.791 93.404,70.791 92.5,71.5C 92.5,70.5 92.5,69.5 92.5,68.5 Z"/></g>
<g><path style="opacity:1" fill="#80270d" d="M 91.5,62.5 C 91.8333,62.5 92.1667,62.5 92.5,62.5C 92.5,64.5 92.5,66.5 92.5,68.5C 92.1667,68.5 91.8333,68.5 91.5,68.5C 90.1751,69.9526 89.3418,69.6192 89,67.5C 87.8236,69.1957 86.657,70.8624 85.5,72.5C 82.0542,71.3662 79.0542,72.1995 76.5,75C 73.5682,75.9533 70.5682,76.4533 67.5,76.5C 60.3713,76.4773 53.2046,76.4773 46,76.5C 43.595,75.7256 41.095,75.2256 38.5,75C 43.0195,74.8247 47.3528,74.3247 51.5,73.5C 62.8987,72.9032 74.232,71.7366 85.5,70C 86.2524,69.3292 86.5858,68.4959 86.5,67.5C 87.0464,65.6968 87.8797,64.0302 89,62.5C 89.7697,63.5981 90.603,63.5981 91.5,62.5 Z"/></g>
<g><path style="opacity:1" fill="#78210a" d="M 15.5,66.5 C 17.7131,67.6053 19.8797,67.6053 22,66.5C 31.4323,75.6971 42.7657,79.3637 56,77.5C 60.0152,77.4988 63.8485,77.1655 67.5,76.5C 70.5682,76.4533 73.5682,75.9533 76.5,75C 79.0542,72.1995 82.0542,71.3662 85.5,72.5C 84.8592,73.4822 84.1925,74.4822 83.5,75.5C 66.2781,80.4772 48.9448,80.8105 31.5,76.5C 29.4504,74.4525 27.117,72.7859 24.5,71.5C 21.4391,69.98 18.4391,68.3133 15.5,66.5 Z"/></g>
<g><path style="opacity:0.012" fill="#4d0000" d="M 91.5,71.5 C 91.8333,71.5 92.1667,71.5 92.5,71.5C 92.6716,72.4916 92.3382,73.1583 91.5,73.5C 91.5,72.8333 91.5,72.1667 91.5,71.5 Z"/></g>
<g><path style="opacity:1" fill="#7f260d" d="M 6.5,37.5 C 6.83333,37.5 7.16667,37.5 7.5,37.5C 7.33963,40.8835 7.67296,44.2169 8.5,47.5C 8.74716,48.7133 9.41383,49.38 10.5,49.5C 10.5394,50.5832 10.8728,51.5832 11.5,52.5C 10.689,53.2164 10.0223,54.0497 9.5,55C 11.3202,56.8067 12.4869,58.9733 13,61.5C 16.0465,63.4805 19.2132,63.8138 22.5,62.5C 22.33,63.8221 22.6634,64.9887 23.5,66C 27.2661,69.2164 31.5994,71.383 36.5,72.5C 37.1667,72.5 37.8333,72.5 38.5,72.5C 42.6344,73.4849 46.9677,73.8182 51.5,73.5C 47.3528,74.3247 43.0195,74.8247 38.5,75C 41.095,75.2256 43.595,75.7256 46,76.5C 53.2046,76.4773 60.3713,76.4773 67.5,76.5C 63.8485,77.1655 60.0152,77.4988 56,77.5C 42.7657,79.3637 31.4323,75.6971 22,66.5C 19.8797,67.6053 17.7131,67.6053 15.5,66.5C 13.0343,64.2597 11.0343,61.593 9.5,58.5C 9.16667,58.5 8.83333,58.5 8.5,58.5C 8.73731,57.209 8.40397,56.209 7.5,55.5C 7.78448,53.5853 7.45115,51.9187 6.5,50.5C 6.5,46.5 6.5,42.5 6.5,38.5C 6.5,38.1667 6.5,37.8333 6.5,37.5 Z"/></g>
<g><path style="opacity:0.008" fill="#240800" d="M 90.5,73.5 C 90.8333,73.5 91.1667,73.5 91.5,73.5C 91.6716,74.4916 91.3382,75.1583 90.5,75.5C 90.5,74.8333 90.5,74.1667 90.5,73.5 Z"/></g>
<g><path style="opacity:0.004" fill="#240800" d="M 89.5,75.5 C 89.8333,75.5 90.1667,75.5 90.5,75.5C 90.6716,76.4916 90.3382,77.1583 89.5,77.5C 89.5,76.8333 89.5,76.1667 89.5,75.5 Z"/></g>
<g><path style="opacity:0.996" fill="#54180b" d="M 9.5,58.5 C 11.0343,61.593 13.0343,64.2597 15.5,66.5C 18.4391,68.3133 21.4391,69.98 24.5,71.5C 26.8333,74.1667 29.1667,76.8333 31.5,79.5C 30.1667,79.1667 28.8333,78.8333 27.5,78.5C 26.1667,78.8333 26.1667,79.1667 27.5,79.5C 27.2648,80.0967 26.7648,80.4301 26,80.5C 25.7474,79.4655 24.914,78.4655 23.5,77.5C 22.549,78.3256 21.549,78.4922 20.5,78C 19.1667,77.3333 19.1667,76.6667 20.5,76C 17.6007,73.2709 14.934,70.4376 12.5,67.5C 12.6716,66.5084 12.3382,65.8417 11.5,65.5C 10.8333,65.5 10.5,65.1667 10.5,64.5C 10.6716,63.5084 10.3382,62.8417 9.5,62.5C 9.5,61.1667 9.5,59.8333 9.5,58.5 Z"/></g>
<g><path style="opacity:0.012" fill="#540000" d="M 88.5,77.5 C 88.8333,77.5 89.1667,77.5 89.5,77.5C 89.3147,78.1701 88.9813,78.1701 88.5,77.5 Z"/></g>
<g><path style="opacity:0.012" fill="#540000" d="M 87.5,78.5 C 87.8333,78.5 88.1667,78.5 88.5,78.5C 88.3147,79.1701 87.9813,79.1701 87.5,78.5 Z"/></g>
<g><path style="opacity:1" fill="#701e09" d="M 91.5,68.5 C 91.5,69.5 91.5,70.5 91.5,71.5C 90.6618,71.8417 90.3284,72.5084 90.5,73.5C 89.6618,73.8417 89.3284,74.5084 89.5,75.5C 88.8333,75.5 88.5,75.8333 88.5,76.5C 87.5041,76.5858 86.6708,76.2524 86,75.5C 82.5788,77.4608 79.0788,79.2941 75.5,81C 61.3497,83.4072 47.3497,82.7406 33.5,79C 32.6195,78.2917 31.9528,77.4584 31.5,76.5C 48.9448,80.8105 66.2781,80.4772 83.5,75.5C 84.1925,74.4822 84.8592,73.4822 85.5,72.5C 86.657,70.8624 87.8236,69.1957 89,67.5C 89.3418,69.6192 90.1751,69.9526 91.5,68.5 Z"/></g>
<g><path style="opacity:0.012" fill="#540000" d="M 86.5,79.5 C 86.8333,79.5 87.1667,79.5 87.5,79.5C 87.3147,80.1701 86.9813,80.1701 86.5,79.5 Z"/></g>
<g><path style="opacity:0.016" fill="#3e0000" d="M 85.5,80.5 C 85.8333,80.5 86.1667,80.5 86.5,80.5C 86.3147,81.1701 85.9813,81.1701 85.5,80.5 Z"/></g>
<g><path style="opacity:0.012" fill="#540000" d="M 84.5,81.5 C 84.8333,81.5 85.1667,81.5 85.5,81.5C 85.3147,82.1701 84.9813,82.1701 84.5,81.5 Z"/></g>
<g><path style="opacity:1" fill="#5b1506" d="M 24.5,71.5 C 27.117,72.7859 29.4504,74.4525 31.5,76.5C 31.9528,77.4584 32.6195,78.2917 33.5,79C 47.3497,82.7406 61.3497,83.4072 75.5,81C 79.0788,79.2941 82.5788,77.4608 86,75.5C 86.6708,76.2524 87.5041,76.5858 88.5,76.5C 88.5,76.8333 88.5,77.1667 88.5,77.5C 87.8333,77.5 87.5,77.8333 87.5,78.5C 86.8333,78.5 86.5,78.8333 86.5,79.5C 86.1667,79.5 85.8333,79.5 85.5,79.5C 84.5041,79.5858 83.6708,79.2524 83,78.5C 82.487,80.5206 81.3203,82.0206 79.5,83C 67.0042,86.7392 54.3375,87.4059 41.5,85C 37.9789,83.4082 34.6456,81.5749 31.5,79.5C 29.1667,76.8333 26.8333,74.1667 24.5,71.5 Z"/></g>
<g><path style="opacity:1" fill="#46140a" d="M 27.5,79.5 C 27.5,79.1667 27.5,78.8333 27.5,78.5C 28.8333,78.8333 30.1667,79.1667 31.5,79.5C 34.6456,81.5749 37.9789,83.4082 41.5,85C 54.3375,87.4059 67.0042,86.7392 79.5,83C 81.3203,82.0206 82.487,80.5206 83,78.5C 83.6708,79.2524 84.5041,79.5858 85.5,79.5C 85.5,79.8333 85.5,80.1667 85.5,80.5C 84.8333,80.5 84.5,80.8333 84.5,81.5C 83.1667,81.8333 83.1667,82.1667 84.5,82.5C 82.3709,84.9501 79.7043,86.6167 76.5,87.5C 75.8333,86.1667 75.1667,86.1667 74.5,87.5C 71.8333,87.8333 71.8333,88.1667 74.5,88.5C 73.5039,89.6651 72.1705,90.3318 70.5,90.5C 67.3429,89.3132 64.3429,89.3132 61.5,90.5C 58.5,90.5 55.5,90.5 52.5,90.5C 48.9873,89.6692 45.3207,89.5025 41.5,90C 38.8333,89.3333 38.8333,88.6667 41.5,88C 39.8904,86.5053 38.2237,86.3387 36.5,87.5C 34.3703,86.5328 32.3703,85.3662 30.5,84C 30.7914,82.0421 29.7914,80.5421 27.5,79.5 Z"/></g>
<g><path style="opacity:0.008" fill="#680001" d="M 74.5,88.5 C 74.5,88.1667 74.5,87.8333 74.5,87.5C 75.1667,87.5 75.8333,87.5 76.5,87.5C 76.1583,88.3382 75.4916,88.6716 74.5,88.5 Z"/></g>
<g><path style="opacity:0.005" fill="#210700" d="M 52.5,90.5 C 55.2869,91.4767 58.2869,91.81 61.5,91.5C 56.6217,92.6899 51.6217,92.5232 46.5,91C 48.4727,90.5045 50.4727,90.3379 52.5,90.5 Z"/></g>
<g><path style="opacity:0.009" fill="#0e0200" d="M 61.5,91.5 C 61.5,91.1667 61.5,90.8333 61.5,90.5C 69.5,90.8333 69.5,91.1667 61.5,91.5 Z"/></g>
</svg>
