<?xml version="1.0" encoding="UTF-8"?>
<!DOCTYPE svg PUBLIC "-//W3C//DTD SVG 1.1//EN" "http://www.w3.org/Graphics/SVG/1.1/DTD/svg11.dtd">
<svg xmlns="http://www.w3.org/2000/svg" version="1.1" width="100px" height="100px" style="shape-rendering:geometricPrecision; text-rendering:geometricPrecision; image-rendering:optimizeQuality; fill-rule:evenodd; clip-rule:evenodd" xmlns:xlink="http://www.w3.org/1999/xlink">
<g><path style="opacity:0.012" fill="#ffa566" d="M 40.5,5.5 C 41.2506,4.42654 42.2506,4.25988 43.5,5C 42.552,5.48278 41.552,5.64945 40.5,5.5 Z"/></g>
<g><path style="opacity:0.024" fill="#fff7d4" d="M 52.5,5.5 C 52.5,5.83333 52.5,6.16667 52.5,6.5C 51.8333,6.5 51.1667,6.5 50.5,6.5C 50.1667,7.16667 49.8333,7.83333 49.5,8.5C 48.5,8.5 47.5,8.5 46.5,8.5C 46.1667,7.83333 45.8333,7.16667 45.5,6.5C 45.9382,6.56544 46.2716,6.39877 46.5,6C 45.8333,5.66667 45.1667,5.33333 44.5,5C 47.2605,4.27817 49.9272,4.44484 52.5,5.5 Z"/></g>
<g><path style="opacity:0.996" fill="#ffe52f" d="M 45.5,6.5 C 45.8333,7.16667 46.1667,7.83333 46.5,8.5C 47.7914,9.47283 47.7914,10.4728 46.5,11.5C 44.8327,12.6664 43.166,12.6664 41.5,11.5C 41.5,10.8333 41.1667,10.5 40.5,10.5C 40.3838,7.08968 42.0504,5.75635 45.5,6.5 Z"/></g>
<g><path style="opacity:0.998" fill="#ffe347" d="M 52.5,5.5 C 53.779,4.28485 54.779,4.61818 55.5,6.5C 54.1667,7.16667 54.1667,7.83333 55.5,8.5C 55.5,8.83333 55.5,9.16667 55.5,9.5C 54.8333,9.5 54.5,9.83333 54.5,10.5C 53.5,10.5 52.5,10.5 51.5,10.5C 54.1784,7.47695 53.5118,6.81029 49.5,8.5C 49.8333,7.83333 50.1667,7.16667 50.5,6.5C 51.1667,6.5 51.8333,6.5 52.5,6.5C 53.8333,6.16667 53.8333,5.83333 52.5,5.5 Z"/></g>
<g><path style="opacity:0.012" fill="#fde29c" d="M 55.5,6.5 C 58.1708,8.93408 61.0042,11.2674 64,13.5C 64.2256,16.095 64.7256,18.595 65.5,21C 64.944,21.3826 64.6107,21.8826 64.5,22.5C 63.8333,22.5 63.5,22.1667 63.5,21.5C 63.6716,20.5084 63.3382,19.8417 62.5,19.5C 62.5,19.1667 62.5,18.8333 62.5,18.5C 63.7689,16.7428 63.7689,15.7428 62.5,15.5C 62.1667,15.5 61.8333,15.5 61.5,15.5C 60.8902,14.609 60.5569,13.609 60.5,12.5C 60.1667,11.1667 59.8333,11.1667 59.5,12.5C 58.1667,12.5 56.8333,12.5 55.5,12.5C 55.1667,11.8333 54.8333,11.1667 54.5,10.5C 54.5,9.83333 54.8333,9.5 55.5,9.5C 55.5,9.16667 55.5,8.83333 55.5,8.5C 55.5,7.83333 55.5,7.16667 55.5,6.5 Z"/></g>
<g><path style="opacity:1" fill="#ffed4d" d="M 46.5,8.5 C 47.5,8.5 48.5,8.5 49.5,8.5C 49.2571,12.3539 47.2571,14.3539 43.5,14.5C 43.1667,14.5 42.8333,14.5 42.5,14.5C 42.1667,13.8333 41.8333,13.1667 41.5,12.5C 41.5,12.1667 41.5,11.8333 41.5,11.5C 43.166,12.6664 44.8327,12.6664 46.5,11.5C 47.7914,10.4728 47.7914,9.47283 46.5,8.5 Z"/></g>
<g><path style="opacity:0.798" fill="#fffbac" d="M 40.5,10.5 C 41.1667,10.5 41.5,10.8333 41.5,11.5C 41.5,11.8333 41.5,12.1667 41.5,12.5C 38.6703,12.6941 36.0037,13.3608 33.5,14.5C 33.9528,13.5416 34.6195,12.7083 35.5,12C 35.1667,11.6667 34.8333,11.3333 34.5,11C 36.2817,10.1859 37.7817,9.01923 39,7.5C 39.2321,8.73747 39.7321,9.73747 40.5,10.5 Z"/></g>
<g><path style="opacity:1" fill="#fee620" d="M 51.5,10.5 C 52.7649,12.1859 52.7649,13.8526 51.5,15.5C 48.8877,16.3705 46.221,17.0372 43.5,17.5C 43.5,16.5 43.5,15.5 43.5,14.5C 47.2571,14.3539 49.2571,12.3539 49.5,8.5C 53.5118,6.81029 54.1784,7.47695 51.5,10.5 Z"/></g>
<g><path style="opacity:1" fill="#fbce2b" d="M 51.5,10.5 C 52.5,10.5 53.5,10.5 54.5,10.5C 54.8333,11.1667 55.1667,11.8333 55.5,12.5C 55.5,13.1667 55.1667,13.5 54.5,13.5C 53.6618,13.8417 53.3284,14.5084 53.5,15.5C 52.8333,15.8333 52.1667,16.1667 51.5,16.5C 51.5,16.1667 51.5,15.8333 51.5,15.5C 52.7649,13.8526 52.7649,12.1859 51.5,10.5 Z"/></g>
<g><path style="opacity:1" fill="#fee61f" d="M 41.5,12.5 C 41.8333,13.1667 42.1667,13.8333 42.5,14.5C 41.1634,15.3149 40.1634,16.4815 39.5,18C 38.2068,18.49 36.8734,18.6567 35.5,18.5C 34.8333,18.5 34.1667,18.5 33.5,18.5C 33.5,17.1667 33.5,15.8333 33.5,14.5C 36.0037,13.3608 38.6703,12.6941 41.5,12.5 Z"/></g>
<g><path style="opacity:1" fill="#ffe93f" d="M 55.5,12.5 C 56.8333,12.5 58.1667,12.5 59.5,12.5C 59.8333,12.5 60.1667,12.5 60.5,12.5C 60.5569,13.609 60.8902,14.609 61.5,15.5C 58.6122,16.0102 56.2789,15.3435 54.5,13.5C 55.1667,13.5 55.5,13.1667 55.5,12.5 Z"/></g>
<g><path style="opacity:1" fill="#fcd106" d="M 51.5,15.5 C 51.5,15.8333 51.5,16.1667 51.5,16.5C 51.5858,17.4959 51.2524,18.3292 50.5,19C 48.9419,19.21 47.6085,19.71 46.5,20.5C 44.8102,20.1436 43.8102,19.1436 43.5,17.5C 46.221,17.0372 48.8877,16.3705 51.5,15.5 Z"/></g>
<g><path style="opacity:1" fill="#fdd209" d="M 54.5,13.5 C 56.2789,15.3435 58.6122,16.0102 61.5,15.5C 59.2522,18.7988 56.5855,19.1322 53.5,16.5C 53.5,16.1667 53.5,15.8333 53.5,15.5C 53.3284,14.5084 53.6618,13.8417 54.5,13.5 Z"/></g>
<g><path style="opacity:1" fill="#fdd92e" d="M 42.5,14.5 C 42.8333,14.5 43.1667,14.5 43.5,14.5C 43.5,15.5 43.5,16.5 43.5,17.5C 43.8102,19.1436 44.8102,20.1436 46.5,20.5C 46.5,20.8333 46.5,21.1667 46.5,21.5C 44.5168,21.1568 43.1834,21.8235 42.5,23.5C 41.8333,23.5 41.1667,23.5 40.5,23.5C 39.713,21.8958 38.3797,21.2291 36.5,21.5C 36.1667,21.5 35.8333,21.5 35.5,21.5C 35.5,20.5 35.5,19.5 35.5,18.5C 36.8734,18.6567 38.2068,18.49 39.5,18C 40.1634,16.4815 41.1634,15.3149 42.5,14.5 Z"/></g>
<g><path style="opacity:1" fill="#f1b21c" d="M 61.5,15.5 C 61.8333,15.5 62.1667,15.5 62.5,15.5C 62.5,16.5 62.5,17.5 62.5,18.5C 62.1667,18.5 61.8333,18.5 61.5,18.5C 60.596,19.209 60.2627,20.209 60.5,21.5C 59.1667,21.5 57.8333,21.5 56.5,21.5C 56.0269,20.0937 55.0269,19.427 53.5,19.5C 53.5,18.5 53.5,17.5 53.5,16.5C 56.5855,19.1322 59.2522,18.7988 61.5,15.5 Z"/></g>
<g><path style="opacity:0.004" fill="#fff1aa" d="M 33.5,18.5 C 34.1667,18.5 34.8333,18.5 35.5,18.5C 35.5,19.5 35.5,20.5 35.5,21.5C 34.0351,22.7368 32.3684,23.7368 30.5,24.5C 31.1126,21.863 31.1126,19.0297 30.5,16C 31.1258,15.2496 31.6258,14.4162 32,13.5C 32.3333,16.1667 32.6667,18.8333 33,21.5C 33.4828,20.552 33.6495,19.552 33.5,18.5 Z"/></g>
<g><path style="opacity:1" fill="#f3ae1f" d="M 53.5,15.5 C 53.5,15.8333 53.5,16.1667 53.5,16.5C 53.5,17.5 53.5,18.5 53.5,19.5C 53.1667,20.5 52.5,21.1667 51.5,21.5C 50.8333,21.5 50.1667,21.5 49.5,21.5C 48.5,21.5 47.5,21.5 46.5,21.5C 46.5,21.1667 46.5,20.8333 46.5,20.5C 47.6085,19.71 48.9419,19.21 50.5,19C 51.2524,18.3292 51.5858,17.4959 51.5,16.5C 52.1667,16.1667 52.8333,15.8333 53.5,15.5 Z"/></g>
<g><path style="opacity:1" fill="#fdc123" d="M 53.5,19.5 C 55.0269,19.427 56.0269,20.0937 56.5,21.5C 55.6993,23.0418 55.366,24.7085 55.5,26.5C 54.7321,25.7375 54.2321,24.7375 54,23.5C 53.7679,24.7375 53.2679,25.7375 52.5,26.5C 52.5,26.1667 52.5,25.8333 52.5,25.5C 52.5674,24.0413 52.2341,22.7079 51.5,21.5C 52.5,21.1667 53.1667,20.5 53.5,19.5 Z"/></g>
<g><path style="opacity:1" fill="#ffeb29" d="M 46.5,21.5 C 47.5,21.5 48.5,21.5 49.5,21.5C 49.719,22.675 49.3857,23.675 48.5,24.5C 46.5914,25.3482 44.5914,25.6816 42.5,25.5C 42.5,24.8333 42.5,24.1667 42.5,23.5C 43.1834,21.8235 44.5168,21.1568 46.5,21.5 Z"/></g>
<g><path style="opacity:1" fill="#fddb1d" d="M 56.5,21.5 C 57.8333,21.5 59.1667,21.5 60.5,21.5C 60.9867,22.4734 61.4867,23.4734 62,24.5C 62.9862,23.8288 64.1529,23.8288 65.5,24.5C 62.4115,25.7846 59.0781,26.4512 55.5,26.5C 55.366,24.7085 55.6993,23.0418 56.5,21.5 Z"/></g>
<g><path style="opacity:1" fill="#fbe06e" d="M 61.5,18.5 C 61.5,19.1667 61.8333,19.5 62.5,19.5C 62.3284,20.4916 62.6618,21.1583 63.5,21.5C 63.5,22.1667 63.8333,22.5 64.5,22.5C 65.5,22.8333 66.1667,23.5 66.5,24.5C 66.1667,24.5 65.8333,24.5 65.5,24.5C 64.1529,23.8288 62.9862,23.8288 62,24.5C 61.4867,23.4734 60.9867,22.4734 60.5,21.5C 60.2627,20.209 60.596,19.209 61.5,18.5 Z"/></g>
<g><path style="opacity:0.012" fill="#ffec5e" d="M 29.5,24.5 C 28.596,25.209 28.2627,26.209 28.5,27.5C 27.156,25.8151 27.3227,24.1484 29,22.5C 29.4643,23.0944 29.631,23.7611 29.5,24.5 Z"/></g>
<g><path style="opacity:1" fill="#ffee2e" d="M 35.5,21.5 C 35.8333,21.5 36.1667,21.5 36.5,21.5C 38.8721,24.2919 37.8721,25.6252 33.5,25.5C 32.2739,25.4805 31.2739,25.1471 30.5,24.5C 32.3684,23.7368 34.0351,22.7368 35.5,21.5 Z"/></g>
<g><path style="opacity:1" fill="#fee11d" d="M 49.5,21.5 C 50.1667,21.5 50.8333,21.5 51.5,21.5C 52.2341,22.7079 52.5674,24.0413 52.5,25.5C 49.1933,26.0508 45.8599,26.3841 42.5,26.5C 42.5,26.1667 42.5,25.8333 42.5,25.5C 44.5914,25.6816 46.5914,25.3482 48.5,24.5C 49.3857,23.675 49.719,22.675 49.5,21.5 Z"/></g>
<g><path style="opacity:0.998" fill="#fee21f" d="M 36.5,21.5 C 38.3797,21.2291 39.713,21.8958 40.5,23.5C 40.5,24.1667 40.5,24.8333 40.5,25.5C 37.6275,25.8023 34.9608,26.469 32.5,27.5C 31.8333,27.5 31.1667,27.5 30.5,27.5C 30.1667,27.5 29.8333,27.5 29.5,27.5C 29.5,26.5 29.5,25.5 29.5,24.5C 29.8333,24.5 30.1667,24.5 30.5,24.5C 31.2739,25.1471 32.2739,25.4805 33.5,25.5C 37.8721,25.6252 38.8721,24.2919 36.5,21.5 Z"/></g>
<g><path style="opacity:1" fill="#fdd301" d="M 40.5,25.5 C 38.3846,28.5172 35.718,29.1839 32.5,27.5C 34.9608,26.469 37.6275,25.8023 40.5,25.5 Z"/></g>
<g><path style="opacity:1" fill="#fbd005" d="M 52.5,25.5 C 52.5,25.8333 52.5,26.1667 52.5,26.5C 49.7847,28.123 46.7847,28.7896 43.5,28.5C 43.1667,27.8333 42.8333,27.1667 42.5,26.5C 45.8599,26.3841 49.1933,26.0508 52.5,25.5 Z"/></g>
<g><path style="opacity:0.996" fill="#eebb0f" d="M 65.5,24.5 C 65.8333,24.5 66.1667,24.5 66.5,24.5C 66.5,25.5 66.5,26.5 66.5,27.5C 65.8333,27.5 65.5,27.8333 65.5,28.5C 64.8333,28.5 64.1667,28.5 63.5,28.5C 61.1432,28.6633 58.8098,28.4966 56.5,28C 55.944,27.6174 55.6107,27.1174 55.5,26.5C 59.0781,26.4512 62.4115,25.7846 65.5,24.5 Z"/></g>
<g><path style="opacity:0.012" fill="#f8c121" d="M 66.5,27.5 C 67.29,26.3915 67.79,25.0581 68,23.5C 68.8201,25.728 68.4868,27.728 67,29.5C 66.5357,28.9056 66.369,28.2389 66.5,27.5 Z"/></g>
<g><path style="opacity:0.996" fill="#f7bc20" d="M 40.5,23.5 C 41.1667,23.5 41.8333,23.5 42.5,23.5C 42.5,24.1667 42.5,24.8333 42.5,25.5C 42.5,25.8333 42.5,26.1667 42.5,26.5C 42.8333,27.1667 43.1667,27.8333 43.5,28.5C 43.5,28.8333 43.5,29.1667 43.5,29.5C 42.8501,29.1961 42.1835,28.8627 41.5,28.5C 40.3578,29.8262 39.0245,30.8262 37.5,31.5C 37.1667,31.5 36.8333,31.5 36.5,31.5C 35.5,31.5 34.5,31.5 33.5,31.5C 32.1001,30.9002 31.1001,29.9002 30.5,28.5C 30.5,28.1667 30.5,27.8333 30.5,27.5C 31.1667,27.5 31.8333,27.5 32.5,27.5C 35.718,29.1839 38.3846,28.5172 40.5,25.5C 40.5,24.8333 40.5,24.1667 40.5,23.5 Z"/></g>
<g><path style="opacity:1" fill="#fed51f" d="M 43.5,29.5 C 43.9731,30.9063 44.9731,31.573 46.5,31.5C 48.099,31.2322 49.4324,31.5655 50.5,32.5C 48.1432,32.3367 45.8098,32.5034 43.5,33C 42.7476,33.6708 42.4142,34.5041 42.5,35.5C 42.5,35.8333 42.5,36.1667 42.5,36.5C 41.4415,35.3998 40.6082,34.0664 40,32.5C 39.7679,33.7375 39.2679,34.7375 38.5,35.5C 38.5674,34.0413 38.2341,32.7079 37.5,31.5C 39.0245,30.8262 40.3578,29.8262 41.5,28.5C 42.1835,28.8627 42.8501,29.1961 43.5,29.5 Z"/></g>
<g><path style="opacity:1" fill="#eeb20c" d="M 52.5,26.5 C 52.5858,27.4959 52.2524,28.3292 51.5,29C 49.256,29.0496 47.5893,29.8829 46.5,31.5C 44.9731,31.573 43.9731,30.9063 43.5,29.5C 43.5,29.1667 43.5,28.8333 43.5,28.5C 46.7847,28.7896 49.7847,28.123 52.5,26.5 Z"/></g>
<g><path style="opacity:1" fill="#e89b1e" d="M 55.5,26.5 C 55.6107,27.1174 55.944,27.6174 56.5,28C 58.8098,28.4966 61.1432,28.6633 63.5,28.5C 62.8902,29.391 62.5569,30.391 62.5,31.5C 61.1667,31.5 59.8333,31.5 58.5,31.5C 55.9451,28.9747 54.2784,29.6414 53.5,33.5C 52.8333,33.1667 52.1667,32.8333 51.5,32.5C 51.1667,32.5 50.8333,32.5 50.5,32.5C 49.4324,31.5655 48.099,31.2322 46.5,31.5C 47.5893,29.8829 49.256,29.0496 51.5,29C 52.2524,28.3292 52.5858,27.4959 52.5,26.5C 53.2679,25.7375 53.7679,24.7375 54,23.5C 54.2321,24.7375 54.7321,25.7375 55.5,26.5 Z"/></g>
<g><path style="opacity:0.541" fill="#ffed9c" d="M 28.5,27.5 C 28.8333,27.5 29.1667,27.5 29.5,27.5C 29.6219,31.8383 29.9553,32.1716 30.5,28.5C 31.1001,29.9002 32.1001,30.9002 33.5,31.5C 32.5144,33.4077 30.8477,34.4077 28.5,34.5C 27.4789,34.8993 27.1455,36.2326 27.5,38.5C 26.8529,37.7261 26.5195,36.7261 26.5,35.5C 27.6552,32.9885 28.3219,30.3219 28.5,27.5 Z"/></g>
<g><path style="opacity:0.008" fill="#feff7e" d="M 68.5,32.5 C 67.8333,31.1667 67.8333,31.1667 68.5,32.5 Z"/></g>
<g><path style="opacity:0.008" fill="#feff7e" d="M 68.5,32.5 C 69.525,32.8966 69.6917,33.5632 69,34.5C 68.5357,33.9056 68.369,33.2389 68.5,32.5 Z"/></g>
<g><path style="opacity:1" fill="#ffe727" d="M 50.5,32.5 C 50.8333,32.5 51.1667,32.5 51.5,32.5C 50.8902,33.391 50.5569,34.391 50.5,35.5C 47.8333,35.5 45.1667,35.5 42.5,35.5C 42.4142,34.5041 42.7476,33.6708 43.5,33C 45.8098,32.5034 48.1432,32.3367 50.5,32.5 Z"/></g>
<g><path style="opacity:1" fill="#fdd824" d="M 58.5,31.5 C 59.8333,31.5 61.1667,31.5 62.5,31.5C 64.7727,31.9568 66.106,33.2901 66.5,35.5C 62.9878,36.0545 59.9878,35.3878 57.5,33.5C 57.8333,32.8333 58.1667,32.1667 58.5,31.5 Z"/></g>
<g><path style="opacity:1" fill="#fedf12" d="M 36.5,31.5 C 36.8333,31.5 37.1667,31.5 37.5,31.5C 38.2341,32.7079 38.5674,34.0413 38.5,35.5C 35.994,36.7496 33.3274,37.4162 30.5,37.5C 31.5739,35.7845 33.2406,34.7845 35.5,34.5C 36.3857,33.675 36.719,32.675 36.5,31.5 Z"/></g>
<g><path style="opacity:1" fill="#fac610" d="M 42.5,36.5 C 42.5,36.8333 42.5,37.1667 42.5,37.5C 45.6977,38.7 49.031,38.7 52.5,37.5C 52.0269,38.9063 51.0269,39.573 49.5,39.5C 47.2646,39.2053 45.2646,39.5386 43.5,40.5C 42.3951,39.3995 41.0618,38.7329 39.5,38.5C 39.5,37.8333 39.1667,37.5 38.5,37.5C 35.6717,38.4967 33.005,38.4967 30.5,37.5C 33.3274,37.4162 35.994,36.7496 38.5,35.5C 39.2679,34.7375 39.7679,33.7375 40,32.5C 40.6082,34.0664 41.4415,35.3998 42.5,36.5 Z"/></g>
<g><path style="opacity:1" fill="#fee921" d="M 33.5,31.5 C 34.5,31.5 35.5,31.5 36.5,31.5C 36.719,32.675 36.3857,33.675 35.5,34.5C 33.2406,34.7845 31.5739,35.7845 30.5,37.5C 29.8333,37.5 29.1667,37.5 28.5,37.5C 28.5,36.5 28.5,35.5 28.5,34.5C 30.8477,34.4077 32.5144,33.4077 33.5,31.5 Z"/></g>
<g><path style="opacity:1" fill="#f5b11f" d="M 58.5,31.5 C 58.1667,32.1667 57.8333,32.8333 57.5,33.5C 56.2947,34.6719 56.2947,36.0052 57.5,37.5C 59.396,38.4656 61.396,38.7989 63.5,38.5C 61.8333,39.1667 60.1667,39.8333 58.5,40.5C 57.2954,38.8624 55.9621,38.5291 54.5,39.5C 54.5,39.1667 54.5,38.8333 54.5,38.5C 54.6716,37.5084 54.3382,36.8417 53.5,36.5C 53.5,35.5 53.5,34.5 53.5,33.5C 54.2784,29.6414 55.9451,28.9747 58.5,31.5 Z"/></g>
<g><path style="opacity:0.788" fill="#e3b23b" d="M 63.5,28.5 C 64.1667,28.5 64.8333,28.5 65.5,28.5C 64.5714,30.3217 65.2381,31.6551 67.5,32.5C 67.7947,34.7354 67.4614,36.7354 66.5,38.5C 65.5,38.5 64.5,38.5 63.5,38.5C 64.9002,37.8999 65.9002,36.8999 66.5,35.5C 66.106,33.2901 64.7727,31.9568 62.5,31.5C 62.5569,30.391 62.8902,29.391 63.5,28.5 Z"/></g>
<g><path style="opacity:1" fill="#fed808" d="M 42.5,35.5 C 45.1667,35.5 47.8333,35.5 50.5,35.5C 50.3893,36.1174 50.056,36.6174 49.5,37C 47.1902,37.4966 44.8568,37.6633 42.5,37.5C 42.5,37.1667 42.5,36.8333 42.5,36.5C 42.5,36.1667 42.5,35.8333 42.5,35.5 Z"/></g>
<g><path style="opacity:1" fill="#f8ca0f" d="M 51.5,32.5 C 52.1667,32.8333 52.8333,33.1667 53.5,33.5C 53.5,34.5 53.5,35.5 53.5,36.5C 53.5,37.1667 53.1667,37.5 52.5,37.5C 49.031,38.7 45.6977,38.7 42.5,37.5C 44.8568,37.6633 47.1902,37.4966 49.5,37C 50.056,36.6174 50.3893,36.1174 50.5,35.5C 50.5569,34.391 50.8902,33.391 51.5,32.5 Z"/></g>
<g><path style="opacity:1" fill="#f5c507" d="M 57.5,33.5 C 59.9878,35.3878 62.9878,36.0545 66.5,35.5C 65.9002,36.8999 64.9002,37.8999 63.5,38.5C 61.396,38.7989 59.396,38.4656 57.5,37.5C 56.2947,36.0052 56.2947,34.6719 57.5,33.5 Z"/></g>
<g><path style="opacity:0.008" fill="#cdfff0" d="M 17.5,36.5 C 17.5,37.1667 17.5,37.8333 17.5,38.5C 16.6618,38.8417 16.3284,39.5084 16.5,40.5C 16.1667,40.5 15.8333,40.5 15.5,40.5C 15.2291,38.6203 15.8958,37.287 17.5,36.5 Z"/></g>
<g><path style="opacity:0.012" fill="#c56200" d="M 68.5,36.5 C 69.525,36.8966 69.6917,37.5632 69,38.5C 68.5357,37.9056 68.369,37.2389 68.5,36.5 Z"/></g>
<g><path style="opacity:0.998" fill="#f3c117" d="M 28.5,38.5 C 28.5,38.1667 28.5,37.8333 28.5,37.5C 29.1667,37.5 29.8333,37.5 30.5,37.5C 33.005,38.4967 35.6717,38.4967 38.5,37.5C 36.2299,38.5452 34.2299,39.8786 32.5,41.5C 32.1667,41.5 31.8333,41.5 31.5,41.5C 30.8333,41.5 30.1667,41.5 29.5,41.5C 29.7373,40.209 29.404,39.209 28.5,38.5 Z"/></g>
<g><path style="opacity:0.549" fill="#7edbc6" d="M 77.5,39.5 C 76.2921,38.7659 74.9587,38.4326 73.5,38.5C 73.1159,36.3352 73.7826,34.6685 75.5,33.5C 75.3728,35.5157 76.0395,37.5157 77.5,39.5 Z"/></g>
<g><path style="opacity:0.975" fill="#d79839" d="M 63.5,38.5 C 64.5,38.5 65.5,38.5 66.5,38.5C 66.2291,40.3797 66.8958,41.713 68.5,42.5C 68.5,42.8333 68.5,43.1667 68.5,43.5C 67.1667,43.1667 65.8333,42.8333 64.5,42.5C 63.0813,41.5489 61.4147,41.2155 59.5,41.5C 58.8333,41.5 58.5,41.1667 58.5,40.5C 60.1667,39.8333 61.8333,39.1667 63.5,38.5 Z"/></g>
<g><path style="opacity:0.994" fill="#b2f8dd" d="M 21.5,36.5 C 20.5489,37.9187 20.2155,39.5853 20.5,41.5C 19.0413,41.4326 17.7079,41.7659 16.5,42.5C 16.5,41.8333 16.5,41.1667 16.5,40.5C 17.3382,40.1583 17.6716,39.4916 17.5,38.5C 18.8333,37.8333 18.8333,37.1667 17.5,36.5C 19.1916,32.7346 20.5249,32.7346 21.5,36.5 Z"/></g>
<g><path style="opacity:1" fill="#f5b41c" d="M 58.5,40.5 C 58.5,41.1667 58.8333,41.5 59.5,41.5C 58.0582,42.8195 57.3915,44.4862 57.5,46.5C 56.7784,46.0825 56.2784,45.4158 56,44.5C 55.6667,44.8333 55.3333,45.1667 55,45.5C 54.5045,43.5273 54.3379,41.5273 54.5,39.5C 55.9621,38.5291 57.2954,38.8624 58.5,40.5 Z"/></g>
<g><path style="opacity:1" fill="#6ff2a8" d="M 25.5,42.5 C 24.596,43.209 24.2627,44.209 24.5,45.5C 24.5,46.1667 24.5,46.8333 24.5,47.5C 23.1429,46.4097 22.1429,45.0764 21.5,43.5C 21.2155,41.5853 21.5489,39.9187 22.5,38.5C 22.4346,38.9382 22.6012,39.2716 23,39.5C 23.3333,38.8333 23.6667,38.1667 24,37.5C 25.0086,39.0249 25.5086,40.6916 25.5,42.5 Z"/></g>
<g><path style="opacity:1" fill="#f7f096" d="M 27.5,38.5 C 27.8333,38.5 28.1667,38.5 28.5,38.5C 28.1596,40.5476 28.4929,41.5476 29.5,41.5C 30.1667,41.5 30.8333,41.5 31.5,41.5C 31.6107,42.1174 31.944,42.6174 32.5,43C 31.2625,43.2321 30.2625,43.7321 29.5,44.5C 29.1667,44.5 28.8333,44.5 28.5,44.5C 28.1667,44.5 27.8333,44.5 27.5,44.5C 26.5308,44.555 25.8642,45.555 25.5,47.5C 25.1667,47.5 24.8333,47.5 24.5,47.5C 24.5,46.8333 24.5,46.1667 24.5,45.5C 25.404,44.791 25.7373,43.791 25.5,42.5C 27.1042,41.713 27.7709,40.3797 27.5,38.5 Z"/></g>
<g><path style="opacity:1" fill="#eba20e" d="M 49.5,39.5 C 48.3915,40.29 47.0581,40.79 45.5,41C 47.0581,41.21 48.3915,41.71 49.5,42.5C 47.5,42.5 45.5,42.5 43.5,42.5C 43.5,41.8333 43.5,41.1667 43.5,40.5C 45.2646,39.5386 47.2646,39.2053 49.5,39.5 Z"/></g>
<g><path style="opacity:1" fill="#fece17" d="M 39.5,38.5 C 41.0618,38.7329 42.3951,39.3995 43.5,40.5C 43.5,41.1667 43.5,41.8333 43.5,42.5C 42.7659,43.7079 42.4326,45.0413 42.5,46.5C 42.5,46.8333 42.5,47.1667 42.5,47.5C 39.925,45.1547 38.925,42.1547 39.5,38.5 Z"/></g>
<g><path style="opacity:1" fill="#e09317" d="M 53.5,36.5 C 54.3382,36.8417 54.6716,37.5084 54.5,38.5C 53.5489,39.9187 53.2155,41.5853 53.5,43.5C 53.1667,43.5 52.8333,43.5 52.5,43.5C 51.609,42.8902 50.609,42.5569 49.5,42.5C 48.3915,41.71 47.0581,41.21 45.5,41C 47.0581,40.79 48.3915,40.29 49.5,39.5C 51.0269,39.573 52.0269,38.9063 52.5,37.5C 53.1667,37.5 53.5,37.1667 53.5,36.5 Z"/></g>
<g><path style="opacity:0.004" fill="#71f3c0" d="M 15.5,40.5 C 15.2465,42.4008 15.5798,43.0674 16.5,42.5C 17.7079,41.7659 19.0413,41.4326 20.5,41.5C 19.3748,42.9999 18.0414,44.3332 16.5,45.5C 16.1667,45.5 15.8333,45.5 15.5,45.5C 14.4789,45.8993 14.1455,47.2326 14.5,49.5C 14.5,49.8333 14.5,50.1667 14.5,50.5C 14.1667,50.5 13.8333,50.5 13.5,50.5C 13.5,49.8333 13.1667,49.5 12.5,49.5C 13.1309,46.2984 14.1309,43.2984 15.5,40.5 Z"/></g>
<g><path style="opacity:1" fill="#fee424" d="M 43.5,42.5 C 45.5,42.5 47.5,42.5 49.5,42.5C 49.4142,43.4959 49.7476,44.3292 50.5,45C 47.9865,46.2525 45.3198,46.7525 42.5,46.5C 42.4326,45.0413 42.7659,43.7079 43.5,42.5 Z"/></g>
<g><path style="opacity:1" fill="#fbd118" d="M 59.5,41.5 C 61.4147,41.2155 63.0813,41.5489 64.5,42.5C 64.938,46.9083 62.938,48.5749 58.5,47.5C 57.8333,47.5 57.5,47.1667 57.5,46.5C 57.3915,44.4862 58.0582,42.8195 59.5,41.5 Z"/></g>
<g><path style="opacity:1" fill="#55f4c1" d="M 21.5,36.5 C 21.8333,37.1667 22.1667,37.8333 22.5,38.5C 21.5489,39.9187 21.2155,41.5853 21.5,43.5C 21.7373,44.791 21.404,45.791 20.5,46.5C 18.9938,45.7699 17.6605,45.4366 16.5,45.5C 18.0414,44.3332 19.3748,42.9999 20.5,41.5C 20.2155,39.5853 20.5489,37.9187 21.5,36.5 Z"/></g>
<g><path style="opacity:1" fill="#fee32d" d="M 31.5,41.5 C 31.8333,41.5 32.1667,41.5 32.5,41.5C 34.099,41.2322 35.4324,41.5655 36.5,42.5C 36.0133,43.4734 35.5133,44.4734 35,45.5C 33.3005,44.5939 31.4672,44.2606 29.5,44.5C 30.2625,43.7321 31.2625,43.2321 32.5,43C 31.944,42.6174 31.6107,42.1174 31.5,41.5 Z"/></g>
<g><path style="opacity:1" fill="#f2ae0c" d="M 38.5,37.5 C 39.1667,37.5 39.5,37.8333 39.5,38.5C 38.925,42.1547 39.925,45.1547 42.5,47.5C 44.6353,49.369 47.3019,50.0356 50.5,49.5C 50.5,49.8333 50.5,50.1667 50.5,50.5C 47.9179,50.0254 45.9179,50.6921 44.5,52.5C 43.078,51.075 41.4113,50.075 39.5,49.5C 38.8333,50.8333 38.1667,52.1667 37.5,53.5C 37.5,53.1667 37.5,52.8333 37.5,52.5C 37.7373,51.209 37.404,50.209 36.5,49.5C 38.5446,47.3035 38.8779,44.9702 37.5,42.5C 37.1667,42.5 36.8333,42.5 36.5,42.5C 35.4324,41.5655 34.099,41.2322 32.5,41.5C 34.2299,39.8786 36.2299,38.5452 38.5,37.5 Z"/></g>
<g><path style="opacity:1" fill="#e9a511" d="M 54.5,38.5 C 54.5,38.8333 54.5,39.1667 54.5,39.5C 54.3379,41.5273 54.5045,43.5273 55,45.5C 55.3333,45.1667 55.6667,44.8333 56,44.5C 56.2784,45.4158 56.7784,46.0825 57.5,46.5C 57.5,47.1667 57.8333,47.5 58.5,47.5C 59.2739,48.1471 60.2739,48.4805 61.5,48.5C 63.6931,48.2814 65.6931,47.6148 67.5,46.5C 67.2178,47.7777 66.5511,48.7777 65.5,49.5C 62.9407,49.1984 60.6074,49.5318 58.5,50.5C 57.2101,49.9423 56.3768,48.9423 56,47.5C 55.7216,48.4158 55.2216,49.0825 54.5,49.5C 54.6716,48.5084 54.3382,47.8417 53.5,47.5C 53.5,46.1667 53.5,44.8333 53.5,43.5C 53.2155,41.5853 53.5489,39.9187 54.5,38.5 Z"/></g>
<g><path style="opacity:1" fill="#1fd794" d="M 78.5,41.5 C 78.5,41.8333 78.5,42.1667 78.5,42.5C 78.5,43.1667 78.5,43.8333 78.5,44.5C 76.1918,46.4707 73.8585,48.4707 71.5,50.5C 71.5569,49.391 71.8902,48.391 72.5,47.5C 73.1616,45.5295 73.8283,43.5295 74.5,41.5C 75.6998,40.7084 77.0331,40.7084 78.5,41.5 Z"/></g>
<g><path style="opacity:1" fill="#fede11" d="M 36.5,42.5 C 36.8333,42.5 37.1667,42.5 37.5,42.5C 37.6247,45.8925 35.958,47.2259 32.5,46.5C 30.6672,46.4146 29.3339,45.7479 28.5,44.5C 28.8333,44.5 29.1667,44.5 29.5,44.5C 31.4672,44.2606 33.3005,44.5939 35,45.5C 35.5133,44.4734 36.0133,43.4734 36.5,42.5 Z"/></g>
<g><path style="opacity:1" fill="#f6c70a" d="M 37.5,42.5 C 38.8779,44.9702 38.5446,47.3035 36.5,49.5C 33.9179,49.0254 31.9179,49.6921 30.5,51.5C 29.8333,51.5 29.1667,51.5 28.5,51.5C 28.0074,49.1944 27.6741,46.861 27.5,44.5C 27.8333,44.5 28.1667,44.5 28.5,44.5C 29.3339,45.7479 30.6672,46.4146 32.5,46.5C 35.958,47.2259 37.6247,45.8925 37.5,42.5 Z"/></g>
<g><path style="opacity:1" fill="#feda0f" d="M 49.5,42.5 C 50.609,42.5569 51.609,42.8902 52.5,43.5C 52.0557,45.1132 51.0557,46.2798 49.5,47C 47.1902,47.4966 44.8568,47.6633 42.5,47.5C 42.5,47.1667 42.5,46.8333 42.5,46.5C 45.3198,46.7525 47.9865,46.2525 50.5,45C 49.7476,44.3292 49.4142,43.4959 49.5,42.5 Z"/></g>
<g><path style="opacity:1" fill="#ecbf19" d="M 64.5,42.5 C 65.8333,42.8333 67.1667,43.1667 68.5,43.5C 68.5,43.8333 68.5,44.1667 68.5,44.5C 68.1667,45.1667 67.8333,45.8333 67.5,46.5C 65.6931,47.6148 63.6931,48.2814 61.5,48.5C 60.2739,48.4805 59.2739,48.1471 58.5,47.5C 62.938,48.5749 64.938,46.9083 64.5,42.5 Z"/></g>
<g><path style="opacity:1" fill="#42e6aa" d="M 73.5,38.5 C 74.9587,38.4326 76.2921,38.7659 77.5,39.5C 78.3382,39.8417 78.6716,40.5084 78.5,41.5C 77.0331,40.7084 75.6998,40.7084 74.5,41.5C 73.8283,43.5295 73.1616,45.5295 72.5,47.5C 71.5655,46.4324 71.2322,45.099 71.5,43.5C 71.5,42.8333 71.5,42.1667 71.5,41.5C 72.1667,41.5 72.5,41.1667 72.5,40.5C 72.3284,39.5084 72.6618,38.8417 73.5,38.5 Z"/></g>
<g><path style="opacity:0.994" fill="#3cdfa0" d="M 21.5,43.5 C 22.1429,45.0764 23.1429,46.4097 24.5,47.5C 24.8333,47.5 25.1667,47.5 25.5,47.5C 25.8925,49.2838 26.5592,50.9505 27.5,52.5C 27.5,53.8333 27.5,55.1667 27.5,56.5C 27.6716,57.4916 27.3382,58.1583 26.5,58.5C 26.573,56.9731 25.9063,55.9731 24.5,55.5C 24.6716,54.5084 24.3382,53.8417 23.5,53.5C 22.0427,51.3718 21.0427,49.0384 20.5,46.5C 21.404,45.791 21.7373,44.791 21.5,43.5 Z"/></g>
<g><path style="opacity:1" fill="#f7c806" d="M 52.5,43.5 C 52.8333,43.5 53.1667,43.5 53.5,43.5C 53.5,44.8333 53.5,46.1667 53.5,47.5C 53.0269,48.9063 52.0269,49.573 50.5,49.5C 47.3019,50.0356 44.6353,49.369 42.5,47.5C 44.8568,47.6633 47.1902,47.4966 49.5,47C 51.0557,46.2798 52.0557,45.1132 52.5,43.5 Z"/></g>
<g><path style="opacity:1" fill="#5fd88f" d="M 72.5,40.5 C 72.5,41.1667 72.1667,41.5 71.5,41.5C 70.1667,42.1667 70.1667,42.8333 71.5,43.5C 71.2322,45.099 71.5655,46.4324 72.5,47.5C 71.8902,48.391 71.5569,49.391 71.5,50.5C 71.5,51.1667 71.5,51.8333 71.5,52.5C 70.8826,52.6107 70.3826,52.944 70,53.5C 69.51,52.2068 69.3433,50.8734 69.5,49.5C 70.494,47.6656 70.494,45.9989 69.5,44.5C 69.6716,43.5084 69.3382,42.8417 68.5,42.5C 69.5045,41.3172 70.3378,39.9839 71,38.5C 71.2784,39.4158 71.7784,40.0825 72.5,40.5 Z"/></g>
<g><path style="opacity:1" fill="#31e39d" d="M 15.5,45.5 C 15.8333,45.5 16.1667,45.5 16.5,45.5C 17.6605,45.4366 18.9938,45.7699 20.5,46.5C 21.0427,49.0384 22.0427,51.3718 23.5,53.5C 21.1667,51.5 18.8333,49.5 16.5,47.5C 16.1667,47.5 15.8333,47.5 15.5,47.5C 15.5,46.8333 15.5,46.1667 15.5,45.5 Z"/></g>
<g><path style="opacity:1" fill="#d27c01" d="M 36.5,49.5 C 37.404,50.209 37.7373,51.209 37.5,52.5C 35.5,52.5 33.5,52.5 31.5,52.5C 31.5,51.8333 31.1667,51.5 30.5,51.5C 31.9179,49.6921 33.9179,49.0254 36.5,49.5 Z"/></g>
<g><path style="opacity:1" fill="#fcc511" d="M 39.5,49.5 C 41.4113,50.075 43.078,51.075 44.5,52.5C 46.5,52.5 48.5,52.5 50.5,52.5C 50.5,52.8333 50.5,53.1667 50.5,53.5C 47.6146,53.1936 44.9479,53.5269 42.5,54.5C 42.1667,54.5 41.8333,54.5 41.5,54.5C 40.8826,54.6107 40.3826,54.944 40,55.5C 39.5045,53.5273 39.3379,51.5273 39.5,49.5 Z"/></g>
<g><path style="opacity:1" fill="#eea516" d="M 58.5,50.5 C 60.9521,51.0654 63.2854,51.7321 65.5,52.5C 62.9407,52.1984 60.6074,52.5318 58.5,53.5C 58.1667,53.5 57.8333,53.5 57.5,53.5C 56.8333,53.8333 56.1667,54.1667 55.5,54.5C 54.5489,53.0813 54.2155,51.4147 54.5,49.5C 55.2216,49.0825 55.7216,48.4158 56,47.5C 56.3768,48.9423 57.2101,49.9423 58.5,50.5 Z"/></g>
<g><path style="opacity:0.988" fill="#a4610e" d="M 58.5,50.5 C 60.6074,49.5318 62.9407,49.1984 65.5,49.5C 66.404,50.209 66.7373,51.209 66.5,52.5C 66.1667,52.5 65.8333,52.5 65.5,52.5C 63.2854,51.7321 60.9521,51.0654 58.5,50.5 Z"/></g>
<g><path style="opacity:1" fill="#d7730e" d="M 50.5,50.5 C 53.1667,51.1667 53.1667,51.8333 50.5,52.5C 48.5,52.5 46.5,52.5 44.5,52.5C 45.9179,50.6921 47.9179,50.0254 50.5,50.5 Z"/></g>
<g><path style="opacity:0.122" fill="#b59645" d="M 68.5,44.5 C 68.8333,44.5 69.1667,44.5 69.5,44.5C 68.962,46.1172 68.6287,47.7839 68.5,49.5C 67.1667,50.5 67.1667,51.5 68.5,52.5C 68.6716,53.4916 68.3382,54.1583 67.5,54.5C 67.5,53.8333 67.1667,53.5 66.5,53.5C 66.5,53.1667 66.5,52.8333 66.5,52.5C 66.7373,51.209 66.404,50.209 65.5,49.5C 66.5511,48.7777 67.2178,47.7777 67.5,46.5C 67.8333,45.8333 68.1667,45.1667 68.5,44.5 Z"/></g>
<g><path style="opacity:1" fill="#1acb82" d="M 78.5,44.5 C 77.2671,48.0702 74.9337,50.7369 71.5,52.5C 71.5,51.8333 71.5,51.1667 71.5,50.5C 73.8585,48.4707 76.1918,46.4707 78.5,44.5 Z"/></g>
<g><path style="opacity:1" fill="#24be76" d="M 78.5,42.5 C 79.4345,43.5676 79.7678,44.901 79.5,46.5C 79.5,47.1667 79.5,47.8333 79.5,48.5C 76.5367,52.4567 72.87,55.7901 68.5,58.5C 67.6618,58.1583 67.3284,57.4916 67.5,56.5C 67.5,55.8333 67.5,55.1667 67.5,54.5C 68.3382,54.1583 68.6716,53.4916 68.5,52.5C 68.5,51.5 68.5,50.5 68.5,49.5C 68.8333,49.5 69.1667,49.5 69.5,49.5C 69.3433,50.8734 69.51,52.2068 70,53.5C 70.3826,52.944 70.8826,52.6107 71.5,52.5C 74.9337,50.7369 77.2671,48.0702 78.5,44.5C 78.5,43.8333 78.5,43.1667 78.5,42.5 Z"/></g>
<g><path style="opacity:0.075" fill="#3a8e5b" d="M 12.5,49.5 C 13.1667,49.5 13.5,49.8333 13.5,50.5C 13.8333,55.8333 14.1667,55.8333 14.5,50.5C 14.5,50.1667 14.5,49.8333 14.5,49.5C 14.8333,49.5 15.1667,49.5 15.5,49.5C 15.5,50.5 15.5,51.5 15.5,52.5C 15.5,53.5 15.5,54.5 15.5,55.5C 15.5,55.8333 15.5,56.1667 15.5,56.5C 14.5318,58.6074 14.1984,60.9407 14.5,63.5C 12.8958,59.1004 12.2291,54.4338 12.5,49.5 Z"/></g>
<g><path style="opacity:1" fill="#22d886" d="M 16.5,47.5 C 18.8333,49.5 21.1667,51.5 23.5,53.5C 24.3382,53.8417 24.6716,54.5084 24.5,55.5C 23.5,55.5 22.5,55.5 21.5,55.5C 19.347,53.2063 17.6803,50.5396 16.5,47.5 Z"/></g>
<g><path style="opacity:0.996" fill="#15a256" d="M 79.5,48.5 C 79.2914,49.9217 78.7914,51.255 78,52.5C 74.8256,56.198 71.6589,59.8647 68.5,63.5C 67.8333,63.5 67.1667,63.5 66.5,63.5C 66.8925,61.7162 67.5592,60.0495 68.5,58.5C 72.87,55.7901 76.5367,52.4567 79.5,48.5 Z"/></g>
<g><path style="opacity:1" fill="#1dce74" d="M 15.5,47.5 C 15.8333,47.5 16.1667,47.5 16.5,47.5C 17.6803,50.5396 19.347,53.2063 21.5,55.5C 20.8333,55.5 20.1667,55.5 19.5,55.5C 17.5695,55.2294 16.2362,54.2294 15.5,52.5C 15.5,51.5 15.5,50.5 15.5,49.5C 15.5,48.8333 15.5,48.1667 15.5,47.5 Z"/></g>
<g><path style="opacity:1" fill="#e59911" d="M 53.5,47.5 C 54.3382,47.8417 54.6716,48.5084 54.5,49.5C 54.2155,51.4147 54.5489,53.0813 55.5,54.5C 55.5,54.8333 55.5,55.1667 55.5,55.5C 54.8333,56.5 54.1667,57.5 53.5,58.5C 53.5,58.1667 53.5,57.8333 53.5,57.5C 53.7709,55.6203 53.1042,54.287 51.5,53.5C 51.1667,53.5 50.8333,53.5 50.5,53.5C 50.5,53.1667 50.5,52.8333 50.5,52.5C 53.1667,51.8333 53.1667,51.1667 50.5,50.5C 50.5,50.1667 50.5,49.8333 50.5,49.5C 52.0269,49.573 53.0269,48.9063 53.5,47.5 Z"/></g>
<g><path style="opacity:1" fill="#f9cc19" d="M 65.5,52.5 C 65.8333,52.5 66.1667,52.5 66.5,52.5C 66.5,52.8333 66.5,53.1667 66.5,53.5C 65.5116,54.795 64.5116,56.1283 63.5,57.5C 61.8333,57.5 60.1667,57.5 58.5,57.5C 58.5,56.1667 58.5,54.8333 58.5,53.5C 60.6074,52.5318 62.9407,52.1984 65.5,52.5 Z"/></g>
<g><path style="opacity:0.996" fill="#158c44" d="M 79.5,46.5 C 79.8333,46.5 80.1667,46.5 80.5,46.5C 80.5,49.5 80.5,52.5 80.5,55.5C 75.9568,57.3717 72.2901,60.3717 69.5,64.5C 69.1667,64.5 68.8333,64.5 68.5,64.5C 68.5,64.1667 68.5,63.8333 68.5,63.5C 71.6589,59.8647 74.8256,56.198 78,52.5C 78.7914,51.255 79.2914,49.9217 79.5,48.5C 79.5,47.8333 79.5,47.1667 79.5,46.5 Z"/></g>
<g><path style="opacity:1" fill="#ffe122" d="M 50.5,53.5 C 50.8333,53.5 51.1667,53.5 51.5,53.5C 50.4019,54.397 50.4019,55.2303 51.5,56C 48.6492,57.2886 45.6492,57.7886 42.5,57.5C 42.5,56.5 42.5,55.5 42.5,54.5C 44.9479,53.5269 47.6146,53.1936 50.5,53.5 Z"/></g>
<g><path style="opacity:1" fill="#f1b500" d="M 57.5,53.5 C 57.8333,53.5 58.1667,53.5 58.5,53.5C 58.5,54.8333 58.5,56.1667 58.5,57.5C 60.1667,57.5 61.8333,57.5 63.5,57.5C 63.5,58.1667 63.5,58.8333 63.5,59.5C 61.3792,59.6747 59.3792,59.3414 57.5,58.5C 57.5,56.8333 57.5,55.1667 57.5,53.5 Z"/></g>
<g><path style="opacity:0.016" fill="#3f954d" d="M 81.5,60.5 C 81.5,60.1667 81.5,59.8333 81.5,59.5C 81.8182,54.9677 81.4849,50.6344 80.5,46.5C 80.4568,42.1074 80.9568,41.7741 82,45.5C 82.8163,50.6842 82.6497,55.6842 81.5,60.5 Z"/></g>
<g><path style="opacity:1" fill="#f3cb3c" d="M 28.5,51.5 C 29.1667,51.5 29.8333,51.5 30.5,51.5C 31.1667,51.5 31.5,51.8333 31.5,52.5C 30.7375,53.2679 29.7375,53.7679 28.5,54C 29.305,55.1127 29.9717,56.2794 30.5,57.5C 29.8333,57.5 29.1667,57.5 28.5,57.5C 28.5,56.8333 28.1667,56.5 27.5,56.5C 27.5,55.1667 27.5,53.8333 27.5,52.5C 28.1667,52.5 28.5,52.1667 28.5,51.5 Z"/></g>
<g><path style="opacity:1" fill="#fcd416" d="M 31.5,52.5 C 33.5,52.5 35.5,52.5 37.5,52.5C 37.5,52.8333 37.5,53.1667 37.5,53.5C 37.67,54.8221 37.3366,55.9887 36.5,57C 34.5273,57.4955 32.5273,57.6621 30.5,57.5C 29.9717,56.2794 29.305,55.1127 28.5,54C 29.7375,53.7679 30.7375,53.2679 31.5,52.5 Z"/></g>
<g><path style="opacity:1" fill="#16b75c" d="M 15.5,52.5 C 16.2362,54.2294 17.5695,55.2294 19.5,55.5C 21.3356,57.588 23.6689,58.9213 26.5,59.5C 26.8333,60.1667 27.1667,60.8333 27.5,61.5C 24.2976,60.9532 21.2976,59.9532 18.5,58.5C 17.5,57.5 16.5,56.5 15.5,55.5C 15.5,54.5 15.5,53.5 15.5,52.5 Z"/></g>
<g><path style="opacity:1" fill="#cf9802" d="M 66.5,53.5 C 67.1667,53.5 67.5,53.8333 67.5,54.5C 67.5,55.1667 67.5,55.8333 67.5,56.5C 66.8333,57.5 66.1667,58.5 65.5,59.5C 64.8333,59.5 64.1667,59.5 63.5,59.5C 63.5,58.8333 63.5,58.1667 63.5,57.5C 64.5116,56.1283 65.5116,54.795 66.5,53.5 Z"/></g>
<g><path style="opacity:1" fill="#1bc46e" d="M 19.5,55.5 C 20.1667,55.5 20.8333,55.5 21.5,55.5C 22.5,55.5 23.5,55.5 24.5,55.5C 25.9063,55.9731 26.573,56.9731 26.5,58.5C 26.5,58.8333 26.5,59.1667 26.5,59.5C 23.6689,58.9213 21.3356,57.588 19.5,55.5 Z"/></g>
<g><path style="opacity:1" fill="#fdd40f" d="M 51.5,53.5 C 53.1042,54.287 53.7709,55.6203 53.5,57.5C 49.9009,58.3439 46.2343,58.6773 42.5,58.5C 41.5655,57.4324 41.2322,56.099 41.5,54.5C 41.8333,54.5 42.1667,54.5 42.5,54.5C 42.5,55.5 42.5,56.5 42.5,57.5C 45.6492,57.7886 48.6492,57.2886 51.5,56C 50.4019,55.2303 50.4019,54.397 51.5,53.5 Z"/></g>
<g><path style="opacity:1" fill="#13a751" d="M 18.5,58.5 C 21.2976,59.9532 24.2976,60.9532 27.5,61.5C 28.3382,61.8417 28.6716,62.5084 28.5,63.5C 26.7085,63.634 25.0418,63.3007 23.5,62.5C 21.3384,61.8724 19.6718,60.539 18.5,58.5 Z"/></g>
<g><path style="opacity:1" fill="#f8bb0c" d="M 39.5,49.5 C 39.3379,51.5273 39.5045,53.5273 40,55.5C 40.3826,54.944 40.8826,54.6107 41.5,54.5C 41.2322,56.099 41.5655,57.4324 42.5,58.5C 42.5,58.8333 42.5,59.1667 42.5,59.5C 41.5489,60.9187 41.2155,62.5853 41.5,64.5C 39.78,62.3419 38.9467,59.6752 39,56.5C 38.2828,57.0442 37.7828,57.7109 37.5,58.5C 34.9387,59.7671 32.272,59.7671 29.5,58.5C 28.8333,58.5 28.5,58.1667 28.5,57.5C 29.1667,57.5 29.8333,57.5 30.5,57.5C 32.5273,57.6621 34.5273,57.4955 36.5,57C 37.3366,55.9887 37.67,54.8221 37.5,53.5C 38.1667,52.1667 38.8333,50.8333 39.5,49.5 Z"/></g>
<g><path style="opacity:1" fill="#f7c802" d="M 53.5,57.5 C 53.5,57.8333 53.5,58.1667 53.5,58.5C 53.1667,59.1667 52.8333,59.8333 52.5,60.5C 51.8333,60.5 51.1667,60.5 50.5,60.5C 47.7212,60.7214 45.0545,60.388 42.5,59.5C 42.5,59.1667 42.5,58.8333 42.5,58.5C 46.2343,58.6773 49.9009,58.3439 53.5,57.5 Z"/></g>
<g><path style="opacity:1" fill="#ed9811" d="M 57.5,53.5 C 57.5,55.1667 57.5,56.8333 57.5,58.5C 57.8294,61.2282 57.1628,63.5615 55.5,65.5C 54.5398,62.235 54.5398,58.9017 55.5,55.5C 55.5,55.1667 55.5,54.8333 55.5,54.5C 56.1667,54.1667 56.8333,53.8333 57.5,53.5 Z"/></g>
<g><path style="opacity:0.998" fill="#1a9d4b" d="M 15.5,55.5 C 16.5,56.5 17.5,57.5 18.5,58.5C 19.6718,60.539 21.3384,61.8724 23.5,62.5C 20.5466,62.8504 18.2133,61.8504 16.5,59.5C 16.1667,59.5 15.8333,59.5 15.5,59.5C 15.5,58.5 15.5,57.5 15.5,56.5C 15.5,56.1667 15.5,55.8333 15.5,55.5 Z"/></g>
<g><path style="opacity:1" fill="#4ab06d" d="M 27.5,56.5 C 28.1667,56.5 28.5,56.8333 28.5,57.5C 28.5,58.1667 28.8333,58.5 29.5,58.5C 29.4326,59.9587 29.7659,61.2921 30.5,62.5C 30.5,62.8333 30.5,63.1667 30.5,63.5C 30.1667,63.5 29.8333,63.5 29.5,63.5C 29.1667,63.5 28.8333,63.5 28.5,63.5C 28.6716,62.5084 28.3382,61.8417 27.5,61.5C 27.1667,60.8333 26.8333,60.1667 26.5,59.5C 26.5,59.1667 26.5,58.8333 26.5,58.5C 27.3382,58.1583 27.6716,57.4916 27.5,56.5 Z"/></g>
<g><path style="opacity:1" fill="#e38d11" d="M 55.5,55.5 C 54.5398,58.9017 54.5398,62.235 55.5,65.5C 55.1667,65.5 54.8333,65.5 54.5,65.5C 53.8333,65.1667 53.1667,64.8333 52.5,64.5C 51.5084,64.6716 50.8417,64.3382 50.5,63.5C 51.5,63.5 52.5,63.5 53.5,63.5C 53.7373,62.209 53.404,61.209 52.5,60.5C 52.8333,59.8333 53.1667,59.1667 53.5,58.5C 54.1667,57.5 54.8333,56.5 55.5,55.5 Z"/></g>
<g><path style="opacity:1" fill="#1a7e3d" d="M 80.5,55.5 C 80.5,56.8333 80.5,58.1667 80.5,59.5C 79.391,59.5569 78.391,59.8902 77.5,60.5C 75.1184,61.3507 73.1184,62.684 71.5,64.5C 70.8333,64.8333 70.1667,65.1667 69.5,65.5C 69.5,65.1667 69.5,64.8333 69.5,64.5C 72.2901,60.3717 75.9568,57.3717 80.5,55.5 Z"/></g>
<g><path style="opacity:1" fill="#cd7d04" d="M 29.5,58.5 C 32.272,59.7671 34.9387,59.7671 37.5,58.5C 38.8333,60.1667 38.8333,61.8333 37.5,63.5C 37.1667,63.5 36.8333,63.5 36.5,63.5C 34.7354,62.5386 32.7354,62.2053 30.5,62.5C 29.7659,61.2921 29.4326,59.9587 29.5,58.5 Z"/></g>
<g><path style="opacity:1" fill="#f7b10b" d="M 41.5,64.5 C 41.8333,64.5 42.1667,64.5 42.5,64.5C 42.5,64.8333 42.5,65.1667 42.5,65.5C 41.596,66.209 41.2627,67.209 41.5,68.5C 40.6851,67.5707 39.8518,66.5707 39,65.5C 38.7216,66.4158 38.2216,67.0825 37.5,67.5C 37.5,67.1667 37.5,66.8333 37.5,66.5C 37.5,65.5 37.5,64.5 37.5,63.5C 38.8333,61.8333 38.8333,60.1667 37.5,58.5C 37.7828,57.7109 38.2828,57.0442 39,56.5C 38.9467,59.6752 39.78,62.3419 41.5,64.5 Z"/></g>
<g><path style="opacity:1" fill="#ebb005" d="M 30.5,62.5 C 32.7354,62.2053 34.7354,62.5386 36.5,63.5C 35.0222,63.238 33.6888,63.5713 32.5,64.5C 33.6685,66.2174 35.3352,66.8841 37.5,66.5C 37.5,66.8333 37.5,67.1667 37.5,67.5C 37.5,67.8333 37.5,68.1667 37.5,68.5C 36.4324,69.4345 35.099,69.7678 33.5,69.5C 32.5,67.5 31.5,65.5 30.5,63.5C 30.5,63.1667 30.5,62.8333 30.5,62.5 Z"/></g>
<g><path style="opacity:1" fill="#f2a90c" d="M 42.5,59.5 C 45.0545,60.388 47.7212,60.7214 50.5,60.5C 47.8411,60.9174 45.5078,61.9174 43.5,63.5C 43.5,63.8333 43.5,64.1667 43.5,64.5C 43.1667,64.5 42.8333,64.5 42.5,64.5C 42.1667,64.5 41.8333,64.5 41.5,64.5C 41.2155,62.5853 41.5489,60.9187 42.5,59.5 Z"/></g>
<g><path style="opacity:1" fill="#d36c0c" d="M 50.5,60.5 C 51.1667,60.5 51.8333,60.5 52.5,60.5C 53.404,61.209 53.7373,62.209 53.5,63.5C 52.5,63.5 51.5,63.5 50.5,63.5C 48.1667,63.5 45.8333,63.5 43.5,63.5C 45.5078,61.9174 47.8411,60.9174 50.5,60.5 Z"/></g>
<g><path style="opacity:1" fill="#489f62" d="M 67.5,56.5 C 67.3284,57.4916 67.6618,58.1583 68.5,58.5C 67.5592,60.0495 66.8925,61.7162 66.5,63.5C 65.6493,65.8816 64.316,67.8816 62.5,69.5C 63.1667,67.1667 63.8333,64.8333 64.5,62.5C 65.1098,61.609 65.4431,60.609 65.5,59.5C 66.1667,58.5 66.8333,57.5 67.5,56.5 Z"/></g>
<g><path style="opacity:0.016" fill="#224330" d="M 14.5,63.5 C 14.8333,63.5 15.1667,63.5 15.5,63.5C 15.5,64.8333 15.5,66.1667 15.5,67.5C 14.5655,66.4324 14.2322,65.099 14.5,63.5 Z"/></g>
<g><path style="opacity:1" fill="#14803a" d="M 18.5,63.5 C 19.5,63.5 20.5,63.5 21.5,63.5C 23.1236,66.7901 25.4569,69.4567 28.5,71.5C 28.5,72.1667 28.5,72.8333 28.5,73.5C 25.8333,71.1667 23.1667,68.8333 20.5,66.5C 20.1583,65.6618 19.4916,65.3284 18.5,65.5C 18.5,64.8333 18.5,64.1667 18.5,63.5 Z"/></g>
<g><path style="opacity:1" fill="#ecb30d" d="M 64.5,62.5 C 63.8333,64.8333 63.1667,67.1667 62.5,69.5C 62.1667,69.5 61.8333,69.5 61.5,69.5C 60.5,69.5 59.5,69.5 58.5,69.5C 58.1667,68.8333 57.8333,68.1667 57.5,67.5C 57.8153,63.1996 60.1486,61.533 64.5,62.5 Z"/></g>
<g><path style="opacity:1" fill="#117435" d="M 71.5,64.5 C 71.3713,66.2161 71.038,67.8828 70.5,69.5C 69.5,71.5 68.5,73.5 67.5,75.5C 67.5,73.8333 67.5,72.1667 67.5,70.5C 67.7959,68.597 68.4625,66.9303 69.5,65.5C 70.1667,65.1667 70.8333,64.8333 71.5,64.5 Z"/></g>
<g><path style="opacity:1" fill="#126e34" d="M 77.5,60.5 C 77.5,61.1667 77.5,61.8333 77.5,62.5C 75.0429,63.7349 73.7095,65.7349 73.5,68.5C 72.8333,68.5 72.5,68.8333 72.5,69.5C 71.8333,69.5 71.1667,69.5 70.5,69.5C 71.038,67.8828 71.3713,66.2161 71.5,64.5C 73.1184,62.684 75.1184,61.3507 77.5,60.5 Z"/></g>
<g><path style="opacity:0.999" fill="#216b36" d="M 77.5,62.5 C 77.5,63.8333 77.5,65.1667 77.5,66.5C 77.2451,68.9674 76.2451,70.9674 74.5,72.5C 74.5,72.1667 74.5,71.8333 74.5,71.5C 76.1166,68.9236 75.7833,67.9236 73.5,68.5C 73.7095,65.7349 75.0429,63.7349 77.5,62.5 Z"/></g>
<g><path style="opacity:1" fill="#179347" d="M 16.5,59.5 C 18.2133,61.8504 20.5466,62.8504 23.5,62.5C 25.0418,63.3007 26.7085,63.634 28.5,63.5C 28.8333,63.5 29.1667,63.5 29.5,63.5C 30.1667,65.8333 30.8333,68.1667 31.5,70.5C 28.1486,68.1414 24.8153,65.8081 21.5,63.5C 20.5,63.5 19.5,63.5 18.5,63.5C 16.8958,62.713 16.2291,61.3797 16.5,59.5 Z"/></g>
<g><path style="opacity:1" fill="#faca1b" d="M 36.5,63.5 C 36.8333,63.5 37.1667,63.5 37.5,63.5C 37.5,64.5 37.5,65.5 37.5,66.5C 35.3352,66.8841 33.6685,66.2174 32.5,64.5C 33.6888,63.5713 35.0222,63.238 36.5,63.5 Z"/></g>
<g><path style="opacity:1" fill="#ffe025" d="M 42.5,64.5 C 42.8333,64.5 43.1667,64.5 43.5,64.5C 45.5273,64.3379 47.5273,64.5045 49.5,65C 50.2524,65.6708 50.5858,66.5041 50.5,67.5C 48.9397,67.5191 47.4397,67.8524 46,68.5C 44.0503,68.2926 42.8836,67.2926 42.5,65.5C 42.5,65.1667 42.5,64.8333 42.5,64.5 Z"/></g>
<g><path style="opacity:1" fill="#f3c007" d="M 52.5,64.5 C 53.1667,64.8333 53.8333,65.1667 54.5,65.5C 54.5,66.5 54.5,67.5 54.5,68.5C 53.8333,69.5 53.1667,70.5 52.5,71.5C 51.8333,71.5 51.1667,71.5 50.5,71.5C 50.1667,71.5 49.8333,71.5 49.5,71.5C 50.1667,70.1667 50.8333,68.8333 51.5,67.5C 52.404,66.791 52.7373,65.791 52.5,64.5 Z"/></g>
<g><path style="opacity:1" fill="#1c8e47" d="M 66.5,63.5 C 67.1667,63.5 67.8333,63.5 68.5,63.5C 68.5,63.8333 68.5,64.1667 68.5,64.5C 67.1103,65.8993 66.1103,67.5659 65.5,69.5C 63.8058,70.5274 62.4725,71.8608 61.5,73.5C 61.5,72.8333 61.5,72.1667 61.5,71.5C 61.5,70.8333 61.5,70.1667 61.5,69.5C 61.8333,69.5 62.1667,69.5 62.5,69.5C 64.316,67.8816 65.6493,65.8816 66.5,63.5 Z"/></g>
<g><path style="opacity:0.588" fill="#4b7d50" d="M 80.5,59.5 C 80.8333,59.5 81.1667,59.5 81.5,59.5C 81.5,59.8333 81.5,60.1667 81.5,60.5C 81.3178,65.7937 80.8178,65.7937 80,60.5C 79.5065,62.1341 79.3398,63.8008 79.5,65.5C 78.8333,65.5 78.5,65.8333 78.5,66.5C 78.1667,66.5 77.8333,66.5 77.5,66.5C 77.5,65.1667 77.5,63.8333 77.5,62.5C 77.5,61.8333 77.5,61.1667 77.5,60.5C 78.391,59.8902 79.391,59.5569 80.5,59.5 Z"/></g>
<g><path style="opacity:1" fill="#fcd316" d="M 43.5,64.5 C 43.5,64.1667 43.5,63.8333 43.5,63.5C 45.8333,63.5 48.1667,63.5 50.5,63.5C 50.8417,64.3382 51.5084,64.6716 52.5,64.5C 52.7373,65.791 52.404,66.791 51.5,67.5C 51.1667,67.5 50.8333,67.5 50.5,67.5C 50.5858,66.5041 50.2524,65.6708 49.5,65C 47.5273,64.5045 45.5273,64.3379 43.5,64.5 Z"/></g>
<g><path style="opacity:0.012" fill="#494949" d="M 79.5,65.5 C 80.5735,66.2506 80.7401,67.2506 80,68.5C 79.5172,67.552 79.3505,66.552 79.5,65.5 Z"/></g>
<g><path style="opacity:1" fill="#138a3f" d="M 21.5,63.5 C 24.8153,65.8081 28.1486,68.1414 31.5,70.5C 31.5,71.5 31.5,72.5 31.5,73.5C 30.5,72.8333 29.5,72.1667 28.5,71.5C 25.4569,69.4567 23.1236,66.7901 21.5,63.5 Z"/></g>
<g><path style="opacity:1" fill="#ce7107" d="M 57.5,58.5 C 59.3792,59.3414 61.3792,59.6747 63.5,59.5C 64.1667,59.5 64.8333,59.5 65.5,59.5C 65.4431,60.609 65.1098,61.609 64.5,62.5C 60.1486,61.533 57.8153,63.1996 57.5,67.5C 56.71,68.6085 56.21,69.9419 56,71.5C 55.7679,70.2625 55.2679,69.2625 54.5,68.5C 54.5,67.5 54.5,66.5 54.5,65.5C 54.8333,65.5 55.1667,65.5 55.5,65.5C 57.1628,63.5615 57.8294,61.2282 57.5,58.5 Z"/></g>
<g><path style="opacity:0.999" fill="#16672f" d="M 74.5,71.5 C 72.5797,74.7618 70.2463,77.7618 67.5,80.5C 66.8333,80.8333 66.1667,81.1667 65.5,81.5C 65.5569,80.391 65.8902,79.391 66.5,78.5C 69.7367,76.3696 71.7367,73.3696 72.5,69.5C 72.5,68.8333 72.8333,68.5 73.5,68.5C 75.7833,67.9236 76.1166,68.9236 74.5,71.5 Z"/></g>
<g><path style="opacity:1" fill="#147a36" d="M 20.5,66.5 C 23.1667,68.8333 25.8333,71.1667 28.5,73.5C 28.5,74.1667 28.5,74.8333 28.5,75.5C 25.0969,73.1002 22.4302,70.1002 20.5,66.5 Z"/></g>
<g><path style="opacity:1" fill="#f29f0c" d="M 41.5,68.5 C 42.1667,69.5 42.8333,70.5 43.5,71.5C 42.596,72.209 42.2627,73.209 42.5,74.5C 42.5,74.8333 42.5,75.1667 42.5,75.5C 41.5655,76.5676 41.2322,77.901 41.5,79.5C 40.596,78.791 40.2627,77.791 40.5,76.5C 39.2479,73.8369 38.2479,71.1702 37.5,68.5C 37.5,68.1667 37.5,67.8333 37.5,67.5C 38.2216,67.0825 38.7216,66.4158 39,65.5C 39.8518,66.5707 40.6851,67.5707 41.5,68.5 Z"/></g>
<g><path style="opacity:1" fill="#108037" d="M 68.5,64.5 C 68.8333,64.5 69.1667,64.5 69.5,64.5C 69.5,64.8333 69.5,65.1667 69.5,65.5C 68.4625,66.9303 67.7959,68.597 67.5,70.5C 66.6873,72.2608 65.6873,73.9275 64.5,75.5C 64.8333,73.5 65.1667,71.5 65.5,69.5C 66.1103,67.5659 67.1103,65.8993 68.5,64.5 Z"/></g>
<g><path style="opacity:0.571" fill="#4d7147" d="M 77.5,66.5 C 77.8333,66.5 78.1667,66.5 78.5,66.5C 80.1057,69.5251 79.7724,72.1918 77.5,74.5C 77.1667,71.8333 76.8333,71.8333 76.5,74.5C 75.6618,74.8417 75.3284,75.5084 75.5,76.5C 75.1667,76.5 74.8333,76.5 74.5,76.5C 74.5,75.8333 74.5,75.1667 74.5,74.5C 74.5,73.8333 74.5,73.1667 74.5,72.5C 76.2451,70.9674 77.2451,68.9674 77.5,66.5 Z"/></g>
<g><path style="opacity:1" fill="#177232" d="M 18.5,65.5 C 19.4916,65.3284 20.1583,65.6618 20.5,66.5C 22.4302,70.1002 25.0969,73.1002 28.5,75.5C 29.242,77.9798 30.242,80.3131 31.5,82.5C 29.1667,80.5 26.8333,78.5 24.5,76.5C 23.4611,73.0787 21.4611,70.4121 18.5,68.5C 18.5,67.5 18.5,66.5 18.5,65.5 Z"/></g>
<g><path style="opacity:1" fill="#fcd004" d="M 42.5,65.5 C 42.8836,67.2926 44.0503,68.2926 46,68.5C 47.4397,67.8524 48.9397,67.5191 50.5,67.5C 50.8333,67.5 51.1667,67.5 51.5,67.5C 50.8333,68.8333 50.1667,70.1667 49.5,71.5C 47.5,71.5 45.5,71.5 43.5,71.5C 42.8333,70.5 42.1667,69.5 41.5,68.5C 41.2627,67.209 41.596,66.209 42.5,65.5 Z"/></g>
<g><path style="opacity:1" fill="#dc790c" d="M 57.5,67.5 C 57.8333,68.1667 58.1667,68.8333 58.5,69.5C 57.71,70.6085 57.21,71.9419 57,73.5C 56.3292,74.2524 55.4959,74.5858 54.5,74.5C 52.7091,73.7721 52.0424,72.7721 52.5,71.5C 53.1667,70.5 53.8333,69.5 54.5,68.5C 55.2679,69.2625 55.7679,70.2625 56,71.5C 56.21,69.9419 56.71,68.6085 57.5,67.5 Z"/></g>
<g><path style="opacity:1" fill="#2e914d" d="M 29.5,63.5 C 29.8333,63.5 30.1667,63.5 30.5,63.5C 31.5,65.5 32.5,67.5 33.5,69.5C 33.5,69.8333 33.5,70.1667 33.5,70.5C 33.5,71.8333 33.5,73.1667 33.5,74.5C 32.8333,74.1667 32.1667,73.8333 31.5,73.5C 31.5,72.5 31.5,71.5 31.5,70.5C 30.8333,68.1667 30.1667,65.8333 29.5,63.5 Z"/></g>
<g><path style="opacity:1" fill="#da7e05" d="M 43.5,71.5 C 45.5,71.5 47.5,71.5 49.5,71.5C 49.8333,71.5 50.1667,71.5 50.5,71.5C 48.7078,72.3091 46.7078,72.8091 44.5,73C 46.7078,73.1909 48.7078,73.6909 50.5,74.5C 47.8333,74.5 45.1667,74.5 42.5,74.5C 42.2627,73.209 42.596,72.209 43.5,71.5 Z"/></g>
<g><path style="opacity:1" fill="#136d30" d="M 70.5,69.5 C 71.1667,69.5 71.8333,69.5 72.5,69.5C 71.7367,73.3696 69.7367,76.3696 66.5,78.5C 66.5569,77.391 66.8902,76.391 67.5,75.5C 68.5,73.5 69.5,71.5 70.5,69.5 Z"/></g>
<g><path style="opacity:0.831" fill="#4e7950" d="M 15.5,59.5 C 15.8333,59.5 16.1667,59.5 16.5,59.5C 16.2291,61.3797 16.8958,62.713 18.5,63.5C 18.5,64.1667 18.5,64.8333 18.5,65.5C 18.5,66.5 18.5,67.5 18.5,68.5C 19.1667,70.1667 19.8333,71.8333 20.5,73.5C 20.5,74.1667 20.5,74.8333 20.5,75.5C 20.1667,75.5 19.8333,75.5 19.5,75.5C 19.6716,74.5084 19.3382,73.8417 18.5,73.5C 18.1667,70.8333 17.8333,70.8333 17.5,73.5C 15.9261,71.8984 15.2594,69.8984 15.5,67.5C 16.8333,66.1667 16.8333,64.8333 15.5,63.5C 15.5,62.1667 15.5,60.8333 15.5,59.5 Z"/></g>
<g><path style="opacity:1" fill="#16883b" d="M 28.5,71.5 C 29.5,72.1667 30.5,72.8333 31.5,73.5C 32.1667,73.8333 32.8333,74.1667 33.5,74.5C 34.404,75.209 34.7373,76.209 34.5,77.5C 32.2459,76.5849 30.2459,75.2516 28.5,73.5C 28.5,72.8333 28.5,72.1667 28.5,71.5 Z"/></g>
<g><path style="opacity:1" fill="#cd620c" d="M 50.5,71.5 C 51.1667,71.5 51.8333,71.5 52.5,71.5C 52.0424,72.7721 52.7091,73.7721 54.5,74.5C 54.5,75.1667 54.5,75.8333 54.5,76.5C 53.3951,75.3995 52.0618,74.7329 50.5,74.5C 48.7078,73.6909 46.7078,73.1909 44.5,73C 46.7078,72.8091 48.7078,72.3091 50.5,71.5 Z"/></g>
<g><path style="opacity:0.008" fill="#6c7f69" d="M 17.5,73.5 C 17.8333,73.5 18.1667,73.5 18.5,73.5C 18.5,74.1667 18.5,74.8333 18.5,75.5C 17.6618,75.1583 17.3284,74.4916 17.5,73.5 Z"/></g>
<g><path style="opacity:1" fill="#d67f06" d="M 37.5,68.5 C 38.2479,71.1702 39.2479,73.8369 40.5,76.5C 39.5,76.8333 38.8333,77.5 38.5,78.5C 36.3199,76.1367 34.6532,73.47 33.5,70.5C 33.5,70.1667 33.5,69.8333 33.5,69.5C 35.099,69.7678 36.4324,69.4345 37.5,68.5 Z"/></g>
<g><path style="opacity:1" fill="#f7c70c" d="M 42.5,75.5 C 42.5,75.1667 42.5,74.8333 42.5,74.5C 45.1667,74.5 47.8333,74.5 50.5,74.5C 52.0618,74.7329 53.3951,75.3995 54.5,76.5C 54.5,77.5 54.5,78.5 54.5,79.5C 53.8333,80.8333 52.8333,81.8333 51.5,82.5C 49.1667,82.5 46.8333,82.5 44.5,82.5C 43.8333,82.5 43.5,82.1667 43.5,81.5C 45.8568,81.6633 48.1902,81.4966 50.5,81C 51.056,80.6174 51.3893,80.1174 51.5,79.5C 51.6716,78.5084 51.3382,77.8417 50.5,77.5C 48.22,75.7773 45.5533,75.1107 42.5,75.5 Z"/></g>
<g><path style="opacity:1" fill="#cc6b04" d="M 58.5,69.5 C 59.5,69.5 60.5,69.5 61.5,69.5C 61.5,70.1667 61.5,70.8333 61.5,71.5C 60.1667,73.5 58.8333,75.5 57.5,77.5C 56.8826,77.3893 56.3826,77.056 56,76.5C 55.7679,77.7375 55.2679,78.7375 54.5,79.5C 54.5,78.5 54.5,77.5 54.5,76.5C 54.5,75.8333 54.5,75.1667 54.5,74.5C 55.4959,74.5858 56.3292,74.2524 57,73.5C 57.21,71.9419 57.71,70.6085 58.5,69.5 Z"/></g>
<g><path style="opacity:1" fill="#1f6d32" d="M 18.5,68.5 C 21.4611,70.4121 23.4611,73.0787 24.5,76.5C 23.8333,76.5 23.1667,76.5 22.5,76.5C 21.8333,75.5 21.1667,74.5 20.5,73.5C 19.8333,71.8333 19.1667,70.1667 18.5,68.5 Z"/></g>
<g><path style="opacity:1" fill="#ffdd27" d="M 42.5,75.5 C 45.5533,75.1107 48.22,75.7773 50.5,77.5C 47.8333,77.5 45.1667,77.5 42.5,77.5C 42.5,76.8333 42.5,76.1667 42.5,75.5 Z"/></g>
<g><path style="opacity:1" fill="#118537" d="M 65.5,69.5 C 65.1667,71.5 64.8333,73.5 64.5,75.5C 63.892,78.4062 62.5587,80.7396 60.5,82.5C 61.0592,80.3208 61.7259,78.1542 62.5,76C 62.4301,75.2352 62.0967,74.7352 61.5,74.5C 61.5,74.1667 61.5,73.8333 61.5,73.5C 62.4725,71.8608 63.8058,70.5274 65.5,69.5 Z"/></g>
<g><path style="opacity:0.995" fill="#20612e" d="M 74.5,71.5 C 74.5,71.8333 74.5,72.1667 74.5,72.5C 74.5,73.1667 74.5,73.8333 74.5,74.5C 71.92,77.9893 69.5867,81.6559 67.5,85.5C 66.1667,85.8333 64.8333,86.1667 63.5,86.5C 65.2516,84.7541 66.5849,82.7541 67.5,80.5C 70.2463,77.7618 72.5797,74.7618 74.5,71.5 Z"/></g>
<g><path style="opacity:0.004" fill="#1f1f1f" d="M 76.5,74.5 C 76.8333,74.5 77.1667,74.5 77.5,74.5C 77.6716,75.4916 77.3382,76.1583 76.5,76.5C 76.5,75.8333 76.5,75.1667 76.5,74.5 Z"/></g>
<g><path style="opacity:0.004" fill="#2b2b2b" d="M 18.5,75.5 C 18.8333,75.5 19.1667,75.5 19.5,75.5C 19.5,76.1667 19.5,76.8333 19.5,77.5C 18.6618,77.1583 18.3284,76.4916 18.5,75.5 Z"/></g>
<g><path style="opacity:1" fill="#358643" d="M 33.5,70.5 C 34.6532,73.47 36.3199,76.1367 38.5,78.5C 38.5,79.1667 38.5,79.8333 38.5,80.5C 37.1667,79.5 35.8333,78.5 34.5,77.5C 34.7373,76.209 34.404,75.209 33.5,74.5C 33.5,73.1667 33.5,71.8333 33.5,70.5 Z"/></g>
<g><path style="opacity:1" fill="#b75604" d="M 57.5,77.5 C 56.8333,79.1667 56.1667,80.8333 55.5,82.5C 54.0937,82.9731 53.427,83.9731 53.5,85.5C 53.1667,85.5 52.8333,85.5 52.5,85.5C 52.4431,84.391 52.1098,83.391 51.5,82.5C 52.8333,81.8333 53.8333,80.8333 54.5,79.5C 55.2679,78.7375 55.7679,77.7375 56,76.5C 56.3826,77.056 56.8826,77.3893 57.5,77.5 Z"/></g>
<g><path style="opacity:0.831" fill="#436b3e" d="M 74.5,74.5 C 74.5,75.1667 74.5,75.8333 74.5,76.5C 74.5,77.1667 74.5,77.8333 74.5,78.5C 73.8333,78.5 73.5,78.8333 73.5,79.5C 72.6618,79.8417 72.3284,80.5084 72.5,81.5C 71.8333,81.5 71.5,81.8333 71.5,82.5C 70.8333,82.5 70.5,82.8333 70.5,83.5C 69.8333,83.5 69.5,83.8333 69.5,84.5C 68.8333,84.5 68.5,84.8333 68.5,85.5C 68.1667,85.5 67.8333,85.5 67.5,85.5C 69.5867,81.6559 71.92,77.9893 74.5,74.5 Z"/></g>
<g><path style="opacity:0.004" fill="#24a218" d="M 75.5,76.5 C 75.8333,76.5 76.1667,76.5 76.5,76.5C 76.6716,77.4916 76.3382,78.1583 75.5,78.5C 75.5,77.8333 75.5,77.1667 75.5,76.5 Z"/></g>
<g><path style="opacity:0.008" fill="#535353" d="M 19.5,77.5 C 19.8333,77.5 20.1667,77.5 20.5,77.5C 20.1667,80.1667 19.8333,80.1667 19.5,77.5 Z"/></g>
<g><path style="opacity:1" fill="#198438" d="M 28.5,73.5 C 30.2459,75.2516 32.2459,76.5849 34.5,77.5C 35.8333,78.5 37.1667,79.5 38.5,80.5C 39.3382,80.8417 39.6716,81.5084 39.5,82.5C 39.5,82.8333 39.5,83.1667 39.5,83.5C 36.9528,82.0664 34.6195,80.3998 32.5,78.5C 31.1667,77.5 29.8333,76.5 28.5,75.5C 28.5,74.8333 28.5,74.1667 28.5,73.5 Z"/></g>
<g><path style="opacity:1" fill="#fed80c" d="M 42.5,77.5 C 45.1667,77.5 47.8333,77.5 50.5,77.5C 51.3382,77.8417 51.6716,78.5084 51.5,79.5C 49.2181,80.3897 46.8848,80.5564 44.5,80C 43.244,79.5831 42.5774,78.7498 42.5,77.5 Z"/></g>
<g><path style="opacity:1" fill="#338d42" d="M 61.5,71.5 C 61.5,72.1667 61.5,72.8333 61.5,73.5C 61.5,73.8333 61.5,74.1667 61.5,74.5C 60.0713,77.6963 58.4046,80.6963 56.5,83.5C 56.1667,83.5 55.8333,83.5 55.5,83.5C 55.5,83.1667 55.5,82.8333 55.5,82.5C 56.1667,80.8333 56.8333,79.1667 57.5,77.5C 58.8333,75.5 60.1667,73.5 61.5,71.5 Z"/></g>
<g><path style="opacity:1" fill="#19662c" d="M 22.5,76.5 C 23.1667,76.5 23.8333,76.5 24.5,76.5C 26.8333,78.5 29.1667,80.5 31.5,82.5C 32.9744,83.4363 33.9744,84.7697 34.5,86.5C 30.2255,84.5428 26.5588,81.8762 23.5,78.5C 23.1667,77.8333 22.8333,77.1667 22.5,76.5 Z"/></g>
<g><path style="opacity:1" fill="#148132" d="M 32.5,78.5 C 34.6195,80.3998 36.9528,82.0664 39.5,83.5C 42.1377,88.0326 41.1377,88.6992 36.5,85.5C 34.9138,83.3295 33.5804,80.9962 32.5,78.5 Z"/></g>
<g><path style="opacity:1" fill="#147430" d="M 67.5,70.5 C 67.5,72.1667 67.5,73.8333 67.5,75.5C 66.8902,76.391 66.5569,77.391 66.5,78.5C 65.8902,79.391 65.5569,80.391 65.5,81.5C 64.1667,83.1667 62.8333,84.8333 61.5,86.5C 60.8333,86.5 60.1667,86.5 59.5,86.5C 59.8333,85.1667 60.1667,83.8333 60.5,82.5C 62.5587,80.7396 63.892,78.4062 64.5,75.5C 65.6873,73.9275 66.6873,72.2608 67.5,70.5 Z"/></g>
<g><path style="opacity:0.004" fill="#313f2c" d="M 74.5,78.5 C 74.8333,78.5 75.1667,78.5 75.5,78.5C 75.573,80.0269 74.9063,81.0269 73.5,81.5C 73.5,80.8333 73.5,80.1667 73.5,79.5C 74.1667,79.5 74.5,79.1667 74.5,78.5 Z"/></g>
<g><path style="opacity:0.573" fill="#436d40" d="M 20.5,73.5 C 21.1667,74.5 21.8333,75.5 22.5,76.5C 22.8333,77.1667 23.1667,77.8333 23.5,78.5C 24.4408,80.0495 25.1075,81.7162 25.5,83.5C 24.2719,82.6935 23.2719,81.6935 22.5,80.5C 22.0679,79.2905 21.4013,78.2905 20.5,77.5C 20.5,76.8333 20.5,76.1667 20.5,75.5C 20.5,74.8333 20.5,74.1667 20.5,73.5 Z"/></g>
<g><path style="opacity:1" fill="#fccf05" d="M 42.5,75.5 C 42.5,76.1667 42.5,76.8333 42.5,77.5C 42.5774,78.7498 43.244,79.5831 44.5,80C 46.8848,80.5564 49.2181,80.3897 51.5,79.5C 51.3893,80.1174 51.056,80.6174 50.5,81C 48.1902,81.4966 45.8568,81.6633 43.5,81.5C 43.1667,81.5 42.8333,81.5 42.5,81.5C 42.1667,80.8333 41.8333,80.1667 41.5,79.5C 41.2322,77.901 41.5655,76.5676 42.5,75.5 Z"/></g>
<g><path style="opacity:1" fill="#1e662d" d="M 67.5,80.5 C 66.5849,82.7541 65.2516,84.7541 63.5,86.5C 62.5987,87.2905 61.9321,88.2905 61.5,89.5C 60.5,89.5 59.5,89.5 58.5,89.5C 59.6935,88.7281 60.6935,87.7281 61.5,86.5C 62.8333,84.8333 64.1667,83.1667 65.5,81.5C 66.1667,81.1667 66.8333,80.8333 67.5,80.5 Z"/></g>
<g><path style="opacity:0.004" fill="#0f1f06" d="M 22.5,80.5 C 22.631,81.2389 22.4643,81.9056 22,82.5C 21.3083,81.5632 21.475,80.8966 22.5,80.5 Z"/></g>
<g><path style="opacity:1" fill="#c66905" d="M 40.5,76.5 C 40.2627,77.791 40.596,78.791 41.5,79.5C 41.8333,80.1667 42.1667,80.8333 42.5,81.5C 42.5,82.5 42.5,83.5 42.5,84.5C 41.5,83.8333 40.5,83.1667 39.5,82.5C 39.6716,81.5084 39.3382,80.8417 38.5,80.5C 38.5,79.8333 38.5,79.1667 38.5,78.5C 38.8333,77.5 39.5,76.8333 40.5,76.5 Z"/></g>
<g><path style="opacity:1" fill="#138a36" d="M 61.5,74.5 C 62.0967,74.7352 62.4301,75.2352 62.5,76C 61.7259,78.1542 61.0592,80.3208 60.5,82.5C 59.2652,82.7214 58.2652,83.3881 57.5,84.5C 56.8933,84.3764 56.56,84.0431 56.5,83.5C 58.4046,80.6963 60.0713,77.6963 61.5,74.5 Z"/></g>
<g><path style="opacity:0.016" fill="#3e3f3e" d="M 72.5,81.5 C 72.8333,81.5 73.1667,81.5 73.5,81.5C 73.3147,82.1701 72.9813,82.1701 72.5,81.5 Z"/></g>
<g><path style="opacity:0.898" fill="#3d5433" d="M 25.5,83.5 C 28.4549,85.1223 31.1215,87.1223 33.5,89.5C 32.8333,89.5 32.5,89.8333 32.5,90.5C 32.5,90.8333 32.5,91.1667 32.5,91.5C 30.513,90.8358 28.8463,89.6692 27.5,88C 27.8333,87.6667 28.1667,87.3333 28.5,87C 27.2899,85.9609 26.2899,84.7942 25.5,83.5 Z"/></g>
<g><path style="opacity:1" fill="#2d5f31" d="M 23.5,78.5 C 26.5588,81.8762 30.2255,84.5428 34.5,86.5C 34.5,86.8333 34.5,87.1667 34.5,87.5C 35.7888,88.6366 36.7888,89.9699 37.5,91.5C 36.4427,92.206 36.7761,92.5393 38.5,92.5C 38.5,92.8333 38.5,93.1667 38.5,93.5C 36.2972,93.3964 34.2972,92.7298 32.5,91.5C 32.5,91.1667 32.5,90.8333 32.5,90.5C 33.1667,90.5 33.5,90.1667 33.5,89.5C 31.1215,87.1223 28.4549,85.1223 25.5,83.5C 25.1075,81.7162 24.4408,80.0495 23.5,78.5 Z"/></g>
<g><path style="opacity:1" fill="#14752f" d="M 28.5,75.5 C 29.8333,76.5 31.1667,77.5 32.5,78.5C 33.5804,80.9962 34.9138,83.3295 36.5,85.5C 36.5,86.1667 36.5,86.8333 36.5,87.5C 35.8333,87.5 35.1667,87.5 34.5,87.5C 34.5,87.1667 34.5,86.8333 34.5,86.5C 33.9744,84.7697 32.9744,83.4363 31.5,82.5C 30.242,80.3131 29.242,77.9798 28.5,75.5 Z"/></g>
<g><path style="opacity:1" fill="#da8409" d="M 42.5,81.5 C 42.8333,81.5 43.1667,81.5 43.5,81.5C 43.5,82.1667 43.8333,82.5 44.5,82.5C 44.9175,83.2216 45.5842,83.7216 46.5,84C 44.8388,87.1499 45.8388,88.6499 49.5,88.5C 49.0269,89.9063 48.0269,90.573 46.5,90.5C 45.8333,89.1667 44.8333,88.1667 43.5,87.5C 42.8902,86.609 42.5569,85.609 42.5,84.5C 42.5,83.5 42.5,82.5 42.5,81.5 Z"/></g>
<g><path style="opacity:1" fill="#148031" d="M 60.5,82.5 C 60.1667,83.8333 59.8333,85.1667 59.5,86.5C 57.712,86.7852 56.0453,86.4519 54.5,85.5C 54.8627,84.8165 55.1961,84.1499 55.5,83.5C 55.8333,83.5 56.1667,83.5 56.5,83.5C 56.56,84.0431 56.8933,84.3764 57.5,84.5C 58.2652,83.3881 59.2652,82.7214 60.5,82.5 Z"/></g>
<g><path style="opacity:0.004" fill="#1f221a" d="M 71.5,82.5 C 71.8333,82.5 72.1667,82.5 72.5,82.5C 71.8333,85.1667 70.1667,86.8333 67.5,87.5C 67.5,87.1667 67.5,86.8333 67.5,86.5C 68.1667,86.5 68.5,86.1667 68.5,85.5C 69.1667,85.5 69.5,85.1667 69.5,84.5C 70.1667,84.5 70.5,84.1667 70.5,83.5C 71.1667,83.5 71.5,83.1667 71.5,82.5 Z"/></g>
<g><path style="opacity:1" fill="#f09a0c" d="M 44.5,82.5 C 46.8333,82.5 49.1667,82.5 51.5,82.5C 52.1098,83.391 52.4431,84.391 52.5,85.5C 52.1667,86.1667 51.8333,86.8333 51.5,87.5C 50.8333,87.8333 50.1667,88.1667 49.5,88.5C 45.8388,88.6499 44.8388,87.1499 46.5,84C 45.5842,83.7216 44.9175,83.2216 44.5,82.5 Z"/></g>
<g><path style="opacity:1" fill="#405d35" d="M 67.5,85.5 C 67.5,85.8333 67.5,86.1667 67.5,86.5C 66.8333,86.5 66.5,86.8333 66.5,87.5C 65.1667,87.8333 65.1667,88.1667 66.5,88.5C 65.3406,90.2503 63.674,91.2503 61.5,91.5C 61.5,91.1667 61.5,90.8333 61.5,90.5C 62.8333,90.1667 62.8333,89.8333 61.5,89.5C 61.9321,88.2905 62.5987,87.2905 63.5,86.5C 64.8333,86.1667 66.1667,85.8333 67.5,85.5 Z"/></g>
<g><path style="opacity:1" fill="#1c752d" d="M 39.5,82.5 C 40.5,83.1667 41.5,83.8333 42.5,84.5C 42.5569,85.609 42.8902,86.609 43.5,87.5C 41.3445,89.9599 39.0111,89.9599 36.5,87.5C 36.5,86.8333 36.5,86.1667 36.5,85.5C 41.1377,88.6992 42.1377,88.0326 39.5,83.5C 39.5,83.1667 39.5,82.8333 39.5,82.5 Z"/></g>
<g><path style="opacity:1" fill="#1c742d" d="M 55.5,82.5 C 55.5,82.8333 55.5,83.1667 55.5,83.5C 55.1961,84.1499 54.8627,84.8165 54.5,85.5C 56.0453,86.4519 57.712,86.7852 59.5,86.5C 57.5125,88.6748 55.1792,89.3414 52.5,88.5C 53.1272,87.5832 53.4606,86.5832 53.5,85.5C 53.427,83.9731 54.0937,82.9731 55.5,82.5 Z"/></g>
<g><path style="opacity:0.016" fill="#3e3f3e" d="M 66.5,87.5 C 66.8333,87.5 67.1667,87.5 67.5,87.5C 67.3147,88.1701 66.9813,88.1701 66.5,87.5 Z"/></g>
<g><path style="opacity:0.994" fill="#216029" d="M 34.5,87.5 C 35.1667,87.5 35.8333,87.5 36.5,87.5C 39.0111,89.9599 41.3445,89.9599 43.5,87.5C 44.8333,88.1667 45.8333,89.1667 46.5,90.5C 44.0521,91.4731 41.3854,91.8064 38.5,91.5C 38.1667,91.5 37.8333,91.5 37.5,91.5C 36.7888,89.9699 35.7888,88.6366 34.5,87.5 Z"/></g>
<g><path style="opacity:0.996" fill="#3e6232" d="M 51.5,87.5 C 51.5,88.5 51.5,89.5 51.5,90.5C 52.5,90.5 53.5,90.5 54.5,90.5C 54.5,91.1667 54.5,91.8333 54.5,92.5C 49.1825,93.6163 43.8492,93.6163 38.5,92.5C 38.5,92.1667 38.5,91.8333 38.5,91.5C 41.3854,91.8064 44.0521,91.4731 46.5,90.5C 48.0269,90.573 49.0269,89.9063 49.5,88.5C 50.1667,88.1667 50.8333,87.8333 51.5,87.5 Z"/></g>
<g><path style="opacity:0.99" fill="#1d682a" d="M 52.5,85.5 C 52.8333,85.5 53.1667,85.5 53.5,85.5C 53.4606,86.5832 53.1272,87.5832 52.5,88.5C 55.1792,89.3414 57.5125,88.6748 59.5,86.5C 60.1667,86.5 60.8333,86.5 61.5,86.5C 60.6935,87.7281 59.6935,88.7281 58.5,89.5C 57.2921,90.2341 55.9587,90.5674 54.5,90.5C 53.5,90.5 52.5,90.5 51.5,90.5C 51.5,89.5 51.5,88.5 51.5,87.5C 51.8333,86.8333 52.1667,86.1667 52.5,85.5 Z"/></g>
<g><path style="opacity:0.855" fill="#415e38" d="M 58.5,89.5 C 59.5,89.5 60.5,89.5 61.5,89.5C 61.5,89.8333 61.5,90.1667 61.5,90.5C 60.5084,90.3284 59.8417,90.6618 59.5,91.5C 56.8333,91.8333 56.8333,92.1667 59.5,92.5C 58.791,93.404 57.791,93.7373 56.5,93.5C 56.1583,92.6618 55.4916,92.3284 54.5,92.5C 54.5,91.8333 54.5,91.1667 54.5,90.5C 55.9587,90.5674 57.2921,90.2341 58.5,89.5 Z"/></g>
<g><path style="opacity:0.012" fill="#51844e" d="M 59.5,92.5 C 59.5,92.1667 59.5,91.8333 59.5,91.5C 60.1667,91.5 60.8333,91.5 61.5,91.5C 61.1583,92.3382 60.4916,92.6716 59.5,92.5 Z"/></g>
<g><path style="opacity:0.008" fill="#59825f" d="M 38.5,93.5 C 40.1992,93.3398 41.8659,93.5065 43.5,94C 41.6131,94.7796 39.9464,94.6129 38.5,93.5 Z"/></g>
<g><path style="opacity:0.008" fill="#455b3e" d="M 56.5,93.5 C 55.0536,94.6129 53.3869,94.7796 51.5,94C 53.1341,93.5065 54.8008,93.3398 56.5,93.5 Z"/></g>
<g><path style="opacity:0.004" fill="#000000" d="M 44.5,95.5 C 46.2884,94.3775 48.2884,94.2109 50.5,95C 48.5273,95.4955 46.5273,95.6621 44.5,95.5 Z"/></g>
</svg>
