<?xml version="1.0" encoding="UTF-8"?>
<!DOCTYPE svg PUBLIC "-//W3C//DTD SVG 1.1//EN" "http://www.w3.org/Graphics/SVG/1.1/DTD/svg11.dtd">
<svg xmlns="http://www.w3.org/2000/svg" version="1.1" width="100px" height="100px" style="shape-rendering:geometricPrecision; text-rendering:geometricPrecision; image-rendering:optimizeQuality; fill-rule:evenodd; clip-rule:evenodd" xmlns:xlink="http://www.w3.org/1999/xlink">
<g><path style="opacity:0.004" fill="#ff7b83" d="M 68.5,11.5 C 69.9464,10.3871 71.6131,10.2204 73.5,11C 71.8659,11.4935 70.1992,11.6602 68.5,11.5 Z"/></g>
<g><path style="opacity:0.004" fill="#fefffe" d="M 67.5,12.5 C 66.8333,11.1667 66.8333,11.1667 67.5,12.5 Z"/></g>
<g><path style="opacity:0.004" fill="#fe0000" d="M 33.5,13.5 C 32.8333,12.1667 32.8333,12.1667 33.5,13.5 Z"/></g>
<g><path style="opacity:0.867" fill="#ff8ea3" d="M 67.5,12.5 C 72.0496,13.1332 76.5496,13.1332 81,12.5C 82.49,13.3169 83.99,14.1502 85.5,15C 84.434,16.159 84.7673,16.9924 86.5,17.5C 86.5,18.1667 86.8333,18.5 87.5,18.5C 88.6005,19.6049 89.2671,20.9382 89.5,22.5C 84.3374,17.0892 78.0041,14.7559 70.5,15.5C 67.203,14.1453 66.8696,14.6453 69.5,17C 68.3094,17.6979 67.3094,18.5313 66.5,19.5C 66.1667,19.5 65.8333,19.5 65.5,19.5C 65.5,18.1667 65.5,16.8333 65.5,15.5C 66.4013,14.7095 67.0679,13.7095 67.5,12.5 Z"/></g>
<g><path style="opacity:1" fill="#fe8ba1" d="M 26.5,14.5 C 23.5958,16.1949 20.4291,17.5282 17,18.5C 14.4733,20.6528 11.9733,22.6528 9.5,24.5C 8.72813,25.6935 7.72813,26.6935 6.5,27.5C 6.5,26.8333 6.5,26.1667 6.5,25.5C 7.33825,25.1583 7.67158,24.4916 7.5,23.5C 8.5,22.1667 9.5,20.8333 10.5,19.5C 10.4346,19.9382 10.6012,20.2716 11,20.5C 15.2872,16.3363 20.4538,14.3363 26.5,14.5 Z"/></g>
<g><path style="opacity:0.004" fill="#783848" d="M 86.5,17.5 C 86.56,16.9569 86.8933,16.6236 87.5,16.5C 88.7733,17.2565 88.7733,17.9232 87.5,18.5C 86.8333,18.5 86.5,18.1667 86.5,17.5 Z"/></g>
<g><path style="opacity:0.906" fill="#ffb6ca" d="M 30.5,12.5 C 30.1667,13.5 29.5,14.1667 28.5,14.5C 27.8333,14.5 27.1667,14.5 26.5,14.5C 20.4538,14.3363 15.2872,16.3363 11,20.5C 10.6012,20.2716 10.4346,19.9382 10.5,19.5C 11.2899,18.2058 12.2899,17.0391 13.5,16C 13.1667,15.6667 12.8333,15.3333 12.5,15C 14.0009,13.7485 15.6675,12.7485 17.5,12C 21.7909,12.196 26.1243,12.3627 30.5,12.5 Z"/></g>
<g><path style="opacity:0.996" fill="#fb5853" d="M 30.5,12.5 C 31.1667,12.8333 31.8333,13.1667 32.5,13.5C 32.5,17.1667 32.5,20.8333 32.5,24.5C 32.1667,24.5 31.8333,24.5 31.5,24.5C 31.5,23.1667 31.5,21.8333 31.5,20.5C 31.44,19.9569 31.1067,19.6236 30.5,19.5C 27.7238,20.0891 25.3904,21.4224 23.5,23.5C 23.542,22.479 23.542,21.479 23.5,20.5C 23.5,20.1667 23.5,19.8333 23.5,19.5C 25.5,18.1667 27.1667,16.5 28.5,14.5C 29.5,14.1667 30.1667,13.5 30.5,12.5 Z"/></g>
<g><path style="opacity:0.012" fill="#f75252" d="M 33.5,13.5 C 34.6408,16.6399 34.8075,19.9733 34,23.5C 33.5017,20.1832 33.335,16.8499 33.5,13.5 Z"/></g>
<g><path style="opacity:1" fill="#f94663" d="M 70.5,15.5 C 78.0041,14.7559 84.3374,17.0892 89.5,22.5C 90.6737,23.5137 91.3404,24.847 91.5,26.5C 86.5454,23.9269 81.7121,20.9269 77,17.5C 75.9887,18.3366 74.8221,18.67 73.5,18.5C 73.1667,18.5 72.8333,18.5 72.5,18.5C 71.8333,17.5 71.1667,16.5 70.5,15.5 Z"/></g>
<g><path style="opacity:1" fill="#ff7884" d="M 26.5,14.5 C 27.1667,14.5 27.8333,14.5 28.5,14.5C 27.1667,16.5 25.5,18.1667 23.5,19.5C 18.8137,21.2053 14.1471,22.872 9.5,24.5C 11.9733,22.6528 14.4733,20.6528 17,18.5C 20.4291,17.5282 23.5958,16.1949 26.5,14.5 Z"/></g>
<g><path style="opacity:0.016" fill="#ff4832" d="M 65.5,15.5 C 65.5,16.8333 65.5,18.1667 65.5,19.5C 65.6621,21.5273 65.4955,23.5273 65,25.5C 64.0033,22.1994 63.6699,18.866 64,15.5C 64.69,14.2617 65.19,14.2617 65.5,15.5 Z"/></g>
<g><path style="opacity:0.012" fill="#ff9792" d="M 7.5,23.5 C 6.66175,23.8417 6.32842,24.5084 6.5,25.5C 6.16667,25.5 5.83333,25.5 5.5,25.5C 5.31181,23.8967 5.81181,22.5634 7,21.5C 7.46434,22.0944 7.63101,22.7611 7.5,23.5 Z"/></g>
<g><path style="opacity:1" fill="#fb473a" d="M 31.5,20.5 C 26.7098,22.9824 22.0432,25.649 17.5,28.5C 17.9528,27.5416 18.6195,26.7083 19.5,26C 18.9056,25.5357 18.2389,25.369 17.5,25.5C 19.4752,23.863 21.4752,22.1964 23.5,20.5C 23.542,21.479 23.542,22.479 23.5,23.5C 25.3904,21.4224 27.7238,20.0891 30.5,19.5C 31.1067,19.6236 31.44,19.9569 31.5,20.5 Z"/></g>
<g><path style="opacity:1" fill="#ff666c" d="M 23.5,19.5 C 23.5,19.8333 23.5,20.1667 23.5,20.5C 21.4752,22.1964 19.4752,23.863 17.5,25.5C 14.5,26.1667 11.5,26.8333 8.5,27.5C 8.77089,29.3797 8.10422,30.713 6.5,31.5C 6.5,30.1667 6.5,28.8333 6.5,27.5C 7.72813,26.6935 8.72813,25.6935 9.5,24.5C 14.1471,22.872 18.8137,21.2053 23.5,19.5 Z"/></g>
<g><path style="opacity:1" fill="#f23d2c" d="M 31.5,20.5 C 31.5,21.8333 31.5,23.1667 31.5,24.5C 31.5,25.5 31.5,26.5 31.5,27.5C 30.6618,27.8417 30.3284,28.5084 30.5,29.5C 30.1667,29.5 29.8333,29.5 29.5,29.5C 29.1344,28.3054 28.301,27.6387 27,27.5C 24.2683,28.8863 21.435,29.8863 18.5,30.5C 17.6618,30.1583 17.3284,29.4916 17.5,28.5C 22.0432,25.649 26.7098,22.9824 31.5,20.5 Z"/></g>
<g><path style="opacity:0.012" fill="#ff554d" d="M 32.5,24.5 C 33.8333,25.5 33.8333,26.5 32.5,27.5C 32.5,26.5 32.5,25.5 32.5,24.5 Z"/></g>
<g><path style="opacity:1" fill="#fe564a" d="M 70.5,15.5 C 71.1667,16.5 71.8333,17.5 72.5,18.5C 72.8588,20.371 73.8588,21.871 75.5,23C 71.1481,23.6642 69.1481,26.1642 69.5,30.5C 69.1667,30.5 68.8333,30.5 68.5,30.5C 68.6716,29.5084 68.3382,28.8417 67.5,28.5C 67.6716,27.5084 67.3382,26.8417 66.5,26.5C 66.5,24.1667 66.5,21.8333 66.5,19.5C 67.3094,18.5313 68.3094,17.6979 69.5,17C 66.8696,14.6453 67.203,14.1453 70.5,15.5 Z"/></g>
<g><path style="opacity:1" fill="#f23c4b" d="M 91.5,26.5 C 92.3007,28.0418 92.634,29.7085 92.5,31.5C 89.5029,30.1719 86.5029,28.8386 83.5,27.5C 79.5442,25.2119 76.2109,22.2119 73.5,18.5C 74.8221,18.67 75.9887,18.3366 77,17.5C 81.7121,20.9269 86.5454,23.9269 91.5,26.5 Z"/></g>
<g><path style="opacity:0.012" fill="#ff4442" d="M 5.5,25.5 C 5.66409,28.1873 5.49742,30.854 5,33.5C 4.19927,30.633 4.36594,27.9664 5.5,25.5 Z"/></g>
<g><path style="opacity:1" fill="#e93624" d="M 29.5,29.5 C 29.5,30.1667 29.5,30.8333 29.5,31.5C 28.8333,31.5 28.5,31.8333 28.5,32.5C 27.8333,32.5 27.5,32.8333 27.5,33.5C 26.8333,33.5 26.5,33.8333 26.5,34.5C 26.1667,34.5 25.8333,34.5 25.5,34.5C 25.719,33.325 25.3857,32.325 24.5,31.5C 21.9044,32.4822 19.2377,33.1489 16.5,33.5C 17.5511,32.7777 18.2178,31.7777 18.5,30.5C 21.435,29.8863 24.2683,28.8863 27,27.5C 28.301,27.6387 29.1344,28.3054 29.5,29.5 Z"/></g>
<g><path style="opacity:0.012" fill="#ff433d" d="M 31.5,27.5 C 31.8333,27.5 32.1667,27.5 32.5,27.5C 32.6716,28.4916 32.3382,29.1583 31.5,29.5C 31.5,28.8333 31.5,28.1667 31.5,27.5 Z"/></g>
<g><path style="opacity:0.016" fill="#ff4146" d="M 66.5,26.5 C 66.3284,27.4916 66.6618,28.1583 67.5,28.5C 67.5,29.1667 67.5,29.8333 67.5,30.5C 65.4805,29.4617 65.1472,28.1284 66.5,26.5 Z"/></g>
<g><path style="opacity:1" fill="#ec302d" d="M 72.5,18.5 C 72.8333,18.5 73.1667,18.5 73.5,18.5C 76.2109,22.2119 79.5442,25.2119 83.5,27.5C 85.5153,30.8384 88.0153,33.8384 91,36.5C 91.6917,37.4368 91.525,38.1034 90.5,38.5C 88.4907,36.9348 86.1573,35.9348 83.5,35.5C 81.572,33.5259 79.2387,32.0259 76.5,31C 77.1667,30.6667 77.8333,30.3333 78.5,30C 73.49,24.6142 70.8234,25.4475 70.5,32.5C 69.6618,32.1583 69.3284,31.4916 69.5,30.5C 69.1481,26.1642 71.1481,23.6642 75.5,23C 73.8588,21.871 72.8588,20.371 72.5,18.5 Z"/></g>
<g><path style="opacity:1" fill="#f0322e" d="M 17.5,25.5 C 18.2389,25.369 18.9056,25.5357 19.5,26C 18.6195,26.7083 17.9528,27.5416 17.5,28.5C 17.3284,29.4916 17.6618,30.1583 18.5,30.5C 18.2178,31.7777 17.5511,32.7777 16.5,33.5C 14.2198,34.6401 11.8864,35.8068 9.5,37C 11.7078,37.1909 13.7078,37.6909 15.5,38.5C 14.5084,38.3284 13.8417,38.6618 13.5,39.5C 13.1667,39.5 12.8333,39.5 12.5,39.5C 12.5,38.8333 12.1667,38.5 11.5,38.5C 10.1667,38.5 8.83333,38.5 7.5,38.5C 6.56036,32.9596 8.8937,29.793 14.5,29C 15.7101,27.9609 16.7101,26.7942 17.5,25.5 Z"/></g>
<g><path style="opacity:0.004" fill="#ff2100" d="M 30.5,29.5 C 30.8333,29.5 31.1667,29.5 31.5,29.5C 31.6716,30.4916 31.3382,31.1583 30.5,31.5C 30.5,30.8333 30.5,30.1667 30.5,29.5 Z"/></g>
<g><path style="opacity:0.012" fill="#a90000" d="M 29.5,31.5 C 29.8333,31.5 30.1667,31.5 30.5,31.5C 30.3147,32.1701 29.9813,32.1701 29.5,31.5 Z"/></g>
<g><path style="opacity:0.004" fill="#ff2100" d="M 67.5,30.5 C 67.8333,30.5 68.1667,30.5 68.5,30.5C 68.1667,33.1667 67.8333,33.1667 67.5,30.5 Z"/></g>
<g><path style="opacity:0.016" fill="#be0000" d="M 28.5,32.5 C 28.8333,32.5 29.1667,32.5 29.5,32.5C 29.3147,33.1701 28.9813,33.1701 28.5,32.5 Z"/></g>
<g><path style="opacity:1" fill="#e92f23" d="M 83.5,35.5 C 82.0821,37.3079 80.0821,37.9746 77.5,37.5C 76.7177,35.5487 75.3844,34.0487 73.5,33C 74.6956,32.3457 74.6956,31.8457 73.5,31.5C 72.6143,32.325 72.281,33.325 72.5,34.5C 71.5,34.1667 70.8333,33.5 70.5,32.5C 70.8234,25.4475 73.49,24.6142 78.5,30C 77.8333,30.3333 77.1667,30.6667 76.5,31C 79.2387,32.0259 81.572,33.5259 83.5,35.5 Z"/></g>
<g><path style="opacity:1" fill="#e52e1e" d="M 25.5,34.5 C 25.5,35.1667 25.8333,35.5 26.5,35.5C 24.5182,38.1367 21.8515,39.47 18.5,39.5C 17.791,38.596 16.791,38.2627 15.5,38.5C 13.7078,37.6909 11.7078,37.1909 9.5,37C 11.8864,35.8068 14.2198,34.6401 16.5,33.5C 19.2377,33.1489 21.9044,32.4822 24.5,31.5C 25.3857,32.325 25.719,33.325 25.5,34.5 Z"/></g>
<g><path style="opacity:0.012" fill="#fe5500" d="M 27.5,33.5 C 27.8333,33.5 28.1667,33.5 28.5,33.5C 28.3147,34.1701 27.9813,34.1701 27.5,33.5 Z"/></g>
<g><path style="opacity:0.004" fill="#fe0000" d="M 55.5,34.5 C 54.8333,33.1667 54.8333,33.1667 55.5,34.5 Z"/></g>
<g><path style="opacity:0.008" fill="#fe7f00" d="M 26.5,34.5 C 26.8333,34.5 27.1667,34.5 27.5,34.5C 27.3147,35.1701 26.9813,35.1701 26.5,34.5 Z"/></g>
<g><path style="opacity:0.008" fill="#fe7f7e" d="M 54.5,34.5 C 54.631,35.2389 54.4643,35.9056 54,36.5C 53.3083,35.5632 53.475,34.8966 54.5,34.5 Z"/></g>
<g><path style="opacity:0.004" fill="#fe0000" d="M 65.5,36.5 C 65.369,35.7611 65.5357,35.0944 66,34.5C 66.6917,35.4368 66.525,36.1034 65.5,36.5 Z"/></g>
<g><path style="opacity:0.997" fill="#fb5049" d="M 65.5,36.5 C 65.6747,38.6208 65.3414,40.6208 64.5,42.5C 64.5,42.8333 64.5,43.1667 64.5,43.5C 64.1667,43.5 63.8333,43.5 63.5,43.5C 63.1667,40.8333 62.8333,40.8333 62.5,43.5C 60.4862,43.6085 58.8195,42.9418 57.5,41.5C 56.8333,41.5 56.5,41.1667 56.5,40.5C 56.7373,39.209 56.404,38.209 55.5,37.5C 55.5,36.5 55.5,35.5 55.5,34.5C 56.2679,33.7375 56.7679,32.7375 57,31.5C 60.8145,31.6706 63.6478,33.3373 65.5,36.5 Z"/></g>
<g><path style="opacity:0.998" fill="#d82f24" d="M 77.5,37.5 C 80.0821,37.9746 82.0821,37.3079 83.5,35.5C 86.1573,35.9348 88.4907,36.9348 90.5,38.5C 89.209,38.2627 88.209,38.596 87.5,39.5C 87.1667,39.5 86.8333,39.5 86.5,39.5C 85.8333,39.5 85.5,39.8333 85.5,40.5C 80.165,41.4924 75.4984,39.9924 71.5,36C 72.056,35.6174 72.3893,35.1174 72.5,34.5C 72.281,33.325 72.6143,32.325 73.5,31.5C 74.6956,31.8457 74.6956,32.3457 73.5,33C 75.3844,34.0487 76.7177,35.5487 77.5,37.5 Z"/></g>
<g><path style="opacity:0.996" fill="#f84341" d="M 42.5,40.5 C 41.8333,40.5 41.5,40.8333 41.5,41.5C 40.7095,42.4013 39.7095,43.0679 38.5,43.5C 37.8333,43.5 37.1667,43.5 36.5,43.5C 36.7373,42.209 36.404,41.209 35.5,40.5C 33.4811,34.6668 35.6478,31.6668 42,31.5C 42.5,33 43,34.5 43.5,36C 42.8524,37.4397 42.5191,38.9397 42.5,40.5 Z"/></g>
<g><path style="opacity:0.031" fill="#ff5165" d="M 55.5,37.5 C 55.5,38.5 55.5,39.5 55.5,40.5C 55.1667,40.5 54.8333,40.5 54.5,40.5C 54.5,39.8333 54.1667,39.5 53.5,39.5C 52.8333,39.5 52.1667,39.5 51.5,39.5C 49.8333,38.1667 48.1667,38.1667 46.5,39.5C 46.1667,39.5 45.8333,39.5 45.5,39.5C 44.8333,39.5 44.5,39.8333 44.5,40.5C 44.1667,40.5 43.8333,40.5 43.5,40.5C 43.9954,38.5183 44.4954,36.5183 45,34.5C 45.4828,35.448 45.6495,36.448 45.5,37.5C 49.0442,37.7195 52.3776,37.7195 55.5,37.5 Z"/></g>
<g><path style="opacity:0.886" fill="#e32e38" d="M 83.5,27.5 C 86.5029,28.8386 89.5029,30.1719 92.5,31.5C 92.3354,34.5184 92.502,37.5184 93,40.5C 93.3333,36.1667 93.6667,31.8333 94,27.5C 94.6667,32.1667 94.6667,36.8333 94,41.5C 93.7216,42.4158 93.2216,43.0825 92.5,43.5C 92.1667,40.8333 91.8333,40.8333 91.5,43.5C 90.6618,43.8417 90.3284,44.5084 90.5,45.5C 89.6618,45.8417 89.3284,46.5084 89.5,47.5C 89.1667,47.5 88.8333,47.5 88.5,47.5C 87.9101,46.234 87.4101,44.9007 87,43.5C 86.31,44.7383 85.81,44.7383 85.5,43.5C 86.6005,42.3951 87.2671,41.0618 87.5,39.5C 88.209,38.596 89.209,38.2627 90.5,38.5C 91.525,38.1034 91.6917,37.4368 91,36.5C 88.0153,33.8384 85.5153,30.8384 83.5,27.5 Z"/></g>
<g><path style="opacity:0.655" fill="#ec3b3f" d="M 17.5,25.5 C 16.7101,26.7942 15.7101,27.9609 14.5,29C 8.8937,29.793 6.56036,32.9596 7.5,38.5C 8.83333,38.5 10.1667,38.5 11.5,38.5C 12.1667,38.5 12.5,38.8333 12.5,39.5C 12.8333,40.8333 13.1667,40.8333 13.5,39.5C 15.1667,39.5 16.8333,39.5 18.5,39.5C 18.0825,40.2216 17.4158,40.7216 16.5,41C 16.1637,42.629 16.8304,44.129 18.5,45.5C 16.2537,45.0639 14.0871,44.3972 12,43.5C 11.2571,45.4406 11.4238,47.2739 12.5,49C 11.9056,49.4643 11.2389,49.631 10.5,49.5C 9.5,47.5 8.5,45.5 7.5,43.5C 7.16667,40.8333 6.83333,40.8333 6.5,43.5C 4.57261,40.8632 4.07261,37.8632 5,34.5C 5.33333,36.5 5.66667,38.5 6,40.5C 6.49796,37.5184 6.66463,34.5184 6.5,31.5C 8.10422,30.713 8.77089,29.3797 8.5,27.5C 11.5,26.8333 14.5,26.1667 17.5,25.5 Z"/></g>
<g><path style="opacity:0.983" fill="#ff548e" d="M 45.5,39.5 C 45.8333,39.5 46.1667,39.5 46.5,39.5C 48.1667,39.5 49.8333,39.5 51.5,39.5C 52.1667,39.5 52.8333,39.5 53.5,39.5C 54.1667,39.5 54.5,39.8333 54.5,40.5C 54.8333,40.5 55.1667,40.5 55.5,40.5C 55.8333,40.5 56.1667,40.5 56.5,40.5C 56.5,41.1667 56.8333,41.5 57.5,41.5C 55.4294,42.8086 52.9294,43.4752 50,43.5C 46.8949,43.3885 44.0616,42.7219 41.5,41.5C 41.5,40.8333 41.8333,40.5 42.5,40.5C 42.8333,40.5 43.1667,40.5 43.5,40.5C 43.8333,40.5 44.1667,40.5 44.5,40.5C 45.1667,40.5 45.5,40.1667 45.5,39.5 Z"/></g>
<g><path style="opacity:0.998" fill="#ff4f78" d="M 41.5,41.5 C 44.0616,42.7219 46.8949,43.3885 50,43.5C 52.9294,43.4752 55.4294,42.8086 57.5,41.5C 58.8195,42.9418 60.4862,43.6085 62.5,43.5C 62.8333,43.5 63.1667,43.5 63.5,43.5C 63.8333,44.8333 64.1667,44.8333 64.5,43.5C 64.5,43.1667 64.5,42.8333 64.5,42.5C 65.5,42.8333 66.1667,43.5 66.5,44.5C 65.1667,44.8333 65.1667,45.1667 66.5,45.5C 66.5,46.1667 66.8333,46.5 67.5,46.5C 67.5,46.8333 67.5,47.1667 67.5,47.5C 63.1729,44.6359 58.5062,43.9692 53.5,45.5C 52.5,45.5 51.5,45.5 50.5,45.5C 46.3448,45.0395 42.0115,44.8729 37.5,45C 38.056,44.6174 38.3893,44.1174 38.5,43.5C 39.7095,43.0679 40.7095,42.4013 41.5,41.5 Z"/></g>
<g><path style="opacity:0.004" fill="#ff211b" d="M 6.5,43.5 C 6.83333,43.5 7.16667,43.5 7.5,43.5C 7.16667,46.1667 6.83333,46.1667 6.5,43.5 Z"/></g>
<g><path style="opacity:0.596" fill="#ffa593" d="M 86.5,39.5 C 86.8333,39.5 87.1667,39.5 87.5,39.5C 87.2671,41.0618 86.6005,42.3951 85.5,43.5C 84.5,44.1667 83.5,44.8333 82.5,45.5C 81.5,45.8333 80.8333,46.5 80.5,47.5C 78.1416,49.6782 75.4749,51.3449 72.5,52.5C 72.5,52.1667 72.5,51.8333 72.5,51.5C 74.3223,50.719 74.9889,49.5523 74.5,48C 76.9849,48.6228 78.9849,47.6228 80.5,45C 79.5419,43.8525 79.8753,42.8525 81.5,42C 83.366,43.0084 84.6993,42.5084 85.5,40.5C 86.1667,40.5 86.5,40.1667 86.5,39.5 Z"/></g>
<g><path style="opacity:0.008" fill="#ed0019" d="M 91.5,43.5 C 91.8333,43.5 92.1667,43.5 92.5,43.5C 92.6716,44.4916 92.3382,45.1583 91.5,45.5C 91.5,44.8333 91.5,44.1667 91.5,43.5 Z"/></g>
<g><path style="opacity:1" fill="#ff6b85" d="M 35.5,40.5 C 35.2627,41.791 35.596,42.791 36.5,43.5C 37.1667,43.5 37.8333,43.5 38.5,43.5C 38.3893,44.1174 38.056,44.6174 37.5,45C 42.0115,44.8729 46.3448,45.0395 50.5,45.5C 44.1829,46.3785 37.8496,47.2119 31.5,48C 30.944,48.3826 30.6107,48.8826 30.5,49.5C 29.5,49.8333 28.8333,50.5 28.5,51.5C 27.609,52.1098 26.609,52.4431 25.5,52.5C 25.5,52.1667 25.5,51.8333 25.5,51.5C 27.855,47.4516 31.1883,43.785 35.5,40.5 Z"/></g>
<g><path style="opacity:0.012" fill="#fe5554" d="M 90.5,45.5 C 90.8333,45.5 91.1667,45.5 91.5,45.5C 91.3147,46.1701 90.9813,46.1701 90.5,45.5 Z"/></g>
<g><path style="opacity:1" fill="#fe5568" d="M 50.5,45.5 C 51.5,45.5 52.5,45.5 53.5,45.5C 55.5,46.1667 57.5,46.8333 59.5,47.5C 53.2896,47.5793 46.9563,48.246 40.5,49.5C 37.1667,49.5 33.8333,49.5 30.5,49.5C 30.6107,48.8826 30.944,48.3826 31.5,48C 37.8496,47.2119 44.1829,46.3785 50.5,45.5 Z"/></g>
<g><path style="opacity:1" fill="#fa4e63" d="M 67.5,47.5 C 68.8333,47.1667 68.8333,46.8333 67.5,46.5C 66.8333,46.5 66.5,46.1667 66.5,45.5C 66.5,45.1667 66.5,44.8333 66.5,44.5C 68.5441,45.0312 70.2107,46.1978 71.5,48C 71.1667,48.3333 70.8333,48.6667 70.5,49C 71.3805,49.7083 72.0472,50.5416 72.5,51.5C 68.5391,49.2185 64.2057,47.8852 59.5,47.5C 57.5,46.8333 55.5,46.1667 53.5,45.5C 58.5062,43.9692 63.1729,44.6359 67.5,47.5 Z"/></g>
<g><path style="opacity:0.008" fill="#fe0000" d="M 89.5,47.5 C 90.8333,48.1667 90.8333,48.1667 89.5,47.5 Z"/></g>
<g><path style="opacity:0.016" fill="#fe3f3e" d="M 88.5,48.5 C 88.8333,48.5 89.1667,48.5 89.5,48.5C 89.3147,49.1701 88.9813,49.1701 88.5,48.5 Z"/></g>
<g><path style="opacity:0.986" fill="#f34d2b" d="M 18.5,45.5 C 18.8333,45.5 19.1667,45.5 19.5,45.5C 19.5,46.1667 19.8333,46.5 20.5,46.5C 20.5,47.1667 20.8333,47.5 21.5,47.5C 22.2186,49.7638 22.552,52.0971 22.5,54.5C 21.5,54.5 20.5,54.5 19.5,54.5C 18.1667,54.8333 18.1667,55.1667 19.5,55.5C 20.1667,55.8333 20.8333,56.1667 21.5,56.5C 21.5,56.8333 21.5,57.1667 21.5,57.5C 20.8333,57.5 20.5,57.8333 20.5,58.5C 16.7893,55.9683 13.456,52.9683 10.5,49.5C 11.2389,49.631 11.9056,49.4643 12.5,49C 11.4238,47.2739 11.2571,45.4406 12,43.5C 14.0871,44.3972 16.2537,45.0639 18.5,45.5 Z"/></g>
<g><path style="opacity:0.012" fill="#fe5554" d="M 87.5,49.5 C 87.8333,49.5 88.1667,49.5 88.5,49.5C 88.3147,50.1701 87.9813,50.1701 87.5,49.5 Z"/></g>
<g><path style="opacity:1" fill="#ff6460" d="M 30.5,49.5 C 33.8333,49.5 37.1667,49.5 40.5,49.5C 41.8333,50.1667 43.1667,50.8333 44.5,51.5C 43.791,52.404 42.791,52.7373 41.5,52.5C 40.1667,52.8333 38.8333,53.1667 37.5,53.5C 34.3112,53.1417 31.3112,52.475 28.5,51.5C 28.8333,50.5 29.5,49.8333 30.5,49.5 Z"/></g>
<g><path style="opacity:1" fill="#fb5053" d="M 59.5,47.5 C 64.2057,47.8852 68.5391,49.2185 72.5,51.5C 72.5,51.8333 72.5,52.1667 72.5,52.5C 72.5,52.8333 72.5,53.1667 72.5,53.5C 72.631,54.2389 72.4643,54.9056 72,55.5C 69.2344,54.2682 66.401,53.2682 63.5,52.5C 57.1453,51.161 50.8119,50.8277 44.5,51.5C 43.1667,50.8333 41.8333,50.1667 40.5,49.5C 46.9563,48.246 53.2896,47.5793 59.5,47.5 Z"/></g>
<g><path style="opacity:0.867" fill="#f44531" d="M 85.5,43.5 C 85.81,44.7383 86.31,44.7383 87,43.5C 87.4101,44.9007 87.9101,46.234 88.5,47.5C 88.5,47.8333 88.5,48.1667 88.5,48.5C 87.8333,48.5 87.5,48.8333 87.5,49.5C 86.8333,49.5 86.5,49.8333 86.5,50.5C 85.8333,50.5 85.5,50.8333 85.5,51.5C 84.8333,51.5 84.5,51.8333 84.5,52.5C 83.1667,52.8333 83.1667,53.1667 84.5,53.5C 84.0269,54.9063 83.0269,55.573 81.5,55.5C 81.5,55.1667 81.5,54.8333 81.5,54.5C 82.1667,54.5 82.5,54.1667 82.5,53.5C 82.5,50.8333 82.5,48.1667 82.5,45.5C 83.5,44.8333 84.5,44.1667 85.5,43.5 Z"/></g>
<g><path style="opacity:0.008" fill="#fe7f7e" d="M 86.5,50.5 C 86.8333,50.5 87.1667,50.5 87.5,50.5C 87.3147,51.1701 86.9813,51.1701 86.5,50.5 Z"/></g>
<g><path style="opacity:1" fill="#fc5b4f" d="M 63.5,52.5 C 60.1667,53.1667 56.8333,53.8333 53.5,54.5C 51.2075,54.2436 49.0408,54.5769 47,55.5C 45.1239,54.3913 43.2905,53.3913 41.5,52.5C 42.791,52.7373 43.791,52.404 44.5,51.5C 50.8119,50.8277 57.1453,51.161 63.5,52.5 Z"/></g>
<g><path style="opacity:0.988" fill="#f9582b" d="M 82.5,45.5 C 82.5,48.1667 82.5,50.8333 82.5,53.5C 81.8333,53.5 81.5,53.8333 81.5,54.5C 80.1667,54.8333 80.1667,55.1667 81.5,55.5C 80.3995,56.6049 79.7329,57.9382 79.5,59.5C 79.1667,59.5 78.8333,59.5 78.5,59.5C 78.6716,58.5084 78.3382,57.8417 77.5,57.5C 77.5,57.1667 77.5,56.8333 77.5,56.5C 77.8333,56.5 78.1667,56.5 78.5,56.5C 79.8333,56.1667 79.8333,55.8333 78.5,55.5C 77.7611,55.631 77.0944,55.4643 76.5,55C 77.7141,52.3259 79.0474,49.8259 80.5,47.5C 80.8333,46.5 81.5,45.8333 82.5,45.5 Z"/></g>
<g><path style="opacity:0.016" fill="#be0000" d="M 85.5,51.5 C 85.8333,51.5 86.1667,51.5 86.5,51.5C 86.3147,52.1701 85.9813,52.1701 85.5,51.5 Z"/></g>
<g><path style="opacity:0.012" fill="#fe5500" d="M 84.5,52.5 C 84.8333,52.5 85.1667,52.5 85.5,52.5C 85.3147,53.1701 84.9813,53.1701 84.5,52.5 Z"/></g>
<g><path style="opacity:1" fill="#fe715a" d="M 28.5,51.5 C 31.3112,52.475 34.3112,53.1417 37.5,53.5C 37.5,53.8333 37.5,54.1667 37.5,54.5C 34.3773,56.1152 31.044,57.1152 27.5,57.5C 24.3753,56.8998 24.042,55.7331 26.5,54C 25.944,53.6174 25.6107,53.1174 25.5,52.5C 26.609,52.4431 27.609,52.1098 28.5,51.5 Z"/></g>
<g><path style="opacity:0.992" fill="#f47653" d="M 19.5,45.5 C 19.8966,44.475 20.5632,44.3083 21.5,45C 21.9001,47.3428 23.2334,49.5095 25.5,51.5C 25.5,51.8333 25.5,52.1667 25.5,52.5C 25.6107,53.1174 25.944,53.6174 26.5,54C 24.042,55.7331 24.3753,56.8998 27.5,57.5C 26.8333,58.1667 26.1667,58.8333 25.5,59.5C 23.7085,59.366 22.0418,59.6993 20.5,60.5C 20.5,59.8333 20.5,59.1667 20.5,58.5C 21.1667,58.5 21.5,58.1667 21.5,57.5C 22.8333,57.1667 22.8333,56.8333 21.5,56.5C 20.8333,56.1667 20.1667,55.8333 19.5,55.5C 19.5,55.1667 19.5,54.8333 19.5,54.5C 20.5,54.5 21.5,54.5 22.5,54.5C 22.552,52.0971 22.2186,49.7638 21.5,47.5C 20.8333,47.5 20.5,47.1667 20.5,46.5C 19.8333,46.5 19.5,46.1667 19.5,45.5 Z"/></g>
<g><path style="opacity:1" fill="#f86145" d="M 41.5,52.5 C 43.2905,53.3913 45.1239,54.3913 47,55.5C 49.0408,54.5769 51.2075,54.2436 53.5,54.5C 58.4176,55.2814 63.4176,55.7814 68.5,56C 70.3146,56.7568 71.9812,57.5902 73.5,58.5C 70.9591,57.8968 68.6257,57.8968 66.5,58.5C 62.5,58.5 58.5,58.5 54.5,58.5C 50.3522,57.3563 46.3522,57.3563 42.5,58.5C 40.8333,57.1667 39.1667,55.8333 37.5,54.5C 37.5,54.1667 37.5,53.8333 37.5,53.5C 38.8333,53.1667 40.1667,52.8333 41.5,52.5 Z"/></g>
<g><path style="opacity:1" fill="#f55544" d="M 63.5,52.5 C 66.401,53.2682 69.2344,54.2682 72,55.5C 72.4643,54.9056 72.631,54.2389 72.5,53.5C 75.6967,55.0037 76.03,56.6703 73.5,58.5C 71.9812,57.5902 70.3146,56.7568 68.5,56C 63.4176,55.7814 58.4176,55.2814 53.5,54.5C 56.8333,53.8333 60.1667,53.1667 63.5,52.5 Z"/></g>
<g><path style="opacity:1" fill="#fd7147" d="M 37.5,54.5 C 39.1667,55.8333 40.8333,57.1667 42.5,58.5C 43.1667,58.5 43.5,58.8333 43.5,59.5C 37.3946,59.5264 31.3946,59.5264 25.5,59.5C 26.1667,58.8333 26.8333,58.1667 27.5,57.5C 31.044,57.1152 34.3773,56.1152 37.5,54.5 Z"/></g>
<g><path style="opacity:1" fill="#f7673d" d="M 42.5,58.5 C 46.3522,57.3563 50.3522,57.3563 54.5,58.5C 55.8333,59.1667 57.1667,59.8333 58.5,60.5C 54.981,60.3487 51.3143,60.6821 47.5,61.5C 46.4863,60.3263 45.153,59.6596 43.5,59.5C 43.5,58.8333 43.1667,58.5 42.5,58.5 Z"/></g>
<g><path style="opacity:1" fill="#f16542" d="M 80.5,47.5 C 79.0474,49.8259 77.7141,52.3259 76.5,55C 77.0944,55.4643 77.7611,55.631 78.5,55.5C 78.5,55.8333 78.5,56.1667 78.5,56.5C 78.1667,56.5 77.8333,56.5 77.5,56.5C 76.1667,56.8333 76.1667,57.1667 77.5,57.5C 77.3284,58.4916 77.6618,59.1583 78.5,59.5C 78.5,61.5 78.5,63.5 78.5,65.5C 78.5,65.8333 78.5,66.1667 78.5,66.5C 78.1667,66.5 77.8333,66.5 77.5,66.5C 77.7845,64.5853 77.4511,62.9187 76.5,61.5C 73.0636,60.808 69.7302,59.808 66.5,58.5C 68.6257,57.8968 70.9591,57.8968 73.5,58.5C 76.03,56.6703 75.6967,55.0037 72.5,53.5C 72.5,53.1667 72.5,52.8333 72.5,52.5C 75.4749,51.3449 78.1416,49.6782 80.5,47.5 Z"/></g>
<g><path style="opacity:1" fill="#f05f36" d="M 54.5,58.5 C 58.5,58.5 62.5,58.5 66.5,58.5C 69.7302,59.808 73.0636,60.808 76.5,61.5C 75.3947,63.2231 73.7281,64.2231 71.5,64.5C 67.4664,62.8664 63.1331,61.5331 58.5,60.5C 57.1667,59.8333 55.8333,59.1667 54.5,58.5 Z"/></g>
<g><path style="opacity:1" fill="#fa723b" d="M 25.5,59.5 C 31.3946,59.5264 37.3946,59.5264 43.5,59.5C 45.153,59.6596 46.4863,60.3263 47.5,61.5C 47.5,62.1667 47.5,62.8333 47.5,63.5C 38.5125,62.8929 29.5125,62.5596 20.5,62.5C 20.5,61.8333 20.5,61.1667 20.5,60.5C 22.0418,59.6993 23.7085,59.366 25.5,59.5 Z"/></g>
<g><path style="opacity:1" fill="#f16530" d="M 58.5,60.5 C 63.1331,61.5331 67.4664,62.8664 71.5,64.5C 71.1667,64.5 70.8333,64.5 70.5,64.5C 62.4754,64.3903 54.4754,64.7237 46.5,65.5C 46.8333,64.8333 47.1667,64.1667 47.5,63.5C 47.5,62.8333 47.5,62.1667 47.5,61.5C 51.3143,60.6821 54.981,60.3487 58.5,60.5 Z"/></g>
<g><path style="opacity:1" fill="#f66f30" d="M 20.5,62.5 C 29.5125,62.5596 38.5125,62.8929 47.5,63.5C 47.1667,64.1667 46.8333,64.8333 46.5,65.5C 44.5,65.5 42.5,65.5 40.5,65.5C 34.0993,65.3948 27.766,64.7282 21.5,63.5C 21.5,64.5 21.5,65.5 21.5,66.5C 21.1667,66.5 20.8333,66.5 20.5,66.5C 20.5,65.1667 20.5,63.8333 20.5,62.5 Z"/></g>
<g><path style="opacity:1" fill="#ee6728" d="M 70.5,64.5 C 70.3893,65.1174 70.056,65.6174 69.5,66C 71.3146,66.7568 72.9812,67.5902 74.5,68.5C 57.8333,68.5 41.1667,68.5 24.5,68.5C 30.077,68.1437 35.4104,67.1437 40.5,65.5C 42.5,65.5 44.5,65.5 46.5,65.5C 54.4754,64.7237 62.4754,64.3903 70.5,64.5 Z"/></g>
<g><path style="opacity:0.008" fill="#fc6242" d="M 19.5,66.5 C 14.1563,66.666 8.82294,66.4994 3.5,66C 8.48892,65.5007 13.4889,65.3341 18.5,65.5C 18.3379,63.4727 18.5045,61.4727 19,59.5C 19.4966,61.8098 19.6633,64.1432 19.5,66.5 Z"/></g>
<g><path style="opacity:0.999" fill="#f3542b" d="M 79.5,59.5 C 80.4614,61.2646 80.7947,63.2646 80.5,65.5C 85.8437,65.334 91.1771,65.5006 96.5,66C 90.8333,66.3333 85.1667,66.6667 79.5,67C 81.8098,67.4966 84.1432,67.6633 86.5,67.5C 86.1667,68.1667 85.8333,68.8333 85.5,69.5C 84.1266,69.3433 82.7932,69.51 81.5,70C 81.8333,70.3333 82.1667,70.6667 82.5,71C 81.4092,72.5501 80.0758,73.7168 78.5,74.5C 73.5,75.0031 73.8333,75.3364 79.5,75.5C 80.8333,75.5 82.1667,75.5 83.5,75.5C 83.5,75.8333 83.5,76.1667 83.5,76.5C 79.1186,76.6282 74.7853,76.2949 70.5,75.5C 70.5,75.1667 70.5,74.8333 70.5,74.5C 71.791,74.7373 72.791,74.404 73.5,73.5C 72.5946,72.2976 72.5946,70.9643 73.5,69.5C 74.1667,69.5 74.5,69.1667 74.5,68.5C 72.9812,67.5902 71.3146,66.7568 69.5,66C 70.056,65.6174 70.3893,65.1174 70.5,64.5C 70.8333,64.5 71.1667,64.5 71.5,64.5C 73.7281,64.2231 75.3947,63.2231 76.5,61.5C 77.4511,62.9187 77.7845,64.5853 77.5,66.5C 77.8333,67.8333 78.1667,67.8333 78.5,66.5C 78.5,66.1667 78.5,65.8333 78.5,65.5C 79.4614,63.7354 79.7947,61.7354 79.5,59.5 Z"/></g>
<g><path style="opacity:1" fill="#f36925" d="M 40.5,65.5 C 35.4104,67.1437 30.077,68.1437 24.5,68.5C 24.5,68.8333 24.5,69.1667 24.5,69.5C 23.8333,69.1667 23.1667,68.8333 22.5,68.5C 22.5,67.8333 22.1667,67.5 21.5,67.5C 21.5,67.1667 21.5,66.8333 21.5,66.5C 21.5,65.5 21.5,64.5 21.5,63.5C 27.766,64.7282 34.0993,65.3948 40.5,65.5 Z"/></g>
<g><path style="opacity:0.012" fill="#923830" d="M 1.5,67.5 C 2.57346,68.2506 2.74012,69.2506 2,70.5C 1.51722,69.552 1.35055,68.552 1.5,67.5 Z"/></g>
<g><path style="opacity:1" fill="#ed7235" d="M 24.5,68.5 C 41.1667,68.5 57.8333,68.5 74.5,68.5C 74.5,69.1667 74.1667,69.5 73.5,69.5C 57.3246,69.1703 41.3246,69.5036 25.5,70.5C 24.8333,70.5 24.5,70.1667 24.5,69.5C 24.5,69.1667 24.5,68.8333 24.5,68.5 Z"/></g>
<g><path style="opacity:0.008" fill="#fe0000" d="M 97.5,68.5 C 98.8333,69.1667 98.8333,69.1667 97.5,68.5 Z"/></g>
<g><path style="opacity:1" fill="#ed793f" d="M 73.5,69.5 C 72.5946,70.9643 72.5946,72.2976 73.5,73.5C 72.8333,73.5 72.1667,73.5 71.5,73.5C 71.5,72.8333 71.1667,72.5 70.5,72.5C 63.8667,71.1696 56.8667,70.5029 49.5,70.5C 41.9315,70.5352 34.5982,71.2019 27.5,72.5C 26.5,72.1667 25.8333,71.5 25.5,70.5C 41.3246,69.5036 57.3246,69.1703 73.5,69.5 Z"/></g>
<g><path style="opacity:0.939" fill="#f5384b" d="M 86.5,67.5 C 89.8333,67.5 93.1667,67.5 96.5,67.5C 96.5,68.5 96.5,69.5 96.5,70.5C 95.1667,70.8333 95.1667,71.1667 96.5,71.5C 95.3406,73.2503 93.674,74.2503 91.5,74.5C 91.1583,73.6618 90.4916,73.3284 89.5,73.5C 89.6107,72.8826 89.944,72.3826 90.5,72C 88.9221,70.9055 87.2554,70.0722 85.5,69.5C 85.8333,68.8333 86.1667,68.1667 86.5,67.5 Z"/></g>
<g><path style="opacity:1" fill="#fe675b" d="M 19.5,66.5 C 19.8333,66.5 20.1667,66.5 20.5,66.5C 20.5,67.1667 20.8333,67.5 21.5,67.5C 22.1667,67.5 22.5,67.8333 22.5,68.5C 20.3453,68.372 18.3453,68.872 16.5,70C 17.999,70.8382 18.3324,71.6715 17.5,72.5C 16.3734,71.8783 15.3734,71.045 14.5,70C 10.8484,69.5014 7.18174,69.3347 3.5,69.5C 8.58963,67.8563 13.923,66.8563 19.5,66.5 Z"/></g>
<g><path style="opacity:0.992" fill="#f7592a" d="M 22.5,68.5 C 23.1667,68.8333 23.8333,69.1667 24.5,69.5C 24.5,70.1667 24.8333,70.5 25.5,70.5C 25.8333,71.5 26.5,72.1667 27.5,72.5C 27.5,72.8333 27.5,73.1667 27.5,73.5C 27.1667,73.5 26.8333,73.5 26.5,73.5C 23.2869,73.81 20.2869,73.4767 17.5,72.5C 18.3324,71.6715 17.999,70.8382 16.5,70C 18.3453,68.872 20.3453,68.372 22.5,68.5 Z"/></g>
<g><path style="opacity:1" fill="#ee834a" d="M 70.5,72.5 C 58.3721,71.1983 46.3721,71.1983 34.5,72.5C 33.1266,72.3433 31.7932,72.51 30.5,73C 31.7119,74.1068 31.3786,74.6068 29.5,74.5C 28.1667,74.8333 28.1667,75.1667 29.5,75.5C 28.8333,76.8333 28.1667,76.8333 27.5,75.5C 27.5,75.1667 27.5,74.8333 27.5,74.5C 27.5,74.1667 27.5,73.8333 27.5,73.5C 27.5,73.1667 27.5,72.8333 27.5,72.5C 34.5982,71.2019 41.9315,70.5352 49.5,70.5C 56.8667,70.5029 63.8667,71.1696 70.5,72.5 Z"/></g>
<g><path style="opacity:0.004" fill="#fe0000" d="M 96.5,70.5 C 97.8333,71.1667 97.8333,71.1667 96.5,70.5 Z"/></g>
<g><path style="opacity:1" fill="#ee8a55" d="M 34.5,72.5 C 46.3721,71.1983 58.3721,71.1983 70.5,72.5C 71.1667,72.5 71.5,72.8333 71.5,73.5C 71.1667,73.5 70.8333,73.5 70.5,73.5C 68.5,73.5 66.5,73.5 64.5,73.5C 55.0144,72.5062 45.3478,72.1729 35.5,72.5C 35.1667,72.5 34.8333,72.5 34.5,72.5 Z"/></g>
<g><path style="opacity:1" fill="#f59175" d="M 34.5,72.5 C 34.8333,72.5 35.1667,72.5 35.5,72.5C 33.5069,73.4716 33.1736,74.8049 34.5,76.5C 31.8333,78.5 29.5,80.8333 27.5,83.5C 24.4362,86.5703 21.1029,89.2369 17.5,91.5C 21.9634,86.5354 26.6301,81.7021 31.5,77C 30.9558,76.2828 30.2891,75.7828 29.5,75.5C 29.5,75.1667 29.5,74.8333 29.5,74.5C 31.3786,74.6068 31.7119,74.1068 30.5,73C 31.7932,72.51 33.1266,72.3433 34.5,72.5 Z"/></g>
<g><path style="opacity:0.855" fill="#ea4234" d="M 85.5,69.5 C 87.2554,70.0722 88.9221,70.9055 90.5,72C 89.944,72.3826 89.6107,72.8826 89.5,73.5C 89.8417,74.3382 90.5084,74.6716 91.5,74.5C 89.22,76.2227 86.5533,76.8893 83.5,76.5C 83.5,76.1667 83.5,75.8333 83.5,75.5C 82.1667,75.5 80.8333,75.5 79.5,75.5C 79.5,74.8333 79.1667,74.5 78.5,74.5C 80.0758,73.7168 81.4092,72.5501 82.5,71C 82.1667,70.6667 81.8333,70.3333 81.5,70C 82.7932,69.51 84.1266,69.3433 85.5,69.5 Z"/></g>
<g><path style="opacity:0.761" fill="#f1412f" d="M 3.5,69.5 C 7.18174,69.3347 10.8484,69.5014 14.5,70C 15.3734,71.045 16.3734,71.8783 17.5,72.5C 20.2869,73.4767 23.2869,73.81 26.5,73.5C 26.5,74.1667 26.8333,74.5 27.5,74.5C 27.5,74.8333 27.5,75.1667 27.5,75.5C 20.3631,77.1464 13.3631,76.6464 6.5,74C 5.16667,73.3333 5.16667,72.6667 6.5,72C 5.42925,71.1482 4.42925,70.3149 3.5,69.5 Z"/></g>
<g><path style="opacity:1" fill="#ef9666" d="M 35.5,72.5 C 45.3478,72.1729 55.0144,72.5062 64.5,73.5C 64.1583,74.3382 63.4916,74.6716 62.5,74.5C 53.4178,74.0863 44.4178,74.5863 35.5,76C 36.056,76.3826 36.3893,76.8826 36.5,77.5C 35.5084,77.6716 34.8417,77.3382 34.5,76.5C 33.1736,74.8049 33.5069,73.4716 35.5,72.5 Z"/></g>
<g><path style="opacity:1" fill="#eda274" d="M 62.5,74.5 C 62.0919,75.6431 61.4252,76.6431 60.5,77.5C 58.5914,76.6518 56.5914,76.3184 54.5,76.5C 50.1539,76.3343 45.8206,76.501 41.5,77C 40.7476,77.6708 40.4142,78.5041 40.5,79.5C 39.9326,80.4202 40.5992,80.7535 42.5,80.5C 42.8333,80.5 43.1667,80.5 43.5,80.5C 47.5,81.8333 51.5,81.8333 55.5,80.5C 55.8333,80.5 56.1667,80.5 56.5,80.5C 60.449,80.6932 60.449,81.1932 56.5,82C 50.4717,82.6406 44.4717,82.4739 38.5,81.5C 38.5,80.8333 38.5,80.1667 38.5,79.5C 38.1667,78.5 37.5,77.8333 36.5,77.5C 36.3893,76.8826 36.056,76.3826 35.5,76C 44.4178,74.5863 53.4178,74.0863 62.5,74.5 Z"/></g>
<g><path style="opacity:0.996" fill="#e89066" d="M 64.5,73.5 C 66.5,73.5 68.5,73.5 70.5,73.5C 70.5,73.8333 70.5,74.1667 70.5,74.5C 69.1667,74.8333 69.1667,75.1667 70.5,75.5C 71.625,76.6522 71.625,77.6522 70.5,78.5C 70.5,77.8333 70.1667,77.5 69.5,77.5C 69.5,76.8333 69.1667,76.5 68.5,76.5C 68.1667,75.1667 67.8333,75.1667 67.5,76.5C 65.302,76.1201 63.6354,76.7868 62.5,78.5C 61.6618,78.8417 61.3284,79.5084 61.5,80.5C 60.8333,80.5 60.5,80.1667 60.5,79.5C 58.6287,78.2028 56.6287,77.2028 54.5,76.5C 56.5914,76.3184 58.5914,76.6518 60.5,77.5C 61.4252,76.6431 62.0919,75.6431 62.5,74.5C 63.4916,74.6716 64.1583,74.3382 64.5,73.5 Z"/></g>
<g><path style="opacity:0.986" fill="#e9a883" d="M 54.5,76.5 C 56.6287,77.2028 58.6287,78.2028 60.5,79.5C 58.901,79.2322 57.5676,79.5655 56.5,80.5C 56.1667,80.5 55.8333,80.5 55.5,80.5C 51.5,80.5 47.5,80.5 43.5,80.5C 43.1667,80.5 42.8333,80.5 42.5,80.5C 42.1583,79.6618 41.4916,79.3284 40.5,79.5C 40.4142,78.5041 40.7476,77.6708 41.5,77C 45.8206,76.501 50.1539,76.3343 54.5,76.5 Z"/></g>
<g><path style="opacity:1" fill="#f46331" d="M 67.5,76.5 C 67.8333,76.5 68.1667,76.5 68.5,76.5C 69.1667,76.5 69.5,76.8333 69.5,77.5C 69.5,77.8333 69.5,78.1667 69.5,78.5C 69.5569,79.609 69.8902,80.609 70.5,81.5C 69.7002,83.7409 68.0336,84.7409 65.5,84.5C 65.5,83.8333 65.1667,83.5 64.5,83.5C 64.5,82.8333 64.1667,82.5 63.5,82.5C 63.6716,81.5084 63.3382,80.8417 62.5,80.5C 62.5,79.8333 62.5,79.1667 62.5,78.5C 63.6354,76.7868 65.302,76.1201 67.5,76.5 Z"/></g>
<g><path style="opacity:0.012" fill="#fe5500" d="M 37.5,81.5 C 37.8333,81.5 38.1667,81.5 38.5,81.5C 38.3147,82.1701 37.9813,82.1701 37.5,81.5 Z"/></g>
<g><path style="opacity:0.008" fill="#d753fc" d="M 61.5,80.5 C 61.8333,80.5 62.1667,80.5 62.5,80.5C 62.5,81.1667 62.5,81.8333 62.5,82.5C 61.6618,82.1583 61.3284,81.4916 61.5,80.5 Z"/></g>
<g><path style="opacity:0.988" fill="#f55c2e" d="M 34.5,76.5 C 34.8417,77.3382 35.5084,77.6716 36.5,77.5C 37.5,77.8333 38.1667,78.5 38.5,79.5C 37.6618,79.8417 37.3284,80.5084 37.5,81.5C 36.8333,81.5 36.5,81.8333 36.5,82.5C 35.6618,82.8417 35.3284,83.5084 35.5,84.5C 34.8333,84.5 34.5,84.8333 34.5,85.5C 33.8333,85.5 33.5,85.8333 33.5,86.5C 32.8333,86.5 32.5,86.8333 32.5,87.5C 32.1667,87.5 31.8333,87.5 31.5,87.5C 29.2901,87.106 27.9568,85.7727 27.5,83.5C 29.5,80.8333 31.8333,78.5 34.5,76.5 Z"/></g>
<g><path style="opacity:0.004" fill="#512c10" d="M 36.5,82.5 C 36.8333,82.5 37.1667,82.5 37.5,82.5C 37.6716,83.4916 37.3382,84.1583 36.5,84.5C 36.5,83.8333 36.5,83.1667 36.5,82.5 Z"/></g>
<g><path style="opacity:0.012" fill="#fe5500" d="M 35.5,84.5 C 35.8333,84.5 36.1667,84.5 36.5,84.5C 36.3147,85.1701 35.9813,85.1701 35.5,84.5 Z"/></g>
<g><path style="opacity:0.012" fill="#a95500" d="M 34.5,85.5 C 34.8333,85.5 35.1667,85.5 35.5,85.5C 35.3147,86.1701 34.9813,86.1701 34.5,85.5 Z"/></g>
<g><path style="opacity:0.008" fill="#fe7f00" d="M 33.5,86.5 C 33.8333,86.5 34.1667,86.5 34.5,86.5C 34.3147,87.1701 33.9813,87.1701 33.5,86.5 Z"/></g>
<g><path style="opacity:0.012" fill="#fe5500" d="M 32.5,87.5 C 32.8333,87.5 33.1667,87.5 33.5,87.5C 33.3147,88.1701 32.9813,88.1701 32.5,87.5 Z"/></g>
<g><path style="opacity:0.998" fill="#ef4e2c" d="M 70.5,81.5 C 73.8734,83.5776 74.2068,86.2443 71.5,89.5C 70.5768,90.3029 69.5768,90.4696 68.5,90C 67.1667,89.3333 67.1667,88.6667 68.5,88C 67.5305,86.2417 66.3639,85.7417 65,86.5C 63.5187,85.5291 62.6854,84.1958 62.5,82.5C 62.8333,82.5 63.1667,82.5 63.5,82.5C 64.1667,82.5 64.5,82.8333 64.5,83.5C 65.1667,83.5 65.5,83.8333 65.5,84.5C 68.0336,84.7409 69.7002,83.7409 70.5,81.5 Z"/></g>
<g><path style="opacity:0.012" fill="#fe5554" d="M 31.5,88.5 C 31.8333,88.5 32.1667,88.5 32.5,88.5C 32.3147,89.1701 31.9813,89.1701 31.5,88.5 Z"/></g>
<g><path style="opacity:0.984" fill="#f64545" d="M 69.5,78.5 C 69.8333,78.5 70.1667,78.5 70.5,78.5C 74.1667,82.8333 78.1667,86.8333 82.5,90.5C 82.5,91.5 82.5,92.5 82.5,93.5C 80.8333,93.5 79.1667,93.5 77.5,93.5C 76.5,92.1667 75.5,92.1667 74.5,93.5C 73.2438,93.5386 72.2438,93.0386 71.5,92C 72.5981,91.2303 72.5981,90.397 71.5,89.5C 74.2068,86.2443 73.8734,83.5776 70.5,81.5C 69.8902,80.609 69.5569,79.609 69.5,78.5 Z"/></g>
<g><path style="opacity:0.988" fill="#f1403e" d="M 27.5,83.5 C 27.9568,85.7727 29.2901,87.106 31.5,87.5C 31.5,87.8333 31.5,88.1667 31.5,88.5C 30.1667,88.8333 30.1667,89.1667 31.5,89.5C 29.244,92.4053 26.244,94.072 22.5,94.5C 20.3926,93.5318 18.0593,93.1984 15.5,93.5C 15.4125,90.4017 15.9125,90.0684 17,92.5C 17.3988,92.2716 17.5654,91.9382 17.5,91.5C 21.1029,89.2369 24.4362,86.5703 27.5,83.5 Z"/></g>
<g><path style="opacity:0.008" fill="#fe007e" d="M 83.5,90.5 C 82.8333,89.1667 82.8333,89.1667 83.5,90.5 Z"/></g>
<g><path style="opacity:0.012" fill="#c8162a" d="M 83.5,90.5 C 84.2674,91.172 84.9341,92.0053 85.5,93C 83.9387,93.1881 83.272,92.3547 83.5,90.5 Z"/></g>
<g><path style="opacity:0.012" fill="#d53224" d="M 74.5,93.5 C 75.5,93.5 76.5,93.5 77.5,93.5C 77.5,93.8333 77.5,94.1667 77.5,94.5C 76.209,94.7373 75.209,94.404 74.5,93.5 Z"/></g>
<g><path style="opacity:0.016" fill="#f11c37" d="M 22.5,94.5 C 21.0536,95.6129 19.3869,95.7796 17.5,95C 19.1341,94.5065 20.8008,94.3398 22.5,94.5 Z"/></g>
<g><path style="opacity:0.008" fill="#eafe4d" d="M 77.5,94.5 C 79.1992,94.3398 80.8659,94.5065 82.5,95C 80.6131,95.7796 78.9464,95.6129 77.5,94.5 Z"/></g>
</svg>
