<?xml version="1.0" encoding="UTF-8"?>
<!DOCTYPE svg PUBLIC "-//W3C//DTD SVG 1.1//EN" "http://www.w3.org/Graphics/SVG/1.1/DTD/svg11.dtd">
<svg xmlns="http://www.w3.org/2000/svg" version="1.1" width="100px" height="100px" style="shape-rendering:geometricPrecision; text-rendering:geometricPrecision; image-rendering:optimizeQuality; fill-rule:evenodd; clip-rule:evenodd" xmlns:xlink="http://www.w3.org/1999/xlink">
<g><path style="opacity:0.012" fill="#6b9280" d="M 80.5,5.5 C 81.9464,4.38705 83.6131,4.22039 85.5,5C 83.8659,5.49351 82.1992,5.66018 80.5,5.5 Z"/></g>
<g><path style="opacity:0.004" fill="#000000" d="M 80.5,5.5 C 80.5,5.83333 80.5,6.16667 80.5,6.5C 79.8299,6.01865 79.8299,5.68532 80.5,5.5 Z"/></g>
<g><path style="opacity:0.004" fill="#000000" d="M 87.5,8.5 C 88.5735,9.25057 88.7401,10.2506 88,11.5C 87.5172,10.552 87.3505,9.55198 87.5,8.5 Z"/></g>
<g><path style="opacity:0.012" fill="#90f3c3" d="M 64.5,11.5 C 67.9728,9.23209 71.6394,9.06543 75.5,11C 71.8484,11.4986 68.1817,11.6653 64.5,11.5 Z"/></g>
<g><path style="opacity:1" fill="#45524d" d="M 80.5,6.5 C 82.4672,6.26057 84.3005,6.59391 86,7.5C 85.6327,10.6652 85.7994,13.6652 86.5,16.5C 86.7373,17.791 86.404,18.791 85.5,19.5C 85.5,18.8333 85.1667,18.5 84.5,18.5C 83.8333,18.5 83.1667,18.5 82.5,18.5C 81.1667,17.8333 80.1667,16.8333 79.5,15.5C 80.4767,12.7131 80.81,9.7131 80.5,6.5 Z"/></g>
<g><path style="opacity:0.006" fill="#171717" d="M 86.5,16.5 C 86.3433,15.1266 86.51,13.7932 87,12.5C 87.765,14.0657 87.5983,15.3991 86.5,16.5 Z"/></g>
<g><path style="opacity:1" fill="#64ce99" d="M 79.5,15.5 C 80.1667,16.8333 81.1667,17.8333 82.5,18.5C 82.0919,19.6431 81.4252,20.6431 80.5,21.5C 78.9291,20.6906 77.2624,20.3573 75.5,20.5C 75.4257,18.5891 74.4257,17.4224 72.5,17C 69.5184,16.502 66.5184,16.3354 63.5,16.5C 63.5,17.5 63.5,18.5 63.5,19.5C 61.1667,19.5 58.8333,19.5 56.5,19.5C 57.2153,15.4449 59.8819,12.7782 64.5,11.5C 68.3653,12.2243 72.3653,12.8909 76.5,13.5C 77.086,13.2907 77.586,12.9574 78,12.5C 77.9536,10.6874 78.1203,9.02072 78.5,7.5C 79.48,10.0865 79.8134,12.7531 79.5,15.5 Z"/></g>
<g><path style="opacity:0.016" fill="#9beca3" d="M 88.5,23.5 C 88.5,22.8333 88.1667,22.5 87.5,22.5C 87.7467,20.0248 88.4134,20.0248 89.5,22.5C 89.3764,23.1067 89.0431,23.44 88.5,23.5 Z"/></g>
<g><path style="opacity:1" fill="#287338" d="M 82.5,18.5 C 83.1667,18.5 83.8333,18.5 84.5,18.5C 85.1667,18.5 85.5,18.8333 85.5,19.5C 85.9321,20.7095 86.5987,21.7095 87.5,22.5C 88.1667,22.5 88.5,22.8333 88.5,23.5C 88.8994,27.0109 89.5661,30.3443 90.5,33.5C 90.7373,34.791 90.404,35.791 89.5,36.5C 89.1667,33.8333 88.8333,33.8333 88.5,36.5C 87.6618,36.8417 87.3284,37.5084 87.5,38.5C 86.6618,38.8417 86.3284,39.5084 86.5,40.5C 85.1667,40.8333 85.1667,41.1667 86.5,41.5C 85.8333,42.8333 84.8333,43.8333 83.5,44.5C 83.5,43.8333 83.5,43.1667 83.5,42.5C 84.8333,42.1667 84.8333,41.8333 83.5,41.5C 83.5,40.8333 83.1667,40.5 82.5,40.5C 82.2041,38.597 81.5375,36.9303 80.5,35.5C 80.7692,33.5714 80.2692,31.9047 79,30.5C 75.5946,33.122 71.7612,34.4553 67.5,34.5C 67.5,34.1667 67.5,33.8333 67.5,33.5C 73.101,31.0889 75.7676,26.7556 75.5,20.5C 77.2624,20.3573 78.9291,20.6906 80.5,21.5C 81.4252,20.6431 82.0919,19.6431 82.5,18.5 Z"/></g>
<g><path style="opacity:0.984" fill="#eaa1e6" d="M 57.5,21.5 C 57.8333,21.5 58.1667,21.5 58.5,21.5C 59.8333,22.5 59.8333,23.5 58.5,24.5C 54.8095,25.8557 52.1428,28.3557 50.5,32C 46.3597,33.9893 42.3597,36.1559 38.5,38.5C 44.7176,32.5818 51.0509,26.9151 57.5,21.5 Z"/></g>
<g><path style="opacity:0.008" fill="#1f5616" d="M 90.5,33.5 C 90.3367,31.1432 90.5034,28.8098 91,26.5C 91.7958,29.0385 91.6291,31.3718 90.5,33.5 Z"/></g>
<g><path style="opacity:1" fill="#249d36" d="M 75.5,20.5 C 75.7676,26.7556 73.101,31.0889 67.5,33.5C 67.1667,33.5 66.8333,33.5 66.5,33.5C 66.6458,29.4809 66.9791,25.4809 67.5,21.5C 65.1667,21.5 62.8333,21.5 60.5,21.5C 59.8333,21.5 59.1667,21.5 58.5,21.5C 58.1667,21.5 57.8333,21.5 57.5,21.5C 57.1667,21.5 56.8333,21.5 56.5,21.5C 56.5,20.8333 56.5,20.1667 56.5,19.5C 58.8333,19.5 61.1667,19.5 63.5,19.5C 63.5,18.5 63.5,17.5 63.5,16.5C 66.5184,16.3354 69.5184,16.502 72.5,17C 74.4257,17.4224 75.4257,18.5891 75.5,20.5 Z"/></g>
<g><path style="opacity:0.902" fill="#f0cff1" d="M 56.5,21.5 C 56.8333,21.5 57.1667,21.5 57.5,21.5C 51.0509,26.9151 44.7176,32.5818 38.5,38.5C 34.9046,40.1023 31.5712,42.1023 28.5,44.5C 25.7261,45.7226 23.0594,47.2226 20.5,49C 17.914,52.7269 15.2473,56.2269 12.5,59.5C 13.038,57.8828 13.3713,56.2161 13.5,54.5C 14.1667,54.5 14.5,54.1667 14.5,53.5C 16.6,50.8959 18.9334,48.3959 21.5,46C 20.1667,45.3333 20.1667,44.6667 21.5,44C 29.7286,38.9672 37.7286,34.3005 45.5,30C 44.7948,28.4435 45.4615,27.2768 47.5,26.5C 48.086,26.7093 48.586,27.0426 49,27.5C 50.7396,25.8156 51.9063,23.9823 52.5,22C 53.9594,22.3554 55.2928,22.1888 56.5,21.5 Z"/></g>
<g><path style="opacity:1" fill="#bd26b4" d="M 58.5,21.5 C 59.1667,21.5 59.8333,21.5 60.5,21.5C 60.8417,22.3382 61.5084,22.6716 62.5,22.5C 63.5009,23.7887 63.3342,25.1221 62,26.5C 55.4061,31.1819 49.5727,36.6819 44.5,43C 39.8068,47.6794 34.1401,50.1794 27.5,50.5C 30.9312,48.3983 34.5978,46.565 38.5,45C 45.3693,38.2982 52.036,31.4649 58.5,24.5C 59.8333,23.5 59.8333,22.5 58.5,21.5 Z"/></g>
<g><path style="opacity:1" fill="#491448" d="M 61.5,66.5 C 61.6107,67.1174 61.944,67.6174 62.5,68C 60.7794,69.9438 59.446,72.1105 58.5,74.5C 56.5227,76.8138 54.5227,79.1472 52.5,81.5C 52.6242,80.3895 52.2909,79.0562 51.5,77.5C 51.1667,76.8333 50.8333,76.1667 50.5,75.5C 51.8333,75.5 53.1667,75.5 54.5,75.5C 53.0138,72.1 53.1805,68.7667 55,65.5C 57.3333,63.1667 59.6667,60.8333 62,58.5C 61.7473,55.6426 63.0807,53.3093 66,51.5C 66.6812,46.8118 69.0145,43.1451 73,40.5C 73.7252,38.8425 73.2252,37.8425 71.5,37.5C 70.8333,37.5 70.5,37.1667 70.5,36.5C 72.7925,36.7564 74.9592,36.4231 77,35.5C 77.6667,36.8333 77.6667,38.1667 77,39.5C 72.0564,47.4426 66.723,55.1093 61,62.5C 59.8129,64.0444 59.4795,65.7111 60,67.5C 60.3826,66.944 60.8826,66.6107 61.5,66.5 Z"/></g>
<g><path style="opacity:0.008" fill="#1d7600" d="M 88.5,36.5 C 88.8333,36.5 89.1667,36.5 89.5,36.5C 89.6716,37.4916 89.3382,38.1583 88.5,38.5C 88.5,37.8333 88.5,37.1667 88.5,36.5 Z"/></g>
<g><path style="opacity:0.004" fill="#151515" d="M 87.5,38.5 C 87.8333,38.5 88.1667,38.5 88.5,38.5C 88.6716,39.4916 88.3382,40.1583 87.5,40.5C 87.5,39.8333 87.5,39.1667 87.5,38.5 Z"/></g>
<g><path style="opacity:1" fill="#ce4bcb" d="M 58.5,24.5 C 52.036,31.4649 45.3693,38.2982 38.5,45C 34.5978,46.565 30.9312,48.3983 27.5,50.5C 25.9382,50.7329 24.6049,51.3995 23.5,52.5C 25.14,49.8508 26.8067,47.1841 28.5,44.5C 31.5712,42.1023 34.9046,40.1023 38.5,38.5C 42.3597,36.1559 46.3597,33.9893 50.5,32C 52.1428,28.3557 54.8095,25.8557 58.5,24.5 Z"/></g>
<g><path style="opacity:0.004" fill="#000000" d="M 86.5,40.5 C 86.8333,40.5 87.1667,40.5 87.5,40.5C 87.3147,41.1701 86.9813,41.1701 86.5,40.5 Z"/></g>
<g><path style="opacity:1" fill="#a817a0" d="M 62.5,22.5 C 65.3091,22.9577 65.9758,24.2911 64.5,26.5C 61.6298,29.1902 58.4631,31.5235 55,33.5C 54.6667,34.8333 54.3333,36.1667 54,37.5C 49.1596,41.0071 44.9929,45.1737 41.5,50C 36.5435,51.3275 31.5435,51.9942 26.5,52C 27.056,51.6174 27.3893,51.1174 27.5,50.5C 34.1401,50.1794 39.8068,47.6794 44.5,43C 49.5727,36.6819 55.4061,31.1819 62,26.5C 63.3342,25.1221 63.5009,23.7887 62.5,22.5 Z"/></g>
<g><path style="opacity:1" fill="#991792" d="M 64.5,26.5 C 63.1667,28.8333 61.8333,31.1667 60.5,33.5C 55.7658,39.413 50.7658,45.2464 45.5,51C 44.1667,51.6667 42.8333,52.3333 41.5,53C 36.5,53.3333 31.5,53.6667 26.5,54C 23.7666,54.9042 21.4333,56.4042 19.5,58.5C 20.4151,56.2459 21.7484,54.2459 23.5,52.5C 24.6049,51.3995 25.9382,50.7329 27.5,50.5C 27.3893,51.1174 27.056,51.6174 26.5,52C 31.5435,51.9942 36.5435,51.3275 41.5,50C 44.9929,45.1737 49.1596,41.0071 54,37.5C 54.3333,36.1667 54.6667,34.8333 55,33.5C 58.4631,31.5235 61.6298,29.1902 64.5,26.5 Z"/></g>
<g><path style="opacity:1" fill="#43143f" d="M 80.5,35.5 C 76.4676,47.2292 70.1343,57.5625 61.5,66.5C 60.8826,66.6107 60.3826,66.944 60,67.5C 59.4795,65.7111 59.8129,64.0444 61,62.5C 66.723,55.1093 72.0564,47.4426 77,39.5C 77.6667,38.1667 77.6667,36.8333 77,35.5C 74.9592,36.4231 72.7925,36.7564 70.5,36.5C 70.1667,36.5 69.8333,36.5 69.5,36.5C 68.5,36.1667 67.8333,35.5 67.5,34.5C 71.7612,34.4553 75.5946,33.122 79,30.5C 80.2692,31.9047 80.7692,33.5714 80.5,35.5 Z"/></g>
<g><path style="opacity:0.006" fill="#271815" d="M 82.5,44.5 C 82.8333,44.5 83.1667,44.5 83.5,44.5C 83.573,46.0269 82.9063,47.0269 81.5,47.5C 81.5,46.8333 81.5,46.1667 81.5,45.5C 82.1667,45.5 82.5,45.1667 82.5,44.5 Z"/></g>
<g><path style="opacity:1" fill="#641464" d="M 66.5,33.5 C 66.8333,33.5 67.1667,33.5 67.5,33.5C 67.5,33.8333 67.5,34.1667 67.5,34.5C 67.8333,35.5 68.5,36.1667 69.5,36.5C 69.6567,37.8734 69.49,39.2068 69,40.5C 63.6875,46.9795 57.8542,52.9795 51.5,58.5C 45.5751,59.9197 39.5751,61.0863 33.5,62C 28.3714,66.5419 22.3714,68.3752 15.5,67.5C 13.8212,67.7148 12.8212,67.0481 12.5,65.5C 15.1873,65.6641 17.854,65.4974 20.5,65C 29.0913,59.7476 38.4247,57.2476 48.5,57.5C 53.1565,52.6749 57.6565,47.6749 62,42.5C 63.8793,40.4732 65.046,38.1398 65.5,35.5C 65.8333,34.8333 66.1667,34.1667 66.5,33.5 Z"/></g>
<g><path style="opacity:0.992" fill="#491c3e" d="M 80.5,35.5 C 81.5375,36.9303 82.2041,38.597 82.5,40.5C 74.5,52.5 66.5,64.5 58.5,76.5C 58.5,75.8333 58.5,75.1667 58.5,74.5C 59.446,72.1105 60.7794,69.9438 62.5,68C 61.944,67.6174 61.6107,67.1174 61.5,66.5C 70.1343,57.5625 76.4676,47.2292 80.5,35.5 Z"/></g>
<g><path style="opacity:0.016" fill="#7e3f3e" d="M 80.5,47.5 C 80.8333,47.5 81.1667,47.5 81.5,47.5C 81.3147,48.1701 80.9813,48.1701 80.5,47.5 Z"/></g>
<g><path style="opacity:0.006" fill="#000000" d="M 79.5,48.5 C 79.8333,48.5 80.1667,48.5 80.5,48.5C 80.6716,49.4916 80.3382,50.1583 79.5,50.5C 79.5,49.8333 79.5,49.1667 79.5,48.5 Z"/></g>
<g><path style="opacity:0.004" fill="#c0371f" d="M 78.5,50.5 C 78.8333,50.5 79.1667,50.5 79.5,50.5C 79.6716,51.4916 79.3382,52.1583 78.5,52.5C 78.5,51.8333 78.5,51.1667 78.5,50.5 Z"/></g>
<g><path style="opacity:0.012" fill="#ffd0ff" d="M 14.5,53.5 C 13.8333,53.5 13.5,53.8333 13.5,54.5C 12.2875,53.5029 12.4542,52.5029 14,51.5C 14.4643,52.0944 14.631,52.7611 14.5,53.5 Z"/></g>
<g><path style="opacity:0.016" fill="#3e3f3e" d="M 77.5,52.5 C 77.8333,52.5 78.1667,52.5 78.5,52.5C 78.3147,53.1701 77.9813,53.1701 77.5,52.5 Z"/></g>
<g><path style="opacity:0.012" fill="#545554" d="M 76.5,53.5 C 76.8333,53.5 77.1667,53.5 77.5,53.5C 77.3147,54.1701 76.9813,54.1701 76.5,53.5 Z"/></g>
<g><path style="opacity:1" fill="#891484" d="M 18.5,60.5 C 18.8333,59.8333 19.1667,59.1667 19.5,58.5C 21.4333,56.4042 23.7666,54.9042 26.5,54C 31.5,53.6667 36.5,53.3333 41.5,53C 42.8333,52.3333 44.1667,51.6667 45.5,51C 50.7658,45.2464 55.7658,39.413 60.5,33.5C 61.7942,32.7101 62.9609,31.7101 64,30.5C 63.2677,33.2988 61.9343,35.9655 60,38.5C 53.8333,43.3333 48.3333,48.8333 43.5,55C 36.8108,55.4463 30.1442,56.113 23.5,57C 22,58.5 20.5,60 19,61.5C 18.6012,61.2716 18.4346,60.9382 18.5,60.5 Z"/></g>
<g><path style="opacity:0.016" fill="#7e3f3e" d="M 72.5,59.5 C 72.8333,59.5 73.1667,59.5 73.5,59.5C 73.3147,60.1701 72.9813,60.1701 72.5,59.5 Z"/></g>
<g><path style="opacity:0.992" fill="#c97ac3" d="M 28.5,44.5 C 26.8067,47.1841 25.14,49.8508 23.5,52.5C 21.7484,54.2459 20.4151,56.2459 19.5,58.5C 19.1667,59.1667 18.8333,59.8333 18.5,60.5C 16.3146,60.7036 14.3146,61.3702 12.5,62.5C 12.1667,62.5 11.8333,62.5 11.5,62.5C 11.1667,59.8333 10.8333,59.8333 10.5,62.5C 10.1667,62.5 9.83333,62.5 9.5,62.5C 9.49136,60.6916 9.99136,59.0249 11,57.5C 11.2784,58.4158 11.7784,59.0825 12.5,59.5C 15.2473,56.2269 17.914,52.7269 20.5,49C 23.0594,47.2226 25.7261,45.7226 28.5,44.5 Z"/></g>
<g><path style="opacity:1" fill="#7f177a" d="M 60.5,21.5 C 62.8333,21.5 65.1667,21.5 67.5,21.5C 66.9791,25.4809 66.6458,29.4809 66.5,33.5C 66.1667,34.1667 65.8333,34.8333 65.5,35.5C 58.2406,41.2574 52.2406,48.0907 47.5,56C 40.88,57.0944 34.2134,58.0944 27.5,59C 23.2319,60.72 19.0653,62.5533 15,64.5C 13.6244,64.3158 12.7911,63.6491 12.5,62.5C 14.3146,61.3702 16.3146,60.7036 18.5,60.5C 18.4346,60.9382 18.6012,61.2716 19,61.5C 20.5,60 22,58.5 23.5,57C 30.1442,56.113 36.8108,55.4463 43.5,55C 48.3333,48.8333 53.8333,43.3333 60,38.5C 61.9343,35.9655 63.2677,33.2988 64,30.5C 62.9609,31.7101 61.7942,32.7101 60.5,33.5C 61.8333,31.1667 63.1667,28.8333 64.5,26.5C 65.9758,24.2911 65.3091,22.9577 62.5,22.5C 61.5084,22.6716 60.8417,22.3382 60.5,21.5 Z"/></g>
<g><path style="opacity:1" fill="#72166f" d="M 65.5,35.5 C 65.046,38.1398 63.8793,40.4732 62,42.5C 57.6565,47.6749 53.1565,52.6749 48.5,57.5C 38.4247,57.2476 29.0913,59.7476 20.5,65C 17.854,65.4974 15.1873,65.6641 12.5,65.5C 11.6618,65.1583 11.3284,64.4916 11.5,63.5C 11.5,63.1667 11.5,62.8333 11.5,62.5C 11.8333,62.5 12.1667,62.5 12.5,62.5C 12.7911,63.6491 13.6244,64.3158 15,64.5C 19.0653,62.5533 23.2319,60.72 27.5,59C 34.2134,58.0944 40.88,57.0944 47.5,56C 52.2406,48.0907 58.2406,41.2574 65.5,35.5 Z"/></g>
<g><path style="opacity:1" fill="#511555" d="M 69.5,36.5 C 69.8333,36.5 70.1667,36.5 70.5,36.5C 70.5,37.1667 70.8333,37.5 71.5,37.5C 68.6621,44.1387 64.1621,49.472 58,53.5C 55.9536,59.5479 51.787,63.0479 45.5,64C 44.5,65 43.5,66 42.5,67C 44.0368,68.1096 44.7035,69.6096 44.5,71.5C 47.1718,71.9477 49.1718,73.281 50.5,75.5C 50.8333,76.1667 51.1667,76.8333 51.5,77.5C 48.7952,77.3802 48.1285,78.3802 49.5,80.5C 42.4387,81.8611 35.4387,83.5278 28.5,85.5C 27.2011,84.91 26.3678,83.91 26,82.5C 25.2303,83.5981 24.397,83.5981 23.5,82.5C 22.6192,78.4508 24.2859,75.6174 28.5,74C 22.9633,73.1444 17.6299,71.6444 12.5,69.5C 11.8333,69.5 11.1667,69.5 10.5,69.5C 10.6602,67.8008 10.4935,66.1341 10,64.5C 9.50258,67.146 9.33591,69.8127 9.5,72.5C 9.16667,72.5 8.83333,72.5 8.5,72.5C 8.25293,69.0613 8.58627,65.728 9.5,62.5C 9.83333,62.5 10.1667,62.5 10.5,62.5C 10.5,63.1667 10.8333,63.5 11.5,63.5C 11.3284,64.4916 11.6618,65.1583 12.5,65.5C 12.8212,67.0481 13.8212,67.7148 15.5,67.5C 15.5774,68.7498 16.244,69.5831 17.5,70C 21.1667,70.6667 24.8333,70.6667 28.5,70C 35.1228,66.1904 42.1228,63.1904 49.5,61C 50.756,60.5831 51.4226,59.7498 51.5,58.5C 57.8542,52.9795 63.6875,46.9795 69,40.5C 69.49,39.2068 69.6567,37.8734 69.5,36.5 Z"/></g>
<g><path style="opacity:0.012" fill="#545554" d="M 71.5,61.5 C 72.8333,62.1667 72.8333,62.1667 71.5,61.5 Z"/></g>
<g><path style="opacity:1" fill="#47144d" d="M 71.5,37.5 C 73.2252,37.8425 73.7252,38.8425 73,40.5C 69.0145,43.1451 66.6812,46.8118 66,51.5C 63.0807,53.3093 61.7473,55.6426 62,58.5C 59.6667,60.8333 57.3333,63.1667 55,65.5C 53.1805,68.7667 53.0138,72.1 54.5,75.5C 53.1667,75.5 51.8333,75.5 50.5,75.5C 49.1718,73.281 47.1718,71.9477 44.5,71.5C 44.7035,69.6096 44.0368,68.1096 42.5,67C 43.5,66 44.5,65 45.5,64C 51.787,63.0479 55.9536,59.5479 58,53.5C 64.1621,49.472 68.6621,44.1387 71.5,37.5 Z"/></g>
<g><path style="opacity:1" fill="#561359" d="M 51.5,58.5 C 51.4226,59.7498 50.756,60.5831 49.5,61C 42.1228,63.1904 35.1228,66.1904 28.5,70C 24.8333,70.6667 21.1667,70.6667 17.5,70C 16.244,69.5831 15.5774,68.7498 15.5,67.5C 22.3714,68.3752 28.3714,66.5419 33.5,62C 39.5751,61.0863 45.5751,59.9197 51.5,58.5 Z"/></g>
<g><path style="opacity:0.006" fill="#000000" d="M 68.5,65.5 C 68.8333,65.5 69.1667,65.5 69.5,65.5C 69.6716,66.4916 69.3382,67.1583 68.5,67.5C 68.5,66.8333 68.5,66.1667 68.5,65.5 Z"/></g>
<g><path style="opacity:0.004" fill="#412233" d="M 67.5,67.5 C 67.8333,67.5 68.1667,67.5 68.5,67.5C 68.573,69.0269 67.9063,70.0269 66.5,70.5C 66.5,69.8333 66.5,69.1667 66.5,68.5C 67.1667,68.5 67.5,68.1667 67.5,67.5 Z"/></g>
<g><path style="opacity:0.012" fill="#a95554" d="M 65.5,70.5 C 65.8333,70.5 66.1667,70.5 66.5,70.5C 66.3147,71.1701 65.9813,71.1701 65.5,70.5 Z"/></g>
<g><path style="opacity:0.008" fill="#6b5669" d="M 63.5,73.5 C 63.8333,73.5 64.1667,73.5 64.5,73.5C 64.6716,74.4916 64.3382,75.1583 63.5,75.5C 63.5,74.8333 63.5,74.1667 63.5,73.5 Z"/></g>
<g><path style="opacity:0.012" fill="#a90054" d="M 62.5,75.5 C 62.8333,75.5 63.1667,75.5 63.5,75.5C 63.3147,76.1701 62.9813,76.1701 62.5,75.5 Z"/></g>
<g><path style="opacity:0.004" fill="#d531bb" d="M 10.5,76.5 C 10.8333,76.5 11.1667,76.5 11.5,76.5C 11.5,77.1667 11.5,77.8333 11.5,78.5C 10.6618,78.1583 10.3284,77.4916 10.5,76.5 Z"/></g>
<g><path style="opacity:0.004" fill="#2b2b2b" d="M 61.5,76.5 C 61.8333,76.5 62.1667,76.5 62.5,76.5C 62.6716,77.4916 62.3382,78.1583 61.5,78.5C 61.5,77.8333 61.5,77.1667 61.5,76.5 Z"/></g>
<g><path style="opacity:0.016" fill="#7e3f3e" d="M 60.5,78.5 C 60.8333,78.5 61.1667,78.5 61.5,78.5C 61.3147,79.1701 60.9813,79.1701 60.5,78.5 Z"/></g>
<g><path style="opacity:0.004" fill="#1f1f1f" d="M 11.5,78.5 C 11.8333,78.5 12.1667,78.5 12.5,78.5C 12.1667,81.1667 11.8333,81.1667 11.5,78.5 Z"/></g>
<g><path style="opacity:0.008" fill="#7c1a7b" d="M 59.5,79.5 C 59.8333,79.5 60.1667,79.5 60.5,79.5C 60.573,81.0269 59.9063,82.0269 58.5,82.5C 58.5,81.8333 58.5,81.1667 58.5,80.5C 59.1667,80.5 59.5,80.1667 59.5,79.5 Z"/></g>
<g><path style="opacity:0.016" fill="#3e003f" d="M 57.5,82.5 C 57.8333,82.5 58.1667,82.5 58.5,82.5C 58.3147,83.1701 57.9813,83.1701 57.5,82.5 Z"/></g>
<g><path style="opacity:0.006" fill="#290c12" d="M 16.5,83.5 C 16.5,84.1667 16.8333,84.5 17.5,84.5C 17.5,85.1667 17.8333,85.5 18.5,85.5C 18.5,86.1667 18.8333,86.5 19.5,86.5C 17.732,87.5075 16.3987,86.8408 15.5,84.5C 15.6236,83.8933 15.9569,83.56 16.5,83.5 Z"/></g>
<g><path style="opacity:0.016" fill="#7e3f7f" d="M 56.5,83.5 C 56.8333,83.5 57.1667,83.5 57.5,83.5C 57.3147,84.1701 56.9813,84.1701 56.5,83.5 Z"/></g>
<g><path style="opacity:0.016" fill="#7e3f3e" d="M 55.5,84.5 C 55.8333,84.5 56.1667,84.5 56.5,84.5C 56.3147,85.1701 55.9813,85.1701 55.5,84.5 Z"/></g>
<g><path style="opacity:0.008" fill="#fe007e" d="M 54.5,85.5 C 54.8333,85.5 55.1667,85.5 55.5,85.5C 55.3147,86.1701 54.9813,86.1701 54.5,85.5 Z"/></g>
<g><path style="opacity:0.012" fill="#545554" d="M 53.5,86.5 C 53.8333,86.5 54.1667,86.5 54.5,86.5C 54.3147,87.1701 53.9813,87.1701 53.5,86.5 Z"/></g>
<g><path style="opacity:0.661" fill="#6a3652" d="M 82.5,40.5 C 83.1667,40.5 83.5,40.8333 83.5,41.5C 83.5,41.8333 83.5,42.1667 83.5,42.5C 82.6618,42.8417 82.3284,43.5084 82.5,44.5C 81.8333,44.5 81.5,44.8333 81.5,45.5C 80.6618,45.8417 80.3284,46.5084 80.5,47.5C 79.8333,47.5 79.5,47.8333 79.5,48.5C 78.6618,48.8417 78.3284,49.5084 78.5,50.5C 77.6618,50.8417 77.3284,51.5084 77.5,52.5C 76.8333,52.5 76.5,52.8333 76.5,53.5C 75.1667,53.8333 75.1667,54.1667 76.5,54.5C 76.2503,56.674 75.2503,58.3406 73.5,59.5C 73.1667,58.1667 72.8333,58.1667 72.5,59.5C 71.6618,59.8417 71.3284,60.5084 71.5,61.5C 70.1667,61.8333 70.1667,62.1667 71.5,62.5C 71.573,64.0269 70.9063,65.0269 69.5,65.5C 69.1667,64.1667 68.8333,64.1667 68.5,65.5C 67.6618,65.8417 67.3284,66.5084 67.5,67.5C 66.8333,67.5 66.5,67.8333 66.5,68.5C 65.6618,68.8417 65.3284,69.5084 65.5,70.5C 64.1667,70.8333 64.1667,71.1667 65.5,71.5C 65.6716,72.4916 65.3382,73.1583 64.5,73.5C 64.1667,72.1667 63.8333,72.1667 63.5,73.5C 62.6618,73.8417 62.3284,74.5084 62.5,75.5C 61.8333,75.5 61.5,75.8333 61.5,76.5C 60.6618,76.8417 60.3284,77.5084 60.5,78.5C 59.8333,78.5 59.5,78.8333 59.5,79.5C 58.8333,79.5 58.5,79.8333 58.5,80.5C 57.6618,80.8417 57.3284,81.5084 57.5,82.5C 56.8333,82.5 56.5,82.8333 56.5,83.5C 55.8333,83.5 55.5,83.8333 55.5,84.5C 54.8333,84.5 54.5,84.8333 54.5,85.5C 53.8333,85.5 53.5,85.8333 53.5,86.5C 52.1667,86.8333 52.1667,87.1667 53.5,87.5C 52.3406,89.2503 50.674,90.2503 48.5,90.5C 47.8333,89.1667 47.1667,89.1667 46.5,90.5C 42.5,90.8333 42.5,91.1667 46.5,91.5C 38.0768,95.5078 29.7435,95.0078 21.5,90C 21.9889,88.4477 21.3223,87.281 19.5,86.5C 18.8333,86.5 18.5,86.1667 18.5,85.5C 17.8333,85.5 17.5,85.1667 17.5,84.5C 16.8333,84.5 16.5,84.1667 16.5,83.5C 15.1363,81.8089 13.803,80.1423 12.5,78.5C 12.6716,77.5084 12.3382,76.8417 11.5,76.5C 11.1667,72.5 10.8333,72.5 10.5,76.5C 9.65536,75.3285 8.98869,73.9952 8.5,72.5C 8.83333,72.5 9.16667,72.5 9.5,72.5C 10.404,71.791 10.7373,70.791 10.5,69.5C 11.1667,69.5 11.8333,69.5 12.5,69.5C 12.9812,76.2997 15.9812,81.6331 21.5,85.5C 22.1667,86.5 22.8333,87.5 23.5,88.5C 24.4916,88.3284 25.1583,88.6618 25.5,89.5C 35.9653,91.7257 45.4653,89.7257 54,83.5C 55.7235,81.2833 57.2235,78.95 58.5,76.5C 66.5,64.5 74.5,52.5 82.5,40.5 Z"/></g>
<g><path style="opacity:1" fill="#6a185d" d="M 58.5,74.5 C 58.5,75.1667 58.5,75.8333 58.5,76.5C 57.2235,78.95 55.7235,81.2833 54,83.5C 45.4653,89.7257 35.9653,91.7257 25.5,89.5C 25.1583,88.6618 24.4916,88.3284 23.5,88.5C 22.8333,87.5 22.1667,86.5 21.5,85.5C 21.2852,83.8212 21.9519,82.8212 23.5,82.5C 24.397,83.5981 25.2303,83.5981 26,82.5C 26.3678,83.91 27.2011,84.91 28.5,85.5C 35.4387,83.5278 42.4387,81.8611 49.5,80.5C 48.1285,78.3802 48.7952,77.3802 51.5,77.5C 52.2909,79.0562 52.6242,80.3895 52.5,81.5C 54.5227,79.1472 56.5227,76.8138 58.5,74.5 Z"/></g>
<g><path style="opacity:1" fill="#491348" d="M 12.5,69.5 C 17.6299,71.6444 22.9633,73.1444 28.5,74C 24.2859,75.6174 22.6192,78.4508 23.5,82.5C 21.9519,82.8212 21.2852,83.8212 21.5,85.5C 15.9812,81.6331 12.9812,76.2997 12.5,69.5 Z"/></g>
<g><path style="opacity:0.008" fill="#83fc2d" d="M 46.5,91.5 C 46.5,91.1667 46.5,90.8333 46.5,90.5C 47.1667,90.5 47.8333,90.5 48.5,90.5C 48.1583,91.3382 47.4916,91.6716 46.5,91.5 Z"/></g>
</svg>
