<?xml version="1.0" encoding="UTF-8"?>
<!DOCTYPE svg PUBLIC "-//W3C//DTD SVG 1.1//EN" "http://www.w3.org/Graphics/SVG/1.1/DTD/svg11.dtd">
<svg xmlns="http://www.w3.org/2000/svg" version="1.1" width="100px" height="100px" style="shape-rendering:geometricPrecision; text-rendering:geometricPrecision; image-rendering:optimizeQuality; fill-rule:evenodd; clip-rule:evenodd" xmlns:xlink="http://www.w3.org/1999/xlink">
<g><path style="opacity:0.88" fill="#ecd381" d="M 88.5,17.5 C 87.5,17.5 86.5,17.5 85.5,17.5C 61.3275,17.1691 37.3275,17.5024 13.5,18.5C 12.5084,18.3284 11.8417,18.6618 11.5,19.5C 10.5084,19.6716 9.84171,19.3382 9.5,18.5C 10.0577,17.2101 11.0577,16.3768 12.5,16C 37.5426,15.824 62.5426,15.324 87.5,14.5C 87.5173,15.3937 87.8506,16.3937 88.5,17.5 Z"/></g>
<g><path style="opacity:1" fill="#e4ad3f" d="M 13.5,18.5 C 37.3275,17.5024 61.3275,17.1691 85.5,17.5C 86.7505,20.9382 86.4172,24.2716 84.5,27.5C 83.8333,28.1667 83.1667,28.8333 82.5,29.5C 82.7167,26.5647 83.3834,23.7313 84.5,21C 84.472,19.9302 84.1386,19.0968 83.5,18.5C 60.8333,18.5 38.1667,18.5 15.5,18.5C 14.8333,18.5 14.1667,18.5 13.5,18.5 Z"/></g>
<g><path style="opacity:0.989" fill="#cd7616" d="M 15.5,18.5 C 38.1667,18.5 60.8333,18.5 83.5,18.5C 82.3805,21.3871 81.3805,24.3871 80.5,27.5C 79.8933,27.3764 79.56,27.0431 79.5,26.5C 80.4682,24.3926 80.8016,22.0593 80.5,19.5C 72.8333,19.5 65.1667,19.5 57.5,19.5C 43.8333,19.5 30.1667,19.5 16.5,19.5C 16.5,21.8333 16.5,24.1667 16.5,26.5C 14.1559,24.2821 13.8226,21.6154 15.5,18.5 Z"/></g>
<g><path style="opacity:0.999" fill="#cc6510" d="M 57.5,19.5 C 65.1667,19.5 72.8333,19.5 80.5,19.5C 80.8016,22.0593 80.4682,24.3926 79.5,26.5C 74.4053,26.7787 69.4053,26.4454 64.5,25.5C 64.6567,24.1266 64.49,22.7932 64,21.5C 63.5357,22.0944 63.369,22.7611 63.5,23.5C 62.209,23.2627 61.209,23.596 60.5,24.5C 60.5,24.8333 60.5,25.1667 60.5,25.5C 60.1667,25.5 59.8333,25.5 59.5,25.5C 59.6567,24.1266 59.49,22.7932 59,21.5C 58.5357,22.0944 58.369,22.7611 58.5,23.5C 57.7784,23.9175 57.2784,24.5842 57,25.5C 56.51,24.2068 56.3433,22.8734 56.5,21.5C 56.8333,20.8333 57.1667,20.1667 57.5,19.5 Z"/></g>
<g><path style="opacity:0.992" fill="#d06c13" d="M 57.5,19.5 C 57.1667,20.1667 56.8333,20.8333 56.5,21.5C 48.8692,22.4263 41.5358,22.4263 34.5,21.5C 34.5,22.8333 34.5,24.1667 34.5,25.5C 29.6835,26.3261 24.6835,26.8261 19.5,27C 18.944,27.3826 18.6107,27.8826 18.5,28.5C 17.8333,28.5 17.5,28.8333 17.5,29.5C 16.596,28.791 16.2627,27.791 16.5,26.5C 16.5,24.1667 16.5,21.8333 16.5,19.5C 30.1667,19.5 43.8333,19.5 57.5,19.5 Z"/></g>
<g><path style="opacity:1" fill="#d06911" d="M 34.5,21.5 C 41.5358,22.4263 48.8692,22.4263 56.5,21.5C 56.3433,22.8734 56.51,24.2068 57,25.5C 57.2784,24.5842 57.7784,23.9175 58.5,23.5C 58.5,24.1667 58.5,24.8333 58.5,25.5C 52.5992,26.8057 46.5992,26.8057 40.5,25.5C 40.6567,24.1266 40.49,22.7932 40,21.5C 39.5357,22.0944 39.369,22.7611 39.5,23.5C 38.209,23.2627 37.209,23.596 36.5,24.5C 36.1667,24.5 35.8333,24.5 35.5,24.5C 35.7373,23.209 35.404,22.209 34.5,21.5 Z"/></g>
<g><path style="opacity:1" fill="#d69f37" d="M 13.5,18.5 C 13.8197,33.2376 13.153,47.9043 11.5,62.5C 10.5084,62.6716 9.84171,62.3382 9.5,61.5C 9.5,60.8333 9.16667,60.5 8.5,60.5C 8.5,60.1667 8.5,59.8333 8.5,59.5C 9.83333,58.5 9.83333,57.5 8.5,56.5C 8.5,54.8333 8.5,53.1667 8.5,51.5C 8.5,44.1667 8.5,36.8333 8.5,29.5C 9.32825,35.9874 9.82825,42.654 10,49.5C 10.3333,49.1667 10.6667,48.8333 11,48.5C 11.4998,38.8391 11.6665,29.1724 11.5,19.5C 11.8417,18.6618 12.5084,18.3284 13.5,18.5 Z"/></g>
<g><path style="opacity:0.957" fill="#dd9b37" d="M 83.5,18.5 C 84.1386,19.0968 84.472,19.9302 84.5,21C 83.3834,23.7313 82.7167,26.5647 82.5,29.5C 82.1667,29.5 81.8333,29.5 81.5,29.5C 60.6733,28.5027 39.6733,28.1694 18.5,28.5C 18.6107,27.8826 18.944,27.3826 19.5,27C 24.6835,26.8261 29.6835,26.3261 34.5,25.5C 35.1667,25.5 35.5,25.1667 35.5,24.5C 35.8333,24.5 36.1667,24.5 36.5,24.5C 37.209,23.596 38.209,23.2627 39.5,23.5C 39.3284,24.4916 39.6618,25.1583 40.5,25.5C 46.5992,26.8057 52.5992,26.8057 58.5,25.5C 58.8333,25.5 59.1667,25.5 59.5,25.5C 59.8333,25.5 60.1667,25.5 60.5,25.5C 63.1667,25.1667 63.1667,24.8333 60.5,24.5C 61.209,23.596 62.209,23.2627 63.5,23.5C 63.3284,24.4916 63.6618,25.1583 64.5,25.5C 69.4053,26.4454 74.4053,26.7787 79.5,26.5C 79.56,27.0431 79.8933,27.3764 80.5,27.5C 81.3805,24.3871 82.3805,21.3871 83.5,18.5 Z"/></g>
<g><path style="opacity:1" fill="#e4a431" d="M 13.5,18.5 C 14.1667,18.5 14.8333,18.5 15.5,18.5C 13.8226,21.6154 14.1559,24.2821 16.5,26.5C 16.2627,27.791 16.596,28.791 17.5,29.5C 17.5,29.8333 17.5,30.1667 17.5,30.5C 17.5,31.1667 17.5,31.8333 17.5,32.5C 17.5,37.5 17.5,42.5 17.5,47.5C 16.2271,49.7128 15.2271,52.0462 14.5,54.5C 13.5269,56.9479 13.1936,59.6146 13.5,62.5C 12.8333,62.5 12.1667,62.5 11.5,62.5C 13.153,47.9043 13.8197,33.2376 13.5,18.5 Z"/></g>
<g><path style="opacity:1" fill="#e7b645" d="M 85.5,17.5 C 86.5,17.5 87.5,17.5 88.5,17.5C 89.1667,17.5 89.5,17.8333 89.5,18.5C 88.8892,30.4905 88.3892,42.4905 88,54.5C 85.1349,45.7275 83.9682,36.7275 84.5,27.5C 86.4172,24.2716 86.7505,20.9382 85.5,17.5 Z"/></g>
<g><path style="opacity:1" fill="#e5ac44" d="M 18.5,28.5 C 39.6733,28.1694 60.6733,28.5027 81.5,29.5C 81.5,30.1667 81.5,30.8333 81.5,31.5C 79.1667,31.5 76.8333,31.5 74.5,31.5C 55.5099,29.2803 36.5099,28.9469 17.5,30.5C 17.5,30.1667 17.5,29.8333 17.5,29.5C 17.5,28.8333 17.8333,28.5 18.5,28.5 Z"/></g>
<g><path style="opacity:0.873" fill="#e5b841" d="M 9.5,18.5 C 9.84171,19.3382 10.5084,19.6716 11.5,19.5C 11.6665,29.1724 11.4998,38.8391 11,48.5C 10.6667,48.8333 10.3333,49.1667 10,49.5C 9.82825,42.654 9.32825,35.9874 8.5,29.5C 6.8015,30.0009 6.8015,37.3343 8.5,51.5C 8.5,53.1667 8.5,54.8333 8.5,56.5C 8.5,57.5 8.5,58.5 8.5,59.5C 8.5,59.8333 8.5,60.1667 8.5,60.5C 8.5,60.8333 8.5,61.1667 8.5,61.5C 8.16667,61.5 7.83333,61.5 7.5,61.5C 6.38214,47.6152 6.21547,33.2819 7,18.5C 7.76971,17.4019 8.60305,17.4019 9.5,18.5 Z"/></g>
<g><path style="opacity:1" fill="#ebbf59" d="M 52.5,31.5 C 57.4939,33.6499 57.1605,35.6499 51.5,37.5C 50.657,35.8267 49.3237,34.66 47.5,34C 37.7295,32.6347 28.0629,32.1347 18.5,32.5C 23.2449,31.001 28.2449,30.3343 33.5,30.5C 39.8397,30.8003 46.173,31.1336 52.5,31.5 Z"/></g>
<g><path style="opacity:1" fill="#e9b850" d="M 74.5,31.5 C 75.8897,33.1694 76.2231,34.8361 75.5,36.5C 73.5372,37.9599 71.7038,39.6266 70,41.5C 69.6667,41.1667 69.3333,40.8333 69,40.5C 67.0065,41.914 64.8398,42.914 62.5,43.5C 64.334,41.4946 66.0007,39.3279 67.5,37C 67.2716,36.6012 66.9382,36.4346 66.5,36.5C 66.1435,35.1301 65.3102,34.1301 64,33.5C 60.2835,32.1306 56.4501,31.4639 52.5,31.5C 46.173,31.1336 39.8397,30.8003 33.5,30.5C 28.2449,30.3343 23.2449,31.001 18.5,32.5C 18.1667,32.5 17.8333,32.5 17.5,32.5C 17.5,31.8333 17.5,31.1667 17.5,30.5C 36.5099,28.9469 55.5099,29.2803 74.5,31.5 Z"/></g>
<g><path style="opacity:1" fill="#dca135" d="M 89.5,18.5 C 90.4958,32.3234 90.8291,46.3234 90.5,60.5C 89.3646,62.2132 87.698,62.8799 85.5,62.5C 86.0376,57.7646 85.0376,53.4313 82.5,49.5C 82.1667,48.8333 81.8333,48.1667 81.5,47.5C 82.8333,42.1667 82.8333,36.8333 81.5,31.5C 81.5,30.8333 81.5,30.1667 81.5,29.5C 81.8333,29.5 82.1667,29.5 82.5,29.5C 83.1667,28.8333 83.8333,28.1667 84.5,27.5C 83.9682,36.7275 85.1349,45.7275 88,54.5C 88.3892,42.4905 88.8892,30.4905 89.5,18.5 Z"/></g>
<g><path style="opacity:1" fill="#ebbe54" d="M 52.5,31.5 C 56.4501,31.4639 60.2835,32.1306 64,33.5C 65.3102,34.1301 66.1435,35.1301 66.5,36.5C 59.9887,39.2533 53.322,41.5866 46.5,43.5C 44.5914,42.6518 42.5914,42.3184 40.5,42.5C 42.949,41.2092 45.6156,40.2092 48.5,39.5C 49.2975,39.0431 49.6309,38.3764 49.5,37.5C 50.1667,37.5 50.8333,37.5 51.5,37.5C 57.1605,35.6499 57.4939,33.6499 52.5,31.5 Z"/></g>
<g><path style="opacity:1" fill="#edc35b" d="M 18.5,32.5 C 28.0629,32.1347 37.7295,32.6347 47.5,34C 49.3237,34.66 50.657,35.8267 51.5,37.5C 50.8333,37.5 50.1667,37.5 49.5,37.5C 39.6359,40.1219 29.8026,40.1219 20,37.5C 19.6667,37.8333 19.3333,38.1667 19,38.5C 18.5045,36.5273 18.3379,34.5273 18.5,32.5 Z"/></g>
<g><path style="opacity:1" fill="#e9b542" d="M 75.5,36.5 C 77.0477,40.2341 75.7144,42.7341 71.5,44C 71.7284,44.3988 72.0618,44.5654 72.5,44.5C 69.4827,47.1977 67.4827,50.5311 66.5,54.5C 65.5269,56.9479 65.1936,59.6146 65.5,62.5C 63.5,62.5 61.5,62.5 59.5,62.5C 59.8887,58.5863 59.2221,54.9196 57.5,51.5C 56.8333,50.1667 56.1667,48.8333 55.5,47.5C 56.8955,44.6875 59.2288,43.3542 62.5,43.5C 64.8398,42.914 67.0065,41.914 69,40.5C 69.3333,40.8333 69.6667,41.1667 70,41.5C 71.7038,39.6266 73.5372,37.9599 75.5,36.5 Z"/></g>
<g><path style="opacity:1" fill="#ecc154" d="M 17.5,32.5 C 17.8333,32.5 18.1667,32.5 18.5,32.5C 18.3379,34.5273 18.5045,36.5273 19,38.5C 19.3333,38.1667 19.6667,37.8333 20,37.5C 29.8026,40.1219 39.6359,40.1219 49.5,37.5C 49.6309,38.3764 49.2975,39.0431 48.5,39.5C 45.6156,40.2092 42.949,41.2092 40.5,42.5C 36.1667,42.5 31.8333,42.5 27.5,42.5C 27.5,43.5 27.5,44.5 27.5,45.5C 23.6636,43.8052 20.3303,44.4719 17.5,47.5C 17.5,42.5 17.5,37.5 17.5,32.5 Z"/></g>
<g><path style="opacity:1" fill="#e8b344" d="M 74.5,31.5 C 76.8333,31.5 79.1667,31.5 81.5,31.5C 82.8333,36.8333 82.8333,42.1667 81.5,47.5C 79.1125,44.9238 76.1125,43.9238 72.5,44.5C 72.0618,44.5654 71.7284,44.3988 71.5,44C 75.7144,42.7341 77.0477,40.2341 75.5,36.5C 76.2231,34.8361 75.8897,33.1694 74.5,31.5 Z"/></g>
<g><path style="opacity:1" fill="#ebbf50" d="M 66.5,36.5 C 66.9382,36.4346 67.2716,36.6012 67.5,37C 66.0007,39.3279 64.334,41.4946 62.5,43.5C 59.2288,43.3542 56.8955,44.6875 55.5,47.5C 49.7194,42.91 45.0527,43.91 41.5,50.5C 41.5,49.1667 41.5,47.8333 41.5,46.5C 38.1501,46.335 34.8168,46.5017 31.5,47C 30.944,47.3826 30.6107,47.8826 30.5,48.5C 29.1667,47.8333 28.1667,46.8333 27.5,45.5C 27.5,44.5 27.5,43.5 27.5,42.5C 31.8333,42.5 36.1667,42.5 40.5,42.5C 42.5914,42.3184 44.5914,42.6518 46.5,43.5C 53.322,41.5866 59.9887,39.2533 66.5,36.5 Z"/></g>
<g><path style="opacity:1" fill="#ededee" d="M 27.5,45.5 C 28.1667,46.8333 29.1667,47.8333 30.5,48.5C 31.7298,50.2972 32.3964,52.2972 32.5,54.5C 32.6495,55.552 32.4828,56.552 32,57.5C 31.6667,57.1667 31.3333,56.8333 31,56.5C 30.3261,57.5784 29.3261,58.2451 28,58.5C 24.5187,57.8773 21.0187,57.3773 17.5,57C 16.6266,55.955 15.6266,55.1217 14.5,54.5C 15.2271,52.0462 16.2271,49.7128 17.5,47.5C 20.3303,44.4719 23.6636,43.8052 27.5,45.5 Z"/></g>
<g><path style="opacity:1" fill="#ebebed" d="M 55.5,47.5 C 56.1667,48.8333 56.8333,50.1667 57.5,51.5C 56.2524,53.2994 55.2524,55.1327 54.5,57C 50.6224,58.4698 46.6224,59.3031 42.5,59.5C 42.6495,58.448 42.4828,57.448 42,56.5C 41.6667,58.1667 41.3333,59.8333 41,61.5C 40.5034,59.1902 40.3367,56.8568 40.5,54.5C 40.8333,53.1667 41.1667,51.8333 41.5,50.5C 45.0527,43.91 49.7194,42.91 55.5,47.5 Z"/></g>
<g><path style="opacity:1" fill="#ebb73d" d="M 41.5,50.5 C 41.1667,51.8333 40.8333,53.1667 40.5,54.5C 39.5269,56.9479 39.1936,59.6146 39.5,62.5C 37.5,62.5 35.5,62.5 33.5,62.5C 33.8064,59.6146 33.4731,56.9479 32.5,54.5C 32.3964,52.2972 31.7298,50.2972 30.5,48.5C 30.6107,47.8826 30.944,47.3826 31.5,47C 34.8168,46.5017 38.1501,46.335 41.5,46.5C 41.5,47.8333 41.5,49.1667 41.5,50.5 Z"/></g>
<g><path style="opacity:1" fill="#ebeaed" d="M 72.5,44.5 C 76.1125,43.9238 79.1125,44.9238 81.5,47.5C 81.8333,48.1667 82.1667,48.8333 82.5,49.5C 80.9932,54.8223 77.3265,57.989 71.5,59C 71.9574,59.414 72.2907,59.914 72.5,60.5C 70.604,61.4656 68.604,61.7989 66.5,61.5C 66.5,59.1667 66.5,56.8333 66.5,54.5C 67.4827,50.5311 69.4827,47.1977 72.5,44.5 Z"/></g>
<g><path style="opacity:1" fill="#e7e1de" d="M 57.5,51.5 C 59.2221,54.9196 59.8887,58.5863 59.5,62.5C 52.8333,62.5 46.1667,62.5 39.5,62.5C 39.1936,59.6146 39.5269,56.9479 40.5,54.5C 40.3367,56.8568 40.5034,59.1902 41,61.5C 41.3333,59.8333 41.6667,58.1667 42,56.5C 42.4828,57.448 42.6495,58.448 42.5,59.5C 46.6224,59.3031 50.6224,58.4698 54.5,57C 55.2524,55.1327 56.2524,53.2994 57.5,51.5 Z"/></g>
<g><path style="opacity:1" fill="#e7e2e0" d="M 14.5,54.5 C 15.6266,55.1217 16.6266,55.955 17.5,57C 21.0187,57.3773 24.5187,57.8773 28,58.5C 29.3261,58.2451 30.3261,57.5784 31,56.5C 31.3333,56.8333 31.6667,57.1667 32,57.5C 32.4828,56.552 32.6495,55.552 32.5,54.5C 33.4731,56.9479 33.8064,59.6146 33.5,62.5C 26.8333,62.5 20.1667,62.5 13.5,62.5C 13.1936,59.6146 13.5269,56.9479 14.5,54.5 Z"/></g>
<g><path style="opacity:1" fill="#e2dedd" d="M 82.5,49.5 C 85.0376,53.4313 86.0376,57.7646 85.5,62.5C 78.8333,62.5 72.1667,62.5 65.5,62.5C 65.1936,59.6146 65.5269,56.9479 66.5,54.5C 66.5,56.8333 66.5,59.1667 66.5,61.5C 68.604,61.7989 70.604,61.4656 72.5,60.5C 72.2907,59.914 71.9574,59.414 71.5,59C 77.3265,57.989 80.9932,54.8223 82.5,49.5 Z"/></g>
<g><path style="opacity:0.004" fill="#feff00" d="M 92.5,61.5 C 93.1667,61.5 93.5,61.8333 93.5,62.5C 93.1667,62.1667 92.8333,61.8333 92.5,61.5 Z"/></g>
<g><path style="opacity:1" fill="#e7c274" d="M 92.5,61.5 C 91.8333,61.5 91.5,61.8333 91.5,62.5C 91.6716,63.4916 91.3382,64.1583 90.5,64.5C 80.1667,64.5 69.8333,64.5 59.5,64.5C 42.1667,64.5 24.8333,64.5 7.5,64.5C 7.5,63.8333 7.5,63.1667 7.5,62.5C 7.5,62.1667 7.5,61.8333 7.5,61.5C 7.83333,61.5 8.16667,61.5 8.5,61.5C 8.83333,61.5 9.16667,61.5 9.5,61.5C 9.84171,62.3382 10.5084,62.6716 11.5,62.5C 12.1667,62.5 12.8333,62.5 13.5,62.5C 20.1667,62.5 26.8333,62.5 33.5,62.5C 35.5,62.5 37.5,62.5 39.5,62.5C 46.1667,62.5 52.8333,62.5 59.5,62.5C 61.5,62.5 63.5,62.5 65.5,62.5C 72.1667,62.5 78.8333,62.5 85.5,62.5C 87.698,62.8799 89.3646,62.2132 90.5,60.5C 91.3311,46.6727 91.8311,32.6727 92,18.5C 92.4999,32.8295 92.6666,47.1628 92.5,61.5 Z"/></g>
<g><path style="opacity:0.008" fill="#ffea23" d="M 4.5,62.5 C 5.63406,64.9664 5.80073,67.633 5,70.5C 4.50258,67.854 4.33591,65.1873 4.5,62.5 Z"/></g>
<g><path style="opacity:0.012" fill="#be8217" d="M 93.5,62.5 C 94.6341,64.9664 94.8007,67.633 94,70.5C 93.5026,67.854 93.3359,65.1873 93.5,62.5 Z"/></g>
<g><path style="opacity:0.999" fill="#d9a140" d="M 7.5,62.5 C 7.5,63.1667 7.5,63.8333 7.5,64.5C 7.5,65.8333 7.5,67.1667 7.5,68.5C 20.8333,68.5 34.1667,68.5 47.5,68.5C 61.8333,68.5 76.1667,68.5 90.5,68.5C 90.5,67.1667 90.5,65.8333 90.5,64.5C 91.3382,64.1583 91.6716,63.4916 91.5,62.5C 91.8333,62.5 92.1667,62.5 92.5,62.5C 92.8064,65.3854 92.4731,68.0521 91.5,70.5C 63.3382,69.502 35.0049,69.1687 6.5,69.5C 6.19845,66.9407 6.53178,64.6074 7.5,62.5 Z"/></g>
<g><path style="opacity:1" fill="#e1af4e" d="M 59.5,64.5 C 69.8333,64.5 80.1667,64.5 90.5,64.5C 90.5,65.8333 90.5,67.1667 90.5,68.5C 76.1667,68.5 61.8333,68.5 47.5,68.5C 44.023,67.6773 40.3563,67.1773 36.5,67C 43.8333,66.6667 51.1667,66.3333 58.5,66C 59.056,65.6174 59.3893,65.1174 59.5,64.5 Z"/></g>
<g><path style="opacity:1" fill="#e4b554" d="M 7.5,64.5 C 24.8333,64.5 42.1667,64.5 59.5,64.5C 59.3893,65.1174 59.056,65.6174 58.5,66C 51.1667,66.3333 43.8333,66.6667 36.5,67C 40.3563,67.1773 44.023,67.6773 47.5,68.5C 34.1667,68.5 20.8333,68.5 7.5,68.5C 7.5,67.1667 7.5,65.8333 7.5,64.5 Z"/></g>
<g><path style="opacity:1" fill="#b15613" d="M 6.5,69.5 C 35.0049,69.1687 63.3382,69.502 91.5,70.5C 72.4971,70.3334 53.4971,70.5001 34.5,71C 33.5939,72.6995 33.2606,74.5328 33.5,76.5C 32.5655,77.5676 32.2322,78.901 32.5,80.5C 32.5,80.8333 32.5,81.1667 32.5,81.5C 31.8333,81.5 31.5,81.8333 31.5,82.5C 30.1667,82.8333 30.1667,83.1667 31.5,83.5C 31.3893,84.1174 31.056,84.6174 30.5,85C 25.8333,85.6667 21.1667,85.6667 16.5,85C 16.8363,83.371 16.1696,81.871 14.5,80.5C 13.8333,78.8333 13.1667,77.1667 12.5,75.5C 12.1667,70.1667 11.8333,70.1667 11.5,75.5C 10.2511,73.8639 8.5844,72.6972 6.5,72C 7.59809,71.2303 7.59809,70.397 6.5,69.5 Z"/></g>
<g><path style="opacity:1" fill="#c4721a" d="M 86.5,72.5 C 86.5,73.8333 86.5,75.1667 86.5,76.5C 85.1667,77.8333 85.1667,79.1667 86.5,80.5C 86.1898,82.1436 85.1898,83.1436 83.5,83.5C 83.5,83.1667 83.5,82.8333 83.5,82.5C 83.3893,81.8826 83.056,81.3826 82.5,81C 77.5111,80.5007 72.5111,80.3341 67.5,80.5C 67.5,77.5 67.5,74.5 67.5,71.5C 73.8692,71.347 80.2026,71.6803 86.5,72.5 Z"/></g>
<g><path style="opacity:0.008" fill="#af5807" d="M 11.5,75.5 C 11.8333,75.5 12.1667,75.5 12.5,75.5C 12.1667,82.1667 11.8333,82.1667 11.5,75.5 Z"/></g>
<g><path style="opacity:0.008" fill="#ff9af8" d="M 86.5,76.5 C 87.8333,77.8333 87.8333,79.1667 86.5,80.5C 86.5,79.1667 86.5,77.8333 86.5,76.5 Z"/></g>
<g><path style="opacity:1" fill="#cb7a1a" d="M 14.5,80.5 C 14.4977,78.429 14.8311,76.2623 15.5,74C 20.6607,72.3039 25.8274,72.1372 31,73.5C 31.3336,75.8473 31.167,78.1806 30.5,80.5C 25.1667,80.5 19.8333,80.5 14.5,80.5 Z"/></g>
<g><path style="opacity:0.008" fill="#7e0000" d="M 32.5,81.5 C 32.8333,81.5 33.1667,81.5 33.5,81.5C 33.3147,82.1701 32.9813,82.1701 32.5,81.5 Z"/></g>
<g><path style="opacity:0.976" fill="#a4430d" d="M 91.5,70.5 C 90.8161,72.4488 89.6494,74.1155 88,75.5C 87.9174,73.4936 87.4174,72.4936 86.5,72.5C 80.2026,71.6803 73.8692,71.347 67.5,71.5C 67.5,74.5 67.5,77.5 67.5,80.5C 72.5111,80.3341 77.5111,80.5007 82.5,81C 83.056,81.3826 83.3893,81.8826 83.5,82.5C 82.1667,82.8333 82.1667,83.1667 83.5,83.5C 83.3893,84.1174 83.056,84.6174 82.5,85C 77.8333,85.6667 73.1667,85.6667 68.5,85C 68.4235,82.9831 67.4235,81.1497 65.5,79.5C 65.1667,75.5 64.8333,75.5 64.5,79.5C 63.8423,78.6016 63.1757,77.6016 62.5,76.5C 61.9348,78.5435 60.9348,80.2102 59.5,81.5C 59.5,80.8333 59.1667,80.5 58.5,80.5C 58.5,77.5 58.5,74.5 58.5,71.5C 52.8333,71.5 47.1667,71.5 41.5,71.5C 41.2161,74.7766 41.5495,77.9433 42.5,81C 47.4889,81.4993 52.4889,81.6659 57.5,81.5C 56.0474,82.8249 56.3808,83.6582 58.5,84C 53.2825,85.5628 47.9491,85.8962 42.5,85C 42.4235,82.9831 41.4235,81.1497 39.5,79.5C 39.7373,78.209 39.404,77.209 38.5,76.5C 38.1667,69.8333 37.8333,69.8333 37.5,76.5C 36.1667,78.1667 34.8333,79.8333 33.5,81.5C 33.5,80.8333 33.1667,80.5 32.5,80.5C 32.2322,78.901 32.5655,77.5676 33.5,76.5C 33.2606,74.5328 33.5939,72.6995 34.5,71C 53.4971,70.5001 72.4971,70.3334 91.5,70.5 Z"/></g>
<g><path style="opacity:0.008" fill="#700000" d="M 64.5,79.5 C 64.8333,79.5 65.1667,79.5 65.5,79.5C 65.1667,82.1667 64.8333,82.1667 64.5,79.5 Z"/></g>
<g><path style="opacity:0.996" fill="#c67117" d="M 58.5,80.5 C 58.5,80.8333 58.5,81.1667 58.5,81.5C 58.1667,81.5 57.8333,81.5 57.5,81.5C 52.4889,81.6659 47.4889,81.4993 42.5,81C 41.5495,77.9433 41.2161,74.7766 41.5,71.5C 47.1667,71.5 52.8333,71.5 58.5,71.5C 58.5,74.5 58.5,77.5 58.5,80.5 Z"/></g>
<g><path style="opacity:0.016" fill="#c45100" d="M 37.5,76.5 C 37.8333,76.5 38.1667,76.5 38.5,76.5C 38.2627,77.791 38.596,78.791 39.5,79.5C 39.6068,81.3786 39.1068,81.7119 38,80.5C 37.51,79.2068 37.3433,77.8734 37.5,76.5 Z"/></g>
<g><path style="opacity:0.008" fill="#7e0000" d="M 58.5,81.5 C 58.8333,81.5 59.1667,81.5 59.5,81.5C 59.3147,82.1701 58.9813,82.1701 58.5,81.5 Z"/></g>
<g><path style="opacity:0.008" fill="#000000" d="M 31.5,82.5 C 31.8333,82.5 32.1667,82.5 32.5,82.5C 32.3147,83.1701 31.9813,83.1701 31.5,82.5 Z"/></g>
</svg>
