<?xml version="1.0" encoding="UTF-8"?>
<!DOCTYPE svg PUBLIC "-//W3C//DTD SVG 1.1//EN" "http://www.w3.org/Graphics/SVG/1.1/DTD/svg11.dtd">
<svg xmlns="http://www.w3.org/2000/svg" version="1.1" width="100px" height="100px" style="shape-rendering:geometricPrecision; text-rendering:geometricPrecision; image-rendering:optimizeQuality; fill-rule:evenodd; clip-rule:evenodd" xmlns:xlink="http://www.w3.org/1999/xlink">
<g><path style="opacity:1" fill="#ecdbbd" d="M 56.5,22.5 C 53.3799,22.8441 50.5466,22.1775 48,20.5C 46.0999,21.0769 44.2666,21.7435 42.5,22.5C 42.2869,16.3993 42.6202,10.7326 43.5,5.5C 47.8537,6.59044 52.1871,6.7571 56.5,6C 56.4052,11.2889 56.4052,16.7889 56.5,22.5 Z"/></g>
<g><path style="opacity:1" fill="#f1e6d1" d="M 68.5,30.5 C 68.5,30.8333 68.5,31.1667 68.5,31.5C 66.5165,31.6168 64.8498,30.9501 63.5,29.5C 62.4777,29.8555 61.811,30.5222 61.5,31.5C 60.2089,30.4583 60.2089,29.2917 61.5,28C 55.2882,23.0111 54.4549,23.5111 59,29.5C 59.6667,30.8333 59.6667,32.1667 59,33.5C 53.7775,39.378 47.4441,43.7113 40,46.5C 36.5569,43.272 35.0569,39.272 35.5,34.5C 36.1429,32.9236 37.1429,31.5903 38.5,30.5C 38.7283,33.3947 38.7283,36.3947 38.5,39.5C 38.6917,41.857 39.8584,43.5237 42,44.5C 43.5218,42.9782 45.0218,41.4782 46.5,40C 46.8846,36.2722 48.3846,33.1056 51,30.5C 51.6838,29.2161 51.5171,28.0495 50.5,27C 47.9278,24.7132 44.9278,23.5465 41.5,23.5C 41.5,22.8333 41.8333,22.5 42.5,22.5C 44.2666,21.7435 46.0999,21.0769 48,20.5C 50.5466,22.1775 53.3799,22.8441 56.5,22.5C 57.3261,17.6835 57.8261,12.6835 58,7.5C 58.3333,12.1667 58.6667,16.8333 59,21.5C 61.1667,23 63.3333,24.5 65.5,26C 65.2086,27.9579 66.2086,29.4579 68.5,30.5 Z"/></g>
<g><path style="opacity:1" fill="#f2e9d6" d="M 38.5,23.5 C 39.3478,22.375 40.3478,22.375 41.5,23.5C 44.9278,23.5465 47.9278,24.7132 50.5,27C 51.5171,28.0495 51.6838,29.2161 51,30.5C 48.3846,33.1056 46.8846,36.2722 46.5,40C 45.0218,41.4782 43.5218,42.9782 42,44.5C 39.8584,43.5237 38.6917,41.857 38.5,39.5C 38.7283,36.3947 38.7283,33.3947 38.5,30.5C 39.0668,28.9705 39.7334,27.4705 40.5,26C 39.9056,25.5357 39.2389,25.369 38.5,25.5C 38.5,25.1667 38.5,24.8333 38.5,24.5C 39.8333,24.1667 39.8333,23.8333 38.5,23.5 Z"/></g>
<g><path style="opacity:0.008" fill="#fff9e2" d="M 30.5,30.5 C 29.8333,30.5 29.5,30.8333 29.5,31.5C 28.8333,31.5 28.5,31.8333 28.5,32.5C 27.8333,32.5 27.5,32.8333 27.5,33.5C 26.8333,33.5 26.5,33.8333 26.5,34.5C 25.8333,34.5 25.5,34.8333 25.5,35.5C 24.8333,35.5 24.5,35.8333 24.5,36.5C 23.475,36.1034 23.3083,35.4368 24,34.5C 25.5,33 27,31.5 28.5,30C 29.4368,29.3083 30.1034,29.475 30.5,30.5 Z"/></g>
<g><path style="opacity:1" fill="#f2e7cf" d="M 38.5,23.5 C 38.5,23.8333 38.5,24.1667 38.5,24.5C 37.1667,24.8333 37.1667,25.1667 38.5,25.5C 39.2389,25.369 39.9056,25.5357 40.5,26C 39.7334,27.4705 39.0668,28.9705 38.5,30.5C 37.1429,31.5903 36.1429,32.9236 35.5,34.5C 33.9348,36.5093 32.9348,38.8427 32.5,41.5C 32.0624,47.1273 29.2291,49.4607 24,48.5C 22.7835,41.9963 21.1168,41.9963 19,48.5C 18.5172,47.552 18.3505,46.552 18.5,45.5C 18.5,45.1667 18.5,44.8333 18.5,44.5C 20.4884,41.8717 22.4884,39.205 24.5,36.5C 25.1667,36.5 25.5,36.1667 25.5,35.5C 26.1667,35.5 26.5,35.1667 26.5,34.5C 27.1667,34.5 27.5,34.1667 27.5,33.5C 28.1667,33.5 28.5,33.1667 28.5,32.5C 29.1667,32.5 29.5,32.1667 29.5,31.5C 30.1667,31.5 30.5,31.1667 30.5,30.5C 31.4718,29.1316 32.4718,27.6316 33.5,26C 35.0779,24.9055 36.7446,24.0722 38.5,23.5 Z"/></g>
<g><path style="opacity:1" fill="#eee3ca" d="M 61.5,31.5 C 63.7724,33.8082 64.1057,36.4749 62.5,39.5C 55.6995,43.5593 48.3661,46.5593 40.5,48.5C 36.2409,47.9035 33.5743,45.5702 32.5,41.5C 32.9348,38.8427 33.9348,36.5093 35.5,34.5C 35.0569,39.272 36.5569,43.272 40,46.5C 47.4441,43.7113 53.7775,39.378 59,33.5C 59.6667,32.1667 59.6667,30.8333 59,29.5C 54.4549,23.5111 55.2882,23.0111 61.5,28C 60.2089,29.2917 60.2089,30.4583 61.5,31.5 Z"/></g>
<g><path style="opacity:0.012" fill="#feaaa9" d="M 78.5,39.5 C 79.8333,40.1667 79.8333,40.1667 78.5,39.5 Z"/></g>
<g><path style="opacity:1" fill="#eadcbe" d="M 68.5,31.5 C 69.8333,31.1667 69.8333,30.8333 68.5,30.5C 68.8966,29.475 69.5632,29.3083 70.5,30C 72.3333,31.8333 74.1667,33.6667 76,35.5C 75.0756,37.8089 75.9089,39.4755 78.5,40.5C 78.4614,41.7562 78.9614,42.7562 80,43.5C 80.6667,42.1667 81.3333,42.1667 82,43.5C 82.6917,44.4368 82.525,45.1034 81.5,45.5C 81.1667,44.1667 80.8333,44.1667 80.5,45.5C 81.8916,48.0254 81.5582,50.1921 79.5,52C 76.8333,52.6667 74.1667,52.6667 71.5,52C 70.2668,50.3333 68.9335,48.8333 67.5,47.5C 67.7845,45.5853 67.4511,43.9187 66.5,42.5C 66.2914,41.0783 65.7914,39.745 65,38.5C 64.6667,40.8333 64.3333,43.1667 64,45.5C 53.7198,50.186 42.8865,52.5194 31.5,52.5C 31.5408,48.7566 30.8741,48.5899 29.5,52C 25.5522,54.0749 21.7189,53.9082 18,51.5C 17.0814,54.4016 16.2481,54.7349 15.5,52.5C 15.1667,49.8333 14.8333,49.8333 14.5,52.5C 13.6618,52.8417 13.3284,53.5084 13.5,54.5C 13.5,54.8333 13.5,55.1667 13.5,55.5C 13.1667,55.5 12.8333,55.5 12.5,55.5C 12.3433,54.1266 12.51,52.7932 13,51.5C 14.0686,49.2932 15.2353,47.9598 16.5,47.5C 17.3382,47.1583 17.6716,46.4916 17.5,45.5C 17.8333,45.5 18.1667,45.5 18.5,45.5C 18.3505,46.552 18.5172,47.552 19,48.5C 21.1168,41.9963 22.7835,41.9963 24,48.5C 29.2291,49.4607 32.0624,47.1273 32.5,41.5C 33.5743,45.5702 36.2409,47.9035 40.5,48.5C 48.3661,46.5593 55.6995,43.5593 62.5,39.5C 64.1057,36.4749 63.7724,33.8082 61.5,31.5C 61.811,30.5222 62.4777,29.8555 63.5,29.5C 64.8498,30.9501 66.5165,31.6168 68.5,31.5 Z"/></g>
<g><path style="opacity:0.02" fill="#ffe8bd" d="M 18.5,44.5 C 17.8333,44.5 17.5,44.8333 17.5,45.5C 17.1667,45.5 16.8333,45.5 16.5,45.5C 17.032,42.5404 17.6987,42.2071 18.5,44.5 Z"/></g>
<g><path style="opacity:0.012" fill="#fffec6" d="M 16.5,45.5 C 16.5,46.1667 16.5,46.8333 16.5,47.5C 15.1667,46.8333 15.1667,46.1667 16.5,45.5 Z"/></g>
<g><path style="opacity:1" fill="#e6d8b6" d="M 66.5,42.5 C 66.8158,45.9783 66.3158,49.3117 65,52.5C 64.586,52.0426 64.086,51.7093 63.5,51.5C 53.4235,53.865 43.2569,55.865 33,57.5C 31.5272,57.0969 30.1939,56.4303 29,55.5C 24.6803,57.7751 20.1803,58.1084 15.5,56.5C 14.6618,56.1583 14.3284,55.4916 14.5,54.5C 14.5,53.8333 14.5,53.1667 14.5,52.5C 14.8333,52.5 15.1667,52.5 15.5,52.5C 16.2481,54.7349 17.0814,54.4016 18,51.5C 21.7189,53.9082 25.5522,54.0749 29.5,52C 30.8741,48.5899 31.5408,48.7566 31.5,52.5C 42.8865,52.5194 53.7198,50.186 64,45.5C 64.3333,43.1667 64.6667,40.8333 65,38.5C 65.7914,39.745 66.2914,41.0783 66.5,42.5 Z"/></g>
<g><path style="opacity:1" fill="#d8c597" d="M 80.5,45.5 C 80.8333,45.5 81.1667,45.5 81.5,45.5C 82.0447,47.5932 82.878,49.5932 84,51.5C 84.3333,50.8333 84.6667,50.1667 85,49.5C 86.0086,51.0249 86.5086,52.6916 86.5,54.5C 85.5318,56.6074 85.1984,58.9407 85.5,61.5C 84.0689,61.1193 83.2355,60.1193 83,58.5C 77.9222,63.9606 73.5889,63.6273 70,57.5C 69.5172,58.448 69.3505,59.448 69.5,60.5C 60.1629,62.2669 50.4962,63.4336 40.5,64C 36.9462,64.1969 33.7795,65.3635 31,67.5C 30.0497,66.9777 29.2164,66.311 28.5,65.5C 24.3024,66.8085 20.1357,66.8085 16,65.5C 14.3702,66.8179 14.2035,68.1512 15.5,69.5C 15.5,70.8333 15.5,72.1667 15.5,73.5C 15.5,74.1667 15.5,74.8333 15.5,75.5C 14.6618,75.8417 14.3284,76.5084 14.5,77.5C 12.9261,75.8984 12.2594,73.8984 12.5,71.5C 13.4881,66.3595 13.8214,61.0262 13.5,55.5C 13.5,55.1667 13.5,54.8333 13.5,54.5C 13.8333,54.5 14.1667,54.5 14.5,54.5C 14.3284,55.4916 14.6618,56.1583 15.5,56.5C 14.5269,58.0683 14.3603,59.735 15,61.5C 19.7775,60.6853 24.6109,60.0186 29.5,59.5C 29.3505,60.552 29.5172,61.552 30,62.5C 40.7539,60.4285 51.5873,58.5952 62.5,57C 63.7659,56.6905 64.9326,56.1905 66,55.5C 67.0793,52.9373 67.5793,50.2706 67.5,47.5C 68.9335,48.8333 70.2668,50.3333 71.5,52C 74.1667,52.6667 76.8333,52.6667 79.5,52C 81.5582,50.1921 81.8916,48.0254 80.5,45.5 Z"/></g>
<g><path style="opacity:1" fill="#dfcea5" d="M 66.5,42.5 C 67.4511,43.9187 67.7845,45.5853 67.5,47.5C 67.5793,50.2706 67.0793,52.9373 66,55.5C 64.9326,56.1905 63.7659,56.6905 62.5,57C 51.5873,58.5952 40.7539,60.4285 30,62.5C 29.5172,61.552 29.3505,60.552 29.5,59.5C 24.6109,60.0186 19.7775,60.6853 15,61.5C 14.3603,59.735 14.5269,58.0683 15.5,56.5C 20.1803,58.1084 24.6803,57.7751 29,55.5C 30.1939,56.4303 31.5272,57.0969 33,57.5C 43.2569,55.865 53.4235,53.865 63.5,51.5C 64.086,51.7093 64.586,52.0426 65,52.5C 66.3158,49.3117 66.8158,45.9783 66.5,42.5 Z"/></g>
<g><path style="opacity:0.004" fill="#b1a382" d="M 86.5,54.5 C 87.6225,56.2884 87.7891,58.2884 87,60.5C 86.5045,58.5273 86.3379,56.5273 86.5,54.5 Z"/></g>
<g><path style="opacity:0.008" fill="#f4f1d0" d="M 12.5,55.5 C 12.6621,57.5273 12.4955,59.5273 12,61.5C 11.2109,59.2884 11.3775,57.2884 12.5,55.5 Z"/></g>
<g><path style="opacity:0.004" fill="#fefffe" d="M 87.5,61.5 C 88.5983,62.6009 88.765,63.9343 88,65.5C 87.51,64.2068 87.3433,62.8734 87.5,61.5 Z"/></g>
<g><path style="opacity:0.004" fill="#febda8" d="M 12.5,71.5 C 11.3709,69.3718 11.2042,67.0385 12,64.5C 12.4966,66.8098 12.6633,69.1432 12.5,71.5 Z"/></g>
<g><path style="opacity:1" fill="#ccb580" d="M 69.5,60.5 C 69.5,62.1667 69.5,63.8333 69.5,65.5C 68.3731,70.6871 67.3731,70.5204 66.5,65C 56.8215,65.1217 47.1548,65.7884 37.5,67C 31.2314,69.0878 24.5647,69.7544 17.5,69C 16.1776,66.8324 15.5109,66.9991 15.5,69.5C 14.2035,68.1512 14.3702,66.8179 16,65.5C 20.1357,66.8085 24.3024,66.8085 28.5,65.5C 29.2164,66.311 30.0497,66.9777 31,67.5C 33.7795,65.3635 36.9462,64.1969 40.5,64C 50.4962,63.4336 60.1629,62.2669 69.5,60.5 Z"/></g>
<g><path style="opacity:1" fill="#c8ae77" d="M 85.5,61.5 C 85.9396,64.962 85.9396,68.6287 85.5,72.5C 84.596,73.209 84.2627,74.209 84.5,75.5C 83.6618,75.8417 83.3284,76.5084 83.5,77.5C 83.1667,77.5 82.8333,77.5 82.5,77.5C 81.8856,74.6916 80.7189,72.0249 79,69.5C 77.2739,70.5762 75.4406,70.7429 73.5,70C 72.3012,68.3057 70.9678,66.8057 69.5,65.5C 69.5,63.8333 69.5,62.1667 69.5,60.5C 69.3505,59.448 69.5172,58.448 70,57.5C 73.5889,63.6273 77.9222,63.9606 83,58.5C 83.2355,60.1193 84.0689,61.1193 85.5,61.5 Z"/></g>
<g><path style="opacity:1" fill="#bda36a" d="M 69.5,65.5 C 70.9678,66.8057 72.3012,68.3057 73.5,70C 75.4406,70.7429 77.2739,70.5762 79,69.5C 80.7189,72.0249 81.8856,74.6916 82.5,77.5C 82.5,78.1667 82.5,78.8333 82.5,79.5C 81.6618,79.8417 81.3284,80.5084 81.5,81.5C 80.8333,81.5 80.5,81.8333 80.5,82.5C 79.6618,82.8417 79.3284,83.5084 79.5,84.5C 79.1667,84.5 78.8333,84.5 78.5,84.5C 78.1667,84.5 77.8333,84.5 77.5,84.5C 77.7031,82.9557 78.3698,81.6223 79.5,80.5C 78.005,77.8195 75.6717,76.3195 72.5,76C 71.2283,74.6932 70.2283,73.1932 69.5,71.5C 68.0363,77.7296 65.703,78.0629 62.5,72.5C 61.3926,71.9781 60.2259,71.6448 59,71.5C 47.1152,72.0156 35.2819,73.0156 23.5,74.5C 21.5711,74.4604 19.7378,74.1271 18,73.5C 17.6667,74.5 17.3333,75.5 17,76.5C 16.7679,75.2625 16.2679,74.2625 15.5,73.5C 15.5,72.1667 15.5,70.8333 15.5,69.5C 15.5109,66.9991 16.1776,66.8324 17.5,69C 24.5647,69.7544 31.2314,69.0878 37.5,67C 47.1548,65.7884 56.8215,65.1217 66.5,65C 67.3731,70.5204 68.3731,70.6871 69.5,65.5 Z"/></g>
<g><path style="opacity:0.008" fill="#e39a70" d="M 86.5,72.5 C 86.3379,70.4727 86.5045,68.4727 87,66.5C 87.7891,68.7116 87.6225,70.7116 86.5,72.5 Z"/></g>
<g><path style="opacity:0.012" fill="#be9584" d="M 85.5,72.5 C 85.8333,72.5 86.1667,72.5 86.5,72.5C 86.7373,73.791 86.404,74.791 85.5,75.5C 85.5,74.5 85.5,73.5 85.5,72.5 Z"/></g>
<g><path style="opacity:0.012" fill="#b2b078" d="M 84.5,75.5 C 84.8333,75.5 85.1667,75.5 85.5,75.5C 85.6716,76.4916 85.3382,77.1583 84.5,77.5C 84.5,76.8333 84.5,76.1667 84.5,75.5 Z"/></g>
<g><path style="opacity:1" fill="#ae9156" d="M 77.5,84.5 C 73.9432,83.287 70.4432,81.9537 67,80.5C 66.6174,81.056 66.1174,81.3893 65.5,81.5C 63.6406,80.4058 61.6406,79.5725 59.5,79C 52.1039,78.7004 44.7706,77.867 37.5,76.5C 35.626,76.3898 34.126,77.0564 33,78.5C 32.3333,77.8333 31.6667,77.1667 31,76.5C 30.1667,78 29,79.1667 27.5,80C 25.0995,80.1858 22.7662,80.6858 20.5,81.5C 20.8627,82.1835 21.1961,82.8501 21.5,83.5C 20.8333,83.5 20.1667,83.5 19.5,83.5C 19.5,82.8333 19.1667,82.5 18.5,82.5C 18.0679,81.2905 17.4013,80.2905 16.5,79.5C 16.6716,78.5084 16.3382,77.8417 15.5,77.5C 15.5,76.8333 15.5,76.1667 15.5,75.5C 15.5,74.8333 15.5,74.1667 15.5,73.5C 16.2679,74.2625 16.7679,75.2625 17,76.5C 17.3333,75.5 17.6667,74.5 18,73.5C 19.7378,74.1271 21.5711,74.4604 23.5,74.5C 35.2819,73.0156 47.1152,72.0156 59,71.5C 60.2259,71.6448 61.3926,71.9781 62.5,72.5C 65.703,78.0629 68.0363,77.7296 69.5,71.5C 70.2283,73.1932 71.2283,74.6932 72.5,76C 75.6717,76.3195 78.005,77.8195 79.5,80.5C 78.3698,81.6223 77.7031,82.9557 77.5,84.5 Z"/></g>
<g><path style="opacity:0.004" fill="#38201f" d="M 14.5,77.5 C 14.8333,77.5 15.1667,77.5 15.5,77.5C 15.5,78.1667 15.5,78.8333 15.5,79.5C 14.6618,79.1583 14.3284,78.4916 14.5,77.5 Z"/></g>
<g><path style="opacity:1" fill="#a6874c" d="M 65.5,81.5 C 64.6219,84.7036 62.4552,86.3702 59,86.5C 55.2148,86.5444 51.3814,86.2111 47.5,85.5C 43.8893,84.014 40.2227,82.6806 36.5,81.5C 34.4154,82.6469 32.9154,81.9803 32,79.5C 31.8898,81.8483 30.7231,83.3483 28.5,84C 25.8097,84.1837 23.4763,84.017 21.5,83.5C 21.1961,82.8501 20.8627,82.1835 20.5,81.5C 22.7662,80.6858 25.0995,80.1858 27.5,80C 29,79.1667 30.1667,78 31,76.5C 31.6667,77.1667 32.3333,77.8333 33,78.5C 34.126,77.0564 35.626,76.3898 37.5,76.5C 44.7706,77.867 52.1039,78.7004 59.5,79C 61.6406,79.5725 63.6406,80.4058 65.5,81.5 Z"/></g>
<g><path style="opacity:0.008" fill="#8e8c72" d="M 83.5,77.5 C 83.8333,77.5 84.1667,77.5 84.5,77.5C 84.6716,78.4916 84.3382,79.1583 83.5,79.5C 83.5,78.8333 83.5,78.1667 83.5,77.5 Z"/></g>
<g><path style="opacity:0.004" fill="#cba7a1" d="M 15.5,79.5 C 15.8333,79.5 16.1667,79.5 16.5,79.5C 16.1667,82.1667 15.8333,82.1667 15.5,79.5 Z"/></g>
<g><path style="opacity:0.008" fill="#ff6459" d="M 82.5,79.5 C 82.8333,79.5 83.1667,79.5 83.5,79.5C 83.6716,80.4916 83.3382,81.1583 82.5,81.5C 82.5,80.8333 82.5,80.1667 82.5,79.5 Z"/></g>
<g><path style="opacity:0.004" fill="#e4e05a" d="M 81.5,81.5 C 81.8333,81.5 82.1667,81.5 82.5,81.5C 82.573,83.0269 81.9063,84.0269 80.5,84.5C 80.5,83.8333 80.5,83.1667 80.5,82.5C 81.1667,82.5 81.5,82.1667 81.5,81.5 Z"/></g>
<g><path style="opacity:0.008" fill="#7e7f7e" d="M 79.5,84.5 C 79.8333,84.5 80.1667,84.5 80.5,84.5C 80.3147,85.1701 79.9813,85.1701 79.5,84.5 Z"/></g>
<g><path style="opacity:0.012" fill="#a95554" d="M 78.5,85.5 C 78.8333,85.5 79.1667,85.5 79.5,85.5C 79.3147,86.1701 78.9813,86.1701 78.5,85.5 Z"/></g>
<g><path style="opacity:0.997" fill="#967440" d="M 65.5,81.5 C 66.1174,81.3893 66.6174,81.056 67,80.5C 70.4432,81.9537 73.9432,83.287 77.5,84.5C 77.8333,84.5 78.1667,84.5 78.5,84.5C 78.5,84.8333 78.5,85.1667 78.5,85.5C 77.1667,85.8333 77.1667,86.1667 78.5,86.5C 77.7377,88.2624 76.4044,89.2624 74.5,89.5C 73.8333,88.1667 73.1667,88.1667 72.5,89.5C 67.1667,89.8333 67.1667,90.1667 72.5,90.5C 66.5107,91.8673 60.5107,92.8673 54.5,93.5C 51.1667,92.1667 47.8333,92.1667 44.5,93.5C 42.323,93.4139 40.323,92.7472 38.5,91.5C 32.3016,93.0347 26.6349,91.868 21.5,88C 21.6192,86.7188 21.1192,85.5521 20,84.5C 19.3333,85.8333 18.6667,85.8333 18,84.5C 17.3083,83.5632 17.475,82.8966 18.5,82.5C 19.1667,82.5 19.5,82.8333 19.5,83.5C 20.1667,83.5 20.8333,83.5 21.5,83.5C 23.4763,84.017 25.8097,84.1837 28.5,84C 30.7231,83.3483 31.8898,81.8483 32,79.5C 32.9154,81.9803 34.4154,82.6469 36.5,81.5C 40.2227,82.6806 43.8893,84.014 47.5,85.5C 51.3814,86.2111 55.2148,86.5444 59,86.5C 62.4552,86.3702 64.6219,84.7036 65.5,81.5 Z"/></g>
<g><path style="opacity:0.008" fill="#73702b" d="M 72.5,90.5 C 72.5,90.1667 72.5,89.8333 72.5,89.5C 73.1667,89.5 73.8333,89.5 74.5,89.5C 74.1583,90.3382 73.4916,90.6716 72.5,90.5 Z"/></g>
<g><path style="opacity:0.008" fill="#8b7f13" d="M 44.5,93.5 C 47.8333,93.5 51.1667,93.5 54.5,93.5C 51.1667,94.8333 47.8333,94.8333 44.5,93.5 Z"/></g>
</svg>
