<?xml version="1.0" encoding="UTF-8"?>
<!DOCTYPE svg PUBLIC "-//W3C//DTD SVG 1.1//EN" "http://www.w3.org/Graphics/SVG/1.1/DTD/svg11.dtd">
<svg xmlns="http://www.w3.org/2000/svg" version="1.1" width="100px" height="100px" style="shape-rendering:geometricPrecision; text-rendering:geometricPrecision; image-rendering:optimizeQuality; fill-rule:evenodd; clip-rule:evenodd" xmlns:xlink="http://www.w3.org/1999/xlink">
<g><path style="opacity:0.012" fill="#fbb05f" d="M 62.5,8.5 C 64.9664,7.36594 67.633,7.19927 70.5,8C 67.854,8.49742 65.1873,8.66409 62.5,8.5 Z"/></g>
<g><path style="opacity:0.004" fill="#fffe89" d="M 60.5,10.5 C 59.8333,10.5 59.5,10.8333 59.5,11.5C 58.8333,11.5 58.5,11.8333 58.5,12.5C 58.1667,12.5 57.8333,12.5 57.5,12.5C 57.6682,9.9486 58.6682,9.28194 60.5,10.5 Z"/></g>
<g><path style="opacity:1" fill="#f7c369" d="M 76.5,14.5 C 76.5,15.1667 76.1667,15.5 75.5,15.5C 73.4157,12.2942 70.4157,10.9609 66.5,11.5C 65.4324,10.5655 64.099,10.2322 62.5,10.5C 65.6954,9.76396 69.0287,9.09729 72.5,8.5C 73.0827,10.5271 74.4161,12.5271 76.5,14.5 Z"/></g>
<g><path style="opacity:0.996" fill="#fdd558" d="M 60.5,10.5 C 61.1667,10.5 61.8333,10.5 62.5,10.5C 64.099,10.2322 65.4324,10.5655 66.5,11.5C 64.6203,11.2291 63.287,11.8958 62.5,13.5C 60.8828,14.038 59.2161,14.3713 57.5,14.5C 57.5,14.1667 57.5,13.8333 57.5,13.5C 58.1667,13.5 58.5,13.1667 58.5,12.5C 59.1667,12.5 59.5,12.1667 59.5,11.5C 60.1667,11.5 60.5,11.1667 60.5,10.5 Z"/></g>
<g><path style="opacity:0.98" fill="#d98719" d="M 66.5,11.5 C 70.4157,10.9609 73.4157,12.2942 75.5,15.5C 74.8333,15.5 74.1667,15.5 73.5,15.5C 73.0269,14.0937 72.0269,13.427 70.5,13.5C 67.8707,12.2857 65.204,12.2857 62.5,13.5C 63.287,11.8958 64.6203,11.2291 66.5,11.5 Z"/></g>
<g><path style="opacity:0.004" fill="#feff00" d="M 93.5,12.5 C 94.8333,13.1667 94.8333,13.1667 93.5,12.5 Z"/></g>
<g><path style="opacity:0.012" fill="#ffed68" d="M 57.5,12.5 C 57.5,12.8333 57.5,13.1667 57.5,13.5C 56.6618,13.8417 56.3284,14.5084 56.5,15.5C 55.1148,14.0527 55.4482,13.0527 57.5,12.5 Z"/></g>
<g><path style="opacity:0.627" fill="#6f2d17" d="M 70.5,13.5 C 71.6005,14.6049 72.2671,15.9382 72.5,17.5C 72.1667,17.5 71.8333,17.5 71.5,17.5C 71.1667,16.1667 70.8333,16.1667 70.5,17.5C 68.8828,16.962 67.2161,16.6287 65.5,16.5C 65.1667,16.5 64.8333,16.5 64.5,16.5C 64.5,15.8333 64.1667,15.5 63.5,15.5C 61.8333,15.5 60.1667,15.5 58.5,15.5C 58.1667,15.5 57.8333,15.5 57.5,15.5C 57.5,15.1667 57.5,14.8333 57.5,14.5C 59.2161,14.3713 60.8828,14.038 62.5,13.5C 65.204,12.2857 67.8707,12.2857 70.5,13.5 Z"/></g>
<g><path style="opacity:0.863" fill="#f0bb63" d="M 93.5,12.5 C 85.5,12.8333 85.5,13.1667 93.5,13.5C 93.5,14.1667 93.5,14.8333 93.5,15.5C 93.1667,15.5 92.8333,15.5 92.5,15.5C 90.0185,14.7417 87.3519,14.7417 84.5,15.5C 84.1667,14.1667 83.8333,14.1667 83.5,15.5C 83.1667,15.5 82.8333,15.5 82.5,15.5C 82.1667,15.5 81.8333,15.5 81.5,15.5C 82.4525,13.39 84.1192,12.2233 86.5,12C 89.0385,11.2042 91.3718,11.3709 93.5,12.5 Z"/></g>
<g><path style="opacity:0.008" fill="#7e7f00" d="M 56.5,15.5 C 56.8333,15.5 57.1667,15.5 57.5,15.5C 57.3147,16.1701 56.9813,16.1701 56.5,15.5 Z"/></g>
<g><path style="opacity:0.357" fill="#5e381b" d="M 58.5,15.5 C 60.1667,15.5 61.8333,15.5 63.5,15.5C 64.1667,15.5 64.5,15.8333 64.5,16.5C 64.8333,16.5 65.1667,16.5 65.5,16.5C 64.063,17.7255 62.3964,18.7255 60.5,19.5C 60.6545,18.1645 59.9879,16.8311 58.5,15.5 Z"/></g>
<g><path style="opacity:1" fill="#f9c35a" d="M 92.5,15.5 C 87.2157,15.6448 82.8823,17.6448 79.5,21.5C 77.2043,21.1959 76.871,20.1959 78.5,18.5C 79.1667,18.5 79.5,18.1667 79.5,17.5C 80.8333,17.1667 80.8333,16.8333 79.5,16.5C 79.5,16.1667 79.5,15.8333 79.5,15.5C 80.1667,15.5 80.8333,15.5 81.5,15.5C 81.8333,16.8333 82.1667,16.8333 82.5,15.5C 82.8333,15.5 83.1667,15.5 83.5,15.5C 83.8333,15.5 84.1667,15.5 84.5,15.5C 87.3519,14.7417 90.0185,14.7417 92.5,15.5 Z"/></g>
<g><path style="opacity:0.004" fill="#b42806" d="M 94.5,15.5 C 95.3023,14.1153 95.9689,14.282 96.5,16C 96.3613,17.301 95.6946,18.1344 94.5,18.5C 94.5,17.8333 94.5,17.1667 94.5,16.5C 95.8333,16.1667 95.8333,15.8333 94.5,15.5 Z"/></g>
<g><path style="opacity:0.016" fill="#d26e19" d="M 70.5,13.5 C 72.0269,13.427 73.0269,14.0937 73.5,15.5C 73.5,17.8333 73.5,20.1667 73.5,22.5C 72.8333,22.5 72.5,22.8333 72.5,23.5C 71.8333,23.5 71.5,23.8333 71.5,24.5C 70.5318,22.3926 70.1984,20.0593 70.5,17.5C 70.8333,17.5 71.1667,17.5 71.5,17.5C 71.8333,22.8333 72.1667,22.8333 72.5,17.5C 72.2671,15.9382 71.6005,14.6049 70.5,13.5 Z"/></g>
<g><path style="opacity:0.463" fill="#6c3b1b" d="M 93.5,17.5 C 93.5,17.8333 93.5,18.1667 93.5,18.5C 92.209,18.2627 91.209,18.596 90.5,19.5C 89.1667,19.8333 89.1667,20.1667 90.5,20.5C 88.7857,21.7384 86.7857,22.405 84.5,22.5C 84.5,21.8333 84.1667,21.5 83.5,21.5C 86.113,18.8404 89.4463,17.5071 93.5,17.5 Z"/></g>
<g><path style="opacity:0.004" fill="#000000" d="M 93.5,18.5 C 93.8333,18.5 94.1667,18.5 94.5,18.5C 94.3147,19.1701 93.9813,19.1701 93.5,18.5 Z"/></g>
<g><path style="opacity:0.533" fill="#edcdf4" d="M 44.5,17.5 C 43.1667,17.8333 43.1667,18.1667 44.5,18.5C 44.1667,19.1667 43.8333,19.8333 43.5,20.5C 41.5887,21.075 39.922,22.075 38.5,23.5C 38.5106,21.9826 39.1772,20.8159 40.5,20C 40.1667,19.6667 39.8333,19.3333 39.5,19C 41.0701,17.1655 42.7368,16.6655 44.5,17.5 Z"/></g>
<g><path style="opacity:0.682" fill="#dfbde9" d="M 55.5,20.5 C 55.5,20.8333 55.5,21.1667 55.5,21.5C 54.8333,21.5 54.1667,21.5 53.5,21.5C 53.1667,21.5 52.8333,21.5 52.5,21.5C 52.5,20.8333 52.1667,20.5 51.5,20.5C 51.3893,19.8826 51.056,19.3826 50.5,19C 48.5273,18.5045 46.5273,18.3379 44.5,18.5C 44.5,18.1667 44.5,17.8333 44.5,17.5C 47.0661,17.6556 49.5661,17.3223 52,16.5C 53.6111,17.5819 54.7778,18.9152 55.5,20.5 Z"/></g>
<g><path style="opacity:0.016" fill="#552305" d="M 90.5,20.5 C 90.5,20.1667 90.5,19.8333 90.5,19.5C 91.5,19.5 92.5,19.5 93.5,19.5C 92.791,20.404 91.791,20.7373 90.5,20.5 Z"/></g>
<g><path style="opacity:0.992" fill="#dd9dea" d="M 44.5,18.5 C 46.5273,18.3379 48.5273,18.5045 50.5,19C 51.056,19.3826 51.3893,19.8826 51.5,20.5C 49.3792,20.3253 47.3792,20.6586 45.5,21.5C 45.1583,20.6618 44.4916,20.3284 43.5,20.5C 43.8333,19.8333 44.1667,19.1667 44.5,18.5 Z"/></g>
<g><path style="opacity:1" fill="#d77c0f" d="M 73.5,15.5 C 74.1667,15.5 74.8333,15.5 75.5,15.5C 75.5,18.5 75.5,21.5 75.5,24.5C 75.5,25.1667 75.1667,25.5 74.5,25.5C 74.7373,24.209 74.404,23.209 73.5,22.5C 73.5,20.1667 73.5,17.8333 73.5,15.5 Z"/></g>
<g><path style="opacity:0.992" fill="#c27734" d="M 79.5,15.5 C 79.5,15.8333 79.5,16.1667 79.5,16.5C 79.5,16.8333 79.5,17.1667 79.5,17.5C 78.8333,17.5 78.5,17.8333 78.5,18.5C 76.871,20.1959 77.2043,21.1959 79.5,21.5C 79.5,21.8333 79.5,22.1667 79.5,22.5C 78.1667,23.1667 76.8333,23.8333 75.5,24.5C 75.5,21.5 75.5,18.5 75.5,15.5C 76.1667,15.5 76.5,15.1667 76.5,14.5C 77.8946,13.1854 78.8946,13.5188 79.5,15.5 Z"/></g>
<g><path style="opacity:0.875" fill="#99480f" d="M 92.5,15.5 C 92.8333,15.5 93.1667,15.5 93.5,15.5C 93.8333,15.5 94.1667,15.5 94.5,15.5C 94.5,15.8333 94.5,16.1667 94.5,16.5C 93.8333,16.5 93.5,16.8333 93.5,17.5C 89.4463,17.5071 86.113,18.8404 83.5,21.5C 84.1667,21.5 84.5,21.8333 84.5,22.5C 83.7377,24.2624 82.4044,25.2624 80.5,25.5C 80.5,25.1667 80.5,24.8333 80.5,24.5C 81.1667,24.5 81.5,24.1667 81.5,23.5C 82.8333,23.1667 82.8333,22.8333 81.5,22.5C 80.8333,22.5 80.1667,22.5 79.5,22.5C 79.5,22.1667 79.5,21.8333 79.5,21.5C 82.8823,17.6448 87.2157,15.6448 92.5,15.5 Z"/></g>
<g><path style="opacity:1" fill="#d496d9" d="M 55.5,20.5 C 58.0949,20.0403 59.7615,21.3737 60.5,24.5C 60.1667,24.5 59.8333,24.5 59.5,24.5C 59.1667,23.1667 58.8333,23.1667 58.5,24.5C 56.9382,24.2671 55.6049,23.6005 54.5,22.5C 53.8333,22.5 53.5,22.1667 53.5,21.5C 54.1667,21.5 54.8333,21.5 55.5,21.5C 56.8333,21.1667 56.8333,20.8333 55.5,20.5 Z"/></g>
<g><path style="opacity:1" fill="#a729bb" d="M 52.5,21.5 C 52.8333,21.5 53.1667,21.5 53.5,21.5C 53.5,22.1667 53.8333,22.5 54.5,22.5C 52.4777,24.6928 49.8111,25.6928 46.5,25.5C 47.2341,24.2921 47.5674,22.9587 47.5,21.5C 49.1667,21.5 50.8333,21.5 52.5,21.5 Z"/></g>
<g><path style="opacity:0.229" fill="#eae7eb" d="M 37.5,23.5 C 36.6618,23.8417 36.3284,24.5084 36.5,25.5C 34.1667,25.5 31.8333,25.5 29.5,25.5C 29.5,25.1667 29.5,24.8333 29.5,24.5C 29.8333,24.5 30.1667,24.5 30.5,24.5C 37.1667,24.1667 37.1667,23.8333 30.5,23.5C 30.1667,23.5 29.8333,23.5 29.5,23.5C 31.8927,22.79 34.3927,22.1233 37,21.5C 37.4643,22.0944 37.631,22.7611 37.5,23.5 Z"/></g>
<g><path style="opacity:1" fill="#e6ade8" d="M 43.5,20.5 C 44.4916,20.3284 45.1583,20.6618 45.5,21.5C 43.8622,23.3008 42.0289,24.9675 40,26.5C 39.6667,25.8333 39.3333,25.1667 39,24.5C 38.5831,25.756 37.7498,26.4226 36.5,26.5C 34.8333,26.5 33.1667,26.5 31.5,26.5C 30.8333,26.5 30.1667,26.5 29.5,26.5C 29.5,26.1667 29.5,25.8333 29.5,25.5C 31.8333,25.5 34.1667,25.5 36.5,25.5C 37.3382,25.1583 37.6716,24.4916 37.5,23.5C 37.8333,23.5 38.1667,23.5 38.5,23.5C 39.922,22.075 41.5887,21.075 43.5,20.5 Z"/></g>
<g><path style="opacity:1" fill="#992bab" d="M 54.5,22.5 C 55.6049,23.6005 56.9382,24.2671 58.5,24.5C 58.5,25.1667 58.5,25.8333 58.5,26.5C 56.2362,27.2186 53.9029,27.552 51.5,27.5C 49.5,27.5 47.5,27.5 45.5,27.5C 45.8333,26.8333 46.1667,26.1667 46.5,25.5C 49.8111,25.6928 52.4777,24.6928 54.5,22.5 Z"/></g>
<g><path style="opacity:1" fill="#7e3f1b" d="M 79.5,22.5 C 80.1667,22.5 80.8333,22.5 81.5,22.5C 81.5,22.8333 81.5,23.1667 81.5,23.5C 80.8333,23.5 80.5,23.8333 80.5,24.5C 79.8333,24.5 79.5,24.8333 79.5,25.5C 78.8333,25.5 78.5,25.8333 78.5,26.5C 77.8333,26.5 77.5,26.8333 77.5,27.5C 76.8333,27.5 76.5,27.8333 76.5,28.5C 75.8333,28.5 75.5,28.8333 75.5,29.5C 74.8333,29.5 74.5,29.8333 74.5,30.5C 74.1667,30.5 73.8333,30.5 73.5,30.5C 73.6716,29.5084 73.3382,28.8417 72.5,28.5C 73.1667,27.5 73.8333,26.5 74.5,25.5C 75.1667,25.5 75.5,25.1667 75.5,24.5C 76.8333,23.8333 78.1667,23.1667 79.5,22.5 Z"/></g>
<g><path style="opacity:0.012" fill="#540000" d="M 79.5,25.5 C 79.8333,25.5 80.1667,25.5 80.5,25.5C 80.3147,26.1701 79.9813,26.1701 79.5,25.5 Z"/></g>
<g><path style="opacity:1" fill="#b73fc1" d="M 51.5,20.5 C 52.1667,20.5 52.5,20.8333 52.5,21.5C 50.8333,21.5 49.1667,21.5 47.5,21.5C 47.5674,22.9587 47.2341,24.2921 46.5,25.5C 46.1667,26.1667 45.8333,26.8333 45.5,27.5C 44.5,27.5 43.5,27.5 42.5,27.5C 44.9717,26.3579 45.9717,24.3579 45.5,21.5C 47.3792,20.6586 49.3792,20.3253 51.5,20.5 Z"/></g>
<g><path style="opacity:0.016" fill="#3e0000" d="M 78.5,26.5 C 78.8333,26.5 79.1667,26.5 79.5,26.5C 79.3147,27.1701 78.9813,27.1701 78.5,26.5 Z"/></g>
<g><path style="opacity:1" fill="#c757c5" d="M 45.5,21.5 C 45.9717,24.3579 44.9717,26.3579 42.5,27.5C 40.9582,28.3007 39.2915,28.634 37.5,28.5C 37.1667,27.8333 36.8333,27.1667 36.5,26.5C 37.7498,26.4226 38.5831,25.756 39,24.5C 39.3333,25.1667 39.6667,25.8333 40,26.5C 42.0289,24.9675 43.8622,23.3008 45.5,21.5 Z"/></g>
<g><path style="opacity:0.906" fill="#fde3ad" d="M 73.5,22.5 C 73.6495,23.552 73.4828,24.552 73,25.5C 70.6278,27.7032 68.4611,30.0365 66.5,32.5C 66.1667,32.5 65.8333,32.5 65.5,32.5C 65.5,32.1667 65.5,31.8333 65.5,31.5C 65.5,31.1667 65.5,30.8333 65.5,30.5C 67.8333,28.8333 69.8333,26.8333 71.5,24.5C 72.1667,24.5 72.5,24.1667 72.5,23.5C 72.5,22.8333 72.8333,22.5 73.5,22.5 Z"/></g>
<g><path style="opacity:0.984" fill="#d78b24" d="M 73.5,22.5 C 74.404,23.209 74.7373,24.209 74.5,25.5C 73.8333,26.5 73.1667,27.5 72.5,28.5C 70.7541,30.2516 68.7541,31.5849 66.5,32.5C 68.4611,30.0365 70.6278,27.7032 73,25.5C 73.4828,24.552 73.6495,23.552 73.5,22.5 Z"/></g>
<g><path style="opacity:0.012" fill="#a95500" d="M 77.5,27.5 C 77.8333,27.5 78.1667,27.5 78.5,27.5C 78.3147,28.1701 77.9813,28.1701 77.5,27.5 Z"/></g>
<g><path style="opacity:1" fill="#c130bc" d="M 31.5,26.5 C 33.1667,26.5 34.8333,26.5 36.5,26.5C 36.8333,27.1667 37.1667,27.8333 37.5,28.5C 37.5,28.8333 37.5,29.1667 37.5,29.5C 37.1667,31.8333 35.8333,33.1667 33.5,33.5C 32.6649,32.0568 31.3316,31.0568 29.5,30.5C 30.1799,29.1401 30.8466,27.8068 31.5,26.5 Z"/></g>
<g><path style="opacity:1" fill="#9e239e" d="M 42.5,27.5 C 43.5,27.5 44.5,27.5 45.5,27.5C 47.5,27.5 49.5,27.5 51.5,27.5C 49.2854,28.2679 46.9521,28.9346 44.5,29.5C 42.1667,29.5 39.8333,29.5 37.5,29.5C 37.5,29.1667 37.5,28.8333 37.5,28.5C 39.2915,28.634 40.9582,28.3007 42.5,27.5 Z"/></g>
<g><path style="opacity:1" fill="#ac78b0" d="M 58.5,24.5 C 58.8333,24.5 59.1667,24.5 59.5,24.5C 59.8333,25.8333 60.1667,25.8333 60.5,24.5C 60.2949,26.1373 60.7949,27.804 62,29.5C 63.2166,27.3876 64.3832,27.7209 65.5,30.5C 64.8333,30.5 64.5,30.8333 64.5,31.5C 62.8333,31.5 61.1667,31.5 59.5,31.5C 60.3325,28.685 59.3325,28.0184 56.5,29.5C 57.1667,28.5 57.8333,27.5 58.5,26.5C 58.5,25.8333 58.5,25.1667 58.5,24.5 Z"/></g>
<g><path style="opacity:0.012" fill="#545500" d="M 76.5,28.5 C 76.8333,28.5 77.1667,28.5 77.5,28.5C 77.3147,29.1701 76.9813,29.1701 76.5,28.5 Z"/></g>
<g><path style="opacity:0.804" fill="#ebc3e8" d="M 29.5,23.5 C 29.8333,23.5 30.1667,23.5 30.5,23.5C 30.5,23.8333 30.5,24.1667 30.5,24.5C 30.1667,24.5 29.8333,24.5 29.5,24.5C 28.1667,24.8333 28.1667,25.1667 29.5,25.5C 29.5,25.8333 29.5,26.1667 29.5,26.5C 28.9101,27.766 28.4101,29.0993 28,30.5C 25.9817,31.2228 24.1484,32.2228 22.5,33.5C 22.933,30.8045 24.2663,28.6379 26.5,27C 25.9683,24.9952 26.9683,23.8286 29.5,23.5 Z"/></g>
<g><path style="opacity:1" fill="#7b1e80" d="M 58.5,26.5 C 57.8333,27.5 57.1667,28.5 56.5,29.5C 54.4352,29.5172 52.4352,29.8505 50.5,30.5C 48.5,30.5 46.5,30.5 44.5,30.5C 44.5,30.1667 44.5,29.8333 44.5,29.5C 46.9521,28.9346 49.2854,28.2679 51.5,27.5C 53.9029,27.552 56.2362,27.2186 58.5,26.5 Z"/></g>
<g><path style="opacity:0.012" fill="#545500" d="M 75.5,29.5 C 75.8333,29.5 76.1667,29.5 76.5,29.5C 76.3147,30.1701 75.9813,30.1701 75.5,29.5 Z"/></g>
<g><path style="opacity:1" fill="#97198a" d="M 37.5,29.5 C 39.8333,29.5 42.1667,29.5 44.5,29.5C 44.5,29.8333 44.5,30.1667 44.5,30.5C 42.5,31.1667 40.5,31.8333 38.5,32.5C 38.6716,33.4916 38.3382,34.1583 37.5,34.5C 36.1667,34.5 34.8333,34.5 33.5,34.5C 33.5,34.1667 33.5,33.8333 33.5,33.5C 35.8333,33.1667 37.1667,31.8333 37.5,29.5 Z"/></g>
<g><path style="opacity:1" fill="#5c1057" d="M 59.5,31.5 C 58.5084,31.3284 57.8417,31.6618 57.5,32.5C 55.9382,32.7329 54.6049,33.3995 53.5,34.5C 51.3926,33.5318 49.0593,33.1984 46.5,33.5C 46.5,33.1667 46.5,32.8333 46.5,32.5C 47.8333,31.8333 49.1667,31.1667 50.5,30.5C 52.4352,29.8505 54.4352,29.5172 56.5,29.5C 59.3325,28.0184 60.3325,28.685 59.5,31.5 Z"/></g>
<g><path style="opacity:0.016" fill="#7e3f00" d="M 74.5,30.5 C 74.8333,30.5 75.1667,30.5 75.5,30.5C 75.3147,31.1701 74.9813,31.1701 74.5,30.5 Z"/></g>
<g><path style="opacity:1" fill="#cf4ec3" d="M 29.5,26.5 C 30.1667,26.5 30.8333,26.5 31.5,26.5C 30.8466,27.8068 30.1799,29.1401 29.5,30.5C 31.3316,31.0568 32.6649,32.0568 33.5,33.5C 30.0613,33.2529 26.728,33.5863 23.5,34.5C 23.1667,34.5 22.8333,34.5 22.5,34.5C 22.5,34.1667 22.5,33.8333 22.5,33.5C 24.1484,32.2228 25.9817,31.2228 28,30.5C 28.4101,29.0993 28.9101,27.766 29.5,26.5 Z"/></g>
<g><path style="opacity:1" fill="#78126d" d="M 44.5,30.5 C 46.5,30.5 48.5,30.5 50.5,30.5C 49.1667,31.1667 47.8333,31.8333 46.5,32.5C 43.8333,32.5 41.1667,32.5 38.5,32.5C 40.5,31.8333 42.5,31.1667 44.5,30.5 Z"/></g>
<g><path style="opacity:0.016" fill="#3e0000" d="M 73.5,31.5 C 73.8333,31.5 74.1667,31.5 74.5,31.5C 74.3147,32.1701 73.9813,32.1701 73.5,31.5 Z"/></g>
<g><path style="opacity:1" fill="#813c18" d="M 72.5,28.5 C 73.3382,28.8417 73.6716,29.5084 73.5,30.5C 73.5,30.8333 73.5,31.1667 73.5,31.5C 72.8333,31.5 72.5,31.8333 72.5,32.5C 71.8333,32.5 71.5,32.8333 71.5,33.5C 70.8333,33.5 70.5,33.8333 70.5,34.5C 70.1667,34.5 69.8333,34.5 69.5,34.5C 68.2905,34.0679 67.2905,33.4013 66.5,32.5C 68.7541,31.5849 70.7541,30.2516 72.5,28.5 Z"/></g>
<g><path style="opacity:0.012" fill="#540000" d="M 72.5,32.5 C 72.8333,32.5 73.1667,32.5 73.5,32.5C 73.3147,33.1701 72.9813,33.1701 72.5,32.5 Z"/></g>
<g><path style="opacity:1" fill="#49053c" d="M 46.5,33.5 C 49.0593,33.1984 51.3926,33.5318 53.5,34.5C 53.1667,35.1667 52.8333,35.8333 52.5,36.5C 51.8333,37.1667 51.1667,37.8333 50.5,38.5C 50.5,37.8333 50.1667,37.5 49.5,37.5C 48.4863,36.3263 47.153,35.6596 45.5,35.5C 43.7078,34.6909 41.7078,34.1909 39.5,34C 41.8098,33.5034 44.1432,33.3367 46.5,33.5 Z"/></g>
<g><path style="opacity:1" fill="#ad2cc1" d="M 65.5,32.5 C 67.1305,35.5623 66.1305,37.229 62.5,37.5C 60.8333,37.5 59.1667,37.5 57.5,37.5C 58.6085,36.71 59.9419,36.21 61.5,36C 60.6634,34.9887 60.33,33.8221 60.5,32.5C 62.1667,32.5 63.8333,32.5 65.5,32.5 Z"/></g>
<g><path style="opacity:1" fill="#b7229a" d="M 33.5,33.5 C 33.5,33.8333 33.5,34.1667 33.5,34.5C 32.5,35.1667 31.5,35.8333 30.5,36.5C 27.6122,37.0102 25.2789,36.3435 23.5,34.5C 26.728,33.5863 30.0613,33.2529 33.5,33.5 Z"/></g>
<g><path style="opacity:1" fill="#750f62" d="M 38.5,32.5 C 41.1667,32.5 43.8333,32.5 46.5,32.5C 46.5,32.8333 46.5,33.1667 46.5,33.5C 44.1432,33.3367 41.8098,33.5034 39.5,34C 41.7078,34.1909 43.7078,34.6909 45.5,35.5C 44.1667,35.5 42.8333,35.5 41.5,35.5C 40.5,35.5 39.5,35.5 38.5,35.5C 37.8333,35.5 37.5,35.1667 37.5,34.5C 38.3382,34.1583 38.6716,33.4916 38.5,32.5 Z"/></g>
<g><path style="opacity:1" fill="#b644c7" d="M 59.5,31.5 C 61.1667,31.5 62.8333,31.5 64.5,31.5C 64.8333,31.5 65.1667,31.5 65.5,31.5C 65.5,31.8333 65.5,32.1667 65.5,32.5C 63.8333,32.5 62.1667,32.5 60.5,32.5C 60.33,33.8221 60.6634,34.9887 61.5,36C 59.9419,36.21 58.6085,36.71 57.5,37.5C 56.2918,38.782 54.9584,38.782 53.5,37.5C 54.8569,35.8144 56.1902,34.1477 57.5,32.5C 57.8417,31.6618 58.5084,31.3284 59.5,31.5 Z"/></g>
<g><path style="opacity:1" fill="#9b1873" d="M 22.5,34.5 C 22.8333,34.5 23.1667,34.5 23.5,34.5C 25.2789,36.3435 27.6122,37.0102 30.5,36.5C 32.7812,36.0773 34.4479,36.744 35.5,38.5C 35.1667,38.5 34.8333,38.5 34.5,38.5C 30.7118,38.7656 26.7118,38.4323 22.5,37.5C 22.5,36.5 22.5,35.5 22.5,34.5 Z"/></g>
<g><path style="opacity:1" fill="#93207f" d="M 33.5,34.5 C 34.8333,34.5 36.1667,34.5 37.5,34.5C 37.5,35.1667 37.8333,35.5 38.5,35.5C 37.8333,36.8333 36.8333,37.8333 35.5,38.5C 34.4479,36.744 32.7812,36.0773 30.5,36.5C 31.5,35.8333 32.5,35.1667 33.5,34.5 Z"/></g>
<g><path style="opacity:1" fill="#9c2fa9" d="M 65.5,32.5 C 65.8333,32.5 66.1667,32.5 66.5,32.5C 67.2905,33.4013 68.2905,34.0679 69.5,34.5C 69.2865,36.1439 69.6198,37.6439 70.5,39C 68.26,39.977 65.9267,40.477 63.5,40.5C 60.2869,40.81 57.2869,40.4767 54.5,39.5C 56.8568,39.6633 59.1902,39.4966 61.5,39C 62.056,38.6174 62.3893,38.1174 62.5,37.5C 66.1305,37.229 67.1305,35.5623 65.5,32.5 Z"/></g>
<g><path style="opacity:1" fill="#9323a7" d="M 45.5,35.5 C 47.153,35.6596 48.4863,36.3263 49.5,37.5C 48.0552,39.0627 46.3885,40.396 44.5,41.5C 44.1667,41.5 43.8333,41.5 43.5,41.5C 44.1667,39.5 44.8333,37.5 45.5,35.5 Z"/></g>
<g><path style="opacity:1" fill="#a02daf" d="M 57.5,32.5 C 56.1902,34.1477 54.8569,35.8144 53.5,37.5C 54.9584,38.782 56.2918,38.782 57.5,37.5C 59.1667,37.5 60.8333,37.5 62.5,37.5C 62.3893,38.1174 62.056,38.6174 61.5,39C 59.1902,39.4966 56.8568,39.6633 54.5,39.5C 53.8333,39.5 53.1667,39.5 52.5,39.5C 52.5,38.5 52.5,37.5 52.5,36.5C 52.8333,35.8333 53.1667,35.1667 53.5,34.5C 54.6049,33.3995 55.9382,32.7329 57.5,32.5 Z"/></g>
<g><path style="opacity:0.055" fill="#bb5a83" d="M 22.5,39.5 C 23.1667,39.5 23.5,39.8333 23.5,40.5C 22.8333,40.5 22.5,40.8333 22.5,41.5C 22.1667,41.5 21.8333,41.5 21.5,41.5C 20.8333,41.5 20.5,41.8333 20.5,42.5C 20.5563,40.506 20.223,38.3394 19.5,36C 20,34.5 20.5,33 21,31.5C 21.1829,34.3647 21.6829,37.0314 22.5,39.5 Z"/></g>
<g><path style="opacity:0.996" fill="#7a124a" d="M 22.5,37.5 C 26.7118,38.4323 30.7118,38.7656 34.5,38.5C 33.5592,40.0495 32.8925,41.7162 32.5,43.5C 31.8333,43.5 31.1667,43.5 30.5,43.5C 29.1667,43.5 27.8333,43.5 26.5,43.5C 25.5084,43.6716 24.8417,43.3382 24.5,42.5C 24.5,41.8333 24.1667,41.5 23.5,41.5C 23.5,41.1667 23.5,40.8333 23.5,40.5C 23.5,39.8333 23.1667,39.5 22.5,39.5C 22.5,38.8333 22.5,38.1667 22.5,37.5 Z"/></g>
<g><path style="opacity:1" fill="#d37bd1" d="M 38.5,35.5 C 39.5,35.5 40.5,35.5 41.5,35.5C 39.9752,37.2163 38.9752,39.2163 38.5,41.5C 36.4214,41.9707 34.4214,42.6373 32.5,43.5C 32.8925,41.7162 33.5592,40.0495 34.5,38.5C 34.8333,38.5 35.1667,38.5 35.5,38.5C 36.8333,37.8333 37.8333,36.8333 38.5,35.5 Z"/></g>
<g><path style="opacity:1" fill="#b336ba" d="M 41.5,35.5 C 42.8333,35.5 44.1667,35.5 45.5,35.5C 44.8333,37.5 44.1667,39.5 43.5,41.5C 41.9008,42.562 40.2341,42.562 38.5,41.5C 38.9752,39.2163 39.9752,37.2163 41.5,35.5 Z"/></g>
<g><path style="opacity:1" fill="#842398" d="M 49.5,37.5 C 50.1667,37.5 50.5,37.8333 50.5,38.5C 49.8876,41.6973 47.8876,43.0306 44.5,42.5C 44.5,42.1667 44.5,41.8333 44.5,41.5C 46.3885,40.396 48.0552,39.0627 49.5,37.5 Z"/></g>
<g><path style="opacity:1" fill="#811787" d="M 52.5,39.5 C 53.1667,39.5 53.8333,39.5 54.5,39.5C 57.2869,40.4767 60.2869,40.81 63.5,40.5C 62.8333,41.1667 62.1667,41.8333 61.5,42.5C 58.8333,42.5 56.1667,42.5 53.5,42.5C 53.4431,41.391 53.1098,40.391 52.5,39.5 Z"/></g>
<g><path style="opacity:1" fill="#843786" d="M 71.5,33.5 C 71.8333,33.5 72.1667,33.5 72.5,33.5C 72.3713,35.2161 72.038,36.8828 71.5,38.5C 70.3373,40.9822 68.3373,42.3155 65.5,42.5C 64.1667,42.5 62.8333,42.5 61.5,42.5C 62.1667,41.8333 62.8333,41.1667 63.5,40.5C 65.9267,40.477 68.26,39.977 70.5,39C 69.6198,37.6439 69.2865,36.1439 69.5,34.5C 69.8333,34.5 70.1667,34.5 70.5,34.5C 71.1667,34.5 71.5,34.1667 71.5,33.5 Z"/></g>
<g><path style="opacity:0.545" fill="#cbaed9" d="M 81.5,46.5 C 81.1667,45.1667 80.8333,45.1667 80.5,46.5C 79.8333,46.1667 79.1667,45.8333 78.5,45.5C 77.1007,44.1103 75.4341,43.1103 73.5,42.5C 73.1667,42.5 72.8333,42.5 72.5,42.5C 72.5,42.1667 72.5,41.8333 72.5,41.5C 73.2679,40.7375 73.7679,39.7375 74,38.5C 76.8456,40.2567 79.5122,42.2567 82,44.5C 82.6917,45.4368 82.525,46.1034 81.5,46.5 Z"/></g>
<g><path style="opacity:1" fill="#782083" d="M 52.5,36.5 C 52.5,37.5 52.5,38.5 52.5,39.5C 51.0687,40.7804 50.4021,42.4471 50.5,44.5C 48.8333,44.5 47.1667,44.5 45.5,44.5C 44.1667,44.5 42.8333,44.5 41.5,44.5C 41.1667,44.5 40.8333,44.5 40.5,44.5C 41.8333,43.8333 43.1667,43.1667 44.5,42.5C 47.8876,43.0306 49.8876,41.6973 50.5,38.5C 51.1667,37.8333 51.8333,37.1667 52.5,36.5 Z"/></g>
<g><path style="opacity:1" fill="#6a1c6d" d="M 71.5,38.5 C 72.404,39.209 72.7373,40.209 72.5,41.5C 72.5,41.8333 72.5,42.1667 72.5,42.5C 72.7678,44.099 72.4345,45.4324 71.5,46.5C 70.0821,44.6921 68.0821,44.0254 65.5,44.5C 65.5,43.8333 65.5,43.1667 65.5,42.5C 68.3373,42.3155 70.3373,40.9822 71.5,38.5 Z"/></g>
<g><path style="opacity:0.992" fill="#f3c6f0" d="M 21.5,41.5 C 21.8333,41.5 22.1667,41.5 22.5,41.5C 22.8333,41.5 23.1667,41.5 23.5,41.5C 24.1667,41.5 24.5,41.8333 24.5,42.5C 22.246,43.1237 20.5794,44.457 19.5,46.5C 19.1583,47.3382 18.4916,47.6716 17.5,47.5C 16.794,46.4427 16.4607,46.7761 16.5,48.5C 15.4265,47.7494 15.2599,46.7494 16,45.5C 17.9579,45.7914 19.4579,44.7914 20.5,42.5C 21.1667,42.5 21.5,42.1667 21.5,41.5 Z"/></g>
<g><path style="opacity:1" fill="#a62c9f" d="M 38.5,41.5 C 40.2341,42.562 41.9008,42.562 43.5,41.5C 43.8333,41.5 44.1667,41.5 44.5,41.5C 44.5,41.8333 44.5,42.1667 44.5,42.5C 43.1667,43.1667 41.8333,43.8333 40.5,44.5C 37.6146,44.8064 34.9479,44.4731 32.5,43.5C 34.4214,42.6373 36.4214,41.9707 38.5,41.5 Z"/></g>
<g><path style="opacity:1" fill="#6e126a" d="M 53.5,43.5 C 53.5,43.1667 53.5,42.8333 53.5,42.5C 56.1667,42.5 58.8333,42.5 61.5,42.5C 62.8333,42.5 64.1667,42.5 65.5,42.5C 65.5,43.1667 65.5,43.8333 65.5,44.5C 64.8333,44.5 64.1667,44.5 63.5,44.5C 60.0977,44.6576 56.7644,44.3242 53.5,43.5 Z"/></g>
<g><path style="opacity:1" fill="#580f53" d="M 53.5,43.5 C 56.7644,44.3242 60.0977,44.6576 63.5,44.5C 65.5884,46.0195 67.9217,47.0195 70.5,47.5C 70.5,48.1667 70.1667,48.5 69.5,48.5C 64.8712,47.4566 59.8712,46.4566 54.5,45.5C 54.1667,44.8333 53.8333,44.1667 53.5,43.5 Z"/></g>
<g><path style="opacity:1" fill="#b732ad" d="M 26.5,44.5 C 26.5,44.1667 26.5,43.8333 26.5,43.5C 27.8333,43.5 29.1667,43.5 30.5,43.5C 31.2341,44.7079 31.5674,46.0413 31.5,47.5C 31.1667,49.8333 29.8333,51.1667 27.5,51.5C 27.0825,50.7784 26.4158,50.2784 25.5,50C 26.2598,48.5589 26.9264,47.0589 27.5,45.5C 27.3764,44.8933 27.0431,44.56 26.5,44.5 Z"/></g>
<g><path style="opacity:1" fill="#991c89" d="M 30.5,43.5 C 31.1667,43.5 31.8333,43.5 32.5,43.5C 34.9479,44.4731 37.6146,44.8064 40.5,44.5C 40.8333,44.5 41.1667,44.5 41.5,44.5C 38.4246,46.048 35.0912,47.048 31.5,47.5C 31.5674,46.0413 31.2341,44.7079 30.5,43.5 Z"/></g>
<g><path style="opacity:1" fill="#5b115c" d="M 63.5,44.5 C 64.1667,44.5 64.8333,44.5 65.5,44.5C 68.0821,44.0254 70.0821,44.6921 71.5,46.5C 71.5,46.8333 71.5,47.1667 71.5,47.5C 71.1667,47.5 70.8333,47.5 70.5,47.5C 67.9217,47.0195 65.5884,46.0195 63.5,44.5 Z"/></g>
<g><path style="opacity:1" fill="#771d90" d="M 73.5,43.5 C 74.8333,45.5 76.1667,47.5 77.5,49.5C 77.1583,50.3382 76.4916,50.6716 75.5,50.5C 74.8826,50.3893 74.3826,50.056 74,49.5C 73.5045,47.5273 73.3379,45.5273 73.5,43.5 Z"/></g>
<g><path style="opacity:1" fill="#61145e" d="M 52.5,39.5 C 53.1098,40.391 53.4431,41.391 53.5,42.5C 51.9743,43.1047 50.9743,44.2714 50.5,46C 47.9398,46.3838 45.6064,47.2171 43.5,48.5C 43.1667,47.8333 42.8333,47.1667 42.5,46.5C 43.7095,46.0679 44.7095,45.4013 45.5,44.5C 47.1667,44.5 48.8333,44.5 50.5,44.5C 50.4021,42.4471 51.0687,40.7804 52.5,39.5 Z"/></g>
<g><path style="opacity:1" fill="#e39ddb" d="M 24.5,42.5 C 24.8417,43.3382 25.5084,43.6716 26.5,43.5C 26.5,43.8333 26.5,44.1667 26.5,44.5C 25.6683,48.0488 23.6683,49.3821 20.5,48.5C 21.981,47.056 21.6477,46.3894 19.5,46.5C 20.5794,44.457 22.246,43.1237 24.5,42.5 Z"/></g>
<g><path style="opacity:1" fill="#891972" d="M 41.5,44.5 C 42.8333,44.5 44.1667,44.5 45.5,44.5C 44.7095,45.4013 43.7095,46.0679 42.5,46.5C 38.9752,47.2097 35.6418,48.2097 32.5,49.5C 32.5,50.5 32.5,51.5 32.5,52.5C 30.7839,52.6287 29.1172,52.962 27.5,53.5C 25.3023,53.5912 24.9689,52.9245 26.5,51.5C 26.8333,51.5 27.1667,51.5 27.5,51.5C 29.8333,51.1667 31.1667,49.8333 31.5,47.5C 35.0912,47.048 38.4246,46.048 41.5,44.5 Z"/></g>
<g><path style="opacity:1" fill="#43083c" d="M 54.5,45.5 C 59.8712,46.4566 64.8712,47.4566 69.5,48.5C 69.5,48.8333 69.5,49.1667 69.5,49.5C 69.1667,49.5 68.8333,49.5 68.5,49.5C 65.9407,49.1984 63.6074,49.5318 61.5,50.5C 59.5648,49.8505 57.5648,49.5172 55.5,49.5C 55.1667,49.5 54.8333,49.5 54.5,49.5C 55.8333,48.1667 55.8333,46.8333 54.5,45.5 Z"/></g>
<g><path style="opacity:1" fill="#4d0f4c" d="M 53.5,42.5 C 53.5,42.8333 53.5,43.1667 53.5,43.5C 52.9851,45.7512 51.9851,47.7512 50.5,49.5C 47.5448,50.1587 44.5448,50.4921 41.5,50.5C 42.1667,49.8333 42.8333,49.1667 43.5,48.5C 45.6064,47.2171 47.9398,46.3838 50.5,46C 50.9743,44.2714 51.9743,43.1047 53.5,42.5 Z"/></g>
<g><path style="opacity:1" fill="#9234b0" d="M 73.5,43.5 C 73.5,43.1667 73.5,42.8333 73.5,42.5C 75.4341,43.1103 77.1007,44.1103 78.5,45.5C 78.5,46.8333 78.5,48.1667 78.5,49.5C 78.1667,49.5 77.8333,49.5 77.5,49.5C 76.1667,47.5 74.8333,45.5 73.5,43.5 Z"/></g>
<g><path style="opacity:1" fill="#b36ac3" d="M 78.5,45.5 C 79.1667,45.8333 79.8333,46.1667 80.5,46.5C 80.8333,46.5 81.1667,46.5 81.5,46.5C 82.925,47.922 83.925,49.5887 84.5,51.5C 82.8583,49.9192 80.8583,49.2525 78.5,49.5C 78.5,48.1667 78.5,46.8333 78.5,45.5 Z"/></g>
<g><path style="opacity:0.004" fill="#000000" d="M 14.5,49.5 C 15.525,49.8966 15.6917,50.5632 15,51.5C 14.5357,50.9056 14.369,50.2389 14.5,49.5 Z"/></g>
<g><path style="opacity:1" fill="#6b1256" d="M 42.5,46.5 C 42.8333,47.1667 43.1667,47.8333 43.5,48.5C 42.8333,49.1667 42.1667,49.8333 41.5,50.5C 38.5176,50.0371 35.5176,49.7038 32.5,49.5C 35.6418,48.2097 38.9752,47.2097 42.5,46.5 Z"/></g>
<g><path style="opacity:1" fill="#380530" d="M 68.5,49.5 C 68.1667,50.1667 67.8333,50.8333 67.5,51.5C 66.609,52.1098 65.609,52.4431 64.5,52.5C 63.8333,52.1667 63.1667,51.8333 62.5,51.5C 61.8333,51.5 61.5,51.1667 61.5,50.5C 63.6074,49.5318 65.9407,49.1984 68.5,49.5 Z"/></g>
<g><path style="opacity:1" fill="#c84ab3" d="M 26.5,44.5 C 27.0431,44.56 27.3764,44.8933 27.5,45.5C 26.9264,47.0589 26.2598,48.5589 25.5,50C 26.4158,50.2784 27.0825,50.7784 27.5,51.5C 27.1667,51.5 26.8333,51.5 26.5,51.5C 24.1667,51.5 21.8333,51.5 19.5,51.5C 19.8693,49.0065 19.2027,48.3398 17.5,49.5C 17.5,49.1667 17.5,48.8333 17.5,48.5C 17.5,48.1667 17.5,47.8333 17.5,47.5C 18.4916,47.6716 19.1583,47.3382 19.5,46.5C 21.6477,46.3894 21.981,47.056 20.5,48.5C 23.6683,49.3821 25.6683,48.0488 26.5,44.5 Z"/></g>
<g><path style="opacity:1" fill="#600d44" d="M 32.5,49.5 C 35.5176,49.7038 38.5176,50.0371 41.5,50.5C 41.5,51.8333 40.8333,52.5 39.5,52.5C 37.4595,51.4808 35.4595,51.4808 33.5,52.5C 34.6016,53.1757 35.6016,53.8423 36.5,54.5C 36.1667,54.5 35.8333,54.5 35.5,54.5C 33.0672,54.2729 31.4006,55.2729 30.5,57.5C 29.6618,57.8417 29.3284,58.5084 29.5,59.5C 28.596,60.209 28.2627,61.209 28.5,62.5C 27.8333,62.5 27.1667,62.5 26.5,62.5C 26.5,62.1667 26.5,61.8333 26.5,61.5C 27.5,59.5 28.5,57.5 29.5,55.5C 30.8333,54.8333 31.8333,53.8333 32.5,52.5C 32.5,51.5 32.5,50.5 32.5,49.5 Z"/></g>
<g><path style="opacity:1" fill="#31042d" d="M 53.5,43.5 C 53.8333,44.1667 54.1667,44.8333 54.5,45.5C 55.8333,46.8333 55.8333,48.1667 54.5,49.5C 51.3128,51.3438 49.3128,54.0105 48.5,57.5C 48.1667,57.5 47.8333,57.5 47.5,57.5C 47.5,56.5 47.5,55.5 47.5,54.5C 45.5853,54.7845 43.9187,54.4511 42.5,53.5C 45.4965,52.7297 48.1632,51.3964 50.5,49.5C 51.9851,47.7512 52.9851,45.7512 53.5,43.5 Z"/></g>
<g><path style="opacity:1" fill="#762288" d="M 72.5,42.5 C 72.8333,42.5 73.1667,42.5 73.5,42.5C 73.5,42.8333 73.5,43.1667 73.5,43.5C 73.3379,45.5273 73.5045,47.5273 74,49.5C 74.3826,50.056 74.8826,50.3893 75.5,50.5C 75.5,50.8333 75.5,51.1667 75.5,51.5C 74.1667,51.5 72.8333,51.5 71.5,51.5C 71.5,50.1667 71.5,48.8333 71.5,47.5C 71.5,47.1667 71.5,46.8333 71.5,46.5C 72.4345,45.4324 72.7678,44.099 72.5,42.5 Z"/></g>
<g><path style="opacity:0.016" fill="#d884d4" d="M 85.5,51.5 C 85.369,50.7611 85.5357,50.0944 86,49.5C 86.6917,50.4368 86.525,51.1034 85.5,51.5 Z"/></g>
<g><path style="opacity:1" fill="#460e44" d="M 50.5,49.5 C 48.1632,51.3964 45.4965,52.7297 42.5,53.5C 41.5,53.5 40.5,53.5 39.5,53.5C 39.5,53.1667 39.5,52.8333 39.5,52.5C 40.8333,52.5 41.5,51.8333 41.5,50.5C 44.5448,50.4921 47.5448,50.1587 50.5,49.5 Z"/></g>
<g><path style="opacity:1" fill="#802287" d="M 77.5,49.5 C 77.8333,49.5 78.1667,49.5 78.5,49.5C 80.8583,49.2525 82.8583,49.9192 84.5,51.5C 84.6309,52.3764 84.2975,53.0431 83.5,53.5C 82.4728,52.2086 81.4728,52.2086 80.5,53.5C 79.1667,53.8333 77.8333,54.1667 76.5,54.5C 75.8902,53.609 75.5569,52.609 75.5,51.5C 75.5,51.1667 75.5,50.8333 75.5,50.5C 76.4916,50.6716 77.1583,50.3382 77.5,49.5 Z"/></g>
<g><path style="opacity:1" fill="#4c0834" d="M 39.5,52.5 C 39.5,52.8333 39.5,53.1667 39.5,53.5C 40.5903,54.8571 41.9236,55.8571 43.5,56.5C 42.8333,56.5 42.1667,56.5 41.5,56.5C 39.8333,55.8333 38.1667,55.1667 36.5,54.5C 35.6016,53.8423 34.6016,53.1757 33.5,52.5C 35.4595,51.4808 37.4595,51.4808 39.5,52.5 Z"/></g>
<g><path style="opacity:1" fill="#7b1d9d" d="M 55.5,49.5 C 57.5648,49.5172 59.5648,49.8505 61.5,50.5C 61.5,51.1667 61.8333,51.5 62.5,51.5C 62.5,51.8333 62.5,52.1667 62.5,52.5C 59.5408,54.0602 56.8741,53.7268 54.5,51.5C 54.8333,50.8333 55.1667,50.1667 55.5,49.5 Z"/></g>
<g><path style="opacity:1" fill="#4f0f54" d="M 68.5,49.5 C 68.8333,49.5 69.1667,49.5 69.5,49.5C 69.5,50.1667 69.5,50.8333 69.5,51.5C 69.5,53.8333 69.5,56.1667 69.5,58.5C 68.0762,56.4855 67.4095,54.1522 67.5,51.5C 67.8333,50.8333 68.1667,50.1667 68.5,49.5 Z"/></g>
<g><path style="opacity:0.984" fill="#a81f7c" d="M 26.5,51.5 C 24.9689,52.9245 25.3023,53.5912 27.5,53.5C 26.7095,54.4013 25.7095,55.0679 24.5,55.5C 20.3065,55.6383 17.9732,53.6383 17.5,49.5C 19.2027,48.3398 19.8693,49.0065 19.5,51.5C 21.8333,51.5 24.1667,51.5 26.5,51.5 Z"/></g>
<g><path style="opacity:1" fill="#8624a2" d="M 54.5,51.5 C 56.8741,53.7268 59.5408,54.0602 62.5,52.5C 62.5,53.5 62.5,54.5 62.5,55.5C 59.9885,55.162 57.6552,55.162 55.5,55.5C 54.5713,54.3112 54.238,52.9778 54.5,51.5 Z"/></g>
<g><path style="opacity:1" fill="#3c0638" d="M 67.5,51.5 C 67.4095,54.1522 68.0762,56.4855 69.5,58.5C 69.5,59.5 69.5,60.5 69.5,61.5C 70.8333,61.5 72.1667,61.5 73.5,61.5C 73.8333,61.5 74.1667,61.5 74.5,61.5C 74.8333,62.1667 75.1667,62.8333 75.5,63.5C 74.8333,63.5 74.1667,63.5 73.5,63.5C 72.8333,63.5 72.1667,63.5 71.5,63.5C 70.4324,62.5655 69.099,62.2322 67.5,62.5C 67.7947,60.2646 67.4614,58.2646 66.5,56.5C 66.6716,55.5084 66.3382,54.8417 65.5,54.5C 65.1667,53.8333 64.8333,53.1667 64.5,52.5C 65.609,52.4431 66.609,52.1098 67.5,51.5 Z"/></g>
<g><path style="opacity:1" fill="#6e1474" d="M 71.5,51.5 C 72.8333,51.5 74.1667,51.5 75.5,51.5C 75.5569,52.609 75.8902,53.609 76.5,54.5C 75.8669,54.8795 75.2003,55.2129 74.5,55.5C 74.8627,56.1835 75.1961,56.8501 75.5,57.5C 72.9142,56.5134 71.5809,54.5134 71.5,51.5 Z"/></g>
<g><path style="opacity:0.008" fill="#a100a1" d="M 86.5,58.5 C 86.3379,56.4727 86.5045,54.4727 87,52.5C 87.7891,54.7116 87.6225,56.7116 86.5,58.5 Z"/></g>
<g><path style="opacity:1" fill="#2d0424" d="M 39.5,53.5 C 40.5,53.5 41.5,53.5 42.5,53.5C 43.9187,54.4511 45.5853,54.7845 47.5,54.5C 47.5,55.5 47.5,56.5 47.5,57.5C 46.1667,57.1667 44.8333,56.8333 43.5,56.5C 41.9236,55.8571 40.5903,54.8571 39.5,53.5 Z"/></g>
<g><path style="opacity:1" fill="#741473" d="M 80.5,53.5 C 79.8707,55.9971 78.204,57.3304 75.5,57.5C 75.1961,56.8501 74.8627,56.1835 74.5,55.5C 75.2003,55.2129 75.8669,54.8795 76.5,54.5C 77.8333,54.1667 79.1667,53.8333 80.5,53.5 Z"/></g>
<g><path style="opacity:1" fill="#9c3a6f" d="M 16.5,48.5 C 16.8333,48.5 17.1667,48.5 17.5,48.5C 17.5,48.8333 17.5,49.1667 17.5,49.5C 17.9732,53.6383 20.3065,55.6383 24.5,55.5C 24.5,55.8333 24.5,56.1667 24.5,56.5C 23.1667,56.5 21.8333,56.5 20.5,56.5C 19.8333,56.1667 19.1667,55.8333 18.5,55.5C 18.1667,55.5 17.8333,55.5 17.5,55.5C 16.8897,53.1497 16.5563,53.483 16.5,56.5C 16.1667,56.5 15.8333,56.5 15.5,56.5C 15.0618,56.5654 14.7284,56.3988 14.5,56C 15.8672,53.6985 16.5339,51.1985 16.5,48.5 Z"/></g>
<g><path style="opacity:1" fill="#84145f" d="M 32.5,52.5 C 31.8333,53.8333 30.8333,54.8333 29.5,55.5C 27.8828,56.038 26.2161,56.3713 24.5,56.5C 24.5,56.1667 24.5,55.8333 24.5,55.5C 25.7095,55.0679 26.7095,54.4013 27.5,53.5C 29.1172,52.962 30.7839,52.6287 32.5,52.5 Z"/></g>
<g><path style="opacity:1" fill="#be67c0" d="M 35.5,54.5 C 35.5,55.5 35.5,56.5 35.5,57.5C 33.9557,57.7031 32.6223,58.3698 31.5,59.5C 30.7025,59.0431 30.3691,58.3764 30.5,57.5C 31.4006,55.2729 33.0672,54.2729 35.5,54.5 Z"/></g>
<g><path style="opacity:1" fill="#89299e" d="M 54.5,51.5 C 54.238,52.9778 54.5713,54.3112 55.5,55.5C 57.6552,55.162 59.9885,55.162 62.5,55.5C 59.7131,56.4767 56.7131,56.81 53.5,56.5C 53.5,55.1667 53.5,53.8333 53.5,52.5C 53.5,51.8333 53.8333,51.5 54.5,51.5 Z"/></g>
<g><path style="opacity:1" fill="#59105d" d="M 69.5,51.5 C 69.8783,54.9638 71.545,57.6304 74.5,59.5C 74.1667,60.1667 73.8333,60.8333 73.5,61.5C 72.1667,61.5 70.8333,61.5 69.5,61.5C 69.5,60.5 69.5,59.5 69.5,58.5C 69.5,56.1667 69.5,53.8333 69.5,51.5 Z"/></g>
<g><path style="opacity:1" fill="#66156d" d="M 70.5,47.5 C 70.8333,47.5 71.1667,47.5 71.5,47.5C 71.5,48.8333 71.5,50.1667 71.5,51.5C 71.5809,54.5134 72.9142,56.5134 75.5,57.5C 75.5,58.1667 75.5,58.8333 75.5,59.5C 75.1667,59.5 74.8333,59.5 74.5,59.5C 71.545,57.6304 69.8783,54.9638 69.5,51.5C 69.5,50.8333 69.5,50.1667 69.5,49.5C 69.5,49.1667 69.5,48.8333 69.5,48.5C 70.1667,48.5 70.5,48.1667 70.5,47.5 Z"/></g>
<g><path style="opacity:1" fill="#822791" d="M 62.5,51.5 C 63.1667,51.8333 63.8333,52.1667 64.5,52.5C 64.8333,53.1667 65.1667,53.8333 65.5,54.5C 65.5,55.5 65.5,56.5 65.5,57.5C 64.5084,57.3284 63.8417,57.6618 63.5,58.5C 59.8183,58.6653 56.1516,58.4986 52.5,58C 51.6634,56.9887 51.33,55.8221 51.5,54.5C 51.8333,53.5 52.5,52.8333 53.5,52.5C 53.5,53.8333 53.5,55.1667 53.5,56.5C 56.7131,56.81 59.7131,56.4767 62.5,55.5C 62.5,54.5 62.5,53.5 62.5,52.5C 62.5,52.1667 62.5,51.8333 62.5,51.5 Z"/></g>
<g><path style="opacity:1" fill="#711e6e" d="M 84.5,51.5 C 84.8333,51.5 85.1667,51.5 85.5,51.5C 85.5,53.1667 85.5,54.8333 85.5,56.5C 83.087,57.6798 82.087,59.6798 82.5,62.5C 81.0568,61.6649 80.0568,60.3316 79.5,58.5C 78.2638,59.2458 76.9305,59.5792 75.5,59.5C 75.5,58.8333 75.5,58.1667 75.5,57.5C 78.204,57.3304 79.8707,55.9971 80.5,53.5C 81.4728,52.2086 82.4728,52.2086 83.5,53.5C 84.2975,53.0431 84.6309,52.3764 84.5,51.5 Z"/></g>
<g><path style="opacity:1" fill="#740f48" d="M 29.5,55.5 C 28.5,57.5 27.5,59.5 26.5,61.5C 25.8333,61.5 25.1667,61.5 24.5,61.5C 23.5,60.8333 22.5,60.1667 21.5,59.5C 20.8902,58.609 20.5569,57.609 20.5,56.5C 21.8333,56.5 23.1667,56.5 24.5,56.5C 26.2161,56.3713 27.8828,56.038 29.5,55.5 Z"/></g>
<g><path style="opacity:1" fill="#4d0e51" d="M 54.5,49.5 C 54.8333,49.5 55.1667,49.5 55.5,49.5C 55.1667,50.1667 54.8333,50.8333 54.5,51.5C 53.8333,51.5 53.5,51.8333 53.5,52.5C 52.5,52.8333 51.8333,53.5 51.5,54.5C 50.8333,54.5 50.5,54.8333 50.5,55.5C 48.6038,60.7153 49.6038,65.382 53.5,69.5C 51.9382,69.2671 50.6049,68.6005 49.5,67.5C 48.6758,64.2356 48.3424,60.9023 48.5,57.5C 49.3128,54.0105 51.3128,51.3438 54.5,49.5 Z"/></g>
<g><path style="opacity:1" fill="#9931a1" d="M 35.5,54.5 C 35.8333,54.5 36.1667,54.5 36.5,54.5C 38.3122,56.4605 39.3122,58.7939 39.5,61.5C 38.8333,61.5 38.1667,61.5 37.5,61.5C 36.8333,60.1667 36.1667,58.8333 35.5,57.5C 35.5,56.5 35.5,55.5 35.5,54.5 Z"/></g>
<g><path style="opacity:1" fill="#7a2283" d="M 36.5,54.5 C 38.1667,55.1667 39.8333,55.8333 41.5,56.5C 42.5817,57.5938 43.2483,58.9271 43.5,60.5C 43.2528,61.7133 42.5862,62.38 41.5,62.5C 40.8333,62.5 40.1667,62.5 39.5,62.5C 39.5,62.1667 39.5,61.8333 39.5,61.5C 39.3122,58.7939 38.3122,56.4605 36.5,54.5 Z"/></g>
<g><path style="opacity:1" fill="#741778" d="M 51.5,54.5 C 51.33,55.8221 51.6634,56.9887 52.5,58C 56.1516,58.4986 59.8183,58.6653 63.5,58.5C 63.5,59.1667 63.1667,59.5 62.5,59.5C 58.8162,60.7278 55.1495,60.7278 51.5,59.5C 50.5655,58.4324 50.2322,57.099 50.5,55.5C 50.5,54.8333 50.8333,54.5 51.5,54.5 Z"/></g>
<g><path style="opacity:1" fill="#6e146c" d="M 65.5,57.5 C 64.8249,60.349 63.1582,62.349 60.5,63.5C 59.1667,63.1667 57.8333,62.8333 56.5,62.5C 58.7512,61.9851 60.7512,60.9851 62.5,59.5C 63.1667,59.5 63.5,59.1667 63.5,58.5C 63.8417,57.6618 64.5084,57.3284 65.5,57.5 Z"/></g>
<g><path style="opacity:0.612" fill="#6e315f" d="M 85.5,56.5 C 85.3284,57.4916 85.6618,58.1583 86.5,58.5C 86.7709,60.3797 86.1042,61.713 84.5,62.5C 84.1667,59.8333 83.8333,59.8333 83.5,62.5C 83.1667,62.5 82.8333,62.5 82.5,62.5C 82.087,59.6798 83.087,57.6798 85.5,56.5 Z"/></g>
<g><path style="opacity:1" fill="#e4a6db" d="M 17.5,55.5 C 17.8333,55.5 18.1667,55.5 18.5,55.5C 19.0922,58.6305 18.0922,60.9639 15.5,62.5C 15.1583,61.6618 14.4916,61.3284 13.5,61.5C 13.8925,59.7162 14.5592,58.0495 15.5,56.5C 15.8333,56.5 16.1667,56.5 16.5,56.5C 17.1667,56.5 17.5,56.1667 17.5,55.5 Z"/></g>
<g><path style="opacity:1" fill="#ae3aa8" d="M 30.5,57.5 C 30.3691,58.3764 30.7025,59.0431 31.5,59.5C 32.6223,58.3698 33.9557,57.7031 35.5,57.5C 36.1667,58.8333 36.8333,60.1667 37.5,61.5C 34.3019,62.0356 31.6353,61.369 29.5,59.5C 29.3284,58.5084 29.6618,57.8417 30.5,57.5 Z"/></g>
<g><path style="opacity:1" fill="#70136e" d="M 51.5,59.5 C 55.1495,60.7278 58.8162,60.7278 62.5,59.5C 60.7512,60.9851 58.7512,61.9851 56.5,62.5C 54.9582,61.6993 53.2915,61.366 51.5,61.5C 51.5,60.8333 51.5,60.1667 51.5,59.5 Z"/></g>
<g><path style="opacity:1" fill="#641d5b" d="M 82.5,62.5 C 82.5,62.8333 82.5,63.1667 82.5,63.5C 81.8333,63.5 81.5,63.8333 81.5,64.5C 81.1667,64.5 80.8333,64.5 80.5,64.5C 79.7611,64.631 79.0944,64.4643 78.5,64C 79.731,62.8173 79.731,61.6507 78.5,60.5C 77.2638,61.2458 75.9305,61.5792 74.5,61.5C 74.1667,61.5 73.8333,61.5 73.5,61.5C 73.8333,60.8333 74.1667,60.1667 74.5,59.5C 74.8333,59.5 75.1667,59.5 75.5,59.5C 76.9305,59.5792 78.2638,59.2458 79.5,58.5C 80.0568,60.3316 81.0568,61.6649 82.5,62.5 Z"/></g>
<g><path style="opacity:1" fill="#691368" d="M 65.5,54.5 C 66.3382,54.8417 66.6716,55.5084 66.5,56.5C 66.5,57.5 66.5,58.5 66.5,59.5C 65.675,61.8102 64.3417,63.8102 62.5,65.5C 61.8333,65.5 61.1667,65.5 60.5,65.5C 60.5,64.8333 60.5,64.1667 60.5,63.5C 63.1582,62.349 64.8249,60.349 65.5,57.5C 65.5,56.5 65.5,55.5 65.5,54.5 Z"/></g>
<g><path style="opacity:1" fill="#991d84" d="M 29.5,59.5 C 31.6353,61.369 34.3019,62.0356 37.5,61.5C 38.1667,61.5 38.8333,61.5 39.5,61.5C 39.5,61.8333 39.5,62.1667 39.5,62.5C 38.791,63.404 37.791,63.7373 36.5,63.5C 33.8333,63.5 31.1667,63.5 28.5,63.5C 28.5,63.1667 28.5,62.8333 28.5,62.5C 28.2627,61.209 28.596,60.209 29.5,59.5 Z"/></g>
<g><path style="opacity:1" fill="#6b1268" d="M 51.5,61.5 C 53.2915,61.366 54.9582,61.6993 56.5,62.5C 57.8333,62.8333 59.1667,63.1667 60.5,63.5C 60.5,64.1667 60.5,64.8333 60.5,65.5C 57.8333,64.8333 55.1667,64.1667 52.5,63.5C 52.1667,62.8333 51.8333,62.1667 51.5,61.5 Z"/></g>
<g><path style="opacity:0.996" fill="#542142" d="M 80.5,64.5 C 80.5,65.1667 80.8333,65.5 81.5,65.5C 80.2752,68.6319 78.9419,71.6319 77.5,74.5C 77.5,73.8333 77.5,73.1667 77.5,72.5C 78.7884,69.8761 78.7884,67.8761 77.5,66.5C 76.8333,65.8333 76.1667,65.1667 75.5,64.5C 75.5,64.1667 75.5,63.8333 75.5,63.5C 75.1667,62.8333 74.8333,62.1667 74.5,61.5C 75.9305,61.5792 77.2638,61.2458 78.5,60.5C 79.731,61.6507 79.731,62.8173 78.5,64C 79.0944,64.4643 79.7611,64.631 80.5,64.5 Z"/></g>
<g><path style="opacity:0.008" fill="#7e007f" d="M 83.5,62.5 C 83.8333,62.5 84.1667,62.5 84.5,62.5C 84.3147,63.1701 83.9813,63.1701 83.5,62.5 Z"/></g>
<g><path style="opacity:0.02" fill="#ae4573" d="M 10.5,61.5 C 11.6291,63.6282 11.7958,65.9615 11,68.5C 10.5034,66.1902 10.3367,63.8568 10.5,61.5 Z"/></g>
<g><path style="opacity:1" fill="#db94d1" d="M 18.5,55.5 C 19.1667,55.8333 19.8333,56.1667 20.5,56.5C 20.5569,57.609 20.8902,58.609 21.5,59.5C 20.1062,62.5346 17.7728,64.5346 14.5,65.5C 14.5569,64.391 14.8902,63.391 15.5,62.5C 18.0922,60.9639 19.0922,58.6305 18.5,55.5 Z"/></g>
<g><path style="opacity:1" fill="#641661" d="M 41.5,56.5 C 42.1667,56.5 42.8333,56.5 43.5,56.5C 44.6005,57.6049 45.2671,58.9382 45.5,60.5C 45.5,61.1667 45.5,61.8333 45.5,62.5C 44.8333,62.5 44.5,62.8333 44.5,63.5C 43.6862,65.631 43.1862,67.9644 43,70.5C 42.3292,71.2524 41.4959,71.5858 40.5,71.5C 41.1495,69.5648 41.4828,67.5648 41.5,65.5C 41.5,64.5 41.5,63.5 41.5,62.5C 42.5862,62.38 43.2528,61.7133 43.5,60.5C 43.2483,58.9271 42.5817,57.5938 41.5,56.5 Z"/></g>
<g><path style="opacity:1" fill="#61145a" d="M 44.5,63.5 C 44.5,66.5 44.5,69.5 44.5,72.5C 43.609,73.1098 42.609,73.4431 41.5,73.5C 41.1667,72.8333 40.8333,72.1667 40.5,71.5C 41.4959,71.5858 42.3292,71.2524 43,70.5C 43.1862,67.9644 43.6862,65.631 44.5,63.5 Z"/></g>
<g><path style="opacity:1" fill="#581353" d="M 45.5,62.5 C 45.8271,64.4878 46.1604,66.4878 46.5,68.5C 46.6598,70.3545 45.9931,71.6879 44.5,72.5C 44.5,69.5 44.5,66.5 44.5,63.5C 44.5,62.8333 44.8333,62.5 45.5,62.5 Z"/></g>
<g><path style="opacity:1" fill="#5e125f" d="M 50.5,55.5 C 50.2322,57.099 50.5655,58.4324 51.5,59.5C 51.5,60.1667 51.5,60.8333 51.5,61.5C 51.8333,62.1667 52.1667,62.8333 52.5,63.5C 53.5116,64.8717 54.5116,66.205 55.5,67.5C 55.5,68.1667 55.5,68.8333 55.5,69.5C 55.1667,69.5 54.8333,69.5 54.5,69.5C 54.1667,69.5 53.8333,69.5 53.5,69.5C 49.6038,65.382 48.6038,60.7153 50.5,55.5 Z"/></g>
<g><path style="opacity:0.016" fill="#3e003f" d="M 82.5,63.5 C 82.8333,63.5 83.1667,63.5 83.5,63.5C 83.3147,64.1701 82.9813,64.1701 82.5,63.5 Z"/></g>
<g><path style="opacity:1" fill="#931673" d="M 28.5,63.5 C 31.1667,63.5 33.8333,63.5 36.5,63.5C 36.5,63.8333 36.5,64.1667 36.5,64.5C 34.0521,65.4731 31.3854,65.8064 28.5,65.5C 28.5,64.8333 28.5,64.1667 28.5,63.5 Z"/></g>
<g><path style="opacity:0.012" fill="#a90054" d="M 81.5,64.5 C 81.8333,64.5 82.1667,64.5 82.5,64.5C 82.3147,65.1701 81.9813,65.1701 81.5,64.5 Z"/></g>
<g><path style="opacity:1" fill="#be3eab" d="M 21.5,59.5 C 22.5,60.1667 23.5,60.8333 24.5,61.5C 24.5,63.1667 24.5,64.8333 24.5,66.5C 23.5,66.5 22.5,66.5 21.5,66.5C 19.1667,66.5 16.8333,66.5 14.5,66.5C 14.5,66.1667 14.5,65.8333 14.5,65.5C 17.7728,64.5346 20.1062,62.5346 21.5,59.5 Z"/></g>
<g><path style="opacity:1" fill="#851465" d="M 36.5,64.5 C 37.2389,64.369 37.9056,64.5357 38.5,65C 36.9625,66.7073 35.2959,68.2073 33.5,69.5C 32.5,69.5 31.5,69.5 30.5,69.5C 30.1667,68.8333 29.8333,68.1667 29.5,67.5C 29.1667,66.8333 28.8333,66.1667 28.5,65.5C 31.3854,65.8064 34.0521,65.4731 36.5,64.5 Z"/></g>
<g><path style="opacity:1" fill="#761463" d="M 39.5,62.5 C 40.1667,62.5 40.8333,62.5 41.5,62.5C 41.5,63.5 41.5,64.5 41.5,65.5C 40.1798,67.4632 38.8465,69.4632 37.5,71.5C 35.847,71.3404 34.5137,70.6737 33.5,69.5C 35.2959,68.2073 36.9625,66.7073 38.5,65C 37.9056,64.5357 37.2389,64.369 36.5,64.5C 36.5,64.1667 36.5,63.8333 36.5,63.5C 37.791,63.7373 38.791,63.404 39.5,62.5 Z"/></g>
<g><path style="opacity:1" fill="#6e1460" d="M 41.5,65.5 C 41.4828,67.5648 41.1495,69.5648 40.5,71.5C 40.8333,72.1667 41.1667,72.8333 41.5,73.5C 40.1667,73.5 38.8333,73.5 37.5,73.5C 37.5,72.8333 37.5,72.1667 37.5,71.5C 38.8465,69.4632 40.1798,67.4632 41.5,65.5 Z"/></g>
<g><path style="opacity:1" fill="#390837" d="M 43.5,56.5 C 44.8333,56.8333 46.1667,57.1667 47.5,57.5C 47.8333,57.5 48.1667,57.5 48.5,57.5C 48.3424,60.9023 48.6758,64.2356 49.5,67.5C 48.8333,68.1667 48.1667,68.8333 47.5,69.5C 47.9321,66.1226 47.2655,63.1226 45.5,60.5C 45.2671,58.9382 44.6005,57.6049 43.5,56.5 Z"/></g>
<g><path style="opacity:1" fill="#681365" d="M 52.5,63.5 C 55.1667,64.1667 57.8333,64.8333 60.5,65.5C 61.1667,65.5 61.8333,65.5 62.5,65.5C 60.7143,68.3171 58.3809,68.9837 55.5,67.5C 54.5116,66.205 53.5116,64.8717 52.5,63.5 Z"/></g>
<g><path style="opacity:1" fill="#691865" d="M 66.5,59.5 C 66.0231,66.3093 62.3564,69.6426 55.5,69.5C 55.5,68.8333 55.5,68.1667 55.5,67.5C 58.3809,68.9837 60.7143,68.3171 62.5,65.5C 64.3417,63.8102 65.675,61.8102 66.5,59.5 Z"/></g>
<g><path style="opacity:1" fill="#a22a8f" d="M 24.5,61.5 C 25.1667,61.5 25.8333,61.5 26.5,61.5C 26.5,61.8333 26.5,62.1667 26.5,62.5C 26.5,62.8333 26.5,63.1667 26.5,63.5C 26.5,64.8333 26.5,66.1667 26.5,67.5C 25.8333,67.5 25.1667,67.5 24.5,67.5C 23.5,67.5 22.5,67.5 21.5,67.5C 21.5,67.1667 21.5,66.8333 21.5,66.5C 22.5,66.5 23.5,66.5 24.5,66.5C 24.5,64.8333 24.5,63.1667 24.5,61.5 Z"/></g>
<g><path style="opacity:1" fill="#6f2782" d="M 73.5,63.5 C 74.1667,63.5 74.8333,63.5 75.5,63.5C 75.5,63.8333 75.5,64.1667 75.5,64.5C 75.5,65.1667 75.5,65.8333 75.5,66.5C 73.1256,67.6861 70.7922,67.6861 68.5,66.5C 70.2608,65.6873 71.9275,64.6873 73.5,63.5 Z"/></g>
<g><path style="opacity:0.873" fill="#b03d7d" d="M 13.5,61.5 C 14.4916,61.3284 15.1583,61.6618 15.5,62.5C 14.8902,63.391 14.5569,64.391 14.5,65.5C 14.5,65.8333 14.5,66.1667 14.5,66.5C 14.5,67.1667 14.5,67.8333 14.5,68.5C 14.5,68.8333 14.5,69.1667 14.5,69.5C 14.8333,70.8333 15.1667,72.1667 15.5,73.5C 14.8333,73.1667 14.1667,72.8333 13.5,72.5C 12.3797,68.6837 12.3797,65.0171 13.5,61.5 Z"/></g>
<g><path style="opacity:1" fill="#b7208b" d="M 14.5,66.5 C 16.8333,66.5 19.1667,66.5 21.5,66.5C 21.5,66.8333 21.5,67.1667 21.5,67.5C 19.3926,68.4682 17.0593,68.8016 14.5,68.5C 14.5,67.8333 14.5,67.1667 14.5,66.5 Z"/></g>
<g><path style="opacity:1" fill="#4b0e49" d="M 66.5,56.5 C 67.4614,58.2646 67.7947,60.2646 67.5,62.5C 69.099,62.2322 70.4324,62.5655 71.5,63.5C 69.0107,63.2407 67.344,64.2407 66.5,66.5C 62.6771,69.144 60.6771,72.8106 60.5,77.5C 59.5489,76.0813 59.2155,74.4147 59.5,72.5C 58.1979,70.9724 56.5313,69.9724 54.5,69.5C 54.8333,69.5 55.1667,69.5 55.5,69.5C 62.3564,69.6426 66.0231,66.3093 66.5,59.5C 66.5,58.5 66.5,57.5 66.5,56.5 Z"/></g>
<g><path style="opacity:1" fill="#6c1572" d="M 68.5,66.5 C 70.7922,67.6861 73.1256,67.6861 75.5,66.5C 75.5,67.1667 75.5,67.8333 75.5,68.5C 71.0495,68.9487 68.0495,71.282 66.5,75.5C 65.8333,75.5 65.1667,75.5 64.5,75.5C 64.5,74.5 64.5,73.5 64.5,72.5C 66.8218,71.1979 68.1551,69.1979 68.5,66.5 Z"/></g>
<g><path style="opacity:1" fill="#aa197a" d="M 21.5,67.5 C 22.5,67.5 23.5,67.5 24.5,67.5C 23.205,68.4884 21.8717,69.4884 20.5,70.5C 18.5,70.1667 16.5,69.8333 14.5,69.5C 14.5,69.1667 14.5,68.8333 14.5,68.5C 17.0593,68.8016 19.3926,68.4682 21.5,67.5 Z"/></g>
<g><path style="opacity:1" fill="#61196a" d="M 71.5,63.5 C 72.1667,63.5 72.8333,63.5 73.5,63.5C 71.9275,64.6873 70.2608,65.6873 68.5,66.5C 68.1551,69.1979 66.8218,71.1979 64.5,72.5C 65.6298,70.6854 66.2964,68.6854 66.5,66.5C 67.344,64.2407 69.0107,63.2407 71.5,63.5 Z"/></g>
<g><path style="opacity:0.999" fill="#721474" d="M 75.5,68.5 C 74.6515,71.6811 72.9848,74.3477 70.5,76.5C 68.901,76.7678 67.5676,76.4345 66.5,75.5C 68.0495,71.282 71.0495,68.9487 75.5,68.5 Z"/></g>
<g><path style="opacity:1" fill="#741559" d="M 30.5,69.5 C 31.5,69.5 32.5,69.5 33.5,69.5C 34.5137,70.6737 35.847,71.3404 37.5,71.5C 37.5,72.1667 37.5,72.8333 37.5,73.5C 37.1667,73.5 36.8333,73.5 36.5,73.5C 35.391,73.4431 34.391,73.1098 33.5,72.5C 32.3065,71.7281 31.3065,70.7281 30.5,69.5 Z"/></g>
<g><path style="opacity:1" fill="#98166b" d="M 24.5,67.5 C 25.1667,67.5 25.8333,67.5 26.5,67.5C 25.7023,69.9663 24.369,71.9663 22.5,73.5C 21.5,73.5 20.5,73.5 19.5,73.5C 20.1098,72.609 20.4431,71.609 20.5,70.5C 21.8717,69.4884 23.205,68.4884 24.5,67.5 Z"/></g>
<g><path style="opacity:1" fill="#5a103f" d="M 30.5,69.5 C 31.3065,70.7281 32.3065,71.7281 33.5,72.5C 32.6236,72.3691 31.9569,72.7025 31.5,73.5C 32.2427,74.1818 32.9094,74.8485 33.5,75.5C 31.9382,75.7329 30.6049,76.3995 29.5,77.5C 29.5,77.1667 29.5,76.8333 29.5,76.5C 30.2268,74.0306 30.5601,71.6973 30.5,69.5 Z"/></g>
<g><path style="opacity:1" fill="#471043" d="M 45.5,60.5 C 47.2655,63.1226 47.9321,66.1226 47.5,69.5C 47.3894,71.6477 48.056,71.981 49.5,70.5C 52.6502,70.7657 55.3168,71.7657 57.5,73.5C 53.5,72.1667 49.5,72.1667 45.5,73.5C 44.8333,73.5 44.5,73.1667 44.5,72.5C 45.9931,71.6879 46.6598,70.3545 46.5,68.5C 46.1604,66.4878 45.8271,64.4878 45.5,62.5C 45.5,61.8333 45.5,61.1667 45.5,60.5 Z"/></g>
<g><path style="opacity:1" fill="#36082e" d="M 49.5,67.5 C 50.6049,68.6005 51.9382,69.2671 53.5,69.5C 53.8333,69.5 54.1667,69.5 54.5,69.5C 56.5313,69.9724 58.1979,70.9724 59.5,72.5C 58.8333,72.8333 58.1667,73.1667 57.5,73.5C 55.3168,71.7657 52.6502,70.7657 49.5,70.5C 48.056,71.981 47.3894,71.6477 47.5,69.5C 48.1667,68.8333 48.8333,68.1667 49.5,67.5 Z"/></g>
<g><path style="opacity:0.996" fill="#a01867" d="M 14.5,69.5 C 16.5,69.8333 18.5,70.1667 20.5,70.5C 20.4431,71.609 20.1098,72.609 19.5,73.5C 18.1667,73.5 16.8333,73.5 15.5,73.5C 15.1667,72.1667 14.8333,70.8333 14.5,69.5 Z"/></g>
<g><path style="opacity:1" fill="#831561" d="M 26.5,63.5 C 27.6408,66.6399 27.8075,69.9733 27,73.5C 26.6232,74.9423 25.7899,75.9423 24.5,76.5C 22.1759,76.1227 21.5092,75.1227 22.5,73.5C 24.369,71.9663 25.7023,69.9663 26.5,67.5C 26.5,66.1667 26.5,64.8333 26.5,63.5 Z"/></g>
<g><path style="opacity:1" fill="#50114c" d="M 57.5,73.5 C 57.5,73.8333 57.5,74.1667 57.5,74.5C 54.5547,73.5325 51.5547,73.3658 48.5,74C 47.0577,74.3768 46.0577,75.2101 45.5,76.5C 43.8958,77.287 43.2291,78.6203 43.5,80.5C 43.1667,80.5 42.8333,80.5 42.5,80.5C 42.5,79.8333 42.5,79.1667 42.5,78.5C 42.7497,76.326 43.7497,74.6594 45.5,73.5C 49.5,72.1667 53.5,72.1667 57.5,73.5 Z"/></g>
<g><path style="opacity:1" fill="#771357" d="M 26.5,63.5 C 26.5,63.1667 26.5,62.8333 26.5,62.5C 27.1667,62.5 27.8333,62.5 28.5,62.5C 28.5,62.8333 28.5,63.1667 28.5,63.5C 28.5,64.1667 28.5,64.8333 28.5,65.5C 28.8333,66.1667 29.1667,66.8333 29.5,67.5C 28.5661,70.6557 27.8994,73.9891 27.5,77.5C 25.059,78.7563 22.7257,78.7563 20.5,77.5C 22.099,77.7678 23.4324,77.4345 24.5,76.5C 25.7899,75.9423 26.6232,74.9423 27,73.5C 27.8075,69.9733 27.6408,66.6399 26.5,63.5 Z"/></g>
<g><path style="opacity:1" fill="#6c104d" d="M 29.5,67.5 C 29.8333,68.1667 30.1667,68.8333 30.5,69.5C 30.5601,71.6973 30.2268,74.0306 29.5,76.5C 28.8333,76.8333 28.1667,77.1667 27.5,77.5C 27.8994,73.9891 28.5661,70.6557 29.5,67.5 Z"/></g>
<g><path style="opacity:1" fill="#500f42" d="M 44.5,72.5 C 44.5,73.1667 44.8333,73.5 45.5,73.5C 43.7497,74.6594 42.7497,76.326 42.5,78.5C 41.2089,77.4583 41.2089,76.2917 42.5,75C 41.9056,74.5357 41.2389,74.369 40.5,74.5C 38.901,74.7678 37.5676,74.4345 36.5,73.5C 36.8333,73.5 37.1667,73.5 37.5,73.5C 38.8333,73.5 40.1667,73.5 41.5,73.5C 42.609,73.4431 43.609,73.1098 44.5,72.5 Z"/></g>
<g><path style="opacity:0.988" fill="#792770" d="M 75.5,64.5 C 76.1667,65.1667 76.8333,65.8333 77.5,66.5C 77.5,68.5 77.5,70.5 77.5,72.5C 76.6618,72.8417 76.3284,73.5084 76.5,74.5C 75.8333,74.5 75.5,74.8333 75.5,75.5C 73.9891,76.5025 72.3224,77.1692 70.5,77.5C 70.5,77.1667 70.5,76.8333 70.5,76.5C 72.9848,74.3477 74.6515,71.6811 75.5,68.5C 75.5,67.8333 75.5,67.1667 75.5,66.5C 75.5,65.8333 75.5,65.1667 75.5,64.5 Z"/></g>
<g><path style="opacity:1" fill="#3d0528" d="M 33.5,72.5 C 34.391,73.1098 35.391,73.4431 36.5,73.5C 37.5676,74.4345 38.901,74.7678 40.5,74.5C 40.6495,75.552 40.4828,76.552 40,77.5C 38.5557,75.8446 36.7224,75.178 34.5,75.5C 34.1667,75.5 33.8333,75.5 33.5,75.5C 32.9094,74.8485 32.2427,74.1818 31.5,73.5C 31.9569,72.7025 32.6236,72.3691 33.5,72.5 Z"/></g>
<g><path style="opacity:1" fill="#611362" d="M 66.5,66.5 C 66.2964,68.6854 65.6298,70.6854 64.5,72.5C 64.5,73.5 64.5,74.5 64.5,75.5C 64.6107,76.1174 64.944,76.6174 65.5,77C 64.2068,77.49 62.8734,77.6567 61.5,77.5C 61.1667,77.5 60.8333,77.5 60.5,77.5C 60.6771,72.8106 62.6771,69.144 66.5,66.5 Z"/></g>
<g><path style="opacity:0.988" fill="#d79bca" d="M 13.5,72.5 C 14.1667,72.8333 14.8333,73.1667 15.5,73.5C 16.1098,74.391 16.4431,75.391 16.5,76.5C 14.9582,77.3007 13.2915,77.634 11.5,77.5C 12.1667,75.8333 12.8333,74.1667 13.5,72.5 Z"/></g>
<g><path style="opacity:1" fill="#861659" d="M 15.5,73.5 C 16.8333,73.5 18.1667,73.5 19.5,73.5C 20.5,73.5 21.5,73.5 22.5,73.5C 21.5092,75.1227 22.1759,76.1227 24.5,76.5C 23.4324,77.4345 22.099,77.7678 20.5,77.5C 19.8333,77.5 19.1667,77.5 18.5,77.5C 18.1667,77.5 17.8333,77.5 17.5,77.5C 17.5,76.8333 17.1667,76.5 16.5,76.5C 16.4431,75.391 16.1098,74.391 15.5,73.5 Z"/></g>
<g><path style="opacity:1" fill="#581358" d="M 57.5,74.5 C 57.5,75.5 57.5,76.5 57.5,77.5C 57.1667,77.5 56.8333,77.5 56.5,77.5C 54.3403,75.4357 52.007,75.1024 49.5,76.5C 48.8333,76.5 48.5,76.8333 48.5,77.5C 47.8333,77.5 47.5,77.8333 47.5,78.5C 46.1667,78.5 45.5,77.8333 45.5,76.5C 46.0577,75.2101 47.0577,74.3768 48.5,74C 51.5547,73.3658 54.5547,73.5325 57.5,74.5 Z"/></g>
<g><path style="opacity:0.994" fill="#71176c" d="M 64.5,75.5 C 65.1667,75.5 65.8333,75.5 66.5,75.5C 67.5676,76.4345 68.901,76.7678 70.5,76.5C 70.5,76.8333 70.5,77.1667 70.5,77.5C 68.0521,78.4731 65.3854,78.8064 62.5,78.5C 62.1667,78.5 61.8333,78.5 61.5,78.5C 61.5,78.1667 61.5,77.8333 61.5,77.5C 62.8734,77.6567 64.2068,77.49 65.5,77C 64.944,76.6174 64.6107,76.1174 64.5,75.5 Z"/></g>
<g><path style="opacity:0.004" fill="#d330d2" d="M 76.5,74.5 C 76.8333,74.5 77.1667,74.5 77.5,74.5C 77.6716,75.4916 77.3382,76.1583 76.5,76.5C 76.5,75.8333 76.5,75.1667 76.5,74.5 Z"/></g>
<g><path style="opacity:1" fill="#611264" d="M 49.5,76.5 C 51.4286,76.2308 53.0953,76.7308 54.5,78C 52.3299,79.8879 50.3299,79.7213 48.5,77.5C 48.5,76.8333 48.8333,76.5 49.5,76.5 Z"/></g>
<g><path style="opacity:0.004" fill="#000000" d="M 75.5,76.5 C 75.8333,76.5 76.1667,76.5 76.5,76.5C 76.3147,77.1701 75.9813,77.1701 75.5,76.5 Z"/></g>
<g><path style="opacity:1" fill="#4e103f" d="M 40.5,74.5 C 41.2389,74.369 41.9056,74.5357 42.5,75C 41.2089,76.2917 41.2089,77.4583 42.5,78.5C 42.5,79.1667 42.5,79.8333 42.5,80.5C 40.5395,78.6878 38.2061,77.6878 35.5,77.5C 35.1667,76.8333 34.8333,76.1667 34.5,75.5C 36.7224,75.178 38.5557,75.8446 40,77.5C 40.4828,76.552 40.6495,75.552 40.5,74.5 Z"/></g>
<g><path style="opacity:1" fill="#49103f" d="M 59.5,72.5 C 59.2155,74.4147 59.5489,76.0813 60.5,77.5C 60.8333,77.5 61.1667,77.5 61.5,77.5C 61.5,77.8333 61.5,78.1667 61.5,78.5C 60.1619,80.1128 58.4952,80.6128 56.5,80C 57.2524,79.3292 57.5858,78.4959 57.5,77.5C 57.5,76.5 57.5,75.5 57.5,74.5C 57.5,74.1667 57.5,73.8333 57.5,73.5C 58.1667,73.1667 58.8333,72.8333 59.5,72.5 Z"/></g>
<g><path style="opacity:1" fill="#610d3b" d="M 29.5,76.5 C 29.5,76.8333 29.5,77.1667 29.5,77.5C 29.5,77.8333 29.5,78.1667 29.5,78.5C 28.2905,78.9321 27.2905,79.5987 26.5,80.5C 25.7784,80.9175 25.2784,81.5842 25,82.5C 24.2917,81.6195 23.4584,80.9528 22.5,80.5C 21.609,79.8902 20.609,79.5569 19.5,79.5C 19.1667,78.8333 18.8333,78.1667 18.5,77.5C 19.1667,77.5 19.8333,77.5 20.5,77.5C 22.7257,78.7563 25.059,78.7563 27.5,77.5C 28.1667,77.1667 28.8333,76.8333 29.5,76.5 Z"/></g>
<g><path style="opacity:1" fill="#5d1459" d="M 45.5,76.5 C 45.5,77.8333 46.1667,78.5 47.5,78.5C 48.1667,79.5 48.8333,80.5 49.5,81.5C 48.1667,81.5 46.8333,81.5 45.5,81.5C 45.1667,81.5 44.8333,81.5 44.5,81.5C 44.5,80.8333 44.1667,80.5 43.5,80.5C 43.2291,78.6203 43.8958,77.287 45.5,76.5 Z"/></g>
<g><path style="opacity:1" fill="#601460" d="M 49.5,76.5 C 52.007,75.1024 54.3403,75.4357 56.5,77.5C 55.8333,78.5 55.1667,79.5 54.5,80.5C 52.7839,80.6287 51.1172,80.962 49.5,81.5C 48.8333,80.5 48.1667,79.5 47.5,78.5C 47.5,77.8333 47.8333,77.5 48.5,77.5C 50.3299,79.7213 52.3299,79.8879 54.5,78C 53.0953,76.7308 51.4286,76.2308 49.5,76.5 Z"/></g>
<g><path style="opacity:0.816" fill="#773561" d="M 75.5,75.5 C 75.5,75.8333 75.5,76.1667 75.5,76.5C 74.1667,76.8333 74.1667,77.1667 75.5,77.5C 75.0269,78.9063 74.0269,79.573 72.5,79.5C 72.1667,78.1667 71.8333,78.1667 71.5,79.5C 67.5,79.8333 67.5,80.1667 71.5,80.5C 68.7327,82.5167 65.7327,82.8501 62.5,81.5C 62.5,80.8333 62.5,80.1667 62.5,79.5C 62.5,79.1667 62.5,78.8333 62.5,78.5C 65.3854,78.8064 68.0521,78.4731 70.5,77.5C 72.3224,77.1692 73.9891,76.5025 75.5,75.5 Z"/></g>
<g><path style="opacity:1" fill="#671756" d="M 33.5,75.5 C 33.8333,75.5 34.1667,75.5 34.5,75.5C 34.8333,76.1667 35.1667,76.8333 35.5,77.5C 37.1392,78.4725 38.4726,79.8058 39.5,81.5C 37.0722,79.9565 34.4056,78.9565 31.5,78.5C 30.8333,78.5 30.1667,78.5 29.5,78.5C 29.5,78.1667 29.5,77.8333 29.5,77.5C 30.6049,76.3995 31.9382,75.7329 33.5,75.5 Z"/></g>
<g><path style="opacity:0.012" fill="#540055" d="M 71.5,79.5 C 71.8333,79.5 72.1667,79.5 72.5,79.5C 72.3147,80.1701 71.9813,80.1701 71.5,79.5 Z"/></g>
<g><path style="opacity:1" fill="#971867" d="M 17.5,77.5 C 17.5388,80.2054 17.5388,82.8721 17.5,85.5C 15.9731,85.573 14.9731,84.9063 14.5,83.5C 14.087,80.6798 15.087,78.6798 17.5,77.5 Z"/></g>
<g><path style="opacity:1" fill="#8a1860" d="M 17.5,77.5 C 17.8333,77.5 18.1667,77.5 18.5,77.5C 18.8333,78.1667 19.1667,78.8333 19.5,79.5C 19.4772,81.5996 20.1439,83.4329 21.5,85C 21.3613,86.301 20.6946,87.1344 19.5,87.5C 19.1667,87.5 18.8333,87.5 18.5,87.5C 18.1667,86.8333 17.8333,86.1667 17.5,85.5C 17.5388,82.8721 17.5388,80.2054 17.5,77.5 Z"/></g>
<g><path style="opacity:1" fill="#781563" d="M 29.5,80.5 C 35.7309,79.394 38.0642,81.7274 36.5,87.5C 33.8129,87.6585 31.4796,86.8252 29.5,85C 28.2721,83.5098 28.2721,82.0098 29.5,80.5 Z"/></g>
<g><path style="opacity:1" fill="#5f164f" d="M 35.5,77.5 C 38.2061,77.6878 40.5395,78.6878 42.5,80.5C 42.2437,82.9372 41.5771,85.2706 40.5,87.5C 39.675,88.3857 38.675,88.719 37.5,88.5C 37.5,88.1667 37.5,87.8333 37.5,87.5C 40.3489,86.0804 41.0156,84.0804 39.5,81.5C 38.4726,79.8058 37.1392,78.4725 35.5,77.5 Z"/></g>
<g><path style="opacity:1" fill="#602554" d="M 56.5,77.5 C 56.8333,77.5 57.1667,77.5 57.5,77.5C 57.5858,78.4959 57.2524,79.3292 56.5,80C 58.4952,80.6128 60.1619,80.1128 61.5,78.5C 61.8333,78.5 62.1667,78.5 62.5,78.5C 62.5,78.8333 62.5,79.1667 62.5,79.5C 61.6618,79.8417 61.3284,80.5084 61.5,81.5C 60.8333,81.5 60.5,81.8333 60.5,82.5C 59.8333,82.5 59.5,82.8333 59.5,83.5C 59.1667,83.5 58.8333,83.5 58.5,83.5C 58.1667,83.5 57.8333,83.5 57.5,83.5C 56.9002,82.1001 55.9002,81.1001 54.5,80.5C 55.1667,79.5 55.8333,78.5 56.5,77.5 Z"/></g>
<g><path style="opacity:1" fill="#731954" d="M 29.5,78.5 C 30.1667,78.5 30.8333,78.5 31.5,78.5C 30.8333,79.1667 30.1667,79.8333 29.5,80.5C 28.2721,82.0098 28.2721,83.5098 29.5,85C 31.4796,86.8252 33.8129,87.6585 36.5,87.5C 36.8333,87.5 37.1667,87.5 37.5,87.5C 37.5,87.8333 37.5,88.1667 37.5,88.5C 35.2646,88.2053 33.2646,88.5386 31.5,89.5C 31.1583,90.3382 30.4916,90.6716 29.5,90.5C 29.5,90.1667 29.5,89.8333 29.5,89.5C 30.1667,89.5 30.5,89.1667 30.5,88.5C 29.5423,87.0384 28.3756,85.7051 27,84.5C 26.51,83.2068 26.3433,81.8734 26.5,80.5C 27.2905,79.5987 28.2905,78.9321 29.5,78.5 Z"/></g>
<g><path style="opacity:0.012" fill="#540000" d="M 61.5,81.5 C 61.8333,81.5 62.1667,81.5 62.5,81.5C 62.3147,82.1701 61.9813,82.1701 61.5,81.5 Z"/></g>
<g><path style="opacity:0.996" fill="#ac2f7e" d="M 16.5,76.5 C 17.1667,76.5 17.5,76.8333 17.5,77.5C 15.087,78.6798 14.087,80.6798 14.5,83.5C 13.0413,83.5674 11.7079,83.2341 10.5,82.5C 10.2155,80.5853 10.5489,78.9187 11.5,77.5C 13.2915,77.634 14.9582,77.3007 16.5,76.5 Z"/></g>
<g><path style="opacity:1" fill="#6d165e" d="M 31.5,78.5 C 34.4056,78.9565 37.0722,79.9565 39.5,81.5C 41.0156,84.0804 40.3489,86.0804 37.5,87.5C 37.1667,87.5 36.8333,87.5 36.5,87.5C 38.0642,81.7274 35.7309,79.394 29.5,80.5C 30.1667,79.8333 30.8333,79.1667 31.5,78.5 Z"/></g>
<g><path style="opacity:0.988" fill="#5a1854" d="M 54.5,80.5 C 55.9002,81.1001 56.9002,82.1001 57.5,83.5C 54.9039,84.2653 52.2372,84.5987 49.5,84.5C 49.9175,83.7784 50.5842,83.2784 51.5,83C 49.2922,82.8091 47.2922,82.3091 45.5,81.5C 46.8333,81.5 48.1667,81.5 49.5,81.5C 51.1172,80.962 52.7839,80.6287 54.5,80.5 Z"/></g>
<g><path style="opacity:0.016" fill="#3e003f" d="M 60.5,82.5 C 60.8333,82.5 61.1667,82.5 61.5,82.5C 61.3147,83.1701 60.9813,83.1701 60.5,82.5 Z"/></g>
<g><path style="opacity:1" fill="#49153e" d="M 44.5,81.5 C 44.8333,81.5 45.1667,81.5 45.5,81.5C 47.2922,82.3091 49.2922,82.8091 51.5,83C 50.5842,83.2784 49.9175,83.7784 49.5,84.5C 48.8333,84.5 48.1667,84.5 47.5,84.5C 46.6522,83.375 45.6522,83.375 44.5,84.5C 43.1667,83.5 43.1667,82.5 44.5,81.5 Z"/></g>
<g><path style="opacity:0.012" fill="#000000" d="M 59.5,83.5 C 59.8333,83.5 60.1667,83.5 60.5,83.5C 60.3147,84.1701 59.9813,84.1701 59.5,83.5 Z"/></g>
<g><path style="opacity:1" fill="#80165a" d="M 19.5,79.5 C 20.609,79.5569 21.609,79.8902 22.5,80.5C 22.5,81.1667 22.5,81.8333 22.5,82.5C 23.2178,84.1368 23.3845,85.8034 23,87.5C 21.7083,88.7911 20.5417,88.7911 19.5,87.5C 20.6946,87.1344 21.3613,86.301 21.5,85C 20.1439,83.4329 19.4772,81.5996 19.5,79.5 Z"/></g>
<g><path style="opacity:0.663" fill="#633652" d="M 57.5,83.5 C 57.8333,83.5 58.1667,83.5 58.5,83.5C 58.5,84.1667 58.8333,84.5 59.5,84.5C 59.0269,85.9063 58.0269,86.573 56.5,86.5C 53.8333,85.1667 51.1667,85.1667 48.5,86.5C 48.1667,86.5 47.8333,86.5 47.5,86.5C 47.5,85.8333 47.5,85.1667 47.5,84.5C 48.1667,84.5 48.8333,84.5 49.5,84.5C 52.2372,84.5987 54.9039,84.2653 57.5,83.5 Z"/></g>
<g><path style="opacity:1" fill="#931c5d" d="M 10.5,82.5 C 11.7079,83.2341 13.0413,83.5674 14.5,83.5C 14.9731,84.9063 15.9731,85.573 17.5,85.5C 17.8333,86.1667 18.1667,86.8333 18.5,87.5C 17.1667,87.5 15.8333,87.5 14.5,87.5C 14.0269,86.0937 13.0269,85.427 11.5,85.5C 11.1667,85.5 10.8333,85.5 10.5,85.5C 10.5,85.1667 10.5,84.8333 10.5,84.5C 10.5,83.8333 10.5,83.1667 10.5,82.5 Z"/></g>
<g><path style="opacity:0.976" fill="#5c214a" d="M 42.5,80.5 C 42.8333,80.5 43.1667,80.5 43.5,80.5C 44.1667,80.5 44.5,80.8333 44.5,81.5C 43.1667,82.5 43.1667,83.5 44.5,84.5C 43.7659,85.7079 43.4326,87.0413 43.5,88.5C 42.8333,88.5 42.5,88.8333 42.5,89.5C 38.8333,89.5 35.1667,89.5 31.5,89.5C 33.2646,88.5386 35.2646,88.2053 37.5,88.5C 38.675,88.719 39.675,88.3857 40.5,87.5C 41.5771,85.2706 42.2437,82.9372 42.5,80.5 Z"/></g>
<g><path style="opacity:0.635" fill="#5d3443" d="M 47.5,84.5 C 46.6618,84.8417 46.3284,85.5084 46.5,86.5C 45.1667,86.8333 45.1667,87.1667 46.5,87.5C 46.0269,88.9063 45.0269,89.573 43.5,89.5C 43.5,89.1667 43.5,88.8333 43.5,88.5C 43.4326,87.0413 43.7659,85.7079 44.5,84.5C 45.6522,83.375 46.6522,83.375 47.5,84.5 Z"/></g>
<g><path style="opacity:0.999" fill="#7b1453" d="M 22.5,82.5 C 25.2666,83.754 25.9333,85.754 24.5,88.5C 21.8556,89.2951 19.1889,89.9618 16.5,90.5C 15.8333,89.5 15.1667,88.5 14.5,87.5C 15.8333,87.5 17.1667,87.5 18.5,87.5C 18.8333,87.5 19.1667,87.5 19.5,87.5C 20.5417,88.7911 21.7083,88.7911 23,87.5C 23.3845,85.8034 23.2178,84.1368 22.5,82.5 Z"/></g>
<g><path style="opacity:0.008" fill="#000000" d="M 46.5,86.5 C 46.8333,86.5 47.1667,86.5 47.5,86.5C 47.3147,87.1701 46.9813,87.1701 46.5,86.5 Z"/></g>
<g><path style="opacity:0.006" fill="#361b33" d="M 48.5,86.5 C 51.1667,86.5 53.8333,86.5 56.5,86.5C 53.8333,87.8333 51.1667,87.8333 48.5,86.5 Z"/></g>
<g><path style="opacity:0.867" fill="#a63a53" d="M 10.5,84.5 C 10.5,84.8333 10.5,85.1667 10.5,85.5C 10.8333,86.8333 11.1667,86.8333 11.5,85.5C 13.0269,85.427 14.0269,86.0937 14.5,87.5C 15.1667,88.5 15.8333,89.5 16.5,90.5C 16.5,90.8333 16.5,91.1667 16.5,91.5C 16.5,92.1667 16.8333,92.5 17.5,92.5C 17.8333,92.5 18.1667,92.5 18.5,92.5C 18.5,92.8333 18.5,93.1667 18.5,93.5C 17.448,93.6495 16.448,93.4828 15.5,93C 15.4928,90.8807 14.3261,89.0474 12,87.5C 11.3333,88.8333 10.6667,88.8333 10,87.5C 8.51674,84.2976 8.1834,80.9643 9,77.5C 9.18618,80.0356 9.68618,82.369 10.5,84.5 Z"/></g>
<g><path style="opacity:0.99" fill="#701a49" d="M 22.5,80.5 C 23.4584,80.9528 24.2917,81.6195 25,82.5C 25.2784,81.5842 25.7784,80.9175 26.5,80.5C 26.3433,81.8734 26.51,83.2068 27,84.5C 28.3756,85.7051 29.5423,87.0384 30.5,88.5C 29.8333,88.5 29.5,88.8333 29.5,89.5C 28.8333,89.5 28.5,89.8333 28.5,90.5C 28.1667,90.5 27.8333,90.5 27.5,90.5C 24.2139,91.2071 20.8806,91.5405 17.5,91.5C 17.1667,91.5 16.8333,91.5 16.5,91.5C 16.5,91.1667 16.5,90.8333 16.5,90.5C 19.1889,89.9618 21.8556,89.2951 24.5,88.5C 25.9333,85.754 25.2666,83.754 22.5,82.5C 22.5,81.8333 22.5,81.1667 22.5,80.5 Z"/></g>
<g><path style="opacity:0.012" fill="#540055" d="M 42.5,89.5 C 42.8333,89.5 43.1667,89.5 43.5,89.5C 43.3147,90.1701 42.9813,90.1701 42.5,89.5 Z"/></g>
<g><path style="opacity:0.016" fill="#3e3f3e" d="M 28.5,90.5 C 28.8333,90.5 29.1667,90.5 29.5,90.5C 29.3147,91.1701 28.9813,91.1701 28.5,90.5 Z"/></g>
<g><path style="opacity:0.012" fill="#3f153e" d="M 32.5,91.5 C 35.3035,90.3622 38.3035,90.1955 41.5,91C 38.5184,91.498 35.5184,91.6646 32.5,91.5 Z"/></g>
<g><path style="opacity:0.133" fill="#6b3038" d="M 27.5,90.5 C 27.5,91.1667 27.8333,91.5 28.5,91.5C 27.9423,92.7899 26.9423,93.6232 25.5,94C 22.9615,94.7958 20.6282,94.6291 18.5,93.5C 26.5,93.1667 26.5,92.8333 18.5,92.5C 18.1667,92.5 17.8333,92.5 17.5,92.5C 17.5,92.1667 17.5,91.8333 17.5,91.5C 20.8806,91.5405 24.2139,91.2071 27.5,90.5 Z"/></g>
</svg>
