<?xml version="1.0" encoding="UTF-8"?>
<!DOCTYPE svg PUBLIC "-//W3C//DTD SVG 1.1//EN" "http://www.w3.org/Graphics/SVG/1.1/DTD/svg11.dtd">
<svg xmlns="http://www.w3.org/2000/svg" version="1.1" width="100px" height="100px" style="shape-rendering:geometricPrecision; text-rendering:geometricPrecision; image-rendering:optimizeQuality; fill-rule:evenodd; clip-rule:evenodd" xmlns:xlink="http://www.w3.org/1999/xlink">
<g><path style="opacity:0.008" fill="#7e0000" d="M 60.5,5.5 C 61.8333,6.16667 61.8333,6.16667 60.5,5.5 Z"/></g>
<g><path style="opacity:0.941" fill="#e9777e" d="M 60.5,6.5 C 60.8333,7.16667 61.1667,7.83333 61.5,8.5C 59.8333,8.5 58.1667,8.5 56.5,8.5C 50.3502,7.98173 44.0169,7.98173 37.5,8.5C 37.6107,7.88258 37.944,7.38258 38.5,7C 45.8258,6.50034 53.1591,6.33368 60.5,6.5 Z"/></g>
<g><path style="opacity:0.016" fill="#e21f15" d="M 35.5,7.5 C 36.6341,9.96638 36.8007,12.633 36,15.5C 35.5026,12.854 35.3359,10.1873 35.5,7.5 Z"/></g>
<g><path style="opacity:0.016" fill="#b60e14" d="M 62.5,15.5 C 62.3359,12.8127 62.5026,10.146 63,7.5C 63.8007,10.367 63.6341,13.0336 62.5,15.5 Z"/></g>
<g><path style="opacity:0.996" fill="#d71d1d" d="M 56.5,8.5 C 53.6802,8.24751 51.0135,8.74751 48.5,10C 49.6405,10.7412 49.6405,11.5745 48.5,12.5C 44.8384,13.3128 41.1718,13.9794 37.5,14.5C 37.5,12.5 37.5,10.5 37.5,8.5C 44.0169,7.98173 50.3502,7.98173 56.5,8.5 Z"/></g>
<g><path style="opacity:1" fill="#ab110f" d="M 56.5,8.5 C 58.1667,8.5 59.8333,8.5 61.5,8.5C 61.5,10.8333 61.5,13.1667 61.5,15.5C 60.1667,15.8333 60.1667,16.1667 61.5,16.5C 60.564,20.7352 60.2307,25.0685 60.5,29.5C 59.5489,28.0813 59.2155,26.4147 59.5,24.5C 59.5,23.5 59.5,22.5 59.5,21.5C 59.5,19.5 59.5,17.5 59.5,15.5C 52.2192,14.9287 45.2192,15.5953 38.5,17.5C 38.4361,16.6348 38.1027,15.6348 37.5,14.5C 41.1718,13.9794 44.8384,13.3128 48.5,12.5C 49.6405,11.5745 49.6405,10.7412 48.5,10C 51.0135,8.74751 53.6802,8.24751 56.5,8.5 Z"/></g>
<g><path style="opacity:0.004" fill="#fe0000" d="M 61.5,15.5 C 61.8333,15.5 62.1667,15.5 62.5,15.5C 62.3147,16.1701 61.9813,16.1701 61.5,15.5 Z"/></g>
<g><path style="opacity:1" fill="#c9181a" d="M 59.5,21.5 C 59.5,22.5 59.5,23.5 59.5,24.5C 55.9042,24.1533 52.5709,24.82 49.5,26.5C 46.4291,24.82 43.0958,24.1533 39.5,24.5C 39.5,23.1667 39.5,21.8333 39.5,20.5C 42.8674,20.5429 46.2008,20.2096 49.5,19.5C 52.7028,20.8924 56.0361,21.5591 59.5,21.5 Z"/></g>
<g><path style="opacity:0.998" fill="#e94851" d="M 59.5,21.5 C 56.0361,21.5591 52.7028,20.8924 49.5,19.5C 46.2008,20.2096 42.8674,20.5429 39.5,20.5C 39.5,21.8333 39.5,23.1667 39.5,24.5C 43.0958,24.1533 46.4291,24.82 49.5,26.5C 52.5709,24.82 55.9042,24.1533 59.5,24.5C 59.2155,26.4147 59.5489,28.0813 60.5,29.5C 60.5,30.1667 60.5,30.8333 60.5,31.5C 56.8333,31.5 53.1667,31.5 49.5,31.5C 45.8333,31.5 42.1667,31.5 38.5,31.5C 38.5,26.8333 38.5,22.1667 38.5,17.5C 45.2192,15.5953 52.2192,14.9287 59.5,15.5C 59.5,17.5 59.5,19.5 59.5,21.5 Z"/></g>
<g><path style="opacity:1" fill="#f27981" d="M 49.5,31.5 C 53.1667,31.5 56.8333,31.5 60.5,31.5C 63.1288,34.6306 65.9621,37.6306 69,40.5C 71.0048,39.9683 72.1714,40.9683 72.5,43.5C 72.1667,43.5 71.8333,43.5 71.5,43.5C 71.1667,42.1667 70.8333,42.1667 70.5,43.5C 62.8333,43.5 55.1667,43.5 47.5,43.5C 48.209,42.596 49.209,42.2627 50.5,42.5C 50.756,38.7307 50.4227,35.0641 49.5,31.5 Z"/></g>
<g><path style="opacity:0.993" fill="#f6959d" d="M 38.5,31.5 C 42.1667,31.5 45.8333,31.5 49.5,31.5C 50.4227,35.0641 50.756,38.7307 50.5,42.5C 49.209,42.2627 48.209,42.596 47.5,43.5C 41.1667,43.5 34.8333,43.5 28.5,43.5C 28.1667,42.1667 27.8333,42.1667 27.5,43.5C 27.1667,43.5 26.8333,43.5 26.5,43.5C 27.0312,41.4559 28.1978,39.7893 30,38.5C 30.3333,38.8333 30.6667,39.1667 31,39.5C 33.705,36.9638 36.205,34.2971 38.5,31.5 Z"/></g>
<g><path style="opacity:0.993" fill="#db3635" d="M 70.5,43.5 C 70.8333,43.5 71.1667,43.5 71.5,43.5C 71.5,46.8333 71.5,50.1667 71.5,53.5C 70.0337,58.8218 69.0337,64.3218 68.5,70C 66.5911,70.4479 65.4244,69.6145 65,67.5C 64.2825,68.4506 63.4491,68.6172 62.5,68C 63.8112,65.7265 63.8112,63.5598 62.5,61.5C 62.9465,58.9899 62.2798,56.9899 60.5,55.5C 59.3077,53.8869 58.3077,52.2202 57.5,50.5C 57.5,50.1667 57.5,49.8333 57.5,49.5C 56.7375,48.7321 55.7375,48.2321 54.5,48C 57.1777,47.328 59.511,46.1613 61.5,44.5C 64.7131,44.81 67.7131,44.4767 70.5,43.5 Z"/></g>
<g><path style="opacity:0.998" fill="#e5484a" d="M 27.5,43.5 C 27.8333,43.5 28.1667,43.5 28.5,43.5C 34.8333,43.5 41.1667,43.5 47.5,43.5C 55.1667,43.5 62.8333,43.5 70.5,43.5C 67.7131,44.4767 64.7131,44.81 61.5,44.5C 56.1563,44.334 50.8229,44.5006 45.5,45C 40.1667,48.467 35.8334,52.967 32.5,58.5C 31.5224,58.0233 30.6891,57.3567 30,56.5C 29.6667,56.8333 29.3333,57.1667 29,57.5C 28.5003,64.8258 28.3337,72.1591 28.5,79.5C 28.5,82.5 28.5,85.5 28.5,88.5C 27.5039,73.676 27.1706,58.676 27.5,43.5 Z"/></g>
<g><path style="opacity:1" fill="#e24141" d="M 61.5,44.5 C 59.511,46.1613 57.1777,47.328 54.5,48C 55.7375,48.2321 56.7375,48.7321 57.5,49.5C 51.9066,49.1934 46.4066,49.5268 41,50.5C 39.4696,53.3512 37.9696,56.1846 36.5,59C 37.3102,62.7921 37.6436,66.6255 37.5,70.5C 37.631,71.2389 37.4643,71.9056 37,72.5C 36.6667,70.8333 36.3333,69.1667 36,67.5C 34.5093,69.0037 32.676,69.8371 30.5,70C 29.868,73.2704 29.2014,76.4371 28.5,79.5C 28.3337,72.1591 28.5003,64.8258 29,57.5C 29.3333,57.1667 29.6667,56.8333 30,56.5C 30.6891,57.3567 31.5224,58.0233 32.5,58.5C 35.8334,52.967 40.1667,48.467 45.5,45C 50.8229,44.5006 56.1563,44.334 61.5,44.5 Z"/></g>
<g><path style="opacity:1" fill="#b40d0e" d="M 57.5,49.5 C 57.5,49.8333 57.5,50.1667 57.5,50.5C 51.7924,50.4924 51.4591,50.9924 56.5,52C 52.7208,59.775 47.2208,65.9417 40,70.5C 39.1932,66.551 38.6932,66.551 38.5,70.5C 38.1667,70.5 37.8333,70.5 37.5,70.5C 37.6436,66.6255 37.3102,62.7921 36.5,59C 37.9696,56.1846 39.4696,53.3512 41,50.5C 46.4066,49.5268 51.9066,49.1934 57.5,49.5 Z"/></g>
<g><path style="opacity:1" fill="#ab0b0c" d="M 57.5,50.5 C 58.3077,52.2202 59.3077,53.8869 60.5,55.5C 60.4359,57.5401 60.2692,59.8734 60,62.5C 59.6667,61.8333 59.3333,61.1667 59,60.5C 56.4585,65.5688 52.9585,69.9022 48.5,73.5C 47.6143,74.325 47.281,75.325 47.5,76.5C 46.7215,78.105 44.3882,79.105 40.5,79.5C 39.3428,76.7273 38.6761,73.7273 38.5,70.5C 38.6932,66.551 39.1932,66.551 40,70.5C 47.2208,65.9417 52.7208,59.775 56.5,52C 51.4591,50.9924 51.7924,50.4924 57.5,50.5 Z"/></g>
<g><path style="opacity:1" fill="#d73631" d="M 71.5,53.5 C 71.5,65.1667 71.5,76.8333 71.5,88.5C 70.8333,88.5 70.5,88.8333 70.5,89.5C 69.8333,89.5 69.5,89.8333 69.5,90.5C 69.1667,90.5 68.8333,90.5 68.5,90.5C 55.8333,90.5 43.1667,90.5 30.5,90.5C 29.5,90.1667 28.8333,89.5 28.5,88.5C 36.535,88.6288 44.2017,87.9621 51.5,86.5C 51.33,85.1779 51.6634,84.0113 52.5,83C 54.5,82.6667 56.5,82.3333 58.5,82C 53.9805,81.8247 49.6472,81.3247 45.5,80.5C 50.0986,80.8 54.5986,80.4667 59,79.5C 60.078,73.3427 61.2447,67.3427 62.5,61.5C 63.8112,63.5598 63.8112,65.7265 62.5,68C 63.4491,68.6172 64.2825,68.4506 65,67.5C 65.4244,69.6145 66.5911,70.4479 68.5,70C 69.0337,64.3218 70.0337,58.8218 71.5,53.5 Z"/></g>
<g><path style="opacity:1" fill="#a60c0c" d="M 60.5,55.5 C 62.2798,56.9899 62.9465,58.9899 62.5,61.5C 61.2447,67.3427 60.078,73.3427 59,79.5C 54.5986,80.4667 50.0986,80.8 45.5,80.5C 43.5853,80.7845 41.9187,80.4511 40.5,79.5C 44.3882,79.105 46.7215,78.105 47.5,76.5C 47.281,75.325 47.6143,74.325 48.5,73.5C 52.9585,69.9022 56.4585,65.5688 59,60.5C 59.3333,61.1667 59.6667,61.8333 60,62.5C 60.2692,59.8734 60.4359,57.5401 60.5,55.5 Z"/></g>
<g><path style="opacity:0.004" fill="#cc0002" d="M 26.5,43.5 C 26.6666,58.1705 26.4999,72.8371 26,87.5C 25.1724,72.6609 25.3391,57.9942 26.5,43.5 Z"/></g>
<g><path style="opacity:0.004" fill="#ca0002" d="M 72.5,43.5 C 73.6609,57.9942 73.8276,72.6609 73,87.5C 72.5001,72.8371 72.3334,58.1705 72.5,43.5 Z"/></g>
<g><path style="opacity:1" fill="#dc3c37" d="M 37.5,70.5 C 37.8333,70.5 38.1667,70.5 38.5,70.5C 38.6761,73.7273 39.3428,76.7273 40.5,79.5C 41.9187,80.4511 43.5853,80.7845 45.5,80.5C 49.6472,81.3247 53.9805,81.8247 58.5,82C 56.5,82.3333 54.5,82.6667 52.5,83C 51.6634,84.0113 51.33,85.1779 51.5,86.5C 44.2017,87.9621 36.535,88.6288 28.5,88.5C 28.5,85.5 28.5,82.5 28.5,79.5C 29.2014,76.4371 29.868,73.2704 30.5,70C 32.676,69.8371 34.5093,69.0037 36,67.5C 36.3333,69.1667 36.6667,70.8333 37,72.5C 37.4643,71.9056 37.631,71.2389 37.5,70.5 Z"/></g>
<g><path style="opacity:0.012" fill="#a90000" d="M 71.5,88.5 C 72.8333,89.1667 72.8333,89.1667 71.5,88.5 Z"/></g>
<g><path style="opacity:0.004" fill="#fe0000" d="M 70.5,89.5 C 70.8333,89.5 71.1667,89.5 71.5,89.5C 71.3147,90.1701 70.9813,90.1701 70.5,89.5 Z"/></g>
<g><path style="opacity:0.998" fill="#a71710" d="M 30.5,90.5 C 43.1667,90.5 55.8333,90.5 68.5,90.5C 68.5,91.1667 68.8333,91.5 69.5,91.5C 69.3893,92.1174 69.056,92.6174 68.5,93C 66.5273,93.4955 64.5273,93.6621 62.5,93.5C 53.8333,92.1667 45.1667,92.1667 36.5,93.5C 34.4727,93.6621 32.4727,93.4955 30.5,93C 29.4019,92.2303 29.4019,91.397 30.5,90.5 Z"/></g>
<g><path style="opacity:0.008" fill="#7e0000" d="M 69.5,90.5 C 69.8333,90.5 70.1667,90.5 70.5,90.5C 70.3147,91.1701 69.9813,91.1701 69.5,90.5 Z"/></g>
<g><path style="opacity:0.004" fill="#c90004" d="M 36.5,93.5 C 45.1667,93.5 53.8333,93.5 62.5,93.5C 53.8333,94.8333 45.1667,94.8333 36.5,93.5 Z"/></g>
</svg>
