<?xml version="1.0" encoding="UTF-8"?>
<!DOCTYPE svg PUBLIC "-//W3C//DTD SVG 1.1//EN" "http://www.w3.org/Graphics/SVG/1.1/DTD/svg11.dtd">
<svg xmlns="http://www.w3.org/2000/svg" version="1.1" width="100px" height="100px" style="shape-rendering:geometricPrecision; text-rendering:geometricPrecision; image-rendering:optimizeQuality; fill-rule:evenodd; clip-rule:evenodd" xmlns:xlink="http://www.w3.org/1999/xlink">
<g><path style="opacity:0.012" fill="#94883f" d="M 19.5,16.5 C 19.5,16.8333 19.5,17.1667 19.5,17.5C 18.8333,17.5 18.5,17.8333 18.5,18.5C 17.8333,18.5 17.5,18.8333 17.5,19.5C 16.2819,17.6682 16.9486,16.6682 19.5,16.5 Z"/></g>
<g><path style="opacity:1" fill="#eab66e" d="M 59.5,12.5 C 45.073,11.4861 37.7397,11.8195 37.5,13.5C 45.6018,15.1178 53.9351,15.9512 62.5,16C 65.3454,16.0082 67.3454,17.1749 68.5,19.5C 65.6872,19.4519 63.0205,18.7853 60.5,17.5C 59.6919,17.8076 59.0253,18.3076 58.5,19C 59.8333,19.3333 61.1667,19.6667 62.5,20C 57.9041,21.2861 53.2374,22.1194 48.5,22.5C 48.5,23.5 48.5,24.5 48.5,25.5C 47.3634,24.2112 46.0301,23.2112 44.5,22.5C 43.5,22.1667 42.8333,21.5 42.5,20.5C 38.343,15.7787 33.0097,13.7787 26.5,14.5C 25.8333,13.1667 25.1667,13.1667 24.5,14.5C 23.8333,14.5 23.1667,14.5 22.5,14.5C 23.347,13.0337 24.6803,12.2004 26.5,12C 37.6745,11.1743 48.6745,11.341 59.5,12.5 Z"/></g>
<g><path style="opacity:1" fill="#21bf67" d="M 42.5,20.5 C 42.8333,21.5 43.5,22.1667 44.5,22.5C 46.7664,26.0337 48.7664,29.7004 50.5,33.5C 51.1346,36.4929 51.3013,39.4929 51,42.5C 49.3417,39.6757 47.175,37.3424 44.5,35.5C 44.5,34.5 44.5,33.5 44.5,32.5C 41.5179,32.5844 38.5179,32.0844 35.5,31C 34.1509,30.2276 33.3176,29.0609 33,27.5C 32.6667,28.5 32.3333,29.5 32,30.5C 31.8019,28.6183 31.3019,26.9516 30.5,25.5C 29.8333,24.1667 29.1667,24.1667 28.5,25.5C 27.6981,26.9516 27.1981,28.6183 27,30.5C 25.1881,27.1788 22.3547,25.8454 18.5,26.5C 18.631,25.7611 18.4643,25.0944 18,24.5C 17.5814,25.6721 16.9147,26.6721 16,27.5C 15.6012,27.2716 15.4346,26.9382 15.5,26.5C 22.3748,15.5412 31.3748,13.5412 42.5,20.5 Z"/></g>
<g><path style="opacity:1" fill="#e09d56" d="M 68.5,19.5 C 69.3981,21.9052 70.8981,23.9052 73,25.5C 73.49,26.7932 73.6567,28.1266 73.5,29.5C 66.1671,27.224 58.6671,26.8907 51,28.5C 49.2509,28.2517 48.4176,27.2517 48.5,25.5C 48.5,24.5 48.5,23.5 48.5,22.5C 53.2374,22.1194 57.9041,21.2861 62.5,20C 61.1667,19.6667 59.8333,19.3333 58.5,19C 59.0253,18.3076 59.6919,17.8076 60.5,17.5C 63.0205,18.7853 65.6872,19.4519 68.5,19.5 Z"/></g>
<g><path style="opacity:0.997" fill="#dca479" d="M 59.5,12.5 C 64.078,11.9691 67.9113,13.3025 71,16.5C 72.5069,15.4652 74.0069,15.6319 75.5,17C 76.9842,18.5737 78.6508,19.907 80.5,21C 80.1667,21.3333 79.8333,21.6667 79.5,22C 81.3333,23.8333 83.1667,25.6667 85,27.5C 85.3333,27.1667 85.6667,26.8333 86,26.5C 86.4696,27.5768 86.3029,28.5768 85.5,29.5C 84.2046,30.0306 83.5379,31.3639 83.5,33.5C 80.8127,33.6641 78.146,33.4974 75.5,33C 74.1772,32.1841 73.5106,31.0174 73.5,29.5C 73.6567,28.1266 73.49,26.7932 73,25.5C 70.8981,23.9052 69.3981,21.9052 68.5,19.5C 67.3454,17.1749 65.3454,16.0082 62.5,16C 53.9351,15.9512 45.6018,15.1178 37.5,13.5C 45.0191,13.825 52.3524,13.4916 59.5,12.5 Z"/></g>
<g><path style="opacity:1" fill="#313032" d="M 30.5,25.5 C 29.8333,33.5 29.1667,33.5 28.5,25.5C 29.1667,24.1667 29.8333,24.1667 30.5,25.5 Z"/></g>
<g><path style="opacity:1" fill="#ce7c34" d="M 22.5,14.5 C 23.1667,15.8333 23.8333,15.8333 24.5,14.5C 25.1667,14.5 25.8333,14.5 26.5,14.5C 33.0097,13.7787 38.343,15.7787 42.5,20.5C 31.3748,13.5412 22.3748,15.5412 15.5,26.5C 13.9925,28.1815 12.9925,30.1815 12.5,32.5C 11.8333,33.5 11.1667,34.5 10.5,35.5C 10.5,34.8333 10.1667,34.5 9.5,34.5C 9.73731,33.209 9.40397,32.209 8.5,31.5C 8.49136,29.6916 8.99136,28.0249 10,26.5C 10.6667,25.1667 11.3333,25.1667 12,26.5C 13.6665,24.0043 15.4998,21.671 17.5,19.5C 18.1667,19.5 18.5,19.1667 18.5,18.5C 19.1667,18.5 19.5,18.1667 19.5,17.5C 20.8333,17.1667 20.8333,16.8333 19.5,16.5C 19.9731,15.0937 20.9731,14.427 22.5,14.5 Z"/></g>
<g><path style="opacity:1" fill="#1ab055" d="M 18.5,26.5 C 22.0572,31.114 26.7238,33.9473 32.5,35C 33.2524,35.6708 33.5858,36.5041 33.5,37.5C 29.7339,34.562 26.5673,35.2287 24,39.5C 22.9914,41.0249 22.4914,42.6916 22.5,44.5C 22.1667,44.5 21.8333,44.5 21.5,44.5C 21.5654,44.0618 21.3988,43.7284 21,43.5C 20.6667,44.1667 20.3333,44.8333 20,45.5C 19.6905,44.2341 19.1905,43.0674 18.5,42C 19.305,40.8873 19.9717,39.7206 20.5,38.5C 20.6085,36.4862 19.9418,34.8195 18.5,33.5C 17.791,32.596 16.791,32.2627 15.5,32.5C 15.6495,31.448 15.4828,30.448 15,29.5C 14.5291,31.2464 13.8624,32.913 13,34.5C 12.5357,33.9056 12.369,33.2389 12.5,32.5C 12.9925,30.1815 13.9925,28.1815 15.5,26.5C 15.4346,26.9382 15.6012,27.2716 16,27.5C 16.9147,26.6721 17.5814,25.6721 18,24.5C 18.4643,25.0944 18.631,25.7611 18.5,26.5 Z"/></g>
<g><path style="opacity:1" fill="#1cad57" d="M 28.5,25.5 C 29.1667,33.5 29.8333,33.5 30.5,25.5C 31.3019,26.9516 31.8019,28.6183 32,30.5C 32.3333,29.5 32.6667,28.5 33,27.5C 33.3176,29.0609 34.1509,30.2276 35.5,31C 38.5179,32.0844 41.5179,32.5844 44.5,32.5C 44.5,33.5 44.5,34.5 44.5,35.5C 44.1667,35.5 43.8333,35.5 43.5,35.5C 41.9493,33.0184 40.616,33.3517 39.5,36.5C 38.2164,37.5573 36.8831,38.5573 35.5,39.5C 34.5,39.1667 33.8333,38.5 33.5,37.5C 33.5858,36.5041 33.2524,35.6708 32.5,35C 26.7238,33.9473 22.0572,31.114 18.5,26.5C 22.3547,25.8454 25.1881,27.1788 27,30.5C 27.1981,28.6183 27.6981,26.9516 28.5,25.5 Z"/></g>
<g><path style="opacity:1" fill="#d18349" d="M 44.5,22.5 C 46.0301,23.2112 47.3634,24.2112 48.5,25.5C 48.4176,27.2517 49.2509,28.2517 51,28.5C 58.6671,26.8907 66.1671,27.224 73.5,29.5C 73.5106,31.0174 74.1772,32.1841 75.5,33C 78.146,33.4974 80.8127,33.6641 83.5,33.5C 83.5379,31.3639 84.2046,30.0306 85.5,29.5C 86.6885,30.0476 87.8552,30.3809 89,30.5C 89.195,31.8193 89.0283,33.1526 88.5,34.5C 88.6068,36.3786 88.1068,36.7119 87,35.5C 85.4259,36.8476 83.5925,37.5142 81.5,37.5C 73.7679,36.3065 66.1013,36.6398 58.5,38.5C 55.1778,38.0233 52.8445,36.3566 51.5,33.5C 51.1667,33.5 50.8333,33.5 50.5,33.5C 48.7664,29.7004 46.7664,26.0337 44.5,22.5 Z"/></g>
<g><path style="opacity:1" fill="#2c2f2e" d="M 18.5,33.5 C 19.9418,34.8195 20.6085,36.4862 20.5,38.5C 16.531,37.5876 15.8643,35.9209 18.5,33.5 Z"/></g>
<g><path style="opacity:1" fill="#1e1e1d" d="M 43.5,35.5 C 42.2409,38.5264 40.9076,38.8597 39.5,36.5C 40.616,33.3517 41.9493,33.0184 43.5,35.5 Z"/></g>
<g><path style="opacity:1" fill="#19ac50" d="M 50.5,33.5 C 50.8333,33.5 51.1667,33.5 51.5,33.5C 51.9926,35.8056 52.3259,38.139 52.5,40.5C 52.9038,46.2896 52.4038,51.9562 51,57.5C 50.6824,55.9391 49.8491,54.7724 48.5,54C 50.158,53.2747 50.658,52.108 50,50.5C 49.6667,50.8333 49.3333,51.1667 49,51.5C 48.7216,50.5842 48.2216,49.9175 47.5,49.5C 45.7163,48.2801 44.0496,48.2801 42.5,49.5C 41.2655,52.3298 40.2655,55.3298 39.5,58.5C 38.5,58.5 37.5,58.5 36.5,58.5C 37.0916,55.8728 37.4249,53.2062 37.5,50.5C 37.7583,46.6331 37.0916,42.9664 35.5,39.5C 36.8831,38.5573 38.2164,37.5573 39.5,36.5C 40.9076,38.8597 42.2409,38.5264 43.5,35.5C 43.8333,35.5 44.1667,35.5 44.5,35.5C 47.175,37.3424 49.3417,39.6757 51,42.5C 51.3013,39.4929 51.1346,36.4929 50.5,33.5 Z"/></g>
<g><path style="opacity:0.008" fill="#7f4e15" d="M 8.5,31.5 C 8.5,32.5 8.5,33.5 8.5,34.5C 7.59603,35.209 7.26269,36.209 7.5,37.5C 6.54885,38.9187 6.21552,40.5853 6.5,42.5C 6.16667,42.5 5.83333,42.5 5.5,42.5C 5.12571,38.3526 6.12571,34.6859 8.5,31.5 Z"/></g>
<g><path style="opacity:1" fill="#c16b3a" d="M 51.5,33.5 C 52.8445,36.3566 55.1778,38.0233 58.5,38.5C 66.1013,36.6398 73.7679,36.3065 81.5,37.5C 83.5925,37.5142 85.4259,36.8476 87,35.5C 88.1068,36.7119 88.6068,36.3786 88.5,34.5C 89.1667,35.5 89.8333,36.5 90.5,37.5C 90.3284,38.4916 90.6618,39.1583 91.5,39.5C 91.5,39.8333 91.5,40.1667 91.5,40.5C 79.2726,41.3788 66.9393,41.3788 54.5,40.5C 54.1667,40.5 53.8333,40.5 53.5,40.5C 53.1667,40.5 52.8333,40.5 52.5,40.5C 52.3259,38.139 51.9926,35.8056 51.5,33.5 Z"/></g>
<g><path style="opacity:1" fill="#14a349" d="M 18.5,33.5 C 15.8643,35.9209 16.531,37.5876 20.5,38.5C 19.9717,39.7206 19.305,40.8873 18.5,42C 19.1905,43.0674 19.6905,44.2341 20,45.5C 20.3333,44.8333 20.6667,44.1667 21,43.5C 21.3988,43.7284 21.5654,44.0618 21.5,44.5C 21.5,47.1667 21.5,49.8333 21.5,52.5C 21.6567,53.8734 21.49,55.2068 21,56.5C 20.3728,54.0727 19.2062,52.0727 17.5,50.5C 17.1667,49.5 16.5,48.8333 15.5,48.5C 11.7582,46.3109 10.0915,42.9776 10.5,38.5C 10.5,37.5 10.5,36.5 10.5,35.5C 11.1667,34.5 11.8333,33.5 12.5,32.5C 12.369,33.2389 12.5357,33.9056 13,34.5C 13.8624,32.913 14.5291,31.2464 15,29.5C 15.4828,30.448 15.6495,31.448 15.5,32.5C 16.791,32.2627 17.791,32.596 18.5,33.5 Z"/></g>
<g><path style="opacity:1" fill="#e0d4bf" d="M 33.5,37.5 C 33.8333,38.5 34.5,39.1667 35.5,39.5C 37.0916,42.9664 37.7583,46.6331 37.5,50.5C 36.8826,50.3893 36.3826,50.056 36,49.5C 35.7508,50.624 35.2508,51.624 34.5,52.5C 31.557,51.7565 28.557,51.2565 25.5,51C 24.0735,48.9546 23.0735,46.7879 22.5,44.5C 22.4914,42.6916 22.9914,41.0249 24,39.5C 26.5673,35.2287 29.7339,34.562 33.5,37.5 Z"/></g>
<g><path style="opacity:1" fill="#af5226" d="M 91.5,40.5 C 91.5,41.5 91.5,42.5 91.5,43.5C 90.8826,43.3893 90.3826,43.056 90,42.5C 89.51,43.7932 89.3433,45.1266 89.5,46.5C 78.2047,47.4342 66.8714,47.7675 55.5,47.5C 55.0074,45.1944 54.6741,42.861 54.5,40.5C 66.9393,41.3788 79.2726,41.3788 91.5,40.5 Z"/></g>
<g><path style="opacity:0.008" fill="#d30d04" d="M 5.5,42.5 C 5.5,46.8333 5.5,51.1667 5.5,55.5C 4.16667,51.1667 4.16667,46.8333 5.5,42.5 Z"/></g>
<g><path style="opacity:1" fill="#a53f16" d="M 92.5,59.5 C 92.7678,57.901 92.4345,56.5676 91.5,55.5C 90.8826,55.6107 90.3826,55.944 90,56.5C 89.5065,54.8659 89.3398,53.1992 89.5,51.5C 78.1881,50.3869 66.8547,50.3869 55.5,51.5C 55.3713,53.2161 55.038,54.8828 54.5,56.5C 54.5,57.5 54.5,58.5 54.5,59.5C 53.6618,59.1583 53.3284,58.4916 53.5,57.5C 53.5,51.8333 53.5,46.1667 53.5,40.5C 53.8333,40.5 54.1667,40.5 54.5,40.5C 54.6741,42.861 55.0074,45.1944 55.5,47.5C 66.8714,47.7675 78.2047,47.4342 89.5,46.5C 89.3433,45.1266 89.51,43.7932 90,42.5C 90.3826,43.056 90.8826,43.3893 91.5,43.5C 92.8333,42.5 92.8333,41.5 91.5,40.5C 91.5,40.1667 91.5,39.8333 91.5,39.5C 91.6716,38.5084 91.3382,37.8417 90.5,37.5C 90.3505,36.448 90.5172,35.448 91,34.5C 94.8876,42.7771 95.3876,51.1104 92.5,59.5 Z"/></g>
<g><path style="opacity:1" fill="#262628" d="M 15.5,48.5 C 16.5,48.8333 17.1667,49.5 17.5,50.5C 16.8333,50.5 16.5,50.8333 16.5,51.5C 11.9749,51.0406 11.6415,50.0406 15.5,48.5 Z"/></g>
<g><path style="opacity:1" fill="#1f2520" d="M 47.5,49.5 C 46.9517,52.0838 45.285,53.0838 42.5,52.5C 42.5,51.5 42.5,50.5 42.5,49.5C 44.0496,48.2801 45.7163,48.2801 47.5,49.5 Z"/></g>
<g><path style="opacity:1" fill="#1a943f" d="M 10.5,38.5 C 10.0915,42.9776 11.7582,46.3109 15.5,48.5C 11.6415,50.0406 11.9749,51.0406 16.5,51.5C 14.4159,55.6345 15.4159,58.4678 19.5,60C 18.8333,60.3333 18.1667,60.6667 17.5,61C 17.7284,61.3988 18.0618,61.5654 18.5,61.5C 17.0582,62.8195 16.3915,64.4862 16.5,66.5C 17.5,66.5 18.5,66.5 19.5,66.5C 17.2733,68.2287 16.2733,70.562 16.5,73.5C 13.0989,69.1616 10.9323,64.1616 10,58.5C 9.17935,51.6536 9.34602,44.987 10.5,38.5 Z"/></g>
<g><path style="opacity:1" fill="#1a9d43" d="M 52.5,40.5 C 52.8333,40.5 53.1667,40.5 53.5,40.5C 53.5,46.1667 53.5,51.8333 53.5,57.5C 52.8333,57.5 52.5,57.8333 52.5,58.5C 51.325,58.281 50.325,58.6143 49.5,59.5C 48.9067,61.3817 48.2401,63.2151 47.5,65C 46.552,65.4828 45.552,65.6495 44.5,65.5C 44.6495,66.552 44.4828,67.552 44,68.5C 43.7679,67.2625 43.2679,66.2625 42.5,65.5C 41.7377,63.7376 40.4044,62.7376 38.5,62.5C 37.7784,62.9175 37.2784,63.5842 37,64.5C 35.6439,63.6198 34.1439,63.2865 32.5,63.5C 33.8637,61.8089 35.197,60.1423 36.5,58.5C 37.5,58.5 38.5,58.5 39.5,58.5C 40.2655,55.3298 41.2655,52.3298 42.5,49.5C 42.5,50.5 42.5,51.5 42.5,52.5C 45.285,53.0838 46.9517,52.0838 47.5,49.5C 48.2216,49.9175 48.7216,50.5842 49,51.5C 49.3333,51.1667 49.6667,50.8333 50,50.5C 50.658,52.108 50.158,53.2747 48.5,54C 49.8491,54.7724 50.6824,55.9391 51,57.5C 52.4038,51.9562 52.9038,46.2896 52.5,40.5 Z"/></g>
<g><path style="opacity:1" fill="#dcc9ab" d="M 21.5,44.5 C 21.8333,44.5 22.1667,44.5 22.5,44.5C 23.0735,46.7879 24.0735,48.9546 25.5,51C 28.557,51.2565 31.557,51.7565 34.5,52.5C 35.2508,51.624 35.7508,50.624 36,49.5C 36.3826,50.056 36.8826,50.3893 37.5,50.5C 37.4249,53.2062 37.0916,55.8728 36.5,58.5C 35.197,60.1423 33.8637,61.8089 32.5,63.5C 30.4727,63.6621 28.4727,63.4955 26.5,63C 24.145,59.7376 22.4783,56.2376 21.5,52.5C 21.5,49.8333 21.5,47.1667 21.5,44.5 Z"/></g>
<g><path style="opacity:1" fill="#943310" d="M 91.5,55.5 C 91.5,56.8333 91.5,58.1667 91.5,59.5C 90.6618,59.8417 90.3284,60.5084 90.5,61.5C 89.5084,61.6716 88.8417,61.3382 88.5,60.5C 87.4716,57.2856 85.1382,55.4523 81.5,55C 72.3493,53.991 63.3493,54.491 54.5,56.5C 55.038,54.8828 55.3713,53.2161 55.5,51.5C 66.8547,50.3869 78.1881,50.3869 89.5,51.5C 89.3398,53.1992 89.5065,54.8659 90,56.5C 90.3826,55.944 90.8826,55.6107 91.5,55.5 Z"/></g>
<g><path style="opacity:1" fill="#88290c" d="M 88.5,60.5 C 86.9557,60.7031 85.6223,61.3698 84.5,62.5C 81.8121,60.8806 78.9788,59.5473 76,58.5C 69.0037,59.1268 61.8371,59.4602 54.5,59.5C 54.5,58.5 54.5,57.5 54.5,56.5C 63.3493,54.491 72.3493,53.991 81.5,55C 85.1382,55.4523 87.4716,57.2856 88.5,60.5 Z"/></g>
<g><path style="opacity:1" fill="#81280e" d="M 53.5,57.5 C 53.3284,58.4916 53.6618,59.1583 54.5,59.5C 61.8371,59.4602 69.0037,59.1268 76,58.5C 78.9788,59.5473 81.8121,60.8806 84.5,62.5C 85.6223,61.3698 86.9557,60.7031 88.5,60.5C 88.8417,61.3382 89.5084,61.6716 90.5,61.5C 91.3382,61.1583 91.6716,60.4916 91.5,59.5C 91.8333,59.5 92.1667,59.5 92.5,59.5C 92.5979,61.5529 91.9313,63.2196 90.5,64.5C 90.1667,61.8333 89.8333,61.8333 89.5,64.5C 88.6618,64.8417 88.3284,65.5084 88.5,66.5C 87.6618,66.8417 87.3284,67.5084 87.5,68.5C 86.8333,68.5 86.5,68.8333 86.5,69.5C 86.1667,69.5 85.8333,69.5 85.5,69.5C 84.5987,68.7095 83.9321,67.7095 83.5,66.5C 79.6316,63.8729 75.2982,62.2063 70.5,61.5C 65.7191,62.1966 60.5524,62.1966 55,61.5C 53.9054,62.6934 53.072,64.0267 52.5,65.5C 51.6373,67.4214 50.9707,69.4214 50.5,71.5C 46.7934,76.2077 42.4601,80.2077 37.5,83.5C 34.2139,84.2071 30.8806,84.5405 27.5,84.5C 27.1667,84.5 26.8333,84.5 26.5,84.5C 28.8333,83.8333 31.1667,83.1667 33.5,82.5C 44.9579,78.6944 51.2912,70.6944 52.5,58.5C 52.5,57.8333 52.8333,57.5 53.5,57.5 Z"/></g>
<g><path style="opacity:1" fill="#792009" d="M 83.5,66.5 C 82.8423,67.3984 82.1757,68.3984 81.5,69.5C 80.8165,69.1373 80.1499,68.8039 79.5,68.5C 76.5193,66.5846 73.186,65.5846 69.5,65.5C 64.2563,65.9597 59.0897,66.6263 54,67.5C 53.7216,66.5842 53.2216,65.9175 52.5,65.5C 53.072,64.0267 53.9054,62.6934 55,61.5C 60.5524,62.1966 65.7191,62.1966 70.5,61.5C 75.2982,62.2063 79.6316,63.8729 83.5,66.5 Z"/></g>
<g><path style="opacity:1" fill="#13963e" d="M 20.5,61.5 C 21.2679,62.2625 21.7679,63.2625 22,64.5C 22.3333,63.8333 22.6667,63.1667 23,62.5C 23.2492,63.624 23.7492,64.624 24.5,65.5C 26.78,66.1359 28.78,67.1359 30.5,68.5C 29.5041,68.4142 28.6708,68.7476 28,69.5C 27.5099,71.5454 27.6765,73.5454 28.5,75.5C 28.6882,77.1033 28.1882,78.4366 27,79.5C 23.9605,78.4686 21.4605,76.6353 19.5,74C 18.5632,73.3083 17.8966,73.475 17.5,74.5C 16.8333,74.5 16.5,74.1667 16.5,73.5C 16.2733,70.562 17.2733,68.2287 19.5,66.5C 20.3007,64.9582 20.634,63.2915 20.5,61.5 Z"/></g>
<g><path style="opacity:1" fill="#169e43" d="M 17.5,50.5 C 19.2062,52.0727 20.3728,54.0727 21,56.5C 21.49,55.2068 21.6567,53.8734 21.5,52.5C 22.4783,56.2376 24.145,59.7376 26.5,63C 28.4727,63.4955 30.4727,63.6621 32.5,63.5C 34.1439,63.2865 35.6439,63.6198 37,64.5C 37.2784,63.5842 37.7784,62.9175 38.5,62.5C 38.5,63.5 38.5,64.5 38.5,65.5C 39.6601,72.4448 37.8268,73.4448 33,68.5C 32.6667,70.5 32.3333,72.5 32,74.5C 31.8019,72.6183 31.3019,70.9516 30.5,69.5C 30.5,69.1667 30.5,68.8333 30.5,68.5C 28.78,67.1359 26.78,66.1359 24.5,65.5C 23.7492,64.624 23.2492,63.624 23,62.5C 22.6667,63.1667 22.3333,63.8333 22,64.5C 21.7679,63.2625 21.2679,62.2625 20.5,61.5C 19.8333,61.5 19.1667,61.5 18.5,61.5C 18.0618,61.5654 17.7284,61.3988 17.5,61C 18.1667,60.6667 18.8333,60.3333 19.5,60C 15.4159,58.4678 14.4159,55.6345 16.5,51.5C 16.5,50.8333 16.8333,50.5 17.5,50.5 Z"/></g>
<g><path style="opacity:1" fill="#1c221d" d="M 18.5,61.5 C 19.1667,61.5 19.8333,61.5 20.5,61.5C 20.634,63.2915 20.3007,64.9582 19.5,66.5C 18.5,66.5 17.5,66.5 16.5,66.5C 16.3915,64.4862 17.0582,62.8195 18.5,61.5 Z"/></g>
<g><path style="opacity:0.008" fill="#e10000" d="M 7.5,64.5 C 7.83333,64.5 8.16667,64.5 8.5,64.5C 8.16667,67.1667 7.83333,67.1667 7.5,64.5 Z"/></g>
<g><path style="opacity:1" fill="#2a2b2c" d="M 38.5,62.5 C 40.4044,62.7376 41.7377,63.7376 42.5,65.5C 42.719,66.675 42.3857,67.675 41.5,68.5C 40.265,67.6602 39.265,66.6602 38.5,65.5C 38.5,64.5 38.5,63.5 38.5,62.5 Z"/></g>
<g><path style="opacity:1" fill="#721e0b" d="M 52.5,65.5 C 53.2216,65.9175 53.7216,66.5842 54,67.5C 59.0897,66.6263 64.2563,65.9597 69.5,65.5C 73.186,65.5846 76.5193,66.5846 79.5,68.5C 77.451,73.5463 73.7843,76.8797 68.5,78.5C 66.4208,77.2044 64.7541,75.5378 63.5,73.5C 62.452,74.548 61.452,75.548 60.5,76.5C 59.1943,75.0322 57.6943,73.6988 56,72.5C 53.9235,73.7573 52.0902,73.424 50.5,71.5C 50.9707,69.4214 51.6373,67.4214 52.5,65.5 Z"/></g>
<g><path style="opacity:0.008" fill="#a83303" d="M 89.5,64.5 C 89.8333,64.5 90.1667,64.5 90.5,64.5C 90.6716,65.4916 90.3382,66.1583 89.5,66.5C 89.5,65.8333 89.5,65.1667 89.5,64.5 Z"/></g>
<g><path style="opacity:0.008" fill="#871601" d="M 88.5,66.5 C 88.8333,66.5 89.1667,66.5 89.5,66.5C 89.6716,67.4916 89.3382,68.1583 88.5,68.5C 88.5,67.8333 88.5,67.1667 88.5,66.5 Z"/></g>
<g><path style="opacity:0.008" fill="#8d0000" d="M 9.5,67.5 C 9.5,68.1667 9.5,68.8333 9.5,69.5C 8.16667,68.8333 8.16667,68.1667 9.5,67.5 Z"/></g>
<g><path style="opacity:1" fill="#14933b" d="M 52.5,58.5 C 51.2912,70.6944 44.9579,78.6944 33.5,82.5C 26.4352,82.968 21.1018,80.3013 17.5,74.5C 17.8966,73.475 18.5632,73.3083 19.5,74C 21.4605,76.6353 23.9605,78.4686 27,79.5C 28.1882,78.4366 28.6882,77.1033 28.5,75.5C 30.3079,74.0821 30.9746,72.0821 30.5,69.5C 31.3019,70.9516 31.8019,72.6183 32,74.5C 32.3333,72.5 32.6667,70.5 33,68.5C 37.8268,73.4448 39.6601,72.4448 38.5,65.5C 39.265,66.6602 40.265,67.6602 41.5,68.5C 42.3857,67.675 42.719,66.675 42.5,65.5C 43.2679,66.2625 43.7679,67.2625 44,68.5C 44.4828,67.552 44.6495,66.552 44.5,65.5C 45.552,65.6495 46.552,65.4828 47.5,65C 48.2401,63.2151 48.9067,61.3817 49.5,59.5C 50.325,58.6143 51.325,58.281 52.5,58.5 Z"/></g>
<g><path style="opacity:0.012" fill="#540000" d="M 87.5,68.5 C 87.8333,68.5 88.1667,68.5 88.5,68.5C 88.3147,69.1701 87.9813,69.1701 87.5,68.5 Z"/></g>
<g><path style="opacity:0.008" fill="#871601" d="M 9.5,69.5 C 9.83333,69.5 10.1667,69.5 10.5,69.5C 10.1667,72.1667 9.83333,72.1667 9.5,69.5 Z"/></g>
<g><path style="opacity:1" fill="#1f2620" d="M 30.5,68.5 C 30.5,68.8333 30.5,69.1667 30.5,69.5C 30.9746,72.0821 30.3079,74.0821 28.5,75.5C 27.6765,73.5454 27.5099,71.5454 28,69.5C 28.6708,68.7476 29.5041,68.4142 30.5,68.5 Z"/></g>
<g><path style="opacity:0.016" fill="#7e3f00" d="M 84.5,72.5 C 84.8333,72.5 85.1667,72.5 85.5,72.5C 85.3147,73.1701 84.9813,73.1701 84.5,72.5 Z"/></g>
<g><path style="opacity:0.996" fill="#702a16" d="M 83.5,66.5 C 83.9321,67.7095 84.5987,68.7095 85.5,69.5C 85.8333,70.8333 86.1667,70.8333 86.5,69.5C 86.8333,69.5 87.1667,69.5 87.5,69.5C 87.573,71.0269 86.9063,72.0269 85.5,72.5C 85.1667,71.1667 84.8333,71.1667 84.5,72.5C 83.8333,72.5 83.5,72.8333 83.5,73.5C 82.8333,73.5 82.5,73.8333 82.5,74.5C 81.8333,74.5 81.5,74.8333 81.5,75.5C 80.8333,75.5 80.5,75.8333 80.5,76.5C 79.1667,76.8333 79.1667,77.1667 80.5,77.5C 80.0269,78.9063 79.0269,79.573 77.5,79.5C 77.1667,78.1667 76.8333,78.1667 76.5,79.5C 75.1667,79.8333 75.1667,80.1667 76.5,80.5C 75.5943,81.9649 74.261,82.9649 72.5,83.5C 71.0052,82.2947 69.6719,82.2947 68.5,83.5C 65.8333,83.8333 65.8333,84.1667 68.5,84.5C 65.8774,86.2655 62.8774,86.9321 59.5,86.5C 49.0131,85.5056 38.3464,85.1722 27.5,85.5C 27.5,85.1667 27.5,84.8333 27.5,84.5C 30.8806,84.5405 34.2139,84.2071 37.5,83.5C 44.1562,82.9531 50.8229,82.4531 57.5,82C 58.2228,79.9817 59.2228,78.1484 60.5,76.5C 61.452,75.548 62.452,74.548 63.5,73.5C 64.7541,75.5378 66.4208,77.2044 68.5,78.5C 73.7843,76.8797 77.451,73.5463 79.5,68.5C 80.1499,68.8039 80.8165,69.1373 81.5,69.5C 82.1757,68.3984 82.8423,67.3984 83.5,66.5 Z"/></g>
<g><path style="opacity:0.016" fill="#3e3f00" d="M 83.5,73.5 C 83.8333,73.5 84.1667,73.5 84.5,73.5C 84.3147,74.1701 83.9813,74.1701 83.5,73.5 Z"/></g>
<g><path style="opacity:0.02" fill="#653300" d="M 82.5,74.5 C 82.8333,74.5 83.1667,74.5 83.5,74.5C 83.3147,75.1701 82.9813,75.1701 82.5,74.5 Z"/></g>
<g><path style="opacity:0.02" fill="#653300" d="M 81.5,75.5 C 81.8333,75.5 82.1667,75.5 82.5,75.5C 82.3147,76.1701 81.9813,76.1701 81.5,75.5 Z"/></g>
<g><path style="opacity:0.998" fill="#6f2414" d="M 50.5,71.5 C 52.0902,73.424 53.9235,73.7573 56,72.5C 57.6943,73.6988 59.1943,75.0322 60.5,76.5C 59.2228,78.1484 58.2228,79.9817 57.5,82C 50.8229,82.4531 44.1562,82.9531 37.5,83.5C 42.4601,80.2077 46.7934,76.2077 50.5,71.5 Z"/></g>
<g><path style="opacity:0.012" fill="#000000" d="M 80.5,76.5 C 80.8333,76.5 81.1667,76.5 81.5,76.5C 81.3147,77.1701 80.9813,77.1701 80.5,76.5 Z"/></g>
<g><path style="opacity:0.784" fill="#7f3515" d="M 8.5,34.5 C 8.83333,34.5 9.16667,34.5 9.5,34.5C 10.1667,34.5 10.5,34.8333 10.5,35.5C 10.5,36.5 10.5,37.5 10.5,38.5C 9.34602,44.987 9.17935,51.6536 10,58.5C 10.9323,64.1616 13.0989,69.1616 16.5,73.5C 16.5,74.1667 16.8333,74.5 17.5,74.5C 21.1018,80.3013 26.4352,82.968 33.5,82.5C 31.1667,83.1667 28.8333,83.8333 26.5,84.5C 25.4427,85.206 25.7761,85.5393 27.5,85.5C 27.5,85.8333 27.5,86.1667 27.5,86.5C 23.5937,85.7718 20.2604,83.9385 17.5,81C 17.8333,80.6667 18.1667,80.3333 18.5,80C 16.9526,77.6739 15.1193,76.5072 13,76.5C 11.6319,75.0069 11.4652,73.5069 12.5,72C 11.9341,71.0053 11.2674,70.172 10.5,69.5C 10.6716,68.5084 10.3382,67.8417 9.5,67.5C 9.73731,66.209 9.40397,65.209 8.5,64.5C 8.16667,59.1667 7.83333,59.1667 7.5,64.5C 5.88195,61.8291 5.21528,58.8291 5.5,55.5C 6.48489,51.3656 6.81822,47.0323 6.5,42.5C 7.45115,41.0813 7.78448,39.4147 7.5,37.5C 8.40397,36.791 8.73731,35.791 8.5,34.5 Z"/></g>
<g><path style="opacity:0.008" fill="#7e0000" d="M 76.5,79.5 C 76.8333,79.5 77.1667,79.5 77.5,79.5C 77.3147,80.1701 76.9813,80.1701 76.5,79.5 Z"/></g>
<g><path style="opacity:0.012" fill="#3a3908" d="M 68.5,84.5 C 68.5,84.1667 68.5,83.8333 68.5,83.5C 71.1667,83.8333 71.1667,84.1667 68.5,84.5 Z"/></g>
<g><path style="opacity:0.008" fill="#862a02" d="M 27.5,86.5 C 38.1667,86.5 48.8333,86.5 59.5,86.5C 48.8333,87.8333 38.1667,87.8333 27.5,86.5 Z"/></g>
</svg>
