<?xml version="1.0" encoding="UTF-8"?>
<!DOCTYPE svg PUBLIC "-//W3C//DTD SVG 1.1//EN" "http://www.w3.org/Graphics/SVG/1.1/DTD/svg11.dtd">
<svg xmlns="http://www.w3.org/2000/svg" version="1.1" width="100px" height="100px" style="shape-rendering:geometricPrecision; text-rendering:geometricPrecision; image-rendering:optimizeQuality; fill-rule:evenodd; clip-rule:evenodd" xmlns:xlink="http://www.w3.org/1999/xlink">
<g><path style="opacity:0.004" fill="#e3bb31" d="M 62.5,5.5 C 66.2896,4.09761 69.9563,4.43095 73.5,6.5C 72.5,6.5 71.5,6.5 70.5,6.5C 70.1667,6.5 69.8333,6.5 69.5,6.5C 67.3926,5.53178 65.0593,5.19845 62.5,5.5 Z"/></g>
<g><path style="opacity:0.008" fill="#8b631d" d="M 55.5,5.5 C 56.3864,4.2241 57.3864,4.2241 58.5,5.5C 58.3764,6.10667 58.0431,6.44001 57.5,6.5C 57.1583,5.66175 56.4916,5.32842 55.5,5.5 Z"/></g>
<g><path style="opacity:0.639" fill="#e9c097" d="M 36.5,6.5 C 35.1667,8.5 33.5,10.1667 31.5,11.5C 30.1667,11.5 28.8333,11.5 27.5,11.5C 32.8074,8.93659 32.1407,7.93659 25.5,8.5C 24.8333,9.83333 23.8333,10.8333 22.5,11.5C 22.5,10.8333 22.5,10.1667 22.5,9.5C 23.8333,9.16667 23.8333,8.83333 22.5,8.5C 23.6409,6.75732 25.3076,5.75732 27.5,5.5C 30.4486,6.30221 33.4486,6.63554 36.5,6.5 Z"/></g>
<g><path style="opacity:0.639" fill="#d19d71" d="M 62.5,5.5 C 64.6074,6.46822 66.9407,6.80155 69.5,6.5C 69.8333,6.5 70.1667,6.5 70.5,6.5C 70.5,6.83333 70.5,7.16667 70.5,7.5C 68.4727,7.33788 66.4727,7.50454 64.5,8C 63.7877,9.425 63.621,10.925 64,12.5C 63.6174,11.944 63.1174,11.6107 62.5,11.5C 61.8902,10.609 61.5569,9.60895 61.5,8.5C 61.5858,7.5041 61.2524,6.67076 60.5,6C 61.0944,5.53566 61.7611,5.36899 62.5,5.5 Z"/></g>
<g><path style="opacity:0.982" fill="#cc7b39" d="M 70.5,7.5 C 71.5,7.5 72.5,7.5 73.5,7.5C 73.5,7.83333 73.5,8.16667 73.5,8.5C 73.8333,9.16667 74.1667,9.83333 74.5,10.5C 72.2972,10.6036 70.2972,11.2702 68.5,12.5C 65.203,11.1453 64.8696,11.6453 67.5,14C 64.7383,15.0769 63.0717,14.2436 62.5,11.5C 63.1174,11.6107 63.6174,11.944 64,12.5C 63.621,10.925 63.7877,9.425 64.5,8C 66.4727,7.50454 68.4727,7.33788 70.5,7.5 Z"/></g>
<g><path style="opacity:0.992" fill="#e9c6a5" d="M 25.5,8.5 C 32.1407,7.93659 32.8074,8.93659 27.5,11.5C 27.0296,12.6935 26.0296,13.3601 24.5,13.5C 22.0239,13.7674 21.3572,13.1007 22.5,11.5C 23.8333,10.8333 24.8333,9.83333 25.5,8.5 Z"/></g>
<g><path style="opacity:0.106" fill="#631b07" d="M 37.5,8.5 C 38.1667,10.1667 38.8333,11.8333 39.5,13.5C 39.2155,15.4147 39.5489,17.0813 40.5,18.5C 40.6495,19.552 40.4828,20.552 40,21.5C 39.0266,19.6079 38.3599,17.6079 38,15.5C 37.7599,17.8516 36.9265,19.8516 35.5,21.5C 34.5,21.5 33.5,21.5 32.5,21.5C 34.328,20.7172 35.6613,19.3839 36.5,17.5C 36.5,17.1667 36.5,16.8333 36.5,16.5C 37.2186,14.2362 37.552,11.9029 37.5,9.5C 37.5,9.16667 37.5,8.83333 37.5,8.5 Z"/></g>
<g><path style="opacity:1" fill="#ad5e38" d="M 45.5,8.5 C 44.8333,8.5 44.5,8.83333 44.5,9.5C 43.8354,11.3691 43.1687,13.3691 42.5,15.5C 41.8182,14.7573 41.1515,14.0906 40.5,13.5C 40.1667,13.5 39.8333,13.5 39.5,13.5C 39.3991,10.0898 40.0657,7.25651 41.5,5C 42.9078,4.68475 44.2411,5.01809 45.5,6C 44.4019,6.76971 44.4019,7.60305 45.5,8.5 Z"/></g>
<g><path style="opacity:0.994" fill="#e3a671" d="M 22.5,8.5 C 22.5,8.83333 22.5,9.16667 22.5,9.5C 22.5,10.1667 22.5,10.8333 22.5,11.5C 21.3572,13.1007 22.0239,13.7674 24.5,13.5C 26.0296,13.3601 27.0296,12.6935 27.5,11.5C 28.8333,11.5 30.1667,11.5 31.5,11.5C 30.8333,12.5 30.1667,13.5 29.5,14.5C 29.1667,14.5 28.8333,14.5 28.5,14.5C 24.8295,15.5015 21.1628,16.5015 17.5,17.5C 17.5,16.8333 17.5,16.1667 17.5,15.5C 19.5586,14.0136 20.2252,12.1803 19.5,10C 20.2438,8.96141 21.2438,8.46141 22.5,8.5 Z"/></g>
<g><path style="opacity:1" fill="#b16d43" d="M 37.5,8.5 C 37.5,8.83333 37.5,9.16667 37.5,9.5C 35.0452,12.0775 32.3785,14.4108 29.5,16.5C 29.5,15.8333 29.5,15.1667 29.5,14.5C 30.1667,13.5 30.8333,12.5 31.5,11.5C 33.5,10.1667 35.1667,8.5 36.5,6.5C 36.8966,5.47498 37.5632,5.30831 38.5,6C 37.7476,6.67076 37.4142,7.5041 37.5,8.5 Z"/></g>
<g><path style="opacity:1" fill="#bb6427" d="M 74.5,10.5 C 75.8333,11.1667 76.8333,12.1667 77.5,13.5C 75.283,14.3686 72.9496,14.702 70.5,14.5C 70.1667,14.5 69.8333,14.5 69.5,14.5C 69.1667,13.8333 68.8333,13.1667 68.5,12.5C 70.2972,11.2702 72.2972,10.6036 74.5,10.5 Z"/></g>
<g><path style="opacity:1" fill="#ae5420" d="M 77.5,13.5 C 78.6005,14.6049 79.2671,15.9382 79.5,17.5C 77.6119,18.2751 75.6119,18.2751 73.5,17.5C 72.1667,16.8333 71.1667,15.8333 70.5,14.5C 72.9496,14.702 75.283,14.3686 77.5,13.5 Z"/></g>
<g><path style="opacity:0.873" fill="#7c3820" d="M 46.5,18.5 C 45.8826,18.3893 45.3826,18.056 45,17.5C 44.5026,14.854 44.3359,12.1873 44.5,9.5C 44.5,8.83333 44.8333,8.5 45.5,8.5C 45.3379,10.5273 45.5045,12.5273 46,14.5C 46.3333,12.1667 46.6667,9.83333 47,7.5C 47.5787,11.2027 47.412,14.8694 46.5,18.5 Z"/></g>
<g><path style="opacity:0.808" fill="#ab5635" d="M 55.5,5.5 C 55.8417,6.33825 56.5084,6.67158 57.5,6.5C 57.8333,7.16667 58.1667,7.83333 58.5,8.5C 57.4822,12.0834 56.6489,15.7501 56,19.5C 55.6174,20.056 55.1174,20.3893 54.5,20.5C 54.7148,18.8212 54.0481,17.8212 52.5,17.5C 51.4309,14.592 51.2642,11.592 52,8.5C 52.3333,10.8333 52.6667,13.1667 53,15.5C 53.2695,12.7759 53.7695,10.1092 54.5,7.5C 53.019,6.05604 53.3523,5.38937 55.5,5.5 Z"/></g>
<g><path style="opacity:1" fill="#9d3e15" d="M 61.5,8.5 C 61.5569,9.60895 61.8902,10.609 62.5,11.5C 63.0717,14.2436 64.7383,15.0769 67.5,14C 64.8696,11.6453 65.203,11.1453 68.5,12.5C 68.8333,13.1667 69.1667,13.8333 69.5,14.5C 69.7329,16.0618 70.3995,17.3951 71.5,18.5C 68.4299,18.3677 65.4299,18.701 62.5,19.5C 61.6587,18.9907 61.1587,19.6573 61,21.5C 59.872,19.6547 59.372,17.6547 59.5,15.5C 59.5,14.8333 59.5,14.1667 59.5,13.5C 60.1667,11.8333 60.8333,10.1667 61.5,8.5 Z"/></g>
<g><path style="opacity:0.012" fill="#ad5b4e" d="M 82.5,17.5 C 82.3505,16.448 82.5172,15.448 83,14.5C 83.7401,15.7494 83.5735,16.7494 82.5,17.5 Z"/></g>
<g><path style="opacity:1" fill="#a1431a" d="M 37.5,9.5 C 37.552,11.9029 37.2186,14.2362 36.5,16.5C 32.9812,17.3476 29.6479,18.6809 26.5,20.5C 26.4005,18.8505 27.4005,17.5171 29.5,16.5C 32.3785,14.4108 35.0452,12.0775 37.5,9.5 Z"/></g>
<g><path style="opacity:0.988" fill="#88361c" d="M 44.5,9.5 C 44.3359,12.1873 44.5026,14.854 45,17.5C 45.3826,18.056 45.8826,18.3893 46.5,18.5C 46.5,19.1667 46.8333,19.5 47.5,19.5C 47.5,20.1667 47.8333,20.5 48.5,20.5C 48.1667,21.1667 47.8333,21.8333 47.5,22.5C 46.8333,22.5 46.5,22.8333 46.5,23.5C 45.609,24.1098 44.609,24.4431 43.5,24.5C 42.4861,22.4261 41.4861,20.4261 40.5,18.5C 40.5,16.8333 40.5,15.1667 40.5,13.5C 41.1515,14.0906 41.8182,14.7573 42.5,15.5C 43.1687,13.3691 43.8354,11.3691 44.5,9.5 Z"/></g>
<g><path style="opacity:0.459" fill="#4e190c" d="M 58.5,8.5 C 59.4511,9.91866 59.7845,11.5853 59.5,13.5C 59.5,14.1667 59.5,14.8333 59.5,15.5C 58.5665,18.6173 57.2331,21.6173 55.5,24.5C 55.1667,24.5 54.8333,24.5 54.5,24.5C 54.1667,24.5 53.8333,24.5 53.5,24.5C 53.5,23.8333 53.5,23.1667 53.5,22.5C 53.3284,21.5084 53.6618,20.8417 54.5,20.5C 55.1174,20.3893 55.6174,20.056 56,19.5C 56.6489,15.7501 57.4822,12.0834 58.5,8.5 Z"/></g>
<g><path style="opacity:1" fill="#b57752" d="M 73.5,7.5 C 73.5,7.16667 73.5,6.83333 73.5,6.5C 75.4233,6.79495 77.0899,7.62829 78.5,9C 78.1667,9.33333 77.8333,9.66667 77.5,10C 79.4524,12.4256 81.119,14.9256 82.5,17.5C 82.5,17.8333 82.5,18.1667 82.5,18.5C 81.391,18.4431 80.391,18.1098 79.5,17.5C 79.2671,15.9382 78.6005,14.6049 77.5,13.5C 76.8333,12.1667 75.8333,11.1667 74.5,10.5C 74.1667,9.83333 73.8333,9.16667 73.5,8.5C 74.8333,8.16667 74.8333,7.83333 73.5,7.5 Z"/></g>
<g><path style="opacity:0.871" fill="#c77d43" d="M 17.5,15.5 C 16.1667,16.1667 16.1667,16.8333 17.5,17.5C 21.1628,16.5015 24.8295,15.5015 28.5,14.5C 27.8333,15.8333 26.8333,16.8333 25.5,17.5C 22.1209,17.5152 19.1209,18.5152 16.5,20.5C 16.6716,19.5084 16.3382,18.8417 15.5,18.5C 15.2308,16.5714 15.7308,14.9047 17,13.5C 17.4643,14.0944 17.631,14.7611 17.5,15.5 Z"/></g>
<g><path style="opacity:0.996" fill="#b85217" d="M 25.5,17.5 C 23.5247,21.5589 20.5247,23.2256 16.5,22.5C 16.5,21.8333 16.5,21.1667 16.5,20.5C 19.1209,18.5152 22.1209,17.5152 25.5,17.5 Z"/></g>
<g><path style="opacity:1" fill="#852c10" d="M 28.5,14.5 C 28.8333,14.5 29.1667,14.5 29.5,14.5C 29.5,15.1667 29.5,15.8333 29.5,16.5C 27.4005,17.5171 26.4005,18.8505 26.5,20.5C 29.6479,18.6809 32.9812,17.3476 36.5,16.5C 36.5,16.8333 36.5,17.1667 36.5,17.5C 32.2123,20.0307 27.879,22.364 23.5,24.5C 22.5041,24.5858 21.6708,24.2524 21,23.5C 19.6288,25.0414 18.1288,26.3747 16.5,27.5C 16.5,25.8333 16.5,24.1667 16.5,22.5C 20.5247,23.2256 23.5247,21.5589 25.5,17.5C 26.8333,16.8333 27.8333,15.8333 28.5,14.5 Z"/></g>
<g><path style="opacity:1" fill="#691a07" d="M 36.5,17.5 C 35.6613,19.3839 34.328,20.7172 32.5,21.5C 30.0034,23.8711 27.0034,24.8711 23.5,24.5C 27.879,22.364 32.2123,20.0307 36.5,17.5 Z"/></g>
<g><path style="opacity:0.997" fill="#85280c" d="M 71.5,18.5 C 72.6266,19.1217 73.6266,19.955 74.5,21C 70.446,21.6936 66.446,21.5269 62.5,20.5C 62.5,20.1667 62.5,19.8333 62.5,19.5C 65.4299,18.701 68.4299,18.3677 71.5,18.5 Z"/></g>
<g><path style="opacity:0.996" fill="#903513" d="M 73.5,17.5 C 75.6119,18.2751 77.6119,18.2751 79.5,17.5C 80.391,18.1098 81.391,18.4431 82.5,18.5C 82.5,21.8333 82.5,25.1667 82.5,28.5C 80.8437,26.5398 79.177,24.5398 77.5,22.5C 76.1667,20.8333 74.8333,19.1667 73.5,17.5 Z"/></g>
<g><path style="opacity:0.012" fill="#a54a04" d="M 15.5,18.5 C 15.665,21.8499 15.4983,25.1832 15,28.5C 14.1925,24.9733 14.3592,21.6399 15.5,18.5 Z"/></g>
<g><path style="opacity:0.839" fill="#c78058" d="M 52.5,17.5 C 54.0481,17.8212 54.7148,18.8212 54.5,20.5C 53.6618,20.8417 53.3284,21.5084 53.5,22.5C 52.5,22.5 51.5,22.5 50.5,22.5C 49.5,22.5 48.5,22.5 47.5,22.5C 47.8333,21.8333 48.1667,21.1667 48.5,20.5C 47.8333,20.5 47.5,20.1667 47.5,19.5C 47.3505,18.448 47.5172,17.448 48,16.5C 49,18.1667 50,19.8333 51,21.5C 51.7914,20.255 52.2914,18.9217 52.5,17.5 Z"/></g>
<g><path style="opacity:0.016" fill="#451705" d="M 83.5,18.5 C 84.6433,21.9758 84.8099,25.6425 84,29.5C 83.5014,25.8484 83.3347,22.1817 83.5,18.5 Z"/></g>
<g><path style="opacity:1" fill="#6b1e09" d="M 69.5,14.5 C 69.8333,14.5 70.1667,14.5 70.5,14.5C 71.1667,15.8333 72.1667,16.8333 73.5,17.5C 74.8333,19.1667 76.1667,20.8333 77.5,22.5C 74.6085,23.4025 71.6085,23.7359 68.5,23.5C 67.1667,23.5 65.8333,23.5 64.5,23.5C 64.5,22.8333 64.1667,22.5 63.5,22.5C 63.1667,21.8333 62.8333,21.1667 62.5,20.5C 66.446,21.5269 70.446,21.6936 74.5,21C 73.6266,19.955 72.6266,19.1217 71.5,18.5C 70.3995,17.3951 69.7329,16.0618 69.5,14.5 Z"/></g>
<g><path style="opacity:0.984" fill="#491408" d="M 32.5,21.5 C 33.5,21.5 34.5,21.5 35.5,21.5C 35.4142,22.4959 35.7476,23.3292 36.5,24C 33.0985,27.8802 29.0985,29.7136 24.5,29.5C 24.1667,29.5 23.8333,29.5 23.5,29.5C 23.1667,28.1667 22.8333,28.1667 22.5,29.5C 20.2736,27.82 18.6069,28.1534 17.5,30.5C 16.6618,30.8417 16.3284,31.5084 16.5,32.5C 15.506,31.0011 15.506,29.3344 16.5,27.5C 18.1288,26.3747 19.6288,25.0414 21,23.5C 21.6708,24.2524 22.5041,24.5858 23.5,24.5C 27.0034,24.8711 30.0034,23.8711 32.5,21.5 Z"/></g>
<g><path style="opacity:1" fill="#cc7d37" d="M 50.5,22.5 C 51.5,22.5 52.5,22.5 53.5,22.5C 53.5,23.1667 53.5,23.8333 53.5,24.5C 53.4452,27.6145 52.1119,29.9478 49.5,31.5C 50.299,28.5701 50.6323,25.5701 50.5,22.5 Z"/></g>
<g><path style="opacity:1" fill="#391309" d="M 63.5,22.5 C 64.1667,22.5 64.5,22.8333 64.5,23.5C 65.8333,23.5 67.1667,23.5 68.5,23.5C 71.3718,24.3254 74.3718,25.1588 77.5,26C 78.2524,26.6708 78.5858,27.5041 78.5,28.5C 77.8333,28.5 77.5,28.8333 77.5,29.5C 77.1667,29.5 76.8333,29.5 76.5,29.5C 76.1667,28.1667 75.8333,28.1667 75.5,29.5C 75.5,29.8333 75.5,30.1667 75.5,30.5C 75.1667,30.5 74.8333,30.5 74.5,30.5C 74.1667,30.5 73.8333,30.5 73.5,30.5C 74.3917,28.1867 73.5584,27.8534 71,29.5C 67.7075,28.1078 64.8741,26.1078 62.5,23.5C 62.6236,22.8933 62.9569,22.56 63.5,22.5 Z"/></g>
<g><path style="opacity:0.998" fill="#daab85" d="M 46.5,23.5 C 47.5,23.5 48.5,23.5 49.5,23.5C 49.6602,25.1992 49.4935,26.8659 49,28.5C 47.583,29.0779 46.7496,30.0779 46.5,31.5C 45.5,31.5 44.5,31.5 43.5,31.5C 43.4208,30.0695 43.7542,28.7362 44.5,27.5C 44.0302,26.537 43.3635,26.537 42.5,27.5C 42.5569,26.391 42.8902,25.391 43.5,24.5C 44.609,24.4431 45.609,24.1098 46.5,23.5 Z"/></g>
<g><path style="opacity:1" fill="#822a14" d="M 22.5,29.5 C 22.8333,29.5 23.1667,29.5 23.5,29.5C 23.5,30.1667 23.5,30.8333 23.5,31.5C 24.4499,34.1149 26.1165,36.1149 28.5,37.5C 27.5,37.5 26.5,37.5 25.5,37.5C 22.5265,35.8532 19.8599,33.8532 17.5,31.5C 17.5,31.1667 17.5,30.8333 17.5,30.5C 18.6069,28.1534 20.2736,27.82 22.5,29.5 Z"/></g>
<g><path style="opacity:0.855" fill="#541509" d="M 77.5,22.5 C 79.177,24.5398 80.8437,26.5398 82.5,28.5C 82.5,29.1667 82.5,29.8333 82.5,30.5C 81.6618,30.8417 81.3284,31.5084 81.5,32.5C 80.6618,32.8417 80.3284,33.5084 80.5,34.5C 79.8333,34.5 79.5,34.8333 79.5,35.5C 78.8333,35.5 78.5,35.8333 78.5,36.5C 78.1667,36.5 77.8333,36.5 77.5,36.5C 76.1667,36.8333 74.8333,37.1667 73.5,37.5C 76.1456,35.5211 78.4789,33.1878 80.5,30.5C 80.1445,29.4777 79.4778,28.811 78.5,28.5C 78.5858,27.5041 78.2524,26.6708 77.5,26C 74.3718,25.1588 71.3718,24.3254 68.5,23.5C 71.6085,23.7359 74.6085,23.4025 77.5,22.5 Z"/></g>
<g><path style="opacity:0.996" fill="#d39861" d="M 46.5,31.5 C 45.713,33.1042 44.3797,33.7709 42.5,33.5C 42.6547,30.1469 41.9881,29.8136 40.5,32.5C 40.1667,33.8333 39.8333,35.1667 39.5,36.5C 39.1667,36.5 38.8333,36.5 38.5,36.5C 38.6427,34.7376 38.3094,33.0709 37.5,31.5C 39.5237,31.2031 41.1903,29.8698 42.5,27.5C 43.3635,26.537 44.0302,26.537 44.5,27.5C 43.7542,28.7362 43.4208,30.0695 43.5,31.5C 44.5,31.5 45.5,31.5 46.5,31.5 Z"/></g>
<g><path style="opacity:1" fill="#c57334" d="M 53.5,24.5 C 53.8333,24.5 54.1667,24.5 54.5,24.5C 54.4142,25.4959 54.7476,26.3292 55.5,27C 53.3048,30.3594 50.6381,33.1928 47.5,35.5C 45.5336,36.4412 43.5336,37.4412 41.5,38.5C 40.8182,37.7573 40.1515,37.0906 39.5,36.5C 39.8333,35.1667 40.1667,33.8333 40.5,32.5C 41.1577,33.3984 41.8243,34.3984 42.5,35.5C 45.308,34.9063 47.6413,33.5729 49.5,31.5C 52.1119,29.9478 53.4452,27.6145 53.5,24.5 Z"/></g>
<g><path style="opacity:1" fill="#bb672e" d="M 54.5,24.5 C 54.8333,24.5 55.1667,24.5 55.5,24.5C 56.1667,25.8333 56.8333,27.1667 57.5,28.5C 57.2041,30.403 56.5375,32.0697 55.5,33.5C 55.6309,32.6236 55.2975,31.9569 54.5,31.5C 52.6001,33.6159 50.2668,34.9493 47.5,35.5C 50.6381,33.1928 53.3048,30.3594 55.5,27C 54.7476,26.3292 54.4142,25.4959 54.5,24.5 Z"/></g>
<g><path style="opacity:0.008" fill="#1e0300" d="M 16.5,32.5 C 16.8333,32.5 17.1667,32.5 17.5,32.5C 17.1667,35.1667 16.8333,35.1667 16.5,32.5 Z"/></g>
<g><path style="opacity:0.459" fill="#b4533a" d="M 24.5,29.5 C 26.1911,30.8637 27.8577,32.197 29.5,33.5C 29.33,34.8221 29.6634,35.9887 30.5,37C 33.146,37.4974 35.8127,37.6641 38.5,37.5C 38.5,37.8333 38.5,38.1667 38.5,38.5C 38.1667,38.5 37.8333,38.5 37.5,38.5C 34.3915,38.7359 31.3915,38.4025 28.5,37.5C 26.1165,36.1149 24.4499,34.1149 23.5,31.5C 24.3382,31.1583 24.6716,30.4916 24.5,29.5 Z"/></g>
<g><path style="opacity:0.999" fill="#cf874a" d="M 46.5,23.5 C 46.5,22.8333 46.8333,22.5 47.5,22.5C 48.5,22.5 49.5,22.5 50.5,22.5C 50.6323,25.5701 50.299,28.5701 49.5,31.5C 47.6413,33.5729 45.308,34.9063 42.5,35.5C 41.8243,34.3984 41.1577,33.3984 40.5,32.5C 41.9881,29.8136 42.6547,30.1469 42.5,33.5C 44.3797,33.7709 45.713,33.1042 46.5,31.5C 46.7496,30.0779 47.583,29.0779 49,28.5C 49.4935,26.8659 49.6602,25.1992 49.5,23.5C 48.5,23.5 47.5,23.5 46.5,23.5 Z"/></g>
<g><path style="opacity:0.008" fill="#5e0400" d="M 82.5,30.5 C 83.8528,32.1284 83.5195,33.4617 81.5,34.5C 81.5,33.8333 81.5,33.1667 81.5,32.5C 82.3382,32.1583 82.6716,31.4916 82.5,30.5 Z"/></g>
<g><path style="opacity:0.741" fill="#a66551" d="M 75.5,29.5 C 75.8333,29.5 76.1667,29.5 76.5,29.5C 76.8333,29.5 77.1667,29.5 77.5,29.5C 76.5407,33.6644 73.8741,35.9977 69.5,36.5C 67.8333,36.5 66.1667,36.5 64.5,36.5C 64.5,36.1667 64.5,35.8333 64.5,35.5C 64.8333,35.5 65.1667,35.5 65.5,35.5C 67.4008,35.7535 68.0674,35.4202 67.5,34.5C 67.5,34.1667 67.5,33.8333 67.5,33.5C 69.7837,33.0248 71.7837,32.0248 73.5,30.5C 73.8333,30.5 74.1667,30.5 74.5,30.5C 74.8333,31.8333 75.1667,31.8333 75.5,30.5C 75.5,30.1667 75.5,29.8333 75.5,29.5 Z"/></g>
<g><path style="opacity:0.016" fill="#3e0000" d="M 80.5,34.5 C 80.8333,34.5 81.1667,34.5 81.5,34.5C 81.3147,35.1701 80.9813,35.1701 80.5,34.5 Z"/></g>
<g><path style="opacity:0.349" fill="#a65e47" d="M 29.5,33.5 C 32.2116,33.7375 34.7116,33.7375 37,33.5C 37.1667,33.8333 37.3333,34.1667 37.5,34.5C 33.626,36.0025 33.9593,36.6691 38.5,36.5C 38.5,36.8333 38.5,37.1667 38.5,37.5C 35.8127,37.6641 33.146,37.4974 30.5,37C 29.6634,35.9887 29.33,34.8221 29.5,33.5 Z"/></g>
<g><path style="opacity:1" fill="#a95425" d="M 57.5,28.5 C 58.6737,29.5137 59.3404,30.847 59.5,32.5C 59.5,33.5 59.5,34.5 59.5,35.5C 58.8333,36.8333 58.1667,38.1667 57.5,39.5C 56.8333,39.5 56.1667,39.5 55.5,39.5C 55.6716,38.5084 55.3382,37.8417 54.5,37.5C 55.1157,36.2022 55.1157,35.2022 54.5,34.5C 54.5,33.8333 54.8333,33.5 55.5,33.5C 56.5375,32.0697 57.2041,30.403 57.5,28.5 Z"/></g>
<g><path style="opacity:0.988" fill="#792511" d="M 78.5,28.5 C 79.4778,28.811 80.1445,29.4777 80.5,30.5C 78.4789,33.1878 76.1456,35.5211 73.5,37.5C 69.6742,38.9997 65.6742,39.6664 61.5,39.5C 61.5,39.1667 61.5,38.8333 61.5,38.5C 64.5533,38.8893 67.22,38.2227 69.5,36.5C 73.8741,35.9977 76.5407,33.6644 77.5,29.5C 77.5,28.8333 77.8333,28.5 78.5,28.5 Z"/></g>
<g><path style="opacity:0.012" fill="#540000" d="M 79.5,35.5 C 79.8333,35.5 80.1667,35.5 80.5,35.5C 80.3147,36.1701 79.9813,36.1701 79.5,35.5 Z"/></g>
<g><path style="opacity:0.751" fill="#a1523a" d="M 59.5,32.5 C 60.2679,33.2625 60.7679,34.2625 61,35.5C 61.3589,32.4557 62.0255,32.1224 63,34.5C 64.3561,33.6198 65.8561,33.2865 67.5,33.5C 67.5,33.8333 67.5,34.1667 67.5,34.5C 66.5084,34.3284 65.8417,34.6618 65.5,35.5C 65.1667,35.5 64.8333,35.5 64.5,35.5C 63.1667,35.8333 63.1667,36.1667 64.5,36.5C 66.1667,36.5 67.8333,36.5 69.5,36.5C 67.22,38.2227 64.5533,38.8893 61.5,38.5C 61.1667,38.5 60.8333,38.5 60.5,38.5C 60.4431,37.391 60.1098,36.391 59.5,35.5C 59.5,34.5 59.5,33.5 59.5,32.5 Z"/></g>
<g><path style="opacity:0.012" fill="#540000" d="M 78.5,36.5 C 78.8333,36.5 79.1667,36.5 79.5,36.5C 79.3147,37.1701 78.9813,37.1701 78.5,36.5 Z"/></g>
<g><path style="opacity:1" fill="#bb6126" d="M 55.5,33.5 C 54.8333,33.5 54.5,33.8333 54.5,34.5C 50.5921,35.2773 47.5921,37.2773 45.5,40.5C 43.283,41.3686 40.9496,41.702 38.5,41.5C 38.5,40.5 38.5,39.5 38.5,38.5C 38.5,38.1667 38.5,37.8333 38.5,37.5C 38.5,37.1667 38.5,36.8333 38.5,36.5C 38.8333,36.5 39.1667,36.5 39.5,36.5C 40.1515,37.0906 40.8182,37.7573 41.5,38.5C 43.5336,37.4412 45.5336,36.4412 47.5,35.5C 50.2668,34.9493 52.6001,33.6159 54.5,31.5C 55.2975,31.9569 55.6309,32.6236 55.5,33.5 Z"/></g>
<g><path style="opacity:1" fill="#b2551f" d="M 54.5,34.5 C 55.1157,35.2022 55.1157,36.2022 54.5,37.5C 51.9122,39.6246 48.9122,40.9579 45.5,41.5C 45.5,41.1667 45.5,40.8333 45.5,40.5C 47.5921,37.2773 50.5921,35.2773 54.5,34.5 Z"/></g>
<g><path style="opacity:1" fill="#ac4d1a" d="M 54.5,37.5 C 55.3382,37.8417 55.6716,38.5084 55.5,39.5C 53.0359,41.3988 50.3693,42.7321 47.5,43.5C 43.6461,44.9887 42.9794,44.322 45.5,41.5C 48.9122,40.9579 51.9122,39.6246 54.5,37.5 Z"/></g>
<g><path style="opacity:0.016" fill="#3e0000" d="M 77.5,37.5 C 77.8333,37.5 78.1667,37.5 78.5,37.5C 78.3147,38.1701 77.9813,38.1701 77.5,37.5 Z"/></g>
<g><path style="opacity:0.992" fill="#691a09" d="M 25.5,37.5 C 26.5,37.5 27.5,37.5 28.5,37.5C 31.3915,38.4025 34.3915,38.7359 37.5,38.5C 37.7373,39.791 37.404,40.791 36.5,41.5C 32.6762,40.6264 29.0095,39.293 25.5,37.5 Z"/></g>
<g><path style="opacity:0.914" fill="#400d05" d="M 77.5,36.5 C 77.5,36.8333 77.5,37.1667 77.5,37.5C 76.1667,37.8333 76.1667,38.1667 77.5,38.5C 74.2393,41.296 70.5727,43.296 66.5,44.5C 66.1667,44.5 65.8333,44.5 65.5,44.5C 65.1667,44.5 64.8333,44.5 64.5,44.5C 64.5,43.8333 64.1667,43.5 63.5,43.5C 63.5,42.8333 63.1667,42.5 62.5,42.5C 61.8902,41.609 61.5569,40.609 61.5,39.5C 65.6742,39.6664 69.6742,38.9997 73.5,37.5C 74.8333,37.1667 76.1667,36.8333 77.5,36.5 Z"/></g>
<g><path style="opacity:0.106" fill="#3f1107" d="M 17.5,32.5 C 17.5,32.1667 17.5,31.8333 17.5,31.5C 19.8599,33.8532 22.5265,35.8532 25.5,37.5C 29.0095,39.293 32.6762,40.6264 36.5,41.5C 36.5,41.8333 36.5,42.1667 36.5,42.5C 35.8333,42.5 35.5,42.8333 35.5,43.5C 34.8333,43.5 34.5,43.8333 34.5,44.5C 33.8333,44.5 33.5,44.8333 33.5,45.5C 33.1667,45.5 32.8333,45.5 32.5,45.5C 29.4887,43.4856 26.1554,41.6523 22.5,40C 21.7114,37.2915 20.0447,34.7915 17.5,32.5 Z"/></g>
<g><path style="opacity:1" fill="#9a4118" d="M 59.5,35.5 C 60.1098,36.391 60.4431,37.391 60.5,38.5C 60.5,41.1667 60.5,43.8333 60.5,46.5C 59.5,46.5 58.5,46.5 57.5,46.5C 56.8333,46.5 56.1667,46.5 55.5,46.5C 54.1667,46.5 52.8333,46.5 51.5,46.5C 51.1667,45.8333 50.8333,45.1667 50.5,44.5C 53.6743,43.9898 56.0077,42.3231 57.5,39.5C 58.1667,38.1667 58.8333,36.8333 59.5,35.5 Z"/></g>
<g><path style="opacity:1" fill="#a64717" d="M 55.5,39.5 C 56.1667,39.5 56.8333,39.5 57.5,39.5C 56.0077,42.3231 53.6743,43.9898 50.5,44.5C 49.5,44.5 48.5,44.5 47.5,44.5C 47.5,44.1667 47.5,43.8333 47.5,43.5C 50.3693,42.7321 53.0359,41.3988 55.5,39.5 Z"/></g>
<g><path style="opacity:1" fill="#b04d17" d="M 37.5,38.5 C 37.8333,38.5 38.1667,38.5 38.5,38.5C 38.5,39.5 38.5,40.5 38.5,41.5C 40.9496,41.702 43.283,41.3686 45.5,40.5C 45.5,40.8333 45.5,41.1667 45.5,41.5C 42.9794,44.322 43.6461,44.9887 47.5,43.5C 47.5,43.8333 47.5,44.1667 47.5,44.5C 44.4258,46.302 41.0924,47.302 37.5,47.5C 37.5,46.8333 37.1667,46.5 36.5,46.5C 36.5,45.5 36.5,44.5 36.5,43.5C 36.5,43.1667 36.5,42.8333 36.5,42.5C 36.5,42.1667 36.5,41.8333 36.5,41.5C 37.404,40.791 37.7373,39.791 37.5,38.5 Z"/></g>
<g><path style="opacity:0.004" fill="#000000" d="M 77.5,45.5 C 78.8333,46.1667 78.8333,46.1667 77.5,45.5 Z"/></g>
<g><path style="opacity:0.008" fill="#7e0000" d="M 20.5,47.5 C 19.8333,46.1667 19.8333,46.1667 20.5,47.5 Z"/></g>
<g><path style="opacity:0.718" fill="#8d4f42" d="M 35.5,43.5 C 35.8333,43.5 36.1667,43.5 36.5,43.5C 36.5,44.5 36.5,45.5 36.5,46.5C 35.8333,46.5 35.5,46.8333 35.5,47.5C 30.7019,48.744 26.0352,48.744 21.5,47.5C 22.5981,46.603 22.5981,45.7697 21.5,45C 25.2027,44.4213 28.8694,44.588 32.5,45.5C 32.8333,45.5 33.1667,45.5 33.5,45.5C 34.1667,45.5 34.5,45.1667 34.5,44.5C 35.1667,44.5 35.5,44.1667 35.5,43.5 Z"/></g>
<g><path style="opacity:1" fill="#a33f10" d="M 47.5,44.5 C 48.5,44.5 49.5,44.5 50.5,44.5C 50.8333,45.1667 51.1667,45.8333 51.5,46.5C 48.249,47.9677 44.749,48.9677 41,49.5C 39.3189,49.3917 38.1522,48.7251 37.5,47.5C 41.0924,47.302 44.4258,46.302 47.5,44.5 Z"/></g>
<g><path style="opacity:0.71" fill="#81524b" d="M 62.5,43.5 C 62.8333,43.5 63.1667,43.5 63.5,43.5C 64.1667,43.5 64.5,43.8333 64.5,44.5C 64.8333,45.8333 65.1667,45.8333 65.5,44.5C 65.8333,44.5 66.1667,44.5 66.5,44.5C 70.1384,44.4339 73.8051,44.7672 77.5,45.5C 76.1667,45.8333 76.1667,46.1667 77.5,46.5C 77.5,46.8333 77.5,47.1667 77.5,47.5C 73.4762,47.6073 69.1428,47.6073 64.5,47.5C 64.1667,46.5 63.5,45.8333 62.5,45.5C 62.5,44.8333 62.5,44.1667 62.5,43.5 Z"/></g>
<g><path style="opacity:1" fill="#98350e" d="M 35.5,47.5 C 35.5,46.8333 35.8333,46.5 36.5,46.5C 37.1667,46.5 37.5,46.8333 37.5,47.5C 38.1522,48.7251 39.3189,49.3917 41,49.5C 44.749,48.9677 48.249,47.9677 51.5,46.5C 52.8333,46.5 54.1667,46.5 55.5,46.5C 50.7777,49.6882 45.4443,51.3549 39.5,51.5C 38.391,51.4431 37.391,51.1098 36.5,50.5C 36.7373,49.209 36.404,48.209 35.5,47.5 Z"/></g>
<g><path style="opacity:0.005" fill="#000000" d="M 79.5,50.5 C 79.3505,49.448 79.5172,48.448 80,47.5C 80.7401,48.7494 80.5735,49.7494 79.5,50.5 Z"/></g>
<g><path style="opacity:0.008" fill="#550d01" d="M 19.5,47.5 C 19.631,48.2389 19.4643,48.9056 19,49.5C 18.3083,48.5632 18.475,47.8966 19.5,47.5 Z"/></g>
<g><path style="opacity:1" fill="#892f0d" d="M 60.5,38.5 C 60.8333,38.5 61.1667,38.5 61.5,38.5C 61.5,38.8333 61.5,39.1667 61.5,39.5C 61.5569,40.609 61.8902,41.609 62.5,42.5C 62.5,42.8333 62.5,43.1667 62.5,43.5C 62.5,44.1667 62.5,44.8333 62.5,45.5C 62.5,47.1667 62.5,48.8333 62.5,50.5C 59.5684,49.1531 56.9017,49.4865 54.5,51.5C 53.8333,51.5 53.1667,51.5 52.5,51.5C 52.1667,51.5 51.8333,51.5 51.5,51.5C 53.9408,50.291 55.9408,48.6243 57.5,46.5C 58.5,46.5 59.5,46.5 60.5,46.5C 60.5,43.8333 60.5,41.1667 60.5,38.5 Z"/></g>
<g><path style="opacity:0.968" fill="#682513" d="M 64.5,47.5 C 69.1428,47.6073 73.4762,47.6073 77.5,47.5C 78.404,48.209 78.7373,49.209 78.5,50.5C 78.1667,50.5 77.8333,50.5 77.5,50.5C 72.9063,50.1349 68.573,49.1349 64.5,47.5 Z"/></g>
<g><path style="opacity:1" fill="#461106" d="M 20.5,47.5 C 20.8333,47.5 21.1667,47.5 21.5,47.5C 26.0352,48.744 30.7019,48.744 35.5,47.5C 35.0472,48.4584 34.3805,49.2917 33.5,50C 29.5138,50.4988 25.5138,50.6655 21.5,50.5C 21.1667,50.5 20.8333,50.5 20.5,50.5C 20.5,49.5 20.5,48.5 20.5,47.5 Z"/></g>
<g><path style="opacity:0.991" fill="#83280b" d="M 62.5,50.5 C 62.5,50.8333 62.5,51.1667 62.5,51.5C 62.5,51.8333 62.5,52.1667 62.5,52.5C 62.1667,52.5 61.8333,52.5 61.5,52.5C 59.139,52.6741 56.8056,53.0074 54.5,53.5C 55.5063,52.6043 55.5063,51.9377 54.5,51.5C 56.9017,49.4865 59.5684,49.1531 62.5,50.5 Z"/></g>
<g><path style="opacity:0.008" fill="#000000" d="M 20.5,50.5 C 19.8333,51.1667 19.8333,51.1667 20.5,50.5 Z"/></g>
<g><path style="opacity:0.424" fill="#2b0e09" d="M 35.5,47.5 C 36.404,48.209 36.7373,49.209 36.5,50.5C 35.6618,50.8417 35.3284,51.5084 35.5,52.5C 35.1583,53.3382 34.4916,53.6716 33.5,53.5C 33.6107,52.8826 33.944,52.3826 34.5,52C 30.5,51.3333 26.5,51.3333 22.5,52C 23.4158,52.2784 24.0825,52.7784 24.5,53.5C 24.1667,53.5 23.8333,53.5 23.5,53.5C 21.9519,53.1788 21.2852,52.1788 21.5,50.5C 25.5138,50.6655 29.5138,50.4988 33.5,50C 34.3805,49.2917 35.0472,48.4584 35.5,47.5 Z M 33.5,53.5 C 30.5,53.5 27.5,53.5 24.5,53.5C 24.0825,52.7784 23.4158,52.2784 22.5,52C 26.5,51.3333 30.5,51.3333 34.5,52C 33.944,52.3826 33.6107,52.8826 33.5,53.5 Z"/></g>
<g><path style="opacity:1" fill="#91310d" d="M 55.5,46.5 C 56.1667,46.5 56.8333,46.5 57.5,46.5C 55.9408,48.6243 53.9408,50.291 51.5,51.5C 47.3421,52.5392 43.3421,52.5392 39.5,51.5C 45.4443,51.3549 50.7777,49.6882 55.5,46.5 Z"/></g>
<g><path style="opacity:0.425" fill="#2d0e04" d="M 62.5,45.5 C 63.5,45.8333 64.1667,46.5 64.5,47.5C 68.573,49.1349 72.9063,50.1349 77.5,50.5C 77.5,51.1667 77.8333,51.5 78.5,51.5C 78.0269,52.9063 77.0269,53.573 75.5,53.5C 75.1667,53.5 74.8333,53.5 74.5,53.5C 74.9175,52.7784 75.5842,52.2784 76.5,52C 72.2467,51.8002 68.08,51.3002 64,50.5C 63.6174,51.056 63.1174,51.3893 62.5,51.5C 62.5,51.1667 62.5,50.8333 62.5,50.5C 62.5,48.8333 62.5,47.1667 62.5,45.5 Z"/></g>
<g><path style="opacity:0.008" fill="#000000" d="M 78.5,50.5 C 78.8333,50.5 79.1667,50.5 79.5,50.5C 79.3147,51.1701 78.9813,51.1701 78.5,50.5 Z"/></g>
<g><path style="opacity:1" fill="#84260a" d="M 52.5,51.5 C 53.1667,51.5 53.8333,51.5 54.5,51.5C 55.5063,51.9377 55.5063,52.6043 54.5,53.5C 51.3752,54.4794 48.0419,54.8128 44.5,54.5C 42.5853,54.7845 40.9187,54.4511 39.5,53.5C 42.8499,53.665 46.1832,53.4983 49.5,53C 50.7375,52.7679 51.7375,52.2679 52.5,51.5 Z"/></g>
<g><path style="opacity:1" fill="#8a2a0a" d="M 36.5,50.5 C 37.391,51.1098 38.391,51.4431 39.5,51.5C 43.3421,52.5392 47.3421,52.5392 51.5,51.5C 51.8333,51.5 52.1667,51.5 52.5,51.5C 51.7375,52.2679 50.7375,52.7679 49.5,53C 46.1832,53.4983 42.8499,53.665 39.5,53.5C 38.8333,53.5 38.1667,53.5 37.5,53.5C 37.5,52.8333 37.1667,52.5 36.5,52.5C 36.5,51.8333 36.5,51.1667 36.5,50.5 Z"/></g>
<g><path style="opacity:0.999" fill="#782008" d="M 61.5,52.5 C 61.4431,53.609 61.1098,54.609 60.5,55.5C 60.1667,55.5 59.8333,55.5 59.5,55.5C 54.3054,55.8205 49.3054,55.4872 44.5,54.5C 48.0419,54.8128 51.3752,54.4794 54.5,53.5C 56.8056,53.0074 59.139,52.6741 61.5,52.5 Z"/></g>
<g><path style="opacity:0.961" fill="#9c5b47" d="M 35.5,52.5 C 35.8333,52.5 36.1667,52.5 36.5,52.5C 37.1667,52.5 37.5,52.8333 37.5,53.5C 37.5,53.8333 37.5,54.1667 37.5,54.5C 35.2772,55.7023 32.7772,56.3689 30,56.5C 27.6392,56.4961 25.4726,56.1627 23.5,55.5C 23.5,54.8333 23.5,54.1667 23.5,53.5C 23.8333,53.5 24.1667,53.5 24.5,53.5C 27.5,53.5 30.5,53.5 33.5,53.5C 34.4916,53.6716 35.1583,53.3382 35.5,52.5 Z"/></g>
<g><path style="opacity:1" fill="#711c07" d="M 37.5,54.5 C 37.5,54.1667 37.5,53.8333 37.5,53.5C 38.1667,53.5 38.8333,53.5 39.5,53.5C 40.9187,54.4511 42.5853,54.7845 44.5,54.5C 49.3054,55.4872 54.3054,55.8205 59.5,55.5C 52.9626,56.7736 46.296,56.7736 39.5,55.5C 38.8333,55.1667 38.1667,54.8333 37.5,54.5 Z"/></g>
<g><path style="opacity:0.986" fill="#672c1c" d="M 61.5,52.5 C 61.8333,52.5 62.1667,52.5 62.5,52.5C 66.1353,53.2289 70.1353,53.5622 74.5,53.5C 74.8333,53.5 75.1667,53.5 75.5,53.5C 76.209,54.404 77.209,54.7373 78.5,54.5C 78.5,55.8333 78.5,57.1667 78.5,58.5C 77.5,58.5 76.5,58.5 75.5,58.5C 70.5265,57.8348 65.5265,56.8348 60.5,55.5C 61.1098,54.609 61.4431,53.609 61.5,52.5 Z"/></g>
<g><path style="opacity:0.012" fill="#702006" d="M 21.5,57.5 C 20.475,57.1034 20.3083,56.4368 21,55.5C 21.4643,56.0944 21.631,56.7611 21.5,57.5 Z"/></g>
<g><path style="opacity:0.999" fill="#621807" d="M 39.5,55.5 C 46.296,56.7736 52.9626,56.7736 59.5,55.5C 59.8333,55.5 60.1667,55.5 60.5,55.5C 60.5,56.1667 60.5,56.8333 60.5,57.5C 60.1667,57.5 59.8333,57.5 59.5,57.5C 52.8333,57.5 46.1667,57.5 39.5,57.5C 39.5,56.8333 39.5,56.1667 39.5,55.5 Z"/></g>
<g><path style="opacity:0.004" fill="#000000" d="M 21.5,57.5 C 21.8333,57.5 22.1667,57.5 22.5,57.5C 22.3147,58.1701 21.9813,58.1701 21.5,57.5 Z"/></g>
<g><path style="opacity:0.892" fill="#2e0c06" d="M 23.5,57.5 C 27.9707,56.9106 31.9707,57.5772 35.5,59.5C 31.8183,59.6653 28.1516,59.4986 24.5,59C 23.944,58.6174 23.6107,58.1174 23.5,57.5 Z"/></g>
<g><path style="opacity:0.357" fill="#3f160c" d="M 37.5,54.5 C 38.1667,54.8333 38.8333,55.1667 39.5,55.5C 39.5,56.1667 39.5,56.8333 39.5,57.5C 38.1667,57.8333 38.1667,58.1667 39.5,58.5C 39.5,58.8333 39.5,59.1667 39.5,59.5C 39.1667,59.5 38.8333,59.5 38.5,59.5C 37.8333,59.5 37.5,59.8333 37.5,60.5C 36.5084,60.6716 35.8417,60.3382 35.5,59.5C 31.9707,57.5772 27.9707,56.9106 23.5,57.5C 23.1667,57.5 22.8333,57.5 22.5,57.5C 22.3284,56.5084 22.6618,55.8417 23.5,55.5C 25.4726,56.1627 27.6392,56.4961 30,56.5C 32.7772,56.3689 35.2772,55.7023 37.5,54.5 Z"/></g>
<g><path style="opacity:1" fill="#551709" d="M 39.5,58.5 C 39.5,58.1667 39.5,57.8333 39.5,57.5C 46.1667,57.5 52.8333,57.5 59.5,57.5C 59.5,57.8333 59.5,58.1667 59.5,58.5C 58.8333,58.5 58.5,58.8333 58.5,59.5C 58.1667,59.5 57.8333,59.5 57.5,59.5C 57.1667,59.5 56.8333,59.5 56.5,59.5C 52.0189,58.3516 47.3522,58.1849 42.5,59C 46.0257,60.3368 49.6924,60.8368 53.5,60.5C 50.0381,61.4816 46.3714,61.815 42.5,61.5C 40.8235,62.1834 40.1568,63.5168 40.5,65.5C 40.1667,65.5 39.8333,65.5 39.5,65.5C 34.8333,65.5 30.1667,65.5 25.5,65.5C 24.8333,65.5 24.5,65.1667 24.5,64.5C 29.2137,64.8266 33.8804,64.4933 38.5,63.5C 39.1799,62.1401 39.8466,60.8068 40.5,59.5C 40.5,58.8333 40.1667,58.5 39.5,58.5 Z"/></g>
<g><path style="opacity:0.761" fill="#2b0f09" d="M 60.5,55.5 C 65.5265,56.8348 70.5265,57.8348 75.5,58.5C 76.4054,59.7024 76.4054,61.0357 75.5,62.5C 75.1667,62.5 74.8333,62.5 74.5,62.5C 74.5,61.8333 74.1667,61.5 73.5,61.5C 73.1667,61.5 72.8333,61.5 72.5,61.5C 72.9175,60.7784 73.5842,60.2784 74.5,60C 70.4126,59.2375 66.4126,59.4042 62.5,60.5C 62.1667,60.5 61.8333,60.5 61.5,60.5C 61.5,60.1667 61.5,59.8333 61.5,59.5C 62.8333,59.1667 62.8333,58.8333 61.5,58.5C 61.5,57.8333 61.1667,57.5 60.5,57.5C 60.5,56.8333 60.5,56.1667 60.5,55.5 Z"/></g>
<g><path style="opacity:1" fill="#450d03" d="M 56.5,59.5 C 55.391,59.5569 54.391,59.8902 53.5,60.5C 49.6924,60.8368 46.0257,60.3368 42.5,59C 47.3522,58.1849 52.0189,58.3516 56.5,59.5 Z"/></g>
<g><path style="opacity:0.431" fill="#8e4d3b" d="M 38.5,59.5 C 38.8333,59.5 39.1667,59.5 39.5,59.5C 39.8333,59.5 40.1667,59.5 40.5,59.5C 39.8466,60.8068 39.1799,62.1401 38.5,63.5C 33.8804,64.4933 29.2137,64.8266 24.5,64.5C 25.2909,62.9438 25.6242,61.6105 25.5,60.5C 29.6315,61.7963 33.6315,61.7963 37.5,60.5C 38.1667,60.5 38.5,60.1667 38.5,59.5 Z"/></g>
<g><path style="opacity:1" fill="#7f3516" d="M 56.5,59.5 C 56.8333,59.5 57.1667,59.5 57.5,59.5C 57.5,60.5 57.5,61.5 57.5,62.5C 55.9539,63.6358 54.1206,64.3025 52,64.5C 48.7181,64.2693 45.5514,63.6026 42.5,62.5C 42.5,62.1667 42.5,61.8333 42.5,61.5C 46.3714,61.815 50.0381,61.4816 53.5,60.5C 54.391,59.8902 55.391,59.5569 56.5,59.5 Z"/></g>
<g><path style="opacity:1" fill="#672d21" d="M 59.5,58.5 C 60.1667,58.5 60.8333,58.5 61.5,58.5C 61.5,58.8333 61.5,59.1667 61.5,59.5C 60.1667,59.8333 60.1667,60.1667 61.5,60.5C 61.8333,60.5 62.1667,60.5 62.5,60.5C 65.6248,61.4794 68.9581,61.8128 72.5,61.5C 72.8333,61.5 73.1667,61.5 73.5,61.5C 74.1667,61.5 74.5,61.8333 74.5,62.5C 74.5,63.1667 74.5,63.8333 74.5,64.5C 68.9114,64.9984 63.5781,64.3317 58.5,62.5C 58.5,61.5 58.5,60.5 58.5,59.5C 59.1667,59.5 59.5,59.1667 59.5,58.5 Z"/></g>
<g><path style="opacity:0.012" fill="#4b0800" d="M 22.5,62.5 C 23.5735,63.2506 23.7401,64.2506 23,65.5C 22.5172,64.552 22.3505,63.552 22.5,62.5 Z"/></g>
<g><path style="opacity:1" fill="#8d3a14" d="M 42.5,62.5 C 45.5514,63.6026 48.7181,64.2693 52,64.5C 54.1206,64.3025 55.9539,63.6358 57.5,62.5C 57.5,63.5 57.5,64.5 57.5,65.5C 56.7638,67.2294 55.4305,68.2294 53.5,68.5C 51.8984,66.9261 49.8984,66.2594 47.5,66.5C 45.4489,65.5129 43.7822,64.1795 42.5,62.5 Z"/></g>
<g><path style="opacity:0.998" fill="#973c0f" d="M 42.5,62.5 C 43.7822,64.1795 45.4489,65.5129 47.5,66.5C 47.7709,68.3797 47.1042,69.713 45.5,70.5C 44.4168,70.4606 43.4168,70.1272 42.5,69.5C 41.2031,67.0268 41.2031,64.6934 42.5,62.5 Z"/></g>
<g><path style="opacity:0.721" fill="#401306" d="M 58.5,62.5 C 63.5781,64.3317 68.9114,64.9984 74.5,64.5C 74.5,65.1667 74.5,65.8333 74.5,66.5C 74.1667,66.5 73.8333,66.5 73.5,66.5C 73.1667,66.5 72.8333,66.5 72.5,66.5C 68.6286,66.185 64.9619,66.5184 61.5,67.5C 61.5,67.8333 61.5,68.1667 61.5,68.5C 61.5,68.8333 61.5,69.1667 61.5,69.5C 61.5905,72.1522 60.9238,74.4855 59.5,76.5C 59.5,75.1667 59.5,73.8333 59.5,72.5C 60.8333,70.5 60.8333,68.5 59.5,66.5C 58.7659,65.2921 58.4326,63.9587 58.5,62.5 Z"/></g>
<g><path style="opacity:0.004" fill="#43260a" d="M 75.5,62.5 C 76.5983,63.6009 76.765,64.9343 76,66.5C 75.51,65.2068 75.3433,63.8734 75.5,62.5 Z"/></g>
<g><path style="opacity:0.043" fill="#25110e" d="M 25.5,65.5 C 30.1667,65.5 34.8333,65.5 39.5,65.5C 39.5,65.8333 39.5,66.1667 39.5,66.5C 39.1667,66.5 38.8333,66.5 38.5,66.5C 37.8333,66.5 37.5,66.8333 37.5,67.5C 24.1667,67.8333 24.1667,68.1667 37.5,68.5C 37.5,68.8333 37.5,69.1667 37.5,69.5C 33.8183,69.6653 30.1516,69.4986 26.5,69C 26.3809,67.8552 26.0476,66.6885 25.5,65.5 Z"/></g>
<g><path style="opacity:0.004" fill="#0d0909" d="M 61.5,67.5 C 64.9619,66.5184 68.6286,66.185 72.5,66.5C 72.8333,67.8333 73.1667,67.8333 73.5,66.5C 73.8333,66.5 74.1667,66.5 74.5,66.5C 74.4226,67.7498 73.756,68.5831 72.5,69C 68.8484,69.4986 65.1817,69.6653 61.5,69.5C 61.5,69.1667 61.5,68.8333 61.5,68.5C 74.8333,68.1667 74.8333,67.8333 61.5,67.5 Z"/></g>
<g><path style="opacity:0.2" fill="#703a15" d="M 39.5,65.5 C 39.8333,65.5 40.1667,65.5 40.5,65.5C 40.5,67.5 40.5,69.5 40.5,71.5C 40.5,71.8333 40.5,72.1667 40.5,72.5C 39.1667,73.5 39.1667,74.5 40.5,75.5C 40.5,76.5 40.5,77.5 40.5,78.5C 40.1667,78.5 39.8333,78.5 39.5,78.5C 38.8333,78.5 38.5,78.8333 38.5,79.5C 38.1667,79.5 37.8333,79.5 37.5,79.5C 37.1667,79.5 36.8333,79.5 36.5,79.5C 37.0577,78.2101 38.0577,77.3768 39.5,77C 38.4459,74.6178 37.7792,72.1178 37.5,69.5C 37.5,69.1667 37.5,68.8333 37.5,68.5C 37.5,68.1667 37.5,67.8333 37.5,67.5C 37.5,66.8333 37.8333,66.5 38.5,66.5C 38.8333,73.1667 39.1667,73.1667 39.5,66.5C 39.5,66.1667 39.5,65.8333 39.5,65.5 Z"/></g>
<g><path style="opacity:1" fill="#89310d" d="M 57.5,65.5 C 57.5,68.1667 57.5,70.8333 57.5,73.5C 56.7784,73.0825 56.2784,72.4158 56,71.5C 55.5348,72.9308 54.7014,74.0975 53.5,75C 49.9733,75.8075 46.6399,75.6408 43.5,74.5C 46.2469,74.8134 48.9135,74.48 51.5,73.5C 51.3764,72.8933 51.0431,72.56 50.5,72.5C 51.6588,71.2597 52.6588,69.9264 53.5,68.5C 55.4305,68.2294 56.7638,67.2294 57.5,65.5 Z"/></g>
<g><path style="opacity:0.998" fill="#8f330b" d="M 42.5,61.5 C 42.5,61.8333 42.5,62.1667 42.5,62.5C 41.2031,64.6934 41.2031,67.0268 42.5,69.5C 43.4168,70.1272 44.4168,70.4606 45.5,70.5C 46.7804,71.9313 48.4471,72.5979 50.5,72.5C 51.0431,72.56 51.3764,72.8933 51.5,73.5C 48.9135,74.48 46.2469,74.8134 43.5,74.5C 43.1583,73.6618 42.4916,73.3284 41.5,73.5C 41.6716,72.5084 41.3382,71.8417 40.5,71.5C 40.5,69.5 40.5,67.5 40.5,65.5C 40.1568,63.5168 40.8235,62.1834 42.5,61.5 Z"/></g>
<g><path style="opacity:1" fill="#92370e" d="M 47.5,66.5 C 49.8984,66.2594 51.8984,66.9261 53.5,68.5C 52.6588,69.9264 51.6588,71.2597 50.5,72.5C 48.4471,72.5979 46.7804,71.9313 45.5,70.5C 47.1042,69.713 47.7709,68.3797 47.5,66.5 Z"/></g>
<g><path style="opacity:1" fill="#78260a" d="M 57.5,59.5 C 57.8333,59.5 58.1667,59.5 58.5,59.5C 58.5,60.5 58.5,61.5 58.5,62.5C 58.4326,63.9587 58.7659,65.2921 59.5,66.5C 59.5,68.5 59.5,70.5 59.5,72.5C 58.5655,73.5676 58.2322,74.901 58.5,76.5C 57.6618,76.8417 57.3284,77.5084 57.5,78.5C 56.8333,78.5 56.5,78.8333 56.5,79.5C 56.1667,79.5 55.8333,79.5 55.5,79.5C 52.5,79.5 49.5,79.5 46.5,79.5C 45.0697,78.4625 43.403,77.7959 41.5,77.5C 41.6716,76.5084 41.3382,75.8417 40.5,75.5C 40.5,74.5 40.5,73.5 40.5,72.5C 40.5,72.1667 40.5,71.8333 40.5,71.5C 41.3382,71.8417 41.6716,72.5084 41.5,73.5C 42.5871,76.4653 44.7538,77.7986 48,77.5C 50.7543,76.6238 53.4209,76.6238 56,77.5C 56.7914,76.255 57.2914,74.9217 57.5,73.5C 57.5,70.8333 57.5,68.1667 57.5,65.5C 57.5,64.5 57.5,63.5 57.5,62.5C 57.5,61.5 57.5,60.5 57.5,59.5 Z"/></g>
<g><path style="opacity:0.995" fill="#802708" d="M 57.5,73.5 C 57.2914,74.9217 56.7914,76.255 56,77.5C 53.4209,76.6238 50.7543,76.6238 48,77.5C 44.7538,77.7986 42.5871,76.4653 41.5,73.5C 42.4916,73.3284 43.1583,73.6618 43.5,74.5C 46.6399,75.6408 49.9733,75.8075 53.5,75C 54.7014,74.0975 55.5348,72.9308 56,71.5C 56.2784,72.4158 56.7784,73.0825 57.5,73.5 Z"/></g>
<g><path style="opacity:0.999" fill="#6b1b06" d="M 46.5,79.5 C 49.5,79.5 52.5,79.5 55.5,79.5C 55.573,81.0269 54.9063,82.0269 53.5,82.5C 50.562,82.7267 48.2287,81.7267 46.5,79.5 Z"/></g>
<g><path style="opacity:1" fill="#641907" d="M 41.5,78.5 C 41.5,78.1667 41.5,77.8333 41.5,77.5C 43.403,77.7959 45.0697,78.4625 46.5,79.5C 48.2287,81.7267 50.562,82.7267 53.5,82.5C 53.5,82.8333 53.5,83.1667 53.5,83.5C 53.1667,83.5 52.8333,83.5 52.5,83.5C 48.8875,84.0762 45.8875,83.0762 43.5,80.5C 43.5,79.8333 43.1667,79.5 42.5,79.5C 42.5,78.8333 42.1667,78.5 41.5,78.5 Z"/></g>
<g><path style="opacity:0.984" fill="#733424" d="M 39.5,78.5 C 39.8333,78.5 40.1667,78.5 40.5,78.5C 40.8333,78.5 41.1667,78.5 41.5,78.5C 42.1667,78.5 42.5,78.8333 42.5,79.5C 43.1667,79.5 43.5,79.8333 43.5,80.5C 43.5569,81.609 43.8902,82.609 44.5,83.5C 42.1667,83.5 39.8333,83.5 37.5,83.5C 35.8235,84.1834 35.1568,85.5168 35.5,87.5C 35.5,88.1667 35.1667,88.5 34.5,88.5C 34.7947,86.2646 34.4614,84.2646 33.5,82.5C 33.8102,80.8564 34.8102,79.8564 36.5,79.5C 36.8333,80.8333 37.1667,80.8333 37.5,79.5C 37.8333,79.5 38.1667,79.5 38.5,79.5C 39.1667,79.5 39.5,79.1667 39.5,78.5 Z"/></g>
<g><path style="opacity:0.982" fill="#884a2d" d="M 58.5,76.5 C 58.8333,76.5 59.1667,76.5 59.5,76.5C 62.4676,77.4675 64.4676,79.4675 65.5,82.5C 64.8333,82.5 64.5,82.8333 64.5,83.5C 63.8333,83.1667 63.1667,82.8333 62.5,82.5C 60.5,82.5 58.5,82.5 56.5,82.5C 56.5,81.5 56.5,80.5 56.5,79.5C 56.5,78.8333 56.8333,78.5 57.5,78.5C 58.3382,78.1583 58.6716,77.4916 58.5,76.5 Z"/></g>
<g><path style="opacity:1" fill="#782f17" d="M 55.5,79.5 C 55.8333,79.5 56.1667,79.5 56.5,79.5C 56.5,80.5 56.5,81.5 56.5,82.5C 58.5,82.5 60.5,82.5 62.5,82.5C 60.0122,84.3878 57.0122,85.0545 53.5,84.5C 53.5,84.1667 53.5,83.8333 53.5,83.5C 53.5,83.1667 53.5,82.8333 53.5,82.5C 54.9063,82.0269 55.573,81.0269 55.5,79.5 Z"/></g>
<g><path style="opacity:0.008" fill="#540901" d="M 33.5,82.5 C 33.5,84.5 33.5,86.5 33.5,88.5C 32.1667,86.5 32.1667,84.5 33.5,82.5 Z"/></g>
<g><path style="opacity:1" fill="#6d230d" d="M 37.5,83.5 C 39.8333,83.5 42.1667,83.5 44.5,83.5C 46.2959,84.7927 47.9625,86.2927 49.5,88C 47.6131,88.7796 45.9464,88.6129 44.5,87.5C 44.0919,86.3569 43.4252,85.3569 42.5,84.5C 41.1585,86.0049 39.4918,86.6715 37.5,86.5C 37.5,85.5 37.5,84.5 37.5,83.5 Z"/></g>
<g><path style="opacity:0.004" fill="#801909" d="M 65.5,82.5 C 67.8549,84.2462 68.0216,86.2462 66,88.5C 65.5045,86.5273 65.3379,84.5273 65.5,82.5 Z"/></g>
<g><path style="opacity:1" fill="#6a220b" d="M 37.5,83.5 C 37.5,84.5 37.5,85.5 37.5,86.5C 39.4918,86.6715 41.1585,86.0049 42.5,84.5C 43.4252,85.3569 44.0919,86.3569 44.5,87.5C 41.5,88.8333 38.5,88.8333 35.5,87.5C 35.1568,85.5168 35.8235,84.1834 37.5,83.5 Z"/></g>
<g><path style="opacity:1" fill="#73270e" d="M 62.5,82.5 C 63.1667,82.8333 63.8333,83.1667 64.5,83.5C 64.5,84.1667 64.5,84.8333 64.5,85.5C 63.7784,85.9175 63.2784,86.5842 63,87.5C 59.4281,87.1674 56.2615,86.1674 53.5,84.5C 57.0122,85.0545 60.0122,84.3878 62.5,82.5 Z"/></g>
<g><path style="opacity:0.998" fill="#68200a" d="M 52.5,83.5 C 52.8333,83.5 53.1667,83.5 53.5,83.5C 53.5,83.8333 53.5,84.1667 53.5,84.5C 56.2615,86.1674 59.4281,87.1674 63,87.5C 63.2784,86.5842 63.7784,85.9175 64.5,85.5C 64.5,86.8333 64.5,88.1667 64.5,89.5C 64.1667,89.5 63.8333,89.5 63.5,89.5C 58.5867,90.0251 54.2534,88.8584 50.5,86C 51.3805,85.2917 52.0472,84.4584 52.5,83.5 Z"/></g>
<g><path style="opacity:0.997" fill="#511808" d="M 43.5,80.5 C 45.8875,83.0762 48.8875,84.0762 52.5,83.5C 52.0472,84.4584 51.3805,85.2917 50.5,86C 54.2534,88.8584 58.5867,90.0251 63.5,89.5C 63.5,89.8333 63.5,90.1667 63.5,90.5C 63.1667,90.5 62.8333,90.5 62.5,90.5C 59.2516,90.2382 56.2516,90.2382 53.5,90.5C 50.8333,90.5 48.1667,90.5 45.5,90.5C 43.6777,91.281 43.0111,92.4477 43.5,94C 41.0288,94.7063 38.6954,94.373 36.5,93C 35.1667,92.3333 35.1667,91.6667 36.5,91C 35.7471,89.513 34.9138,89.3463 34,90.5C 33.5357,89.9056 33.369,89.2389 33.5,88.5C 33.8333,88.5 34.1667,88.5 34.5,88.5C 35.1667,88.5 35.5,88.1667 35.5,87.5C 38.5,88.8333 41.5,88.8333 44.5,87.5C 45.9464,88.6129 47.6131,88.7796 49.5,88C 47.9625,86.2927 46.2959,84.7927 44.5,83.5C 43.8902,82.609 43.5569,81.609 43.5,80.5 Z"/></g>
<g><path style="opacity:0.008" fill="#7e0000" d="M 64.5,89.5 C 65.8333,90.1667 65.8333,90.1667 64.5,89.5 Z"/></g>
<g><path style="opacity:0.537" fill="#390e05" d="M 62.5,90.5 C 62.5,91.1667 62.8333,91.5 63.5,91.5C 63.0269,92.9063 62.0269,93.573 60.5,93.5C 59.1667,92.1667 57.8333,92.1667 56.5,93.5C 54.8333,93.5 53.1667,93.5 51.5,93.5C 50.1667,92.1667 48.8333,92.1667 47.5,93.5C 46.7611,93.631 46.0944,93.4643 45.5,93C 46.5981,92.2303 46.5981,91.397 45.5,90.5C 48.1667,90.5 50.8333,90.5 53.5,90.5C 56.2516,90.2382 59.2516,90.2382 62.5,90.5 Z"/></g>
<g><path style="opacity:0.008" fill="#000000" d="M 63.5,90.5 C 63.8333,90.5 64.1667,90.5 64.5,90.5C 64.3147,91.1701 63.9813,91.1701 63.5,90.5 Z"/></g>
<g><path style="opacity:0.01" fill="#000000" d="M 47.5,93.5 C 48.8333,93.5 50.1667,93.5 51.5,93.5C 50.1667,94.8333 48.8333,94.8333 47.5,93.5 Z"/></g>
<g><path style="opacity:0.006" fill="#000000" d="M 56.5,93.5 C 57.8333,93.5 59.1667,93.5 60.5,93.5C 59.1667,94.8333 57.8333,94.8333 56.5,93.5 Z"/></g>
</svg>
