<?xml version="1.0" encoding="UTF-8"?>
<!DOCTYPE svg PUBLIC "-//W3C//DTD SVG 1.1//EN" "http://www.w3.org/Graphics/SVG/1.1/DTD/svg11.dtd">
<svg xmlns="http://www.w3.org/2000/svg" version="1.1" width="94px" height="94px" style="shape-rendering:geometricPrecision; text-rendering:geometricPrecision; image-rendering:optimizeQuality; fill-rule:evenodd; clip-rule:evenodd" xmlns:xlink="http://www.w3.org/1999/xlink">
<g><path style="opacity:0.765" fill="#e08656" d="M 77.5,8.5 C 77.1667,8.5 76.8333,8.5 76.5,8.5C 71.7935,7.88107 69.1268,9.88107 68.5,14.5C 67.609,13.8902 66.609,13.5569 65.5,13.5C 65.5,12.8333 65.5,12.1667 65.5,11.5C 67.5494,9.55034 68.8827,7.55034 69.5,5.5C 72.6502,5.76574 75.3168,6.76574 77.5,8.5 Z"/></g>
<g><path style="opacity:0.004" fill="#fe0000" d="M 79.5,8.5 C 80.8333,9.16667 80.8333,9.16667 79.5,8.5 Z"/></g>
<g><path style="opacity:0.008" fill="#7e0000" d="M 78.5,9.5 C 78.8333,9.5 79.1667,9.5 79.5,9.5C 79.3147,10.1701 78.9813,10.1701 78.5,9.5 Z"/></g>
<g><path style="opacity:0.984" fill="#f4c48b" d="M 65.5,11.5 C 65.5,12.1667 65.5,12.8333 65.5,13.5C 63.0221,12.1168 60.3554,11.1168 57.5,10.5C 53.5,10.5 49.5,10.5 45.5,10.5C 42.8333,10.8333 40.1667,11.1667 37.5,11.5C 37.5,11.1667 37.5,10.8333 37.5,10.5C 40.1667,10.1667 40.1667,9.83333 37.5,9.5C 38.842,8.20695 40.5087,7.37362 42.5,7C 50.0169,5.92744 57.3503,6.5941 64.5,9C 64.8836,9.9506 65.2169,10.7839 65.5,11.5 Z"/></g>
<g><path style="opacity:1" fill="#b7390c" d="M 76.5,8.5 C 75.9002,9.89992 74.9002,10.8999 73.5,11.5C 72.5,11.5 71.5,11.5 70.5,11.5C 70.5,12.5 70.5,13.5 70.5,14.5C 70.5,14.8333 70.5,15.1667 70.5,15.5C 69.8333,15.1667 69.1667,14.8333 68.5,14.5C 69.1268,9.88107 71.7935,7.88107 76.5,8.5 Z"/></g>
<g><path style="opacity:0.016" fill="#7f210f" d="M 76.5,8.5 C 76.8333,8.5 77.1667,8.5 77.5,8.5C 78.1667,8.5 78.5,8.83333 78.5,9.5C 77.6906,10.4687 76.6906,11.3021 75.5,12C 76.1667,12.3333 76.8333,12.6667 77.5,13C 75.9419,13.21 74.6085,13.71 73.5,14.5C 72.8333,14.5 72.5,14.8333 72.5,15.5C 72.1667,15.5 71.8333,15.5 71.5,15.5C 71.5,14.8333 71.1667,14.5 70.5,14.5C 70.5,13.5 70.5,12.5 70.5,11.5C 71.5,11.5 72.5,11.5 73.5,11.5C 74.9002,10.8999 75.9002,9.89992 76.5,8.5 Z"/></g>
<g><path style="opacity:1" fill="#f7c674" d="M 37.5,9.5 C 37.5,9.83333 37.5,10.1667 37.5,10.5C 36.1667,10.8333 36.1667,11.1667 37.5,11.5C 40.1667,11.1667 42.8333,10.8333 45.5,10.5C 45.0825,11.2216 44.4158,11.7216 43.5,12C 49.7874,12.9534 51.9541,16.4534 50,22.5C 46.1174,27.1761 41.284,28.5094 35.5,26.5C 34.9781,25.3926 34.6448,24.2259 34.5,23C 35.5032,20.5324 36.0032,18.0324 36,15.5C 31.2803,19.3941 26.7803,23.3941 22.5,27.5C 22.8333,26.1667 23.1667,24.8333 23.5,23.5C 24.1667,23.5 24.5,23.1667 24.5,22.5C 25.4884,21.205 26.4884,19.8717 27.5,18.5C 28.1667,18.5 28.5,18.1667 28.5,17.5C 29.1667,17.5 29.5,17.1667 29.5,16.5C 30.1667,16.5 30.5,16.1667 30.5,15.5C 31.1667,15.5 31.5,15.1667 31.5,14.5C 33.2327,13.9924 33.566,13.159 32.5,12C 34.0779,10.9055 35.7446,10.0722 37.5,9.5 Z"/></g>
<g><path style="opacity:0.016" fill="#e8c79b" d="M 31.5,14.5 C 30.8333,14.5 30.5,14.8333 30.5,15.5C 29.8333,15.5 29.5,15.8333 29.5,16.5C 28.8333,16.5 28.5,16.8333 28.5,17.5C 27.8333,17.5 27.5,17.8333 27.5,18.5C 26.8817,16.3364 27.8817,14.6697 30.5,13.5C 31.1067,13.6236 31.44,13.9569 31.5,14.5 Z"/></g>
<g><path style="opacity:0.008" fill="#ff7960" d="M 75.5,17.5 C 77.3818,18.221 77.7152,19.221 76.5,20.5C 76.5,19.8333 76.1667,19.5 75.5,19.5C 75.5,18.8333 75.5,18.1667 75.5,17.5 Z"/></g>
<g><path style="opacity:0.996" fill="#f0a967" d="M 57.5,10.5 C 60.3554,11.1168 63.0221,12.1168 65.5,13.5C 66.609,13.5569 67.609,13.8902 68.5,14.5C 69.1667,14.8333 69.8333,15.1667 70.5,15.5C 70.8333,15.5 71.1667,15.5 71.5,15.5C 71.8333,16.8333 72.1667,16.8333 72.5,15.5C 72.5,14.8333 72.8333,14.5 73.5,14.5C 74.1667,15.5 74.8333,16.5 75.5,17.5C 74.1667,18.1667 74.1667,18.8333 75.5,19.5C 76.1667,19.5 76.5,19.8333 76.5,20.5C 77.0076,22.2327 77.841,22.566 79,21.5C 80.0386,22.2438 80.5386,23.2438 80.5,24.5C 80.1667,24.5 79.8333,24.5 79.5,24.5C 79.1667,23.1667 78.8333,23.1667 78.5,24.5C 77.2196,25.9313 75.5529,26.5979 73.5,26.5C 72.2196,25.0687 70.5529,24.4021 68.5,24.5C 66.2161,19.2167 62.5494,15.2167 57.5,12.5C 57.5,11.8333 57.5,11.1667 57.5,10.5 Z"/></g>
<g><path style="opacity:0.012" fill="#e17a41" d="M 24.5,22.5 C 23.8333,22.5 23.5,22.8333 23.5,23.5C 22.2875,22.5029 22.4542,21.5029 24,20.5C 24.4643,21.0944 24.631,21.7611 24.5,22.5 Z"/></g>
<g><path style="opacity:1" fill="#f5bb5d" d="M 45.5,10.5 C 49.5,10.5 53.5,10.5 57.5,10.5C 57.5,11.1667 57.5,11.8333 57.5,12.5C 55.5992,12.5668 53.7659,12.2335 52,11.5C 48.918,12.5088 48.918,13.8422 52,15.5C 52.6667,17.8333 52.6667,20.1667 52,22.5C 49.8333,24.6667 47.6667,26.8333 45.5,29C 42.1204,29.3386 38.7871,29.8386 35.5,30.5C 33.3325,27.8599 31.8325,24.8599 31,21.5C 28.5971,23.305 26.9305,25.6384 26,28.5C 24.2228,30.7899 22.0562,32.4566 19.5,33.5C 19.8333,32.1667 20.1667,30.8333 20.5,29.5C 21.3382,29.1583 21.6716,28.4916 21.5,27.5C 21.8333,27.5 22.1667,27.5 22.5,27.5C 26.7803,23.3941 31.2803,19.3941 36,15.5C 36.0032,18.0324 35.5032,20.5324 34.5,23C 34.6448,24.2259 34.9781,25.3926 35.5,26.5C 41.284,28.5094 46.1174,27.1761 50,22.5C 51.9541,16.4534 49.7874,12.9534 43.5,12C 44.4158,11.7216 45.0825,11.2216 45.5,10.5 Z"/></g>
<g><path style="opacity:1" fill="#f8ce8d" d="M 41.5,14.5 C 49.8773,14.2743 51.544,17.441 46.5,24C 43.5352,25.4981 40.5352,25.6648 37.5,24.5C 36.39,20.2512 37.7233,16.9179 41.5,14.5 Z"/></g>
<g><path style="opacity:0.012" fill="#d69b65" d="M 80.5,24.5 C 81.8333,25.1667 81.8333,25.8333 80.5,26.5C 80.5,25.8333 80.5,25.1667 80.5,24.5 Z"/></g>
<g><path style="opacity:0.008" fill="#f0bc64" d="M 21.5,27.5 C 20.6618,27.8417 20.3284,28.5084 20.5,29.5C 19.2035,28.1512 19.3702,26.8179 21,25.5C 21.4643,26.0944 21.631,26.7611 21.5,27.5 Z"/></g>
<g><path style="opacity:1" fill="#f2b342" d="M 35.5,30.5 C 36.1667,31.5 36.8333,32.5 37.5,33.5C 36.8333,34.1667 36.1667,34.8333 35.5,35.5C 33.4156,33.1367 30.7489,31.47 27.5,30.5C 25.0847,30.7189 24.0847,32.0523 24.5,34.5C 22.386,37.0698 20.0527,39.4032 17.5,41.5C 18.3105,38.6167 18.3105,35.7834 17.5,33C 17.6667,32.5 17.8333,32 18,31.5C 18.2784,32.4158 18.7784,33.0825 19.5,33.5C 22.0562,32.4566 24.2228,30.7899 26,28.5C 26.9305,25.6384 28.5971,23.305 31,21.5C 31.8325,24.8599 33.3325,27.8599 35.5,30.5 Z"/></g>
<g><path style="opacity:1" fill="#ed9129" d="M 68.5,27.5 C 66.3206,28.6772 63.9872,29.6772 61.5,30.5C 59.8014,30.6204 58.1347,30.9537 56.5,31.5C 54.743,33.4089 52.5763,34.7422 50,35.5C 47.0236,34.8917 44.5236,35.8917 42.5,38.5C 41.8843,37.7978 41.8843,36.7978 42.5,35.5C 48.4979,31.2126 54.6646,27.8792 61,25.5C 63.4066,25.5632 65.9066,26.2299 68.5,27.5 Z"/></g>
<g><path style="opacity:1" fill="#f3ae47" d="M 57.5,12.5 C 62.5494,15.2167 66.2161,19.2167 68.5,24.5C 67.1851,23.5244 65.8518,22.5244 64.5,21.5C 63.1987,22.4779 62.032,22.1445 61,20.5C 59.2108,19.5909 57.3774,19.4242 55.5,20C 54.8333,22.3333 54.1667,24.6667 53.5,27C 48.7364,29.7152 43.7364,31.8819 38.5,33.5C 38.1667,33.5 37.8333,33.5 37.5,33.5C 36.8333,32.5 36.1667,31.5 35.5,30.5C 38.7871,29.8386 42.1204,29.3386 45.5,29C 47.6667,26.8333 49.8333,24.6667 52,22.5C 52.6667,20.1667 52.6667,17.8333 52,15.5C 48.918,13.8422 48.918,12.5088 52,11.5C 53.7659,12.2335 55.5992,12.5668 57.5,12.5 Z"/></g>
<g><path style="opacity:0.998" fill="#da5d0f" d="M 82.5,43.5 C 82.8731,38.3978 82.5397,34.7312 81.5,32.5C 80.6829,34.9686 80.1829,37.6353 80,40.5C 79.6667,38.8333 79.3333,37.1667 79,35.5C 76,37.1667 73,38.8333 70,40.5C 69.586,40.0426 69.086,39.7093 68.5,39.5C 64.098,41.7713 60.7646,45.1046 58.5,49.5C 58.6236,50.1067 58.9569,50.44 59.5,50.5C 59.1583,51.3382 58.4916,51.6716 57.5,51.5C 54.8749,50.5595 54.8749,49.3928 57.5,48C 56.8333,47.3333 56.1667,47.3333 55.5,48C 54.6453,50.4356 53.9787,52.9356 53.5,55.5C 53.1667,55.5 52.8333,55.5 52.5,55.5C 52.7635,51.3111 52.4302,47.3111 51.5,43.5C 53.1376,42.343 54.8043,41.1764 56.5,40C 61.0562,39.6112 65.3895,38.4445 69.5,36.5C 70.086,36.7093 70.586,37.0426 71,37.5C 73.7851,34.534 76.9517,32.2007 80.5,30.5C 80.5,30.1667 80.5,29.8333 80.5,29.5C 81.2216,29.0825 81.7216,28.4158 82,27.5C 83.7476,32.9006 83.9142,38.2339 82.5,43.5 Z"/></g>
<g><path style="opacity:1" fill="#e57e28" d="M 78.5,24.5 C 78.8333,24.5 79.1667,24.5 79.5,24.5C 79.3284,25.4916 79.6618,26.1583 80.5,26.5C 80.5,27.5 80.5,28.5 80.5,29.5C 80.5,29.8333 80.5,30.1667 80.5,30.5C 76.3838,31.2053 72.3838,32.5387 68.5,34.5C 64.8965,32.9766 61.7298,33.6433 59,36.5C 58.6174,35.944 58.1174,35.6107 57.5,35.5C 59.2065,34.1274 60.5398,32.4607 61.5,30.5C 63.9872,29.6772 66.3206,28.6772 68.5,27.5C 69.9305,27.4208 71.2638,27.7542 72.5,28.5C 73.2975,28.0431 73.6309,27.3764 73.5,26.5C 75.5529,26.5979 77.2196,25.9313 78.5,24.5 Z"/></g>
<g><path style="opacity:1" fill="#f09c35" d="M 68.5,24.5 C 70.5529,24.4021 72.2196,25.0687 73.5,26.5C 73.6309,27.3764 73.2975,28.0431 72.5,28.5C 71.2638,27.7542 69.9305,27.4208 68.5,27.5C 65.9066,26.2299 63.4066,25.5632 61,25.5C 54.6646,27.8792 48.4979,31.2126 42.5,35.5C 40.5168,35.8432 39.1834,35.1765 38.5,33.5C 43.7364,31.8819 48.7364,29.7152 53.5,27C 54.1667,24.6667 54.8333,22.3333 55.5,20C 57.3774,19.4242 59.2108,19.5909 61,20.5C 62.032,22.1445 63.1987,22.4779 64.5,21.5C 65.8518,22.5244 67.1851,23.5244 68.5,24.5 Z"/></g>
<g><path style="opacity:1" fill="#e88519" d="M 61.5,30.5 C 60.5398,32.4607 59.2065,34.1274 57.5,35.5C 56.2905,35.9321 55.2905,36.5987 54.5,37.5C 53.3115,36.9524 52.1448,36.6191 51,36.5C 48.6883,40.1735 46.5217,43.8402 44.5,47.5C 43.8333,47.8333 43.1667,48.1667 42.5,48.5C 43.3421,45.4009 43.3421,42.0676 42.5,38.5C 44.5236,35.8917 47.0236,34.8917 50,35.5C 52.5763,34.7422 54.743,33.4089 56.5,31.5C 58.1347,30.9537 59.8014,30.6204 61.5,30.5 Z"/></g>
<g><path style="opacity:1" fill="#d24f0c" d="M 81.5,32.5 C 81.5,35.8333 81.5,39.1667 81.5,42.5C 80.0689,42.8807 79.2355,43.8807 79,45.5C 78.6667,44.5 78.3333,43.5 78,42.5C 77.7679,43.7375 77.2679,44.7375 76.5,45.5C 73.0351,45.4269 69.8684,45.0935 67,44.5C 64.2954,45.9325 62.1287,47.9325 60.5,50.5C 60.1667,50.5 59.8333,50.5 59.5,50.5C 58.9569,50.44 58.6236,50.1067 58.5,49.5C 60.7646,45.1046 64.098,41.7713 68.5,39.5C 69.086,39.7093 69.586,40.0426 70,40.5C 73,38.8333 76,37.1667 79,35.5C 79.3333,37.1667 79.6667,38.8333 80,40.5C 80.1829,37.6353 80.6829,34.9686 81.5,32.5 Z"/></g>
<g><path style="opacity:1" fill="#e16e16" d="M 80.5,30.5 C 76.9517,32.2007 73.7851,34.534 71,37.5C 70.586,37.0426 70.086,36.7093 69.5,36.5C 65.3895,38.4445 61.0562,39.6112 56.5,40C 54.8043,41.1764 53.1376,42.343 51.5,43.5C 50.0688,40.9868 51.0688,38.9868 54.5,37.5C 55.2905,36.5987 56.2905,35.9321 57.5,35.5C 58.1174,35.6107 58.6174,35.944 59,36.5C 61.7298,33.6433 64.8965,32.9766 68.5,34.5C 72.3838,32.5387 76.3838,31.2053 80.5,30.5 Z"/></g>
<g><path style="opacity:1" fill="#e59114" d="M 37.5,33.5 C 37.8333,33.5 38.1667,33.5 38.5,33.5C 39.1834,35.1765 40.5168,35.8432 42.5,35.5C 41.8843,36.7978 41.8843,37.7978 42.5,38.5C 43.3421,42.0676 43.3421,45.4009 42.5,48.5C 42.4162,51.3274 41.7496,53.994 40.5,56.5C 39.5028,56.5299 38.8361,56.0299 38.5,55C 39.3295,53.5349 39.4962,52.0349 39,50.5C 38.3028,52.5844 37.1361,54.2511 35.5,55.5C 34.6014,54.0057 34.9347,52.5057 36.5,51C 35.9056,50.5357 35.2389,50.369 34.5,50.5C 35.0589,47.3836 36.0589,44.0503 37.5,40.5C 36.6102,39.0445 36.6102,37.7112 37.5,36.5C 37.0431,35.7025 36.3764,35.3691 35.5,35.5C 36.1667,34.8333 36.8333,34.1667 37.5,33.5 Z"/></g>
<g><path style="opacity:0.012" fill="#bf4d00" d="M 81.5,43.5 C 81.8333,43.5 82.1667,43.5 82.5,43.5C 82.7373,44.791 82.404,45.791 81.5,46.5C 81.5,45.5 81.5,44.5 81.5,43.5 Z"/></g>
<g><path style="opacity:1" fill="#cd4708" d="M 76.5,45.5 C 75.961,49.883 74.1277,50.5497 71,47.5C 70.6667,48.1667 70.3333,48.8333 70,49.5C 68.2933,48.8617 66.46,48.8617 64.5,49.5C 64.5,50.8333 64.5,52.1667 64.5,53.5C 62.0274,53.9118 60.6941,52.9118 60.5,50.5C 62.1287,47.9325 64.2954,45.9325 67,44.5C 69.8684,45.0935 73.0351,45.4269 76.5,45.5 Z"/></g>
<g><path style="opacity:1" fill="#e7a818" d="M 35.5,35.5 C 36.3764,35.3691 37.0431,35.7025 37.5,36.5C 36.6102,37.7112 36.6102,39.0445 37.5,40.5C 36.0589,44.0503 35.0589,47.3836 34.5,50.5C 33.19,52.4346 31.8567,54.4346 30.5,56.5C 29.4231,57.7051 28.0898,58.3718 26.5,58.5C 25.7777,59.5511 24.7777,60.2178 23.5,60.5C 25.2743,53.3198 27.2743,46.6532 29.5,40.5C 28.325,40.719 27.325,40.3857 26.5,39.5C 27.3094,37.9291 27.6427,36.2624 27.5,34.5C 26.5,34.5 25.5,34.5 24.5,34.5C 24.0847,32.0523 25.0847,30.7189 27.5,30.5C 30.7489,31.47 33.4156,33.1367 35.5,35.5 Z"/></g>
<g><path style="opacity:0.999" fill="#e5b41b" d="M 24.5,34.5 C 25.5,34.5 26.5,34.5 27.5,34.5C 27.6427,36.2624 27.3094,37.9291 26.5,39.5C 27.325,40.3857 28.325,40.719 29.5,40.5C 27.2743,46.6532 25.2743,53.3198 23.5,60.5C 22.145,63.5177 19.8116,64.851 16.5,64.5C 16.5234,56.8166 16.8567,49.1499 17.5,41.5C 20.0527,39.4032 22.386,37.0698 24.5,34.5 Z"/></g>
<g><path style="opacity:1" fill="#c6440e" d="M 81.5,42.5 C 81.5,42.8333 81.5,43.1667 81.5,43.5C 80.1667,44.5 80.1667,45.5 81.5,46.5C 81.7373,47.791 81.404,48.791 80.5,49.5C 80.1667,46.8333 79.8333,46.8333 79.5,49.5C 78.6618,49.8417 78.3284,50.5084 78.5,51.5C 77.6618,51.8417 77.3284,52.5084 77.5,53.5C 76.6618,53.8417 76.3284,54.5084 76.5,55.5C 75.1667,55.8333 75.1667,56.1667 76.5,56.5C 76.6716,57.4916 76.3382,58.1583 75.5,58.5C 75.1667,57.1667 74.8333,57.1667 74.5,58.5C 73.8333,58.5 73.5,58.8333 73.5,59.5C 71.965,58.6457 70.6316,58.6457 69.5,59.5C 67.6141,58.3534 65.9475,56.3534 64.5,53.5C 64.5,52.1667 64.5,50.8333 64.5,49.5C 66.46,48.8617 68.2933,48.8617 70,49.5C 70.3333,48.8333 70.6667,48.1667 71,47.5C 74.1277,50.5497 75.961,49.883 76.5,45.5C 77.2679,44.7375 77.7679,43.7375 78,42.5C 78.3333,43.5 78.6667,44.5 79,45.5C 79.2355,43.8807 80.0689,42.8807 81.5,42.5 Z"/></g>
<g><path style="opacity:1" fill="#d76d0a" d="M 54.5,37.5 C 51.0688,38.9868 50.0688,40.9868 51.5,43.5C 52.4302,47.3111 52.7635,51.3111 52.5,55.5C 51.5084,55.3284 50.8417,55.6618 50.5,56.5C 49.0222,56.762 47.6888,56.4287 46.5,55.5C 47.9023,54.1575 47.5689,53.3242 45.5,53C 46.7911,51.7083 46.7911,50.5417 45.5,49.5C 45.1667,48.8333 44.8333,48.1667 44.5,47.5C 46.5217,43.8402 48.6883,40.1735 51,36.5C 52.1448,36.6191 53.3115,36.9524 54.5,37.5 Z"/></g>
<g><path style="opacity:0.008" fill="#9c6dfe" d="M 79.5,49.5 C 79.8333,49.5 80.1667,49.5 80.5,49.5C 80.6716,50.4916 80.3382,51.1583 79.5,51.5C 79.5,50.8333 79.5,50.1667 79.5,49.5 Z"/></g>
<g><path style="opacity:0.004" fill="#e237ff" d="M 78.5,51.5 C 78.8333,51.5 79.1667,51.5 79.5,51.5C 79.6716,52.4916 79.3382,53.1583 78.5,53.5C 78.5,52.8333 78.5,52.1667 78.5,51.5 Z"/></g>
<g><path style="opacity:1" fill="#c54c06" d="M 59.5,50.5 C 59.8333,50.5 60.1667,50.5 60.5,50.5C 60.6941,52.9118 62.0274,53.9118 64.5,53.5C 65.9475,56.3534 67.6141,58.3534 69.5,59.5C 69.1667,60.1667 68.8333,60.8333 68.5,61.5C 65.9153,60.9276 63.2487,60.7609 60.5,61C 60.8333,60.6667 61.1667,60.3333 61.5,60C 60.1667,59 58.8333,58 57.5,57C 58.7525,55.1722 58.7525,53.3388 57.5,51.5C 58.4916,51.6716 59.1583,51.3382 59.5,50.5 Z"/></g>
<g><path style="opacity:0.008" fill="#e25d00" d="M 77.5,53.5 C 77.8333,53.5 78.1667,53.5 78.5,53.5C 78.6716,54.4916 78.3382,55.1583 77.5,55.5C 77.5,54.8333 77.5,54.1667 77.5,53.5 Z"/></g>
<g><path style="opacity:0.02" fill="#cb3300" d="M 76.5,55.5 C 76.8333,55.5 77.1667,55.5 77.5,55.5C 77.3147,56.1701 76.9813,56.1701 76.5,55.5 Z"/></g>
<g><path style="opacity:0.004" fill="#e92700" d="M 74.5,58.5 C 74.8333,58.5 75.1667,58.5 75.5,58.5C 75.6716,59.4916 75.3382,60.1583 74.5,60.5C 74.5,59.8333 74.5,59.1667 74.5,58.5 Z"/></g>
<g><path style="opacity:0.012" fill="#a95500" d="M 73.5,60.5 C 73.8333,60.5 74.1667,60.5 74.5,60.5C 74.3147,61.1701 73.9813,61.1701 73.5,60.5 Z"/></g>
<g><path style="opacity:1" fill="#d19708" d="M 34.5,50.5 C 35.2389,50.369 35.9056,50.5357 36.5,51C 34.9347,52.5057 34.6014,54.0057 35.5,55.5C 34.5,58.1667 33.5,60.8333 32.5,63.5C 29.2863,69.3633 24.2863,72.3633 17.5,72.5C 17.5674,71.0413 17.2341,69.7079 16.5,68.5C 20.3476,69.8247 23.3476,68.658 25.5,65C 24.8333,64.6667 24.1667,64.3333 23.5,64C 25.607,62.7365 26.607,60.9032 26.5,58.5C 28.0898,58.3718 29.4231,57.7051 30.5,56.5C 31.8567,54.4346 33.19,52.4346 34.5,50.5 Z"/></g>
<g><path style="opacity:1" fill="#c15307" d="M 57.5,51.5 C 58.7525,53.3388 58.7525,55.1722 57.5,57C 58.8333,58 60.1667,59 61.5,60C 61.1667,60.3333 60.8333,60.6667 60.5,61C 63.2487,60.7609 65.9153,60.9276 68.5,61.5C 69.0431,61.56 69.3764,61.8933 69.5,62.5C 68.675,63.3857 67.675,63.719 66.5,63.5C 66.6495,64.552 66.4828,65.552 66,66.5C 65.6667,66.1667 65.3333,65.8333 65,65.5C 63.8904,67.0368 62.3904,67.7035 60.5,67.5C 59.1918,62.8812 56.8585,58.8812 53.5,55.5C 53.9787,52.9356 54.6453,50.4356 55.5,48C 56.1667,47.3333 56.8333,47.3333 57.5,48C 54.8749,49.3928 54.8749,50.5595 57.5,51.5 Z"/></g>
<g><path style="opacity:1" fill="#be5e05" d="M 50.5,56.5 C 50.8417,55.6618 51.5084,55.3284 52.5,55.5C 52.8333,55.5 53.1667,55.5 53.5,55.5C 56.8585,58.8812 59.1918,62.8812 60.5,67.5C 60.8039,68.1499 61.1373,68.8165 61.5,69.5C 59.8554,70.6963 58.1887,71.6963 56.5,72.5C 55.609,73.1098 54.609,73.4431 53.5,73.5C 53.5,72.5 53.5,71.5 53.5,70.5C 51.6833,65.7342 50.6833,61.0675 50.5,56.5 Z"/></g>
<g><path style="opacity:1" fill="#d5a318" d="M 17.5,41.5 C 16.8567,49.1499 16.5234,56.8166 16.5,64.5C 19.8116,64.851 22.145,63.5177 23.5,60.5C 24.7777,60.2178 25.7777,59.5511 26.5,58.5C 26.607,60.9032 25.607,62.7365 23.5,64C 24.1667,64.3333 24.8333,64.6667 25.5,65C 23.3476,68.658 20.3476,69.8247 16.5,68.5C 16.1667,68.5 15.8333,68.5 15.5,68.5C 15.7845,66.5853 15.4511,64.9187 14.5,63.5C 15.6523,56.8292 15.6523,50.1625 14.5,43.5C 14.6922,41.4233 15.1922,39.4233 16,37.5C 16.21,39.0581 16.71,40.3915 17.5,41.5 Z"/></g>
<g><path style="opacity:1" fill="#c36a05" d="M 45.5,49.5 C 46.7911,50.5417 46.7911,51.7083 45.5,53C 47.5689,53.3242 47.9023,54.1575 46.5,55.5C 47.6888,56.4287 49.0222,56.762 50.5,56.5C 50.6833,61.0675 51.6833,65.7342 53.5,70.5C 51.1691,70.5023 49.1691,69.669 47.5,68C 48.4119,66.3745 47.7453,65.5412 45.5,65.5C 44.2089,64.4583 44.2089,63.2917 45.5,62C 43.2428,60.1702 43.2428,57.8368 45.5,55C 44.5,54.6667 43.5,54.3333 42.5,54C 43.8825,52.7292 44.8825,51.2292 45.5,49.5 Z"/></g>
<g><path style="opacity:0.008" fill="#fe0000" d="M 70.5,64.5 C 70.8333,64.5 71.1667,64.5 71.5,64.5C 71.3147,65.1701 70.9813,65.1701 70.5,64.5 Z"/></g>
<g><path style="opacity:1" fill="#c98305" d="M 40.5,56.5 C 38.9397,58.1294 39.273,59.296 41.5,60C 40.898,62.0363 39.898,63.8697 38.5,65.5C 38.7093,66.086 39.0426,66.586 39.5,67C 38.2899,68.0391 37.2899,69.2058 36.5,70.5C 35.1667,70.8333 33.8333,71.1667 32.5,71.5C 33.1408,70.5178 33.8075,69.5178 34.5,68.5C 31.9557,67.0626 31.9557,65.5626 34.5,64C 33.9056,63.5357 33.2389,63.369 32.5,63.5C 33.5,60.8333 34.5,58.1667 35.5,55.5C 37.1361,54.2511 38.3028,52.5844 39,50.5C 39.4962,52.0349 39.3295,53.5349 38.5,55C 38.8361,56.0299 39.5028,56.5299 40.5,56.5 Z"/></g>
<g><path style="opacity:0.016" fill="#be3f00" d="M 69.5,65.5 C 69.8333,65.5 70.1667,65.5 70.5,65.5C 70.3147,66.1701 69.9813,66.1701 69.5,65.5 Z"/></g>
<g><path style="opacity:0.012" fill="#ae7dff" d="M 14.5,63.5 C 14.5,66.1667 14.5,68.8333 14.5,71.5C 13.1667,68.8333 13.1667,66.1667 14.5,63.5 Z"/></g>
<g><path style="opacity:1" fill="#b45415" d="M 73.5,59.5 C 73.5,59.8333 73.5,60.1667 73.5,60.5C 72.1667,60.8333 72.1667,61.1667 73.5,61.5C 73.573,63.0269 72.9063,64.0269 71.5,64.5C 71.1667,63.1667 70.8333,63.1667 70.5,64.5C 69.8333,64.5 69.5,64.8333 69.5,65.5C 68.8333,65.5 68.5,65.8333 68.5,66.5C 67.8333,66.5 67.5,66.8333 67.5,67.5C 66.6618,67.8417 66.3284,68.5084 66.5,69.5C 65.8333,69.5 65.5,69.8333 65.5,70.5C 64.8333,70.5 64.5,70.8333 64.5,71.5C 63.8333,71.5 63.5,71.8333 63.5,72.5C 62.1667,72.8333 62.1667,73.1667 63.5,73.5C 62.4154,75.5869 60.7488,76.9202 58.5,77.5C 58.5,77.1667 58.5,76.8333 58.5,76.5C 59.1667,76.5 59.5,76.1667 59.5,75.5C 60.8333,75.1667 60.8333,74.8333 59.5,74.5C 58.7777,73.4489 57.7777,72.7822 56.5,72.5C 58.1887,71.6963 59.8554,70.6963 61.5,69.5C 61.1373,68.8165 60.8039,68.1499 60.5,67.5C 62.3904,67.7035 63.8904,67.0368 65,65.5C 65.3333,65.8333 65.6667,66.1667 66,66.5C 66.4828,65.552 66.6495,64.552 66.5,63.5C 67.675,63.719 68.675,63.3857 69.5,62.5C 69.3764,61.8933 69.0431,61.56 68.5,61.5C 68.8333,60.8333 69.1667,60.1667 69.5,59.5C 70.6316,58.6457 71.965,58.6457 73.5,59.5 Z"/></g>
<g><path style="opacity:0.004" fill="#7c460e" d="M 68.5,66.5 C 68.8333,66.5 69.1667,66.5 69.5,66.5C 69.573,68.0269 68.9063,69.0269 67.5,69.5C 67.5,68.8333 67.5,68.1667 67.5,67.5C 68.1667,67.5 68.5,67.1667 68.5,66.5 Z"/></g>
<g><path style="opacity:1" fill="#c17705" d="M 44.5,47.5 C 44.8333,48.1667 45.1667,48.8333 45.5,49.5C 44.8825,51.2292 43.8825,52.7292 42.5,54C 43.5,54.3333 44.5,54.6667 45.5,55C 43.2428,57.8368 43.2428,60.1702 45.5,62C 44.2089,63.2917 44.2089,64.4583 45.5,65.5C 44.2086,66.4728 44.2086,67.4728 45.5,68.5C 45.0233,69.4776 44.3567,70.3109 43.5,71C 44.3081,71.3076 44.9747,71.8076 45.5,72.5C 44.7401,74.3604 43.7401,76.027 42.5,77.5C 41.791,78.404 40.791,78.7373 39.5,78.5C 37.7741,78.8146 36.1075,78.9813 34.5,79C 41.4394,75.1134 41.1061,73.7801 33.5,75C 34.8333,73.6667 36.1667,72.3333 37.5,71C 37.2716,70.6012 36.9382,70.4346 36.5,70.5C 37.2899,69.2058 38.2899,68.0391 39.5,67C 39.0426,66.586 38.7093,66.086 38.5,65.5C 39.898,63.8697 40.898,62.0363 41.5,60C 39.273,59.296 38.9397,58.1294 40.5,56.5C 41.7496,53.994 42.4162,51.3274 42.5,48.5C 43.1667,48.1667 43.8333,47.8333 44.5,47.5 Z"/></g>
<g><path style="opacity:0.008" fill="#7e0000" d="M 66.5,69.5 C 66.8333,69.5 67.1667,69.5 67.5,69.5C 67.3147,70.1701 66.9813,70.1701 66.5,69.5 Z"/></g>
<g><path style="opacity:1" fill="#b96a05" d="M 45.5,65.5 C 47.7453,65.5412 48.4119,66.3745 47.5,68C 49.1691,69.669 51.1691,70.5023 53.5,70.5C 53.5,71.5 53.5,72.5 53.5,73.5C 51.1667,74.8333 48.8333,76.1667 46.5,77.5C 45.1667,77.5 43.8333,77.5 42.5,77.5C 43.7401,76.027 44.7401,74.3604 45.5,72.5C 44.9747,71.8076 44.3081,71.3076 43.5,71C 44.3567,70.3109 45.0233,69.4776 45.5,68.5C 44.2086,67.4728 44.2086,66.4728 45.5,65.5 Z"/></g>
<g><path style="opacity:0.004" fill="#fe0000" d="M 65.5,70.5 C 65.8333,70.5 66.1667,70.5 66.5,70.5C 66.3147,71.1701 65.9813,71.1701 65.5,70.5 Z"/></g>
<g><path style="opacity:0.012" fill="#a95500" d="M 64.5,71.5 C 64.8333,71.5 65.1667,71.5 65.5,71.5C 65.3147,72.1701 64.9813,72.1701 64.5,71.5 Z"/></g>
<g><path style="opacity:0.016" fill="#c97400" d="M 14.5,71.5 C 14.8333,71.5 15.1667,71.5 15.5,71.5C 15.5,72.5 15.5,73.5 15.5,74.5C 14.596,73.791 14.2627,72.791 14.5,71.5 Z"/></g>
<g><path style="opacity:0.012" fill="#a95500" d="M 63.5,72.5 C 63.8333,72.5 64.1667,72.5 64.5,72.5C 64.3147,73.1701 63.9813,73.1701 63.5,72.5 Z"/></g>
<g><path style="opacity:1" fill="#ae660e" d="M 56.5,72.5 C 57.7777,72.7822 58.7777,73.4489 59.5,74.5C 59.5,74.8333 59.5,75.1667 59.5,75.5C 58.8333,75.5 58.5,75.8333 58.5,76.5C 57.8333,76.5 57.5,76.8333 57.5,77.5C 56.1667,77.8333 56.1667,78.1667 57.5,78.5C 54.1323,81.8528 50.1323,84.1861 45.5,85.5C 44.8333,84.1667 44.1667,84.1667 43.5,85.5C 41.901,85.2322 40.5676,85.5655 39.5,86.5C 35.8333,86.5 32.1667,86.5 28.5,86.5C 28.5,86.1667 28.5,85.8333 28.5,85.5C 31.51,83.8832 34.8433,83.0498 38.5,83C 41.7212,81.896 44.3878,80.0626 46.5,77.5C 48.8333,76.1667 51.1667,74.8333 53.5,73.5C 54.609,73.4431 55.609,73.1098 56.5,72.5 Z"/></g>
<g><path style="opacity:0.012" fill="#c55600" d="M 15.5,74.5 C 15.8333,74.5 16.1667,74.5 16.5,74.5C 16.5,75.1667 16.5,75.8333 16.5,76.5C 15.6618,76.1583 15.3284,75.4916 15.5,74.5 Z"/></g>
<g><path style="opacity:1" fill="#c1880e" d="M 32.5,63.5 C 33.2389,63.369 33.9056,63.5357 34.5,64C 31.9557,65.5626 31.9557,67.0626 34.5,68.5C 33.8075,69.5178 33.1408,70.5178 32.5,71.5C 30.9916,72.7464 29.4916,74.0797 28,75.5C 26.927,74.7203 25.7604,74.887 24.5,76C 25.5,76.3333 26.5,76.6667 27.5,77C 25.2305,77.7581 23.0639,77.5914 21,76.5C 20.6155,78.1966 20.7822,79.8632 21.5,81.5C 20.603,80.4019 19.7697,80.4019 19,81.5C 17.9614,80.7562 17.4614,79.7562 17.5,78.5C 18.8333,77.8333 18.8333,77.1667 17.5,76.5C 17.6716,75.5084 17.3382,74.8417 16.5,74.5C 16.7373,73.209 16.404,72.209 15.5,71.5C 15.5,70.5 15.5,69.5 15.5,68.5C 15.8333,68.5 16.1667,68.5 16.5,68.5C 17.2341,69.7079 17.5674,71.0413 17.5,72.5C 24.2863,72.3633 29.2863,69.3633 32.5,63.5 Z"/></g>
<g><path style="opacity:0.008" fill="#a7a700" d="M 16.5,76.5 C 16.8333,76.5 17.1667,76.5 17.5,76.5C 17.5,77.1667 17.5,77.8333 17.5,78.5C 16.6618,78.1583 16.3284,77.4916 16.5,76.5 Z"/></g>
<g><path style="opacity:1" fill="#b06c07" d="M 42.5,77.5 C 43.8333,77.5 45.1667,77.5 46.5,77.5C 44.3878,80.0626 41.7212,81.896 38.5,83C 34.8433,83.0498 31.51,83.8832 28.5,85.5C 25.8333,85.8333 25.8333,86.1667 28.5,86.5C 28.5,86.8333 28.5,87.1667 28.5,87.5C 27.0413,87.5674 25.7079,87.2341 24.5,86.5C 24.5,86.1667 24.5,85.8333 24.5,85.5C 25.8333,85.1667 25.8333,84.8333 24.5,84.5C 24.5,84.1667 24.5,83.8333 24.5,83.5C 28.7614,81.7376 33.4281,80.5709 38.5,80C 39.056,79.6174 39.3893,79.1174 39.5,78.5C 40.791,78.7373 41.791,78.404 42.5,77.5 Z"/></g>
<g><path style="opacity:0.016" fill="#7e3f00" d="M 57.5,77.5 C 57.8333,77.5 58.1667,77.5 58.5,77.5C 58.3147,78.1701 57.9813,78.1701 57.5,77.5 Z"/></g>
<g><path style="opacity:1" fill="#b57708" d="M 36.5,70.5 C 36.9382,70.4346 37.2716,70.6012 37.5,71C 36.1667,72.3333 34.8333,73.6667 33.5,75C 41.1061,73.7801 41.4394,75.1134 34.5,79C 36.1075,78.9813 37.7741,78.8146 39.5,78.5C 39.3893,79.1174 39.056,79.6174 38.5,80C 33.4281,80.5709 28.7614,81.7376 24.5,83.5C 23.1667,83.8333 23.1667,84.1667 24.5,84.5C 24.5,84.8333 24.5,85.1667 24.5,85.5C 24.5,85.8333 24.5,86.1667 24.5,86.5C 23.3734,85.8783 22.3734,85.045 21.5,84C 22.5981,83.2303 22.5981,82.397 21.5,81.5C 20.7822,79.8632 20.6155,78.1966 21,76.5C 23.0639,77.5914 25.2305,77.7581 27.5,77C 26.5,76.6667 25.5,76.3333 24.5,76C 25.7604,74.887 26.927,74.7203 28,75.5C 29.4916,74.0797 30.9916,72.7464 32.5,71.5C 33.8333,71.1667 35.1667,70.8333 36.5,70.5 Z"/></g>
<g><path style="opacity:0.012" fill="#b58afe" d="M 43.5,86.5 C 43.5,86.1667 43.5,85.8333 43.5,85.5C 44.1667,85.5 44.8333,85.5 45.5,85.5C 45.1583,86.3382 44.4916,86.6716 43.5,86.5 Z"/></g>
<g><path style="opacity:0.012" fill="#9950fe" d="M 39.5,87.5 C 39.5,87.1667 39.5,86.8333 39.5,86.5C 40.8333,86.5 42.1667,86.5 43.5,86.5C 42.4324,87.4345 41.099,87.7678 39.5,87.5 Z"/></g>
<g><path style="opacity:0.02" fill="#a46400" d="M 28.5,87.5 C 32.1667,87.5 35.8333,87.5 39.5,87.5C 35.8333,88.8333 32.1667,88.8333 28.5,87.5 Z"/></g>
</svg>
