<?xml version="1.0" encoding="UTF-8"?>
<!DOCTYPE svg PUBLIC "-//W3C//DTD SVG 1.1//EN" "http://www.w3.org/Graphics/SVG/1.1/DTD/svg11.dtd">
<svg xmlns="http://www.w3.org/2000/svg" version="1.1" width="94px" height="94px" style="shape-rendering:geometricPrecision; text-rendering:geometricPrecision; image-rendering:optimizeQuality; fill-rule:evenodd; clip-rule:evenodd" xmlns:xlink="http://www.w3.org/1999/xlink">
<g><path style="opacity:0.384" fill="#9dd2fa" d="M 59.5,9.5 C 51.2443,5.51126 42.911,5.51126 34.5,9.5C 34.5106,7.98261 35.1772,6.81595 36.5,6C 35.3659,4.98398 35.6992,4.31732 37.5,4C 43.8333,3.33333 50.1667,3.33333 56.5,4C 56.5378,5.9935 57.5378,7.82683 59.5,9.5 Z"/></g>
<g><path style="opacity:0.012" fill="#825dda" d="M 33.5,10.5 C 33.1667,10.5 32.8333,10.5 32.5,10.5C 32.1667,10.5 31.8333,10.5 31.5,10.5C 32.6953,6.71392 33.362,6.71392 33.5,10.5 Z"/></g>
<g><path style="opacity:0.02" fill="#3c59ca" d="M 59.5,15.5 C 59.5,14.8333 59.5,14.1667 59.5,13.5C 60.3019,12.0484 60.8019,10.3817 61,8.5C 61.1667,9.5 61.3333,10.5 61.5,11.5C 61.6598,13.3545 60.9931,14.6879 59.5,15.5 Z"/></g>
<g><path style="opacity:1" fill="#3578d2" d="M 59.5,9.5 C 59.5,10.8333 59.5,12.1667 59.5,13.5C 58.1667,14.1667 58.1667,14.8333 59.5,15.5C 59.7373,16.791 59.404,17.791 58.5,18.5C 58.6716,17.5084 58.3382,16.8417 57.5,16.5C 57.1667,15.1667 56.8333,15.1667 56.5,16.5C 49.8333,16.5 43.1667,16.5 36.5,16.5C 35.6618,16.8417 35.3284,17.5084 35.5,18.5C 34.2089,17.4583 34.2089,16.2917 35.5,15C 34.6383,12.2656 33.805,12.0989 33,14.5C 32.2086,13.255 31.7086,11.9217 31.5,10.5C 31.8333,10.5 32.1667,10.5 32.5,10.5C 32.8333,11.8333 33.1667,11.8333 33.5,10.5C 34.1667,10.5 34.5,10.1667 34.5,9.5C 42.911,5.51126 51.2443,5.51126 59.5,9.5 Z"/></g>
<g><path style="opacity:0.318" fill="#d1e3e9" d="M 56.5,16.5 C 56.8333,16.5 57.1667,16.5 57.5,16.5C 57.3284,17.4916 57.6618,18.1583 58.5,18.5C 60.5,23.1667 62.5,27.8333 64.5,32.5C 64.7947,34.7354 64.4614,36.7354 63.5,38.5C 62.1734,35.5293 60.8401,32.5293 59.5,29.5C 52.5316,28.503 45.5316,28.1697 38.5,28.5C 38.2837,26.3193 39.117,24.6526 41,23.5C 41.4955,21.5273 41.6621,19.5273 41.5,17.5C 46.6946,17.8205 51.6946,17.4872 56.5,16.5 Z"/></g>
<g><path style="opacity:0.009" fill="#fefffe" d="M 33.5,22.5 C 32.8333,22.5 32.5,22.8333 32.5,23.5C 32.1667,23.5 31.8333,23.5 31.5,23.5C 32.032,20.5404 32.6987,20.2071 33.5,22.5 Z"/></g>
<g><path style="opacity:1" fill="#e6e9f0" d="M 38.5,28.5 C 45.5316,28.1697 52.5316,28.503 59.5,29.5C 60.8401,32.5293 62.1734,35.5293 63.5,38.5C 63.5,39.1667 63.5,39.8333 63.5,40.5C 63.6666,54.1707 63.4999,67.8374 63,81.5C 62.8311,67.3273 62.3311,53.3273 61.5,39.5C 58.324,37.7271 56.6573,38.7271 56.5,42.5C 53.9455,41.612 51.2788,41.2786 48.5,41.5C 43.2697,40.3462 37.9364,39.6795 32.5,39.5C 36.9557,37.333 38.9557,33.6663 38.5,28.5 Z"/></g>
<g><path style="opacity:0.988" fill="#edf2f5" d="M 36.5,16.5 C 43.1667,16.5 49.8333,16.5 56.5,16.5C 51.6946,17.4872 46.6946,17.8205 41.5,17.5C 41.6621,19.5273 41.4955,21.5273 41,23.5C 39.117,24.6526 38.2837,26.3193 38.5,28.5C 38.9557,33.6663 36.9557,37.333 32.5,39.5C 31.8333,39.5 31.1667,39.5 30.5,39.5C 31.0283,38.1526 31.195,36.8193 31,35.5C 30.0922,37.4386 28.5922,38.4386 26.5,38.5C 25.2216,36.4558 25.3883,34.4558 27,32.5C 27.6667,35.1667 28.3333,35.1667 29,32.5C 29.5946,31.1011 29.4279,29.7678 28.5,28.5C 29.6963,26.8554 30.6963,25.1887 31.5,23.5C 31.8333,26.1667 32.1667,26.1667 32.5,23.5C 33.1667,23.5 33.5,23.1667 33.5,22.5C 34.6737,21.4863 35.3404,20.153 35.5,18.5C 36.3382,18.1583 36.6716,17.4916 36.5,16.5 Z"/></g>
<g><path style="opacity:0.482" fill="#baced2" d="M 64.5,32.5 C 65.6005,34.2774 66.4338,36.2774 67,38.5C 67.4999,53.1629 67.6666,67.8295 67.5,82.5C 66.1667,83.1667 66.1667,83.8333 67.5,84.5C 67.6716,85.4916 67.3382,86.1583 66.5,86.5C 66.1667,85.1667 65.8333,85.1667 65.5,86.5C 64.1667,86.8333 64.1667,87.1667 65.5,87.5C 65.189,88.4778 64.5223,89.1445 63.5,89.5C 52.7054,88.1799 42.0388,88.1799 31.5,89.5C 29.2547,89.4588 28.5881,88.6255 29.5,87C 28.3636,85.8549 27.3636,84.6883 26.5,83.5C 26.5,68.5 26.5,53.5 26.5,38.5C 28.5922,38.4386 30.0922,37.4386 31,35.5C 31.195,36.8193 31.0283,38.1526 30.5,39.5C 30.5,39.8333 30.5,40.1667 30.5,40.5C 29.8337,47.1583 29.5004,53.9916 29.5,61C 29.3659,68.5998 29.8659,76.0998 31,83.5C 31.5,84 32,84.5 32.5,85C 41.8274,85.4998 51.1607,85.6665 60.5,85.5C 61.7942,84.7101 62.9609,83.7101 64,82.5C 64.8273,68.3272 64.6607,54.3272 63.5,40.5C 63.5,39.8333 63.5,39.1667 63.5,38.5C 64.4614,36.7354 64.7947,34.7354 64.5,32.5 Z"/></g>
<g><path style="opacity:0.998" fill="#d7d7d7" d="M 30.5,40.5 C 30.3334,53.5043 30.5001,66.5043 31,79.5C 31.4999,67.1712 31.6665,54.8378 31.5,42.5C 34.1873,42.3359 36.854,42.5026 39.5,43C 36.8578,43.5626 36.1912,45.0626 37.5,47.5C 35.2002,52.6189 33.5336,57.9522 32.5,63.5C 32.2485,68.7142 32.5818,74.0475 33.5,79.5C 35.678,80.6566 37.678,81.9899 39.5,83.5C 46.6553,84.1667 53.6553,84.8334 60.5,85.5C 51.1607,85.6665 41.8274,85.4998 32.5,85C 32,84.5 31.5,84 31,83.5C 29.8659,76.0998 29.3659,68.5998 29.5,61C 29.5004,53.9916 29.8337,47.1583 30.5,40.5 Z"/></g>
<g><path style="opacity:1" fill="#e2e2e5" d="M 30.5,39.5 C 31.1667,39.5 31.8333,39.5 32.5,39.5C 37.9364,39.6795 43.2697,40.3462 48.5,41.5C 46.7136,49.5842 43.8803,57.2508 40,64.5C 39.5338,69.1086 38.7004,73.6086 37.5,78C 39.8144,79.2673 42.1478,80.434 44.5,81.5C 45.3382,81.8417 45.6716,82.5084 45.5,83.5C 41.6189,82.2261 37.9522,80.3928 34.5,78C 34.6075,73.7314 34.6075,69.398 34.5,65C 36.9426,58.1428 40.1092,51.6428 44,45.5C 44.49,44.2068 44.6567,42.8734 44.5,41.5C 39.9677,41.1818 35.6344,41.5151 31.5,42.5C 31.6665,54.8378 31.4999,67.1712 31,79.5C 30.5001,66.5043 30.3334,53.5043 30.5,40.5C 30.5,40.1667 30.5,39.8333 30.5,39.5 Z"/></g>
<g><path style="opacity:1" fill="#dedfe2" d="M 61.5,39.5 C 62.3311,53.3273 62.8311,67.3273 63,81.5C 63.4999,67.8374 63.6666,54.1707 63.5,40.5C 64.6607,54.3272 64.8273,68.3272 64,82.5C 62.9609,83.7101 61.7942,84.7101 60.5,85.5C 53.6553,84.8334 46.6553,84.1667 39.5,83.5C 37.678,81.9899 35.678,80.6566 33.5,79.5C 32.5818,74.0475 32.2485,68.7142 32.5,63.5C 33.5336,57.9522 35.2002,52.6189 37.5,47.5C 36.1912,45.0626 36.8578,43.5626 39.5,43C 36.854,42.5026 34.1873,42.3359 31.5,42.5C 35.6344,41.5151 39.9677,41.1818 44.5,41.5C 44.6567,42.8734 44.49,44.2068 44,45.5C 40.1092,51.6428 36.9426,58.1428 34.5,65C 34.6075,69.398 34.6075,73.7314 34.5,78C 37.9522,80.3928 41.6189,82.2261 45.5,83.5C 50.6946,83.8205 55.6946,83.4872 60.5,82.5C 61.4822,68.2452 61.8156,53.9118 61.5,39.5 Z"/></g>
<g><path style="opacity:1" fill="#e5e6ea" d="M 48.5,41.5 C 51.2788,41.2786 53.9455,41.612 56.5,42.5C 56.5,51.1667 56.5,59.8333 56.5,68.5C 55.6762,64.6877 55.1762,60.6877 55,56.5C 53.7308,57.9047 53.2308,59.5714 53.5,61.5C 51.0968,61.393 49.2635,62.393 48,64.5C 47.6827,62.6992 47.016,62.3659 46,63.5C 45.8534,66.5706 45.0201,69.4039 43.5,72C 43.848,74.0545 43.1814,76.0545 41.5,78C 43.4257,78.4224 44.4257,79.5891 44.5,81.5C 42.1478,80.434 39.8144,79.2673 37.5,78C 38.7004,73.6086 39.5338,69.1086 40,64.5C 43.8803,57.2508 46.7136,49.5842 48.5,41.5 Z"/></g>
<g><path style="opacity:0.016" fill="#87b6b5" d="M 68.5,82.5 C 68.3334,67.8295 68.5001,53.1629 69,38.5C 69.8276,53.3391 69.6609,68.0058 68.5,82.5 Z"/></g>
<g><path style="opacity:0.012" fill="#a6aeae" d="M 25.5,83.5 C 24.3389,68.6723 24.1723,53.6723 25,38.5C 25.4999,53.4963 25.6666,68.4963 25.5,83.5 Z"/></g>
<g><path style="opacity:1" fill="#e9eaed" d="M 56.5,68.5 C 56.5,73.1667 56.5,77.8333 56.5,82.5C 57.8333,82.5 59.1667,82.5 60.5,82.5C 55.6946,83.4872 50.6946,83.8205 45.5,83.5C 45.6716,82.5084 45.3382,81.8417 44.5,81.5C 44.4257,79.5891 43.4257,78.4224 41.5,78C 43.1814,76.0545 43.848,74.0545 43.5,72C 45.0201,69.4039 45.8534,66.5706 46,63.5C 47.016,62.3659 47.6827,62.6992 48,64.5C 49.2635,62.393 51.0968,61.393 53.5,61.5C 53.2308,59.5714 53.7308,57.9047 55,56.5C 55.1762,60.6877 55.6762,64.6877 56.5,68.5 Z"/></g>
<g><path style="opacity:1" fill="#eeeff2" d="M 61.5,39.5 C 61.8156,53.9118 61.4822,68.2452 60.5,82.5C 59.1667,82.5 57.8333,82.5 56.5,82.5C 56.5,77.8333 56.5,73.1667 56.5,68.5C 56.5,59.8333 56.5,51.1667 56.5,42.5C 56.6573,38.7271 58.324,37.7271 61.5,39.5 Z"/></g>
<g><path style="opacity:0.008" fill="#e5fffe" d="M 67.5,82.5 C 67.8333,82.5 68.1667,82.5 68.5,82.5C 68.6716,83.4916 68.3382,84.1583 67.5,84.5C 67.5,83.8333 67.5,83.1667 67.5,82.5 Z"/></g>
<g><path style="opacity:0.008" fill="#a7a7a7" d="M 25.5,83.5 C 25.8333,83.5 26.1667,83.5 26.5,83.5C 26.1667,86.1667 25.8333,86.1667 25.5,83.5 Z"/></g>
<g><path style="opacity:0.004" fill="#fe0000" d="M 65.5,86.5 C 65.8333,86.5 66.1667,86.5 66.5,86.5C 66.3147,87.1701 65.9813,87.1701 65.5,86.5 Z"/></g>
<g><path style="opacity:0.008" fill="#cbd3d8" d="M 31.5,89.5 C 41.5056,89.3335 51.5056,89.5002 61.5,90C 51.3247,90.8249 41.3247,90.6583 31.5,89.5 Z"/></g>
</svg>
