<?xml version="1.0" encoding="UTF-8"?>
<!DOCTYPE svg PUBLIC "-//W3C//DTD SVG 1.1//EN" "http://www.w3.org/Graphics/SVG/1.1/DTD/svg11.dtd">
<svg xmlns="http://www.w3.org/2000/svg" version="1.1" width="100px" height="100px" style="shape-rendering:geometricPrecision; text-rendering:geometricPrecision; image-rendering:optimizeQuality; fill-rule:evenodd; clip-rule:evenodd" xmlns:xlink="http://www.w3.org/1999/xlink">
<g><path style="opacity:0.565" fill="#dfcdd1" d="M 73.5,13.5 C 73.5,13.8333 73.5,14.1667 73.5,14.5C 72.8333,14.5 72.1667,14.5 71.5,14.5C 68.5394,13.6766 65.5394,13.01 62.5,12.5C 62.5,11.8333 62.1667,11.5 61.5,11.5C 56.7866,9.83036 52.1199,9.16369 47.5,9.5C 50.6414,8.67871 53.9748,8.17871 57.5,8C 54.1667,7.66667 50.8333,7.33333 47.5,7C 52.8913,6.30813 58.2247,6.64147 63.5,8C 61.8333,8.33333 60.1667,8.66667 58.5,9C 61.9742,9.30066 65.3075,10.134 68.5,11.5C 69.1667,11.1667 69.8333,10.8333 70.5,10.5C 71.6956,10.8457 71.6956,11.3457 70.5,12C 71.2438,13.0386 72.2438,13.5386 73.5,13.5 Z"/></g>
<g><path style="opacity:0.506" fill="#fadddb" d="M 47.5,9.5 C 52.1199,9.16369 56.7866,9.83036 61.5,11.5C 51.4474,10.5323 41.7807,11.8656 32.5,15.5C 31.5,15.5 30.5,15.5 29.5,15.5C 29.5,14.8333 29.1667,14.5 28.5,14.5C 33.9614,9.60711 40.2947,7.94044 47.5,9.5 Z"/></g>
<g><path style="opacity:0.988" fill="#f3c0b0" d="M 61.5,11.5 C 62.1667,11.5 62.5,11.8333 62.5,12.5C 57.4889,12.3341 52.4889,12.5007 47.5,13C 45.2774,13.5662 43.2774,14.3995 41.5,15.5C 39.7085,15.366 38.0418,15.6993 36.5,16.5C 33.1847,16.9717 30.8514,18.805 29.5,22C 27.9751,23.0086 26.3084,23.5086 24.5,23.5C 27.5,21.1667 30.1667,18.5 32.5,15.5C 41.7807,11.8656 51.4474,10.5323 61.5,11.5 Z"/></g>
<g><path style="opacity:1" fill="#d4643f" d="M 59.5,13.5 C 59.5,13.8333 59.5,14.1667 59.5,14.5C 58.8333,14.5 58.1667,14.5 57.5,14.5C 50.5043,13.2908 48.5043,15.6241 51.5,21.5C 48.3886,25.3188 44.3886,27.6521 39.5,28.5C 33.0591,28.3277 26.7258,28.9944 20.5,30.5C 20.6107,29.8826 20.944,29.3826 21.5,29C 27.9773,28.3561 34.3106,27.1895 40.5,25.5C 42.1792,23.1575 43.8459,20.8242 45.5,18.5C 45.1373,17.8165 44.8039,17.1499 44.5,16.5C 45.6002,15.4415 46.9336,14.6082 48.5,14C 52.1516,13.5014 55.8183,13.3347 59.5,13.5 Z"/></g>
<g><path style="opacity:1" fill="#f0b79b" d="M 36.5,16.5 C 33.5439,21.9222 28.8772,24.7555 22.5,25C 21.6195,25.7083 20.9528,26.5416 20.5,27.5C 19.3995,28.6049 18.7329,29.9382 18.5,31.5C 17.5,32.1667 16.5,32.8333 15.5,33.5C 16.7226,30.7261 18.2226,28.0594 20,25.5C 21.1096,23.9632 22.6096,23.2965 24.5,23.5C 26.3084,23.5086 27.9751,23.0086 29.5,22C 30.8514,18.805 33.1847,16.9717 36.5,16.5 Z"/></g>
<g><path style="opacity:1" fill="#cc5330" d="M 57.5,14.5 C 56.9078,18.0889 54.9078,20.4222 51.5,21.5C 48.5043,15.6241 50.5043,13.2908 57.5,14.5 Z"/></g>
<g><path style="opacity:0.996" fill="#f9d7cc" d="M 28.5,14.5 C 29.1667,14.5 29.5,14.8333 29.5,15.5C 30.5,15.5 31.5,15.5 32.5,15.5C 30.1667,18.5 27.5,21.1667 24.5,23.5C 22.6096,23.2965 21.1096,23.9632 20,25.5C 18.2226,28.0594 16.7226,30.7261 15.5,33.5C 15.1667,33.5 14.8333,33.5 14.5,33.5C 14.7976,30.7354 15.7976,28.2354 17.5,26C 16.5494,25.2825 16.3828,24.4491 17,23.5C 17.6667,22.1667 18.3333,22.1667 19,23.5C 21.9438,21.3109 23.7772,18.8109 24.5,16C 25.745,15.2086 27.0783,14.7086 28.5,14.5 Z"/></g>
<g><path style="opacity:1" fill="#a14031" d="M 62.5,15.5 C 64.256,16.5521 64.9227,18.2188 64.5,20.5C 61.0764,23.6978 59.0764,27.3645 58.5,31.5C 56.1944,31.9926 53.861,32.3259 51.5,32.5C 50.713,30.8958 49.3797,30.2291 47.5,30.5C 47.5,30.1667 47.5,29.8333 47.5,29.5C 48.8734,29.6567 50.2068,29.49 51.5,29C 53.8089,26.5134 56.4756,24.5134 59.5,23C 60.6422,20.5501 61.6422,18.0501 62.5,15.5 Z"/></g>
<g><path style="opacity:1" fill="#e58b68" d="M 62.5,12.5 C 62.5,12.8333 62.5,13.1667 62.5,13.5C 61.5,13.5 60.5,13.5 59.5,13.5C 55.8183,13.3347 52.1516,13.5014 48.5,14C 46.9336,14.6082 45.6002,15.4415 44.5,16.5C 43.1601,19.1582 41.3267,21.4915 39,23.5C 34.1324,25.9862 28.9657,26.9862 23.5,26.5C 30.9568,25.4288 36.9568,21.7622 41.5,15.5C 43.2774,14.3995 45.2774,13.5662 47.5,13C 52.4889,12.5007 57.4889,12.3341 62.5,12.5 Z"/></g>
<g><path style="opacity:1" fill="#eea683" d="M 41.5,15.5 C 36.9568,21.7622 30.9568,25.4288 23.5,26.5C 22.609,27.1098 21.609,27.4431 20.5,27.5C 20.9528,26.5416 21.6195,25.7083 22.5,25C 28.8772,24.7555 33.5439,21.9222 36.5,16.5C 38.0418,15.6993 39.7085,15.366 41.5,15.5 Z"/></g>
<g><path style="opacity:1" fill="#a04b44" d="M 59.5,14.5 C 59.5,14.1667 59.5,13.8333 59.5,13.5C 60.5,13.5 61.5,13.5 62.5,13.5C 64.8654,14.0084 67.1987,14.6751 69.5,15.5C 70.7051,16.5769 71.3718,17.9102 71.5,19.5C 70.0755,17.9689 69.4088,18.3023 69.5,20.5C 68.596,21.209 68.2627,22.209 68.5,23.5C 67.8333,23.1667 67.1667,22.8333 66.5,22.5C 66.5,21.1667 65.8333,20.5 64.5,20.5C 64.9227,18.2188 64.256,16.5521 62.5,15.5C 61.609,14.8902 60.609,14.5569 59.5,14.5 Z"/></g>
<g><path style="opacity:1" fill="#953a2e" d="M 64.5,20.5 C 65.8333,20.5 66.5,21.1667 66.5,22.5C 65.9993,25.1553 64.6659,27.322 62.5,29C 63.056,29.3826 63.3893,29.8826 63.5,30.5C 62.1667,30.8333 60.8333,31.1667 59.5,31.5C 59.1667,31.5 58.8333,31.5 58.5,31.5C 59.0764,27.3645 61.0764,23.6978 64.5,20.5 Z"/></g>
<g><path style="opacity:0.204" fill="#bbaab0" d="M 73.5,13.5 C 73.8966,12.475 74.5632,12.3083 75.5,13C 76.6667,16.8333 79.1667,19.3333 83,20.5C 84.9927,22.8175 86.1594,25.4842 86.5,28.5C 86.1667,28.5 85.8333,28.5 85.5,28.5C 85.1667,25.8333 84.8333,25.8333 84.5,28.5C 80.9235,23.2522 76.5902,18.5855 71.5,14.5C 72.1667,14.5 72.8333,14.5 73.5,14.5C 74.8333,14.1667 74.8333,13.8333 73.5,13.5 Z"/></g>
<g><path style="opacity:1" fill="#db744c" d="M 44.5,16.5 C 44.8039,17.1499 45.1373,17.8165 45.5,18.5C 43.8459,20.8242 42.1792,23.1575 40.5,25.5C 34.3106,27.1895 27.9773,28.3561 21.5,29C 20.944,29.3826 20.6107,29.8826 20.5,30.5C 19.8333,30.8333 19.1667,31.1667 18.5,31.5C 18.7329,29.9382 19.3995,28.6049 20.5,27.5C 21.609,27.4431 22.609,27.1098 23.5,26.5C 28.9657,26.9862 34.1324,25.9862 39,23.5C 41.3267,21.4915 43.1601,19.1582 44.5,16.5 Z"/></g>
<g><path style="opacity:1" fill="#88372d" d="M 66.5,22.5 C 67.1667,22.8333 67.8333,23.1667 68.5,23.5C 68.2962,26.5176 67.9629,29.5176 67.5,32.5C 66.609,33.1098 65.609,33.4431 64.5,33.5C 64.0825,32.7784 63.4158,32.2784 62.5,32C 63.056,31.6174 63.3893,31.1174 63.5,30.5C 63.3893,29.8826 63.056,29.3826 62.5,29C 64.6659,27.322 65.9993,25.1553 66.5,22.5 Z"/></g>
<g><path style="opacity:1" fill="#803c37" d="M 71.5,19.5 C 72.1271,23.7431 73.7937,27.4098 76.5,30.5C 76.5,30.8333 76.5,31.1667 76.5,31.5C 75.7777,32.5511 74.7777,33.2178 73.5,33.5C 73.1667,33.5 72.8333,33.5 72.5,33.5C 72.4142,32.5041 72.7476,31.6708 73.5,31C 72.552,30.5172 71.552,30.3505 70.5,30.5C 70.5111,28.4534 70.8444,26.4534 71.5,24.5C 71.2483,22.9271 70.5817,21.5938 69.5,20.5C 69.4088,18.3023 70.0755,17.9689 71.5,19.5 Z"/></g>
<g><path style="opacity:1" fill="#94656a" d="M 62.5,13.5 C 62.5,13.1667 62.5,12.8333 62.5,12.5C 65.5394,13.01 68.5394,13.6766 71.5,14.5C 76.5902,18.5855 80.9235,23.2522 84.5,28.5C 84.8333,28.5 85.1667,28.5 85.5,28.5C 85.5,29.5 85.5,30.5 85.5,31.5C 85.1667,31.5 84.8333,31.5 84.5,31.5C 82.7106,29.9928 80.7106,28.6595 78.5,27.5C 77.081,25.6641 75.9143,23.6641 75,21.5C 74.1841,20.1772 73.0174,19.5106 71.5,19.5C 71.3718,17.9102 70.7051,16.5769 69.5,15.5C 67.1987,14.6751 64.8654,14.0084 62.5,13.5 Z"/></g>
<g><path style="opacity:1" fill="#c15238" d="M 57.5,14.5 C 58.1667,14.5 58.8333,14.5 59.5,14.5C 58.8051,18.5473 56.8051,21.8806 53.5,24.5C 52.914,24.2907 52.414,23.9574 52,23.5C 49.2893,25.049 47.1226,27.049 45.5,29.5C 43.8333,29.5 42.1667,29.5 40.5,29.5C 40.1667,29.5 39.8333,29.5 39.5,29.5C 39.5,29.1667 39.5,28.8333 39.5,28.5C 44.3886,27.6521 48.3886,25.3188 51.5,21.5C 54.9078,20.4222 56.9078,18.0889 57.5,14.5 Z"/></g>
<g><path style="opacity:1" fill="#b44c37" d="M 59.5,14.5 C 60.609,14.5569 61.609,14.8902 62.5,15.5C 61.6422,18.0501 60.6422,20.5501 59.5,23C 56.4756,24.5134 53.8089,26.5134 51.5,29C 50.2068,29.49 48.8734,29.6567 47.5,29.5C 46.8333,29.5 46.1667,29.5 45.5,29.5C 47.1226,27.049 49.2893,25.049 52,23.5C 52.414,23.9574 52.914,24.2907 53.5,24.5C 56.8051,21.8806 58.8051,18.5473 59.5,14.5 Z"/></g>
<g><path style="opacity:1" fill="#813831" d="M 69.5,20.5 C 70.5817,21.5938 71.2483,22.9271 71.5,24.5C 70.8444,26.4534 70.5111,28.4534 70.5,30.5C 71.552,30.3505 72.552,30.5172 73.5,31C 72.7476,31.6708 72.4142,32.5041 72.5,33.5C 71.609,34.1098 70.609,34.4431 69.5,34.5C 69.5,33.1667 68.8333,32.5 67.5,32.5C 67.9629,29.5176 68.2962,26.5176 68.5,23.5C 68.2627,22.209 68.596,21.209 69.5,20.5 Z"/></g>
<g><path style="opacity:1" fill="#804846" d="M 71.5,19.5 C 73.0174,19.5106 74.1841,20.1772 75,21.5C 75.9143,23.6641 77.081,25.6641 78.5,27.5C 80.7106,28.6595 82.7106,29.9928 84.5,31.5C 81.8333,31.1667 79.1667,30.8333 76.5,30.5C 73.7937,27.4098 72.1271,23.7431 71.5,19.5 Z"/></g>
<g><path style="opacity:0.008" fill="#e4837b" d="M 86.5,28.5 C 87.5735,29.2506 87.7401,30.2506 87,31.5C 86.5172,30.552 86.3505,29.552 86.5,28.5 Z"/></g>
<g><path style="opacity:1" fill="#c34d28" d="M 39.5,28.5 C 39.5,28.8333 39.5,29.1667 39.5,29.5C 33.2284,30.879 26.8951,32.0456 20.5,33C 19.244,33.4169 18.5774,34.2502 18.5,35.5C 17.5,35.5 16.5,35.5 15.5,35.5C 15.5,34.8333 15.5,34.1667 15.5,33.5C 16.5,32.8333 17.5,32.1667 18.5,31.5C 19.1667,31.1667 19.8333,30.8333 20.5,30.5C 26.7258,28.9944 33.0591,28.3277 39.5,28.5 Z"/></g>
<g><path style="opacity:1" fill="#b53e1f" d="M 39.5,29.5 C 39.8333,29.5 40.1667,29.5 40.5,29.5C 41.7065,30.8804 41.3731,32.0471 39.5,33C 32.5544,34.3495 25.5544,35.1829 18.5,35.5C 18.5774,34.2502 19.244,33.4169 20.5,33C 26.8951,32.0456 33.2284,30.879 39.5,29.5 Z"/></g>
<g><path style="opacity:1" fill="#a8381d" d="M 40.5,29.5 C 42.1667,29.5 43.8333,29.5 45.5,29.5C 46.1667,29.5 46.8333,29.5 47.5,29.5C 47.5,29.8333 47.5,30.1667 47.5,30.5C 38.3539,35.3995 28.3539,37.7329 17.5,37.5C 16.1667,37.5 15.5,36.8333 15.5,35.5C 16.5,35.5 17.5,35.5 18.5,35.5C 25.5544,35.1829 32.5544,34.3495 39.5,33C 41.3731,32.0471 41.7065,30.8804 40.5,29.5 Z"/></g>
<g><path style="opacity:1" fill="#812a18" d="M 63.5,30.5 C 63.3893,31.1174 63.056,31.6174 62.5,32C 63.4158,32.2784 64.0825,32.7784 64.5,33.5C 64.1667,34.5 63.5,35.1667 62.5,35.5C 53.2012,39.0768 43.5345,40.4101 33.5,39.5C 34.9187,38.5489 36.5853,38.2155 38.5,38.5C 41.5453,38.2964 44.3787,38.2964 47,38.5C 50.6504,36.863 54.3171,35.1964 58,33.5C 59.0299,33.1639 59.5299,32.4972 59.5,31.5C 60.8333,31.1667 62.1667,30.8333 63.5,30.5 Z"/></g>
<g><path style="opacity:1" fill="#5a2216" d="M 76.5,31.5 C 77.8333,31.5 78.5,32.1667 78.5,33.5C 78.0825,34.2216 77.4158,34.7216 76.5,35C 77.1667,35.3333 77.8333,35.6667 78.5,36C 77.9491,37.3985 77.6158,38.7318 77.5,40C 78.0465,40.9246 78.7132,41.7579 79.5,42.5C 80.1411,41.0065 81.1411,40.0065 82.5,39.5C 82.2097,42.1273 80.8764,43.7939 78.5,44.5C 75.4552,44.4921 72.4552,44.1587 69.5,43.5C 71.2774,42.3995 73.2774,41.5662 75.5,41C 74.6919,40.6924 74.0253,40.1924 73.5,39.5C 73.846,37.3382 73.846,35.3382 73.5,33.5C 74.7777,33.2178 75.7777,32.5511 76.5,31.5 Z"/></g>
<g><path style="opacity:1" fill="#572318" d="M 78.5,33.5 C 83.1679,32.8394 85.1679,34.8394 84.5,39.5C 83.6043,38.4937 82.9377,38.4937 82.5,39.5C 81.1411,40.0065 80.1411,41.0065 79.5,42.5C 78.7132,41.7579 78.0465,40.9246 77.5,40C 77.6158,38.7318 77.9491,37.3985 78.5,36C 77.8333,35.6667 77.1667,35.3333 76.5,35C 77.4158,34.7216 78.0825,34.2216 78.5,33.5 Z"/></g>
<g><path style="opacity:0.016" fill="#483d13" d="M 87.5,43.5 C 87.3347,39.8183 87.5014,36.1516 88,32.5C 88.8099,36.3575 88.6433,40.0242 87.5,43.5 Z"/></g>
<g><path style="opacity:1" fill="#9c321b" d="M 47.5,30.5 C 49.3797,30.2291 50.713,30.8958 51.5,32.5C 51.1583,33.3382 50.4916,33.6716 49.5,33.5C 43.3146,35.4625 36.9813,36.9625 30.5,38C 25.9796,38.8136 21.6463,38.647 17.5,37.5C 28.3539,37.7329 38.3539,35.3995 47.5,30.5 Z"/></g>
<g><path style="opacity:1" fill="#912f1a" d="M 49.5,33.5 C 45.9422,35.4463 42.2755,37.1129 38.5,38.5C 36.5853,38.2155 34.9187,38.5489 33.5,39.5C 27.5102,40.2419 21.5102,40.4085 15.5,40C 14.1991,38.3845 14.1991,36.8845 15.5,35.5C 15.5,36.8333 16.1667,37.5 17.5,37.5C 21.6463,38.647 25.9796,38.8136 30.5,38C 36.9813,36.9625 43.3146,35.4625 49.5,33.5 Z"/></g>
<g><path style="opacity:1" fill="#892d1a" d="M 58.5,31.5 C 58.8333,31.5 59.1667,31.5 59.5,31.5C 59.5299,32.4972 59.0299,33.1639 58,33.5C 54.3171,35.1964 50.6504,36.863 47,38.5C 44.3787,38.2964 41.5453,38.2964 38.5,38.5C 42.2755,37.1129 45.9422,35.4463 49.5,33.5C 50.4916,33.6716 51.1583,33.3382 51.5,32.5C 53.861,32.3259 56.1944,31.9926 58.5,31.5 Z"/></g>
<g><path style="opacity:1" fill="#612215" d="M 72.5,33.5 C 72.8333,33.5 73.1667,33.5 73.5,33.5C 73.846,35.3382 73.846,37.3382 73.5,39.5C 74.0253,40.1924 74.6919,40.6924 75.5,41C 73.2774,41.5662 71.2774,42.3995 69.5,43.5C 65.4659,43.4955 61.4659,43.1621 57.5,42.5C 60.977,41.6773 64.6437,41.1773 68.5,41C 68.1667,40.6667 67.8333,40.3333 67.5,40C 69.7184,38.5063 70.385,36.673 69.5,34.5C 70.609,34.4431 71.609,34.1098 72.5,33.5 Z"/></g>
<g><path style="opacity:0.008" fill="#8d3705" d="M 12.5,42.5 C 11.3622,39.6965 11.1955,36.6965 12,33.5C 12.498,36.4816 12.6646,39.4816 12.5,42.5 Z"/></g>
<g><path style="opacity:0.997" fill="#4a261c" d="M 84.5,39.5 C 83.6766,42.4606 83.01,45.4606 82.5,48.5C 79.8333,48.8333 79.8333,49.1667 82.5,49.5C 82.5,49.8333 82.5,50.1667 82.5,50.5C 80.5,50.8333 78.5,51.1667 76.5,51.5C 76.5,51.1667 76.5,50.8333 76.5,50.5C 73.5874,49.4721 69.254,49.1388 63.5,49.5C 63.1667,49.5 62.8333,49.5 62.5,49.5C 62.1667,49.5 61.8333,49.5 61.5,49.5C 61.1667,49.5 60.8333,49.5 60.5,49.5C 66.6894,48.6954 73.0227,47.8621 79.5,47C 79.8333,46.6667 80.1667,46.3333 80.5,46C 79.5842,45.7216 78.9175,45.2216 78.5,44.5C 80.8764,43.7939 82.2097,42.1273 82.5,39.5C 82.9377,38.4937 83.6043,38.4937 84.5,39.5 Z"/></g>
<g><path style="opacity:1" fill="#823320" d="M 14.5,33.5 C 14.8333,33.5 15.1667,33.5 15.5,33.5C 15.5,34.1667 15.5,34.8333 15.5,35.5C 14.1991,36.8845 14.1991,38.3845 15.5,40C 21.5102,40.4085 27.5102,40.2419 33.5,39.5C 33.5,39.8333 33.5,40.1667 33.5,40.5C 30.2727,40.6761 27.2727,41.3428 24.5,42.5C 20.9966,42.1289 17.9966,43.1289 15.5,45.5C 14.8333,44.5 14.1667,43.5 13.5,42.5C 13.19,39.2869 13.5233,36.2869 14.5,33.5 Z"/></g>
<g><path style="opacity:1" fill="#762514" d="M 62.5,35.5 C 63.8069,36.8016 63.8069,38.135 62.5,39.5C 52.8563,40.4984 43.1896,40.8318 33.5,40.5C 33.5,40.1667 33.5,39.8333 33.5,39.5C 43.5345,40.4101 53.2012,39.0768 62.5,35.5 Z"/></g>
<g><path style="opacity:1" fill="#6a2414" d="M 67.5,32.5 C 68.8333,32.5 69.5,33.1667 69.5,34.5C 70.385,36.673 69.7184,38.5063 67.5,40C 67.8333,40.3333 68.1667,40.6667 68.5,41C 64.6437,41.1773 60.977,41.6773 57.5,42.5C 52.5,42.5 47.5,42.5 42.5,42.5C 36.5,42.5 30.5,42.5 24.5,42.5C 27.2727,41.3428 30.2727,40.6761 33.5,40.5C 43.1896,40.8318 52.8563,40.4984 62.5,39.5C 63.8069,38.135 63.8069,36.8016 62.5,35.5C 63.5,35.1667 64.1667,34.5 64.5,33.5C 65.609,33.4431 66.609,33.1098 67.5,32.5 Z"/></g>
<g><path style="opacity:0.951" fill="#663829" d="M 76.5,31.5 C 76.5,31.1667 76.5,30.8333 76.5,30.5C 79.1667,30.8333 81.8333,31.1667 84.5,31.5C 84.8333,31.5 85.1667,31.5 85.5,31.5C 86.4299,35.3998 86.7633,39.3998 86.5,43.5C 85.596,44.209 85.2627,45.209 85.5,46.5C 84.8333,46.5 84.5,46.8333 84.5,47.5C 83.1667,47.8333 83.1667,48.1667 84.5,48.5C 84.1667,49.5 83.5,50.1667 82.5,50.5C 82.5,50.1667 82.5,49.8333 82.5,49.5C 82.5,49.1667 82.5,48.8333 82.5,48.5C 83.01,45.4606 83.6766,42.4606 84.5,39.5C 85.1679,34.8394 83.1679,32.8394 78.5,33.5C 78.5,32.1667 77.8333,31.5 76.5,31.5 Z"/></g>
<g><path style="opacity:0.999" fill="#c27236" d="M 24.5,42.5 C 30.5,42.5 36.5,42.5 42.5,42.5C 42.6773,46.2343 42.3439,49.9009 41.5,53.5C 41.5,53.8333 41.5,54.1667 41.5,54.5C 41.1667,54.5 40.8333,54.5 40.5,54.5C 40.5,52.8333 40.5,51.1667 40.5,49.5C 41.0431,49.44 41.3764,49.1067 41.5,48.5C 34.4968,47.7634 27.4968,47.0967 20.5,46.5C 19.8333,46.1667 19.1667,45.8333 18.5,45.5C 20.5939,44.4824 22.5939,43.4824 24.5,42.5 Z"/></g>
<g><path style="opacity:1" fill="#d5782f" d="M 42.5,42.5 C 47.5,42.5 52.5,42.5 57.5,42.5C 58.8953,44.6926 59.8953,47.0259 60.5,49.5C 60.8333,49.5 61.1667,49.5 61.5,49.5C 61.5,50.5 61.5,51.5 61.5,52.5C 61.5,52.8333 61.5,53.1667 61.5,53.5C 57.5175,51.174 53.5175,48.8407 49.5,46.5C 48.062,46.7189 46.7287,47.2189 45.5,48C 44.5119,50.167 43.1786,52.0003 41.5,53.5C 42.3439,49.9009 42.6773,46.2343 42.5,42.5 Z"/></g>
<g><path style="opacity:0.016" fill="#8a3919" d="M 12.5,42.5 C 12.8333,42.5 13.1667,42.5 13.5,42.5C 13.1667,46.5 12.8333,46.5 12.5,42.5 Z"/></g>
<g><path style="opacity:1" fill="#b26330" d="M 57.5,42.5 C 61.4659,43.1621 65.4659,43.4955 69.5,43.5C 72.4552,44.1587 75.4552,44.4921 78.5,44.5C 78.9175,45.2216 79.5842,45.7216 80.5,46C 80.1667,46.3333 79.8333,46.6667 79.5,47C 73.0227,47.8621 66.6894,48.6954 60.5,49.5C 59.8953,47.0259 58.8953,44.6926 57.5,42.5 Z"/></g>
<g><path style="opacity:0.006" fill="#222222" d="M 86.5,43.5 C 86.8333,43.5 87.1667,43.5 87.5,43.5C 87.7373,44.791 87.404,45.791 86.5,46.5C 86.5,45.5 86.5,44.5 86.5,43.5 Z"/></g>
<g><path style="opacity:0.898" fill="#562a1a" d="M 24.5,42.5 C 22.5939,43.4824 20.5939,44.4824 18.5,45.5C 19.1667,45.8333 19.8333,46.1667 20.5,46.5C 27.4968,47.0967 34.4968,47.7634 41.5,48.5C 41.3764,49.1067 41.0431,49.44 40.5,49.5C 39.6618,49.8417 39.3284,50.5084 39.5,51.5C 39.1667,51.5 38.8333,51.5 38.5,51.5C 31.7863,51.6374 25.1196,51.1374 18.5,50C 17.3279,49.5814 16.3279,48.9147 15.5,48C 16.5981,47.2303 16.5981,46.397 15.5,45.5C 17.9966,43.1289 20.9966,42.1289 24.5,42.5 Z"/></g>
<g><path style="opacity:0.012" fill="#540000" d="M 85.5,46.5 C 85.8333,46.5 86.1667,46.5 86.5,46.5C 86.3147,47.1701 85.9813,47.1701 85.5,46.5 Z"/></g>
<g><path style="opacity:0.008" fill="#000000" d="M 84.5,47.5 C 84.8333,47.5 85.1667,47.5 85.5,47.5C 85.3147,48.1701 84.9813,48.1701 84.5,47.5 Z"/></g>
<g><path style="opacity:1" fill="#e0a158" d="M 61.5,57.5 C 59.513,56.8358 57.8463,55.6692 56.5,54C 49.5853,50.916 44.4186,52.7493 41,59.5C 40.6012,59.2716 40.4346,58.9382 40.5,58.5C 40.5,57.1667 40.5,55.8333 40.5,54.5C 40.8333,54.5 41.1667,54.5 41.5,54.5C 43.5543,54.2844 45.5543,53.1177 47.5,51C 53.6117,50.2243 58.2784,52.391 61.5,57.5 Z"/></g>
<g><path style="opacity:0.984" fill="#db8f45" d="M 61.5,53.5 C 61.8333,53.5 62.1667,53.5 62.5,53.5C 62.2627,54.791 62.596,55.791 63.5,56.5C 63.5,57.5 63.5,58.5 63.5,59.5C 62.8333,58.8333 62.1667,58.1667 61.5,57.5C 58.2784,52.391 53.6117,50.2243 47.5,51C 45.5543,53.1177 43.5543,54.2844 41.5,54.5C 41.5,54.1667 41.5,53.8333 41.5,53.5C 43.1786,52.0003 44.5119,50.167 45.5,48C 46.7287,47.2189 48.062,46.7189 49.5,46.5C 53.5175,48.8407 57.5175,51.174 61.5,53.5 Z"/></g>
<g><path style="opacity:0.012" fill="#952923" d="M 62.5,49.5 C 62.8333,49.5 63.1667,49.5 63.5,49.5C 67.6344,50.4849 71.9677,50.8182 76.5,50.5C 76.5,50.8333 76.5,51.1667 76.5,51.5C 72.1539,51.3343 67.8206,51.501 63.5,52C 64.3802,53.3561 64.7135,54.8561 64.5,56.5C 64.1667,56.5 63.8333,56.5 63.5,56.5C 63.7373,55.209 63.404,54.209 62.5,53.5C 62.1667,53.5 61.8333,53.5 61.5,53.5C 61.5,53.1667 61.5,52.8333 61.5,52.5C 62.404,51.791 62.7373,50.791 62.5,49.5 Z"/></g>
<g><path style="opacity:1" fill="#e3b16d" d="M 38.5,51.5 C 38.8333,51.5 39.1667,51.5 39.5,51.5C 39.1984,54.0593 39.5318,56.3926 40.5,58.5C 40.4346,58.9382 40.6012,59.2716 41,59.5C 44.4186,52.7493 49.5853,50.916 56.5,54C 57.8463,55.6692 59.513,56.8358 61.5,57.5C 62.1667,58.1667 62.8333,58.8333 63.5,59.5C 63.5,60.1667 63.8333,60.5 64.5,60.5C 64.5,62.1667 64.5,63.8333 64.5,65.5C 64.1667,65.5 63.8333,65.5 63.5,65.5C 61.6538,58.8581 57.1538,55.8581 50,56.5C 45.8395,57.4951 42.6728,59.8284 40.5,63.5C 40.5,64.1667 40.5,64.8333 40.5,65.5C 40.5,66.1667 40.1667,66.5 39.5,66.5C 39.6633,64.1432 39.4966,61.8098 39,59.5C 38.5026,62.146 38.3359,64.8127 38.5,67.5C 37.441,62.3246 37.441,56.9913 38.5,51.5 Z"/></g>
<g><path style="opacity:0.008" fill="#f6a865" d="M 64.5,56.5 C 65.8333,57.8333 65.8333,59.1667 64.5,60.5C 64.5,59.1667 64.5,57.8333 64.5,56.5 Z"/></g>
<g><path style="opacity:1" fill="#f0ca8c" d="M 61.5,70.5 C 58.5277,66.6963 55.0277,63.363 51,60.5C 48.5222,62.8196 45.6889,64.4863 42.5,65.5C 51.2966,56.7033 57.63,58.3699 61.5,70.5 Z"/></g>
<g><path style="opacity:1" fill="#ebbf7c" d="M 63.5,65.5 C 59.9611,62.379 55.9611,59.7123 51.5,57.5C 47.9003,57.7256 45.2336,59.3923 43.5,62.5C 42.5832,63.1272 41.5832,63.4606 40.5,63.5C 42.6728,59.8284 45.8395,57.4951 50,56.5C 57.1538,55.8581 61.6538,58.8581 63.5,65.5 Z"/></g>
<g><path style="opacity:1" fill="#f3cf92" d="M 61.5,70.5 C 63.912,74.4761 65.2453,78.8095 65.5,83.5C 64.6364,84.6883 63.6364,85.8549 62.5,87C 58.2128,88.1534 53.8795,88.9867 49.5,89.5C 53.2071,88.5966 56.5404,86.9299 59.5,84.5C 60.5,84.5 61.5,84.5 62.5,84.5C 62.0199,76.8381 58.6866,70.6714 52.5,66C 48.0142,65.8147 43.8475,66.9813 40,69.5C 39.5357,68.9056 39.369,68.2389 39.5,67.5C 39.5,67.1667 39.5,66.8333 39.5,66.5C 40.1667,66.5 40.5,66.1667 40.5,65.5C 41.3957,66.5063 42.0623,66.5063 42.5,65.5C 45.6889,64.4863 48.5222,62.8196 51,60.5C 55.0277,63.363 58.5277,66.6963 61.5,70.5 Z"/></g>
<g><path style="opacity:1" fill="#e9c282" d="M 63.5,65.5 C 63.8333,65.5 64.1667,65.5 64.5,65.5C 64.8333,65.5 65.1667,65.5 65.5,65.5C 65.5,66.5 65.5,67.5 65.5,68.5C 65.5524,72.1981 65.8857,75.8648 66.5,79.5C 66.7678,81.099 66.4345,82.4324 65.5,83.5C 65.2453,78.8095 63.912,74.4761 61.5,70.5C 57.63,58.3699 51.2966,56.7033 42.5,65.5C 42.0623,66.5063 41.3957,66.5063 40.5,65.5C 40.5,64.8333 40.5,64.1667 40.5,63.5C 41.5832,63.4606 42.5832,63.1272 43.5,62.5C 45.2336,59.3923 47.9003,57.7256 51.5,57.5C 55.9611,59.7123 59.9611,62.379 63.5,65.5 Z"/></g>
<g><path style="opacity:1" fill="#fee5b8" d="M 55.5,85.5 C 54.791,86.404 53.791,86.7373 52.5,86.5C 56.548,76.1887 52.8813,71.522 41.5,72.5C 48.1846,69.2405 53.0179,71.2405 56,78.5C 56.5564,80.8848 56.3897,83.2181 55.5,85.5 Z"/></g>
<g><path style="opacity:1" fill="#fce0b0" d="M 57.5,75.5 C 57.3184,77.5914 57.6518,79.5914 58.5,81.5C 58.1852,83.483 57.1852,84.8163 55.5,85.5C 56.3897,83.2181 56.5564,80.8848 56,78.5C 53.0179,71.2405 48.1846,69.2405 41.5,72.5C 41.1667,72.5 40.8333,72.5 40.5,72.5C 40.5,71.8333 40.1667,71.5 39.5,71.5C 43.4486,69.7501 47.6153,68.4168 52,67.5C 54.054,70.0472 55.8874,72.7139 57.5,75.5 Z"/></g>
<g><path style="opacity:1" fill="#fee8be" d="M 40.5,72.5 C 40.8333,72.5 41.1667,72.5 41.5,72.5C 52.8813,71.522 56.548,76.1887 52.5,86.5C 51.8333,86.5 51.1667,86.5 50.5,86.5C 54.9417,81.2314 53.775,76.8981 47,73.5C 44.9068,74.2461 42.9068,74.5795 41,74.5C 40.5357,73.9056 40.369,73.2389 40.5,72.5 Z"/></g>
<g><path style="opacity:1" fill="#feebc2" d="M 38.5,71.5 C 38.8333,71.5 39.1667,71.5 39.5,71.5C 40.1667,71.5 40.5,71.8333 40.5,72.5C 40.369,73.2389 40.5357,73.9056 41,74.5C 42.9068,74.5795 44.9068,74.2461 47,73.5C 53.775,76.8981 54.9417,81.2314 50.5,86.5C 45.579,88.4931 40.579,88.8264 35.5,87.5C 37.2915,87.634 38.9582,87.3007 40.5,86.5C 45.1199,87.1863 48.7866,85.6863 51.5,82C 49.0112,77.1958 45.0112,75.0291 39.5,75.5C 39.0623,74.4937 38.3957,74.4937 37.5,75.5C 37.8333,74.1667 38.1667,72.8333 38.5,71.5 Z"/></g>
<g><path style="opacity:1" fill="#f7d7a1" d="M 59.5,84.5 C 61.1077,80.8574 60.4411,77.8574 57.5,75.5C 55.8874,72.7139 54.054,70.0472 52,67.5C 47.6153,68.4168 43.4486,69.7501 39.5,71.5C 39.1667,71.5 38.8333,71.5 38.5,71.5C 38.5,70.1667 38.5,68.8333 38.5,67.5C 38.8333,67.5 39.1667,67.5 39.5,67.5C 39.369,68.2389 39.5357,68.9056 40,69.5C 43.8475,66.9813 48.0142,65.8147 52.5,66C 58.6866,70.6714 62.0199,76.8381 62.5,84.5C 61.5,84.5 60.5,84.5 59.5,84.5 Z"/></g>
<g><path style="opacity:1" fill="#fef0ca" d="M 39.5,75.5 C 45.0112,75.0291 49.0112,77.1958 51.5,82C 48.7866,85.6863 45.1199,87.1863 40.5,86.5C 42.2701,85.236 43.9368,83.736 45.5,82C 43.244,79.9171 41.244,77.7504 39.5,75.5 Z"/></g>
<g><path style="opacity:0.618" fill="#d29f5a" d="M 69.5,88.5 C 69.7535,86.5992 69.4202,85.9326 68.5,86.5C 67.8333,84.1667 67.1667,81.8333 66.5,79.5C 65.8857,75.8648 65.5524,72.1981 65.5,68.5C 66.8333,67.5 66.8333,66.5 65.5,65.5C 65.3433,64.1266 65.51,62.7932 66,61.5C 68.0617,65.8837 68.5617,70.3837 67.5,75C 68,77.5 68.5,80 69,82.5C 69.3333,80.8333 69.6667,79.1667 70,77.5C 70.4361,79.8474 70.9361,82.1807 71.5,84.5C 71.3318,86.1705 70.6651,87.5039 69.5,88.5 Z"/></g>
<g><path style="opacity:1" fill="#fbe0a7" d="M 57.5,75.5 C 60.4411,77.8574 61.1077,80.8574 59.5,84.5C 56.5404,86.9299 53.2071,88.5966 49.5,89.5C 43.9738,89.1786 38.6405,89.5119 33.5,90.5C 32.8333,90.5 32.5,90.8333 32.5,91.5C 31.0532,90.8658 30.3866,89.6991 30.5,88C 30.528,86.9302 30.8614,86.0968 31.5,85.5C 31.8333,85.5 32.1667,85.5 32.5,85.5C 32.5,86.1667 32.8333,86.5 33.5,86.5C 33.8417,87.3382 34.5084,87.6716 35.5,87.5C 40.579,88.8264 45.579,88.4931 50.5,86.5C 51.1667,86.5 51.8333,86.5 52.5,86.5C 53.791,86.7373 54.791,86.404 55.5,85.5C 57.1852,84.8163 58.1852,83.483 58.5,81.5C 57.6518,79.5914 57.3184,77.5914 57.5,75.5 Z"/></g>
<g><path style="opacity:1" fill="#fff4d6" d="M 37.5,75.5 C 38.3957,74.4937 39.0623,74.4937 39.5,75.5C 41.244,77.7504 43.244,79.9171 45.5,82C 43.9368,83.736 42.2701,85.236 40.5,86.5C 38.9582,87.3007 37.2915,87.634 35.5,87.5C 34.5084,87.6716 33.8417,87.3382 33.5,86.5C 33.5393,84.7761 33.206,84.4427 32.5,85.5C 32.1667,85.5 31.8333,85.5 31.5,85.5C 32.7453,83.7545 34.0786,82.0878 35.5,80.5C 34.435,78.1472 34.6017,75.8139 36,73.5C 36.1587,75.3427 36.6587,76.0093 37.5,75.5 Z"/></g>
<g><path style="opacity:0.008" fill="#fe7f00" d="M 68.5,88.5 C 68.8333,88.5 69.1667,88.5 69.5,88.5C 69.3147,89.1701 68.9813,89.1701 68.5,88.5 Z"/></g>
<g><path style="opacity:1" fill="#ecbf67" d="M 66.5,79.5 C 67.1667,81.8333 67.8333,84.1667 68.5,86.5C 68.5,86.8333 68.5,87.1667 68.5,87.5C 65.9026,87.6432 63.5692,88.4766 61.5,90C 52.1994,91.6552 42.8661,91.8218 33.5,90.5C 38.6405,89.5119 43.9738,89.1786 49.5,89.5C 53.8795,88.9867 58.2128,88.1534 62.5,87C 63.6364,85.8549 64.6364,84.6883 65.5,83.5C 66.4345,82.4324 66.7678,81.099 66.5,79.5 Z"/></g>
<g><path style="opacity:0.008" fill="#feff7e" d="M 67.5,89.5 C 67.8333,89.5 68.1667,89.5 68.5,89.5C 68.3147,90.1701 67.9813,90.1701 67.5,89.5 Z"/></g>
<g><path style="opacity:0.986" fill="#e0a24b" d="M 68.5,87.5 C 68.5,87.8333 68.5,88.1667 68.5,88.5C 67.8333,88.5 67.5,88.8333 67.5,89.5C 66.8333,89.5 66.5,89.8333 66.5,90.5C 66.1667,90.5 65.8333,90.5 65.5,90.5C 54.8134,92.2615 44.8134,92.9281 35.5,92.5C 35.5,93.1667 35.8333,93.5 36.5,93.5C 34.7084,94.4728 33.375,93.8061 32.5,91.5C 33.1667,91.5 33.5,91.1667 33.5,90.5C 42.8661,91.8218 52.1994,91.6552 61.5,90C 63.5692,88.4766 65.9026,87.6432 68.5,87.5 Z"/></g>
<g><path style="opacity:0.004" fill="#abc546" d="M 66.5,90.5 C 66.8333,90.5 67.1667,90.5 67.5,90.5C 67.5,91.8333 66.8333,92.5 65.5,92.5C 65.5,92.1667 65.5,91.8333 65.5,91.5C 66.1667,91.5 66.5,91.1667 66.5,90.5 Z"/></g>
<g><path style="opacity:1" fill="#d58f4a" d="M 65.5,90.5 C 65.5,90.8333 65.5,91.1667 65.5,91.5C 64.1667,91.8333 64.1667,92.1667 65.5,92.5C 64.713,94.1042 63.3797,94.7709 61.5,94.5C 61.5,94.1667 61.5,93.8333 61.5,93.5C 64.1667,93.1667 64.1667,92.8333 61.5,92.5C 54.1958,93.3021 46.8625,93.6354 39.5,93.5C 38.5,93.5 37.5,93.5 36.5,93.5C 35.8333,93.5 35.5,93.1667 35.5,92.5C 44.8134,92.9281 54.8134,92.2615 65.5,90.5 Z"/></g>
<g><path style="opacity:0.482" fill="#b97c42" d="M 61.5,92.5 C 61.5,92.8333 61.5,93.1667 61.5,93.5C 57.5,93.8333 57.5,94.1667 61.5,94.5C 60.7375,95.2679 59.7375,95.7679 58.5,96C 51.392,96.9239 44.392,96.5906 37.5,95C 38.4158,94.7216 39.0825,94.2216 39.5,93.5C 46.8625,93.6354 54.1958,93.3021 61.5,92.5 Z"/></g>
</svg>
