<?xml version="1.0" encoding="UTF-8"?>
<!DOCTYPE svg PUBLIC "-//W3C//DTD SVG 1.1//EN" "http://www.w3.org/Graphics/SVG/1.1/DTD/svg11.dtd">
<svg xmlns="http://www.w3.org/2000/svg" version="1.1" width="100px" height="100px" style="shape-rendering:geometricPrecision; text-rendering:geometricPrecision; image-rendering:optimizeQuality; fill-rule:evenodd; clip-rule:evenodd" xmlns:xlink="http://www.w3.org/1999/xlink">
<g><path style="opacity:0.012" fill="#baa442" d="M 53.5,9.5 C 53.3505,8.44802 53.5172,7.44802 54,6.5C 54.7401,7.74943 54.5735,8.74943 53.5,9.5 Z"/></g>
<g><path style="opacity:0.418" fill="#f6d860" d="M 49.5,6.5 C 49.5,12.5 49.5,18.5 49.5,24.5C 51.7354,24.7947 53.7354,24.4614 55.5,23.5C 56.8333,22.5 56.8333,21.5 55.5,20.5C 55.5435,13.9567 56.2102,13.9567 57.5,20.5C 59.9009,21.3576 61.9009,22.691 63.5,24.5C 62.6618,24.8417 62.3284,25.5084 62.5,26.5C 53.8027,27.1743 45.136,27.1743 36.5,26.5C 36.3505,25.448 36.5172,24.448 37,23.5C 37.3333,23.8333 37.6667,24.1667 38,24.5C 39.0674,23.8095 40.2341,23.3095 41.5,23C 40.5,22.6667 39.5,22.3333 38.5,22C 41.7288,21.6437 43.2288,19.8103 43,16.5C 43.3333,18.1667 43.6667,19.8333 44,21.5C 45.4349,17.5184 45.6015,13.5184 44.5,9.5C 44.6667,8.83333 44.8333,8.16667 45,7.5C 46.0432,11.2259 46.5432,10.8926 46.5,6.5C 47.5,6.5 48.5,6.5 49.5,6.5 Z"/></g>
<g><path style="opacity:1" fill="#f3c43a" d="M 53.5,9.5 C 53.4299,13.4248 54.0966,17.0915 55.5,20.5C 55.5,21.5 55.5,22.5 55.5,23.5C 53.7354,24.4614 51.7354,24.7947 49.5,24.5C 49.5,18.5 49.5,12.5 49.5,6.5C 50.2389,6.63101 50.9056,6.46434 51.5,6C 45.136,5.01882 45.4694,4.51882 52.5,4.5C 52.2155,6.41467 52.5489,8.08134 53.5,9.5 Z"/></g>
<g><path style="opacity:1" fill="#f5db66" d="M 63.5,24.5 C 64.7665,26.311 66.0999,28.1443 67.5,30C 66.8333,30.3333 66.1667,30.6667 65.5,31C 67.4257,31.4224 68.4257,32.5891 68.5,34.5C 67.8333,34.5 67.1667,34.5 66.5,34.5C 64.5,34.5 62.5,34.5 60.5,34.5C 50.9196,34.3842 41.253,34.3842 31.5,34.5C 31.1667,34.5 30.8333,34.5 30.5,34.5C 31.6843,33.3121 31.6843,32.1455 30.5,31C 32.7231,30.3483 33.8898,28.8483 34,26.5C 34.1981,28.3817 34.6981,30.0484 35.5,31.5C 44.8634,32.8091 54.1967,32.8091 63.5,31.5C 64.8333,29.8333 64.8333,28.1667 63.5,26.5C 63.5,25.8333 63.5,25.1667 63.5,24.5 Z"/></g>
<g><path style="opacity:1" fill="#f3c527" d="M 36.5,26.5 C 45.136,27.1743 53.8027,27.1743 62.5,26.5C 62.8333,26.5 63.1667,26.5 63.5,26.5C 63.5,28.1667 63.5,29.8333 63.5,31.5C 54.1967,32.8091 44.8634,32.8091 35.5,31.5C 35.2155,29.5853 35.5489,27.9187 36.5,26.5 Z"/></g>
<g><path style="opacity:1" fill="#e6b816" d="M 30.5,34.5 C 30.8333,34.5 31.1667,34.5 31.5,34.5C 31.1818,39.0323 31.5151,43.3656 32.5,47.5C 32.5704,54.1139 35.7371,56.4473 42,54.5C 48.8761,50.093 52.7094,43.7597 53.5,35.5C 54.8333,35.5 56.1667,35.5 57.5,35.5C 55.8412,43.6683 52.1746,50.835 46.5,57C 43.2636,59.6351 39.597,60.6351 35.5,60C 34.1068,58.8289 33.2735,57.3289 33,55.5C 32.5357,56.0944 32.369,56.7611 32.5,57.5C 31.6618,57.8417 31.3284,58.5084 31.5,59.5C 31.1667,59.5 30.8333,59.5 30.5,59.5C 30.5,51.1667 30.5,42.8333 30.5,34.5 Z"/></g>
<g><path style="opacity:1" fill="#e9c015" d="M 53.5,35.5 C 52.7094,43.7597 48.8761,50.093 42,54.5C 35.7371,56.4473 32.5704,54.1139 32.5,47.5C 32.3379,45.4727 32.5045,43.4727 33,41.5C 37.0703,45.4419 40.9037,45.1085 44.5,40.5C 45.9501,39.1502 46.6168,37.4835 46.5,35.5C 48.8333,35.5 51.1667,35.5 53.5,35.5 Z"/></g>
<g><path style="opacity:1" fill="#e1ab13" d="M 66.5,34.5 C 67.1667,34.5 67.8333,34.5 68.5,34.5C 68.5,43.1667 68.5,51.8333 68.5,60.5C 68.1667,60.5 67.8333,60.5 67.5,60.5C 67.5,59.8333 67.1667,59.5 66.5,59.5C 66.5,57.8333 66.5,56.1667 66.5,54.5C 66.666,49.1563 66.4994,43.8229 66,38.5C 65.6667,41.5 65.3333,44.5 65,47.5C 58.8026,55.0721 52.3026,62.2387 45.5,69C 35.8251,71.7105 31.1584,68.5438 31.5,59.5C 31.3284,58.5084 31.6618,57.8417 32.5,57.5C 32.6098,64.9027 36.2764,67.4027 43.5,65C 52.1494,57.8833 58.4828,49.05 62.5,38.5C 62.1667,37.8333 61.8333,37.1667 61.5,36.5C 63.2914,35.8302 64.9581,35.1635 66.5,34.5 Z"/></g>
<g><path style="opacity:0.004" fill="#e863fc" d="M 69.5,88.5 C 69.3334,69.8304 69.5001,51.1637 70,32.5C 71.1265,41.7626 71.6265,51.0959 71.5,60.5C 71.3333,68.8333 71.1667,77.1667 71,85.5C 70.7679,86.7375 70.2679,87.7375 69.5,88.5 Z"/></g>
<g><path style="opacity:0.016" fill="#fab408" d="M 28.5,33.5 C 29.6621,51.662 29.8288,69.9954 29,88.5C 28.5001,70.1697 28.3334,51.8364 28.5,33.5 Z"/></g>
<g><path style="opacity:1" fill="#eecb20" d="M 60.5,34.5 C 59.609,35.1098 58.609,35.4431 57.5,35.5C 56.1667,35.5 54.8333,35.5 53.5,35.5C 51.1667,35.5 48.8333,35.5 46.5,35.5C 46.6168,37.4835 45.9501,39.1502 44.5,40.5C 40.9037,45.1085 37.0703,45.4419 33,41.5C 32.5045,43.4727 32.3379,45.4727 32.5,47.5C 31.5151,43.3656 31.1818,39.0323 31.5,34.5C 41.253,34.3842 50.9196,34.3842 60.5,34.5 Z"/></g>
<g><path style="opacity:1" fill="#e4b113" d="M 60.5,34.5 C 62.5,34.5 64.5,34.5 66.5,34.5C 64.9581,35.1635 63.2914,35.8302 61.5,36.5C 61.8333,37.1667 62.1667,37.8333 62.5,38.5C 58.4828,49.05 52.1494,57.8833 43.5,65C 36.2764,67.4027 32.6098,64.9027 32.5,57.5C 32.369,56.7611 32.5357,56.0944 33,55.5C 33.2735,57.3289 34.1068,58.8289 35.5,60C 39.597,60.6351 43.2636,59.6351 46.5,57C 52.1746,50.835 55.8412,43.6683 57.5,35.5C 58.609,35.4431 59.609,35.1098 60.5,34.5 Z"/></g>
<g><path style="opacity:1" fill="#e1a512" d="M 66.5,54.5 C 60.667,62.0908 53.0003,68.5908 43.5,74C 38.0634,76.9355 34.5634,75.4355 33,69.5C 32.7216,70.4158 32.2216,71.0825 31.5,71.5C 31.6716,70.5084 31.3382,69.8417 30.5,69.5C 30.5,66.1667 30.5,62.8333 30.5,59.5C 30.8333,59.5 31.1667,59.5 31.5,59.5C 31.1584,68.5438 35.8251,71.7105 45.5,69C 52.3026,62.2387 58.8026,55.0721 65,47.5C 65.3333,44.5 65.6667,41.5 66,38.5C 66.4994,43.8229 66.666,49.1563 66.5,54.5 Z"/></g>
<g><path style="opacity:0.999" fill="#df990e" d="M 66.5,59.5 C 67.1667,59.5 67.5,59.8333 67.5,60.5C 67.6659,65.5111 67.4993,70.5111 67,75.5C 66.1932,71.551 65.6932,71.551 65.5,75.5C 60.1103,75.838 55.1103,78.0047 50.5,82C 47.2095,82.984 44.0428,84.1506 41,85.5C 36.5931,85.6174 33.9264,83.6174 33,79.5C 32.6667,79.8333 32.3333,80.1667 32,80.5C 31.51,79.2068 31.3433,77.8734 31.5,76.5C 32.2216,76.0825 32.7216,75.4158 33,74.5C 35.1067,79.4741 38.6067,80.9741 43.5,79C 49.2202,76.5969 54.0535,73.0969 58,68.5C 58.3333,68.8333 58.6667,69.1667 59,69.5C 60.5827,67.945 62.416,66.7783 64.5,66C 66.0163,64.103 66.683,61.9363 66.5,59.5 Z"/></g>
<g><path style="opacity:1" fill="#e09f0f" d="M 66.5,54.5 C 66.5,56.1667 66.5,57.8333 66.5,59.5C 66.683,61.9363 66.0163,64.103 64.5,66C 62.416,66.7783 60.5827,67.945 59,69.5C 58.6667,69.1667 58.3333,68.8333 58,68.5C 54.0535,73.0969 49.2202,76.5969 43.5,79C 38.6067,80.9741 35.1067,79.4741 33,74.5C 32.7216,75.4158 32.2216,76.0825 31.5,76.5C 31.5,74.8333 31.5,73.1667 31.5,71.5C 32.2216,71.0825 32.7216,70.4158 33,69.5C 34.5634,75.4355 38.0634,76.9355 43.5,74C 53.0003,68.5908 60.667,62.0908 66.5,54.5 Z"/></g>
<g><path style="opacity:0.999" fill="#dd9010" d="M 67.5,60.5 C 67.8333,60.5 68.1667,60.5 68.5,60.5C 68.5,69.8333 68.5,79.1667 68.5,88.5C 68.1667,88.5 67.8333,88.5 67.5,88.5C 55.1093,90.0455 42.776,89.7122 30.5,87.5C 30.5,81.5 30.5,75.5 30.5,69.5C 31.3382,69.8417 31.6716,70.5084 31.5,71.5C 31.5,73.1667 31.5,74.8333 31.5,76.5C 31.3433,77.8734 31.51,79.2068 32,80.5C 32.3333,80.1667 32.6667,79.8333 33,79.5C 33.9264,83.6174 36.5931,85.6174 41,85.5C 44.0428,84.1506 47.2095,82.984 50.5,82C 55.1103,78.0047 60.1103,75.838 65.5,75.5C 65.6932,71.551 66.1932,71.551 67,75.5C 67.4993,70.5111 67.6659,65.5111 67.5,60.5 Z"/></g>
<g><path style="opacity:0.004" fill="#feff00" d="M 68.5,88.5 C 68.8333,88.5 69.1667,88.5 69.5,88.5C 69.3147,89.1701 68.9813,89.1701 68.5,88.5 Z"/></g>
<g><path style="opacity:0.012" fill="#a95500" d="M 67.5,89.5 C 67.8333,89.5 68.1667,89.5 68.5,89.5C 68.3147,90.1701 67.9813,90.1701 67.5,89.5 Z"/></g>
<g><path style="opacity:1" fill="#b44f0d" d="M 30.5,87.5 C 42.776,89.7122 55.1093,90.0455 67.5,88.5C 67.5,88.8333 67.5,89.1667 67.5,89.5C 66.1667,89.8333 66.1667,90.1667 67.5,90.5C 65.4582,92.8297 62.7916,93.9964 59.5,94C 50.3337,95.0447 41.3337,94.378 32.5,92C 32.8363,90.371 32.1696,88.871 30.5,87.5 Z"/></g>
</svg>
