<?xml version="1.0" encoding="UTF-8"?>
<!DOCTYPE svg PUBLIC "-//W3C//DTD SVG 1.1//EN" "http://www.w3.org/Graphics/SVG/1.1/DTD/svg11.dtd">
<svg xmlns="http://www.w3.org/2000/svg" version="1.1" width="100px" height="100px" style="shape-rendering:geometricPrecision; text-rendering:geometricPrecision; image-rendering:optimizeQuality; fill-rule:evenodd; clip-rule:evenodd" xmlns:xlink="http://www.w3.org/1999/xlink">
<g><path style="opacity:0.004" fill="#fefffe" d="M 34.5,8.5 C 33.8333,7.16667 33.8333,7.16667 34.5,8.5 Z"/></g>
<g><path style="opacity:0.869" fill="#6fd297" d="M 51.5,8.5 C 48.8333,8.83333 48.8333,9.16667 51.5,9.5C 51.5,9.83333 51.5,10.1667 51.5,10.5C 49.4352,10.4828 47.4352,10.1495 45.5,9.5C 44.1667,9.5 42.8333,9.5 41.5,9.5C 40.4324,8.56552 39.099,8.23219 37.5,8.5C 37.8151,11.2108 37.1484,13.5441 35.5,15.5C 34.1667,16.5 34.1667,17.5 35.5,18.5C 35.3284,19.4916 35.6618,20.1583 36.5,20.5C 37.2389,20.369 37.9056,20.5357 38.5,21C 37.5842,21.2784 36.9175,21.7784 36.5,22.5C 34.6203,22.2291 33.287,22.8958 32.5,24.5C 31.8333,24.5 31.1667,24.5 30.5,24.5C 30.5,24.1667 30.5,23.8333 30.5,23.5C 32.2327,22.9924 32.566,22.159 31.5,21C 33.6964,17.1993 34.6964,13.0326 34.5,8.5C 36.3223,7.71897 36.9889,6.5523 36.5,5C 42.0631,4.14197 47.0631,5.30864 51.5,8.5 Z"/></g>
<g><path style="opacity:0.004" fill="#22b816" d="M 32.5,9.5 C 33.5735,10.2506 33.7401,11.2506 33,12.5C 32.5172,11.552 32.3505,10.552 32.5,9.5 Z"/></g>
<g><path style="opacity:0.995" fill="#3bc073" d="M 41.5,9.5 C 39.6453,9.27203 38.8119,9.9387 39,11.5C 43.4799,16.827 48.6465,21.1603 54.5,24.5C 48.684,22.7014 42.684,22.0347 36.5,22.5C 36.9175,21.7784 37.5842,21.2784 38.5,21C 37.9056,20.5357 37.2389,20.369 36.5,20.5C 36.6716,19.5084 36.3382,18.8417 35.5,18.5C 35.5,17.5 35.5,16.5 35.5,15.5C 37.1484,13.5441 37.8151,11.2108 37.5,8.5C 39.099,8.23219 40.4324,8.56552 41.5,9.5 Z"/></g>
<g><path style="opacity:0.99" fill="#43c375" d="M 51.5,9.5 C 51.5,9.16667 51.5,8.83333 51.5,8.5C 54.0317,8.82858 55.0317,9.99525 54.5,12C 55.3805,12.7083 56.0472,13.5416 56.5,14.5C 56.631,15.2389 56.4643,15.9056 56,16.5C 54.6123,16.7856 53.1123,16.4523 51.5,15.5C 49.5,13.5 47.5,11.5 45.5,9.5C 47.4352,10.1495 49.4352,10.4828 51.5,10.5C 52.8333,10.1667 52.8333,9.83333 51.5,9.5 Z"/></g>
<g><path style="opacity:0.992" fill="#37b569" d="M 59.5,18.5 C 59.5,19.1667 59.5,19.8333 59.5,20.5C 59.5,21.5 59.5,22.5 59.5,23.5C 56.1178,21.4513 53.4512,18.7846 51.5,15.5C 53.1123,16.4523 54.6123,16.7856 56,16.5C 56.4643,15.9056 56.631,15.2389 56.5,14.5C 58.5065,13.3215 58.8398,13.8215 57.5,16C 58.0659,16.9947 58.7326,17.828 59.5,18.5 Z"/></g>
<g><path style="opacity:0.012" fill="#3b8c42" d="M 60.5,20.5 C 60.6716,19.5084 60.3382,18.8417 59.5,18.5C 59.3932,16.6214 59.8932,16.2881 61,17.5C 61.7401,18.7494 61.5735,19.7494 60.5,20.5 Z"/></g>
<g><path style="opacity:0.995" fill="#23ab53" d="M 41.5,9.5 C 42.8333,9.5 44.1667,9.5 45.5,9.5C 47.5,11.5 49.5,13.5 51.5,15.5C 53.4512,18.7846 56.1178,21.4513 59.5,23.5C 59.7845,25.4147 59.4511,27.0813 58.5,28.5C 57.205,27.5116 55.8717,26.5116 54.5,25.5C 54.5,25.1667 54.5,24.8333 54.5,24.5C 48.6465,21.1603 43.4799,16.827 39,11.5C 38.8119,9.9387 39.6453,9.27203 41.5,9.5 Z"/></g>
<g><path style="opacity:1" fill="#1fa34c" d="M 36.5,22.5 C 42.684,22.0347 48.684,22.7014 54.5,24.5C 54.5,24.8333 54.5,25.1667 54.5,25.5C 47.2094,24.6076 39.8761,24.2743 32.5,24.5C 33.287,22.8958 34.6203,22.2291 36.5,22.5 Z"/></g>
<g><path style="opacity:0.004" fill="#fefffe" d="M 78.5,24.5 C 79.8333,25.1667 79.8333,25.1667 78.5,24.5 Z"/></g>
<g><path style="opacity:1" fill="#128d35" d="M 30.5,24.5 C 31.1667,24.5 31.8333,24.5 32.5,24.5C 39.8761,24.2743 47.2094,24.6076 54.5,25.5C 55.8717,26.5116 57.205,27.5116 58.5,28.5C 58.1583,29.3382 57.4916,29.6716 56.5,29.5C 56.0825,28.7784 55.4158,28.2784 54.5,28C 46.6554,27.1777 38.9887,27.3443 31.5,28.5C 29.1582,27.7893 28.8249,26.456 30.5,24.5 Z"/></g>
<g><path style="opacity:0.318" fill="#e1a45b" d="M 78.5,24.5 C 69.1667,24.8333 69.1667,25.1667 78.5,25.5C 78.8333,26.1667 79.1667,26.8333 79.5,27.5C 72.8046,27.4263 66.4712,28.7596 60.5,31.5C 60.1667,31.5 59.8333,31.5 59.5,31.5C 60.1098,30.609 60.4431,29.609 60.5,28.5C 63.8151,27.6712 67.1484,26.8379 70.5,26C 66.1482,25.5811 65.8149,24.9145 69.5,24C 72.6965,23.1955 75.6965,23.3622 78.5,24.5 Z"/></g>
<g><path style="opacity:0.647" fill="#31a254" d="M 59.5,20.5 C 59.8333,20.5 60.1667,20.5 60.5,20.5C 60.5,23.1667 60.5,25.8333 60.5,28.5C 60.4431,29.609 60.1098,30.609 59.5,31.5C 58.8333,31.8333 58.1667,32.1667 57.5,32.5C 57.5,31.1667 56.8333,30.5 55.5,30.5C 50.6367,30.8195 45.97,30.4861 41.5,29.5C 46.5,29.5 51.5,29.5 56.5,29.5C 57.4916,29.6716 58.1583,29.3382 58.5,28.5C 59.4511,27.0813 59.7845,25.4147 59.5,23.5C 59.5,22.5 59.5,21.5 59.5,20.5 Z"/></g>
<g><path style="opacity:0.02" fill="#c37f39" d="M 80.5,26.5 C 81.5983,27.6009 81.765,28.9343 81,30.5C 80.51,29.2068 80.3433,27.8734 80.5,26.5 Z"/></g>
<g><path style="opacity:0.012" fill="#3b8d48" d="M 24.5,26.5 C 25.5983,27.6009 25.765,28.9343 25,30.5C 23.4894,29.436 23.3228,28.1026 24.5,26.5 Z"/></g>
<g><path style="opacity:1" fill="#096e20" d="M 56.5,29.5 C 51.5,29.5 46.5,29.5 41.5,29.5C 38.1667,29.5 34.8333,29.5 31.5,29.5C 31.5,29.1667 31.5,28.8333 31.5,28.5C 38.9887,27.3443 46.6554,27.1777 54.5,28C 55.4158,28.2784 56.0825,28.7784 56.5,29.5 Z"/></g>
<g><path style="opacity:1" fill="#52c886" d="M 31.5,29.5 C 34.8333,29.5 38.1667,29.5 41.5,29.5C 45.97,30.4861 50.6367,30.8195 55.5,30.5C 49.3554,31.4902 43.0221,31.8235 36.5,31.5C 33.6035,31.8747 30.9368,31.3747 28.5,30C 29.448,29.5172 30.448,29.3505 31.5,29.5 Z"/></g>
<g><path style="opacity:0.808" fill="#a14a0a" d="M 79.5,29.5 C 78.9524,30.6885 78.6191,31.8552 78.5,33C 75.438,33.7415 72.438,33.5748 69.5,32.5C 68.3044,32.8457 68.3044,33.3457 69.5,34C 68.2341,34.3095 67.0674,34.8095 66,35.5C 64.9125,33.0684 64.4125,33.4017 64.5,36.5C 64.1667,36.5 63.8333,36.5 63.5,36.5C 63.5,35.1667 63.5,33.8333 63.5,32.5C 68.6448,30.5477 73.9781,29.5477 79.5,29.5 Z"/></g>
<g><path style="opacity:1" fill="#4fc281" d="M 55.5,30.5 C 56.8333,30.5 57.5,31.1667 57.5,32.5C 51.8552,33.1342 46.1886,33.4676 40.5,33.5C 39.1667,32.8333 37.8333,32.1667 36.5,31.5C 43.0221,31.8235 49.3554,31.4902 55.5,30.5 Z"/></g>
<g><path style="opacity:1" fill="#47bc76" d="M 30.5,23.5 C 29.1667,23.8333 29.1667,24.1667 30.5,24.5C 28.8249,26.456 29.1582,27.7893 31.5,28.5C 31.5,28.8333 31.5,29.1667 31.5,29.5C 30.448,29.3505 29.448,29.5172 28.5,30C 30.9368,31.3747 33.6035,31.8747 36.5,31.5C 37.8333,32.1667 39.1667,32.8333 40.5,33.5C 37.8333,33.5 35.1667,33.5 32.5,33.5C 31.609,32.8902 30.609,32.5569 29.5,32.5C 26.0271,30.4372 25.6938,27.9372 28.5,25C 27.3961,23.8687 27.7295,23.0354 29.5,22.5C 30.1067,22.6236 30.44,22.9569 30.5,23.5 Z"/></g>
<g><path style="opacity:1" fill="#bd5914" d="M 79.5,27.5 C 79.5,28.1667 79.5,28.8333 79.5,29.5C 73.9781,29.5477 68.6448,30.5477 63.5,32.5C 62.609,33.1098 61.609,33.4431 60.5,33.5C 60.5,32.8333 60.5,32.1667 60.5,31.5C 66.4712,28.7596 72.8046,27.4263 79.5,27.5 Z"/></g>
<g><path style="opacity:1" fill="#38b46a" d="M 57.5,32.5 C 57.0269,33.9063 56.0269,34.573 54.5,34.5C 50.3676,35.2128 46.2009,35.8795 42,36.5C 39.8333,36.3333 37.6667,36.1667 35.5,36C 34.0577,35.6232 33.0577,34.7899 32.5,33.5C 35.1667,33.5 37.8333,33.5 40.5,33.5C 46.1886,33.4676 51.8552,33.1342 57.5,32.5 Z"/></g>
<g><path style="opacity:1" fill="#2e8734" d="M 29.5,32.5 C 30.609,32.5569 31.609,32.8902 32.5,33.5C 33.0577,34.7899 34.0577,35.6232 35.5,36C 37.6667,36.1667 39.8333,36.3333 42,36.5C 46.2009,35.8795 50.3676,35.2128 54.5,34.5C 53.9423,35.7899 52.9423,36.6232 51.5,37C 47.5817,38.1564 43.5817,38.6564 39.5,38.5C 36.8333,38.8333 36.8333,39.1667 39.5,39.5C 39.8333,39.5 40.1667,39.5 40.5,39.5C 40.5,40.1667 40.8333,40.5 41.5,40.5C 41.5,40.8333 41.5,41.1667 41.5,41.5C 40.8333,41.5 40.5,41.8333 40.5,42.5C 40.1667,42.5 39.8333,42.5 39.5,42.5C 39.1667,42.5 38.8333,42.5 38.5,42.5C 38.6107,41.8826 38.944,41.3826 39.5,41C 37.0506,40.2754 34.7173,39.2754 32.5,38C 31.6883,36.1772 30.6883,34.3439 29.5,32.5 Z"/></g>
<g><path style="opacity:0.971" fill="#bd5416" d="M 63.5,32.5 C 63.5,33.8333 63.5,35.1667 63.5,36.5C 63.8333,41.8333 64.1667,41.8333 64.5,36.5C 65.4345,37.5676 65.7678,38.901 65.5,40.5C 65.5,40.8333 65.5,41.1667 65.5,41.5C 64.596,42.209 64.2627,43.209 64.5,44.5C 62.9731,44.427 61.9731,45.0937 61.5,46.5C 60.8333,46.5 60.1667,46.5 59.5,46.5C 59.5,46.1667 59.5,45.8333 59.5,45.5C 59.307,41.4338 59.6403,37.4338 60.5,33.5C 61.609,33.4431 62.609,33.1098 63.5,32.5 Z"/></g>
<g><path style="opacity:0.906" fill="#882f18" d="M 59.5,31.5 C 59.8333,31.5 60.1667,31.5 60.5,31.5C 60.5,32.1667 60.5,32.8333 60.5,33.5C 59.6403,37.4338 59.307,41.4338 59.5,45.5C 59.1667,45.5 58.8333,45.5 58.5,45.5C 58.1667,40.1667 57.8333,40.1667 57.5,45.5C 56.5902,43.9812 55.7568,42.3146 55,40.5C 54.3292,41.2524 53.4959,41.5858 52.5,41.5C 52.5,40.8333 52.1667,40.5 51.5,40.5C 51.631,39.7611 51.4643,39.0944 51,38.5C 48.9576,40.604 46.4576,41.7707 43.5,42C 41.5359,43.451 40.2026,45.2843 39.5,47.5C 39.1667,47.5 38.8333,47.5 38.5,47.5C 38.1667,46.8333 37.8333,46.1667 37.5,45.5C 38.1667,45.5 38.5,45.1667 38.5,44.5C 39.1667,44.5 39.5,44.1667 39.5,43.5C 40.1667,43.5 40.5,43.1667 40.5,42.5C 41.1667,42.5 41.5,42.1667 41.5,41.5C 42.8333,41.1667 42.8333,40.8333 41.5,40.5C 40.8333,40.5 40.5,40.1667 40.5,39.5C 40.1667,39.5 39.8333,39.5 39.5,39.5C 39.5,39.1667 39.5,38.8333 39.5,38.5C 43.5817,38.6564 47.5817,38.1564 51.5,37C 52.9423,36.6232 53.9423,35.7899 54.5,34.5C 56.0269,34.573 57.0269,33.9063 57.5,32.5C 58.1667,32.1667 58.8333,31.8333 59.5,31.5 Z"/></g>
<g><path style="opacity:0.855" fill="#99300c" d="M 51.5,40.5 C 52.1667,40.5 52.5,40.8333 52.5,41.5C 52.0269,42.9063 51.0269,43.573 49.5,43.5C 49.1667,42.1667 48.8333,42.1667 48.5,43.5C 47.8333,43.5 47.5,43.8333 47.5,44.5C 46.8333,44.5 46.5,44.8333 46.5,45.5C 45.8333,45.5 45.5,45.8333 45.5,46.5C 44.8333,46.5 44.5,46.8333 44.5,47.5C 43.8333,47.8333 43.1667,48.1667 42.5,48.5C 41.391,48.4431 40.391,48.1098 39.5,47.5C 40.2026,45.2843 41.5359,43.451 43.5,42C 46.4576,41.7707 48.9576,40.604 51,38.5C 51.4643,39.0944 51.631,39.7611 51.5,40.5 Z"/></g>
<g><path style="opacity:0.016" fill="#7e0000" d="M 48.5,43.5 C 48.8333,43.5 49.1667,43.5 49.5,43.5C 49.3147,44.1701 48.9813,44.1701 48.5,43.5 Z"/></g>
<g><path style="opacity:0.016" fill="#7e3f00" d="M 47.5,44.5 C 47.8333,44.5 48.1667,44.5 48.5,44.5C 48.3147,45.1701 47.9813,45.1701 47.5,44.5 Z"/></g>
<g><path style="opacity:0.561" fill="#eee985" d="M 65.5,40.5 C 75.1158,39.3015 81.7825,42.6349 85.5,50.5C 85.5,51.1667 85.5,51.8333 85.5,52.5C 83.7041,51.2073 82.0375,49.7073 80.5,48C 79.4232,47.5304 78.4232,47.6971 77.5,48.5C 76.1634,47.6851 75.1634,46.5185 74.5,45C 71.1832,44.5017 67.8499,44.335 64.5,44.5C 64.2627,43.209 64.596,42.209 65.5,41.5C 65.5,41.1667 65.5,40.8333 65.5,40.5 Z"/></g>
<g><path style="opacity:0.016" fill="#7e3f00" d="M 46.5,45.5 C 46.8333,45.5 47.1667,45.5 47.5,45.5C 47.3147,46.1701 46.9813,46.1701 46.5,45.5 Z"/></g>
<g><path style="opacity:0.016" fill="#7e0000" d="M 45.5,46.5 C 45.8333,46.5 46.1667,46.5 46.5,46.5C 46.3147,47.1701 45.9813,47.1701 45.5,46.5 Z"/></g>
<g><path style="opacity:0.991" fill="#ece281" d="M 38.5,42.5 C 38.8333,42.5 39.1667,42.5 39.5,42.5C 39.5,42.8333 39.5,43.1667 39.5,43.5C 38.8333,43.5 38.5,43.8333 38.5,44.5C 37.8333,44.5 37.5,44.8333 37.5,45.5C 37.8333,46.1667 38.1667,46.8333 38.5,47.5C 35.8872,46.5651 33.2205,46.3985 30.5,47C 31.2524,47.6708 31.5858,48.5041 31.5,49.5C 29.3792,49.3253 27.3792,49.6586 25.5,50.5C 25.5,49.1667 24.8333,48.5 23.5,48.5C 27.076,46.2724 31.076,45.2724 35.5,45.5C 36.8333,45.1667 36.8333,44.8333 35.5,44.5C 36.2905,43.5987 37.2905,42.9321 38.5,42.5 Z"/></g>
<g><path style="opacity:0.991" fill="#e6e36f" d="M 38.5,47.5 C 37.4324,48.4345 36.099,48.7678 34.5,48.5C 34.4848,51.8791 33.4848,54.8791 31.5,57.5C 31.1667,57.5 30.8333,57.5 30.5,57.5C 29.8333,57.5 29.1667,57.5 28.5,57.5C 32.2395,55.7475 33.2395,53.0808 31.5,49.5C 31.5858,48.5041 31.2524,47.6708 30.5,47C 33.2205,46.3985 35.8872,46.5651 38.5,47.5 Z"/></g>
<g><path style="opacity:0.008" fill="#7e0000" d="M 44.5,47.5 C 44.8333,47.5 45.1667,47.5 45.5,47.5C 45.3147,48.1701 44.9813,48.1701 44.5,47.5 Z"/></g>
<g><path style="opacity:0.998" fill="#e4e078" d="M 57.5,45.5 C 57.8333,45.5 58.1667,45.5 58.5,45.5C 58.5,46.1667 58.8333,46.5 59.5,46.5C 60.1667,46.5 60.8333,46.5 61.5,46.5C 64.1873,46.3359 66.854,46.5026 69.5,47C 71.0294,53.9595 68.3627,56.1262 61.5,53.5C 60.136,49.6388 58.4693,49.6388 56.5,53.5C 55.8933,53.3764 55.56,53.0431 55.5,52.5C 56.3629,51.0597 56.3629,49.7264 55.5,48.5C 56.1925,47.4822 56.8592,46.4822 57.5,45.5 Z"/></g>
<g><path style="opacity:1" fill="#e0dc60" d="M 64.5,44.5 C 67.8499,44.335 71.1832,44.5017 74.5,45C 75.1634,46.5185 76.1634,47.6851 77.5,48.5C 78.7196,50.2821 79.3862,52.2821 79.5,54.5C 79.1667,54.5 78.8333,54.5 78.5,54.5C 77.5067,52.6774 76.0067,51.3441 74,50.5C 71.5837,54.4201 68.0837,56.4201 63.5,56.5C 61.9519,56.1788 61.2852,55.1788 61.5,53.5C 68.3627,56.1262 71.0294,53.9595 69.5,47C 66.854,46.5026 64.1873,46.3359 61.5,46.5C 61.9731,45.0937 62.9731,44.427 64.5,44.5 Z"/></g>
<g><path style="opacity:0.998" fill="#e5e278" d="M 23.5,48.5 C 24.8333,48.5 25.5,49.1667 25.5,50.5C 24.5489,51.9187 24.2155,53.5853 24.5,55.5C 29.3394,56.3234 31.6728,54.3234 31.5,49.5C 33.2395,53.0808 32.2395,55.7475 28.5,57.5C 26.7116,58.6225 24.7116,58.7891 22.5,58C 21.3147,56.647 19.9814,55.4803 18.5,54.5C 15.5565,56.7895 12.5565,58.7895 9.5,60.5C 9.5,60.1667 9.5,59.8333 9.5,59.5C 10.1667,59.5 10.5,59.1667 10.5,58.5C 11.2719,57.3065 12.2719,56.3065 13.5,55.5C 16.6357,52.9124 19.969,50.5791 23.5,48.5 Z"/></g>
<g><path style="opacity:1" fill="#e1dd5e" d="M 38.5,47.5 C 38.8333,47.5 39.1667,47.5 39.5,47.5C 40.391,48.1098 41.391,48.4431 42.5,48.5C 43.1667,49.5 43.8333,50.5 44.5,51.5C 43.9935,52.8589 42.9935,53.8589 41.5,54.5C 37.9772,55.1346 34.6439,56.1346 31.5,57.5C 33.4848,54.8791 34.4848,51.8791 34.5,48.5C 36.099,48.7678 37.4324,48.4345 38.5,47.5 Z"/></g>
<g><path style="opacity:1" fill="#e8e69a" d="M 31.5,49.5 C 31.6728,54.3234 29.3394,56.3234 24.5,55.5C 24.2155,53.5853 24.5489,51.9187 25.5,50.5C 27.3792,49.6586 29.3792,49.3253 31.5,49.5 Z"/></g>
<g><path style="opacity:0.804" fill="#eeec94" d="M 35.5,44.5 C 35.5,44.8333 35.5,45.1667 35.5,45.5C 31.076,45.2724 27.076,46.2724 23.5,48.5C 19.969,50.5791 16.6357,52.9124 13.5,55.5C 14.2026,53.2843 15.5359,51.451 17.5,50C 17.1667,49.6667 16.8333,49.3333 16.5,49C 17.8333,48 19.1667,47 20.5,46C 25.2774,45.1156 30.2774,44.6156 35.5,44.5 Z"/></g>
<g><path style="opacity:1" fill="#d8d44f" d="M 78.5,54.5 C 78.573,56.0269 77.9063,57.0269 76.5,57.5C 72.2022,58.1995 67.8689,58.5328 63.5,58.5C 63.5,57.8333 63.5,57.1667 63.5,56.5C 68.0837,56.4201 71.5837,54.4201 74,50.5C 76.0067,51.3441 77.5067,52.6774 78.5,54.5 Z"/></g>
<g><path style="opacity:1" fill="#d9d66b" d="M 85.5,52.5 C 86.2341,53.7079 86.5674,55.0413 86.5,56.5C 83.9214,56.6061 81.588,55.9395 79.5,54.5C 79.3862,52.2821 78.7196,50.2821 77.5,48.5C 78.4232,47.6971 79.4232,47.5304 80.5,48C 82.0375,49.7073 83.7041,51.2073 85.5,52.5 Z"/></g>
<g><path style="opacity:1" fill="#dbd74c" d="M 61.5,53.5 C 61.2852,55.1788 61.9519,56.1788 63.5,56.5C 63.5,57.1667 63.5,57.8333 63.5,58.5C 62.5084,58.3284 61.8417,58.6618 61.5,59.5C 60.8333,59.5 60.1667,59.5 59.5,59.5C 58.4673,56.4008 56.4673,55.7341 53.5,57.5C 53.5,56.8333 53.5,56.1667 53.5,55.5C 54.1667,54.5 54.8333,53.5 55.5,52.5C 55.56,53.0431 55.8933,53.3764 56.5,53.5C 58.4693,49.6388 60.136,49.6388 61.5,53.5 Z"/></g>
<g><path style="opacity:1" fill="#dbd754" d="M 44.5,51.5 C 45.4013,52.2905 46.0679,53.2905 46.5,54.5C 44.9382,54.7329 43.6049,55.3995 42.5,56.5C 38.2966,57.9596 33.9633,58.9596 29.5,59.5C 29.8333,58.8333 30.1667,58.1667 30.5,57.5C 30.8333,57.5 31.1667,57.5 31.5,57.5C 34.6439,56.1346 37.9772,55.1346 41.5,54.5C 42.9935,53.8589 43.9935,52.8589 44.5,51.5 Z"/></g>
<g><path style="opacity:1" fill="#d7d359" d="M 85.5,50.5 C 86.6885,51.0476 87.8552,51.3809 89,51.5C 89.195,52.8193 89.0283,54.1526 88.5,55.5C 88.1667,56.1667 87.8333,56.8333 87.5,57.5C 83.7234,59.229 81.0567,58.229 79.5,54.5C 81.588,55.9395 83.9214,56.6061 86.5,56.5C 86.5674,55.0413 86.2341,53.7079 85.5,52.5C 85.5,51.8333 85.5,51.1667 85.5,50.5 Z"/></g>
<g><path style="opacity:0.008" fill="#ffee6f" d="M 10.5,58.5 C 9.83333,58.5 9.5,58.8333 9.5,59.5C 8.28749,58.5029 8.45415,57.5029 10,56.5C 10.4643,57.0944 10.631,57.7611 10.5,58.5 Z"/></g>
<g><path style="opacity:1" fill="#deda5c" d="M 28.5,57.5 C 29.1667,57.5 29.8333,57.5 30.5,57.5C 30.1667,58.1667 29.8333,58.8333 29.5,59.5C 28.8333,59.5 28.5,59.8333 28.5,60.5C 24.2964,60.8243 20.463,59.8243 17,57.5C 14.8333,58.3333 13.3333,59.8333 12.5,62C 11.552,62.4828 10.552,62.6495 9.5,62.5C 9.5,61.8333 9.5,61.1667 9.5,60.5C 12.5565,58.7895 15.5565,56.7895 18.5,54.5C 19.9814,55.4803 21.3147,56.647 22.5,58C 24.7116,58.7891 26.7116,58.6225 28.5,57.5 Z"/></g>
<g><path style="opacity:1" fill="#cec93a" d="M 76.5,57.5 C 76.9175,58.2216 77.5842,58.7216 78.5,59C 75.2942,59.9265 74.9608,61.0932 77.5,62.5C 75.5853,62.2155 73.9187,62.5489 72.5,63.5C 69.7531,63.8134 67.0865,63.48 64.5,62.5C 63.0065,61.8589 62.0065,60.8589 61.5,59.5C 61.8417,58.6618 62.5084,58.3284 63.5,58.5C 67.8689,58.5328 72.2022,58.1995 76.5,57.5 Z"/></g>
<g><path style="opacity:1" fill="#d9d54f" d="M 28.5,60.5 C 21.7245,60.877 15.0578,62.2103 8.5,64.5C 8.32842,63.5084 8.66175,62.8417 9.5,62.5C 10.552,62.6495 11.552,62.4828 12.5,62C 13.3333,59.8333 14.8333,58.3333 17,57.5C 20.463,59.8243 24.2964,60.8243 28.5,60.5 Z"/></g>
<g><path style="opacity:1" fill="#d8d449" d="M 42.5,56.5 C 42.6716,57.4916 42.3382,58.1583 41.5,58.5C 33.9113,61.6004 25.9113,63.1004 17.5,63C 15.2774,63.5662 13.2774,64.3995 11.5,65.5C 9.56954,65.7706 8.23621,66.7706 7.5,68.5C 6.95526,64.8284 6.62192,65.1617 6.5,69.5C 5.23555,67.2279 5.40221,64.8945 7,62.5C 7.27842,63.4158 7.77842,64.0825 8.5,64.5C 15.0578,62.2103 21.7245,60.877 28.5,60.5C 28.5,59.8333 28.8333,59.5 29.5,59.5C 33.9633,58.9596 38.2966,57.9596 42.5,56.5 Z"/></g>
<g><path style="opacity:1" fill="#d2cb25" d="M 59.5,59.5 C 59.4142,60.4959 59.7476,61.3292 60.5,62C 58.5115,62.9383 56.5115,63.7717 54.5,64.5C 53.962,62.8828 53.6287,61.2161 53.5,59.5C 53.5,58.8333 53.5,58.1667 53.5,57.5C 56.4673,55.7341 58.4673,56.4008 59.5,59.5 Z"/></g>
<g><path style="opacity:1" fill="#cac540" d="M 78.5,54.5 C 78.8333,54.5 79.1667,54.5 79.5,54.5C 81.0567,58.229 83.7234,59.229 87.5,57.5C 88.404,58.209 88.7373,59.209 88.5,60.5C 88.0825,61.2216 87.4158,61.7216 86.5,62C 83.5184,62.498 80.5184,62.6646 77.5,62.5C 74.9608,61.0932 75.2942,59.9265 78.5,59C 77.5842,58.7216 76.9175,58.2216 76.5,57.5C 77.9063,57.0269 78.573,56.0269 78.5,54.5 Z"/></g>
<g><path style="opacity:1" fill="#c4be32" d="M 88.5,60.5 C 89.4345,61.5676 89.7678,62.901 89.5,64.5C 86.0636,63.6404 83.0636,63.6404 80.5,64.5C 78.8333,64.5 77.1667,64.5 75.5,64.5C 74.791,63.596 73.791,63.2627 72.5,63.5C 73.9187,62.5489 75.5853,62.2155 77.5,62.5C 80.5184,62.6646 83.5184,62.498 86.5,62C 87.4158,61.7216 88.0825,61.2216 88.5,60.5 Z"/></g>
<g><path style="opacity:1" fill="#d1cc3e" d="M 41.5,58.5 C 41.5858,59.4959 41.2524,60.3292 40.5,61C 37.8232,61.2494 35.4899,62.2494 33.5,64C 31.5273,64.4955 29.5273,64.6621 27.5,64.5C 22.9886,65.0255 18.4886,65.6922 14,66.5C 12.9302,66.472 12.0968,66.1386 11.5,65.5C 13.2774,64.3995 15.2774,63.5662 17.5,63C 25.9113,63.1004 33.9113,61.6004 41.5,58.5 Z"/></g>
<g><path style="opacity:1" fill="#ccc631" d="M 46.5,54.5 C 46.5,54.8333 46.5,55.1667 46.5,55.5C 46.5,56.1667 46.5,56.8333 46.5,57.5C 46.6495,58.552 46.4828,59.552 46,60.5C 44.927,59.7203 43.7604,59.887 42.5,61C 41.8366,62.5185 40.8366,63.6851 39.5,64.5C 35.1667,65.1667 30.8333,65.8333 26.5,66.5C 26.8333,65.8333 27.1667,65.1667 27.5,64.5C 29.5273,64.6621 31.5273,64.4955 33.5,64C 35.4899,62.2494 37.8232,61.2494 40.5,61C 41.2524,60.3292 41.5858,59.4959 41.5,58.5C 42.3382,58.1583 42.6716,57.4916 42.5,56.5C 43.6049,55.3995 44.9382,54.7329 46.5,54.5 Z"/></g>
<g><path style="opacity:0.675" fill="#a89824" d="M 53.5,55.5 C 52.1667,56.8333 52.1667,58.1667 53.5,59.5C 53.6287,61.2161 53.962,62.8828 54.5,64.5C 54.5,65.5 54.5,66.5 54.5,67.5C 54.1667,67.5 53.8333,67.5 53.5,67.5C 52.367,65.9786 52.367,66.6453 53.5,69.5C 53.6495,70.552 53.4828,71.552 53,72.5C 52.0419,70.8008 51.5419,68.9674 51.5,67C 51.8802,62.9089 52.0468,58.7422 52,54.5C 53.0875,52.0684 53.5875,52.4017 53.5,55.5 Z"/></g>
<g><path style="opacity:1" fill="#c5bf23" d="M 59.5,59.5 C 60.1667,59.5 60.8333,59.5 61.5,59.5C 62.0065,60.8589 63.0065,61.8589 64.5,62.5C 67.0865,63.48 69.7531,63.8134 72.5,63.5C 73.791,63.2627 74.791,63.596 75.5,64.5C 68.6513,65.8625 61.9847,66.5292 55.5,66.5C 55.5,66.8333 55.5,67.1667 55.5,67.5C 55.1667,67.5 54.8333,67.5 54.5,67.5C 54.5,66.5 54.5,65.5 54.5,64.5C 56.5115,63.7717 58.5115,62.9383 60.5,62C 59.7476,61.3292 59.4142,60.4959 59.5,59.5 Z"/></g>
<g><path style="opacity:1" fill="#beb720" d="M 75.5,64.5 C 77.1667,64.5 78.8333,64.5 80.5,64.5C 78.9724,65.3092 77.3057,65.9759 75.5,66.5C 68.7823,67.7068 62.1156,67.7068 55.5,66.5C 61.9847,66.5292 68.6513,65.8625 75.5,64.5 Z"/></g>
<g><path style="opacity:0.998" fill="#ccc633" d="M 27.5,64.5 C 27.1667,65.1667 26.8333,65.8333 26.5,66.5C 20.9104,67.9553 15.2438,68.9553 9.5,69.5C 9.5,70.1667 9.5,70.8333 9.5,71.5C 8.83333,71.8333 8.16667,72.1667 7.5,72.5C 7.5,71.5 7.5,70.5 7.5,69.5C 7.5,69.1667 7.5,68.8333 7.5,68.5C 8.23621,66.7706 9.56954,65.7706 11.5,65.5C 12.0968,66.1386 12.9302,66.472 14,66.5C 18.4886,65.6922 22.9886,65.0255 27.5,64.5 Z"/></g>
<g><path style="opacity:1" fill="#c4be29" d="M 39.5,64.5 C 30.0437,69.2571 20.0437,70.9237 9.5,69.5C 15.2438,68.9553 20.9104,67.9553 26.5,66.5C 30.8333,65.8333 35.1667,65.1667 39.5,64.5 Z"/></g>
<g><path style="opacity:1" fill="#b8b019" d="M 55.5,66.5 C 62.1156,67.7068 68.7823,67.7068 75.5,66.5C 75.5,66.8333 75.5,67.1667 75.5,67.5C 73.5,68.1667 71.5,68.8333 69.5,69.5C 65.4862,69.6655 61.4862,69.4988 57.5,69C 56.5842,68.7216 55.9175,68.2216 55.5,67.5C 55.5,67.1667 55.5,66.8333 55.5,66.5 Z"/></g>
<g><path style="opacity:1" fill="#bab323" d="M 89.5,64.5 C 89.5,66.8333 89.5,69.1667 89.5,71.5C 85.3357,68.792 80.669,67.4587 75.5,67.5C 75.5,67.1667 75.5,66.8333 75.5,66.5C 77.3057,65.9759 78.9724,65.3092 80.5,64.5C 83.0636,63.6404 86.0636,63.6404 89.5,64.5 Z"/></g>
<g><path style="opacity:0.879" fill="#cfc933" d="M 88.5,55.5 C 89.793,56.842 90.6264,58.5087 91,60.5C 91.3589,57.4557 92.0255,57.1224 93,59.5C 94.1564,63.4183 94.6564,67.4183 94.5,71.5C 94.1667,71.5 93.8333,71.5 93.5,71.5C 93.9942,68.078 93.6609,66.4113 92.5,66.5C 91.5386,68.2646 91.2053,70.2646 91.5,72.5C 90.0755,74.0311 89.4088,73.6977 89.5,71.5C 89.5,69.1667 89.5,66.8333 89.5,64.5C 89.7678,62.901 89.4345,61.5676 88.5,60.5C 88.7373,59.209 88.404,58.209 87.5,57.5C 87.8333,56.8333 88.1667,56.1667 88.5,55.5 Z"/></g>
<g><path style="opacity:1" fill="#c0b821" d="M 46.5,57.5 C 46.8333,57.5 47.1667,57.5 47.5,57.5C 47.5,58.1667 47.5,58.8333 47.5,59.5C 47.5,60.8333 47.5,62.1667 47.5,63.5C 46.1266,63.3433 44.7932,63.51 43.5,64C 42.0467,66.1144 40.0467,67.4478 37.5,68C 32.3998,69.3242 27.3998,70.4909 22.5,71.5C 18.1667,71.5 13.8333,71.5 9.5,71.5C 9.5,70.8333 9.5,70.1667 9.5,69.5C 20.0437,70.9237 30.0437,69.2571 39.5,64.5C 40.8366,63.6851 41.8366,62.5185 42.5,61C 43.7604,59.887 44.927,59.7203 46,60.5C 46.4828,59.552 46.6495,58.552 46.5,57.5 Z"/></g>
<g><path style="opacity:1" fill="#aea618" d="M 49.5,68.5 C 49.5,68.1667 49.5,67.8333 49.5,67.5C 49.1667,58.1667 48.8333,58.1667 48.5,67.5C 48.1667,67.5 47.8333,67.5 47.5,67.5C 46.8333,68.1667 46.1667,68.8333 45.5,69.5C 45.631,68.7611 45.4643,68.0944 45,67.5C 44.2917,68.3805 43.4584,69.0472 42.5,69.5C 41.5,69.5 40.5,69.5 39.5,69.5C 41.4559,67.8861 43.4559,66.2194 45.5,64.5C 46.944,65.981 47.6106,65.6477 47.5,63.5C 47.5,62.1667 47.5,60.8333 47.5,59.5C 48.734,57.9516 48.734,57.2849 47.5,57.5C 47.1667,57.5 46.8333,57.5 46.5,57.5C 46.5,56.8333 46.5,56.1667 46.5,55.5C 47.2216,55.0825 47.7216,54.4158 48,53.5C 50.4952,58.4483 50.9952,63.4483 49.5,68.5 Z"/></g>
<g><path style="opacity:0.998" fill="#b6ad1e" d="M 75.5,67.5 C 80.669,67.4587 85.3357,68.792 89.5,71.5C 89.4088,73.6977 90.0755,74.0311 91.5,72.5C 91.5,73.5 91.5,74.5 91.5,75.5C 90.6618,75.8417 90.3284,76.5084 90.5,77.5C 89.1667,77.5 88.5,76.8333 88.5,75.5C 87.7322,72.4384 85.7322,70.7717 82.5,70.5C 78.3656,69.5151 74.0323,69.1818 69.5,69.5C 71.5,68.8333 73.5,68.1667 75.5,67.5 Z"/></g>
<g><path style="opacity:1" fill="#bab11c" d="M 47.5,63.5 C 47.6106,65.6477 46.944,65.981 45.5,64.5C 43.4559,66.2194 41.4559,67.8861 39.5,69.5C 34.8333,70.1667 30.1667,70.8333 25.5,71.5C 24.5,71.5 23.5,71.5 22.5,71.5C 27.3998,70.4909 32.3998,69.3242 37.5,68C 40.0467,67.4478 42.0467,66.1144 43.5,64C 44.7932,63.51 46.1266,63.3433 47.5,63.5 Z"/></g>
<g><path style="opacity:1" fill="#b2a717" d="M 53.5,67.5 C 53.8333,67.5 54.1667,67.5 54.5,67.5C 54.8333,67.5 55.1667,67.5 55.5,67.5C 55.9175,68.2216 56.5842,68.7216 57.5,69C 61.4862,69.4988 65.4862,69.6655 69.5,69.5C 74.0323,69.1818 78.3656,69.5151 82.5,70.5C 74.5,70.5 66.5,70.5 58.5,70.5C 57.0413,70.5674 55.7079,70.2341 54.5,69.5C 54.1667,69.5 53.8333,69.5 53.5,69.5C 53.5,68.8333 53.5,68.1667 53.5,67.5 Z"/></g>
<g><path style="opacity:1" fill="#a59a16" d="M 43.5,71.5 C 43.9382,71.4346 44.2716,71.6012 44.5,72C 41.2903,76.5324 37.1236,78.3657 32,77.5C 24.4606,77.778 17.294,78.778 10.5,80.5C 10.3284,81.4916 10.6618,82.1583 11.5,82.5C 11.5,83.1667 11.5,83.8333 11.5,84.5C 11.1667,84.5 10.8333,84.5 10.5,84.5C 10.1667,84.5 9.83333,84.5 9.5,84.5C 9.67158,83.5084 9.33825,82.8417 8.5,82.5C 8.67158,81.5084 8.33825,80.8417 7.5,80.5C 7.5,79.5 7.5,78.5 7.5,77.5C 8.16667,77.5 8.83333,77.5 9.5,77.5C 17.536,77.5976 25.536,77.0976 33.5,76C 37.2358,75.297 40.5691,73.797 43.5,71.5 Z"/></g>
<g><path style="opacity:1" fill="#ab9f1a" d="M 92.5,66.5 C 92.2155,68.4147 92.5489,70.0813 93.5,71.5C 93.8333,71.5 94.1667,71.5 94.5,71.5C 93.824,73.8591 92.9907,76.1924 92,78.5C 91.3333,79.8333 90.6667,79.8333 90,78.5C 89.5357,79.0944 89.369,79.7611 89.5,80.5C 89.1667,80.5 88.8333,80.5 88.5,80.5C 87.042,76.8796 84.3753,74.3796 80.5,73C 75.4688,72.4905 70.8021,72.6572 66.5,73.5C 63.1897,73.3387 60.1897,73.3387 57.5,73.5C 56.8333,73.5 56.1667,73.5 55.5,73.5C 54.7659,72.2921 54.4326,70.9587 54.5,69.5C 55.7079,70.2341 57.0413,70.5674 58.5,70.5C 66.3228,71.3292 74.3228,71.8292 82.5,72C 84.6642,73.0222 86.6642,74.1889 88.5,75.5C 88.5,76.8333 89.1667,77.5 90.5,77.5C 91.3382,77.1583 91.6716,76.4916 91.5,75.5C 92.8333,74.5 92.8333,73.5 91.5,72.5C 91.2053,70.2646 91.5386,68.2646 92.5,66.5 Z"/></g>
<g><path style="opacity:1" fill="#aea416" d="M 58.5,70.5 C 66.5,70.5 74.5,70.5 82.5,70.5C 85.7322,70.7717 87.7322,72.4384 88.5,75.5C 86.6642,74.1889 84.6642,73.0222 82.5,72C 74.3228,71.8292 66.3228,71.3292 58.5,70.5 Z"/></g>
<g><path style="opacity:1" fill="#a99e13" d="M 45.5,69.5 C 44.5,69.8333 43.8333,70.5 43.5,71.5C 40.5691,73.797 37.2358,75.297 33.5,76C 25.536,77.0976 17.536,77.5976 9.5,77.5C 18.3987,76.2568 27.3987,74.7568 36.5,73C 39.0254,72.5762 41.0254,71.4095 42.5,69.5C 43.4584,69.0472 44.2917,68.3805 45,67.5C 45.4643,68.0944 45.631,68.7611 45.5,69.5 Z"/></g>
<g><path style="opacity:1" fill="#a19315" d="M 47.5,67.5 C 47.8333,72.8333 48.1667,72.8333 48.5,67.5C 48.8333,67.5 49.1667,67.5 49.5,67.5C 49.5,67.8333 49.5,68.1667 49.5,68.5C 49.3104,71.855 48.3104,74.855 46.5,77.5C 46.5,77.1667 46.5,76.8333 46.5,76.5C 46.5,75.8333 46.1667,75.5 45.5,75.5C 45.631,74.7611 45.4643,74.0944 45,73.5C 42.5432,77.2789 39.0432,79.4456 34.5,80C 26.5069,80.4997 18.5069,80.6664 10.5,80.5C 17.294,78.778 24.4606,77.778 32,77.5C 37.1236,78.3657 41.2903,76.5324 44.5,72C 44.2716,71.6012 43.9382,71.4346 43.5,71.5C 43.8333,70.5 44.5,69.8333 45.5,69.5C 46.1667,68.8333 46.8333,68.1667 47.5,67.5 Z"/></g>
<g><path style="opacity:1" fill="#a59a14" d="M 88.5,80.5 C 88.5,80.8333 88.5,81.1667 88.5,81.5C 87.8333,81.5 87.5,81.8333 87.5,82.5C 87.1667,82.5 86.8333,82.5 86.5,82.5C 85.6618,82.1583 85.3284,81.4916 85.5,80.5C 86.7736,79.8106 86.7736,78.9772 85.5,78C 79.2149,75.6768 72.8816,74.1768 66.5,73.5C 70.8021,72.6572 75.4688,72.4905 80.5,73C 84.3753,74.3796 87.042,76.8796 88.5,80.5 Z"/></g>
<g><path style="opacity:1" fill="#afa619" d="M 6.5,69.5 C 6.83333,69.5 7.16667,69.5 7.5,69.5C 7.5,70.5 7.5,71.5 7.5,72.5C 7.13068,74.9935 7.79734,75.6602 9.5,74.5C 20.0214,75.1248 30.0214,73.4581 39.5,69.5C 40.5,69.5 41.5,69.5 42.5,69.5C 41.0254,71.4095 39.0254,72.5762 36.5,73C 27.3987,74.7568 18.3987,76.2568 9.5,77.5C 8.83333,77.5 8.16667,77.5 7.5,77.5C 7.5,76.8333 7.16667,76.5 6.5,76.5C 6.5,74.1667 6.5,71.8333 6.5,69.5 Z"/></g>
<g><path style="opacity:1" fill="#b4ab1a" d="M 39.5,69.5 C 30.0214,73.4581 20.0214,75.1248 9.5,74.5C 14.8753,73.7619 20.2086,72.7619 25.5,71.5C 30.1667,70.8333 34.8333,70.1667 39.5,69.5 Z"/></g>
<g><path style="opacity:1" fill="#bbb320" d="M 9.5,71.5 C 13.8333,71.5 18.1667,71.5 22.5,71.5C 23.5,71.5 24.5,71.5 25.5,71.5C 20.2086,72.7619 14.8753,73.7619 9.5,74.5C 7.79734,75.6602 7.13068,74.9935 7.5,72.5C 8.16667,72.1667 8.83333,71.8333 9.5,71.5 Z"/></g>
<g><path style="opacity:1" fill="#9e9110" d="M 66.5,73.5 C 72.8816,74.1768 79.2149,75.6768 85.5,78C 86.7736,78.9772 86.7736,79.8106 85.5,80.5C 78.3365,77.0064 71.0031,75.3397 63.5,75.5C 61.5248,75.1778 59.8582,75.1778 58.5,75.5C 57.6618,75.1583 57.3284,74.4916 57.5,73.5C 60.1897,73.3387 63.1897,73.3387 66.5,73.5 Z"/></g>
<g><path style="opacity:0.004" fill="#d2d200" d="M 55.5,74.5 C 55.5,75.1667 55.5,75.8333 55.5,76.5C 54.1667,75.8333 54.1667,75.1667 55.5,74.5 Z"/></g>
<g><path style="opacity:1" fill="#9a8d10" d="M 63.5,75.5 C 71.0031,75.3397 78.3365,77.0064 85.5,80.5C 85.3284,81.4916 85.6618,82.1583 86.5,82.5C 86.5,82.8333 86.5,83.1667 86.5,83.5C 86.1667,83.5 85.8333,83.5 85.5,83.5C 84.8333,83.5 84.5,83.1667 84.5,82.5C 84.3893,81.8826 84.056,81.3826 83.5,81C 76.7292,79.0879 70.0625,77.2546 63.5,75.5 Z"/></g>
<g><path style="opacity:0.016" fill="#908f2a" d="M 6.5,76.5 C 6.5,77.8333 6.5,79.1667 6.5,80.5C 5.16667,79.1667 5.16667,77.8333 6.5,76.5 Z"/></g>
<g><path style="opacity:1" fill="#94860e" d="M 63.5,75.5 C 70.0625,77.2546 76.7292,79.0879 83.5,81C 84.056,81.3826 84.3893,81.8826 84.5,82.5C 84.1667,82.5 83.8333,82.5 83.5,82.5C 77.2696,80.4537 70.9363,78.7871 64.5,77.5C 62.2143,77.405 60.2143,76.7384 58.5,75.5C 59.8582,75.1778 61.5248,75.1778 63.5,75.5 Z"/></g>
<g><path style="opacity:1" fill="#998b13" d="M 45.5,75.5 C 46.1667,75.5 46.5,75.8333 46.5,76.5C 46.5,76.8333 46.5,77.1667 46.5,77.5C 46.5,78.1667 46.1667,78.5 45.5,78.5C 45.1667,77.1667 44.8333,77.1667 44.5,78.5C 43.6618,78.8417 43.3284,79.5084 43.5,80.5C 42.8333,80.5 42.5,80.8333 42.5,81.5C 42.1667,81.5 41.8333,81.5 41.5,81.5C 41.1667,81.5 40.8333,81.5 40.5,81.5C 40.631,80.7611 40.4643,80.0944 40,79.5C 38.5093,81.0037 36.676,81.8371 34.5,82C 26.8406,82.4997 19.1739,82.6664 11.5,82.5C 10.6618,82.1583 10.3284,81.4916 10.5,80.5C 18.5069,80.6664 26.5069,80.4997 34.5,80C 39.0432,79.4456 42.5432,77.2789 45,73.5C 45.4643,74.0944 45.631,74.7611 45.5,75.5 Z"/></g>
<g><path style="opacity:1" fill="#907c18" d="M 55.5,74.5 C 55.5,74.1667 55.5,73.8333 55.5,73.5C 56.1667,73.5 56.8333,73.5 57.5,73.5C 57.3284,74.4916 57.6618,75.1583 58.5,75.5C 60.2143,76.7384 62.2143,77.405 64.5,77.5C 65.3065,78.7281 66.3065,79.7281 67.5,80.5C 68.8333,81.5 70.1667,82.5 71.5,83.5C 68.6592,83.5597 65.9925,84.2264 63.5,85.5C 61.4666,81.8076 58.8,78.8076 55.5,76.5C 56.8333,75.8333 56.8333,75.1667 55.5,74.5 Z"/></g>
<g><path style="opacity:0.004" fill="#ead300" d="M 44.5,78.5 C 44.8333,78.5 45.1667,78.5 45.5,78.5C 45.6716,79.4916 45.3382,80.1583 44.5,80.5C 44.5,79.8333 44.5,79.1667 44.5,78.5 Z"/></g>
<g><path style="opacity:1" fill="#8f800d" d="M 64.5,77.5 C 70.9363,78.7871 77.2696,80.4537 83.5,82.5C 83.2648,83.0967 82.7648,83.4301 82,83.5C 77.2048,82.2591 72.3715,81.2591 67.5,80.5C 66.3065,79.7281 65.3065,78.7281 64.5,77.5 Z"/></g>
<g><path style="opacity:0.008" fill="#7e7f00" d="M 43.5,80.5 C 43.8333,80.5 44.1667,80.5 44.5,80.5C 44.3147,81.1701 43.9813,81.1701 43.5,80.5 Z"/></g>
<g><path style="opacity:0.008" fill="#feff00" d="M 89.5,80.5 C 90.8333,81.1667 90.8333,81.1667 89.5,80.5 Z"/></g>
<g><path style="opacity:0.012" fill="#b1b04e" d="M 6.5,80.5 C 6.83333,80.5 7.16667,80.5 7.5,80.5C 7.5,81.1667 7.5,81.8333 7.5,82.5C 6.66175,82.1583 6.32842,81.4916 6.5,80.5 Z"/></g>
<g><path style="opacity:0.016" fill="#7e7f00" d="M 88.5,81.5 C 88.8333,81.5 89.1667,81.5 89.5,81.5C 89.3147,82.1701 88.9813,82.1701 88.5,81.5 Z"/></g>
<g><path style="opacity:1" fill="#94850f" d="M 40.5,81.5 C 34.4808,84.0894 28.1475,85.0894 21.5,84.5C 18.1897,84.3387 15.1897,84.3387 12.5,84.5C 12.1667,84.5 11.8333,84.5 11.5,84.5C 11.5,83.8333 11.5,83.1667 11.5,82.5C 19.1739,82.6664 26.8406,82.4997 34.5,82C 36.676,81.8371 38.5093,81.0037 40,79.5C 40.4643,80.0944 40.631,80.7611 40.5,81.5 Z"/></g>
<g><path style="opacity:0.999" fill="#8d7811" d="M 67.5,80.5 C 72.3715,81.2591 77.2048,82.2591 82,83.5C 82.7648,83.4301 83.2648,83.0967 83.5,82.5C 83.8333,82.5 84.1667,82.5 84.5,82.5C 84.5,83.1667 84.8333,83.5 85.5,83.5C 85.5,83.8333 85.5,84.1667 85.5,84.5C 84.1667,84.8333 84.1667,85.1667 85.5,85.5C 85.0269,86.9063 84.0269,87.573 82.5,87.5C 81.8333,86.1667 81.1667,86.1667 80.5,87.5C 80.1667,87.5 79.8333,87.5 79.5,87.5C 76.6946,86.6805 73.6946,86.1805 70.5,86C 72.8333,85.6667 75.1667,85.3333 77.5,85C 75.2922,84.8091 73.2922,84.3091 71.5,83.5C 70.1667,82.5 68.8333,81.5 67.5,80.5 Z"/></g>
<g><path style="opacity:0.012" fill="#a9aa00" d="M 87.5,82.5 C 87.8333,82.5 88.1667,82.5 88.5,82.5C 88.3147,83.1701 87.9813,83.1701 87.5,82.5 Z"/></g>
<g><path style="opacity:0.004" fill="#d2d200" d="M 7.5,82.5 C 7.83333,82.5 8.16667,82.5 8.5,82.5C 8.5,83.1667 8.5,83.8333 8.5,84.5C 7.66175,84.1583 7.32842,83.4916 7.5,82.5 Z"/></g>
<g><path style="opacity:0.998" fill="#9c8b17" d="M 40.5,81.5 C 40.8333,81.5 41.1667,81.5 41.5,81.5C 41.8333,82.8333 42.1667,82.8333 42.5,81.5C 42.8333,81.5 43.1667,81.5 43.5,81.5C 43.573,83.0269 42.9063,84.0269 41.5,84.5C 41.1667,83.1667 40.8333,83.1667 40.5,84.5C 39.8333,84.5 39.5,84.8333 39.5,85.5C 39.1667,85.5 38.8333,85.5 38.5,85.5C 35.7227,85.7863 32.8894,86.1197 30,86.5C 27.0614,85.8719 24.2281,85.2052 21.5,84.5C 28.1475,85.0894 34.4808,84.0894 40.5,81.5 Z"/></g>
<g><path style="opacity:0.008" fill="#feff00" d="M 86.5,83.5 C 86.8333,83.5 87.1667,83.5 87.5,83.5C 87.3147,84.1701 86.9813,84.1701 86.5,83.5 Z"/></g>
<g><path style="opacity:0.008" fill="#7e7f00" d="M 40.5,84.5 C 40.8333,84.5 41.1667,84.5 41.5,84.5C 41.3147,85.1701 40.9813,85.1701 40.5,84.5 Z"/></g>
<g><path style="opacity:0.02" fill="#656600" d="M 85.5,84.5 C 85.8333,84.5 86.1667,84.5 86.5,84.5C 86.3147,85.1701 85.9813,85.1701 85.5,84.5 Z"/></g>
<g><path style="opacity:0.999" fill="#8d7c11" d="M 21.5,84.5 C 24.2281,85.2052 27.0614,85.8719 30,86.5C 32.8894,86.1197 35.7227,85.7863 38.5,85.5C 38.5,86.1667 38.8333,86.5 39.5,86.5C 38.1979,88.8218 36.1979,90.1551 33.5,90.5C 33.5,89.8333 33.1667,89.5 32.5,89.5C 29.4017,89.5875 29.0684,89.0875 31.5,88C 26.3158,87.1837 21.3158,87.3503 16.5,88.5C 14.8333,87.5 13.5,86.1667 12.5,84.5C 15.1897,84.3387 18.1897,84.3387 21.5,84.5 Z"/></g>
<g><path style="opacity:0.012" fill="#545500" d="M 39.5,85.5 C 39.8333,85.5 40.1667,85.5 40.5,85.5C 40.3147,86.1701 39.9813,86.1701 39.5,85.5 Z"/></g>
<g><path style="opacity:0.607" fill="#847117" d="M 71.5,83.5 C 73.2922,84.3091 75.2922,84.8091 77.5,85C 75.1667,85.3333 72.8333,85.6667 70.5,86C 73.6946,86.1805 76.6946,86.6805 79.5,87.5C 77.1497,88.1103 77.483,88.4437 80.5,88.5C 74.3523,91.1383 68.6857,90.1383 63.5,85.5C 65.9925,84.2264 68.6592,83.5597 71.5,83.5 Z"/></g>
<g><path style="opacity:0.994" fill="#866e13" d="M 16.5,88.5 C 21.3158,87.3503 26.3158,87.1837 31.5,88C 29.0684,89.0875 29.4017,89.5875 32.5,89.5C 33.1667,89.5 33.5,89.8333 33.5,90.5C 29.1263,94.17 24.1263,95.17 18.5,93.5C 18.5,93.1667 18.5,92.8333 18.5,92.5C 21.1667,92.1667 21.1667,91.8333 18.5,91.5C 18.7148,89.8212 18.0481,88.8212 16.5,88.5 Z"/></g>
<g><path style="opacity:0.012" fill="#9b9b00" d="M 80.5,88.5 C 80.5,88.1667 80.5,87.8333 80.5,87.5C 81.1667,87.5 81.8333,87.5 82.5,87.5C 82.1583,88.3382 81.4916,88.6716 80.5,88.5 Z"/></g>
<g><path style="opacity:0.318" fill="#a2931a" d="M 8.5,84.5 C 8.83333,84.5 9.16667,84.5 9.5,84.5C 9.83333,85.8333 10.1667,85.8333 10.5,84.5C 10.8333,84.5 11.1667,84.5 11.5,84.5C 11.8333,84.5 12.1667,84.5 12.5,84.5C 13.5,86.1667 14.8333,87.5 16.5,88.5C 18.0481,88.8212 18.7148,89.8212 18.5,91.5C 18.5,91.8333 18.5,92.1667 18.5,92.5C 18.5,92.8333 18.5,93.1667 18.5,93.5C 13.878,91.8675 10.5447,88.8675 8.5,84.5 Z"/></g>
</svg>
