<?xml version="1.0" encoding="UTF-8"?>
<!DOCTYPE svg PUBLIC "-//W3C//DTD SVG 1.1//EN" "http://www.w3.org/Graphics/SVG/1.1/DTD/svg11.dtd">
<svg xmlns="http://www.w3.org/2000/svg" version="1.1" width="100px" height="100px" style="shape-rendering:geometricPrecision; text-rendering:geometricPrecision; image-rendering:optimizeQuality; fill-rule:evenodd; clip-rule:evenodd" xmlns:xlink="http://www.w3.org/1999/xlink">
<g><path style="opacity:0.008" fill="#79eb94" d="M 35.5,6.5 C 36.0968,5.86137 36.9302,5.52804 38,5.5C 39.6991,5.38655 40.8658,6.05322 41.5,7.5C 40.8333,7.5 40.1667,7.5 39.5,7.5C 38.4324,6.56552 37.099,6.23219 35.5,6.5 Z"/></g>
<g><path style="opacity:0.992" fill="#8adcad" d="M 35.5,6.5 C 35.5,6.83333 35.5,7.16667 35.5,7.5C 36.6002,8.55847 37.9336,9.3918 39.5,10C 32.8108,10.4463 26.1442,11.113 19.5,12C 18.5842,12.2784 17.9175,12.7784 17.5,13.5C 16.2905,13.9321 15.2905,14.5987 14.5,15.5C 11.9017,16.5278 11.9017,17.5278 14.5,18.5C 11.7524,18.4017 11.0857,19.4017 12.5,21.5C 12.1667,21.5 11.8333,21.5 11.5,21.5C 10.3054,21.1344 9.63874,20.301 9.5,19C 10.5733,17.5838 10.5733,16.2504 9.5,15C 10.6291,12.8322 12.1291,12.3322 14,13.5C 14.242,11.8619 15.0753,10.3619 16.5,9C 18.5364,8.54643 20.3697,7.7131 22,6.5C 26.4361,6.97428 30.9361,6.97428 35.5,6.5 Z"/></g>
<g><path style="opacity:0.929" fill="#67d298" d="M 35.5,7.5 C 36.8333,7.5 38.1667,7.5 39.5,7.5C 40.1667,8.83333 40.8333,8.83333 41.5,7.5C 44.5976,8.21593 47.2643,9.71593 49.5,12C 49.2716,12.3988 48.9382,12.5654 48.5,12.5C 38.1277,12.2396 27.7944,12.5729 17.5,13.5C 17.9175,12.7784 18.5842,12.2784 19.5,12C 26.1442,11.113 32.8108,10.4463 39.5,10C 37.9336,9.3918 36.6002,8.55847 35.5,7.5 Z"/></g>
<g><path style="opacity:1" fill="#41c176" d="M 48.5,12.5 C 49.8333,14.1667 51.1667,15.8333 52.5,17.5C 52.5,18.1667 52.5,18.8333 52.5,19.5C 51.8333,19.5 51.1667,19.5 50.5,19.5C 50.6716,18.5084 50.3382,17.8417 49.5,17.5C 49.4226,16.2502 48.756,15.4169 47.5,15C 36.4779,14.2867 25.4779,14.4534 14.5,15.5C 15.2905,14.5987 16.2905,13.9321 17.5,13.5C 27.7944,12.5729 38.1277,12.2396 48.5,12.5 Z"/></g>
<g><path style="opacity:1" fill="#29b45e" d="M 49.5,17.5 C 48.8333,17.8333 48.1667,18.1667 47.5,18.5C 42.5442,17.1718 37.2109,16.5051 31.5,16.5C 25.7891,16.5051 20.4558,17.1718 15.5,18.5C 15.1667,18.5 14.8333,18.5 14.5,18.5C 11.9017,17.5278 11.9017,16.5278 14.5,15.5C 25.4779,14.4534 36.4779,14.2867 47.5,15C 48.756,15.4169 49.4226,16.2502 49.5,17.5 Z"/></g>
<g><path style="opacity:1" fill="#1aa246" d="M 47.5,18.5 C 37.3468,19.4942 27.0135,19.8276 16.5,19.5C 15.8333,19.5 15.5,19.1667 15.5,18.5C 20.4558,17.1718 25.7891,16.5051 31.5,16.5C 37.2109,16.5051 42.5442,17.1718 47.5,18.5 Z"/></g>
<g><path style="opacity:0.012" fill="#3bb872" d="M 7.5,17.5 C 8.57346,18.2506 8.74012,19.2506 8,20.5C 7.51722,19.552 7.35055,18.552 7.5,17.5 Z"/></g>
<g><path style="opacity:1" fill="#9adbb6" d="M 14.5,18.5 C 14.8333,18.5 15.1667,18.5 15.5,18.5C 15.5,19.1667 15.8333,19.5 16.5,19.5C 23.1667,20.1667 29.8333,20.8333 36.5,21.5C 36.6106,23.6477 35.944,23.981 34.5,22.5C 33.6919,22.8076 33.0253,23.3076 32.5,24C 27.1387,24.6086 21.8054,24.4419 16.5,23.5C 14.9382,23.2671 13.6049,22.6005 12.5,21.5C 11.0857,19.4017 11.7524,18.4017 14.5,18.5 Z"/></g>
<g><path style="opacity:1" fill="#80d6a6" d="M 49.5,17.5 C 50.3382,17.8417 50.6716,18.5084 50.5,19.5C 48.3428,21.4121 46.0094,23.0787 43.5,24.5C 41.5,24.8333 39.5,25.1667 37.5,25.5C 38.6002,24.4415 39.9336,23.6082 41.5,23C 39.7525,22.6481 38.0858,22.1481 36.5,21.5C 29.8333,20.8333 23.1667,20.1667 16.5,19.5C 27.0135,19.8276 37.3468,19.4942 47.5,18.5C 48.1667,18.1667 48.8333,17.8333 49.5,17.5 Z"/></g>
<g><path style="opacity:0.859" fill="#f6d379" d="M 53.5,17.5 C 54.0968,16.8614 54.9302,16.528 56,16.5C 62.2856,17.2627 67.7856,19.596 72.5,23.5C 71.1667,23.8333 71.1667,24.1667 72.5,24.5C 72.4226,25.7498 71.756,26.5831 70.5,27C 73.3224,29.8554 72.9891,30.6887 69.5,29.5C 69.1667,29.5 68.8333,29.5 68.5,29.5C 66.1444,26.9623 63.4777,24.7956 60.5,23C 59.2068,22.51 57.8734,22.3433 56.5,22.5C 55.8333,22.5 55.5,22.8333 55.5,23.5C 55.1667,23.5 54.8333,23.5 54.5,23.5C 54.3713,21.7839 54.038,20.1172 53.5,18.5C 54.8333,18.1667 54.8333,17.8333 53.5,17.5 Z"/></g>
<g><path style="opacity:1" fill="#196327" d="M 50.5,19.5 C 51.1667,19.5 51.8333,19.5 52.5,19.5C 51.2271,21.7128 50.2271,24.0462 49.5,26.5C 44.5628,29.0688 39.2295,30.0688 33.5,29.5C 31.8333,29.5 30.1667,29.5 28.5,29.5C 27.8333,29.5 27.1667,29.5 26.5,29.5C 25.5084,29.6716 24.8417,29.3382 24.5,28.5C 31.4138,29.3099 37.7471,27.9766 43.5,24.5C 46.0094,23.0787 48.3428,21.4121 50.5,19.5 Z"/></g>
<g><path style="opacity:1" fill="#8ed4ac" d="M 36.5,21.5 C 38.0858,22.1481 39.7525,22.6481 41.5,23C 39.9336,23.6082 38.6002,24.4415 37.5,25.5C 32.0154,26.6517 26.3487,26.8184 20.5,26C 19.1416,25.0656 17.8083,24.2323 16.5,23.5C 21.8054,24.4419 27.1387,24.6086 32.5,24C 33.0253,23.3076 33.6919,22.8076 34.5,22.5C 35.944,23.981 36.6106,23.6477 36.5,21.5 Z"/></g>
<g><path style="opacity:1" fill="#49a65f" d="M 11.5,21.5 C 11.8333,21.5 12.1667,21.5 12.5,21.5C 13.6049,22.6005 14.9382,23.2671 16.5,23.5C 17.8083,24.2323 19.1416,25.0656 20.5,26C 26.3487,26.8184 32.0154,26.6517 37.5,25.5C 39.5,25.1667 41.5,24.8333 43.5,24.5C 37.7471,27.9766 31.4138,29.3099 24.5,28.5C 23.8333,28.5 23.1667,28.5 22.5,28.5C 21.8333,28.5 21.5,28.8333 21.5,29.5C 20.8333,29.5 20.5,29.8333 20.5,30.5C 19.8333,30.5 19.5,30.8333 19.5,31.5C 18.8333,31.5 18.5,31.8333 18.5,32.5C 17.3473,31.6868 17.3473,30.6868 18.5,29.5C 16.1667,27.6667 13.8333,25.8333 11.5,24C 12.5981,23.2303 12.5981,22.397 11.5,21.5 Z"/></g>
<g><path style="opacity:1" fill="#7eca9c" d="M 52.5,17.5 C 52.8333,17.5 53.1667,17.5 53.5,17.5C 53.5,17.8333 53.5,18.1667 53.5,18.5C 54.038,20.1172 54.3713,21.7839 54.5,23.5C 54.5,25.5 54.5,27.5 54.5,29.5C 51.8788,34.8073 49.2122,40.1407 46.5,45.5C 45.2652,45.7214 44.2652,46.3881 43.5,47.5C 43.1667,47.1667 42.8333,46.8333 42.5,46.5C 43.5514,43.243 44.2181,39.9097 44.5,36.5C 45.6551,32.8564 47.3218,29.5231 49.5,26.5C 50.2271,24.0462 51.2271,21.7128 52.5,19.5C 52.5,18.8333 52.5,18.1667 52.5,17.5 Z"/></g>
<g><path style="opacity:1" fill="#f4c94a" d="M 56.5,22.5 C 58.8518,26.0092 62.0185,28.6759 66,30.5C 66.4561,31.7441 65.9561,32.5774 64.5,33C 65.8228,33.8159 66.4894,34.9826 66.5,36.5C 63.4607,33.4602 60.1274,30.7935 56.5,28.5C 56.3713,26.7839 56.038,25.1172 55.5,23.5C 55.5,22.8333 55.8333,22.5 56.5,22.5 Z"/></g>
<g><path style="opacity:1" fill="#edc46e" d="M 72.5,23.5 C 74.3786,23.3932 74.7119,23.8932 73.5,25C 74.5433,26.9756 75.8767,27.4756 77.5,26.5C 80.5651,27.976 81.8985,30.1427 81.5,33C 82.3805,33.7083 83.0472,34.5416 83.5,35.5C 82.1779,35.67 81.0113,35.3366 80,34.5C 79.5172,35.448 79.3505,36.448 79.5,37.5C 75.3603,36.0462 72.0269,33.3796 69.5,29.5C 72.9891,30.6887 73.3224,29.8554 70.5,27C 71.756,26.5831 72.4226,25.7498 72.5,24.5C 72.5,24.1667 72.5,23.8333 72.5,23.5 Z"/></g>
<g><path style="opacity:1" fill="#f3c955" d="M 56.5,22.5 C 57.8734,22.3433 59.2068,22.51 60.5,23C 63.4777,24.7956 66.1444,26.9623 68.5,29.5C 68.9565,32.4056 69.9565,35.0722 71.5,37.5C 70.8333,37.5 70.5,37.8333 70.5,38.5C 70.1667,38.5 69.8333,38.5 69.5,38.5C 68.5,37.8333 67.5,37.1667 66.5,36.5C 66.4894,34.9826 65.8228,33.8159 64.5,33C 65.9561,32.5774 66.4561,31.7441 66,30.5C 62.0185,28.6759 58.8518,26.0092 56.5,22.5 Z"/></g>
<g><path style="opacity:1" fill="#efbe3e" d="M 56.5,28.5 C 60.1274,30.7935 63.4607,33.4602 66.5,36.5C 67.5,37.1667 68.5,37.8333 69.5,38.5C 68.1516,39.6006 66.6516,40.6006 65,41.5C 64.1475,39.8753 63.1475,39.5419 62,40.5C 61.5779,38.6447 61.0779,36.8114 60.5,35C 60.1639,33.9701 59.4972,33.4701 58.5,33.5C 58.631,32.7611 58.4643,32.0944 58,31.5C 57.7679,32.7375 57.2679,33.7375 56.5,34.5C 56.5,32.5 56.5,30.5 56.5,28.5 Z"/></g>
<g><path style="opacity:0.012" fill="#bfbe57" d="M 85.5,37.5 C 85.5,36.8333 85.1667,36.5 84.5,36.5C 84.7467,34.0248 85.4134,34.0248 86.5,36.5C 86.3764,37.1067 86.0431,37.44 85.5,37.5 Z"/></g>
<g><path style="opacity:1" fill="#f3c570" d="M 22.5,28.5 C 23.1667,28.5 23.8333,28.5 24.5,28.5C 24.8417,29.3382 25.5084,29.6716 26.5,29.5C 23.3941,32.7829 20.3941,36.2829 17.5,40C 16.255,40.7914 14.9217,41.2914 13.5,41.5C 13.6716,40.5084 13.3382,39.8417 12.5,39.5C 14.8045,38.1476 16.8045,35.8143 18.5,32.5C 19.1667,32.5 19.5,32.1667 19.5,31.5C 20.1667,31.5 20.5,31.1667 20.5,30.5C 21.1667,30.5 21.5,30.1667 21.5,29.5C 22.1667,29.5 22.5,29.1667 22.5,28.5 Z"/></g>
<g><path style="opacity:1" fill="#ce772b" d="M 28.5,29.5 C 30.1667,29.5 31.8333,29.5 33.5,29.5C 33.5,29.8333 33.5,30.1667 33.5,30.5C 31.1324,32.9557 30.1324,35.9557 30.5,39.5C 27.9556,39.1043 25.7889,39.771 24,41.5C 22.4807,39.8608 22.314,38.1942 23.5,36.5C 25.4974,34.487 27.164,32.1537 28.5,29.5 Z"/></g>
<g><path style="opacity:1" fill="#2ba255" d="M 49.5,26.5 C 47.3218,29.5231 45.6551,32.8564 44.5,36.5C 42.084,41.2219 39.7507,46.0553 37.5,51C 37.8333,51.5 38.1667,52 38.5,52.5C 40.8505,51.1389 43.1838,49.8056 45.5,48.5C 46.1667,48.5 46.8333,48.5 47.5,48.5C 44.0864,51.5402 40.0864,53.5402 35.5,54.5C 34.8333,53.5 34.1667,52.5 33.5,51.5C 33.4431,50.391 33.1098,49.391 32.5,48.5C 32.5,47.8333 32.5,47.1667 32.5,46.5C 33.8471,47.1712 35.0138,47.1712 36,46.5C 37.3686,42.2674 38.8686,38.1008 40.5,34C 40.4148,32.8926 40.0814,31.8926 39.5,31C 37.5273,30.5045 35.5273,30.3379 33.5,30.5C 33.5,30.1667 33.5,29.8333 33.5,29.5C 39.2295,30.0688 44.5628,29.0688 49.5,26.5 Z"/></g>
<g><path style="opacity:1" fill="#53bd7f" d="M 54.5,29.5 C 55.2948,35.2955 53.4615,39.9622 49,43.5C 48.5065,45.1341 48.3398,46.8008 48.5,48.5C 48.1667,48.5 47.8333,48.5 47.5,48.5C 46.8333,48.5 46.1667,48.5 45.5,48.5C 45.5569,47.391 45.8902,46.391 46.5,45.5C 49.2122,40.1407 51.8788,34.8073 54.5,29.5 Z"/></g>
<g><path style="opacity:1" fill="#eeb838" d="M 58.5,33.5 C 59.4972,33.4701 60.1639,33.9701 60.5,35C 61.0779,36.8114 61.5779,38.6447 62,40.5C 63.1475,39.5419 64.1475,39.8753 65,41.5C 66.6516,40.6006 68.1516,39.6006 69.5,38.5C 69.8333,38.5 70.1667,38.5 70.5,38.5C 71.0283,39.7206 71.695,40.8873 72.5,42C 71.7562,43.0386 70.7562,43.5386 69.5,43.5C 67.9139,42.5868 66.4139,42.5868 65,43.5C 63.2213,40.7236 62.2213,41.0569 62,44.5C 61.5848,42.7091 60.5848,41.3757 59,40.5C 58.5034,38.1902 58.3367,35.8568 58.5,33.5 Z"/></g>
<g><path style="opacity:1" fill="#44b56d" d="M 33.5,30.5 C 35.5273,30.3379 37.5273,30.5045 39.5,31C 40.0814,31.8926 40.4148,32.8926 40.5,34C 38.8686,38.1008 37.3686,42.2674 36,46.5C 35.0138,47.1712 33.8471,47.1712 32.5,46.5C 31.0762,44.4855 30.4095,42.1522 30.5,39.5C 30.1324,35.9557 31.1324,32.9557 33.5,30.5 Z"/></g>
<g><path style="opacity:1" fill="#f0c25e" d="M 68.5,29.5 C 68.8333,29.5 69.1667,29.5 69.5,29.5C 72.0269,33.3796 75.3603,36.0462 79.5,37.5C 79.3505,36.448 79.5172,35.448 80,34.5C 81.0113,35.3366 82.1779,35.67 83.5,35.5C 83.5,35.8333 83.5,36.1667 83.5,36.5C 82.5188,38.3092 81.0188,39.6426 79,40.5C 76.5279,39.3989 74.0279,38.3989 71.5,37.5C 69.9565,35.0722 68.9565,32.4056 68.5,29.5 Z"/></g>
<g><path style="opacity:1" fill="#ecb031" d="M 58.5,33.5 C 58.3367,35.8568 58.5034,38.1902 59,40.5C 60.5848,41.3757 61.5848,42.7091 62,44.5C 62.2213,41.0569 63.2213,40.7236 65,43.5C 66.4139,42.5868 67.9139,42.5868 69.5,43.5C 70.5,44.1667 71.5,44.8333 72.5,45.5C 71.3121,46.6843 70.1455,46.6843 69,45.5C 68.5831,46.756 67.7498,47.4226 66.5,47.5C 65.4282,45.1602 63.7615,44.8269 61.5,46.5C 59.1917,46.0345 57.8584,44.7012 57.5,42.5C 57.8016,39.9407 57.4682,37.6074 56.5,35.5C 56.5,35.1667 56.5,34.8333 56.5,34.5C 57.2679,33.7375 57.7679,32.7375 58,31.5C 58.4643,32.0944 58.631,32.7611 58.5,33.5 Z"/></g>
<g><path style="opacity:1" fill="#3ca45b" d="M 54.5,23.5 C 54.8333,23.5 55.1667,23.5 55.5,23.5C 56.038,25.1172 56.3713,26.7839 56.5,28.5C 56.5,30.5 56.5,32.5 56.5,34.5C 56.5,34.8333 56.5,35.1667 56.5,35.5C 55.7659,36.7079 55.4326,38.0413 55.5,39.5C 54.235,41.7912 52.9017,44.1246 51.5,46.5C 50.5,46.8333 49.8333,47.5 49.5,48.5C 49.1667,48.5 48.8333,48.5 48.5,48.5C 48.3398,46.8008 48.5065,45.1341 49,43.5C 53.4615,39.9622 55.2948,35.2955 54.5,29.5C 54.5,27.5 54.5,25.5 54.5,23.5 Z"/></g>
<g><path style="opacity:1" fill="#edb545" d="M 83.5,36.5 C 83.8333,36.5 84.1667,36.5 84.5,36.5C 85.1667,36.5 85.5,36.8333 85.5,37.5C 85.5569,38.609 85.8902,39.609 86.5,40.5C 84.5475,41.6258 83.0475,43.2925 82,45.5C 78.3252,45.4918 75.1586,45.4918 72.5,45.5C 71.5,44.8333 70.5,44.1667 69.5,43.5C 70.7562,43.5386 71.7562,43.0386 72.5,42C 71.695,40.8873 71.0283,39.7206 70.5,38.5C 70.5,37.8333 70.8333,37.5 71.5,37.5C 74.0279,38.3989 76.5279,39.3989 79,40.5C 81.0188,39.6426 82.5188,38.3092 83.5,36.5 Z"/></g>
<g><path style="opacity:0.016" fill="#ed9326" d="M 90.5,47.5 C 90.1667,47.5 89.8333,47.5 89.5,47.5C 89.7373,46.209 89.404,45.209 88.5,44.5C 88.3505,43.448 88.5172,42.448 89,41.5C 90.128,43.3453 90.628,45.3453 90.5,47.5 Z"/></g>
<g><path style="opacity:1" fill="#eaa847" d="M 26.5,29.5 C 27.1667,29.5 27.8333,29.5 28.5,29.5C 27.164,32.1537 25.4974,34.487 23.5,36.5C 21.9147,37.4737 20.9147,38.9737 20.5,41C 20.8333,41.3333 21.1667,41.6667 21.5,42C 20.4209,43.8587 19.0876,45.3587 17.5,46.5C 15.3888,47.3799 13.3888,47.3799 11.5,46.5C 12.0199,44.0513 12.3532,41.718 12.5,39.5C 12.3284,40.4916 12.6618,41.1583 13.5,41.5C 14.9217,41.2914 16.255,40.7914 17.5,40C 20.3941,36.2829 23.3941,32.7829 26.5,29.5 Z"/></g>
<g><path style="opacity:1" fill="#e89f2c" d="M 23.5,36.5 C 22.314,38.1942 22.4807,39.8608 24,41.5C 25.7889,39.771 27.9556,39.1043 30.5,39.5C 30.4095,42.1522 31.0762,44.4855 32.5,46.5C 32.5,47.1667 32.5,47.8333 32.5,48.5C 31.8333,48.5 31.5,48.8333 31.5,49.5C 28.284,48.9705 25.1174,48.3038 22,47.5C 20.2507,48.5532 18.7507,48.2199 17.5,46.5C 19.0876,45.3587 20.4209,43.8587 21.5,42C 21.1667,41.6667 20.8333,41.3333 20.5,41C 20.9147,38.9737 21.9147,37.4737 23.5,36.5 Z"/></g>
<g><path style="opacity:1" fill="#74c897" d="M 44.5,36.5 C 44.2181,39.9097 43.5514,43.243 42.5,46.5C 42.8333,46.8333 43.1667,47.1667 43.5,47.5C 44.2652,46.3881 45.2652,45.7214 46.5,45.5C 45.8902,46.391 45.5569,47.391 45.5,48.5C 43.1838,49.8056 40.8505,51.1389 38.5,52.5C 38.1667,52 37.8333,51.5 37.5,51C 39.7507,46.0553 42.084,41.2219 44.5,36.5 Z"/></g>
<g><path style="opacity:1" fill="#eaa830" d="M 86.5,40.5 C 86.9887,41.9952 87.6554,43.3285 88.5,44.5C 88.5,45.1667 88.5,45.8333 88.5,46.5C 85.9379,45.8917 83.2712,46.0584 80.5,47C 79.2298,47.8996 78.2298,49.0663 77.5,50.5C 76.2507,48.5245 74.7507,48.1912 73,49.5C 70.723,48.8828 68.5563,48.2161 66.5,47.5C 67.7498,47.4226 68.5831,46.756 69,45.5C 70.1455,46.6843 71.3121,46.6843 72.5,45.5C 75.1586,45.4918 78.3252,45.4918 82,45.5C 83.0475,43.2925 84.5475,41.6258 86.5,40.5 Z"/></g>
<g><path style="opacity:1" fill="#ea9923" d="M 11.5,46.5 C 13.3888,47.3799 15.3888,47.3799 17.5,46.5C 18.7507,48.2199 20.2507,48.5532 22,47.5C 25.1174,48.3038 28.284,48.9705 31.5,49.5C 30.7046,54.4676 28.8712,54.801 26,50.5C 25.6667,51.1667 25.3333,51.8333 25,52.5C 21.4697,51.3211 17.9697,49.9878 14.5,48.5C 13.5832,49.1272 12.5832,49.4606 11.5,49.5C 11.5,48.8333 11.5,48.1667 11.5,47.5C 11.5,47.1667 11.5,46.8333 11.5,46.5 Z"/></g>
<g><path style="opacity:1" fill="#e8a025" d="M 57.5,42.5 C 57.8584,44.7012 59.1917,46.0345 61.5,46.5C 63.7615,44.8269 65.4282,45.1602 66.5,47.5C 68.5563,48.2161 70.723,48.8828 73,49.5C 74.7507,48.1912 76.2507,48.5245 77.5,50.5C 78.2298,49.0663 79.2298,47.8996 80.5,47C 83.2712,46.0584 85.9379,45.8917 88.5,46.5C 88.5,47.1667 88.8333,47.5 89.5,47.5C 89.5,48.1667 89.5,48.8333 89.5,49.5C 87.5588,49.8693 85.7255,50.536 84,51.5C 81.7403,49.0028 80.407,49.6695 80,53.5C 77.8646,51.7215 75.3646,51.0548 72.5,51.5C 69.122,51.3956 65.622,51.729 62,52.5C 61.5,52.3333 61,52.1667 60.5,52C 61.8333,51.3333 61.8333,50.6667 60.5,50C 58.5273,49.5045 56.5273,49.3379 54.5,49.5C 55.8689,47.2677 56.8689,44.9344 57.5,42.5 Z"/></g>
<g><path style="opacity:1" fill="#e6961c" d="M 54.5,49.5 C 56.5273,49.3379 58.5273,49.5045 60.5,50C 61.8333,50.6667 61.8333,51.3333 60.5,52C 61,52.1667 61.5,52.3333 62,52.5C 65.622,51.729 69.122,51.3956 72.5,51.5C 72.6107,52.1174 72.944,52.6174 73.5,53C 71.1484,53.2401 69.1484,54.0735 67.5,55.5C 66.391,55.4431 65.391,55.1098 64.5,54.5C 63.4168,54.5394 62.4168,54.8728 61.5,55.5C 60.4593,53.0087 59.6259,53.0087 59,55.5C 57.3523,54.283 55.519,53.4497 53.5,53C 54.0795,51.6651 54.4128,50.4985 54.5,49.5 Z"/></g>
<g><path style="opacity:1" fill="#e18918" d="M 56.5,35.5 C 57.4682,37.6074 57.8016,39.9407 57.5,42.5C 56.8689,44.9344 55.8689,47.2677 54.5,49.5C 54.4128,50.4985 54.0795,51.6651 53.5,53C 55.519,53.4497 57.3523,54.283 59,55.5C 59.6259,53.0087 60.4593,53.0087 61.5,55.5C 62.4168,54.8728 63.4168,54.5394 64.5,54.5C 64.5,55.8333 63.8333,56.5 62.5,56.5C 58.4544,57.9106 54.4544,58.5773 50.5,58.5C 51.7525,56.6612 51.7525,54.8278 50.5,53C 53.5677,49.4073 55.5677,45.2406 56.5,40.5C 56.3764,39.8933 56.0431,39.56 55.5,39.5C 55.4326,38.0413 55.7659,36.7079 56.5,35.5 Z"/></g>
<g><path style="opacity:1" fill="#e39016" d="M 89.5,49.5 C 89.5,52.8333 89.5,56.1667 89.5,59.5C 88.8826,59.6107 88.3826,59.944 88,60.5C 87.6667,58.8333 87.3333,57.1667 87,55.5C 86.6924,56.3081 86.1924,56.9747 85.5,57.5C 84.3044,57.1543 84.3044,56.6543 85.5,56C 84.451,55.5078 83.451,55.6744 82.5,56.5C 80.2737,54.0778 77.9404,54.0778 75.5,56.5C 73.7362,53.8228 72.5696,54.1562 72,57.5C 70.951,55.8934 69.451,55.2267 67.5,55.5C 69.1484,54.0735 71.1484,53.2401 73.5,53C 72.944,52.6174 72.6107,52.1174 72.5,51.5C 75.3646,51.0548 77.8646,51.7215 80,53.5C 80.407,49.6695 81.7403,49.0028 84,51.5C 85.7255,50.536 87.5588,49.8693 89.5,49.5 Z"/></g>
<g><path style="opacity:1" fill="#e68c18" d="M 31.5,49.5 C 31.5,48.8333 31.8333,48.5 32.5,48.5C 33.1098,49.391 33.4431,50.391 33.5,51.5C 32.2745,52.937 31.2745,54.6036 30.5,56.5C 27.5462,58.1475 25.3795,57.4808 24,54.5C 20.314,55.2454 16.9806,54.2454 14,51.5C 13.2828,52.0442 12.7828,52.7109 12.5,53.5C 12.1667,53.5 11.8333,53.5 11.5,53.5C 11.5,52.1667 11.5,50.8333 11.5,49.5C 12.5832,49.4606 13.5832,49.1272 14.5,48.5C 17.9697,49.9878 21.4697,51.3211 25,52.5C 25.3333,51.8333 25.6667,51.1667 26,50.5C 28.8712,54.801 30.7046,54.4676 31.5,49.5 Z"/></g>
<g><path style="opacity:1" fill="#de8213" d="M 64.5,54.5 C 65.391,55.1098 66.391,55.4431 67.5,55.5C 69.451,55.2267 70.951,55.8934 72,57.5C 72.5696,54.1562 73.7362,53.8228 75.5,56.5C 77.9404,54.0778 80.2737,54.0778 82.5,56.5C 83.451,55.6744 84.451,55.5078 85.5,56C 84.3044,56.6543 84.3044,57.1543 85.5,57.5C 86.1924,56.9747 86.6924,56.3081 87,55.5C 87.3333,57.1667 87.6667,58.8333 88,60.5C 88.3826,59.944 88.8826,59.6107 89.5,59.5C 89.5,60.8333 89.5,62.1667 89.5,63.5C 88.596,64.209 88.2627,65.209 88.5,66.5C 87.6618,66.8417 87.3284,67.5084 87.5,68.5C 87.1667,68.5 86.8333,68.5 86.5,68.5C 86.5,66.1667 86.5,63.8333 86.5,61.5C 83.383,61.3577 80.883,60.0244 79,57.5C 77.2072,59.9633 75.0406,60.63 72.5,59.5C 69.9773,58.7463 67.3106,58.0796 64.5,57.5C 63.056,58.981 62.3894,58.6477 62.5,56.5C 63.8333,56.5 64.5,55.8333 64.5,54.5 Z"/></g>
<g><path style="opacity:1" fill="#e17a10" d="M 33.5,51.5 C 34.1667,52.5 34.8333,53.5 35.5,54.5C 34.4918,57.3245 32.8251,59.8245 30.5,62C 29.4232,62.4696 28.4232,62.3029 27.5,61.5C 26.7688,61.0582 25.7688,60.8915 24.5,61C 25.4506,60.2825 25.6172,59.4491 25,58.5C 22.3819,59.3488 20.0486,59.3488 18,58.5C 17.935,56.1167 17.1017,55.45 15.5,56.5C 14.7124,55.2299 13.7124,54.2299 12.5,53.5C 12.7828,52.7109 13.2828,52.0442 14,51.5C 16.9806,54.2454 20.314,55.2454 24,54.5C 25.3795,57.4808 27.5462,58.1475 30.5,56.5C 31.2745,54.6036 32.2745,52.937 33.5,51.5 Z"/></g>
<g><path style="opacity:1" fill="#ca5809" d="M 47.5,48.5 C 47.8333,48.5 48.1667,48.5 48.5,48.5C 48.8333,48.5 49.1667,48.5 49.5,48.5C 47.3923,51.8752 45.3923,55.3752 43.5,59C 43.7432,59.9021 44.0766,60.7354 44.5,61.5C 42.917,63.8632 41.0836,63.8632 39,61.5C 38.6012,61.7284 38.4346,62.0618 38.5,62.5C 37.5041,62.4142 36.6708,62.7476 36,63.5C 35.3131,61.0797 35.8131,58.913 37.5,57C 36.244,56.5831 35.5774,55.7498 35.5,54.5C 40.0864,53.5402 44.0864,51.5402 47.5,48.5 Z"/></g>
<g><path style="opacity:1" fill="#dd7b0d" d="M 62.5,56.5 C 62.3894,58.6477 63.056,58.981 64.5,57.5C 67.3106,58.0796 69.9773,58.7463 72.5,59.5C 70.9246,60.2247 69.2579,61.2247 67.5,62.5C 65.6159,62.2882 64.2826,61.2882 63.5,59.5C 62.8243,60.6016 62.1577,61.6016 61.5,62.5C 60.8333,62.5 60.1667,62.5 59.5,62.5C 56.5161,61.0125 53.5161,59.6792 50.5,58.5C 54.4544,58.5773 58.4544,57.9106 62.5,56.5 Z"/></g>
<g><path style="opacity:0.012" fill="#f6a3fb" d="M 90.5,47.5 C 91.6497,52.3158 91.8163,57.3158 91,62.5C 90.5007,57.5111 90.3341,52.5111 90.5,47.5 Z"/></g>
<g><path style="opacity:0.995" fill="#dc7020" d="M 11.5,47.5 C 11.5,48.1667 11.5,48.8333 11.5,49.5C 11.5,50.8333 11.5,52.1667 11.5,53.5C 11.5,55.1667 11.5,56.8333 11.5,58.5C 13.5476,58.1596 14.5476,58.4929 14.5,59.5C 12.6921,60.9179 12.0254,62.9179 12.5,65.5C 11.596,66.209 11.2627,67.209 11.5,68.5C 10.207,67.158 9.37362,65.4913 9,63.5C 8.13044,57.0828 8.46377,50.7494 10,44.5C 10.2321,45.7375 10.7321,46.7375 11.5,47.5 Z"/></g>
<g><path style="opacity:1" fill="#de6f11" d="M 11.5,53.5 C 11.8333,53.5 12.1667,53.5 12.5,53.5C 13.7124,54.2299 14.7124,55.2299 15.5,56.5C 17.1017,55.45 17.935,56.1167 18,58.5C 20.0486,59.3488 22.3819,59.3488 25,58.5C 25.6172,59.4491 25.4506,60.2825 24.5,61C 25.7688,60.8915 26.7688,61.0582 27.5,61.5C 26.4324,62.4345 25.099,62.7678 23.5,62.5C 22.9045,59.8875 22.0712,59.8875 21,62.5C 19.5728,60.2129 17.7394,59.8795 15.5,61.5C 14.7025,61.0431 14.3691,60.3764 14.5,59.5C 14.5476,58.4929 13.5476,58.1596 11.5,58.5C 11.5,56.8333 11.5,55.1667 11.5,53.5 Z"/></g>
<g><path style="opacity:1" fill="#db680a" d="M 35.5,54.5 C 35.5774,55.7498 36.244,56.5831 37.5,57C 35.8131,58.913 35.3131,61.0797 36,63.5C 36.6708,62.7476 37.5041,62.4142 38.5,62.5C 37.2867,64.676 35.62,65.0093 33.5,63.5C 32.9215,66.1159 31.4215,66.1159 29,63.5C 28.6012,63.7284 28.4346,64.0618 28.5,64.5C 26.302,64.8799 24.6354,64.2132 23.5,62.5C 25.099,62.7678 26.4324,62.4345 27.5,61.5C 28.4232,62.3029 29.4232,62.4696 30.5,62C 32.8251,59.8245 34.4918,57.3245 35.5,54.5 Z"/></g>
<g><path style="opacity:1" fill="#db750d" d="M 86.5,68.5 C 85.6851,67.5707 84.8518,66.5707 84,65.5C 83.3292,66.2524 82.4959,66.5858 81.5,66.5C 79.3497,65.9194 77.5164,64.2527 76,61.5C 75.6758,63.5689 74.8425,63.9023 73.5,62.5C 72.7836,63.311 71.9503,63.9777 71,64.5C 69.9231,63.5705 68.7564,62.9038 67.5,62.5C 69.2579,61.2247 70.9246,60.2247 72.5,59.5C 75.0406,60.63 77.2072,59.9633 79,57.5C 80.883,60.0244 83.383,61.3577 86.5,61.5C 86.5,63.8333 86.5,66.1667 86.5,68.5 Z"/></g>
<g><path style="opacity:1" fill="#d85f10" d="M 14.5,59.5 C 14.3691,60.3764 14.7025,61.0431 15.5,61.5C 17.7394,59.8795 19.5728,60.2129 21,62.5C 22.0712,59.8875 22.9045,59.8875 23.5,62.5C 24.6354,64.2132 26.302,64.8799 28.5,64.5C 28.5,64.8333 28.5,65.1667 28.5,65.5C 24.6948,66.6761 21.1948,66.0094 18,63.5C 16.6012,64.2266 15.1012,64.7266 13.5,65C 14.2524,65.6708 14.5858,66.5041 14.5,67.5C 13.8333,67.5 13.5,67.8333 13.5,68.5C 13.1667,68.5 12.8333,68.5 12.5,68.5C 12.5,67.5 12.5,66.5 12.5,65.5C 12.0254,62.9179 12.6921,60.9179 14.5,59.5 Z"/></g>
<g><path style="opacity:1" fill="#d45a08" d="M 44.5,61.5 C 45.9348,62.7898 46.9348,64.4565 47.5,66.5C 49.9358,65.1091 50.6025,65.6091 49.5,68C 50.7425,68.3114 51.7425,67.8114 52.5,66.5C 52.4895,67.4415 52.9895,68.1081 54,68.5C 55.2853,68.0496 56.452,67.3829 57.5,66.5C 58.5624,67.4246 58.5624,68.4246 57.5,69.5C 56.2617,69.81 56.2617,70.31 57.5,71C 55.8659,71.4935 54.1992,71.6602 52.5,71.5C 52.1667,71.5 51.8333,71.5 51.5,71.5C 48.8773,70.0459 46.7106,68.0459 45,65.5C 43.6841,68.028 42.5174,68.028 41.5,65.5C 37.792,65.144 34.1253,65.8107 30.5,67.5C 29.8182,66.7573 29.1515,66.0906 28.5,65.5C 28.5,65.1667 28.5,64.8333 28.5,64.5C 28.4346,64.0618 28.6012,63.7284 29,63.5C 31.4215,66.1159 32.9215,66.1159 33.5,63.5C 35.62,65.0093 37.2867,64.676 38.5,62.5C 38.4346,62.0618 38.6012,61.7284 39,61.5C 41.0836,63.8632 42.917,63.8632 44.5,61.5 Z"/></g>
<g><path style="opacity:1" fill="#da7310" d="M 55.5,39.5 C 56.0431,39.56 56.3764,39.8933 56.5,40.5C 55.5677,45.2406 53.5677,49.4073 50.5,53C 51.7525,54.8278 51.7525,56.6612 50.5,58.5C 53.5161,59.6792 56.5161,61.0125 59.5,62.5C 57.7116,63.6225 55.7116,63.7891 53.5,63C 54.6956,62.3457 54.6956,61.8457 53.5,61.5C 52.2807,62.2634 51.2807,63.2634 50.5,64.5C 49.2578,62.2672 47.9245,60.1005 46.5,58C 48.8366,54.5333 50.5032,50.7 51.5,46.5C 52.9017,44.1246 54.235,41.7912 55.5,39.5 Z"/></g>
<g><path style="opacity:1" fill="#d86b09" d="M 67.5,62.5 C 68.7564,62.9038 69.9231,63.5705 71,64.5C 71.9503,63.9777 72.7836,63.311 73.5,62.5C 74.8425,63.9023 75.6758,63.5689 76,61.5C 77.5164,64.2527 79.3497,65.9194 81.5,66.5C 81.5654,66.9382 81.3988,67.2716 81,67.5C 79.5589,66.7402 78.0589,66.0736 76.5,65.5C 75.7025,65.9569 75.3691,66.6236 75.5,67.5C 72.8806,67.0041 70.2139,67.0041 67.5,67.5C 66.2106,65.752 64.7106,65.4186 63,66.5C 62.2086,65.255 61.7086,63.9217 61.5,62.5C 62.1577,61.6016 62.8243,60.6016 63.5,59.5C 64.2826,61.2882 65.6159,62.2882 67.5,62.5 Z"/></g>
<g><path style="opacity:1" fill="#d66409" d="M 51.5,46.5 C 50.5032,50.7 48.8366,54.5333 46.5,58C 47.9245,60.1005 49.2578,62.2672 50.5,64.5C 51.2807,63.2634 52.2807,62.2634 53.5,61.5C 54.6956,61.8457 54.6956,62.3457 53.5,63C 55.7116,63.7891 57.7116,63.6225 59.5,62.5C 60.1667,62.5 60.8333,62.5 61.5,62.5C 61.7086,63.9217 62.2086,65.255 63,66.5C 64.7106,65.4186 66.2106,65.752 67.5,67.5C 67.5299,68.4972 67.0299,69.1639 66,69.5C 64.6043,68.6057 63.1043,67.9391 61.5,67.5C 60.5236,68.1953 59.5236,68.862 58.5,69.5C 58.1667,69.5 57.8333,69.5 57.5,69.5C 58.5624,68.4246 58.5624,67.4246 57.5,66.5C 56.452,67.3829 55.2853,68.0496 54,68.5C 52.9895,68.1081 52.4895,67.4415 52.5,66.5C 51.7425,67.8114 50.7425,68.3114 49.5,68C 50.6025,65.6091 49.9358,65.1091 47.5,66.5C 46.9348,64.4565 45.9348,62.7898 44.5,61.5C 44.0766,60.7354 43.7432,59.9021 43.5,59C 45.3923,55.3752 47.3923,51.8752 49.5,48.5C 49.8333,47.5 50.5,46.8333 51.5,46.5 Z"/></g>
<g><path style="opacity:0.008" fill="#dec900" d="M 89.5,63.5 C 90.8333,64.5 90.8333,65.5 89.5,66.5C 89.5,65.5 89.5,64.5 89.5,63.5 Z"/></g>
<g><path style="opacity:1" fill="#d15008" d="M 28.5,65.5 C 29.1515,66.0906 29.8182,66.7573 30.5,67.5C 34.1253,65.8107 37.792,65.144 41.5,65.5C 42.5174,68.028 43.6841,68.028 45,65.5C 46.7106,68.0459 48.8773,70.0459 51.5,71.5C 50.3157,72.6879 50.3157,73.8545 51.5,75C 50.6667,75.8333 49.8333,76.6667 49,77.5C 48.6012,77.2716 48.4346,76.9382 48.5,76.5C 48.6107,75.8826 48.944,75.3826 49.5,75C 47.2385,74.2988 46.2385,73.1322 46.5,71.5C 45.0333,71.723 43.5333,72.0563 42,72.5C 41.6667,71.8333 41.3333,71.1667 41,70.5C 38.5463,71.1981 36.2129,72.1981 34,73.5C 33.7104,71.9559 33.0437,70.6226 32,69.5C 31.6667,69.8333 31.3333,70.1667 31,70.5C 29.2092,67.1729 27.0425,66.8396 24.5,69.5C 26.435,70.213 26.7683,71.213 25.5,72.5C 24.5178,71.8592 23.5178,71.1925 22.5,70.5C 21.8933,70.6236 21.56,70.9569 21.5,71.5C 20.1783,69.7365 18.6783,68.0699 17,66.5C 16.3292,67.2524 15.4959,67.5858 14.5,67.5C 14.5858,66.5041 14.2524,65.6708 13.5,65C 15.1012,64.7266 16.6012,64.2266 18,63.5C 21.1948,66.0094 24.6948,66.6761 28.5,65.5 Z"/></g>
<g><path style="opacity:0.008" fill="#d753fc" d="M 11.5,68.5 C 11.8333,68.5 12.1667,68.5 12.5,68.5C 12.5,69.1667 12.5,69.8333 12.5,70.5C 11.6618,70.1583 11.3284,69.4916 11.5,68.5 Z"/></g>
<g><path style="opacity:0.012" fill="#ce64ff" d="M 88.5,66.5 C 88.8333,66.5 89.1667,66.5 89.5,66.5C 89.7709,68.3797 89.1042,69.713 87.5,70.5C 87.5,69.8333 87.5,69.1667 87.5,68.5C 88.3382,68.1583 88.6716,67.4916 88.5,66.5 Z"/></g>
<g><path style="opacity:0.997" fill="#d56611" d="M 81.5,66.5 C 82.4959,66.5858 83.3292,66.2524 84,65.5C 84.8518,66.5707 85.6851,67.5707 86.5,68.5C 86.3284,69.4916 86.6618,70.1583 87.5,70.5C 87.7373,71.791 87.404,72.791 86.5,73.5C 86.1667,70.8333 85.8333,70.8333 85.5,73.5C 84.8333,73.5 84.5,73.8333 84.5,74.5C 83.8333,74.5 83.5,74.8333 83.5,75.5C 83.1667,75.5 82.8333,75.5 82.5,75.5C 81.6906,74.5313 80.6906,73.6979 79.5,73C 80.6537,72.0862 80.487,71.2529 79,70.5C 78.5814,71.6721 77.9147,72.6721 77,73.5C 77.1484,72.175 76.9817,71.0084 76.5,70C 80.5537,68.0588 80.2203,67.2254 75.5,67.5C 75.3691,66.6236 75.7025,65.9569 76.5,65.5C 78.0589,66.0736 79.5589,66.7402 81,67.5C 81.3988,67.2716 81.5654,66.9382 81.5,66.5 Z"/></g>
<g><path style="opacity:1" fill="#cf5108" d="M 57.5,69.5 C 57.8333,69.5 58.1667,69.5 58.5,69.5C 60.1446,71.7737 61.6446,71.7737 63,69.5C 65.6305,69.8592 67.7971,70.8592 69.5,72.5C 69.631,73.2389 69.4643,73.9056 69,74.5C 68.6411,71.4557 67.9745,71.1224 67,73.5C 63.9832,73.219 60.8166,73.219 57.5,73.5C 56.2918,72.218 54.9584,72.218 53.5,73.5C 54.0253,74.1924 54.6919,74.6924 55.5,75C 55.1667,75.3333 54.8333,75.6667 54.5,76C 55.9561,76.4226 56.4561,77.2559 56,78.5C 54.9326,77.8095 53.7659,77.3095 52.5,77C 52.8541,75.3745 52.8541,73.5412 52.5,71.5C 54.1992,71.6602 55.8659,71.4935 57.5,71C 56.2617,70.31 56.2617,69.81 57.5,69.5 Z"/></g>
<g><path style="opacity:1" fill="#d25d0b" d="M 75.5,67.5 C 80.2203,67.2254 80.5537,68.0588 76.5,70C 76.9817,71.0084 77.1484,72.175 77,73.5C 77.9147,72.6721 78.5814,71.6721 79,70.5C 80.487,71.2529 80.6537,72.0862 79.5,73C 80.6906,73.6979 81.6906,74.5313 82.5,75.5C 82.5,76.1667 82.5,76.8333 82.5,77.5C 81.8333,77.5 81.5,77.8333 81.5,78.5C 80.8333,78.5 80.5,78.8333 80.5,79.5C 79.8333,79.5 79.5,79.8333 79.5,80.5C 79.1667,80.5 78.8333,80.5 78.5,80.5C 78.8333,78.5 79.1667,76.5 79.5,74.5C 78.0695,74.4208 76.7362,74.7542 75.5,75.5C 74.646,74.4783 73.646,73.6449 72.5,73C 72.8333,72.6667 73.1667,72.3333 73.5,72C 72.0715,71.4209 70.7382,71.5876 69.5,72.5C 67.7971,70.8592 65.6305,69.8592 63,69.5C 61.6446,71.7737 60.1446,71.7737 58.5,69.5C 59.5236,68.862 60.5236,68.1953 61.5,67.5C 63.1043,67.9391 64.6043,68.6057 66,69.5C 67.0299,69.1639 67.5299,68.4972 67.5,67.5C 70.2139,67.0041 72.8806,67.0041 75.5,67.5 Z"/></g>
<g><path style="opacity:1" fill="#cc4607" d="M 48.5,76.5 C 48.1667,76.5 47.8333,76.5 47.5,76.5C 46.8826,76.6107 46.3826,76.944 46,77.5C 44.6581,74.4241 42.4914,74.0908 39.5,76.5C 37.1931,75.009 34.6931,74.009 32,73.5C 29.9251,76.0281 29.0918,75.8614 29.5,73C 27.9532,72.6666 26.6199,73.1666 25.5,74.5C 24.537,74.0302 24.537,73.3635 25.5,72.5C 26.7683,71.213 26.435,70.213 24.5,69.5C 27.0425,66.8396 29.2092,67.1729 31,70.5C 31.3333,70.1667 31.6667,69.8333 32,69.5C 33.0437,70.6226 33.7104,71.9559 34,73.5C 36.2129,72.1981 38.5463,71.1981 41,70.5C 41.3333,71.1667 41.6667,71.8333 42,72.5C 43.5333,72.0563 45.0333,71.723 46.5,71.5C 46.2385,73.1322 47.2385,74.2988 49.5,75C 48.944,75.3826 48.6107,75.8826 48.5,76.5 Z"/></g>
<g><path style="opacity:0.997" fill="#c94816" d="M 21.5,71.5 C 22.1667,73.1667 22.8333,74.8333 23.5,76.5C 22.5876,77.7382 22.4209,79.0715 23,80.5C 24.3756,81.7051 25.5423,83.0384 26.5,84.5C 25.1667,84.8333 25.1667,85.1667 26.5,85.5C 26.5,85.8333 26.5,86.1667 26.5,86.5C 24.2547,86.4588 23.5881,85.6255 24.5,84C 20.5783,80.7492 17.4117,76.9159 15,72.5C 14.6827,74.3008 14.016,74.6341 13,73.5C 12.5172,72.552 12.3505,71.552 12.5,70.5C 13.3382,70.1583 13.6716,69.4916 13.5,68.5C 13.5,67.8333 13.8333,67.5 14.5,67.5C 15.4959,67.5858 16.3292,67.2524 17,66.5C 18.6783,68.0699 20.1783,69.7365 21.5,71.5 Z"/></g>
<g><path style="opacity:0.012" fill="#a95500" d="M 85.5,73.5 C 85.8333,73.5 86.1667,73.5 86.5,73.5C 86.3147,74.1701 85.9813,74.1701 85.5,73.5 Z"/></g>
<g><path style="opacity:1" fill="#cb500b" d="M 69.5,72.5 C 70.7382,71.5876 72.0715,71.4209 73.5,72C 73.1667,72.3333 72.8333,72.6667 72.5,73C 73.646,73.6449 74.646,74.4783 75.5,75.5C 76.7362,74.7542 78.0695,74.4208 79.5,74.5C 79.1667,76.5 78.8333,78.5 78.5,80.5C 78.5,80.8333 78.5,81.1667 78.5,81.5C 77.8333,81.5 77.5,81.8333 77.5,82.5C 76.1667,82.8333 76.1667,83.1667 77.5,83.5C 76.7377,85.2624 75.4044,86.2624 73.5,86.5C 73.5,86.1667 73.5,85.8333 73.5,85.5C 74.8333,85.1667 74.8333,84.8333 73.5,84.5C 73.5,83.8333 73.5,83.1667 73.5,82.5C 72.5604,80.3875 71.3937,78.3875 70,76.5C 67.6546,78.545 65.3213,78.2116 63,75.5C 63.6171,77.0948 63.2837,78.4281 62,79.5C 61.6667,78.5 61.3333,77.5 61,76.5C 60.7216,77.4158 60.2216,78.0825 59.5,78.5C 58.8333,78.5 58.5,78.1667 58.5,77.5C 58.6399,75.8762 57.9733,74.7096 56.5,74C 56.7284,73.6012 57.0618,73.4346 57.5,73.5C 60.8166,73.219 63.9832,73.219 67,73.5C 67.9745,71.1224 68.6411,71.4557 69,74.5C 69.4643,73.9056 69.631,73.2389 69.5,72.5 Z"/></g>
<g><path style="opacity:1" fill="#c73c08" d="M 25.5,72.5 C 24.537,73.3635 24.537,74.0302 25.5,74.5C 26.6199,73.1666 27.9532,72.6666 29.5,73C 29.0918,75.8614 29.9251,76.0281 32,73.5C 34.6931,74.009 37.1931,75.009 39.5,76.5C 42.4914,74.0908 44.6581,74.4241 46,77.5C 46.3826,76.944 46.8826,76.6107 47.5,76.5C 47.5,77.1667 47.5,77.8333 47.5,78.5C 46.2905,78.9321 45.2905,79.5987 44.5,80.5C 43.7784,80.0825 43.2784,79.4158 43,78.5C 42.1667,79.5 41.3333,80.5 40.5,81.5C 39.2888,80.7261 39.2888,79.8928 40.5,79C 39.5838,78.6258 38.7504,78.1258 38,77.5C 36.684,81.082 35.0174,81.082 33,77.5C 31.5341,79.3249 29.7008,79.8249 27.5,79C 28.5,78.6667 29.5,78.3333 30.5,78C 31.6956,77.3457 31.6956,76.8457 30.5,76.5C 28.5914,77.3482 26.5914,77.6816 24.5,77.5C 24.5,76.8333 24.1667,76.5 23.5,76.5C 22.8333,74.8333 22.1667,73.1667 21.5,71.5C 21.56,70.9569 21.8933,70.6236 22.5,70.5C 23.5178,71.1925 24.5178,71.8592 25.5,72.5 Z"/></g>
<g><path style="opacity:0.006" fill="#f96afb" d="M 84.5,74.5 C 84.8333,74.5 85.1667,74.5 85.5,74.5C 85.573,76.0269 84.9063,77.0269 83.5,77.5C 83.5,76.8333 83.5,76.1667 83.5,75.5C 84.1667,75.5 84.5,75.1667 84.5,74.5 Z"/></g>
<g><path style="opacity:1" fill="#c3360a" d="M 44.5,80.5 C 45.5294,82.5168 46.5294,84.5168 47.5,86.5C 44.0678,86.5904 40.5678,86.9237 37,87.5C 34.7911,83.9979 31.7911,82.6645 28,83.5C 27.4363,81.1133 26.2696,79.1133 24.5,77.5C 26.5914,77.6816 28.5914,77.3482 30.5,76.5C 31.6956,76.8457 31.6956,77.3457 30.5,78C 29.5,78.3333 28.5,78.6667 27.5,79C 29.7008,79.8249 31.5341,79.3249 33,77.5C 35.0174,81.082 36.684,81.082 38,77.5C 38.7504,78.1258 39.5838,78.6258 40.5,79C 39.2888,79.8928 39.2888,80.7261 40.5,81.5C 41.3333,80.5 42.1667,79.5 43,78.5C 43.2784,79.4158 43.7784,80.0825 44.5,80.5 Z"/></g>
<g><path style="opacity:1" fill="#cb470d" d="M 51.5,71.5 C 51.8333,71.5 52.1667,71.5 52.5,71.5C 52.8541,73.5412 52.8541,75.3745 52.5,77C 53.7659,77.3095 54.9326,77.8095 56,78.5C 56.4561,77.2559 55.9561,76.4226 54.5,76C 54.8333,75.6667 55.1667,75.3333 55.5,75C 54.6919,74.6924 54.0253,74.1924 53.5,73.5C 54.9584,72.218 56.2918,72.218 57.5,73.5C 57.0618,73.4346 56.7284,73.6012 56.5,74C 57.9733,74.7096 58.6399,75.8762 58.5,77.5C 57.3473,78.3132 57.3473,79.3132 58.5,80.5C 55.7375,81.042 53.0708,81.3754 50.5,81.5C 48.8102,81.1436 47.8102,80.1436 47.5,78.5C 47.5,77.8333 47.5,77.1667 47.5,76.5C 47.8333,76.5 48.1667,76.5 48.5,76.5C 48.4346,76.9382 48.6012,77.2716 49,77.5C 49.8333,76.6667 50.6667,75.8333 51.5,75C 50.3157,73.8545 50.3157,72.6879 51.5,71.5 Z"/></g>
<g><path style="opacity:0.016" fill="#be3f00" d="M 82.5,77.5 C 82.8333,77.5 83.1667,77.5 83.5,77.5C 83.3147,78.1701 82.9813,78.1701 82.5,77.5 Z"/></g>
<g><path style="opacity:0.02" fill="#986600" d="M 81.5,78.5 C 81.8333,78.5 82.1667,78.5 82.5,78.5C 82.3147,79.1701 81.9813,79.1701 81.5,78.5 Z"/></g>
<g><path style="opacity:1" fill="#c9440a" d="M 73.5,82.5 C 69.4862,82.6655 65.4862,82.4988 61.5,82C 60.695,80.8873 60.0283,79.7206 59.5,78.5C 60.2216,78.0825 60.7216,77.4158 61,76.5C 61.3333,77.5 61.6667,78.5 62,79.5C 63.2837,78.4281 63.6171,77.0948 63,75.5C 65.3213,78.2116 67.6546,78.545 70,76.5C 71.3937,78.3875 72.5604,80.3875 73.5,82.5 Z"/></g>
<g><path style="opacity:0.016" fill="#fe3f00" d="M 80.5,79.5 C 80.8333,79.5 81.1667,79.5 81.5,79.5C 81.3147,80.1701 80.9813,80.1701 80.5,79.5 Z"/></g>
<g><path style="opacity:0.012" fill="#fe5500" d="M 79.5,80.5 C 79.8333,80.5 80.1667,80.5 80.5,80.5C 80.3147,81.1701 79.9813,81.1701 79.5,80.5 Z"/></g>
<g><path style="opacity:0.024" fill="#d35500" d="M 78.5,81.5 C 78.8333,81.5 79.1667,81.5 79.5,81.5C 79.3147,82.1701 78.9813,82.1701 78.5,81.5 Z"/></g>
<g><path style="opacity:0.02" fill="#cb3300" d="M 77.5,82.5 C 77.8333,82.5 78.1667,82.5 78.5,82.5C 78.3147,83.1701 77.9813,83.1701 77.5,82.5 Z"/></g>
<g><path style="opacity:1" fill="#c84510" d="M 58.5,77.5 C 58.5,78.1667 58.8333,78.5 59.5,78.5C 60.0283,79.7206 60.695,80.8873 61.5,82C 65.4862,82.4988 69.4862,82.6655 73.5,82.5C 73.5,83.1667 73.5,83.8333 73.5,84.5C 73.5,84.8333 73.5,85.1667 73.5,85.5C 72.1667,85.8333 72.1667,86.1667 73.5,86.5C 73.0269,87.9063 72.0269,88.573 70.5,88.5C 70.5,87.8333 70.1667,87.5 69.5,87.5C 68.6522,86.375 67.6522,86.375 66.5,87.5C 66.4142,86.5041 66.7476,85.6708 67.5,85C 65.1263,82.9348 62.9596,83.1015 61,85.5C 58.2656,82.7074 57.2656,83.0407 58,86.5C 55.0716,85.3926 52.5716,83.7259 50.5,81.5C 53.0708,81.3754 55.7375,81.042 58.5,80.5C 57.3473,79.3132 57.3473,78.3132 58.5,77.5 Z"/></g>
<g><path style="opacity:1" fill="#c53e11" d="M 47.5,78.5 C 47.8102,80.1436 48.8102,81.1436 50.5,81.5C 52.5716,83.7259 55.0716,85.3926 58,86.5C 57.2656,83.0407 58.2656,82.7074 61,85.5C 62.9596,83.1015 65.1263,82.9348 67.5,85C 66.7476,85.6708 66.4142,86.5041 66.5,87.5C 64.8102,87.8564 63.8102,88.8564 63.5,90.5C 62.8333,90.5 62.1667,90.5 61.5,90.5C 59.1667,90.5 56.8333,90.5 54.5,90.5C 55.6085,89.71 56.9419,89.21 58.5,89C 55.253,88.0233 52.253,86.5233 49.5,84.5C 48.8182,85.2427 48.1515,85.9094 47.5,86.5C 46.5294,84.5168 45.5294,82.5168 44.5,80.5C 45.2905,79.5987 46.2905,78.9321 47.5,78.5 Z"/></g>
<g><path style="opacity:0.994" fill="#c23811" d="M 23.5,76.5 C 24.1667,76.5 24.5,76.8333 24.5,77.5C 26.2696,79.1133 27.4363,81.1133 28,83.5C 31.7911,82.6645 34.7911,83.9979 37,87.5C 40.5678,86.9237 44.0678,86.5904 47.5,86.5C 48.1515,85.9094 48.8182,85.2427 49.5,84.5C 52.253,86.5233 55.253,88.0233 58.5,89C 56.9419,89.21 55.6085,89.71 54.5,90.5C 46.5669,91.13 38.9002,90.13 31.5,87.5C 30.1667,87.8333 30.1667,88.1667 31.5,88.5C 31.8417,89.3382 32.5084,89.6716 33.5,89.5C 33.5,89.8333 33.5,90.1667 33.5,90.5C 30.6737,90.0023 28.3403,88.6689 26.5,86.5C 27.8333,86.1667 27.8333,85.8333 26.5,85.5C 26.5,85.1667 26.5,84.8333 26.5,84.5C 25.5423,83.0384 24.3756,81.7051 23,80.5C 22.4209,79.0715 22.5876,77.7382 23.5,76.5 Z"/></g>
<g><path style="opacity:0.012" fill="#ff6400" d="M 66.5,90.5 C 66.5,90.1667 66.5,89.8333 66.5,89.5C 67.1667,89.5 67.8333,89.5 68.5,89.5C 68.1583,90.3382 67.4916,90.6716 66.5,90.5 Z"/></g>
<g><path style="opacity:0.984" fill="#c03d1d" d="M 69.5,87.5 C 70.1667,87.5 70.5,87.8333 70.5,88.5C 70.1583,89.3382 69.4916,89.6716 68.5,89.5C 67.8333,88.1667 67.1667,88.1667 66.5,89.5C 63.8333,89.8333 63.8333,90.1667 66.5,90.5C 63.619,92.68 60.2856,93.68 56.5,93.5C 52.1667,92.1667 47.8333,92.1667 43.5,93.5C 39.7417,93.6048 36.4083,92.6048 33.5,90.5C 36.1667,90.1667 36.1667,89.8333 33.5,89.5C 33.1583,88.6618 32.4916,88.3284 31.5,88.5C 31.5,88.1667 31.5,87.8333 31.5,87.5C 38.9002,90.13 46.5669,91.13 54.5,90.5C 56.8333,90.5 59.1667,90.5 61.5,90.5C 62.1667,91.8333 62.8333,91.8333 63.5,90.5C 63.8102,88.8564 64.8102,87.8564 66.5,87.5C 67.6522,86.375 68.6522,86.375 69.5,87.5 Z"/></g>
<g><path style="opacity:0.004" fill="#b40a06" d="M 43.5,93.5 C 47.8333,93.5 52.1667,93.5 56.5,93.5C 52.1667,94.8333 47.8333,94.8333 43.5,93.5 Z"/></g>
</svg>
