<?xml version="1.0" encoding="UTF-8"?>
<!DOCTYPE svg PUBLIC "-//W3C//DTD SVG 1.1//EN" "http://www.w3.org/Graphics/SVG/1.1/DTD/svg11.dtd">
<svg xmlns="http://www.w3.org/2000/svg" version="1.1" width="100px" height="100px" style="shape-rendering:geometricPrecision; text-rendering:geometricPrecision; image-rendering:optimizeQuality; fill-rule:evenodd; clip-rule:evenodd" xmlns:xlink="http://www.w3.org/1999/xlink">
<g><path style="opacity:0.847" fill="#62d3a2" d="M 24.5,7.5 C 24.5,7.16667 24.5,6.83333 24.5,6.5C 24.8333,6.5 25.1667,6.5 25.5,6.5C 31.8194,6.39577 37.8194,7.06244 43.5,8.5C 43.5,8.83333 43.5,9.16667 43.5,9.5C 42.1667,9.83333 42.1667,10.1667 43.5,10.5C 35.5671,12.4684 27.2337,13.135 18.5,12.5C 19.842,11.207 21.5087,10.3736 23.5,10C 27.1667,9.66667 30.8333,9.33333 34.5,9C 31.3117,7.68424 27.9783,7.18424 24.5,7.5 Z"/></g>
<g><path style="opacity:0.98" fill="#92e3be" d="M 25.5,6.5 C 25.1667,6.5 24.8333,6.5 24.5,6.5C 21.8333,6.83333 21.8333,7.16667 24.5,7.5C 27.9783,7.18424 31.3117,7.68424 34.5,9C 30.8333,9.33333 27.1667,9.66667 23.5,10C 21.5087,10.3736 19.842,11.207 18.5,12.5C 16.3131,13.758 13.9798,14.758 11.5,15.5C 13.4622,13.8268 14.4622,11.9935 14.5,10C 16.9962,8.91956 19.3295,7.58622 21.5,6C 23.0657,5.23502 24.3991,5.40168 25.5,6.5 Z"/></g>
<g><path style="opacity:1" fill="#4bc389" d="M 43.5,8.5 C 44.091,10.8193 45.7577,12.8193 48.5,14.5C 48.5,15.1667 48.8333,15.5 49.5,15.5C 49.2671,17.0618 48.6005,18.3951 47.5,19.5C 46.5,19.8333 45.8333,20.5 45.5,21.5C 44.8333,21.8333 44.1667,22.1667 43.5,22.5C 43.4142,21.5041 43.7476,20.6708 44.5,20C 43.5842,19.7216 42.9175,19.2216 42.5,18.5C 43.4831,17.1497 44.8164,16.1497 46.5,15.5C 46.1667,15.1667 45.8333,14.8333 45.5,14.5C 35.8277,13.1156 26.161,13.2823 16.5,15C 15.244,15.4169 14.5774,16.2502 14.5,17.5C 13.2334,16.913 12.2334,16.913 11.5,17.5C 12.5244,18.8518 13.5244,20.1851 14.5,21.5C 13.5768,22.3029 12.5768,22.4696 11.5,22C 11.7937,20.3464 11.127,18.8464 9.5,17.5C 9.83333,16.5 10.5,15.8333 11.5,15.5C 13.9798,14.758 16.3131,13.758 18.5,12.5C 27.2337,13.135 35.5671,12.4684 43.5,10.5C 43.5,10.1667 43.5,9.83333 43.5,9.5C 43.5,9.16667 43.5,8.83333 43.5,8.5 Z"/></g>
<g><path style="opacity:1" fill="#26b56c" d="M 42.5,18.5 C 33.5,18.5 24.5,18.5 15.5,18.5C 14.8333,18.5 14.5,18.1667 14.5,17.5C 14.5774,16.2502 15.244,15.4169 16.5,15C 26.161,13.2823 35.8277,13.1156 45.5,14.5C 45.8333,14.8333 46.1667,15.1667 46.5,15.5C 44.8164,16.1497 43.4831,17.1497 42.5,18.5 Z"/></g>
<g><path style="opacity:0.004" fill="#9edb49" d="M 9.5,17.5 C 9.63101,18.2389 9.46434,18.9056 9,19.5C 8.30831,18.5632 8.47498,17.8966 9.5,17.5 Z"/></g>
<g><path style="opacity:0.994" fill="#efd381" d="M 73.5,15.5 C 72.5084,15.3284 71.8417,15.6618 71.5,16.5C 71.5,16.8333 71.5,17.1667 71.5,17.5C 70.1667,17.1667 68.8333,16.8333 67.5,16.5C 67.5,15.8333 67.1667,15.5 66.5,15.5C 66.5,15.1667 66.5,14.8333 66.5,14.5C 62.8333,14.5 59.1667,14.5 55.5,14.5C 52.8568,13.4931 52.5235,13.4931 54.5,14.5C 53.791,15.404 52.791,15.7373 51.5,15.5C 50.2511,17.8285 50.9177,19.6618 53.5,21C 51.6498,20.4052 49.6498,19.9052 47.5,19.5C 48.6005,18.3951 49.2671,17.0618 49.5,15.5C 48.8333,15.5 48.5,15.1667 48.5,14.5C 50.0552,13.3673 51.8886,12.7006 54,12.5C 58.5051,13.7974 63.0051,13.7974 67.5,12.5C 69.8357,13.001 71.8357,14.001 73.5,15.5 Z"/></g>
<g><path style="opacity:1" fill="#9cddbd" d="M 14.5,17.5 C 14.5,18.1667 14.8333,18.5 15.5,18.5C 21.1971,18.9603 26.8638,20.127 32.5,22C 26.4602,23.9824 20.4602,23.8157 14.5,21.5C 13.5244,20.1851 12.5244,18.8518 11.5,17.5C 12.2334,16.913 13.2334,16.913 14.5,17.5 Z"/></g>
<g><path style="opacity:1" fill="#73ca9d" d="M 15.5,18.5 C 24.5,18.5 33.5,18.5 42.5,18.5C 42.9175,19.2216 43.5842,19.7216 44.5,20C 43.7476,20.6708 43.4142,21.5041 43.5,22.5C 40.7062,24.2125 37.7062,25.5459 34.5,26.5C 30.5,26.5 26.5,26.5 22.5,26.5C 21.0697,25.4625 19.403,24.7959 17.5,24.5C 16.8333,24.5 16.5,24.8333 16.5,25.5C 15.7109,25.2172 15.0442,24.7172 14.5,24C 15.5981,23.2303 15.5981,22.397 14.5,21.5C 20.4602,23.8157 26.4602,23.9824 32.5,22C 26.8638,20.127 21.1971,18.9603 15.5,18.5 Z"/></g>
<g><path style="opacity:1" fill="#f5cf42" d="M 66.5,15.5 C 67.1667,15.5 67.5,15.8333 67.5,16.5C 66.448,16.3505 65.448,16.5172 64.5,17C 67.0594,20.0747 67.0594,23.0747 64.5,26C 64.8333,26.3333 65.1667,26.6667 65.5,27C 63.5273,27.4955 61.5273,27.6621 59.5,27.5C 58.1902,25.8523 56.8569,24.1856 55.5,22.5C 56.0016,21.479 56.6683,21.3123 57.5,22C 60.3646,26.5556 63.0313,26.3889 65.5,21.5C 63.1934,17.8905 59.86,16.0572 55.5,16C 59.1516,15.5014 62.8183,15.3347 66.5,15.5 Z"/></g>
<g><path style="opacity:1" fill="#f2c533" d="M 67.5,16.5 C 68.8333,16.8333 70.1667,17.1667 71.5,17.5C 72.5,17.8333 73.1667,18.5 73.5,19.5C 73.4431,20.609 73.1098,21.609 72.5,22.5C 71.2721,24.0098 71.2721,25.5098 72.5,27C 71.1198,28.3236 70.7865,29.6569 71.5,31C 70.2396,32.113 69.073,32.2797 68,31.5C 67.3086,33.8912 66.3086,33.8912 65,31.5C 64.6174,32.056 64.1174,32.3893 63.5,32.5C 62.5,30.8333 61.1667,29.5 59.5,28.5C 59.5,28.1667 59.5,27.8333 59.5,27.5C 61.5273,27.6621 63.5273,27.4955 65.5,27C 65.1667,26.6667 64.8333,26.3333 64.5,26C 67.0594,23.0747 67.0594,20.0747 64.5,17C 65.448,16.5172 66.448,16.3505 67.5,16.5 Z"/></g>
<g><path style="opacity:1" fill="#f3d159" d="M 54.5,14.5 C 54.8333,14.5 55.1667,14.5 55.5,14.5C 59.1667,14.5 62.8333,14.5 66.5,14.5C 66.5,14.8333 66.5,15.1667 66.5,15.5C 62.8183,15.3347 59.1516,15.5014 55.5,16C 59.86,16.0572 63.1934,17.8905 65.5,21.5C 63.0313,26.3889 60.3646,26.5556 57.5,22C 56.6683,21.3123 56.0016,21.479 55.5,22.5C 56.8569,24.1856 58.1902,25.8523 59.5,27.5C 59.5,27.8333 59.5,28.1667 59.5,28.5C 60.4706,30.4832 61.4706,32.4832 62.5,34.5C 62.7989,36.604 62.4656,38.604 61.5,40.5C 60.5832,39.8728 59.5832,39.5394 58.5,39.5C 57.4244,35.0116 55.0911,31.3449 51.5,28.5C 50.7794,25.4556 48.7794,23.789 45.5,23.5C 45.5,22.8333 45.5,22.1667 45.5,21.5C 45.8333,20.5 46.5,19.8333 47.5,19.5C 49.6498,19.9052 51.6498,20.4052 53.5,21C 50.9177,19.6618 50.2511,17.8285 51.5,15.5C 52.791,15.7373 53.791,15.404 54.5,14.5 Z"/></g>
<g><path style="opacity:1" fill="#f4da46" d="M 45.5,23.5 C 48.7794,23.789 50.7794,25.4556 51.5,28.5C 50.8383,30.8324 49.505,31.4991 47.5,30.5C 46.7348,31.6119 45.7348,32.2786 44.5,32.5C 44.5,30.5 44.5,28.5 44.5,26.5C 43.1667,26.5 41.8333,26.5 40.5,26.5C 41.8993,25.1103 43.5659,24.1103 45.5,23.5 Z"/></g>
<g><path style="opacity:0.98" fill="#eeb663" d="M 73.5,15.5 C 76.0317,15.8286 77.0317,16.9952 76.5,19C 80.6753,23.5306 84.342,27.6973 87.5,31.5C 86.8333,31.5 86.5,31.8333 86.5,32.5C 86.5,33.1667 86.5,33.8333 86.5,34.5C 82.0776,29.4227 77.7443,24.4227 73.5,19.5C 73.1667,18.5 72.5,17.8333 71.5,17.5C 71.5,17.1667 71.5,16.8333 71.5,16.5C 72.4916,16.6716 73.1583,16.3382 73.5,15.5 Z"/></g>
<g><path style="opacity:1" fill="#eebe28" d="M 72.5,22.5 C 73.6266,23.1217 74.6266,23.955 75.5,25C 74.2404,26.8138 74.2404,28.6471 75.5,30.5C 76.086,30.2907 76.586,29.9574 77,29.5C 77.3333,30.8333 77.6667,32.1667 78,33.5C 78.3826,32.944 78.8826,32.6107 79.5,32.5C 79.5858,33.4959 79.2524,34.3292 78.5,35C 79.1667,35.6667 79.8333,36.3333 80.5,37C 78.2686,37.622 76.4352,38.7887 75,40.5C 73.516,36.5123 70.6826,34.8456 66.5,35.5C 65.3065,34.7281 64.3065,33.7281 63.5,32.5C 64.1174,32.3893 64.6174,32.056 65,31.5C 66.3086,33.8912 67.3086,33.8912 68,31.5C 69.073,32.2797 70.2396,32.113 71.5,31C 70.7865,29.6569 71.1198,28.3236 72.5,27C 71.2721,25.5098 71.2721,24.0098 72.5,22.5 Z"/></g>
<g><path style="opacity:0.012" fill="#a36d3a" d="M 12.5,30.5 C 11.475,30.1034 11.3083,29.4368 12,28.5C 12.4643,29.0944 12.631,29.7611 12.5,30.5 Z"/></g>
<g><path style="opacity:0.992" fill="#e7a456" d="M 45.5,21.5 C 45.5,22.1667 45.5,22.8333 45.5,23.5C 43.5659,24.1103 41.8993,25.1103 40.5,26.5C 39.5084,26.3284 38.8417,26.6618 38.5,27.5C 34.7768,28.2967 31.1101,29.2967 27.5,30.5C 26.8333,30.5 26.1667,30.5 25.5,30.5C 24.0222,30.238 22.6888,30.5713 21.5,31.5C 18.1258,34.8615 14.4591,37.5282 10.5,39.5C 10.5,38.8333 10.5,38.1667 10.5,37.5C 10.1667,34.8333 9.83333,34.8333 9.5,37.5C 8.42654,36.7494 8.25988,35.7494 9,34.5C 10.0686,32.2932 11.2353,30.9598 12.5,30.5C 13.803,28.8577 15.1363,27.1911 16.5,25.5C 17.1667,25.5 17.5,25.1667 17.5,24.5C 19.403,24.7959 21.0697,25.4625 22.5,26.5C 21.7109,26.7828 21.0442,27.2828 20.5,28C 25.4176,29.9885 30.0842,29.4885 34.5,26.5C 37.7062,25.5459 40.7062,24.2125 43.5,22.5C 44.1667,22.1667 44.8333,21.8333 45.5,21.5 Z"/></g>
<g><path style="opacity:1" fill="#934116" d="M 22.5,26.5 C 26.5,26.5 30.5,26.5 34.5,26.5C 30.0842,29.4885 25.4176,29.9885 20.5,28C 21.0442,27.2828 21.7109,26.7828 22.5,26.5 Z"/></g>
<g><path style="opacity:1" fill="#f5cc62" d="M 38.5,27.5 C 38.8417,26.6618 39.5084,26.3284 40.5,26.5C 41.8333,26.5 43.1667,26.5 44.5,26.5C 44.5,28.5 44.5,30.5 44.5,32.5C 43.5987,33.2905 42.9321,34.2905 42.5,35.5C 38.9704,36.7325 35.4704,38.0658 32,39.5C 27.0249,39.2468 24.5249,36.5801 24.5,31.5C 25.1667,31.5 25.5,31.1667 25.5,30.5C 26.1667,30.5 26.8333,30.5 27.5,30.5C 28.1742,35.1514 30.8408,36.6514 35.5,35C 37.9757,33.6912 39.9757,31.8579 41.5,29.5C 40.9953,28.0815 39.9953,27.4148 38.5,27.5 Z"/></g>
<g><path style="opacity:1" fill="#eeb037" d="M 25.5,30.5 C 25.5,31.1667 25.1667,31.5 24.5,31.5C 23.4265,33.2793 22.0931,34.946 20.5,36.5C 20.8627,37.1835 21.1961,37.8501 21.5,38.5C 18.706,40.2126 15.706,41.5459 12.5,42.5C 11.794,41.4427 11.4607,41.7761 11.5,43.5C 11.1667,43.5 10.8333,43.5 10.5,43.5C 10.5,42.1667 10.5,40.8333 10.5,39.5C 14.4591,37.5282 18.1258,34.8615 21.5,31.5C 22.6888,30.5713 24.0222,30.238 25.5,30.5 Z"/></g>
<g><path style="opacity:1" fill="#f7d789" d="M 38.5,27.5 C 39.9953,27.4148 40.9953,28.0815 41.5,29.5C 39.9757,31.8579 37.9757,33.6912 35.5,35C 30.8408,36.6514 28.1742,35.1514 27.5,30.5C 31.1101,29.2967 34.7768,28.2967 38.5,27.5 Z"/></g>
<g><path style="opacity:1" fill="#f1cc3d" d="M 51.5,28.5 C 55.0911,31.3449 57.4244,35.0116 58.5,39.5C 55.2298,40.5884 53.5631,39.255 53.5,35.5C 51.8762,35.3601 50.7096,36.0267 50,37.5C 48.0295,35.3316 45.8629,34.9983 43.5,36.5C 42.8333,36.5 42.5,36.1667 42.5,35.5C 42.9321,34.2905 43.5987,33.2905 44.5,32.5C 45.7348,32.2786 46.7348,31.6119 47.5,30.5C 49.505,31.4991 50.8383,30.8324 51.5,28.5 Z"/></g>
<g><path style="opacity:1" fill="#ecbb35" d="M 73.5,19.5 C 77.7443,24.4227 82.0776,29.4227 86.5,34.5C 86.5,35.1667 86.5,35.8333 86.5,36.5C 85.609,37.1098 84.609,37.4431 83.5,37.5C 82.0578,35.3635 80.8911,33.0302 80,30.5C 79.5357,31.0944 79.369,31.7611 79.5,32.5C 78.8826,32.6107 78.3826,32.944 78,33.5C 77.6667,32.1667 77.3333,30.8333 77,29.5C 76.586,29.9574 76.086,30.2907 75.5,30.5C 74.2404,28.6471 74.2404,26.8138 75.5,25C 74.6266,23.955 73.6266,23.1217 72.5,22.5C 73.1098,21.609 73.4431,20.609 73.5,19.5 Z"/></g>
<g><path style="opacity:1" fill="#ecbe32" d="M 62.5,34.5 C 65.2546,38.6187 65.088,42.6187 62,46.5C 60.9822,44.4356 59.6489,44.1023 58,45.5C 55.6991,43.5081 53.3657,41.5081 51,39.5C 49.7318,39.6158 48.3985,39.9491 47,40.5C 46.6667,39.8333 46.3333,39.1667 46,38.5C 45.0228,39.7736 44.1894,39.7736 43.5,38.5C 45.9327,37.4523 45.9327,36.7856 43.5,36.5C 45.8629,34.9983 48.0295,35.3316 50,37.5C 50.7096,36.0267 51.8762,35.3601 53.5,35.5C 53.5631,39.255 55.2298,40.5884 58.5,39.5C 59.5832,39.5394 60.5832,39.8728 61.5,40.5C 62.4656,38.604 62.7989,36.604 62.5,34.5 Z"/></g>
<g><path style="opacity:1" fill="#ebb822" d="M 83.5,37.5 C 83.6107,38.1174 83.944,38.6174 84.5,39C 82.741,40.008 81.5743,41.508 81,43.5C 78.7201,42.2278 76.5534,42.2278 74.5,43.5C 73.8106,42.2264 72.9772,42.2264 72,43.5C 71.0041,41.3395 69.5041,39.6728 67.5,38.5C 67.4431,37.391 67.1098,36.391 66.5,35.5C 70.6826,34.8456 73.516,36.5123 75,40.5C 76.4352,38.7887 78.2686,37.622 80.5,37C 79.8333,36.3333 79.1667,35.6667 78.5,35C 79.2524,34.3292 79.5858,33.4959 79.5,32.5C 79.369,31.7611 79.5357,31.0944 80,30.5C 80.8911,33.0302 82.0578,35.3635 83.5,37.5 Z"/></g>
<g><path style="opacity:1" fill="#f1bb40" d="M 24.5,31.5 C 24.5249,36.5801 27.0249,39.2468 32,39.5C 35.4704,38.0658 38.9704,36.7325 42.5,35.5C 42.5,36.1667 42.8333,36.5 43.5,36.5C 45.9327,36.7856 45.9327,37.4523 43.5,38.5C 42.5,39.1667 41.5,39.8333 40.5,40.5C 37.6296,41.6336 34.6296,42.3003 31.5,42.5C 27.9475,41.7241 24.6142,40.3908 21.5,38.5C 21.1961,37.8501 20.8627,37.1835 20.5,36.5C 22.0931,34.946 23.4265,33.2793 24.5,31.5 Z"/></g>
<g><path style="opacity:1" fill="#e8b11e" d="M 86.5,36.5 C 87.0967,36.7352 87.4301,37.2352 87.5,38C 86.2827,40.368 85.4494,42.868 85,45.5C 84.5831,46.756 83.7498,47.4226 82.5,47.5C 80.6306,49.889 78.7972,49.889 77,47.5C 76.6667,48.1667 76.3333,48.8333 76,49.5C 75.4954,47.4817 74.9954,45.4817 74.5,43.5C 76.5534,42.2278 78.7201,42.2278 81,43.5C 81.5743,41.508 82.741,40.008 84.5,39C 83.944,38.6174 83.6107,38.1174 83.5,37.5C 84.609,37.4431 85.609,37.1098 86.5,36.5 Z"/></g>
<g><path style="opacity:1" fill="#edac2a" d="M 40.5,40.5 C 40.369,41.2389 40.5357,41.9056 41,42.5C 44.1651,42.1698 47.3318,42.0031 50.5,42C 49.6634,43.0113 49.33,44.1779 49.5,45.5C 49.8333,46.1667 50.1667,46.8333 50.5,47.5C 50.5654,47.9382 50.3988,48.2716 50,48.5C 48.2015,46.0275 45.8682,44.3608 43,43.5C 42.3021,44.6906 41.4687,45.6906 40.5,46.5C 39.2794,45.9717 38.1127,45.305 37,44.5C 36.6667,45.1667 36.3333,45.8333 36,46.5C 34.8904,44.9632 33.3904,44.2965 31.5,44.5C 31.5,43.8333 31.5,43.1667 31.5,42.5C 34.6296,42.3003 37.6296,41.6336 40.5,40.5 Z"/></g>
<g><path style="opacity:1" fill="#e9b327" d="M 59.5,28.5 C 61.1667,29.5 62.5,30.8333 63.5,32.5C 64.3065,33.7281 65.3065,34.7281 66.5,35.5C 67.1098,36.391 67.4431,37.391 67.5,38.5C 65.78,40.6581 64.9467,43.3248 65,46.5C 62.5625,48.2488 60.0625,48.9154 57.5,48.5C 55.5841,46.023 52.9175,45.023 49.5,45.5C 49.33,44.1779 49.6634,43.0113 50.5,42C 47.3318,42.0031 44.1651,42.1698 41,42.5C 40.5357,41.9056 40.369,41.2389 40.5,40.5C 41.5,39.8333 42.5,39.1667 43.5,38.5C 44.1894,39.7736 45.0228,39.7736 46,38.5C 46.3333,39.1667 46.6667,39.8333 47,40.5C 48.3985,39.9491 49.7318,39.6158 51,39.5C 53.3657,41.5081 55.6991,43.5081 58,45.5C 59.6489,44.1023 60.9822,44.4356 62,46.5C 65.088,42.6187 65.2546,38.6187 62.5,34.5C 61.4706,32.4832 60.4706,30.4832 59.5,28.5 Z"/></g>
<g><path style="opacity:1" fill="#eab21d" d="M 28.5,47.5 C 27.8953,49.0257 26.7286,50.0257 25,50.5C 23.1918,50.1119 21.5252,50.1119 20,50.5C 17.9285,49.4752 15.7619,48.6419 13.5,48C 12.6198,46.6439 12.2865,45.1439 12.5,43.5C 16.722,40.3389 20.0554,41.0056 22.5,45.5C 24.4951,46.2945 26.4951,46.9612 28.5,47.5 Z"/></g>
<g><path style="opacity:1" fill="#eeb428" d="M 21.5,38.5 C 24.6142,40.3908 27.9475,41.7241 31.5,42.5C 31.5,43.1667 31.5,43.8333 31.5,44.5C 31.5,45.8333 30.8333,46.5 29.5,46.5C 28.8333,46.5 28.5,46.8333 28.5,47.5C 26.4951,46.9612 24.4951,46.2945 22.5,45.5C 20.0554,41.0056 16.722,40.3389 12.5,43.5C 12.5,43.1667 12.5,42.8333 12.5,42.5C 15.706,41.5459 18.706,40.2126 21.5,38.5 Z"/></g>
<g><path style="opacity:1" fill="#e8a41a" d="M 31.5,44.5 C 33.3904,44.2965 34.8904,44.9632 36,46.5C 36.3333,45.8333 36.6667,45.1667 37,44.5C 38.1127,45.305 39.2794,45.9717 40.5,46.5C 40.631,47.2389 40.4643,47.9056 40,48.5C 38.6439,47.6198 37.1439,47.2865 35.5,47.5C 35.634,49.2915 35.3007,50.9582 34.5,52.5C 32.9826,52.5106 31.8159,53.1772 31,54.5C 30.6667,54.1667 30.3333,53.8333 30,53.5C 28.5575,56.6469 26.3908,57.6469 23.5,56.5C 23.9382,56.5654 24.2716,56.3988 24.5,56C 23.8333,55.6667 23.1667,55.3333 22.5,55C 24.9739,54.9633 26.9739,54.13 28.5,52.5C 29.1495,50.5648 29.4828,48.5648 29.5,46.5C 30.8333,46.5 31.5,45.8333 31.5,44.5 Z"/></g>
<g><path style="opacity:1" fill="#e5a917" d="M 67.5,38.5 C 69.5041,39.6728 71.0041,41.3395 72,43.5C 72.9772,42.2264 73.8106,42.2264 74.5,43.5C 74.9954,45.4817 75.4954,47.4817 76,49.5C 76.3333,48.8333 76.6667,48.1667 77,47.5C 78.7972,49.889 80.6306,49.889 82.5,47.5C 81.8864,49.8583 81.5531,52.1916 81.5,54.5C 79.674,54.9202 77.674,54.9202 75.5,54.5C 73.6631,51.0232 71.9964,47.3565 70.5,43.5C 67.5116,39.459 66.1783,40.1257 66.5,45.5C 64.7433,50.569 61.4099,51.7356 56.5,49C 56.7284,48.6012 57.0618,48.4346 57.5,48.5C 60.0625,48.9154 62.5625,48.2488 65,46.5C 64.9467,43.3248 65.78,40.6581 67.5,38.5 Z"/></g>
<g><path style="opacity:1" fill="#e4ab16" d="M 12.5,42.5 C 12.5,42.8333 12.5,43.1667 12.5,43.5C 12.2865,45.1439 12.6198,46.6439 13.5,48C 15.7619,48.6419 17.9285,49.4752 20,50.5C 21.5252,50.1119 23.1918,50.1119 25,50.5C 26.7286,50.0257 27.8953,49.0257 28.5,47.5C 28.5,46.8333 28.8333,46.5 29.5,46.5C 29.4828,48.5648 29.1495,50.5648 28.5,52.5C 25.3997,51.54 22.0664,51.54 18.5,52.5C 18.4042,56.3107 17.7376,56.3107 16.5,52.5C 15.2638,51.7542 13.9305,51.4208 12.5,51.5C 11.9084,48.8728 11.5751,46.2062 11.5,43.5C 11.4607,41.7761 11.794,41.4427 12.5,42.5 Z"/></g>
<g><path style="opacity:1" fill="#e1a418" d="M 49.5,45.5 C 52.9175,45.023 55.5841,46.023 57.5,48.5C 57.0618,48.4346 56.7284,48.6012 56.5,49C 61.4099,51.7356 64.7433,50.569 66.5,45.5C 66.8333,45.5 67.1667,45.5 67.5,45.5C 67.5,48.8333 67.5,52.1667 67.5,55.5C 66.7784,55.0825 66.2784,54.4158 66,53.5C 63.5,53.6667 61,53.8333 58.5,54C 57.1113,51.8123 55.1113,50.6456 52.5,50.5C 52.1667,50.5 51.8333,50.5 51.5,50.5C 53.1166,47.9236 52.7833,46.9236 50.5,47.5C 50.1667,46.8333 49.8333,46.1667 49.5,45.5 Z"/></g>
<g><path style="opacity:1" fill="#e49314" d="M 51.5,50.5 C 51.8333,50.5 52.1667,50.5 52.5,50.5C 52.8212,52.0481 53.8212,52.7148 55.5,52.5C 55.5,53.5 55.5,54.5 55.5,55.5C 53.7988,55.0338 52.2988,55.0338 51,55.5C 50.5172,54.552 50.3505,53.552 50.5,52.5C 48.8561,52.2865 47.3561,52.6198 46,53.5C 45,50.8333 44,50.8333 43,53.5C 40.5969,50.6345 39.7636,50.8012 40.5,54C 39.5509,54.6172 38.7175,54.4506 38,53.5C 37.9566,56.2172 36.9566,56.8839 35,55.5C 33.9701,55.8361 33.4701,56.5028 33.5,57.5C 32.9033,57.2648 32.5699,56.7648 32.5,56C 33.4295,54.9231 34.0962,53.7564 34.5,52.5C 36.672,52.1632 38.5054,51.1632 40,49.5C 41.8763,51.1231 43.2096,50.7898 44,48.5C 45.7485,51.6543 48.2485,52.321 51.5,50.5 Z"/></g>
<g><path style="opacity:1" fill="#e89b1a" d="M 50.5,47.5 C 52.7833,46.9236 53.1166,47.9236 51.5,50.5C 48.2485,52.321 45.7485,51.6543 44,48.5C 43.2096,50.7898 41.8763,51.1231 40,49.5C 38.5054,51.1632 36.672,52.1632 34.5,52.5C 35.3007,50.9582 35.634,49.2915 35.5,47.5C 37.1439,47.2865 38.6439,47.6198 40,48.5C 40.4643,47.9056 40.631,47.2389 40.5,46.5C 41.4687,45.6906 42.3021,44.6906 43,43.5C 45.8682,44.3608 48.2015,46.0275 50,48.5C 50.3988,48.2716 50.5654,47.9382 50.5,47.5 Z"/></g>
<g><path style="opacity:1" fill="#de890e" d="M 55.5,55.5 C 56.1667,56.1667 56.8333,56.8333 57.5,57.5C 58.1098,58.391 58.4431,59.391 58.5,60.5C 57.5,60.5 56.5,60.5 55.5,60.5C 54.3587,58.9124 52.8587,57.5791 51,56.5C 49.0967,56.6938 47.2633,56.6938 45.5,56.5C 45.5105,55.5585 45.0105,54.8919 44,54.5C 42.6736,55.7989 41.3402,57.1322 40,58.5C 39.6667,58.1667 39.3333,57.8333 39,57.5C 37.2971,59.7907 35.4638,62.124 33.5,64.5C 33.1667,64.5 32.8333,64.5 32.5,64.5C 31.8333,63.8333 31.1667,63.1667 30.5,62.5C 30.3537,60.0576 31.187,59.3909 33,60.5C 34.7284,59.6477 34.895,58.6477 33.5,57.5C 33.4701,56.5028 33.9701,55.8361 35,55.5C 36.9566,56.8839 37.9566,56.2172 38,53.5C 38.7175,54.4506 39.5509,54.6172 40.5,54C 39.7636,50.8012 40.5969,50.6345 43,53.5C 44,50.8333 45,50.8333 46,53.5C 47.3561,52.6198 48.8561,52.2865 50.5,52.5C 50.3505,53.552 50.5172,54.552 51,55.5C 52.2988,55.0338 53.7988,55.0338 55.5,55.5 Z"/></g>
<g><path style="opacity:0.839" fill="#db9124" d="M 9.5,37.5 C 9.83333,37.5 10.1667,37.5 10.5,37.5C 10.5,38.1667 10.5,38.8333 10.5,39.5C 10.5,40.8333 10.5,42.1667 10.5,43.5C 9.35633,47.3522 9.35633,51.3522 10.5,55.5C 10.5,56.1667 10.5,56.8333 10.5,57.5C 10.5,57.8333 10.5,58.1667 10.5,58.5C 10.1667,58.5 9.83333,58.5 9.5,58.5C 9.20414,56.597 8.53747,54.9303 7.5,53.5C 6.46179,49.6903 6.46179,50.6903 7.5,56.5C 7.5,56.8333 7.5,57.1667 7.5,57.5C 7.5,59.5 7.5,61.5 7.5,63.5C 4.81666,55.2579 4.98333,46.9246 8,38.5C 9.00758,43.5409 9.50758,43.2076 9.5,37.5 Z"/></g>
<g><path style="opacity:1" fill="#dda011" d="M 10.5,43.5 C 10.8333,43.5 11.1667,43.5 11.5,43.5C 11.5751,46.2062 11.9084,48.8728 12.5,51.5C 13.9305,51.4208 15.2638,51.7542 16.5,52.5C 17.7376,56.3107 18.4042,56.3107 18.5,52.5C 22.0664,51.54 25.3997,51.54 28.5,52.5C 26.9739,54.13 24.9739,54.9633 22.5,55C 23.1667,55.3333 23.8333,55.6667 24.5,56C 24.2716,56.3988 23.9382,56.5654 23.5,56.5C 21.8173,57.8534 20.4839,59.5201 19.5,61.5C 18.2794,60.9717 17.1127,60.305 16,59.5C 15.6667,59.8333 15.3333,60.1667 15,60.5C 13.9509,58.3825 12.4509,56.7158 10.5,55.5C 9.35633,51.3522 9.35633,47.3522 10.5,43.5 Z"/></g>
<g><path style="opacity:1" fill="#e1a11c" d="M 87.5,31.5 C 89.1015,32.5188 90.1015,34.0188 90.5,36C 89.7135,38.0989 89.3801,40.2655 89.5,42.5C 89.5,42.8333 89.5,43.1667 89.5,43.5C 88.8333,43.5 88.5,43.8333 88.5,44.5C 86.6226,49.2575 84.4559,53.9241 82,58.5C 81.3086,56.1088 80.3086,56.1088 79,58.5C 77.0955,57.842 75.5955,56.6753 74.5,55C 74.7284,54.6012 75.0618,54.4346 75.5,54.5C 77.674,54.9202 79.674,54.9202 81.5,54.5C 81.5531,52.1916 81.8864,49.8583 82.5,47.5C 83.7498,47.4226 84.5831,46.756 85,45.5C 85.4494,42.868 86.2827,40.368 87.5,38C 87.4301,37.2352 87.0967,36.7352 86.5,36.5C 86.5,35.8333 86.5,35.1667 86.5,34.5C 86.5,33.8333 86.5,33.1667 86.5,32.5C 87.1667,32.5 87.5,32.1667 87.5,31.5 Z"/></g>
<g><path style="opacity:1" fill="#d97f0b" d="M 55.5,60.5 C 54.8333,60.5 54.1667,60.5 53.5,60.5C 50.3097,60.4871 47.4763,59.4871 45,57.5C 41.7696,60.2979 39.2696,63.6313 37.5,67.5C 36.2022,68.1157 35.2022,68.1157 34.5,67.5C 34.9528,66.5416 35.6195,65.7083 36.5,65C 35.552,64.5172 34.552,64.3505 33.5,64.5C 35.4638,62.124 37.2971,59.7907 39,57.5C 39.3333,57.8333 39.6667,58.1667 40,58.5C 41.3402,57.1322 42.6736,55.7989 44,54.5C 45.0105,54.8919 45.5105,55.5585 45.5,56.5C 47.2633,56.6938 49.0967,56.6938 51,56.5C 52.8587,57.5791 54.3587,58.9124 55.5,60.5 Z"/></g>
<g><path style="opacity:1" fill="#d47408" d="M 53.5,60.5 C 58.4954,62.1734 58.8287,64.5067 54.5,67.5C 53.596,66.791 53.2627,65.791 53.5,64.5C 51.7376,64.3573 50.0709,64.6906 48.5,65.5C 47.2807,64.7366 46.2807,63.7366 45.5,62.5C 43.7658,64.234 42.4324,66.234 41.5,68.5C 40.5832,67.8728 39.5832,67.5394 38.5,67.5C 38.1667,67.5 37.8333,67.5 37.5,67.5C 39.2696,63.6313 41.7696,60.2979 45,57.5C 47.4763,59.4871 50.3097,60.4871 53.5,60.5 Z"/></g>
<g><path style="opacity:1" fill="#d08909" d="M 66.5,61.5 C 66.3259,63.861 65.9926,66.1944 65.5,68.5C 65.1667,68.5 64.8333,68.5 64.5,68.5C 63.8826,68.6107 63.3826,68.944 63,69.5C 62.5,68.3333 61.6667,67.5 60.5,67C 61.8331,65.1598 61.6665,64.6598 60,65.5C 59.3923,63.8455 58.8923,62.1789 58.5,60.5C 58.4431,59.391 58.1098,58.391 57.5,57.5C 58.1174,57.3893 58.6174,57.056 59,56.5C 61.3512,59.1326 63.8512,60.7993 66.5,61.5 Z"/></g>
<g><path style="opacity:1" fill="#d7940c" d="M 52.5,50.5 C 55.1113,50.6456 57.1113,51.8123 58.5,54C 61,53.8333 63.5,53.6667 66,53.5C 66.2784,54.4158 66.7784,55.0825 67.5,55.5C 67.5,56.5 67.5,57.5 67.5,58.5C 67.4431,59.609 67.1098,60.609 66.5,61.5C 63.8512,60.7993 61.3512,59.1326 59,56.5C 58.6174,57.056 58.1174,57.3893 57.5,57.5C 56.8333,56.8333 56.1667,56.1667 55.5,55.5C 55.5,54.5 55.5,53.5 55.5,52.5C 53.8212,52.7148 52.8212,52.0481 52.5,50.5 Z"/></g>
<g><path style="opacity:1" fill="#dd9610" d="M 75.5,54.5 C 75.0618,54.4346 74.7284,54.6012 74.5,55C 75.5955,56.6753 77.0955,57.842 79,58.5C 80.3086,56.1088 81.3086,56.1088 82,58.5C 84.4559,53.9241 86.6226,49.2575 88.5,44.5C 89.1391,52.6035 86.3058,58.9368 80,63.5C 78.4329,62.1439 76.5996,61.4772 74.5,61.5C 72.6477,55.4028 70.481,49.4028 68,43.5C 67.5357,44.0944 67.369,44.7611 67.5,45.5C 67.1667,45.5 66.8333,45.5 66.5,45.5C 66.1783,40.1257 67.5116,39.459 70.5,43.5C 71.9964,47.3565 73.6631,51.0232 75.5,54.5 Z"/></g>
<g><path style="opacity:1" fill="#da940a" d="M 34.5,52.5 C 34.0962,53.7564 33.4295,54.9231 32.5,56C 32.5699,56.7648 32.9033,57.2648 33.5,57.5C 34.895,58.6477 34.7284,59.6477 33,60.5C 31.187,59.3909 30.3537,60.0576 30.5,62.5C 30.1667,62.5 29.8333,62.5 29.5,62.5C 27.9318,64.9312 26.4318,64.9312 25,62.5C 23.0041,63.3411 21.1708,63.0077 19.5,61.5C 20.4839,59.5201 21.8173,57.8534 23.5,56.5C 26.3908,57.6469 28.5575,56.6469 30,53.5C 30.3333,53.8333 30.6667,54.1667 31,54.5C 31.8159,53.1772 32.9826,52.5106 34.5,52.5 Z"/></g>
<g><path style="opacity:1" fill="#d7880c" d="M 89.5,43.5 C 90.172,50.1446 89.172,56.4779 86.5,62.5C 83.9058,63.5922 81.7391,65.2589 80,67.5C 79.5831,66.244 78.7498,65.5774 77.5,65.5C 75.7706,64.7638 74.7706,63.4305 74.5,61.5C 76.5996,61.4772 78.4329,62.1439 80,63.5C 86.3058,58.9368 89.1391,52.6035 88.5,44.5C 88.5,43.8333 88.8333,43.5 89.5,43.5 Z"/></g>
<g><path style="opacity:1" fill="#d18e0a" d="M 10.5,55.5 C 12.4509,56.7158 13.9509,58.3825 15,60.5C 15.3333,60.1667 15.6667,59.8333 16,59.5C 17.1127,60.305 18.2794,60.9717 19.5,61.5C 21.1708,63.0077 23.0041,63.3411 25,62.5C 26.4318,64.9312 27.9318,64.9312 29.5,62.5C 29.4142,63.4959 29.7476,64.3292 30.5,65C 28.444,65.3108 26.444,65.8108 24.5,66.5C 18.774,65.1 14.1074,62.1 10.5,57.5C 10.5,56.8333 10.5,56.1667 10.5,55.5 Z"/></g>
<g><path style="opacity:1" fill="#d7850c" d="M 74.5,61.5 C 74.7706,63.4305 75.7706,64.7638 77.5,65.5C 75.5072,66.5367 73.5072,66.2034 71.5,64.5C 70.0682,60.9867 69.2348,57.32 69,53.5C 68.8019,55.3817 68.3019,57.0484 67.5,58.5C 67.5,57.5 67.5,56.5 67.5,55.5C 67.5,52.1667 67.5,48.8333 67.5,45.5C 67.369,44.7611 67.5357,44.0944 68,43.5C 70.481,49.4028 72.6477,55.4028 74.5,61.5 Z"/></g>
<g><path style="opacity:0.012" fill="#ff9500" d="M 7.5,63.5 C 7.83333,63.5 8.16667,63.5 8.5,63.5C 8.16667,67.5 7.83333,67.5 7.5,63.5 Z"/></g>
<g><path style="opacity:1" fill="#cd870c" d="M 10.5,57.5 C 14.1074,62.1 18.774,65.1 24.5,66.5C 26.444,65.8108 28.444,65.3108 30.5,65C 29.7476,64.3292 29.4142,63.4959 29.5,62.5C 29.8333,62.5 30.1667,62.5 30.5,62.5C 31.1667,63.1667 31.8333,63.8333 32.5,64.5C 30.9414,65.829 29.2748,67.1624 27.5,68.5C 26.5,67.1667 25.5,67.1667 24.5,68.5C 23.5224,68.0233 22.6891,67.3567 22,66.5C 16.2139,67.6613 12.3805,64.9946 10.5,58.5C 10.5,58.1667 10.5,57.8333 10.5,57.5 Z"/></g>
<g><path style="opacity:1" fill="#cc6d06" d="M 54.5,67.5 C 55.2296,70.2877 55.2296,73.2877 54.5,76.5C 54.1667,76.5 53.8333,76.5 53.5,76.5C 52.9751,73.4069 52.3084,70.4069 51.5,67.5C 49.0824,66.6623 46.4157,66.6623 43.5,67.5C 43.7093,68.086 44.0426,68.586 44.5,69C 43.1667,69.3333 41.8333,69.6667 40.5,70C 41.4158,70.2784 42.0825,70.7784 42.5,71.5C 41.5,71.5 40.5,71.5 39.5,71.5C 39.1667,70.1667 38.8333,68.8333 38.5,67.5C 39.5832,67.5394 40.5832,67.8728 41.5,68.5C 42.4324,66.234 43.7658,64.234 45.5,62.5C 46.2807,63.7366 47.2807,64.7366 48.5,65.5C 50.0709,64.6906 51.7376,64.3573 53.5,64.5C 53.2627,65.791 53.596,66.791 54.5,67.5 Z"/></g>
<g><path style="opacity:0.678" fill="#cf6e0f" d="M 91.5,64.5 C 91.1667,56.5 90.8333,56.5 90.5,64.5C 89.5655,65.5676 89.2322,66.901 89.5,68.5C 88.6618,68.8417 88.3284,69.5084 88.5,70.5C 88.1667,70.5 87.8333,70.5 87.5,70.5C 87.5,69.8333 87.1667,69.5 86.5,69.5C 86.5,69.1667 86.5,68.8333 86.5,68.5C 86.2837,66.3193 87.117,64.6526 89,63.5C 90.0498,58.5518 90.5498,53.5518 90.5,48.5C 91.8333,46.5 91.8333,44.5 90.5,42.5C 90.4568,38.1074 90.9568,37.7741 92,41.5C 94.1432,49.3677 93.9766,57.0344 91.5,64.5 Z"/></g>
<g><path style="opacity:0.012" fill="#8e3808" d="M 90.5,64.5 C 90.8333,64.5 91.1667,64.5 91.5,64.5C 91.7678,66.099 91.4345,67.4324 90.5,68.5C 90.5,67.1667 90.5,65.8333 90.5,64.5 Z"/></g>
<g><path style="opacity:1" fill="#cb8009" d="M 9.5,58.5 C 9.83333,58.5 10.1667,58.5 10.5,58.5C 12.3805,64.9946 16.2139,67.6613 22,66.5C 22.6891,67.3567 23.5224,68.0233 24.5,68.5C 25.5,67.1667 26.5,67.1667 27.5,68.5C 29.2748,67.1624 30.9414,65.829 32.5,64.5C 32.8333,64.5 33.1667,64.5 33.5,64.5C 34.552,64.3505 35.552,64.5172 36.5,65C 35.6195,65.7083 34.9528,66.5416 34.5,67.5C 33.2505,68.7775 31.7505,69.7775 30,70.5C 27,69.1667 24,69.1667 21,70.5C 19.103,68.9837 16.9363,68.317 14.5,68.5C 13.9181,67.0689 13.0848,65.7356 12,64.5C 11.6667,64.8333 11.3333,65.1667 11,65.5C 10.023,63.26 9.52304,60.9267 9.5,58.5 Z"/></g>
<g><path style="opacity:1" fill="#c86705" d="M 53.5,76.5 C 52.8333,76.5 52.1667,76.5 51.5,76.5C 49.8502,73.8447 48.0169,71.5114 46,69.5C 45.6667,70.5 45.3333,71.5 45,72.5C 44.3292,71.7476 43.4959,71.4142 42.5,71.5C 42.0825,70.7784 41.4158,70.2784 40.5,70C 41.8333,69.6667 43.1667,69.3333 44.5,69C 44.0426,68.586 43.7093,68.086 43.5,67.5C 46.4157,66.6623 49.0824,66.6623 51.5,67.5C 52.3084,70.4069 52.9751,73.4069 53.5,76.5 Z"/></g>
<g><path style="opacity:1" fill="#d17908" d="M 89.5,42.5 C 89.8333,42.5 90.1667,42.5 90.5,42.5C 90.5,44.5 90.5,46.5 90.5,48.5C 90.5498,53.5518 90.0498,58.5518 89,63.5C 87.117,64.6526 86.2837,66.3193 86.5,68.5C 85.391,68.5569 84.391,68.8902 83.5,69.5C 78.3562,70.8044 73.6895,69.8044 69.5,66.5C 68.4763,67.8532 67.143,68.5198 65.5,68.5C 65.9926,66.1944 66.3259,63.861 66.5,61.5C 67.1098,60.609 67.4431,59.609 67.5,58.5C 68.3019,57.0484 68.8019,55.3817 69,53.5C 69.2348,57.32 70.0682,60.9867 71.5,64.5C 73.5072,66.2034 75.5072,66.5367 77.5,65.5C 78.7498,65.5774 79.5831,66.244 80,67.5C 81.7391,65.2589 83.9058,63.5922 86.5,62.5C 89.172,56.4779 90.172,50.1446 89.5,43.5C 89.5,43.1667 89.5,42.8333 89.5,42.5 Z"/></g>
<g><path style="opacity:0.012" fill="#8b6100" d="M 9.5,67.5 C 9.5,68.5 9.5,69.5 9.5,70.5C 8.16667,69.5 8.16667,68.5 9.5,67.5 Z"/></g>
<g><path style="opacity:1" fill="#c47607" d="M 34.5,67.5 C 35.2022,68.1157 36.2022,68.1157 37.5,67.5C 37.8333,67.5 38.1667,67.5 38.5,67.5C 38.8333,68.8333 39.1667,70.1667 39.5,71.5C 36.9649,72.3487 34.4649,73.3487 32,74.5C 28.4257,73.3098 24.9257,72.9765 21.5,73.5C 19.6115,72.678 17.6115,71.8447 15.5,71C 14.7476,70.3292 14.4142,69.4959 14.5,68.5C 16.9363,68.317 19.103,68.9837 21,70.5C 24,69.1667 27,69.1667 30,70.5C 31.7505,69.7775 33.2505,68.7775 34.5,67.5 Z"/></g>
<g><path style="opacity:1" fill="#ca7006" d="M 83.5,69.5 C 82.5213,71.1454 81.188,72.4787 79.5,73.5C 77.6225,73.3775 75.7891,73.3775 74,73.5C 72.9207,71.6063 71.5874,71.273 70,72.5C 68.4157,71.1387 66.5824,70.472 64.5,70.5C 64.5,69.8333 64.5,69.1667 64.5,68.5C 64.8333,68.5 65.1667,68.5 65.5,68.5C 67.143,68.5198 68.4763,67.8532 69.5,66.5C 73.6895,69.8044 78.3562,70.8044 83.5,69.5 Z"/></g>
<g><path style="opacity:1" fill="#c15f05" d="M 51.5,76.5 C 50.6715,77.3324 49.8382,76.999 49,75.5C 47.8118,76.5634 47.3118,77.8967 47.5,79.5C 45.1229,79.7845 42.9562,79.7845 41,79.5C 39.1598,81.4904 37.9931,81.4904 37.5,79.5C 37.5,79.1667 37.5,78.8333 37.5,78.5C 37.3893,77.8826 37.056,77.3826 36.5,77C 37.8721,76.5983 39.2054,76.0983 40.5,75.5C 41.7112,74.7261 41.7112,73.8928 40.5,73C 41.4158,72.7216 42.0825,72.2216 42.5,71.5C 43.4959,71.4142 44.3292,71.7476 45,72.5C 45.3333,71.5 45.6667,70.5 46,69.5C 48.0169,71.5114 49.8502,73.8447 51.5,76.5 Z"/></g>
<g><path style="opacity:1" fill="#c77908" d="M 53.5,60.5 C 54.1667,60.5 54.8333,60.5 55.5,60.5C 56.5,60.5 57.5,60.5 58.5,60.5C 58.8923,62.1789 59.3923,63.8455 60,65.5C 61.6665,64.6598 61.8331,65.1598 60.5,67C 61.6667,67.5 62.5,68.3333 63,69.5C 63.3826,68.944 63.8826,68.6107 64.5,68.5C 64.5,69.1667 64.5,69.8333 64.5,70.5C 63.6618,70.8417 63.3284,71.5084 63.5,72.5C 62.3263,73.5137 61.6596,74.847 61.5,76.5C 60.5,76.8333 59.8333,77.5 59.5,78.5C 57.4471,78.5979 55.7804,77.9313 54.5,76.5C 55.2296,73.2877 55.2296,70.2877 54.5,67.5C 58.8287,64.5067 58.4954,62.1734 53.5,60.5 Z"/></g>
<g><path style="opacity:0.012" fill="#b29c00" d="M 9.5,70.5 C 9.83333,70.5 10.1667,70.5 10.5,70.5C 10.5,71.1667 10.5,71.8333 10.5,72.5C 9.66175,72.1583 9.32842,71.4916 9.5,70.5 Z"/></g>
<g><path style="opacity:1" fill="#c66605" d="M 86.5,68.5 C 86.5,68.8333 86.5,69.1667 86.5,69.5C 84.4109,71.9183 82.7442,74.585 81.5,77.5C 79.4812,76.2447 77.4812,75.9114 75.5,76.5C 73.5555,74.4105 71.3888,73.7439 69,74.5C 67.3926,72.4138 65.5592,71.7472 63.5,72.5C 63.3284,71.5084 63.6618,70.8417 64.5,70.5C 66.5824,70.472 68.4157,71.1387 70,72.5C 71.5874,71.273 72.9207,71.6063 74,73.5C 75.7891,73.3775 77.6225,73.3775 79.5,73.5C 81.188,72.4787 82.5213,71.1454 83.5,69.5C 84.391,68.8902 85.391,68.5569 86.5,68.5 Z"/></g>
<g><path style="opacity:0.012" fill="#b14e00" d="M 10.5,72.5 C 10.8333,72.5 11.1667,72.5 11.5,72.5C 11.5,73.1667 11.5,73.8333 11.5,74.5C 10.6618,74.1583 10.3284,73.4916 10.5,72.5 Z"/></g>
<g><path style="opacity:1" fill="#bb6e1b" d="M 7.5,53.5 C 8.53747,54.9303 9.20414,56.597 9.5,58.5C 9.52304,60.9267 10.023,63.26 11,65.5C 11.3333,65.1667 11.6667,64.8333 12,64.5C 13.0848,65.7356 13.9181,67.0689 14.5,68.5C 14.4142,69.4959 14.7476,70.3292 15.5,71C 17.6115,71.8447 19.6115,72.678 21.5,73.5C 19.4508,73.7058 19.1175,74.5391 20.5,76C 19.6195,76.7083 18.9528,77.5416 18.5,78.5C 18.0618,78.4346 17.7284,78.6012 17.5,79C 19.2318,80.9719 20.5652,83.1386 21.5,85.5C 19.1394,83.8061 17.1394,81.8061 15.5,79.5C 15.0679,78.2905 14.4013,77.2905 13.5,76.5C 13.6716,75.5084 13.3382,74.8417 12.5,74.5C 12.6716,73.5084 12.3382,72.8417 11.5,72.5C 11.6716,71.5084 11.3382,70.8417 10.5,70.5C 10.7373,69.209 10.404,68.209 9.5,67.5C 9.76781,65.901 9.43448,64.5676 8.5,63.5C 8.79472,61.2646 8.46138,59.2646 7.5,57.5C 7.5,57.1667 7.5,56.8333 7.5,56.5C 7.5,55.5 7.5,54.5 7.5,53.5 Z"/></g>
<g><path style="opacity:1" fill="#c06805" d="M 39.5,71.5 C 40.5,71.5 41.5,71.5 42.5,71.5C 42.0825,72.2216 41.4158,72.7216 40.5,73C 41.7112,73.8928 41.7112,74.7261 40.5,75.5C 39.2054,76.0983 37.8721,76.5983 36.5,77C 37.056,77.3826 37.3893,77.8826 37.5,78.5C 32.2277,77.1062 27.2277,75.9395 22.5,75C 21.944,74.6174 21.6107,74.1174 21.5,73.5C 24.9257,72.9765 28.4257,73.3098 32,74.5C 34.4649,73.3487 36.9649,72.3487 39.5,71.5 Z"/></g>
<g><path style="opacity:0.008" fill="#a7a700" d="M 11.5,74.5 C 11.8333,74.5 12.1667,74.5 12.5,74.5C 12.5,75.1667 12.5,75.8333 12.5,76.5C 11.6618,76.1583 11.3284,75.4916 11.5,74.5 Z"/></g>
<g><path style="opacity:0.008" fill="#d482ff" d="M 86.5,74.5 C 86.8333,74.5 87.1667,74.5 87.5,74.5C 87.6716,75.4916 87.3382,76.1583 86.5,76.5C 86.5,75.8333 86.5,75.1667 86.5,74.5 Z"/></g>
<g><path style="opacity:1" fill="#c25d05" d="M 81.5,77.5 C 80.063,78.7255 78.3964,79.7255 76.5,80.5C 72.7225,79.7227 69.3892,78.056 66.5,75.5C 65.2638,76.2458 63.9305,76.5792 62.5,76.5C 62.1667,76.5 61.8333,76.5 61.5,76.5C 61.6596,74.847 62.3263,73.5137 63.5,72.5C 65.5592,71.7472 67.3926,72.4138 69,74.5C 71.3888,73.7439 73.5555,74.4105 75.5,76.5C 77.4812,75.9114 79.4812,76.2447 81.5,77.5 Z"/></g>
<g><path style="opacity:0.008" fill="#a35310" d="M 12.5,76.5 C 12.8333,76.5 13.1667,76.5 13.5,76.5C 13.1667,79.1667 12.8333,79.1667 12.5,76.5 Z"/></g>
<g><path style="opacity:1" fill="#b86206" d="M 21.5,73.5 C 21.6107,74.1174 21.944,74.6174 22.5,75C 27.2277,75.9395 32.2277,77.1062 37.5,78.5C 37.5,78.8333 37.5,79.1667 37.5,79.5C 36.7784,79.9175 36.2784,80.5842 36,81.5C 35,80.1667 34,80.1667 33,81.5C 31.5177,79.2189 29.851,79.2189 28,81.5C 26.0281,79.5575 23.8615,79.2242 21.5,80.5C 20.7348,79.3881 19.7348,78.7214 18.5,78.5C 18.9528,77.5416 19.6195,76.7083 20.5,76C 19.1175,74.5391 19.4508,73.7058 21.5,73.5 Z"/></g>
<g><path style="opacity:0.008" fill="#a35310" d="M 85.5,76.5 C 85.8333,76.5 86.1667,76.5 86.5,76.5C 86.6716,77.4916 86.3382,78.1583 85.5,78.5C 85.5,77.8333 85.5,77.1667 85.5,76.5 Z"/></g>
<g><path style="opacity:0.016" fill="#be3f00" d="M 84.5,78.5 C 84.8333,78.5 85.1667,78.5 85.5,78.5C 85.3147,79.1701 84.9813,79.1701 84.5,78.5 Z"/></g>
<g><path style="opacity:1" fill="#be550b" d="M 89.5,68.5 C 89.8333,68.5 90.1667,68.5 90.5,68.5C 90.539,71.089 89.539,73.089 87.5,74.5C 87.1667,73.1667 86.8333,73.1667 86.5,74.5C 85.6618,74.8417 85.3284,75.5084 85.5,76.5C 84.6618,76.8417 84.3284,77.5084 84.5,78.5C 83.8333,78.5 83.5,78.8333 83.5,79.5C 82.6618,79.8417 82.3284,80.5084 82.5,81.5C 81.8333,81.5 81.5,81.8333 81.5,82.5C 80.8333,82.5 80.5,82.8333 80.5,83.5C 79.8333,83.5 79.5,83.8333 79.5,84.5C 78.8333,84.5 78.5,84.8333 78.5,85.5C 77.8333,85.5 77.5,85.8333 77.5,86.5C 76.1667,86.8333 76.1667,87.1667 77.5,87.5C 76.7377,89.2624 75.4044,90.2624 73.5,90.5C 73.5,90.1667 73.5,89.8333 73.5,89.5C 74.8333,89.1667 74.8333,88.8333 73.5,88.5C 73.1667,88.5 72.8333,88.5 72.5,88.5C 72.6309,87.6236 72.2975,86.9569 71.5,86.5C 70.2736,87.3629 68.9403,87.3629 67.5,86.5C 68.9526,85.1751 68.6192,84.3418 66.5,84C 69.1667,83.6667 71.8333,83.3333 74.5,83C 72.9391,82.6824 71.7724,81.8491 71,80.5C 69.984,81.6341 69.3173,81.3008 69,79.5C 68.2825,80.4506 67.4491,80.6172 66.5,80C 64.9069,79.0513 63.5736,77.8846 62.5,76.5C 63.9305,76.5792 65.2638,76.2458 66.5,75.5C 69.3892,78.056 72.7225,79.7227 76.5,80.5C 78.3964,79.7255 80.063,78.7255 81.5,77.5C 82.7442,74.585 84.4109,71.9183 86.5,69.5C 87.1667,69.5 87.5,69.8333 87.5,70.5C 87.8333,73.1667 88.1667,73.1667 88.5,70.5C 89.3382,70.1583 89.6716,69.4916 89.5,68.5 Z"/></g>
<g><path style="opacity:0.004" fill="#e237ff" d="M 15.5,79.5 C 15.631,80.2389 15.4643,80.9056 15,81.5C 14.3083,80.5632 14.475,79.8966 15.5,79.5 Z"/></g>
<g><path style="opacity:0.004" fill="#d32f00" d="M 83.5,79.5 C 83.8333,79.5 84.1667,79.5 84.5,79.5C 84.6716,80.4916 84.3382,81.1583 83.5,81.5C 83.5,80.8333 83.5,80.1667 83.5,79.5 Z"/></g>
<g><path style="opacity:1" fill="#ba6308" d="M 51.5,76.5 C 52.1667,76.5 52.8333,76.5 53.5,76.5C 53.8333,76.5 54.1667,76.5 54.5,76.5C 55.7804,77.9313 57.4471,78.5979 59.5,78.5C 58.1667,80.1667 56.8333,81.8333 55.5,83.5C 51.6339,84.2253 48.9672,82.892 47.5,79.5C 47.3118,77.8967 47.8118,76.5634 49,75.5C 49.8382,76.999 50.6715,77.3324 51.5,76.5 Z"/></g>
<g><path style="opacity:1" fill="#b94805" d="M 61.5,76.5 C 61.8333,76.5 62.1667,76.5 62.5,76.5C 63.5736,77.8846 64.9069,79.0513 66.5,80C 67.4491,80.6172 68.2825,80.4506 69,79.5C 69.3173,81.3008 69.984,81.6341 71,80.5C 71.7724,81.8491 72.9391,82.6824 74.5,83C 71.8333,83.3333 69.1667,83.6667 66.5,84C 68.6192,84.3418 68.9526,85.1751 67.5,86.5C 65.5351,87.129 63.5351,87.7957 61.5,88.5C 58.6402,88.445 56.3069,87.445 54.5,85.5C 54.8333,84.8333 55.1667,84.1667 55.5,83.5C 56.8333,81.8333 58.1667,80.1667 59.5,78.5C 59.8333,77.5 60.5,76.8333 61.5,76.5 Z"/></g>
<g><path style="opacity:0.012" fill="#a95500" d="M 82.5,81.5 C 82.8333,81.5 83.1667,81.5 83.5,81.5C 83.3147,82.1701 82.9813,82.1701 82.5,81.5 Z"/></g>
<g><path style="opacity:1" fill="#b2580a" d="M 18.5,78.5 C 19.7348,78.7214 20.7348,79.3881 21.5,80.5C 23.8615,79.2242 26.0281,79.5575 28,81.5C 29.851,79.2189 31.5177,79.2189 33,81.5C 34,80.1667 35,80.1667 36,81.5C 36.2784,80.5842 36.7784,79.9175 37.5,79.5C 37.9931,81.4904 39.1598,81.4904 41,79.5C 42.9562,79.7845 45.1229,79.7845 47.5,79.5C 48.9672,82.892 51.6339,84.2253 55.5,83.5C 55.1667,84.1667 54.8333,84.8333 54.5,85.5C 53.8333,85.8333 53.1667,86.1667 52.5,86.5C 51.1667,86.5 49.8333,86.5 48.5,86.5C 45.6217,87.0343 42.7884,86.3677 40,84.5C 37.3578,85.9587 34.6911,86.292 32,85.5C 29.7211,86.3914 27.5544,87.3914 25.5,88.5C 24.1667,88.8333 24.1667,89.1667 25.5,89.5C 25.1034,90.525 24.4368,90.6917 23.5,90C 23.8363,88.371 23.1696,86.871 21.5,85.5C 20.5652,83.1386 19.2318,80.9719 17.5,79C 17.7284,78.6012 18.0618,78.4346 18.5,78.5 Z"/></g>
<g><path style="opacity:0.016" fill="#be7f00" d="M 81.5,82.5 C 81.8333,82.5 82.1667,82.5 82.5,82.5C 82.3147,83.1701 81.9813,83.1701 81.5,82.5 Z"/></g>
<g><path style="opacity:0.016" fill="#7e3f00" d="M 80.5,83.5 C 80.8333,83.5 81.1667,83.5 81.5,83.5C 81.3147,84.1701 80.9813,84.1701 80.5,83.5 Z"/></g>
<g><path style="opacity:0.016" fill="#be3f00" d="M 79.5,84.5 C 79.8333,84.5 80.1667,84.5 80.5,84.5C 80.3147,85.1701 79.9813,85.1701 79.5,84.5 Z"/></g>
<g><path style="opacity:0.02" fill="#983300" d="M 78.5,85.5 C 78.8333,85.5 79.1667,85.5 79.5,85.5C 79.3147,86.1701 78.9813,86.1701 78.5,85.5 Z"/></g>
<g><path style="opacity:0.012" fill="#a90000" d="M 77.5,86.5 C 77.8333,86.5 78.1667,86.5 78.5,86.5C 78.3147,87.1701 77.9813,87.1701 77.5,86.5 Z"/></g>
<g><path style="opacity:0.998" fill="#a74a0c" d="M 48.5,86.5 C 46.369,87.3138 44.0356,87.8138 41.5,88C 42.8333,88.3333 44.1667,88.6667 45.5,89C 45.1667,89.3333 44.8333,89.6667 44.5,90C 39.5111,90.4993 34.5111,90.6659 29.5,90.5C 28.1667,90.1667 26.8333,89.8333 25.5,89.5C 25.5,89.1667 25.5,88.8333 25.5,88.5C 27.5544,87.3914 29.7211,86.3914 32,85.5C 34.6911,86.292 37.3578,85.9587 40,84.5C 42.7884,86.3677 45.6217,87.0343 48.5,86.5 Z"/></g>
<g><path style="opacity:0.994" fill="#a14512" d="M 48.5,86.5 C 49.8333,86.5 51.1667,86.5 52.5,86.5C 52.3893,87.1174 52.056,87.6174 51.5,88C 52.9423,88.3768 53.9423,89.2101 54.5,90.5C 53.8333,90.5 53.1667,90.5 52.5,90.5C 51.5084,90.3284 50.8417,90.6618 50.5,91.5C 42.8597,95.2129 35.1931,95.3796 27.5,92C 28.4158,91.7216 29.0825,91.2216 29.5,90.5C 34.5111,90.6659 39.5111,90.4993 44.5,90C 44.8333,89.6667 45.1667,89.3333 45.5,89C 44.1667,88.6667 42.8333,88.3333 41.5,88C 44.0356,87.8138 46.369,87.3138 48.5,86.5 Z"/></g>
<g><path style="opacity:0.988" fill="#ab4207" d="M 54.5,85.5 C 56.3069,87.445 58.6402,88.445 61.5,88.5C 63.5351,87.7957 65.5351,87.129 67.5,86.5C 68.9403,87.3629 70.2736,87.3629 71.5,86.5C 72.2975,86.9569 72.6309,87.6236 72.5,88.5C 71.1667,88.5 70.5,89.1667 70.5,90.5C 70.1667,90.5 69.8333,90.5 69.5,90.5C 64.5,90.5 59.5,90.5 54.5,90.5C 53.9423,89.2101 52.9423,88.3768 51.5,88C 52.056,87.6174 52.3893,87.1174 52.5,86.5C 53.1667,86.1667 53.8333,85.8333 54.5,85.5 Z"/></g>
<g><path style="opacity:0.99" fill="#9c4211" d="M 72.5,88.5 C 72.8333,88.5 73.1667,88.5 73.5,88.5C 73.5,88.8333 73.5,89.1667 73.5,89.5C 70.8333,89.8333 70.8333,90.1667 73.5,90.5C 66.6799,94.6838 59.3466,95.5172 51.5,93C 50.944,92.6174 50.6107,92.1174 50.5,91.5C 51.4916,91.6716 52.1583,91.3382 52.5,90.5C 53.1667,90.5 53.8333,90.5 54.5,90.5C 59.5,90.5 64.5,90.5 69.5,90.5C 69.8333,91.8333 70.1667,91.8333 70.5,90.5C 70.5,89.1667 71.1667,88.5 72.5,88.5 Z"/></g>
</svg>
