<?xml version="1.0" encoding="UTF-8"?>
<!DOCTYPE svg PUBLIC "-//W3C//DTD SVG 1.1//EN" "http://www.w3.org/Graphics/SVG/1.1/DTD/svg11.dtd">
<svg xmlns="http://www.w3.org/2000/svg" version="1.1" width="100px" height="100px" style="shape-rendering:geometricPrecision; text-rendering:geometricPrecision; image-rendering:optimizeQuality; fill-rule:evenodd; clip-rule:evenodd" xmlns:xlink="http://www.w3.org/1999/xlink">
<g><path style="opacity:0.376" fill="#f1d880" d="M 84.5,10.5 C 84.5,11.1667 84.8333,11.5 85.5,11.5C 85.5,12.1667 85.8333,12.5 86.5,12.5C 86.5,13.1667 86.8333,13.5 87.5,13.5C 88.7298,15.2972 89.3964,17.2972 89.5,19.5C 88.8946,21.4812 87.8946,21.8146 86.5,20.5C 85.5,16.1667 82.8333,13.5 78.5,12.5C 77.8836,10.5829 76.5503,9.4162 74.5,9C 65.4419,7.85433 57.7752,10.6877 51.5,17.5C 51.0618,17.5654 50.7284,17.3988 50.5,17C 51.8333,15.6667 53.1667,14.3333 54.5,13C 54.1667,12.8333 53.8333,12.6667 53.5,12.5C 50.4517,14.8815 47.7851,17.5482 45.5,20.5C 44.9717,19.1526 44.805,17.8193 45,16.5C 48.8333,15.3333 51.3333,12.8333 52.5,9C 54.9398,7.69665 57.4398,6.52998 60,5.5C 64.826,6.80434 69.6594,6.80434 74.5,5.5C 78.4759,6.15431 81.8093,7.82098 84.5,10.5 Z"/></g>
<g><path style="opacity:0.004" fill="#fffe56" d="M 84.5,10.5 C 85.6226,9.24258 86.2893,9.57591 86.5,11.5C 86.1667,11.5 85.8333,11.5 85.5,11.5C 84.8333,11.5 84.5,11.1667 84.5,10.5 Z"/></g>
<g><path style="opacity:0.006" fill="#ff6746" d="M 86.5,12.5 C 86.5,12.1667 86.5,11.8333 86.5,11.5C 88.4241,11.7107 88.7574,12.3774 87.5,13.5C 86.8333,13.5 86.5,13.1667 86.5,12.5 Z"/></g>
<g><path style="opacity:1" fill="#ecc63a" d="M 78.5,12.5 C 75.9039,11.7347 73.2372,11.4013 70.5,11.5C 64.712,10.2359 60.3787,12.0692 57.5,17C 57.9891,18.1385 58.3225,19.3052 58.5,20.5C 58.44,21.0431 58.1067,21.3764 57.5,21.5C 55.4902,19.8287 53.1569,19.162 50.5,19.5C 50.8333,18.8333 51.1667,18.1667 51.5,17.5C 57.7752,10.6877 65.4419,7.85433 74.5,9C 76.5503,9.4162 77.8836,10.5829 78.5,12.5 Z"/></g>
<g><path style="opacity:1" fill="#e4b036" d="M 70.5,11.5 C 71.937,12.7255 73.6036,13.7255 75.5,14.5C 76.2621,15.6283 76.9288,16.7949 77.5,18C 74.637,22.0277 71.3037,25.5277 67.5,28.5C 66.603,27.4019 65.7697,27.4019 65,28.5C 62.5748,25.9466 60.4081,23.2799 58.5,20.5C 58.3225,19.3052 57.9891,18.1385 57.5,17C 60.3787,12.0692 64.712,10.2359 70.5,11.5 Z"/></g>
<g><path style="opacity:1" fill="#e6b930" d="M 70.5,11.5 C 73.2372,11.4013 75.9039,11.7347 78.5,12.5C 82.8333,13.5 85.5,16.1667 86.5,20.5C 84.4436,19.839 82.4436,20.1723 80.5,21.5C 78.0347,20.556 76.368,21.556 75.5,24.5C 73.0503,26.2868 70.3837,27.6202 67.5,28.5C 71.3037,25.5277 74.637,22.0277 77.5,18C 76.9288,16.7949 76.2621,15.6283 75.5,14.5C 73.6036,13.7255 71.937,12.7255 70.5,11.5 Z"/></g>
<g><path style="opacity:1" fill="#e6b82b" d="M 50.5,19.5 C 53.1569,19.162 55.4902,19.8287 57.5,21.5C 58.1067,21.3764 58.44,21.0431 58.5,20.5C 60.4081,23.2799 62.5748,25.9466 65,28.5C 65.7697,27.4019 66.603,27.4019 67.5,28.5C 67.189,29.4778 66.5223,30.1445 65.5,30.5C 63.1416,28.7134 60.475,27.7134 57.5,27.5C 56.1579,24.8342 54.3245,22.5008 52,20.5C 51.3333,21.1667 50.6667,21.8333 50,22.5C 49.0289,28.0122 47.5289,33.3455 45.5,38.5C 44.8761,38.0831 44.5427,37.4164 44.5,36.5C 45.8417,32.6102 46.675,28.6102 47,24.5C 47.2233,22.1192 48.39,20.4525 50.5,19.5 Z"/></g>
<g><path style="opacity:1" fill="#cd871e" d="M 80.5,21.5 C 82.3904,21.2965 83.8904,21.9632 85,23.5C 85.8098,28.2574 85.4764,32.9241 84,37.5C 83.044,38.8941 81.7106,39.5607 80,39.5C 77.0454,37.4657 73.8787,35.799 70.5,34.5C 69.8902,33.609 69.5569,32.609 69.5,31.5C 73.7908,28.8769 77.4575,25.5436 80.5,21.5 Z"/></g>
<g><path style="opacity:1" fill="#dfa426" d="M 59.5,33.5 C 59.5,33.8333 59.5,34.1667 59.5,34.5C 58.5,35.1667 57.5,35.8333 56.5,36.5C 54.4336,36.1946 52.2669,35.8613 50,35.5C 49.2989,32.0717 49.6323,28.7383 51,25.5C 52.1827,24.269 53.3493,24.269 54.5,25.5C 56.1776,28.1947 57.8442,30.8614 59.5,33.5 Z"/></g>
<g><path style="opacity:1" fill="#e0aa1e" d="M 80.5,21.5 C 77.4575,25.5436 73.7908,28.8769 69.5,31.5C 65.2833,33.5157 61.2833,35.8491 57.5,38.5C 58.2899,37.2058 59.2899,36.0391 60.5,35C 60.2716,34.6012 59.9382,34.4346 59.5,34.5C 59.5,34.1667 59.5,33.8333 59.5,33.5C 60.0431,33.44 60.3764,33.1067 60.5,32.5C 59.7401,30.6396 58.7401,28.973 57.5,27.5C 60.475,27.7134 63.1416,28.7134 65.5,30.5C 66.5223,30.1445 67.189,29.4778 67.5,28.5C 70.3837,27.6202 73.0503,26.2868 75.5,24.5C 76.368,21.556 78.0347,20.556 80.5,21.5 Z"/></g>
<g><path style="opacity:0.149" fill="#cd8f18" d="M 90.5,22.5 C 91.29,23.6085 91.79,24.9419 92,26.5C 92.6667,21.1667 93.3333,21.1667 94,26.5C 94.8099,30.3575 94.6433,34.0242 93.5,37.5C 93.1667,24.1667 92.8333,24.1667 92.5,37.5C 92.1667,37.5 91.8333,37.5 91.5,37.5C 90.1751,38.9526 89.3418,38.6192 89,36.5C 88.3977,43.0515 84.8977,45.5515 78.5,44C 76.3825,42.9509 74.7158,41.4509 73.5,39.5C 75.8421,39.5041 77.8421,40.3375 79.5,42C 81.5,42.6667 83.5,42.6667 85.5,42C 87.993,35.6983 89.6596,29.1983 90.5,22.5 Z"/></g>
<g><path style="opacity:1" fill="#da981f" d="M 57.5,27.5 C 58.7401,28.973 59.7401,30.6396 60.5,32.5C 60.3764,33.1067 60.0431,33.44 59.5,33.5C 57.8442,30.8614 56.1776,28.1947 54.5,25.5C 53.3493,24.269 52.1827,24.269 51,25.5C 49.6323,28.7383 49.2989,32.0717 50,35.5C 52.2669,35.8613 54.4336,36.1946 56.5,36.5C 54.5211,39.1456 52.1878,41.4789 49.5,43.5C 47.3886,42.3954 46.0553,40.7288 45.5,38.5C 47.5289,33.3455 49.0289,28.0122 50,22.5C 50.6667,21.8333 51.3333,21.1667 52,20.5C 54.3245,22.5008 56.1579,24.8342 57.5,27.5 Z"/></g>
<g><path style="opacity:0.843" fill="#f1d688" d="M 40.5,31.5 C 40.4607,33.2239 40.794,33.5573 41.5,32.5C 42.0716,34.1188 42.4049,35.7855 42.5,37.5C 41.3757,38.8592 40.0423,39.8592 38.5,40.5C 29.7652,39.3627 21.9319,41.3627 15,46.5C 12.5603,49.7278 10.3936,53.0611 8.5,56.5C 10.8431,50.7969 13.5098,45.6302 16.5,41C 22.8041,36.6764 29.8041,34.3431 37.5,34C 38.6906,33.3021 39.6906,32.4687 40.5,31.5 Z"/></g>
<g><path style="opacity:1" fill="#eabe41" d="M 51.5,17.5 C 51.1667,18.1667 50.8333,18.8333 50.5,19.5C 48.39,20.4525 47.2233,22.1192 47,24.5C 46.675,28.6102 45.8417,32.6102 44.5,36.5C 44.5427,37.4164 44.8761,38.0831 45.5,38.5C 46.0553,40.7288 47.3886,42.3954 49.5,43.5C 52.1878,41.4789 54.5211,39.1456 56.5,36.5C 57.5,35.8333 58.5,35.1667 59.5,34.5C 59.9382,34.4346 60.2716,34.6012 60.5,35C 59.2899,36.0391 58.2899,37.2058 57.5,38.5C 57.7229,41.1142 56.5562,42.7809 54,43.5C 52.6542,46.9279 50.8208,49.9279 48.5,52.5C 44.6513,53.6752 41.6513,56.0086 39.5,59.5C 37.4862,59.3915 35.8195,60.0582 34.5,61.5C 33.5084,61.6716 32.8417,61.3382 32.5,60.5C 36.3524,55.8139 40.6857,51.6472 45.5,48C 45.3613,46.699 44.6946,45.8656 43.5,45.5C 43.1667,44.8333 42.8333,44.1667 42.5,43.5C 41.9653,41.5544 40.632,40.5544 38.5,40.5C 40.0423,39.8592 41.3757,38.8592 42.5,37.5C 42.4049,35.7855 42.0716,34.1188 41.5,32.5C 41.5,31.8333 41.1667,31.5 40.5,31.5C 40.5188,24.4694 41.0188,24.136 42,30.5C 42.3022,26.7549 43.4688,23.4216 45.5,20.5C 47.7851,17.5482 50.4517,14.8815 53.5,12.5C 53.8333,12.6667 54.1667,12.8333 54.5,13C 53.1667,14.3333 51.8333,15.6667 50.5,17C 50.7284,17.3988 51.0618,17.5654 51.5,17.5 Z"/></g>
<g><path style="opacity:0.016" fill="#c97400" d="M 92.5,37.5 C 92.8333,37.5 93.1667,37.5 93.5,37.5C 93.7373,38.791 93.404,39.791 92.5,40.5C 92.5,39.5 92.5,38.5 92.5,37.5 Z"/></g>
<g><path style="opacity:1" fill="#b8640a" d="M 69.5,39.5 C 71.9131,41.8872 74.5798,44.0539 77.5,46C 74.6907,47.0934 72.024,48.2601 69.5,49.5C 65.6942,49.02 62.3609,50.02 59.5,52.5C 57.246,51.8763 55.5794,50.543 54.5,48.5C 57.6508,44.8486 60.9842,41.3486 64.5,38C 66.1893,38.1343 67.856,38.6343 69.5,39.5 Z"/></g>
<g><path style="opacity:1" fill="#dfa92a" d="M 86.5,20.5 C 87.8946,21.8146 88.8946,21.4812 89.5,19.5C 90.404,20.209 90.7373,21.209 90.5,22.5C 89.6596,29.1983 87.993,35.6983 85.5,42C 83.5,42.6667 81.5,42.6667 79.5,42C 77.8421,40.3375 75.8421,39.5041 73.5,39.5C 72.075,38.078 71.075,36.4113 70.5,34.5C 73.8787,35.799 77.0454,37.4657 80,39.5C 81.7106,39.5607 83.044,38.8941 84,37.5C 85.4764,32.9241 85.8098,28.2574 85,23.5C 83.8904,21.9632 82.3904,21.2965 80.5,21.5C 82.4436,20.1723 84.4436,19.839 86.5,20.5 Z"/></g>
<g><path style="opacity:0.012" fill="#b55a00" d="M 91.5,40.5 C 91.8333,40.5 92.1667,40.5 92.5,40.5C 92.6716,41.4916 92.3382,42.1583 91.5,42.5C 91.5,41.8333 91.5,41.1667 91.5,40.5 Z"/></g>
<g><path style="opacity:0.008" fill="#806a00" d="M 90.5,42.5 C 90.8333,42.5 91.1667,42.5 91.5,42.5C 91.6716,43.4916 91.3382,44.1583 90.5,44.5C 90.5,43.8333 90.5,43.1667 90.5,42.5 Z"/></g>
<g><path style="opacity:1" fill="#e4b12d" d="M 38.5,40.5 C 40.632,40.5544 41.9653,41.5544 42.5,43.5C 36.3273,40.8626 30.1607,40.8626 24,43.5C 23.2204,45.3869 23.3871,47.0536 24.5,48.5C 25.9977,53.3217 28.6644,57.3217 32.5,60.5C 32.8417,61.3382 33.5084,61.6716 34.5,61.5C 33.2918,62.782 31.9584,62.782 30.5,61.5C 28.7656,58.7997 26.4323,56.7997 23.5,55.5C 22.1936,54.0878 21.3603,52.4211 21,50.5C 18.0337,47.7348 15.367,48.0682 13,51.5C 12.1083,54.2837 10.9416,56.9504 9.5,59.5C 8.7435,60.7733 8.07683,60.7733 7.5,59.5C 7.5,58.5 7.5,57.5 7.5,56.5C 7.83333,56.5 8.16667,56.5 8.5,56.5C 10.3936,53.0611 12.5603,49.7278 15,46.5C 21.9319,41.3627 29.7652,39.3627 38.5,40.5 Z"/></g>
<g><path style="opacity:1" fill="#c77e11" d="M 91.5,37.5 C 91.5,38.5 91.5,39.5 91.5,40.5C 90.6618,40.8417 90.3284,41.5084 90.5,42.5C 89.1667,43.1667 89.1667,43.8333 90.5,44.5C 90.573,46.0269 89.9063,47.0269 88.5,47.5C 88.1667,46.1667 87.8333,46.1667 87.5,47.5C 87.1667,47.5 86.8333,47.5 86.5,47.5C 86.6309,46.6236 86.2975,45.9569 85.5,45.5C 83.2746,47.11 80.9413,48.4434 78.5,49.5C 78.6309,48.6236 78.2975,47.9569 77.5,47.5C 74.9795,48.7853 72.3128,49.4519 69.5,49.5C 72.024,48.2601 74.6907,47.0934 77.5,46C 74.5798,44.0539 71.9131,41.8872 69.5,39.5C 70.8333,39.5 72.1667,39.5 73.5,39.5C 74.7158,41.4509 76.3825,42.9509 78.5,44C 84.8977,45.5515 88.3977,43.0515 89,36.5C 89.3418,38.6192 90.1751,38.9526 91.5,37.5 Z"/></g>
<g><path style="opacity:1" fill="#ca7d16" d="M 42.5,43.5 C 42.8333,44.1667 43.1667,44.8333 43.5,45.5C 41.6388,45.951 39.4721,45.951 37,45.5C 32.8202,46.5156 28.6535,47.5156 24.5,48.5C 23.3871,47.0536 23.2204,45.3869 24,43.5C 30.1607,40.8626 36.3273,40.8626 42.5,43.5 Z"/></g>
<g><path style="opacity:1" fill="#d69716" d="M 69.5,31.5 C 69.5569,32.609 69.8902,33.609 70.5,34.5C 71.075,36.4113 72.075,38.078 73.5,39.5C 72.1667,39.5 70.8333,39.5 69.5,39.5C 67.856,38.6343 66.1893,38.1343 64.5,38C 60.9842,41.3486 57.6508,44.8486 54.5,48.5C 55.5794,50.543 57.246,51.8763 59.5,52.5C 62.3609,50.02 65.6942,49.02 69.5,49.5C 72.3128,49.4519 74.9795,48.7853 77.5,47.5C 78.2975,47.9569 78.6309,48.6236 78.5,49.5C 74.148,51.9105 69.4813,53.5772 64.5,54.5C 60.8861,55.3594 57.2194,55.3594 53.5,54.5C 52.4479,52.744 50.7812,52.0773 48.5,52.5C 50.8208,49.9279 52.6542,46.9279 54,43.5C 56.5562,42.7809 57.7229,41.1142 57.5,38.5C 61.2833,35.8491 65.2833,33.5157 69.5,31.5 Z"/></g>
<g><path style="opacity:1" fill="#dc9c2a" d="M 43.5,45.5 C 44.6946,45.8656 45.3613,46.699 45.5,48C 40.6857,51.6472 36.3524,55.8139 32.5,60.5C 28.6644,57.3217 25.9977,53.3217 24.5,48.5C 28.6535,47.5156 32.8202,46.5156 37,45.5C 39.4721,45.951 41.6388,45.951 43.5,45.5 Z"/></g>
<g><path style="opacity:0.008" fill="#7e7f00" d="M 87.5,47.5 C 87.8333,47.5 88.1667,47.5 88.5,47.5C 88.3147,48.1701 87.9813,48.1701 87.5,47.5 Z"/></g>
<g><path style="opacity:0.012" fill="#a95500" d="M 86.5,48.5 C 86.8333,48.5 87.1667,48.5 87.5,48.5C 87.3147,49.1701 86.9813,49.1701 86.5,48.5 Z"/></g>
<g><path style="opacity:0.02" fill="#983300" d="M 85.5,49.5 C 85.8333,49.5 86.1667,49.5 86.5,49.5C 86.3147,50.1701 85.9813,50.1701 85.5,49.5 Z"/></g>
<g><path style="opacity:0.016" fill="#7e3f00" d="M 84.5,50.5 C 84.8333,50.5 85.1667,50.5 85.5,50.5C 85.3147,51.1701 84.9813,51.1701 84.5,50.5 Z"/></g>
<g><path style="opacity:1" fill="#ce880e" d="M 48.5,52.5 C 50.7812,52.0773 52.4479,52.744 53.5,54.5C 51.8632,53.7822 50.1966,53.6155 48.5,54C 45,57.5 41.5,61 38,64.5C 37.5304,65.5768 37.6971,66.5768 38.5,67.5C 37.6618,67.8417 37.3284,68.5084 37.5,69.5C 34.4563,68.1707 31.4563,68.3374 28.5,70C 26.5588,72.4536 24.2254,74.287 21.5,75.5C 26.6568,69.1484 32.6568,63.8151 39.5,59.5C 41.6513,56.0086 44.6513,53.6752 48.5,52.5 Z"/></g>
<g><path style="opacity:1" fill="#ad5815" d="M 86.5,47.5 C 86.5,47.8333 86.5,48.1667 86.5,48.5C 85.8333,48.5 85.5,48.8333 85.5,49.5C 84.8333,49.5 84.5,49.8333 84.5,50.5C 83.1667,50.8333 83.1667,51.1667 84.5,51.5C 79.6192,56.4123 73.6192,58.9123 66.5,59C 64.9395,63.1239 63.6061,67.2906 62.5,71.5C 62.7845,69.5853 62.4511,67.9187 61.5,66.5C 61.0321,62.0585 62.0321,58.0585 64.5,54.5C 69.4813,53.5772 74.148,51.9105 78.5,49.5C 80.9413,48.4434 83.2746,47.11 85.5,45.5C 86.2975,45.9569 86.6309,46.6236 86.5,47.5 Z"/></g>
<g><path style="opacity:0.012" fill="#dbb54e" d="M 7.5,56.5 C 6.59603,57.209 6.26269,58.209 6.5,59.5C 6.16667,59.5 5.83333,59.5 5.5,59.5C 5.37201,57.3453 5.87201,55.3453 7,53.5C 7.48278,54.448 7.64945,55.448 7.5,56.5 Z"/></g>
<g><path style="opacity:1" fill="#d49314" d="M 34.5,61.5 C 35.8195,60.0582 37.4862,59.3915 39.5,59.5C 32.6568,63.8151 26.6568,69.1484 21.5,75.5C 19.6889,76.822 17.6889,77.322 15.5,77C 13.2775,73.3771 10.9442,69.8771 8.5,66.5C 7.61432,67.325 7.28099,68.325 7.5,69.5C 7.16667,69.5 6.83333,69.5 6.5,69.5C 6.16667,69.5 5.83333,69.5 5.5,69.5C 4.16667,66.1667 4.16667,62.8333 5.5,59.5C 5.83333,71.5 6.16667,71.5 6.5,59.5C 6.83333,59.5 7.16667,59.5 7.5,59.5C 8.07683,60.7733 8.7435,60.7733 9.5,59.5C 10.9416,56.9504 12.1083,54.2837 13,51.5C 15.367,48.0682 18.0337,47.7348 21,50.5C 21.3603,52.4211 22.1936,54.0878 23.5,55.5C 26.4323,56.7997 28.7656,58.7997 30.5,61.5C 31.9584,62.782 33.2918,62.782 34.5,61.5 Z"/></g>
<g><path style="opacity:1" fill="#c87d0e" d="M 53.5,54.5 C 57.2194,55.3594 60.8861,55.3594 64.5,54.5C 62.0321,58.0585 61.0321,62.0585 61.5,66.5C 61.5,66.8333 61.5,67.1667 61.5,67.5C 60.3299,69.6502 59.3299,71.9836 58.5,74.5C 58.0431,75.2975 57.3764,75.6309 56.5,75.5C 58.5761,70.654 58.9094,65.654 57.5,60.5C 56.5604,63.8025 55.727,67.1358 55,70.5C 54.2917,71.3805 53.4584,72.0472 52.5,72.5C 54.2975,68.7602 55.2975,64.7602 55.5,60.5C 55.7475,58.1417 55.0808,56.1417 53.5,54.5 Z"/></g>
<g><path style="opacity:1" fill="#c16d0f" d="M 55.5,60.5 C 55.2975,64.7602 54.2975,68.7602 52.5,72.5C 48.7399,73.3883 45.4065,72.3883 42.5,69.5C 45.2496,66.5685 47.9163,63.4019 50.5,60C 52.1075,60.0187 53.7741,60.1854 55.5,60.5 Z"/></g>
<g><path style="opacity:1" fill="#b55f0c" d="M 53.5,54.5 C 55.0808,56.1417 55.7475,58.1417 55.5,60.5C 53.7741,60.1854 52.1075,60.0187 50.5,60C 47.9163,63.4019 45.2496,66.5685 42.5,69.5C 40.9382,69.2671 39.6049,68.6005 38.5,67.5C 37.6971,66.5768 37.5304,65.5768 38,64.5C 41.5,61 45,57.5 48.5,54C 50.1966,53.6155 51.8632,53.7822 53.5,54.5 Z"/></g>
<g><path style="opacity:1" fill="#c36f0d" d="M 16.5,51.5 C 17.8221,51.33 18.9887,51.6634 20,52.5C 22.3809,56.7658 24.8809,60.9324 27.5,65C 24.7493,69.9354 20.7493,73.1021 15.5,74.5C 14.2139,70.9229 13.2139,67.2562 12.5,63.5C 12.85,59.1165 14.1833,55.1165 16.5,51.5 Z"/></g>
<g><path style="opacity:1" fill="#9c4407" d="M 46.5,81.5 C 42.199,79.9341 38.0323,77.9341 34,75.5C 30.971,78.4281 27.471,80.4281 23.5,81.5C 23.5569,80.391 23.8902,79.391 24.5,78.5C 27.1798,75.9875 30.0132,73.6541 33,71.5C 36.8984,73.5331 40.7318,75.6997 44.5,78C 45.8228,78.8159 46.4894,79.9826 46.5,81.5 Z"/></g>
<g><path style="opacity:1" fill="#d6961c" d="M 56.5,75.5 C 55.5987,76.2905 54.9321,77.2905 54.5,78.5C 48.4392,76.3022 42.7725,73.3022 37.5,69.5C 37.3284,68.5084 37.6618,67.8417 38.5,67.5C 39.6049,68.6005 40.9382,69.2671 42.5,69.5C 45.4065,72.3883 48.7399,73.3883 52.5,72.5C 53.4584,72.0472 54.2917,71.3805 55,70.5C 55.727,67.1358 56.5604,63.8025 57.5,60.5C 58.9094,65.654 58.5761,70.654 56.5,75.5 Z"/></g>
<g><path style="opacity:1" fill="#a74e08" d="M 46.5,81.5 C 46.0825,82.2216 45.4158,82.7216 44.5,83C 37.3484,85.0229 30.3484,84.8562 23.5,82.5C 23.5,82.1667 23.5,81.8333 23.5,81.5C 27.471,80.4281 30.971,78.4281 34,75.5C 38.0323,77.9341 42.199,79.9341 46.5,81.5 Z"/></g>
<g><path style="opacity:0.008" fill="#e237ff" d="M 7.5,75.5 C 7.83333,75.5 8.16667,75.5 8.5,75.5C 8.5,76.1667 8.5,76.8333 8.5,77.5C 7.66175,77.1583 7.32842,76.4916 7.5,75.5 Z"/></g>
<g><path style="opacity:0.008" fill="#976eff" d="M 60.5,75.5 C 60.8333,75.5 61.1667,75.5 61.5,75.5C 61.6716,76.4916 61.3382,77.1583 60.5,77.5C 60.5,76.8333 60.5,76.1667 60.5,75.5 Z"/></g>
<g><path style="opacity:0.012" fill="#626200" d="M 8.5,77.5 C 8.83333,77.5 9.16667,77.5 9.5,77.5C 9.5,78.1667 9.5,78.8333 9.5,79.5C 8.66175,79.1583 8.32842,78.4916 8.5,77.5 Z"/></g>
<g><path style="opacity:0.004" fill="#772b0b" d="M 9.5,79.5 C 9.83333,79.5 10.1667,79.5 10.5,79.5C 10.5,80.1667 10.8333,80.5 11.5,80.5C 10.6987,82.7929 10.032,82.4596 9.5,79.5 Z"/></g>
<g><path style="opacity:0.008" fill="#7e0000" d="M 57.5,80.5 C 57.8333,80.5 58.1667,80.5 58.5,80.5C 58.3147,81.1701 57.9813,81.1701 57.5,80.5 Z"/></g>
<g><path style="opacity:1" fill="#ae5c11" d="M 5.5,69.5 C 5.83333,69.5 6.16667,69.5 6.5,69.5C 6.83333,73.5 7.16667,73.5 7.5,69.5C 9.93139,72.1127 12.2647,74.946 14.5,78C 17.7363,79.7237 21.0697,79.8904 24.5,78.5C 23.8902,79.391 23.5569,80.391 23.5,81.5C 23.5,81.8333 23.5,82.1667 23.5,82.5C 22.475,82.8966 22.3083,83.5632 23,84.5C 25.0581,85.2291 26.8914,86.2291 28.5,87.5C 25.2148,87.2643 22.2148,86.2643 19.5,84.5C 18.914,84.7093 18.414,85.0426 18,85.5C 16.549,83.5359 14.7157,82.2026 12.5,81.5C 12.5,80.8333 12.1667,80.5 11.5,80.5C 10.8333,80.5 10.5,80.1667 10.5,79.5C 10.6716,78.5084 10.3382,77.8417 9.5,77.5C 9.67158,76.5084 9.33825,75.8417 8.5,75.5C 8.16667,72.8333 7.83333,72.8333 7.5,75.5C 5.92606,73.8984 5.25939,71.8984 5.5,69.5 Z"/></g>
<g><path style="opacity:1" fill="#bd6f0c" d="M 21.5,75.5 C 24.2254,74.287 26.5588,72.4536 28.5,70C 31.4563,68.3374 34.4563,68.1707 37.5,69.5C 42.7725,73.3022 48.4392,76.3022 54.5,78.5C 51.1613,81.8326 47.4947,84.8326 43.5,87.5C 38.3477,88.8137 33.3477,88.8137 28.5,87.5C 26.8914,86.2291 25.0581,85.2291 23,84.5C 22.3083,83.5632 22.475,82.8966 23.5,82.5C 30.3484,84.8562 37.3484,85.0229 44.5,83C 45.4158,82.7216 46.0825,82.2216 46.5,81.5C 46.4894,79.9826 45.8228,78.8159 44.5,78C 40.7318,75.6997 36.8984,73.5331 33,71.5C 30.0132,73.6541 27.1798,75.9875 24.5,78.5C 21.0697,79.8904 17.7363,79.7237 14.5,78C 12.2647,74.946 9.93139,72.1127 7.5,69.5C 7.28099,68.325 7.61432,67.325 8.5,66.5C 10.9442,69.8771 13.2775,73.3771 15.5,77C 17.6889,77.322 19.6889,76.822 21.5,75.5 Z"/></g>
<g><path style="opacity:0.016" fill="#7e3f00" d="M 50.5,87.5 C 50.8333,87.5 51.1667,87.5 51.5,87.5C 51.3147,88.1701 50.9813,88.1701 50.5,87.5 Z"/></g>
<g><path style="opacity:1" fill="#9d5516" d="M 61.5,67.5 C 61.2322,69.099 61.5655,70.4324 62.5,71.5C 62.7678,73.099 62.4345,74.4324 61.5,75.5C 61.1667,71.5 60.8333,71.5 60.5,75.5C 59.1667,76.1667 59.1667,76.8333 60.5,77.5C 60.573,79.0269 59.9063,80.0269 58.5,80.5C 58.1667,79.1667 57.8333,79.1667 57.5,80.5C 56.1667,80.8333 56.1667,81.1667 57.5,81.5C 56.5,84.5 54.5,86.5 51.5,87.5C 51.1667,86.1667 50.8333,86.1667 50.5,87.5C 49.1667,87.8333 49.1667,88.1667 50.5,88.5C 39.8027,96.3146 28.8027,96.4813 17.5,89C 16.0103,86.5095 14.3436,84.0095 12.5,81.5C 14.7157,82.2026 16.549,83.5359 18,85.5C 18.414,85.0426 18.914,84.7093 19.5,84.5C 22.2148,86.2643 25.2148,87.2643 28.5,87.5C 33.3477,88.8137 38.3477,88.8137 43.5,87.5C 47.4947,84.8326 51.1613,81.8326 54.5,78.5C 54.9321,77.2905 55.5987,76.2905 56.5,75.5C 57.3764,75.6309 58.0431,75.2975 58.5,74.5C 59.3299,71.9836 60.3299,69.6502 61.5,67.5 Z"/></g>
</svg>
