<?xml version="1.0" encoding="UTF-8"?>
<!DOCTYPE svg PUBLIC "-//W3C//DTD SVG 1.1//EN" "http://www.w3.org/Graphics/SVG/1.1/DTD/svg11.dtd">
<svg xmlns="http://www.w3.org/2000/svg" version="1.1" width="100px" height="100px" style="shape-rendering:geometricPrecision; text-rendering:geometricPrecision; image-rendering:optimizeQuality; fill-rule:evenodd; clip-rule:evenodd" xmlns:xlink="http://www.w3.org/1999/xlink">
<g><path style="opacity:1" fill="#6bd7a0" d="M 50.5,14.5 C 48.8333,13.8333 47.1667,13.1667 45.5,12.5C 44.653,11.0337 43.3197,10.2004 41.5,10C 34.5135,8.80517 27.8468,9.63851 21.5,12.5C 22.5981,11.603 22.5981,10.7697 21.5,10C 26.6302,5.29106 32.6302,3.62439 39.5,5C 36.8333,5.33333 34.1667,5.66667 31.5,6C 34.7058,6.29634 37.8725,6.79634 41,7.5C 43.4675,6.29862 45.6342,6.79862 47.5,9C 47.1667,9.33333 46.8333,9.66667 46.5,10C 48.0414,11.3712 49.3747,12.8712 50.5,14.5 Z"/></g>
<g><path style="opacity:1" fill="#35c079" d="M 45.5,12.5 C 38.4921,12.3337 31.4921,12.5004 24.5,13C 22.1192,13.2233 20.4525,14.39 19.5,16.5C 19.5,17.1667 19.5,17.8333 19.5,18.5C 19.1667,18.5 18.8333,18.5 18.5,18.5C 18.5,17.8333 18.1667,17.5 17.5,17.5C 18.0798,15.2512 19.4131,13.5846 21.5,12.5C 27.8468,9.63851 34.5135,8.80517 41.5,10C 43.3197,10.2004 44.653,11.0337 45.5,12.5 Z"/></g>
<g><path style="opacity:1" fill="#12a14c" d="M 45.5,12.5 C 47.1667,13.1667 48.8333,13.8333 50.5,14.5C 49.7703,16.045 48.437,16.8784 46.5,17C 38.5069,17.4997 30.5069,17.6664 22.5,17.5C 21.609,16.8902 20.609,16.5569 19.5,16.5C 20.4525,14.39 22.1192,13.2233 24.5,13C 31.4921,12.5004 38.4921,12.3337 45.5,12.5 Z"/></g>
<g><path style="opacity:0.012" fill="#56c58c" d="M 16.5,17.5 C 15.475,17.1034 15.3083,16.4368 16,15.5C 16.4643,16.0944 16.631,16.7611 16.5,17.5 Z"/></g>
<g><path style="opacity:0.004" fill="#254e37" d="M 16.5,17.5 C 16.8333,17.5 17.1667,17.5 17.5,17.5C 17.5,18.1667 17.5,18.8333 17.5,19.5C 16.6618,19.1583 16.3284,18.4916 16.5,17.5 Z"/></g>
<g><path style="opacity:1" fill="#83d5ac" d="M 19.5,16.5 C 20.609,16.5569 21.609,16.8902 22.5,17.5C 30.3433,18.1666 38.3433,18.8333 46.5,19.5C 39.4575,23.9199 32.1242,24.5866 24.5,21.5C 22.9991,20.2485 21.3325,19.2485 19.5,18.5C 19.5,17.8333 19.5,17.1667 19.5,16.5 Z"/></g>
<g><path style="opacity:1" fill="#58c58a" d="M 50.5,14.5 C 51.1667,14.8333 51.8333,15.1667 52.5,15.5C 52.5,15.8333 52.5,16.1667 52.5,16.5C 52.1667,17.1667 51.8333,17.8333 51.5,18.5C 50.1667,19.1667 49.1667,20.1667 48.5,21.5C 46.9731,21.427 45.9731,22.0937 45.5,23.5C 44.1667,23.8333 42.8333,24.1667 41.5,24.5C 36.5,24.5 31.5,24.5 26.5,24.5C 25.8333,23.5 25.1667,22.5 24.5,21.5C 32.1242,24.5866 39.4575,23.9199 46.5,19.5C 38.3433,18.8333 30.3433,18.1666 22.5,17.5C 30.5069,17.6664 38.5069,17.4997 46.5,17C 48.437,16.8784 49.7703,16.045 50.5,14.5 Z"/></g>
<g><path style="opacity:1" fill="#288840" d="M 18.5,18.5 C 18.8333,18.5 19.1667,18.5 19.5,18.5C 21.3325,19.2485 22.9991,20.2485 24.5,21.5C 25.1667,22.5 25.8333,23.5 26.5,24.5C 31.5,24.5 36.5,24.5 41.5,24.5C 39.9724,25.3092 38.3057,25.9759 36.5,26.5C 36.1667,26.5 35.8333,26.5 35.5,26.5C 35.1667,26.5 34.8333,26.5 34.5,26.5C 27.8333,26.8333 27.8333,27.1667 34.5,27.5C 34.5,28.1667 34.1667,28.5 33.5,28.5C 26.7144,28.0409 21.3811,25.0409 17.5,19.5C 18.1667,19.5 18.5,19.1667 18.5,18.5 Z"/></g>
<g><path style="opacity:0.012" fill="#ffe649" d="M 66.5,24.5 C 68.5195,25.5383 68.8528,26.8716 67.5,28.5C 67.6716,27.5084 67.3382,26.8417 66.5,26.5C 66.5,25.8333 66.5,25.1667 66.5,24.5 Z"/></g>
<g><path style="opacity:1" fill="#f0d65f" d="M 52.5,15.5 C 53.6009,14.4017 54.9343,14.235 56.5,15C 54.4049,15.5556 54.2382,16.0556 56,16.5C 61.5078,16.1388 65.0078,18.8054 66.5,24.5C 65.8333,24.5 65.5,24.8333 65.5,25.5C 64.8826,25.3893 64.3826,25.056 64,24.5C 63.5065,26.1341 63.3398,27.8008 63.5,29.5C 62.325,29.719 61.325,29.3857 60.5,28.5C 60.0428,26.4024 59.0428,24.7358 57.5,23.5C 57.573,21.9731 56.9063,20.9731 55.5,20.5C 54.713,18.8958 53.3797,18.2291 51.5,18.5C 51.8333,17.8333 52.1667,17.1667 52.5,16.5C 53.8333,16.1667 53.8333,15.8333 52.5,15.5 Z"/></g>
<g><path style="opacity:1" fill="#f5df70" d="M 48.5,21.5 C 49.5,21.5 50.5,21.5 51.5,21.5C 51.5,23.5 51.5,25.5 51.5,27.5C 50.5987,28.2905 49.9321,29.2905 49.5,30.5C 48.5416,30.9528 47.7083,31.6195 47,32.5C 45.6253,30.0632 45.1253,27.3965 45.5,24.5C 45.5,24.1667 45.5,23.8333 45.5,23.5C 45.9731,22.0937 46.9731,21.427 48.5,21.5 Z"/></g>
<g><path style="opacity:1" fill="#f5d94a" d="M 44.5,25.5 C 44.7787,30.5947 44.4454,35.5947 43.5,40.5C 42.7023,42.9663 41.369,44.9663 39.5,46.5C 40.4173,40.1642 41.4173,33.8309 42.5,27.5C 42.8333,26.5 43.5,25.8333 44.5,25.5 Z"/></g>
<g><path style="opacity:1" fill="#f6dc5f" d="M 45.5,24.5 C 45.1253,27.3965 45.6253,30.0632 47,32.5C 47.7083,31.6195 48.5416,30.9528 49.5,30.5C 49.5,35.1667 49.5,39.8333 49.5,44.5C 48.5489,43.0813 48.2155,41.4147 48.5,39.5C 46.7839,39.6287 45.1172,39.962 43.5,40.5C 44.4454,35.5947 44.7787,30.5947 44.5,25.5C 44.5,24.8333 44.8333,24.5 45.5,24.5 Z"/></g>
<g><path style="opacity:0.984" fill="#d39f4b" d="M 45.5,23.5 C 45.5,23.8333 45.5,24.1667 45.5,24.5C 44.8333,24.5 44.5,24.8333 44.5,25.5C 43.5,25.8333 42.8333,26.5 42.5,27.5C 40.4131,28.5846 39.0798,30.2512 38.5,32.5C 36.3674,34.0905 34.7007,36.0905 33.5,38.5C 33.1667,38.5 32.8333,38.5 32.5,38.5C 33.0138,36.6336 33.6805,34.8003 34.5,33C 33.8524,31.5603 33.5191,30.0603 33.5,28.5C 34.1667,28.5 34.5,28.1667 34.5,27.5C 34.5,27.1667 34.5,26.8333 34.5,26.5C 34.8333,26.5 35.1667,26.5 35.5,26.5C 35.8333,29.1667 36.1667,29.1667 36.5,26.5C 38.3057,25.9759 39.9724,25.3092 41.5,24.5C 42.8333,24.1667 44.1667,23.8333 45.5,23.5 Z"/></g>
<g><path style="opacity:1" fill="#f3d338" d="M 55.5,20.5 C 56.9063,20.9731 57.573,21.9731 57.5,23.5C 58.4955,26.8211 59.4955,30.1544 60.5,33.5C 60.0233,34.4776 59.3567,35.3109 58.5,36C 58.7284,36.3988 59.0618,36.5654 59.5,36.5C 59.0051,38.8239 59.0051,40.9906 59.5,43C 59.2196,44.395 58.5529,45.5617 57.5,46.5C 55.8076,44.6414 54.3076,42.6414 53,40.5C 52.3333,35.5 52.3333,30.5 53,25.5C 53.0496,23.256 53.8829,21.5893 55.5,20.5 Z"/></g>
<g><path style="opacity:1" fill="#f4d43c" d="M 42.5,27.5 C 41.4173,33.8309 40.4173,40.1642 39.5,46.5C 37.2313,48.7991 36.898,51.4658 38.5,54.5C 36.597,54.2041 34.9303,53.5375 33.5,52.5C 34.9526,51.1751 34.6192,50.3418 32.5,50C 33.7431,43.941 35.7431,38.1077 38.5,32.5C 39.0798,30.2512 40.4131,28.5846 42.5,27.5 Z"/></g>
<g><path style="opacity:1" fill="#f0cb43" d="M 57.5,23.5 C 59.0428,24.7358 60.0428,26.4024 60.5,28.5C 61.325,29.3857 62.325,29.719 63.5,29.5C 63.3398,27.8008 63.5065,26.1341 64,24.5C 64.3826,25.056 64.8826,25.3893 65.5,25.5C 65.5,26.1667 65.8333,26.5 66.5,26.5C 66.3284,27.4916 66.6618,28.1583 67.5,28.5C 67.4914,30.3084 67.9914,31.9751 69,33.5C 69.3333,32.8333 69.6667,32.1667 70,31.5C 70.6667,32.8333 71.3333,34.1667 72,35.5C 71.3881,38.1936 71.5548,40.8603 72.5,43.5C 70.7839,43.3713 69.1172,43.038 67.5,42.5C 66.1667,42.5 64.8333,42.5 63.5,42.5C 61.0228,40.795 59.6894,38.795 59.5,36.5C 59.0618,36.5654 58.7284,36.3988 58.5,36C 59.3567,35.3109 60.0233,34.4776 60.5,33.5C 59.4955,30.1544 58.4955,26.8211 57.5,23.5 Z"/></g>
<g><path style="opacity:1" fill="#f6db5f" d="M 49.5,44.5 C 52.1559,48.1244 52.1559,51.7911 49.5,55.5C 46.8333,55.5 44.1667,55.5 41.5,55.5C 40.391,55.4431 39.391,55.1098 38.5,54.5C 36.898,51.4658 37.2313,48.7991 39.5,46.5C 41.369,44.9663 42.7023,42.9663 43.5,40.5C 45.1172,39.962 46.7839,39.6287 48.5,39.5C 48.2155,41.4147 48.5489,43.0813 49.5,44.5 Z"/></g>
<g><path style="opacity:1" fill="#f5d84e" d="M 51.5,27.5 C 51.1108,35.1139 51.7774,42.6139 53.5,50C 53.8581,53.1335 52.5248,54.9668 49.5,55.5C 52.1559,51.7911 52.1559,48.1244 49.5,44.5C 49.5,39.8333 49.5,35.1667 49.5,30.5C 49.9321,29.2905 50.5987,28.2905 51.5,27.5 Z"/></g>
<g><path style="opacity:1" fill="#f2d147" d="M 38.5,32.5 C 35.7431,38.1077 33.7431,43.941 32.5,50C 34.6192,50.3418 34.9526,51.1751 33.5,52.5C 31.2048,53.4746 29.2048,54.8079 27.5,56.5C 26.5,56.5 25.5,56.5 24.5,56.5C 27.4633,54.5367 30.13,51.5367 32.5,47.5C 33.4066,44.5788 33.7399,41.5788 33.5,38.5C 34.7007,36.0905 36.3674,34.0905 38.5,32.5 Z"/></g>
<g><path style="opacity:1" fill="#f3d33f" d="M 51.5,18.5 C 53.3797,18.2291 54.713,18.8958 55.5,20.5C 53.8829,21.5893 53.0496,23.256 53,25.5C 52.3333,30.5 52.3333,35.5 53,40.5C 54.3076,42.6414 55.8076,44.6414 57.5,46.5C 58.5529,45.5617 59.2196,44.395 59.5,43C 59.0051,40.9906 59.0051,38.8239 59.5,36.5C 59.6894,38.795 61.0228,40.795 63.5,42.5C 63.5,42.8333 63.5,43.1667 63.5,43.5C 61.7137,47.5064 62.3804,51.0064 65.5,54C 65.2716,54.3988 64.9382,54.5654 64.5,54.5C 62.3222,53.796 60.3222,53.4626 58.5,53.5C 57.707,54.3554 58.0403,55.1887 59.5,56C 55.6717,54.5191 52.005,55.3524 48.5,58.5C 45.8411,58.0826 43.5078,57.0826 41.5,55.5C 44.1667,55.5 46.8333,55.5 49.5,55.5C 52.5248,54.9668 53.8581,53.1335 53.5,50C 51.7774,42.6139 51.1108,35.1139 51.5,27.5C 51.5,25.5 51.5,23.5 51.5,21.5C 50.5,21.5 49.5,21.5 48.5,21.5C 49.1667,20.1667 50.1667,19.1667 51.5,18.5 Z"/></g>
<g><path style="opacity:1" fill="#f1d057" d="M 67.5,42.5 C 69.1172,43.038 70.7839,43.3713 72.5,43.5C 73.397,44.5981 74.2303,44.5981 75,43.5C 75.6917,44.4368 75.525,45.1034 74.5,45.5C 73.6236,45.3691 72.9569,45.7025 72.5,46.5C 75.9867,51.7584 74.6533,53.9251 68.5,53C 66.2383,49.7309 65.905,46.2309 67.5,42.5 Z"/></g>
<g><path style="opacity:0.997" fill="#f2cf4e" d="M 63.5,43.5 C 63.5,43.1667 63.5,42.8333 63.5,42.5C 64.8333,42.5 66.1667,42.5 67.5,42.5C 65.905,46.2309 66.2383,49.7309 68.5,53C 74.6533,53.9251 75.9867,51.7584 72.5,46.5C 72.9569,45.7025 73.6236,45.3691 74.5,45.5C 75.5294,47.5168 76.5294,49.5168 77.5,51.5C 77.1193,52.9311 76.1193,53.7645 74.5,54C 72.1667,54.6667 69.8333,54.6667 67.5,54C 66.0936,51.5551 64.7602,49.0551 63.5,46.5C 64.6527,45.3132 64.6527,44.3132 63.5,43.5 Z"/></g>
<g><path style="opacity:0.988" fill="#f3d25f" d="M 32.5,38.5 C 32.8333,38.5 33.1667,38.5 33.5,38.5C 33.7399,41.5788 33.4066,44.5788 32.5,47.5C 30.13,51.5367 27.4633,54.5367 24.5,56.5C 24.1667,56.5 23.8333,56.5 23.5,56.5C 24.2483,54.4159 24.2483,52.4159 23.5,50.5C 24.6667,48.8333 25.8333,47.1667 27,45.5C 27.6667,46.8333 28.3333,46.8333 29,45.5C 30.1799,43.1401 31.3466,40.8068 32.5,38.5 Z"/></g>
<g><path style="opacity:1" fill="#f6df76" d="M 43.5,44.5 C 48.6745,44.8349 50.3412,47.5016 48.5,52.5C 46.2984,53.7797 44.1317,53.7797 42,52.5C 41.2879,49.5624 41.7879,46.8957 43.5,44.5 Z"/></g>
<g><path style="opacity:1" fill="#f0cb42" d="M 63.5,43.5 C 64.6527,44.3132 64.6527,45.3132 63.5,46.5C 64.7602,49.0551 66.0936,51.5551 67.5,54C 69.8333,54.6667 72.1667,54.6667 74.5,54C 76.1193,53.7645 77.1193,52.9311 77.5,51.5C 78.6737,52.5137 79.3404,53.847 79.5,55.5C 77.7973,54.3398 77.1307,55.0065 77.5,57.5C 75.2776,57.178 73.4443,57.8446 72,59.5C 71.7216,58.5842 71.2216,57.9175 70.5,57.5C 68.0301,57.3465 66.0301,56.3465 64.5,54.5C 64.9382,54.5654 65.2716,54.3988 65.5,54C 62.3804,51.0064 61.7137,47.5064 63.5,43.5 Z"/></g>
<g><path style="opacity:1" fill="#f0c931" d="M 64.5,54.5 C 66.0301,56.3465 68.0301,57.3465 70.5,57.5C 70.3893,58.1174 70.056,58.6174 69.5,59C 66.6076,59.9933 63.7743,60.16 61,59.5C 59.4411,60.0294 57.9411,60.696 56.5,61.5C 55.7348,60.3881 54.7348,59.7214 53.5,59.5C 52.1779,59.33 51.0113,59.6634 50,60.5C 49.2828,59.9558 48.7828,59.2891 48.5,58.5C 52.005,55.3524 55.6717,54.5191 59.5,56C 58.0403,55.1887 57.707,54.3554 58.5,53.5C 60.3222,53.4626 62.3222,53.796 64.5,54.5 Z"/></g>
<g><path style="opacity:1" fill="#f2ce35" d="M 33.5,52.5 C 34.9303,53.5375 36.597,54.2041 38.5,54.5C 39.391,55.1098 40.391,55.4431 41.5,55.5C 43.5078,57.0826 45.8411,58.0826 48.5,58.5C 42.1255,59.0834 35.6255,59.0834 29,58.5C 28.2828,57.9558 27.7828,57.2891 27.5,56.5C 29.2048,54.8079 31.2048,53.4746 33.5,52.5 Z"/></g>
<g><path style="opacity:1" fill="#eec224" d="M 22.5,56.5 C 22.8333,56.5 23.1667,56.5 23.5,56.5C 23.8333,56.5 24.1667,56.5 24.5,56.5C 25.5,56.5 26.5,56.5 27.5,56.5C 27.7828,57.2891 28.2828,57.9558 29,58.5C 35.6255,59.0834 42.1255,59.0834 48.5,58.5C 48.7828,59.2891 49.2828,59.9558 50,60.5C 51.0113,59.6634 52.1779,59.33 53.5,59.5C 53.0825,60.2216 52.4158,60.7216 51.5,61C 52.1667,61.3333 52.8333,61.6667 53.5,62C 50.9644,62.1862 48.631,62.6862 46.5,63.5C 41.3258,63.3029 35.8258,63.3029 30,63.5C 28.6631,61.9963 26.9964,60.9963 25,60.5C 24.2828,61.0442 23.7828,61.7109 23.5,62.5C 22.596,61.791 22.2627,60.791 22.5,59.5C 22.5,58.5 22.5,57.5 22.5,56.5 Z"/></g>
<g><path style="opacity:1" fill="#ecbb23" d="M 79.5,55.5 C 80.404,56.209 80.7373,57.209 80.5,58.5C 80.5,58.8333 80.5,59.1667 80.5,59.5C 77.1969,59.0941 74.0302,60.0941 71,62.5C 68.0154,63.1582 64.8487,63.1582 61.5,62.5C 59.6036,63.2745 57.937,64.2745 56.5,65.5C 55.8333,65.5 55.1667,65.5 54.5,65.5C 54.6309,64.6236 54.2975,63.9569 53.5,63.5C 51.1247,63.584 48.7913,63.584 46.5,63.5C 48.631,62.6862 50.9644,62.1862 53.5,62C 52.8333,61.6667 52.1667,61.3333 51.5,61C 52.4158,60.7216 53.0825,60.2216 53.5,59.5C 54.7348,59.7214 55.7348,60.3881 56.5,61.5C 57.9411,60.696 59.4411,60.0294 61,59.5C 63.7743,60.16 66.6076,59.9933 69.5,59C 70.056,58.6174 70.3893,58.1174 70.5,57.5C 71.2216,57.9175 71.7216,58.5842 72,59.5C 73.4443,57.8446 75.2776,57.178 77.5,57.5C 77.1307,55.0065 77.7973,54.3398 79.5,55.5 Z"/></g>
<g><path style="opacity:1" fill="#e7af17" d="M 80.5,59.5 C 80.8333,59.5 81.1667,59.5 81.5,59.5C 81.5,61.8333 81.5,64.1667 81.5,66.5C 80.2652,66.2786 79.2652,65.6119 78.5,64.5C 75.7175,64.9368 73.0509,64.9368 70.5,64.5C 67.775,64.937 65.775,66.2704 64.5,68.5C 63.7784,68.0825 63.2784,67.4158 63,66.5C 61.6054,67.8146 60.6054,67.4812 60,65.5C 58.9076,67.9312 57.7409,67.9312 56.5,65.5C 57.937,64.2745 59.6036,63.2745 61.5,62.5C 64.8487,63.1582 68.0154,63.1582 71,62.5C 74.0302,60.0941 77.1969,59.0941 80.5,59.5 Z"/></g>
<g><path style="opacity:0.998" fill="#e3a212" d="M 81.5,73.5 C 81.1667,69.5 80.8333,69.5 80.5,73.5C 79.6618,73.8417 79.3284,74.5084 79.5,75.5C 79.1667,75.5 78.8333,75.5 78.5,75.5C 76.0969,71.1557 72.7636,68.989 68.5,69C 71.1606,72.528 70.8273,73.028 67.5,70.5C 66.603,69.4019 65.7697,69.4019 65,70.5C 64.5357,69.9056 64.369,69.2389 64.5,68.5C 65.775,66.2704 67.775,64.937 70.5,64.5C 73.0509,64.9368 75.7175,64.9368 78.5,64.5C 79.2652,65.6119 80.2652,66.2786 81.5,66.5C 82.8926,66.3401 82.8926,64.0067 81.5,59.5C 81.1667,59.5 80.8333,59.5 80.5,59.5C 80.5,59.1667 80.5,58.8333 80.5,58.5C 81.2679,57.7375 81.7679,56.7375 82,55.5C 84.1428,61.703 83.9762,67.703 81.5,73.5 Z"/></g>
<g><path style="opacity:1" fill="#e9b414" d="M 46.5,63.5 C 48.7913,63.584 51.1247,63.584 53.5,63.5C 54.2975,63.9569 54.6309,64.6236 54.5,65.5C 53.7784,65.9175 53.2784,66.5842 53,67.5C 51.3308,65.2787 49.3308,64.9454 47,66.5C 45.4053,67.3557 44.572,68.6891 44.5,70.5C 44.1667,70.5 43.8333,70.5 43.5,70.5C 44.3307,65.8553 43.1641,64.8553 40,67.5C 38.3333,66.1667 36.6667,66.1667 35,67.5C 34.6667,66.8333 34.3333,66.1667 34,65.5C 32.8831,65.6651 31.7164,65.9984 30.5,66.5C 28.2019,65.0205 25.8685,63.6872 23.5,62.5C 23.7828,61.7109 24.2828,61.0442 25,60.5C 26.9964,60.9963 28.6631,61.9963 30,63.5C 35.8258,63.3029 41.3258,63.3029 46.5,63.5 Z"/></g>
<g><path style="opacity:1" fill="#e5a817" d="M 22.5,56.5 C 21.1667,57.5 21.1667,58.5 22.5,59.5C 22.2627,60.791 22.596,61.791 23.5,62.5C 25.8685,63.6872 28.2019,65.0205 30.5,66.5C 31.7164,65.9984 32.8831,65.6651 34,65.5C 34.3333,66.1667 34.6667,66.8333 35,67.5C 36.6667,66.1667 38.3333,66.1667 40,67.5C 43.1641,64.8553 44.3307,65.8553 43.5,70.5C 42.213,69.2317 41.213,69.565 40.5,71.5C 39.4593,69.0087 38.6259,69.0087 38,71.5C 34.0677,69.4522 29.5677,67.7855 24.5,66.5C 24.6495,67.552 24.4828,68.552 24,69.5C 23.3292,68.7476 22.4959,68.4142 21.5,68.5C 21.1667,57.8333 20.8333,57.8333 20.5,68.5C 20.5,68.8333 20.5,69.1667 20.5,69.5C 19.0683,64.138 19.5683,58.8047 22,53.5C 22.4828,54.448 22.6495,55.448 22.5,56.5 Z"/></g>
<g><path style="opacity:1" fill="#e1a00c" d="M 54.5,65.5 C 55.1667,65.5 55.8333,65.5 56.5,65.5C 57.7409,67.9312 58.9076,67.9312 60,65.5C 60.6054,67.4812 61.6054,67.8146 63,66.5C 63.2784,67.4158 63.7784,68.0825 64.5,68.5C 64.369,69.2389 64.5357,69.9056 65,70.5C 65.7697,69.4019 66.603,69.4019 67.5,70.5C 67.6716,71.4916 67.3382,72.1583 66.5,72.5C 64.4231,71.4766 62.4231,71.81 60.5,73.5C 59.9344,71.9217 58.9344,70.5884 57.5,69.5C 56.8076,70.0253 56.3076,70.6919 56,71.5C 53.6667,70.1667 51.3333,70.1667 49,71.5C 47.9158,69.2177 46.4158,68.8843 44.5,70.5C 44.572,68.6891 45.4053,67.3557 47,66.5C 49.3308,64.9454 51.3308,65.2787 53,67.5C 53.2784,66.5842 53.7784,65.9175 54.5,65.5 Z"/></g>
<g><path style="opacity:1" fill="#df960e" d="M 43.5,70.5 C 43.8333,70.5 44.1667,70.5 44.5,70.5C 46.4158,68.8843 47.9158,69.2177 49,71.5C 51.3333,70.1667 53.6667,70.1667 56,71.5C 56.3076,70.6919 56.8076,70.0253 57.5,69.5C 58.9344,70.5884 59.9344,71.9217 60.5,73.5C 58.649,73.6491 56.8157,73.6491 55,73.5C 54.2828,74.0442 53.7828,74.7109 53.5,75.5C 52.5041,75.5858 51.6708,75.2524 51,74.5C 50.6924,75.3081 50.1924,75.9747 49.5,76.5C 48.135,75.1931 46.8016,75.1931 45.5,76.5C 45.1667,76.5 44.8333,76.5 44.5,76.5C 44.5,75.5 44.5,74.5 44.5,73.5C 41.3148,73.9804 38.4815,73.3137 36,71.5C 32.823,72.7698 30.1563,72.1031 28,69.5C 26.2714,69.9743 25.1047,70.9743 24.5,72.5C 24.1667,72.5 23.8333,72.5 23.5,72.5C 22.596,73.209 22.2627,74.209 22.5,75.5C 20.9261,73.8984 20.2594,71.8984 20.5,69.5C 20.5,69.1667 20.5,68.8333 20.5,68.5C 20.8333,68.5 21.1667,68.5 21.5,68.5C 22.4959,68.4142 23.3292,68.7476 24,69.5C 24.4828,68.552 24.6495,67.552 24.5,66.5C 29.5677,67.7855 34.0677,69.4522 38,71.5C 38.6259,69.0087 39.4593,69.0087 40.5,71.5C 41.213,69.565 42.213,69.2317 43.5,70.5 Z"/></g>
<g><path style="opacity:1" fill="#d88a0a" d="M 44.5,76.5 C 43.2652,76.7214 42.2652,77.3881 41.5,78.5C 37.9942,76.2631 34.3275,75.5965 30.5,76.5C 30.6107,75.8826 30.944,75.3826 31.5,75C 29.5595,74.6964 27.8928,73.8631 26.5,72.5C 25.3507,74.9248 24.684,74.9248 24.5,72.5C 25.1047,70.9743 26.2714,69.9743 28,69.5C 30.1563,72.1031 32.823,72.7698 36,71.5C 38.4815,73.3137 41.3148,73.9804 44.5,73.5C 44.5,74.5 44.5,75.5 44.5,76.5 Z"/></g>
<g><path style="opacity:0.999" fill="#da9312" d="M 78.5,75.5 C 78.3284,76.4916 78.6618,77.1583 79.5,77.5C 79.6716,78.4916 79.3382,79.1583 78.5,79.5C 78.1667,78.1667 77.8333,78.1667 77.5,79.5C 75.0228,81.205 73.6894,83.205 73.5,85.5C 72.8333,85.5 72.5,85.1667 72.5,84.5C 72.4326,83.0413 72.7659,81.7079 73.5,80.5C 74.0431,80.44 74.3764,80.1067 74.5,79.5C 72.8409,78.1832 71.6743,76.5165 71,74.5C 70.6667,74.8333 70.3333,75.1667 70,75.5C 68.2714,75.0257 67.1047,74.0257 66.5,72.5C 67.3382,72.1583 67.6716,71.4916 67.5,70.5C 70.8273,73.028 71.1606,72.528 68.5,69C 72.7636,68.989 76.0969,71.1557 78.5,75.5 Z"/></g>
<g><path style="opacity:0.012" fill="#e99b00" d="M 80.5,73.5 C 80.8333,73.5 81.1667,73.5 81.5,73.5C 81.6716,74.4916 81.3382,75.1583 80.5,75.5C 80.5,74.8333 80.5,74.1667 80.5,73.5 Z"/></g>
<g><path style="opacity:0.997" fill="#d38416" d="M 23.5,72.5 C 23.8333,72.5 24.1667,72.5 24.5,72.5C 24.684,74.9248 25.3507,74.9248 26.5,72.5C 27.8928,73.8631 29.5595,74.6964 31.5,75C 30.944,75.3826 30.6107,75.8826 30.5,76.5C 31.1667,77.1667 31.8333,77.8333 32.5,78.5C 33.5524,80.6551 32.8857,80.9884 30.5,79.5C 29.2267,80.2565 29.2267,80.9232 30.5,81.5C 31.1098,82.391 31.4431,83.391 31.5,84.5C 30.1667,84.8333 30.1667,85.1667 31.5,85.5C 31.44,86.0431 31.1067,86.3764 30.5,86.5C 27.7307,85.3154 26.7307,83.4821 27.5,81C 26.3636,79.8549 25.3636,78.6883 24.5,77.5C 24.6716,76.5084 24.3382,75.8417 23.5,75.5C 23.5,74.5 23.5,73.5 23.5,72.5 Z"/></g>
<g><path style="opacity:0.008" fill="#ff65ff" d="M 22.5,75.5 C 22.8333,75.5 23.1667,75.5 23.5,75.5C 23.5,76.1667 23.5,76.8333 23.5,77.5C 22.6618,77.1583 22.3284,76.4916 22.5,75.5 Z"/></g>
<g><path style="opacity:1" fill="#d7870d" d="M 73.5,80.5 C 72.7659,81.7079 72.4326,83.0413 72.5,84.5C 69.2761,84.2035 66.2761,84.8702 63.5,86.5C 62.8182,85.7573 62.1515,85.0906 61.5,84.5C 61.7373,83.209 61.404,82.209 60.5,81.5C 61.209,80.596 62.209,80.2627 63.5,80.5C 63.5,79.5 63.5,78.5 63.5,77.5C 62.325,77.719 61.325,77.3857 60.5,76.5C 61.3914,75.4104 62.3914,75.4104 63.5,76.5C 64.2811,77.7287 64.7811,79.062 65,80.5C 65.2492,79.376 65.7492,78.376 66.5,77.5C 68.3497,78.2418 69.0164,79.2418 68.5,80.5C 70.1299,78.1391 71.7966,78.1391 73.5,80.5 Z"/></g>
<g><path style="opacity:1" fill="#d98d0a" d="M 66.5,72.5 C 67.1047,74.0257 68.2714,75.0257 70,75.5C 70.3333,75.1667 70.6667,74.8333 71,74.5C 71.6743,76.5165 72.8409,78.1832 74.5,79.5C 74.3764,80.1067 74.0431,80.44 73.5,80.5C 71.7966,78.1391 70.1299,78.1391 68.5,80.5C 69.0164,79.2418 68.3497,78.2418 66.5,77.5C 65.7492,78.376 65.2492,79.376 65,80.5C 64.7811,79.062 64.2811,77.7287 63.5,76.5C 62.3914,75.4104 61.3914,75.4104 60.5,76.5C 61.325,77.3857 62.325,77.719 63.5,77.5C 63.5,78.5 63.5,79.5 63.5,80.5C 62.209,80.2627 61.209,80.596 60.5,81.5C 58.7422,80.0015 56.9088,79.6681 55,80.5C 54.6886,79.2575 55.1886,78.2575 56.5,77.5C 55.2176,77.9125 54.2176,77.2458 53.5,75.5C 53.7828,74.7109 54.2828,74.0442 55,73.5C 56.8157,73.6491 58.649,73.6491 60.5,73.5C 62.4231,71.81 64.4231,71.4766 66.5,72.5 Z"/></g>
<g><path style="opacity:0.008" fill="#ffd6fe" d="M 79.5,75.5 C 79.8333,75.5 80.1667,75.5 80.5,75.5C 80.6716,76.4916 80.3382,77.1583 79.5,77.5C 79.5,76.8333 79.5,76.1667 79.5,75.5 Z"/></g>
<g><path style="opacity:1" fill="#d0790b" d="M 42.5,84.5 C 41.7354,84.9234 40.9021,85.2568 40,85.5C 36.7143,84.3632 33.5476,83.0298 30.5,81.5C 29.2267,80.9232 29.2267,80.2565 30.5,79.5C 32.8857,80.9884 33.5524,80.6551 32.5,78.5C 33.5832,78.4606 34.5832,78.1272 35.5,77.5C 36.9192,79.2232 39.0859,80.8899 42,82.5C 42.6667,81.8333 43.3333,81.1667 44,80.5C 44.484,82.1933 43.984,83.5267 42.5,84.5 Z"/></g>
<g><path style="opacity:1" fill="#d37f09" d="M 44.5,76.5 C 44.8333,76.5 45.1667,76.5 45.5,76.5C 45.957,79.024 45.957,81.6907 45.5,84.5C 45.5,85.1667 45.5,85.8333 45.5,86.5C 44.5,85.8333 43.5,85.1667 42.5,84.5C 43.984,83.5267 44.484,82.1933 44,80.5C 43.3333,81.1667 42.6667,81.8333 42,82.5C 39.0859,80.8899 36.9192,79.2232 35.5,77.5C 34.5832,78.1272 33.5832,78.4606 32.5,78.5C 31.8333,77.8333 31.1667,77.1667 30.5,76.5C 34.3275,75.5965 37.9942,76.2631 41.5,78.5C 42.2652,77.3881 43.2652,76.7214 44.5,76.5 Z"/></g>
<g><path style="opacity:0.008" fill="#d26800" d="M 23.5,77.5 C 23.8333,77.5 24.1667,77.5 24.5,77.5C 24.1667,80.1667 23.8333,80.1667 23.5,77.5 Z"/></g>
<g><path style="opacity:1" fill="#d78a16" d="M 53.5,75.5 C 54.2176,77.2458 55.2176,77.9125 56.5,77.5C 55.1886,78.2575 54.6886,79.2575 55,80.5C 56.9088,79.6681 58.7422,80.0015 60.5,81.5C 61.404,82.209 61.7373,83.209 61.5,84.5C 60.7784,84.0825 60.2784,83.4158 60,82.5C 59.4569,84.6314 58.6236,86.6314 57.5,88.5C 56.1667,87.1667 54.8333,87.1667 53.5,88.5C 52.8076,87.9747 52.3076,87.3081 52,86.5C 50.984,87.6341 50.3173,87.3008 50,85.5C 48.184,86.7432 46.684,86.4099 45.5,84.5C 45.957,81.6907 45.957,79.024 45.5,76.5C 46.8016,75.1931 48.135,75.1931 49.5,76.5C 50.1924,75.9747 50.6924,75.3081 51,74.5C 51.6708,75.2524 52.5041,75.5858 53.5,75.5 Z"/></g>
<g><path style="opacity:0.02" fill="#cb6600" d="M 77.5,79.5 C 77.8333,79.5 78.1667,79.5 78.5,79.5C 78.3147,80.1701 77.9813,80.1701 77.5,79.5 Z"/></g>
<g><path style="opacity:0.999" fill="#cd7911" d="M 30.5,81.5 C 33.5476,83.0298 36.7143,84.3632 40,85.5C 40.9021,85.2568 41.7354,84.9234 42.5,84.5C 43.5,85.1667 44.5,85.8333 45.5,86.5C 46.2297,88.045 47.563,88.8784 49.5,89C 46.7695,89.7284 44.1029,89.5617 41.5,88.5C 40.537,88.9698 40.537,89.6365 41.5,90.5C 39.795,89.4647 38.1284,89.4647 36.5,90.5C 35.5,90 34.5,89.5 33.5,89C 33.9889,87.4477 33.3223,86.281 31.5,85.5C 31.5,85.1667 31.5,84.8333 31.5,84.5C 31.4431,83.391 31.1098,82.391 30.5,81.5 Z"/></g>
<g><path style="opacity:0.995" fill="#d48318" d="M 61.5,84.5 C 62.1515,85.0906 62.8182,85.7573 63.5,86.5C 66.2761,84.8702 69.2761,84.2035 72.5,84.5C 72.5,85.1667 72.8333,85.5 73.5,85.5C 71.3424,87.9929 68.6757,89.6595 65.5,90.5C 64.8333,89.1667 64.1667,89.1667 63.5,90.5C 60.8333,90.8333 60.8333,91.1667 63.5,91.5C 61.8984,93.0739 59.8984,93.7406 57.5,93.5C 53.5,92.1667 49.5,92.1667 45.5,93.5C 43.3453,93.628 41.3453,93.128 39.5,92C 40.4158,91.7216 41.0825,91.2216 41.5,90.5C 40.537,89.6365 40.537,88.9698 41.5,88.5C 44.1029,89.5617 46.7695,89.7284 49.5,89C 47.563,88.8784 46.2297,88.045 45.5,86.5C 45.5,85.8333 45.5,85.1667 45.5,84.5C 46.684,86.4099 48.184,86.7432 50,85.5C 50.3173,87.3008 50.984,87.6341 52,86.5C 52.3076,87.3081 52.8076,87.9747 53.5,88.5C 54.8333,87.1667 56.1667,87.1667 57.5,88.5C 58.6236,86.6314 59.4569,84.6314 60,82.5C 60.2784,83.4158 60.7784,84.0825 61.5,84.5 Z"/></g>
<g><path style="opacity:0.008" fill="#e4c5ff" d="M 63.5,91.5 C 63.5,91.1667 63.5,90.8333 63.5,90.5C 64.1667,90.5 64.8333,90.5 65.5,90.5C 65.1583,91.3382 64.4916,91.6716 63.5,91.5 Z"/></g>
<g><path style="opacity:0.008" fill="#ed9602" d="M 45.5,93.5 C 49.5,93.5 53.5,93.5 57.5,93.5C 53.5,94.8333 49.5,94.8333 45.5,93.5 Z"/></g>
</svg>
