<?xml version="1.0" encoding="UTF-8"?>
<!DOCTYPE svg PUBLIC "-//W3C//DTD SVG 1.1//EN" "http://www.w3.org/Graphics/SVG/1.1/DTD/svg11.dtd">
<svg xmlns="http://www.w3.org/2000/svg" version="1.1" width="94px" height="94px" style="shape-rendering:geometricPrecision; text-rendering:geometricPrecision; image-rendering:optimizeQuality; fill-rule:evenodd; clip-rule:evenodd" xmlns:xlink="http://www.w3.org/1999/xlink">
<g><path style="opacity:0.016" fill="#eed687" d="M 56.5,5.5 C 59.9758,4.35673 63.6425,4.19007 67.5,5C 63.8484,5.49863 60.1817,5.6653 56.5,5.5 Z"/></g>
<g><path style="opacity:0.016" fill="#ff8f68" d="M 39.5,18.5 C 38.8333,18.5 38.5,18.8333 38.5,19.5C 38.1667,19.5 37.8333,19.5 37.5,19.5C 37.7107,17.5759 38.3774,17.2426 39.5,18.5 Z"/></g>
<g><path style="opacity:1" fill="#edc06b" d="M 56.5,8.5 C 56.1961,9.14987 55.8627,9.81654 55.5,10.5C 61.1902,12.027 63.0236,15.6937 61,21.5C 59.4385,23.9732 57.4385,25.9732 55,27.5C 51.1,36.9554 44.1,42.622 34,44.5C 31.4088,44.4347 28.9088,43.9347 26.5,43C 25.8803,40.5272 25.2136,38.0272 24.5,35.5C 21.3603,37.473 18.3603,39.6397 15.5,42C 14.1772,42.8159 13.5106,43.9826 13.5,45.5C 12.2921,46.2341 10.9587,46.5674 9.5,46.5C 10.3994,43.605 11.7328,40.9384 13.5,38.5C 13.8333,38.5 14.1667,38.5 14.5,38.5C 14.4346,38.9382 14.6012,39.2716 15,39.5C 17.7153,36.269 21.2153,34.4357 25.5,34C 34.0303,28.4796 41.6969,21.8129 48.5,14C 51.0652,11.9205 53.7318,10.0872 56.5,8.5 Z"/></g>
<g><path style="opacity:0.996" fill="#efc581" d="M 81.5,17.5 C 79.9317,18.4731 78.265,18.6397 76.5,18C 70.7813,12.7677 64.1146,9.60099 56.5,8.5C 53.7318,10.0872 51.0652,11.9205 48.5,14C 41.6969,21.8129 34.0303,28.4796 25.5,34C 21.2153,34.4357 17.7153,36.269 15,39.5C 14.6012,39.2716 14.4346,38.9382 14.5,38.5C 14.5,38.1667 14.5,37.8333 14.5,37.5C 15.1667,37.5 15.5,37.1667 15.5,36.5C 16.1667,36.5 16.5,36.1667 16.5,35.5C 17.1667,35.5 17.5,35.1667 17.5,34.5C 19.1376,33.343 20.8043,32.1764 22.5,31C 21.1667,30.3333 21.1667,29.6667 22.5,29C 26.0039,27.0823 29.3372,24.9157 32.5,22.5C 33.6753,23.8549 34.6753,23.6883 35.5,22C 34.5881,20.3745 35.2547,19.5412 37.5,19.5C 37.8333,20.8333 38.1667,20.8333 38.5,19.5C 39.1667,19.5 39.5,19.1667 39.5,18.5C 43.0419,16.177 45.3752,13.3437 46.5,10C 48.0948,10.6171 49.4281,10.2837 50.5,9C 49.4757,7.63287 49.9757,6.79954 52,6.5C 59.1685,6.47221 66.3352,6.63888 73.5,7C 74.8333,8 76.1667,9 77.5,10C 77.1667,10.3333 76.8333,10.6667 76.5,11C 78.7655,12.7581 80.4322,14.9248 81.5,17.5 Z"/></g>
<g><path style="opacity:1" fill="#e09c36" d="M 73.5,24.5 C 71.3384,25.1276 69.6718,26.461 68.5,28.5C 66.6917,29.9073 64.6917,31.074 62.5,32C 60.2688,35.9664 57.2688,39.2997 53.5,42C 41.0086,51.0167 27.0086,54.1834 11.5,51.5C 9.82124,51.7148 8.82124,51.0481 8.5,49.5C 8.5,49.1667 8.5,48.8333 8.5,48.5C 10.8583,48.7475 12.8583,48.0808 14.5,46.5C 16.3767,46.0997 17.8767,45.0997 19,43.5C 22.3488,45.4402 25.8488,46.6069 29.5,47C 29.1667,46.6667 28.8333,46.3333 28.5,46C 35.1146,46.1457 41.4479,45.1457 47.5,43C 50.3489,39.9838 53.3489,37.1504 56.5,34.5C 58.9754,30.7045 60.9754,26.7045 62.5,22.5C 64.2733,19.9401 66.2733,17.6068 68.5,15.5C 69.086,15.7093 69.586,16.0426 70,16.5C 70.3333,18.5 70.6667,20.5 71,22.5C 71.7083,23.3805 72.5416,24.0472 73.5,24.5 Z"/></g>
<g><path style="opacity:1" fill="#e3a84b" d="M 56.5,8.5 C 64.1146,9.60099 70.7813,12.7677 76.5,18C 78.265,18.6397 79.9317,18.4731 81.5,17.5C 83.0075,19.1815 84.0075,21.1815 84.5,23.5C 80.8648,24.1143 77.1981,24.4476 73.5,24.5C 72.5416,24.0472 71.7083,23.3805 71,22.5C 70.6667,20.5 70.3333,18.5 70,16.5C 69.586,16.0426 69.086,15.7093 68.5,15.5C 66.2733,17.6068 64.2733,19.9401 62.5,22.5C 60.9754,26.7045 58.9754,30.7045 56.5,34.5C 53.3489,37.1504 50.3489,39.9838 47.5,43C 41.4479,45.1457 35.1146,46.1457 28.5,46C 28.8333,46.3333 29.1667,46.6667 29.5,47C 25.8488,46.6069 22.3488,45.4402 19,43.5C 17.8767,45.0997 16.3767,46.0997 14.5,46.5C 14.5,45.8333 14.1667,45.5 13.5,45.5C 13.5106,43.9826 14.1772,42.8159 15.5,42C 18.3603,39.6397 21.3603,37.473 24.5,35.5C 25.2136,38.0272 25.8803,40.5272 26.5,43C 28.9088,43.9347 31.4088,44.4347 34,44.5C 44.1,42.622 51.1,36.9554 55,27.5C 57.4385,25.9732 59.4385,23.9732 61,21.5C 63.0236,15.6937 61.1902,12.027 55.5,10.5C 55.8627,9.81654 56.1961,9.14987 56.5,8.5 Z"/></g>
<g><path style="opacity:0.012" fill="#cd74ff" d="M 86.5,39.5 C 86.3341,34.4889 86.5007,29.4889 87,24.5C 87.8163,29.6842 87.6497,34.6842 86.5,39.5 Z"/></g>
<g><path style="opacity:1" fill="#ecc790" d="M 53.5,14.5 C 54.8333,14.5 56.1667,14.5 57.5,14.5C 56.5574,24.5518 51.8907,32.3852 43.5,38C 39.6129,41.0298 35.2795,42.0298 30.5,41C 29.4829,39.9505 29.3162,38.7839 30,37.5C 39.0011,30.9986 46.8345,23.3319 53.5,14.5 Z"/></g>
<g><path style="opacity:1" fill="#cd7820" d="M 84.5,23.5 C 85.4025,26.3915 85.7359,29.3915 85.5,32.5C 84.7784,32.9175 84.2784,33.5842 84,34.5C 83.51,33.2068 83.3433,31.8734 83.5,30.5C 82.325,30.281 81.325,30.6143 80.5,31.5C 79.9851,33.2251 79.3184,34.8917 78.5,36.5C 70.9119,44.1667 62.2453,50.3333 52.5,55C 44.8109,56.3437 37.1443,57.5103 29.5,58.5C 28.5,58.5 27.5,58.5 26.5,58.5C 20.7696,59.5127 15.1029,59.5127 9.5,58.5C 9.35055,57.448 9.51722,56.448 10,55.5C 11.8491,56.5608 13.8491,57.2275 16,57.5C 22.8094,56.7605 29.6427,56.2605 36.5,56C 41.8895,53.4194 47.5562,51.7527 53.5,51C 56.1667,50.3333 56.1667,49.6667 53.5,49C 56.8333,47 60.1667,45 63.5,43C 62.0993,42.5899 60.766,42.0899 59.5,41.5C 59.4142,40.5041 59.7476,39.6708 60.5,39C 66.7453,38.2522 69.4119,34.7522 68.5,28.5C 69.6718,26.461 71.3384,25.1276 73.5,24.5C 77.1981,24.4476 80.8648,24.1143 84.5,23.5 Z"/></g>
<g><path style="opacity:1" fill="#c66a12" d="M 85.5,32.5 C 85.1984,35.0593 85.5318,37.3926 86.5,39.5C 86.7489,43.4578 86.0823,47.1244 84.5,50.5C 84.8545,48.2326 84.5211,46.8993 83.5,46.5C 82.0335,49.2583 81.3668,48.925 81.5,45.5C 75.0255,44.8311 70.3589,47.3311 67.5,53C 56.0904,58.1806 44.0904,60.6806 31.5,60.5C 31.1667,60.5 30.8333,60.5 30.5,60.5C 30.1667,59.8333 29.8333,59.1667 29.5,58.5C 37.1443,57.5103 44.8109,56.3437 52.5,55C 62.2453,50.3333 70.9119,44.1667 78.5,36.5C 79.3184,34.8917 79.9851,33.2251 80.5,31.5C 81.325,30.6143 82.325,30.281 83.5,30.5C 83.3433,31.8734 83.51,33.2068 84,34.5C 84.2784,33.5842 84.7784,32.9175 85.5,32.5 Z"/></g>
<g><path style="opacity:0.016" fill="#d9d27a" d="M 17.5,34.5 C 16.8333,34.5 16.5,34.8333 16.5,35.5C 15.8333,35.5 15.5,35.8333 15.5,36.5C 14.8333,36.5 14.5,36.8333 14.5,37.5C 13.8333,37.5 13.5,37.8333 13.5,38.5C 12.8817,36.3364 13.8817,34.6697 16.5,33.5C 17.1067,33.6236 17.44,33.9569 17.5,34.5 Z"/></g>
<g><path style="opacity:1" fill="#c06211" d="M 83.5,46.5 C 83.5,47.8333 83.5,49.1667 83.5,50.5C 82.5655,51.5676 82.2322,52.901 82.5,54.5C 81.6618,54.8417 81.3284,55.5084 81.5,56.5C 80.596,57.209 80.2627,58.209 80.5,59.5C 79.6618,59.8417 79.3284,60.5084 79.5,61.5C 78.6618,61.8417 78.3284,62.5084 78.5,63.5C 77.1667,64.1667 77.1667,64.8333 78.5,65.5C 78.573,67.0269 77.9063,68.0269 76.5,68.5C 76.1667,67.1667 75.8333,67.1667 75.5,68.5C 75.1667,68.5 74.8333,68.5 74.5,68.5C 76.263,63.7841 77.9296,58.9507 79.5,54C 78.7478,49.0083 76.4144,48.175 72.5,51.5C 71.9067,53.3817 71.2401,55.2151 70.5,57C 67.1667,57 63.8333,57 60.5,57C 53.619,60.72 46.2857,62.8866 38.5,63.5C 35.6549,63.2343 33.3216,62.2343 31.5,60.5C 44.0904,60.6806 56.0904,58.1806 67.5,53C 70.3589,47.3311 75.0255,44.8311 81.5,45.5C 81.3668,48.925 82.0335,49.2583 83.5,46.5 Z"/></g>
<g><path style="opacity:0.012" fill="#c24800" d="M 83.5,50.5 C 83.8333,50.5 84.1667,50.5 84.5,50.5C 84.7678,52.099 84.4345,53.4324 83.5,54.5C 83.5,53.1667 83.5,51.8333 83.5,50.5 Z"/></g>
<g><path style="opacity:1" fill="#d98c24" d="M 68.5,28.5 C 69.4119,34.7522 66.7453,38.2522 60.5,39C 59.7476,39.6708 59.4142,40.5041 59.5,41.5C 59.5858,42.4959 59.2524,43.3292 58.5,44C 51.827,47.4227 44.827,50.0894 37.5,52C 38.1667,52.3333 38.8333,52.6667 39.5,53C 37.913,53.8624 36.2464,54.5291 34.5,55C 26.8406,55.4997 19.1739,55.6664 11.5,55.5C 11.5,54.1667 11.5,52.8333 11.5,51.5C 27.0086,54.1834 41.0086,51.0167 53.5,42C 57.2688,39.2997 60.2688,35.9664 62.5,32C 64.6917,31.074 66.6917,29.9073 68.5,28.5 Z"/></g>
<g><path style="opacity:1" fill="#d48323" d="M 59.5,41.5 C 60.766,42.0899 62.0993,42.5899 63.5,43C 60.1667,45 56.8333,47 53.5,49C 56.1667,49.6667 56.1667,50.3333 53.5,51C 47.5562,51.7527 41.8895,53.4194 36.5,56C 29.6427,56.2605 22.8094,56.7605 16,57.5C 13.8491,57.2275 11.8491,56.5608 10,55.5C 9.51722,56.448 9.35055,57.448 9.5,58.5C 9.56544,58.9382 9.39877,59.2716 9,59.5C 8.76791,58.2625 8.26791,57.2625 7.5,56.5C 7.66212,54.4727 7.49546,52.4727 7,50.5C 6.50098,54.8206 6.33432,59.1539 6.5,63.5C 4.90839,57.1257 5.40839,50.7923 8,44.5C 8.27842,45.4158 8.77842,46.0825 9.5,46.5C 10.9587,46.5674 12.2921,46.2341 13.5,45.5C 14.1667,45.5 14.5,45.8333 14.5,46.5C 12.8583,48.0808 10.8583,48.7475 8.5,48.5C 7.35594,47.8174 7.35594,48.1507 8.5,49.5C 8.82124,51.0481 9.82124,51.7148 11.5,51.5C 11.5,52.8333 11.5,54.1667 11.5,55.5C 19.1739,55.6664 26.8406,55.4997 34.5,55C 36.2464,54.5291 37.913,53.8624 39.5,53C 38.8333,52.6667 38.1667,52.3333 37.5,52C 44.827,50.0894 51.827,47.4227 58.5,44C 59.2524,43.3292 59.5858,42.4959 59.5,41.5 Z"/></g>
<g><path style="opacity:0.012" fill="#c56200" d="M 82.5,54.5 C 82.8333,54.5 83.1667,54.5 83.5,54.5C 83.6716,55.4916 83.3382,56.1583 82.5,56.5C 82.5,55.8333 82.5,55.1667 82.5,54.5 Z"/></g>
<g><path style="opacity:0.012" fill="#b43a00" d="M 81.5,56.5 C 81.8333,56.5 82.1667,56.5 82.5,56.5C 82.7373,57.791 82.404,58.791 81.5,59.5C 81.5,58.5 81.5,57.5 81.5,56.5 Z"/></g>
<g><path style="opacity:1" fill="#b8570a" d="M 74.5,68.5 C 71.6435,66.3664 68.3102,65.1997 64.5,65C 63.8633,62.6941 62.3633,61.5275 60,61.5C 56.3382,62.5798 52.8382,64.0798 49.5,66C 44.5,66.6667 39.5,66.6667 34.5,66C 31.1238,65.6929 29.7904,63.8595 30.5,60.5C 30.8333,60.5 31.1667,60.5 31.5,60.5C 33.3216,62.2343 35.6549,63.2343 38.5,63.5C 46.2857,62.8866 53.619,60.72 60.5,57C 63.8333,57 67.1667,57 70.5,57C 71.2401,55.2151 71.9067,53.3817 72.5,51.5C 76.4144,48.175 78.7478,49.0083 79.5,54C 77.9296,58.9507 76.263,63.7841 74.5,68.5 Z"/></g>
<g><path style="opacity:0.012" fill="#a95500" d="M 80.5,59.5 C 80.8333,59.5 81.1667,59.5 81.5,59.5C 81.6716,60.4916 81.3382,61.1583 80.5,61.5C 80.5,60.8333 80.5,60.1667 80.5,59.5 Z"/></g>
<g><path style="opacity:1" fill="#aa4709" d="M 26.5,58.5 C 27.5,58.5 28.5,58.5 29.5,58.5C 29.8333,59.1667 30.1667,59.8333 30.5,60.5C 29.7904,63.8595 31.1238,65.6929 34.5,66C 39.5,66.6667 44.5,66.6667 49.5,66C 52.8382,64.0798 56.3382,62.5798 60,61.5C 62.3633,61.5275 63.8633,62.6941 64.5,65C 68.3102,65.1997 71.6435,66.3664 74.5,68.5C 74.5,69.1667 74.8333,69.5 75.5,69.5C 75.573,71.0269 74.9063,72.0269 73.5,72.5C 73.1667,71.1667 72.8333,71.1667 72.5,72.5C 71.8333,72.5 71.5,72.8333 71.5,73.5C 70.8333,73.5 70.5,73.8333 70.5,74.5C 69.8333,74.5 69.5,74.8333 69.5,75.5C 68.1667,75.8333 68.1667,76.1667 69.5,76.5C 67.7036,78.9 65.3702,80.5667 62.5,81.5C 62.5,80.8333 62.1667,80.5 61.5,80.5C 60.1667,79.8333 58.8333,79.1667 57.5,78.5C 57.4128,77.5015 57.0795,76.3349 56.5,75C 54.5273,74.5045 52.5273,74.3379 50.5,74.5C 50.33,73.1779 50.6634,72.0113 51.5,71C 50.9747,70.3076 50.3081,69.8076 49.5,69.5C 48.0495,70.6554 47.0495,72.1554 46.5,74C 45.3333,74.1667 44.1667,74.3333 43,74.5C 40.1041,73.7945 37.2708,72.7945 34.5,71.5C 33.5581,71.6082 32.7247,71.9415 32,72.5C 31.5045,74.4727 31.3379,76.4727 31.5,78.5C 28.6146,78.1936 25.9479,78.5269 23.5,79.5C 22.6676,80.3285 23.001,81.1618 24.5,82C 23.9056,82.4643 23.2389,82.631 22.5,82.5C 22.1667,82.5 21.8333,82.5 21.5,82.5C 21.5,82.1667 21.5,81.8333 21.5,81.5C 16.8994,77.2855 13.5661,72.2855 11.5,66.5C 13.9861,67.1494 16.4861,67.4827 19,67.5C 21.678,66.1638 24.5113,65.3304 27.5,65C 25.3162,63.1024 24.9829,60.9358 26.5,58.5 Z"/></g>
<g><path style="opacity:0.008" fill="#e96900" d="M 79.5,61.5 C 79.8333,61.5 80.1667,61.5 80.5,61.5C 80.6716,62.4916 80.3382,63.1583 79.5,63.5C 79.5,62.8333 79.5,62.1667 79.5,61.5 Z"/></g>
<g><path style="opacity:0.016" fill="#df8a3a" d="M 6.5,63.5 C 6.83333,63.5 7.16667,63.5 7.5,63.5C 7.5,64.5 7.5,65.5 7.5,66.5C 6.59603,65.791 6.26269,64.791 6.5,63.5 Z"/></g>
<g><path style="opacity:1" fill="#b95d12" d="M 7.5,56.5 C 8.26791,57.2625 8.76791,58.2625 9,59.5C 9.39877,59.2716 9.56544,58.9382 9.5,58.5C 15.1029,59.5127 20.7696,59.5127 26.5,58.5C 24.9829,60.9358 25.3162,63.1024 27.5,65C 24.5113,65.3304 21.678,66.1638 19,67.5C 16.4861,67.4827 13.9861,67.1494 11.5,66.5C 13.5661,72.2855 16.8994,77.2855 21.5,81.5C 20.1667,81.8333 20.1667,82.1667 21.5,82.5C 21.5,82.8333 21.5,83.1667 21.5,83.5C 21.1667,83.5 20.8333,83.5 20.5,83.5C 19.5,82.1667 18.5,80.8333 17.5,79.5C 17.5,78.8333 17.1667,78.5 16.5,78.5C 14.8036,76.4752 13.137,74.4752 11.5,72.5C 11.0679,71.2905 10.4013,70.2905 9.5,69.5C 9.73731,68.209 9.40397,67.209 8.5,66.5C 8.73731,65.209 8.40397,64.209 7.5,63.5C 7.5,61.1667 7.5,58.8333 7.5,56.5 Z"/></g>
<g><path style="opacity:0.004" fill="#e237ff" d="M 78.5,63.5 C 78.8333,63.5 79.1667,63.5 79.5,63.5C 79.6716,64.4916 79.3382,65.1583 78.5,65.5C 78.5,64.8333 78.5,64.1667 78.5,63.5 Z"/></g>
<g><path style="opacity:0.012" fill="#aa543e" d="M 7.5,66.5 C 7.83333,66.5 8.16667,66.5 8.5,66.5C 8.16667,69.1667 7.83333,69.1667 7.5,66.5 Z"/></g>
<g><path style="opacity:0.012" fill="#a95500" d="M 75.5,68.5 C 75.8333,68.5 76.1667,68.5 76.5,68.5C 76.3147,69.1701 75.9813,69.1701 75.5,68.5 Z"/></g>
<g><path style="opacity:0.004" fill="#e237ff" d="M 9.5,69.5 C 9.63101,70.2389 9.46434,70.9056 9,71.5C 8.30831,70.5632 8.47498,69.8966 9.5,69.5 Z"/></g>
<g><path style="opacity:0.012" fill="#a95500" d="M 72.5,72.5 C 72.8333,72.5 73.1667,72.5 73.5,72.5C 73.3147,73.1701 72.9813,73.1701 72.5,72.5 Z"/></g>
<g><path style="opacity:0.004" fill="#e237ff" d="M 11.5,72.5 C 11.631,73.2389 11.4643,73.9056 11,74.5C 10.3083,73.5632 10.475,72.8966 11.5,72.5 Z"/></g>
<g><path style="opacity:0.012" fill="#a95500" d="M 71.5,73.5 C 71.8333,73.5 72.1667,73.5 72.5,73.5C 72.3147,74.1701 71.9813,74.1701 71.5,73.5 Z"/></g>
<g><path style="opacity:0.008" fill="#fe7f00" d="M 70.5,74.5 C 70.8333,74.5 71.1667,74.5 71.5,74.5C 71.3147,75.1701 70.9813,75.1701 70.5,74.5 Z"/></g>
<g><path style="opacity:0.012" fill="#a95500" d="M 69.5,75.5 C 69.8333,75.5 70.1667,75.5 70.5,75.5C 70.3147,76.1701 69.9813,76.1701 69.5,75.5 Z"/></g>
<g><path style="opacity:1" fill="#933308" d="M 57.5,78.5 C 57.0825,79.2216 56.4158,79.7216 55.5,80C 55.8333,80.3333 56.1667,80.6667 56.5,81C 54.7669,82.1889 53.1002,83.3556 51.5,84.5C 49.1432,84.6633 46.8098,84.4966 44.5,84C 46.3416,82.6565 48.0083,81.1565 49.5,79.5C 45.878,78.3414 42.2113,78.1747 38.5,79C 33.6781,83.4602 28.6781,83.6268 23.5,79.5C 25.9479,78.5269 28.6146,78.1936 31.5,78.5C 31.3379,76.4727 31.5045,74.4727 32,72.5C 32.7247,71.9415 33.5581,71.6082 34.5,71.5C 37.2708,72.7945 40.1041,73.7945 43,74.5C 44.1667,74.3333 45.3333,74.1667 46.5,74C 47.0495,72.1554 48.0495,70.6554 49.5,69.5C 50.3081,69.8076 50.9747,70.3076 51.5,71C 50.6634,72.0113 50.33,73.1779 50.5,74.5C 52.5273,74.3379 54.5273,74.5045 56.5,75C 57.0795,76.3349 57.4128,77.5015 57.5,78.5 Z"/></g>
<g><path style="opacity:0.004" fill="#532c0c" d="M 16.5,78.5 C 17.1667,78.5 17.5,78.8333 17.5,79.5C 17.44,80.0431 17.1067,80.3764 16.5,80.5C 15.2267,79.7435 15.2267,79.0768 16.5,78.5 Z"/></g>
<g><path style="opacity:0.995" fill="#8f3b10" d="M 51.5,84.5 C 53.1002,83.3556 54.7669,82.1889 56.5,81C 56.1667,80.6667 55.8333,80.3333 55.5,80C 56.4158,79.7216 57.0825,79.2216 57.5,78.5C 58.8333,79.1667 60.1667,79.8333 61.5,80.5C 62.1667,80.5 62.5,80.8333 62.5,81.5C 61.9423,82.7899 60.9423,83.6232 59.5,84C 56.6473,85.4301 53.6473,86.2634 50.5,86.5C 49.1667,85.1667 47.8333,85.1667 46.5,86.5C 41.1667,86.5 35.8333,86.5 30.5,86.5C 29.5,85.1667 28.5,85.1667 27.5,86.5C 24.9369,85.9117 22.6036,84.9117 20.5,83.5C 20.8333,83.5 21.1667,83.5 21.5,83.5C 22.1667,83.5 22.5,83.1667 22.5,82.5C 23.2389,82.631 23.9056,82.4643 24.5,82C 23.001,81.1618 22.6676,80.3285 23.5,79.5C 28.6781,83.6268 33.6781,83.4602 38.5,79C 42.2113,78.1747 45.878,78.3414 49.5,79.5C 48.0083,81.1565 46.3416,82.6565 44.5,84C 46.8098,84.4966 49.1432,84.6633 51.5,84.5 Z"/></g>
<g><path style="opacity:0.012" fill="#690000" d="M 27.5,86.5 C 28.5,86.5 29.5,86.5 30.5,86.5C 29.5,87.8333 28.5,87.8333 27.5,86.5 Z"/></g>
<g><path style="opacity:0.008" fill="#7e1b03" d="M 46.5,86.5 C 47.8333,86.5 49.1667,86.5 50.5,86.5C 49.1667,87.8333 47.8333,87.8333 46.5,86.5 Z"/></g>
<g><path style="opacity:0.016" fill="#8f4300" d="M 31.5,88.5 C 35.9811,87.3516 40.6478,87.1849 45.5,88C 40.8452,88.4992 36.1785,88.6658 31.5,88.5 Z"/></g>
</svg>
