<?xml version="1.0" encoding="UTF-8"?>
<!DOCTYPE svg PUBLIC "-//W3C//DTD SVG 1.1//EN" "http://www.w3.org/Graphics/SVG/1.1/DTD/svg11.dtd">
<svg xmlns="http://www.w3.org/2000/svg" version="1.1" width="100px" height="100px" style="shape-rendering:geometricPrecision; text-rendering:geometricPrecision; image-rendering:optimizeQuality; fill-rule:evenodd; clip-rule:evenodd" xmlns:xlink="http://www.w3.org/1999/xlink">
<g><path style="opacity:0.004" fill="#fefffe" d="M 50.5,4.5 C 51.8333,5.16667 51.8333,5.16667 50.5,4.5 Z"/></g>
<g><path style="opacity:0.176" fill="#74ea98" d="M 56.5,9.5 C 55.8333,9.5 55.1667,9.5 54.5,9.5C 54.44,8.95691 54.1067,8.62358 53.5,8.5C 51.8149,10.5707 50.1482,12.5707 48.5,14.5C 49.0415,10.4138 50.8749,7.0805 54,4.5C 54.0334,6.28088 54.8668,7.94755 56.5,9.5 Z"/></g>
<g><path style="opacity:0.008" fill="#007f00" d="M 57.5,8.5 C 58.8333,9.16667 58.8333,9.16667 57.5,8.5 Z"/></g>
<g><path style="opacity:0.757" fill="#486a2b" d="M 54.5,9.5 C 55.1667,9.5 55.8333,9.5 56.5,9.5C 56.8333,9.5 57.1667,9.5 57.5,9.5C 57.5,10.1667 57.5,10.8333 57.5,11.5C 56.8333,11.5 56.5,11.8333 56.5,12.5C 55.1667,12.8333 55.1667,13.1667 56.5,13.5C 56.4431,14.609 56.1098,15.609 55.5,16.5C 55.1667,16.5 54.8333,16.5 54.5,16.5C 53.5798,15.9326 53.2465,16.5992 53.5,18.5C 52.8333,18.5 52.1667,18.5 51.5,18.5C 51.9049,15.2854 52.9049,12.2854 54.5,9.5 Z"/></g>
<g><path style="opacity:0.004" fill="#000000" d="M 58.5,10.5 C 59.8333,11.1667 59.8333,11.1667 58.5,10.5 Z"/></g>
<g><path style="opacity:0.008" fill="#007f00" d="M 57.5,11.5 C 57.8333,11.5 58.1667,11.5 58.5,11.5C 58.3147,12.1701 57.9813,12.1701 57.5,11.5 Z"/></g>
<g><path style="opacity:0.016" fill="#3e3f00" d="M 56.5,12.5 C 56.8333,12.5 57.1667,12.5 57.5,12.5C 57.3147,13.1701 56.9813,13.1701 56.5,12.5 Z"/></g>
<g><path style="opacity:0.984" fill="#34d647" d="M 54.5,9.5 C 52.9049,12.2854 51.9049,15.2854 51.5,18.5C 50.209,18.7373 49.209,18.404 48.5,17.5C 48.5,16.5 48.5,15.5 48.5,14.5C 50.1482,12.5707 51.8149,10.5707 53.5,8.5C 54.1067,8.62358 54.44,8.95691 54.5,9.5 Z"/></g>
<g><path style="opacity:0.992" fill="#ffdd92" d="M 63.5,20.5 C 67.3352,20.4165 71.0019,21.0832 74.5,22.5C 74.5,22.8333 74.5,23.1667 74.5,23.5C 72.5648,22.8505 70.5648,22.5172 68.5,22.5C 68.9746,25.0821 68.3079,27.0821 66.5,28.5C 65.8333,27.1667 65.1667,27.1667 64.5,28.5C 64.1583,29.3382 63.4916,29.6716 62.5,29.5C 62.5,28.8333 62.1667,28.5 61.5,28.5C 61.5,28.1667 61.5,27.8333 61.5,27.5C 61.2671,25.9382 60.6005,24.6049 59.5,23.5C 61.9931,24.2294 64.3264,25.0628 66.5,26C 65.7772,23.9817 64.7772,22.1484 63.5,20.5 Z"/></g>
<g><path style="opacity:0.01" fill="#fefffe" d="M 15.5,23.5 C 15.5,23.8333 15.5,24.1667 15.5,24.5C 14.8333,24.5 14.5,24.8333 14.5,25.5C 13.2426,24.3774 13.5759,23.7107 15.5,23.5 Z"/></g>
<g><path style="opacity:0.997" fill="#fef8d9" d="M 43.5,17.5 C 43.5,17.8333 43.5,18.1667 43.5,18.5C 42.8333,18.5 42.5,18.8333 42.5,19.5C 42.1667,19.5 41.8333,19.5 41.5,19.5C 41.1667,18.1667 40.8333,18.1667 40.5,19.5C 37.6146,19.1936 34.9479,19.5269 32.5,20.5C 30.6203,20.2291 29.287,20.8958 28.5,22.5C 27.4168,22.5394 26.4168,22.8728 25.5,23.5C 23.0671,29.3796 18.7337,32.8796 12.5,34C 11.7476,34.6708 11.4142,35.5041 11.5,36.5C 11.0269,37.9063 10.0269,38.573 8.5,38.5C 9.16206,33.5115 11.1621,29.1781 14.5,25.5C 15.1667,25.5 15.5,25.1667 15.5,24.5C 16.8333,24.1667 16.8333,23.8333 15.5,23.5C 23.6754,16.8017 33.0088,14.8017 43.5,17.5 Z"/></g>
<g><path style="opacity:0.925" fill="#fde3d5" d="M 54.5,16.5 C 54.8333,16.5 55.1667,16.5 55.5,16.5C 60.6913,16.5139 66.0246,16.6806 71.5,17C 75.5,17.6667 75.5,18.3333 71.5,19C 74.4302,20.6591 77.4302,20.9924 80.5,20C 80.3808,21.2812 80.8808,22.4479 82,23.5C 83.8402,22.1669 84.3402,22.3335 83.5,24C 85.365,26.6309 87.5316,28.1309 90,28.5C 90.6917,29.4368 90.525,30.1034 89.5,30.5C 89.1667,29.1667 88.8333,29.1667 88.5,30.5C 88.631,31.2389 88.4643,31.9056 88,32.5C 85.0291,27.0198 80.5291,23.6864 74.5,22.5C 71.0019,21.0832 67.3352,20.4165 63.5,20.5C 62.1667,20.1667 60.8333,19.8333 59.5,19.5C 59.1667,18.1667 58.8333,18.1667 58.5,19.5C 58.1667,20.8333 57.8333,20.8333 57.5,19.5C 57.5,18.8333 57.1667,18.5 56.5,18.5C 55.8333,18.5 55.1667,18.5 54.5,18.5C 54.5,17.8333 54.5,17.1667 54.5,16.5 Z"/></g>
<g><path style="opacity:1" fill="#ffe256" d="M 58.5,23.5 C 58.5,24.5 58.5,25.5 58.5,26.5C 55.634,27.7593 52.634,28.7593 49.5,29.5C 48.1225,28.7656 46.6225,28.0989 45,27.5C 44.4054,26.1011 44.5721,24.7678 45.5,23.5C 49.8814,22.23 54.2147,22.23 58.5,23.5 Z"/></g>
<g><path style="opacity:1" fill="#faf9cd" d="M 48.5,17.5 C 49.209,18.404 50.209,18.7373 51.5,18.5C 52.1667,18.5 52.8333,18.5 53.5,18.5C 53.8333,18.5 54.1667,18.5 54.5,18.5C 55.1667,18.5 55.8333,18.5 56.5,18.5C 57.1667,18.5 57.5,18.8333 57.5,19.5C 57.8333,20.8333 58.1667,20.8333 58.5,19.5C 58.8333,19.5 59.1667,19.5 59.5,19.5C 60.8333,19.8333 62.1667,20.1667 63.5,20.5C 64.7772,22.1484 65.7772,23.9817 66.5,26C 64.3264,25.0628 61.9931,24.2294 59.5,23.5C 59.3893,22.8826 59.056,22.3826 58.5,22C 51.9456,20.9193 45.6123,21.586 39.5,24C 38.9941,26.5318 37.8274,28.6984 36,30.5C 35.5172,29.552 35.3505,28.552 35.5,27.5C 36.5678,24.9248 38.2345,22.7581 40.5,21C 37.854,20.5026 35.1873,20.3359 32.5,20.5C 34.9479,19.5269 37.6146,19.1936 40.5,19.5C 40.8333,19.5 41.1667,19.5 41.5,19.5C 41.8333,19.5 42.1667,19.5 42.5,19.5C 43.1667,19.5 43.5,19.1667 43.5,18.5C 46.1667,18.1667 46.1667,17.8333 43.5,17.5C 44.209,16.596 45.209,16.2627 46.5,16.5C 46.3433,15.1266 46.51,13.7932 47,12.5C 47.1981,14.3817 47.6981,16.0484 48.5,17.5 Z"/></g>
<g><path style="opacity:1" fill="#ffdb57" d="M 32.5,20.5 C 35.1873,20.3359 37.854,20.5026 40.5,21C 38.2345,22.7581 36.5678,24.9248 35.5,27.5C 34.2616,29.2143 33.595,31.2143 33.5,33.5C 35.7354,33.2053 37.7354,33.5386 39.5,34.5C 39.5,35.1667 39.5,35.8333 39.5,36.5C 38.4481,36.7711 37.1147,36.9378 35.5,37C 34.354,37.6449 33.354,38.4783 32.5,39.5C 31.8165,39.1373 31.1499,38.8039 30.5,38.5C 30.8511,36.1305 31.0178,33.7972 31,31.5C 30.6667,32.1667 30.3333,32.8333 30,33.5C 29.0299,31.0408 27.8632,28.7075 26.5,26.5C 26.7517,24.9271 27.4183,23.5938 28.5,22.5C 29.287,20.8958 30.6203,20.2291 32.5,20.5 Z"/></g>
<g><path style="opacity:1" fill="#ffd362" d="M 58.5,23.5 C 58.8333,23.5 59.1667,23.5 59.5,23.5C 60.6005,24.6049 61.2671,25.9382 61.5,27.5C 58.2317,30.0501 55.0651,32.7168 52,35.5C 49.7088,34.6894 47.8754,35.5228 46.5,38C 46.8333,38.3333 47.1667,38.6667 47.5,39C 45.8034,39.3845 44.1368,39.2178 42.5,38.5C 41.5,37.8333 40.5,37.1667 39.5,36.5C 39.5,35.8333 39.5,35.1667 39.5,34.5C 40.8503,33.5169 41.8503,32.1836 42.5,30.5C 44.7466,29.6258 47.0799,29.2924 49.5,29.5C 52.634,28.7593 55.634,27.7593 58.5,26.5C 58.5,25.5 58.5,24.5 58.5,23.5 Z"/></g>
<g><path style="opacity:1" fill="#ffda73" d="M 28.5,22.5 C 27.4183,23.5938 26.7517,24.9271 26.5,26.5C 27.8632,28.7075 29.0299,31.0408 30,33.5C 30.3333,32.8333 30.6667,32.1667 31,31.5C 31.0178,33.7972 30.8511,36.1305 30.5,38.5C 29.8333,38.5 29.5,38.8333 29.5,39.5C 25.9935,38.115 22.6602,36.4483 19.5,34.5C 16.7205,34.8615 14.0538,35.5282 11.5,36.5C 11.4142,35.5041 11.7476,34.6708 12.5,34C 18.7337,32.8796 23.0671,29.3796 25.5,23.5C 26.4168,22.8728 27.4168,22.5394 28.5,22.5 Z"/></g>
<g><path style="opacity:1" fill="#ffe87c" d="M 59.5,23.5 C 59.1667,23.5 58.8333,23.5 58.5,23.5C 54.2147,22.23 49.8814,22.23 45.5,23.5C 44.5721,24.7678 44.4054,26.1011 45,27.5C 46.6225,28.0989 48.1225,28.7656 49.5,29.5C 47.0799,29.2924 44.7466,29.6258 42.5,30.5C 41.8503,32.1836 40.8503,33.5169 39.5,34.5C 37.7354,33.5386 35.7354,33.2053 33.5,33.5C 33.595,31.2143 34.2616,29.2143 35.5,27.5C 35.3505,28.552 35.5172,29.552 36,30.5C 37.8274,28.6984 38.9941,26.5318 39.5,24C 45.6123,21.586 51.9456,20.9193 58.5,22C 59.056,22.3826 59.3893,22.8826 59.5,23.5 Z"/></g>
<g><path style="opacity:1" fill="#fec665" d="M 74.5,23.5 C 74.5,24.1667 74.8333,24.5 75.5,24.5C 75.5394,25.5832 75.8728,26.5832 76.5,27.5C 75.0892,30.9097 73.5892,34.243 72,37.5C 71.2917,36.6195 70.4584,35.9528 69.5,35.5C 68.7729,33.0462 67.7729,30.7128 66.5,28.5C 68.3079,27.0821 68.9746,25.0821 68.5,22.5C 70.5648,22.5172 72.5648,22.8505 74.5,23.5 Z"/></g>
<g><path style="opacity:1" fill="#f4a35b" d="M 75.5,24.5 C 77.1667,25.5 78.5,26.8333 79.5,28.5C 77.6276,31.9166 76.6276,35.5832 76.5,39.5C 74.9016,42.4848 72.5682,43.1514 69.5,41.5C 69.5,40.1667 69.5,38.8333 69.5,37.5C 69.5,36.8333 69.5,36.1667 69.5,35.5C 70.4584,35.9528 71.2917,36.6195 72,37.5C 73.5892,34.243 75.0892,30.9097 76.5,27.5C 75.8728,26.5832 75.5394,25.5832 75.5,24.5 Z"/></g>
<g><path style="opacity:1" fill="#eeb193" d="M 74.5,22.5 C 80.5291,23.6864 85.0291,27.0198 88,32.5C 88.4643,31.9056 88.631,31.2389 88.5,30.5C 88.8333,30.5 89.1667,30.5 89.5,30.5C 89.5,31.5 89.5,32.5 89.5,33.5C 89.5,34.8333 89.5,36.1667 89.5,37.5C 88.8826,37.6107 88.3826,37.944 88,38.5C 84.8906,35.1995 82.0573,31.8661 79.5,28.5C 78.5,26.8333 77.1667,25.5 75.5,24.5C 74.8333,24.5 74.5,24.1667 74.5,23.5C 74.5,23.1667 74.5,22.8333 74.5,22.5 Z"/></g>
<g><path style="opacity:1" fill="#fdbe5f" d="M 61.5,27.5 C 61.5,27.8333 61.5,28.1667 61.5,28.5C 58.2035,32.3978 55.3702,36.7311 53,41.5C 51.1295,43.2189 48.9628,44.2189 46.5,44.5C 45.5,43.5 44.5,42.5 43.5,41.5C 42.8902,40.609 42.5569,39.609 42.5,38.5C 44.1368,39.2178 45.8034,39.3845 47.5,39C 47.1667,38.6667 46.8333,38.3333 46.5,38C 47.8754,35.5228 49.7088,34.6894 52,35.5C 55.0651,32.7168 58.2317,30.0501 61.5,27.5 Z"/></g>
<g><path style="opacity:1" fill="#e78e5c" d="M 79.5,28.5 C 82.0573,31.8661 84.8906,35.1995 88,38.5C 88.3826,37.944 88.8826,37.6107 89.5,37.5C 89.67,38.8221 89.3366,39.9887 88.5,41C 86.925,40.621 85.425,40.7877 84,41.5C 83.5045,43.4727 83.3379,45.4727 83.5,47.5C 81.0122,47.3167 79.0122,46.3167 77.5,44.5C 76.5489,43.0813 76.2155,41.4147 76.5,39.5C 76.6276,35.5832 77.6276,31.9166 79.5,28.5 Z"/></g>
<g><path style="opacity:1" fill="#fdc658" d="M 29.5,39.5 C 29.5,40.5 29.5,41.5 29.5,42.5C 26.2512,41.749 23.0845,40.749 20,39.5C 16.5506,40.4702 13.0506,41.3035 9.5,42C 8.66337,43.0113 8.33003,44.1779 8.5,45.5C 8.16667,45.5 7.83333,45.5 7.5,45.5C 7.64945,44.448 7.48278,43.448 7,42.5C 6.50454,44.4727 6.33788,46.4727 6.5,48.5C 5.30567,44.6113 5.47234,40.6113 7,36.5C 7.33333,38.1667 7.66667,39.8333 8,41.5C 8.48278,40.552 8.64945,39.552 8.5,38.5C 10.0269,38.573 11.0269,37.9063 11.5,36.5C 14.0538,35.5282 16.7205,34.8615 19.5,34.5C 22.6602,36.4483 25.9935,38.115 29.5,39.5 Z"/></g>
<g><path style="opacity:1" fill="#ec9c5c" d="M 64.5,28.5 C 66.0946,30.8285 67.0946,33.4952 67.5,36.5C 65.8973,39.6796 64.7306,43.0129 64,46.5C 63.6667,46.8333 63.3333,47.1667 63,47.5C 61.9609,46.2899 60.7942,45.2899 59.5,44.5C 59.6716,43.5084 59.3382,42.8417 58.5,42.5C 59.8498,38.121 61.1831,33.7876 62.5,29.5C 63.4916,29.6716 64.1583,29.3382 64.5,28.5 Z"/></g>
<g><path style="opacity:1" fill="#feb239" d="M 29.5,42.5 C 29.0744,44.2849 27.9078,45.2849 26,45.5C 22.3935,43.6402 18.5602,42.8068 14.5,43C 13.7801,45.1223 12.6134,45.6223 11,44.5C 10.0656,45.8584 9.2323,47.1917 8.5,48.5C 8.5,47.5 8.5,46.5 8.5,45.5C 8.33003,44.1779 8.66337,43.0113 9.5,42C 13.0506,41.3035 16.5506,40.4702 20,39.5C 23.0845,40.749 26.2512,41.749 29.5,42.5 Z"/></g>
<g><path style="opacity:1" fill="#f5aa55" d="M 61.5,28.5 C 62.1667,28.5 62.5,28.8333 62.5,29.5C 61.1831,33.7876 59.8498,38.121 58.5,42.5C 56.1969,44.3247 53.8636,46.1581 51.5,48C 49.8067,48.484 48.4733,47.984 47.5,46.5C 47.1667,45.8333 46.8333,45.1667 46.5,44.5C 48.9628,44.2189 51.1295,43.2189 53,41.5C 55.3702,36.7311 58.2035,32.3978 61.5,28.5 Z"/></g>
<g><path style="opacity:1" fill="#feb82e" d="M 39.5,36.5 C 40.5,37.1667 41.5,37.8333 42.5,38.5C 42.5569,39.609 42.8902,40.609 43.5,41.5C 42.2264,42.1894 42.2264,43.0228 43.5,44C 42.3333,44.5 41.5,45.3333 41,46.5C 37.6506,46.2539 34.1506,46.2539 30.5,46.5C 30.7678,44.901 30.4345,43.5676 29.5,42.5C 29.5,41.5 29.5,40.5 29.5,39.5C 29.5,38.8333 29.8333,38.5 30.5,38.5C 31.1499,38.8039 31.8165,39.1373 32.5,39.5C 33.354,38.4783 34.354,37.6449 35.5,37C 37.1147,36.9378 38.4481,36.7711 39.5,36.5 Z"/></g>
<g><path style="opacity:0.012" fill="#a13a12" d="M 93.5,42.5 C 94.8333,45.5 94.8333,48.5 93.5,51.5C 93.5,48.5 93.5,45.5 93.5,42.5 Z"/></g>
<g><path style="opacity:1" fill="#faa12b" d="M 43.5,41.5 C 44.5,42.5 45.5,43.5 46.5,44.5C 46.8333,45.1667 47.1667,45.8333 47.5,46.5C 45.2893,48.4945 44.9559,50.8279 46.5,53.5C 44.8828,54.038 43.2161,54.3713 41.5,54.5C 41.5,53.1667 41.5,51.8333 41.5,50.5C 37.7707,51.5206 34.104,51.5206 30.5,50.5C 30.7535,48.5992 30.4202,47.9326 29.5,48.5C 26.3771,50.4498 24.2104,53.1164 23,56.5C 18.8928,52.1058 14.0595,50.1058 8.5,50.5C 8.5,49.8333 8.5,49.1667 8.5,48.5C 9.2323,47.1917 10.0656,45.8584 11,44.5C 12.6134,45.6223 13.7801,45.1223 14.5,43C 18.5602,42.8068 22.3935,43.6402 26,45.5C 27.9078,45.2849 29.0744,44.2849 29.5,42.5C 30.4345,43.5676 30.7678,44.901 30.5,46.5C 34.1506,46.2539 37.6506,46.2539 41,46.5C 41.5,45.3333 42.3333,44.5 43.5,44C 42.2264,43.0228 42.2264,42.1894 43.5,41.5 Z"/></g>
<g><path style="opacity:1" fill="#ec9443" d="M 58.5,42.5 C 59.3382,42.8417 59.6716,43.5084 59.5,44.5C 58.4908,45.9391 58.8241,47.2724 60.5,48.5C 59.2532,50.0421 59.2532,51.5421 60.5,53C 59.5842,53.2784 58.9175,53.7784 58.5,54.5C 57.236,52.7299 55.736,51.0632 54,49.5C 52.6322,52.1863 51.2989,54.853 50,57.5C 49.3292,58.2524 48.4959,58.5858 47.5,58.5C 47.634,56.7085 47.3007,55.0418 46.5,53.5C 44.9559,50.8279 45.2893,48.4945 47.5,46.5C 48.4733,47.984 49.8067,48.484 51.5,48C 53.8636,46.1581 56.1969,44.3247 58.5,42.5 Z"/></g>
<g><path style="opacity:1" fill="#f79328" d="M 29.5,48.5 C 29.5,49.1667 29.5,49.8333 29.5,50.5C 27.9045,52.8318 26.7378,55.4985 26,58.5C 25.4387,59.0219 24.772,59.3552 24,59.5C 18.8866,56.178 13.7199,53.178 8.5,50.5C 14.0595,50.1058 18.8928,52.1058 23,56.5C 24.2104,53.1164 26.3771,50.4498 29.5,48.5 Z"/></g>
<g><path style="opacity:1" fill="#e37b39" d="M 76.5,39.5 C 76.2155,41.4147 76.5489,43.0813 77.5,44.5C 78.2932,49.3941 78.6265,54.3941 78.5,59.5C 77.8359,60.648 77.6692,61.9813 78,63.5C 74.715,60.5254 72.215,57.192 70.5,53.5C 70.7947,51.2646 70.4614,49.2646 69.5,47.5C 69.5,45.5 69.5,43.5 69.5,41.5C 72.5682,43.1514 74.9016,42.4848 76.5,39.5 Z"/></g>
<g><path style="opacity:1" fill="#ec8b39" d="M 58.5,54.5 C 58.33,55.8221 58.6634,56.9887 59.5,58C 58.6195,58.7083 57.9528,59.5416 57.5,60.5C 56.8333,60.8333 56.1667,61.1667 55.5,61.5C 52.6819,62.9697 49.6819,63.9697 46.5,64.5C 47.1712,63.1529 47.1712,61.9862 46.5,61C 48.6192,60.6582 48.9526,59.8249 47.5,58.5C 48.4959,58.5858 49.3292,58.2524 50,57.5C 51.2989,54.853 52.6322,52.1863 54,49.5C 55.736,51.0632 57.236,52.7299 58.5,54.5 Z"/></g>
<g><path style="opacity:1" fill="#f48b28" d="M 7.5,45.5 C 7.83333,45.5 8.16667,45.5 8.5,45.5C 8.5,46.5 8.5,47.5 8.5,48.5C 8.5,49.1667 8.5,49.8333 8.5,50.5C 13.7199,53.178 18.8866,56.178 24,59.5C 24.772,59.3552 25.4387,59.0219 26,58.5C 26.7378,55.4985 27.9045,52.8318 29.5,50.5C 29.5,52.5 29.5,54.5 29.5,56.5C 28.0578,58.5396 27.0578,60.873 26.5,63.5C 24.7015,64.7879 23.0348,64.7879 21.5,63.5C 22.5498,63.0954 22.5498,62.4288 21.5,61.5C 16.9268,58.9631 12.4268,56.2965 8,53.5C 7.51722,54.448 7.35055,55.448 7.5,56.5C 7.16667,56.5 6.83333,56.5 6.5,56.5C 6.5,53.8333 6.5,51.1667 6.5,48.5C 7.40397,47.791 7.73731,46.791 7.5,45.5 Z"/></g>
<g><path style="opacity:1" fill="#f89b22" d="M 30.5,50.5 C 34.104,51.5206 37.7707,51.5206 41.5,50.5C 41.5,51.8333 41.5,53.1667 41.5,54.5C 42.6256,55.8583 42.6256,57.1916 41.5,58.5C 38.2733,58.3451 34.94,58.1784 31.5,58C 30.565,55.6194 30.2317,53.1194 30.5,50.5 Z"/></g>
<g><path style="opacity:1" fill="#df7b47" d="M 93.5,42.5 C 93.1667,42.5 92.8333,42.5 92.5,42.5C 92.7845,40.5853 92.4511,38.9187 91.5,37.5C 91.1667,33.5 90.8333,33.5 90.5,37.5C 90.5,39.1667 90.5,40.8333 90.5,42.5C 90.1667,42.5 89.8333,42.5 89.5,42.5C 88.5326,43.8062 87.1993,44.4729 85.5,44.5C 84.8694,48.8038 84.3694,53.1371 84,57.5C 82.8271,60.4103 80.9938,61.0769 78.5,59.5C 78.6265,54.3941 78.2932,49.3941 77.5,44.5C 79.0122,46.3167 81.0122,47.3167 83.5,47.5C 83.3379,45.4727 83.5045,43.4727 84,41.5C 85.425,40.7877 86.925,40.621 88.5,41C 89.3366,39.9887 89.67,38.8221 89.5,37.5C 89.5,36.1667 89.5,34.8333 89.5,33.5C 90.2216,33.0825 90.7216,32.4158 91,31.5C 92.9039,34.9231 93.7372,38.5898 93.5,42.5 Z"/></g>
<g><path style="opacity:1" fill="#e58542" d="M 64.5,28.5 C 65.1667,27.1667 65.8333,27.1667 66.5,28.5C 67.7729,30.7128 68.7729,33.0462 69.5,35.5C 69.5,36.1667 69.5,36.8333 69.5,37.5C 67.0509,45.5069 65.8843,53.8402 66,62.5C 65.2613,63.5742 64.2613,64.2409 63,64.5C 61.019,63.3498 59.1857,62.0165 57.5,60.5C 57.9528,59.5416 58.6195,58.7083 59.5,58C 58.6634,56.9887 58.33,55.8221 58.5,54.5C 58.9175,53.7784 59.5842,53.2784 60.5,53C 59.2532,51.5421 59.2532,50.0421 60.5,48.5C 58.8241,47.2724 58.4908,45.9391 59.5,44.5C 60.7942,45.2899 61.9609,46.2899 63,47.5C 63.3333,47.1667 63.6667,46.8333 64,46.5C 64.7306,43.0129 65.8973,39.6796 67.5,36.5C 67.0946,33.4952 66.0946,30.8285 64.5,28.5 Z"/></g>
<g><path style="opacity:1" fill="#f07a1f" d="M 29.5,56.5 C 29.5,57.5 29.5,58.5 29.5,59.5C 29.5,60.1667 29.5,60.8333 29.5,61.5C 28.9348,63.42 27.9348,65.0867 26.5,66.5C 25.3734,67.1217 24.3734,67.955 23.5,69C 22.5,69.6667 21.5,69.6667 20.5,69C 16.6597,66.5791 12.6597,64.4125 8.5,62.5C 7.61432,61.675 7.28099,60.675 7.5,59.5C 11.6604,61.4537 15.6604,63.787 19.5,66.5C 20.5063,66.0623 20.5063,65.3957 19.5,64.5C 19.9569,63.7025 20.6236,63.3691 21.5,63.5C 23.0348,64.7879 24.7015,64.7879 26.5,63.5C 27.0578,60.873 28.0578,58.5396 29.5,56.5 Z"/></g>
<g><path style="opacity:1" fill="#f3821f" d="M 21.5,63.5 C 20.6236,63.3691 19.9569,63.7025 19.5,64.5C 20.5063,65.3957 20.5063,66.0623 19.5,66.5C 15.6604,63.787 11.6604,61.4537 7.5,59.5C 7.5,58.5 7.5,57.5 7.5,56.5C 7.35055,55.448 7.51722,54.448 8,53.5C 12.4268,56.2965 16.9268,58.9631 21.5,61.5C 22.5498,62.4288 22.5498,63.0954 21.5,63.5 Z"/></g>
<g><path style="opacity:1" fill="#dd6d38" d="M 89.5,42.5 C 87.534,49.3039 86.534,56.3039 86.5,63.5C 85.0681,65.3271 83.4014,66.9937 81.5,68.5C 77.4989,65.8248 73.8323,62.8248 70.5,59.5C 70.5,59.1667 70.5,58.8333 70.5,58.5C 70.5,56.8333 70.5,55.1667 70.5,53.5C 72.215,57.192 74.715,60.5254 78,63.5C 77.6692,61.9813 77.8359,60.648 78.5,59.5C 80.9938,61.0769 82.8271,60.4103 84,57.5C 84.3694,53.1371 84.8694,48.8038 85.5,44.5C 87.1993,44.4729 88.5326,43.8062 89.5,42.5 Z"/></g>
<g><path style="opacity:1" fill="#f58f23" d="M 30.5,50.5 C 30.2317,53.1194 30.565,55.6194 31.5,58C 34.94,58.1784 38.2733,58.3451 41.5,58.5C 42.6256,57.1916 42.6256,55.8583 41.5,54.5C 43.2161,54.3713 44.8828,54.038 46.5,53.5C 47.3007,55.0418 47.634,56.7085 47.5,58.5C 48.9526,59.8249 48.6192,60.6582 46.5,61C 47.1712,61.9862 47.1712,63.1529 46.5,64.5C 45.8333,64.5 45.5,64.8333 45.5,65.5C 43.772,64.621 41.9386,63.9543 40,63.5C 37.1925,64.3863 34.3592,64.553 31.5,64C 30.9011,62.3775 30.2344,60.8775 29.5,59.5C 29.5,58.5 29.5,57.5 29.5,56.5C 29.5,54.5 29.5,52.5 29.5,50.5C 29.5,49.8333 29.5,49.1667 29.5,48.5C 30.4202,47.9326 30.7535,48.5992 30.5,50.5 Z"/></g>
<g><path style="opacity:1" fill="#f3821c" d="M 29.5,59.5 C 30.2344,60.8775 30.9011,62.3775 31.5,64C 34.3592,64.553 37.1925,64.3863 40,63.5C 41.9386,63.9543 43.772,64.621 45.5,65.5C 46.0431,65.56 46.3764,65.8933 46.5,66.5C 45.0508,67.1719 43.7175,67.8386 42.5,68.5C 38.4409,69.5643 34.4409,69.5643 30.5,68.5C 30.0074,66.1944 29.6741,63.861 29.5,61.5C 29.5,60.8333 29.5,60.1667 29.5,59.5 Z"/></g>
<g><path style="opacity:0.997" fill="#ce4d24" d="M 89.5,42.5 C 89.8333,42.5 90.1667,42.5 90.5,42.5C 93.0749,55.4215 93.7416,68.4215 92.5,81.5C 92.5,81.8333 92.5,82.1667 92.5,82.5C 91.1667,83.1667 91.1667,83.8333 92.5,84.5C 91.7377,86.2624 90.4044,87.2624 88.5,87.5C 88.5,87.1667 88.5,86.8333 88.5,86.5C 89.1667,86.5 89.5,86.1667 89.5,85.5C 90.1667,85.5 90.5,85.1667 90.5,84.5C 90.75,81.786 90.9167,79.1194 91,76.5C 90.6667,76.8333 90.3333,77.1667 90,77.5C 90.068,75.6577 89.9014,73.991 89.5,72.5C 90.3116,64.1018 89.145,63.7684 86,71.5C 85.1841,72.8228 84.0174,73.4894 82.5,73.5C 82.5,72.8333 82.5,72.1667 82.5,71.5C 84.7705,69.3877 86.1039,66.721 86.5,63.5C 86.534,56.3039 87.534,49.3039 89.5,42.5 Z"/></g>
<g><path style="opacity:1" fill="#e1712d" d="M 69.5,37.5 C 69.5,38.8333 69.5,40.1667 69.5,41.5C 69.5,43.5 69.5,45.5 69.5,47.5C 68.967,55.5382 67.967,63.5382 66.5,71.5C 65.8501,71.8039 65.1835,72.1373 64.5,72.5C 62.9246,71.5435 61.258,70.8769 59.5,70.5C 58.2842,68.5491 56.6175,67.0491 54.5,66C 56.1667,65.6667 57.8333,65.3333 59.5,65C 57.9733,63.9681 56.64,62.8014 55.5,61.5C 56.1667,61.1667 56.8333,60.8333 57.5,60.5C 59.1857,62.0165 61.019,63.3498 63,64.5C 64.2613,64.2409 65.2613,63.5742 66,62.5C 65.8843,53.8402 67.0509,45.5069 69.5,37.5 Z"/></g>
<g><path style="opacity:0.016" fill="#ce5c3d" d="M 4.5,78.5 C 3.34602,72.013 3.17935,65.3464 4,58.5C 4.49958,65.1583 4.66625,71.825 4.5,78.5 Z"/></g>
<g><path style="opacity:1" fill="#e77324" d="M 55.5,61.5 C 56.64,62.8014 57.9733,63.9681 59.5,65C 57.8333,65.3333 56.1667,65.6667 54.5,66C 56.6175,67.0491 58.2842,68.5491 59.5,70.5C 56.7354,70.7976 54.2354,71.7976 52,73.5C 51.7645,71.8807 50.9311,70.8807 49.5,70.5C 47.4816,69.3775 45.4816,69.3775 43.5,70.5C 42.7025,70.0431 42.3691,69.3764 42.5,68.5C 43.7175,67.8386 45.0508,67.1719 46.5,66.5C 46.3764,65.8933 46.0431,65.56 45.5,65.5C 45.5,64.8333 45.8333,64.5 46.5,64.5C 49.6819,63.9697 52.6819,62.9697 55.5,61.5 Z"/></g>
<g><path style="opacity:1" fill="#dd6028" d="M 70.5,59.5 C 73.8323,62.8248 77.4989,65.8248 81.5,68.5C 83.4014,66.9937 85.0681,65.3271 86.5,63.5C 86.1039,66.721 84.7705,69.3877 82.5,71.5C 78.6861,70.9636 75.0194,69.9636 71.5,68.5C 71.2962,65.4824 70.9629,62.4824 70.5,59.5 Z"/></g>
<g><path style="opacity:1" fill="#ec6f1c" d="M 6.5,56.5 C 6.83333,56.5 7.16667,56.5 7.5,56.5C 7.5,57.5 7.5,58.5 7.5,59.5C 7.28099,60.675 7.61432,61.675 8.5,62.5C 12.6597,64.4125 16.6597,66.5791 20.5,69C 21.5,69.6667 22.5,69.6667 23.5,69C 24.3734,67.955 25.3734,67.1217 26.5,66.5C 26.65,71.4156 24.3167,73.5823 19.5,73C 15.6682,70.2497 11.6682,67.7497 7.5,65.5C 6.52577,63.2573 6.19244,60.924 6.5,58.5C 6.5,57.8333 6.5,57.1667 6.5,56.5 Z"/></g>
<g><path style="opacity:1" fill="#ed741a" d="M 30.5,68.5 C 34.4409,69.5643 38.4409,69.5643 42.5,68.5C 42.3691,69.3764 42.7025,70.0431 43.5,70.5C 45.4816,69.3775 47.4816,69.3775 49.5,70.5C 46.094,72.109 42.4273,73.2756 38.5,74C 37.354,74.6449 36.354,75.4783 35.5,76.5C 33.6396,75.7401 31.973,74.7401 30.5,73.5C 30.5,72.5 30.5,71.5 30.5,70.5C 30.5,69.8333 30.5,69.1667 30.5,68.5 Z"/></g>
<g><path style="opacity:1" fill="#d2441b" d="M 89.5,72.5 C 87.963,75.9 86.1297,79.2333 84,82.5C 83.1841,83.8228 82.0174,84.4894 80.5,84.5C 81.1408,83.5178 81.8075,82.5178 82.5,81.5C 81.7997,81.2129 81.1331,80.8795 80.5,80.5C 81.0147,78.1055 81.6814,75.7722 82.5,73.5C 84.0174,73.4894 85.1841,72.8228 86,71.5C 89.145,63.7684 90.3116,64.1018 89.5,72.5 Z"/></g>
<g><path style="opacity:1" fill="#e5601c" d="M 6.5,58.5 C 6.19244,60.924 6.52577,63.2573 7.5,65.5C 11.6682,67.7497 15.6682,70.2497 19.5,73C 24.3167,73.5823 26.65,71.4156 26.5,66.5C 27.9348,65.0867 28.9348,63.42 29.5,61.5C 29.6741,63.861 30.0074,66.1944 30.5,68.5C 30.5,69.1667 30.5,69.8333 30.5,70.5C 29.8826,70.3893 29.3826,70.056 29,69.5C 27.908,72.0444 27.2414,74.7111 27,77.5C 25.9705,80.8753 23.8039,82.0419 20.5,81C 16.2209,79.3908 12.0542,77.5574 8,75.5C 7.50649,77.1341 7.33982,78.8008 7.5,80.5C 7.16667,80.5 6.83333,80.5 6.5,80.5C 6.67158,79.5084 6.33825,78.8417 5.5,78.5C 5.17596,71.6457 5.50929,64.979 6.5,58.5 Z"/></g>
<g><path style="opacity:1" fill="#df521b" d="M 71.5,68.5 C 75.0194,69.9636 78.6861,70.9636 82.5,71.5C 82.5,72.1667 82.5,72.8333 82.5,73.5C 81.6814,75.7722 81.0147,78.1055 80.5,80.5C 78.4593,84.7189 75.6259,85.3856 72,82.5C 71.5008,77.8452 71.3342,73.1785 71.5,68.5 Z"/></g>
<g><path style="opacity:1" fill="#e8681a" d="M 49.5,70.5 C 50.9311,70.8807 51.7645,71.8807 52,73.5C 54.2354,71.7976 56.7354,70.7976 59.5,70.5C 61.258,70.8769 62.9246,71.5435 64.5,72.5C 65.1835,72.1373 65.8501,71.8039 66.5,71.5C 66.7678,73.099 66.4345,74.4324 65.5,75.5C 64.1779,75.67 63.0113,75.3366 62,74.5C 59.8297,76.3654 57.1631,78.3654 54,80.5C 46.9213,80.8188 39.7546,80.4854 32.5,79.5C 32.5,78.8333 32.1667,78.5 31.5,78.5C 30.962,76.8828 30.6287,75.2161 30.5,73.5C 31.973,74.7401 33.6396,75.7401 35.5,76.5C 36.354,75.4783 37.354,74.6449 38.5,74C 42.4273,73.2756 46.094,72.109 49.5,70.5 Z"/></g>
<g><path style="opacity:1" fill="#db551b" d="M 69.5,47.5 C 70.4614,49.2646 70.7947,51.2646 70.5,53.5C 70.5,55.1667 70.5,56.8333 70.5,58.5C 69.8756,66.8542 68.5422,75.1876 66.5,83.5C 65.8333,84.8333 64.8333,85.8333 63.5,86.5C 64.1667,84.5 64.8333,82.5 65.5,80.5C 65.5,78.8333 65.5,77.1667 65.5,75.5C 66.4345,74.4324 66.7678,73.099 66.5,71.5C 67.967,63.5382 68.967,55.5382 69.5,47.5 Z"/></g>
<g><path style="opacity:1" fill="#d44618" d="M 30.5,70.5 C 30.5,71.5 30.5,72.5 30.5,73.5C 30.6287,75.2161 30.962,76.8828 31.5,78.5C 31.4914,80.3084 31.9914,81.9751 33,83.5C 34.2087,83.6526 35.3754,83.9859 36.5,84.5C 40.3989,87.5188 44.8989,88.8521 50,88.5C 54.595,88.354 59.095,87.6874 63.5,86.5C 62.6935,87.7281 61.6935,88.7281 60.5,89.5C 60.5,89.8333 60.5,90.1667 60.5,90.5C 60.5,90.8333 60.5,91.1667 60.5,91.5C 60.1667,91.5 59.8333,91.5 59.5,91.5C 59.5,90.8333 59.1667,90.5 58.5,90.5C 53.4889,90.6659 48.4889,90.4993 43.5,90C 41.1116,89.6966 38.9449,88.8633 37,87.5C 35.3023,88.733 33.3023,89.3996 31,89.5C 29.1667,89.3333 27.3333,89.1667 25.5,89C 20.8124,86.4944 15.8124,84.8277 10.5,84C 9.36362,82.8549 8.36362,81.6883 7.5,80.5C 7.33982,78.8008 7.50649,77.1341 8,75.5C 12.0542,77.5574 16.2209,79.3908 20.5,81C 23.8039,82.0419 25.9705,80.8753 27,77.5C 27.2414,74.7111 27.908,72.0444 29,69.5C 29.3826,70.056 29.8826,70.3893 30.5,70.5 Z"/></g>
<g><path style="opacity:0.729" fill="#b74d32" d="M 90.5,37.5 C 90.8333,37.5 91.1667,37.5 91.5,37.5C 91.2155,39.4147 91.5489,41.0813 92.5,42.5C 92.19,45.7131 92.5233,48.7131 93.5,51.5C 93.335,54.8499 93.5017,58.1832 94,61.5C 94.3333,58.5 94.6667,55.5 95,52.5C 96.7846,61.8948 96.7846,71.2281 95,80.5C 93.9568,76.7741 93.4568,77.1074 93.5,81.5C 93.1667,81.5 92.8333,81.5 92.5,81.5C 93.7416,68.4215 93.0749,55.4215 90.5,42.5C 90.5,40.8333 90.5,39.1667 90.5,37.5 Z"/></g>
<g><path style="opacity:0.012" fill="#d95ffc" d="M 4.5,78.5 C 4.83333,78.5 5.16667,78.5 5.5,78.5C 5.5,79.5 5.5,80.5 5.5,81.5C 4.59603,80.791 4.26269,79.791 4.5,78.5 Z"/></g>
<g><path style="opacity:1" fill="#e86018" d="M 65.5,75.5 C 65.5,77.1667 65.5,78.8333 65.5,80.5C 64.8333,80.5 64.5,80.8333 64.5,81.5C 58.6674,82.1106 52.8341,82.7773 47,83.5C 41.6411,83.6038 36.8078,82.2705 32.5,79.5C 39.7546,80.4854 46.9213,80.8188 54,80.5C 57.1631,78.3654 59.8297,76.3654 62,74.5C 63.0113,75.3366 64.1779,75.67 65.5,75.5 Z"/></g>
<g><path style="opacity:1" fill="#d23b14" d="M 70.5,58.5 C 70.5,58.8333 70.5,59.1667 70.5,59.5C 70.9629,62.4824 71.2962,65.4824 71.5,68.5C 71.3342,73.1785 71.5008,77.8452 72,82.5C 75.6259,85.3856 78.4593,84.7189 80.5,80.5C 81.1331,80.8795 81.7997,81.2129 82.5,81.5C 81.8075,82.5178 81.1408,83.5178 80.5,84.5C 76.8883,87.5724 72.8883,88.4058 68.5,87C 67.1667,86 67.1667,85 68.5,84C 67.9056,83.5357 67.2389,83.369 66.5,83.5C 68.5422,75.1876 69.8756,66.8542 70.5,58.5 Z"/></g>
<g><path style="opacity:1" fill="#e75a15" d="M 31.5,78.5 C 32.1667,78.5 32.5,78.8333 32.5,79.5C 36.8078,82.2705 41.6411,83.6038 47,83.5C 52.8341,82.7773 58.6674,82.1106 64.5,81.5C 61.5512,83.4608 58.2179,84.6274 54.5,85C 48.4717,85.6406 42.4717,85.4739 36.5,84.5C 35.3754,83.9859 34.2087,83.6526 33,83.5C 31.9914,81.9751 31.4914,80.3084 31.5,78.5 Z"/></g>
<g><path style="opacity:0.008" fill="#fe0000" d="M 93.5,81.5 C 94.8333,82.1667 94.8333,82.1667 93.5,81.5 Z"/></g>
<g><path style="opacity:0.008" fill="#ad6efc" d="M 5.5,81.5 C 5.83333,81.5 6.16667,81.5 6.5,81.5C 6.16667,84.1667 5.83333,84.1667 5.5,81.5 Z"/></g>
<g><path style="opacity:1" fill="#e45316" d="M 65.5,80.5 C 64.8333,82.5 64.1667,84.5 63.5,86.5C 59.095,87.6874 54.595,88.354 50,88.5C 44.8989,88.8521 40.3989,87.5188 36.5,84.5C 42.4717,85.4739 48.4717,85.6406 54.5,85C 58.2179,84.6274 61.5512,83.4608 64.5,81.5C 64.5,80.8333 64.8333,80.5 65.5,80.5 Z"/></g>
<g><path style="opacity:0.004" fill="#ff45ff" d="M 92.5,82.5 C 92.8333,82.5 93.1667,82.5 93.5,82.5C 93.6716,83.4916 93.3382,84.1583 92.5,84.5C 92.5,83.8333 92.5,83.1667 92.5,82.5 Z"/></g>
<g><path style="opacity:0.98" fill="#b54c2d" d="M 6.5,81.5 C 6.5,81.1667 6.5,80.8333 6.5,80.5C 6.83333,80.5 7.16667,80.5 7.5,80.5C 8.36362,81.6883 9.36362,82.8549 10.5,84C 15.8124,84.8277 20.8124,86.4944 25.5,89C 27.3333,89.1667 29.1667,89.3333 31,89.5C 33.3023,89.3996 35.3023,88.733 37,87.5C 38.9449,88.8633 41.1116,89.6966 43.5,90C 48.4889,90.4993 53.4889,90.6659 58.5,90.5C 58.5,90.8333 58.5,91.1667 58.5,91.5C 54.5,91.8333 54.5,92.1667 58.5,92.5C 52.1442,95.0947 45.6442,95.0947 39,92.5C 28.8638,94.7492 19.3638,93.2492 10.5,88C 10.0639,85.6339 8.73054,83.4672 6.5,81.5 Z"/></g>
<g><path style="opacity:1" fill="#b3452f" d="M 90.5,84.5 C 90.5,85.1667 90.1667,85.5 89.5,85.5C 88.8333,85.5 88.5,85.8333 88.5,86.5C 87.1667,86.8333 87.1667,87.1667 88.5,87.5C 88.0472,88.4584 87.3805,89.2917 86.5,90C 77.392,93.4569 68.0587,94.2903 58.5,92.5C 58.5,92.1667 58.5,91.8333 58.5,91.5C 58.8333,91.5 59.1667,91.5 59.5,91.5C 59.8333,91.5 60.1667,91.5 60.5,91.5C 63.1667,91.1667 63.1667,90.8333 60.5,90.5C 60.5,90.1667 60.5,89.8333 60.5,89.5C 65.8437,89.666 71.1771,89.4994 76.5,89C 80.6117,85.9682 85.2784,84.4682 90.5,84.5 Z"/></g>
<g><path style="opacity:0.989" fill="#c4391c" d="M 89.5,72.5 C 89.9014,73.991 90.068,75.6577 90,77.5C 90.3333,77.1667 90.6667,76.8333 91,76.5C 90.9167,79.1194 90.75,81.786 90.5,84.5C 85.2784,84.4682 80.6117,85.9682 76.5,89C 71.1771,89.4994 65.8437,89.666 60.5,89.5C 61.6935,88.7281 62.6935,87.7281 63.5,86.5C 64.8333,85.8333 65.8333,84.8333 66.5,83.5C 67.2389,83.369 67.9056,83.5357 68.5,84C 67.1667,85 67.1667,86 68.5,87C 72.8883,88.4058 76.8883,87.5724 80.5,84.5C 82.0174,84.4894 83.1841,83.8228 84,82.5C 86.1297,79.2333 87.963,75.9 89.5,72.5 Z"/></g>
</svg>
