<?xml version="1.0" encoding="UTF-8"?>
<!DOCTYPE svg PUBLIC "-//W3C//DTD SVG 1.1//EN" "http://www.w3.org/Graphics/SVG/1.1/DTD/svg11.dtd">
<svg xmlns="http://www.w3.org/2000/svg" version="1.1" width="100px" height="100px" style="shape-rendering:geometricPrecision; text-rendering:geometricPrecision; image-rendering:optimizeQuality; fill-rule:evenodd; clip-rule:evenodd" xmlns:xlink="http://www.w3.org/1999/xlink">
<g><path style="opacity:0.012" fill="#a6ffc3" d="M 43.5,12.5 C 42.8333,12.5 42.5,12.8333 42.5,13.5C 42.1667,13.5 41.8333,13.5 41.5,13.5C 42.032,10.5404 42.6987,10.2071 43.5,12.5 Z"/></g>
<g><path style="opacity:0.439" fill="#56dbab" d="M 37.5,16.5 C 37.8333,17.8333 38.1667,17.8333 38.5,16.5C 39.1667,16.5 39.5,16.8333 39.5,17.5C 39.5,18.1667 39.8333,18.5 40.5,18.5C 40.6716,19.4916 40.3382,20.1583 39.5,20.5C 34.7958,19.2393 30.1292,17.9059 25.5,16.5C 27.631,15.6862 29.9644,15.1862 32.5,15C 30.1667,14.6667 27.8333,14.3333 25.5,14C 29.2613,13.2617 32.9279,13.5951 36.5,15C 32.7741,16.0432 33.1074,16.5432 37.5,16.5 Z"/></g>
<g><path style="opacity:0.996" fill="#317142" d="M 50.5,7.5 C 51.5421,9.79141 53.0421,10.7914 55,10.5C 55.6172,11.4491 55.4506,12.2825 54.5,13C 55.0659,13.9947 55.7326,14.828 56.5,15.5C 56.5,15.8333 56.5,16.1667 56.5,16.5C 56.5,17.1667 56.8333,17.5 57.5,17.5C 57.5,17.8333 57.5,18.1667 57.5,18.5C 57.5,19.1667 57.5,19.8333 57.5,20.5C 58.3007,22.0418 58.634,23.7085 58.5,25.5C 57.8444,24.7222 57.0111,24.0556 56,23.5C 53.5267,24.5171 51.0267,24.5171 48.5,23.5C 48.9157,18.5068 49.2491,13.5068 49.5,8.5C 49.5,7.83333 49.8333,7.5 50.5,7.5 Z"/></g>
<g><path style="opacity:0.831" fill="#8fd6bf" d="M 69.5,14.5 C 69.5,15.1667 69.1667,15.5 68.5,15.5C 65.0211,17.4031 61.3544,19.0698 57.5,20.5C 57.5,19.8333 57.5,19.1667 57.5,18.5C 60.1667,18.1667 60.1667,17.8333 57.5,17.5C 56.8333,17.5 56.5,17.1667 56.5,16.5C 57.8333,16.1667 57.8333,15.8333 56.5,15.5C 57.2481,13.2651 58.0814,13.5984 59,16.5C 62.2252,14.695 66.0585,13.3617 70.5,12.5C 71.1667,12.6667 71.8333,12.8333 72.5,13C 71.2625,13.2321 70.2625,13.7321 69.5,14.5 Z"/></g>
<g><path style="opacity:0.004" fill="#39fe65" d="M 23.5,19.5 C 22.4265,18.7494 22.2599,17.7494 23,16.5C 23.4828,17.448 23.6495,18.448 23.5,19.5 Z"/></g>
<g><path style="opacity:0.992" fill="#55d882" d="M 50.5,7.5 C 49.8333,7.5 49.5,7.83333 49.5,8.5C 47.0504,14.0579 44.0504,19.3913 40.5,24.5C 40.5,25.1667 40.1667,25.5 39.5,25.5C 39.5,23.8333 39.5,22.1667 39.5,20.5C 40.3382,20.1583 40.6716,19.4916 40.5,18.5C 39.8333,18.5 39.5,18.1667 39.5,17.5C 39.5,16.8333 39.1667,16.5 38.5,16.5C 38.1667,16.5 37.8333,16.5 37.5,16.5C 38.9264,15.6588 40.2597,14.6588 41.5,13.5C 41.8333,14.8333 42.1667,14.8333 42.5,13.5C 43.1667,13.5 43.5,13.1667 43.5,12.5C 45.9468,10.4845 47.2801,8.15119 47.5,5.5C 49.1233,4.52437 50.4567,5.02437 51.5,7C 51.2716,7.39877 50.9382,7.56544 50.5,7.5 Z"/></g>
<g><path style="opacity:0.86" fill="#437942" d="M 72.5,15.5 C 73.3171,17.9686 73.8171,20.6353 74,23.5C 74.3333,20.8333 74.6667,18.1667 75,15.5C 75.7554,19.2554 75.5887,22.9221 74.5,26.5C 74.1667,26.5 73.8333,26.5 73.5,26.5C 73.1667,23.8333 72.8333,23.8333 72.5,26.5C 71.8333,26.5 71.5,26.8333 71.5,27.5C 68.8728,26.9084 66.2062,26.5751 63.5,26.5C 66.2052,22.4742 69.2052,18.8075 72.5,15.5 Z"/></g>
<g><path style="opacity:0.999" fill="#35b471" d="M 25.5,16.5 C 30.1292,17.9059 34.7958,19.2393 39.5,20.5C 39.5,22.1667 39.5,23.8333 39.5,25.5C 39.5654,25.9382 39.3988,26.2716 39,26.5C 36.2708,22.6385 32.6042,20.3052 28,19.5C 27.7645,21.1193 26.9311,22.1193 25.5,22.5C 25.7373,21.209 25.404,20.209 24.5,19.5C 24.2627,18.209 24.596,17.209 25.5,16.5 Z"/></g>
<g><path style="opacity:1" fill="#399f4c" d="M 49.5,8.5 C 49.2491,13.5068 48.9157,18.5068 48.5,23.5C 47.8333,23.8333 47.1667,24.1667 46.5,24.5C 44.5,24.5 42.5,24.5 40.5,24.5C 44.0504,19.3913 47.0504,14.0579 49.5,8.5 Z"/></g>
<g><path style="opacity:1" fill="#30b668" d="M 69.5,14.5 C 70.791,14.2627 71.791,14.596 72.5,15.5C 69.2052,18.8075 66.2052,22.4742 63.5,26.5C 61.9731,26.427 60.9731,27.0937 60.5,28.5C 59.8333,28.5 59.1667,28.5 58.5,28.5C 58.5,27.5 58.5,26.5 58.5,25.5C 58.634,23.7085 58.3007,22.0418 57.5,20.5C 61.3544,19.0698 65.0211,17.4031 68.5,15.5C 69.1667,15.5 69.5,15.1667 69.5,14.5 Z"/></g>
<g><path style="opacity:0.99" fill="#5b9049" d="M 23.5,19.5 C 23.8333,19.5 24.1667,19.5 24.5,19.5C 24.3398,21.1992 24.5065,22.8659 25,24.5C 25.4643,23.9056 25.631,23.2389 25.5,22.5C 26.9311,22.1193 27.7645,21.1193 28,19.5C 32.6042,20.3052 36.2708,22.6385 39,26.5C 39.3988,26.2716 39.5654,25.9382 39.5,25.5C 40.1667,25.5 40.5,25.1667 40.5,24.5C 42.5,24.5 44.5,24.5 46.5,24.5C 46.5,25.1667 46.5,25.8333 46.5,26.5C 45.078,27.925 43.4113,28.925 41.5,29.5C 41.1667,29.5 40.8333,29.5 40.5,29.5C 40.5,28.8333 40.1667,28.5 39.5,28.5C 39.1583,27.6618 38.4916,27.3284 37.5,27.5C 34.6377,26.3187 31.6377,26.3187 28.5,27.5C 28.1667,27.5 27.8333,27.5 27.5,27.5C 27.1667,26.5 26.5,25.8333 25.5,25.5C 25.1667,25.5 24.8333,25.5 24.5,25.5C 24.1667,25.5 23.8333,25.5 23.5,25.5C 23.5,23.5 23.5,21.5 23.5,19.5 Z"/></g>
<g><path style="opacity:1" fill="#424328" d="M 48.5,23.5 C 51.0267,24.5171 53.5267,24.5171 56,23.5C 57.0111,24.0556 57.8444,24.7222 58.5,25.5C 58.5,26.5 58.5,27.5 58.5,28.5C 58.5,28.8333 58.5,29.1667 58.5,29.5C 58.1667,29.5 57.8333,29.5 57.5,29.5C 54.3323,26.9439 50.6656,25.9439 46.5,26.5C 46.5,25.8333 46.5,25.1667 46.5,24.5C 47.1667,24.1667 47.8333,23.8333 48.5,23.5 Z"/></g>
<g><path style="opacity:0.009" fill="#ffcdde" d="M 71.5,27.5 C 71.5,26.8333 71.8333,26.5 72.5,26.5C 72.8333,26.5 73.1667,26.5 73.5,26.5C 73.8333,26.5 74.1667,26.5 74.5,26.5C 76.1059,27.3591 77.7725,27.5258 79.5,27C 80.6667,28.1667 81.8333,29.3333 83,30.5C 83.6917,31.4368 83.525,32.1034 82.5,32.5C 82.5,31.8333 82.1667,31.5 81.5,31.5C 81.1667,30.1667 80.8333,30.1667 80.5,31.5C 77.6439,29.9066 74.6439,28.5733 71.5,27.5 Z"/></g>
<g><path style="opacity:1" fill="#fa5a9c" d="M 46.5,26.5 C 50.6656,25.9439 54.3323,26.9439 57.5,29.5C 52.9572,30.4306 48.4572,31.7639 44,33.5C 42.6244,33.3158 41.7911,32.6491 41.5,31.5C 41.5,30.8333 41.5,30.1667 41.5,29.5C 43.4113,28.925 45.078,27.925 46.5,26.5 Z"/></g>
<g><path style="opacity:1" fill="#f1bfd7" d="M 37.5,27.5 C 35.0108,27.2978 32.6775,27.7978 30.5,29C 29.6667,31.1667 28.1667,32.6667 26,33.5C 25.3333,32.5 25.3333,31.5 26,30.5C 27.045,29.6266 27.8783,28.6266 28.5,27.5C 31.6377,26.3187 34.6377,26.3187 37.5,27.5 Z"/></g>
<g><path style="opacity:0.722" fill="#fddcee" d="M 23.5,25.5 C 23.8333,25.5 24.1667,25.5 24.5,25.5C 24.8333,26.8333 25.1667,26.8333 25.5,25.5C 26.5,25.8333 27.1667,26.5 27.5,27.5C 25.9582,28.3007 24.2915,28.634 22.5,28.5C 22.6495,29.552 22.4828,30.552 22,31.5C 20.1222,32.0527 18.6222,33.0527 17.5,34.5C 17.1583,35.3382 16.4916,35.6716 15.5,35.5C 16.0007,32.8447 17.3341,30.678 19.5,29C 19.1667,28.6667 18.8333,28.3333 18.5,28C 19.9101,26.6283 21.5767,25.795 23.5,25.5 Z"/></g>
<g><path style="opacity:1" fill="#f370a1" d="M 63.5,26.5 C 66.2062,26.5751 68.8728,26.9084 71.5,27.5C 74.6439,28.5733 77.6439,29.9066 80.5,31.5C 80.8333,31.5 81.1667,31.5 81.5,31.5C 82.1667,31.5 82.5,31.8333 82.5,32.5C 82.5,33.1667 82.5,33.8333 82.5,34.5C 80.0722,32.9565 77.4056,31.9565 74.5,31.5C 74.719,32.675 74.3857,33.675 73.5,34.5C 71.5845,32.2112 69.5845,30.0445 67.5,28C 65.1152,27.4436 62.7819,27.6103 60.5,28.5C 60.9731,27.0937 61.9731,26.427 63.5,26.5 Z"/></g>
<g><path style="opacity:1" fill="#ff77b7" d="M 27.5,27.5 C 27.8333,27.5 28.1667,27.5 28.5,27.5C 27.8783,28.6266 27.045,29.6266 26,30.5C 25.3333,31.5 25.3333,32.5 26,33.5C 28.1667,32.6667 29.6667,31.1667 30.5,29C 32.6775,27.7978 35.0108,27.2978 37.5,27.5C 38.4916,27.3284 39.1583,27.6618 39.5,28.5C 36.119,29.0523 33.7857,30.8857 32.5,34C 27.5111,34.4993 22.5111,34.6659 17.5,34.5C 18.6222,33.0527 20.1222,32.0527 22,31.5C 22.4828,30.552 22.6495,29.552 22.5,28.5C 24.2915,28.634 25.9582,28.3007 27.5,27.5 Z"/></g>
<g><path style="opacity:1" fill="#ff4287" d="M 39.5,28.5 C 40.1667,28.5 40.5,28.8333 40.5,29.5C 39.7998,32.9706 37.7998,34.9706 34.5,35.5C 28.143,35.4763 21.8097,35.8096 15.5,36.5C 15.5,36.1667 15.5,35.8333 15.5,35.5C 16.4916,35.6716 17.1583,35.3382 17.5,34.5C 22.5111,34.6659 27.5111,34.4993 32.5,34C 33.7857,30.8857 36.119,29.0523 39.5,28.5 Z"/></g>
<g><path style="opacity:1" fill="#f73977" d="M 82.5,34.5 C 82.5,34.8333 82.5,35.1667 82.5,35.5C 78.1667,35.5 73.8333,35.5 69.5,35.5C 66.8127,35.6641 64.146,35.4974 61.5,35C 60.695,33.8873 60.0283,32.7206 59.5,31.5C 61.0311,30.0755 60.6977,29.4088 58.5,29.5C 58.5,29.1667 58.5,28.8333 58.5,28.5C 59.1667,28.5 59.8333,28.5 60.5,28.5C 62.7819,27.6103 65.1152,27.4436 67.5,28C 69.5845,30.0445 71.5845,32.2112 73.5,34.5C 74.3857,33.675 74.719,32.675 74.5,31.5C 77.4056,31.9565 80.0722,32.9565 82.5,34.5 Z"/></g>
<g><path style="opacity:1" fill="#f0255c" d="M 57.5,29.5 C 57.8333,29.5 58.1667,29.5 58.5,29.5C 60.6977,29.4088 61.0311,30.0755 59.5,31.5C 58.5655,32.5676 58.2322,33.901 58.5,35.5C 56.5,35.5 54.5,35.5 52.5,35.5C 48.5,35.5 44.5,35.5 40.5,35.5C 40.2322,33.901 40.5655,32.5676 41.5,31.5C 41.7911,32.6491 42.6244,33.3158 44,33.5C 48.4572,31.7639 52.9572,30.4306 57.5,29.5 Z"/></g>
<g><path style="opacity:0.016" fill="#b9203e" d="M 83.5,33.5 C 84.6291,35.6282 84.7958,37.9615 84,40.5C 83.5034,38.1902 83.3367,35.8568 83.5,33.5 Z"/></g>
<g><path style="opacity:1" fill="#fc2f62" d="M 34.5,35.5 C 30.443,37.2197 26.1097,38.3863 21.5,39C 22.7932,39.49 24.1266,39.6567 25.5,39.5C 25.5,40.8333 25.5,42.1667 25.5,43.5C 24.596,42.791 24.2627,41.791 24.5,40.5C 22.901,40.2322 21.5676,40.5655 20.5,41.5C 19.1667,41.8333 17.8333,42.1667 16.5,42.5C 16.7373,41.209 16.404,40.209 15.5,39.5C 15.5,38.5 15.5,37.5 15.5,36.5C 21.8097,35.8096 28.143,35.4763 34.5,35.5 Z"/></g>
<g><path style="opacity:1" fill="#d31e38" d="M 69.5,35.5 C 73.8333,35.5 78.1667,35.5 82.5,35.5C 82.702,37.9496 82.3686,40.283 81.5,42.5C 79.6336,41.9862 77.8003,41.3195 76,40.5C 75.7334,42.2587 74.9001,43.9254 73.5,45.5C 74.7966,47.3998 76.63,48.3998 79,48.5C 80.6991,48.6134 81.8658,47.9468 82.5,46.5C 83.4345,47.5676 83.7678,48.901 83.5,50.5C 81.1756,50.6615 79.5089,51.8282 78.5,54C 78.9574,54.414 79.2907,54.914 79.5,55.5C 78.3112,56.4287 76.9778,56.762 75.5,56.5C 70.4344,51.9508 69.7677,46.9508 73.5,41.5C 73.1788,39.9519 72.1788,39.2852 70.5,39.5C 70.5674,38.0413 70.2341,36.7079 69.5,35.5 Z"/></g>
<g><path style="opacity:0.016" fill="#f14d5a" d="M 15.5,39.5 C 15.6068,41.3786 15.1068,41.7119 14,40.5C 13.3333,38.5 13.3333,36.5 14,34.5C 14.1981,36.3817 14.6981,38.0484 15.5,39.5 Z"/></g>
<g><path style="opacity:1" fill="#d50c2a" d="M 59.5,31.5 C 60.0283,32.7206 60.695,33.8873 61.5,35C 64.146,35.4974 66.8127,35.6641 69.5,35.5C 70.2341,36.7079 70.5674,38.0413 70.5,39.5C 72.1788,39.2852 73.1788,39.9519 73.5,41.5C 70.7475,41.7825 68.0808,42.1158 65.5,42.5C 63.7697,41.9744 62.4363,40.9744 61.5,39.5C 62.5498,39.0954 62.5498,38.4288 61.5,37.5C 60.6667,37.1667 59.8333,36.8333 59,36.5C 54.3585,38.7157 49.5251,40.5491 44.5,42C 45.8228,42.8159 46.4894,43.9826 46.5,45.5C 46.1667,45.5 45.8333,45.5 45.5,45.5C 44.075,44.078 43.075,42.4113 42.5,40.5C 46.334,39.9164 49.6673,38.2497 52.5,35.5C 54.5,35.5 56.5,35.5 58.5,35.5C 58.2322,33.901 58.5655,32.5676 59.5,31.5 Z"/></g>
<g><path style="opacity:1" fill="#e90b32" d="M 40.5,29.5 C 40.8333,29.5 41.1667,29.5 41.5,29.5C 41.5,30.1667 41.5,30.8333 41.5,31.5C 40.5655,32.5676 40.2322,33.901 40.5,35.5C 44.5,35.5 48.5,35.5 52.5,35.5C 49.6673,38.2497 46.334,39.9164 42.5,40.5C 40.2181,39.6103 37.8848,39.4436 35.5,40C 33.8043,41.1764 32.1376,42.343 30.5,43.5C 30.5654,43.0618 30.3988,42.7284 30,42.5C 28.583,43.0779 27.7496,44.0779 27.5,45.5C 26.5,45.1667 25.8333,44.5 25.5,43.5C 25.5,42.1667 25.5,40.8333 25.5,39.5C 24.1266,39.6567 22.7932,39.49 21.5,39C 26.1097,38.3863 30.443,37.2197 34.5,35.5C 37.7998,34.9706 39.7998,32.9706 40.5,29.5 Z"/></g>
<g><path style="opacity:1" fill="#c30520" d="M 61.5,39.5 C 57.615,40.1092 54.2817,41.7758 51.5,44.5C 51.1667,44.5 50.8333,44.5 50.5,44.5C 49.791,43.596 48.791,43.2627 47.5,43.5C 47.6653,47.1817 47.4986,50.8484 47,54.5C 46.2917,55.3805 45.4584,56.0472 44.5,56.5C 44.0766,55.7354 43.7432,54.9021 43.5,54C 45.273,51.4101 46.273,48.5767 46.5,45.5C 46.4894,43.9826 45.8228,42.8159 44.5,42C 49.5251,40.5491 54.3585,38.7157 59,36.5C 59.8333,36.8333 60.6667,37.1667 61.5,37.5C 62.5498,38.4288 62.5498,39.0954 61.5,39.5 Z"/></g>
<g><path style="opacity:0.996" fill="#ffbfd9" d="M 20.5,41.5 C 20.8199,45.1494 18.8199,47.1494 14.5,47.5C 14.5,47.1667 14.5,46.8333 14.5,46.5C 15.6737,45.4863 16.3404,44.153 16.5,42.5C 17.8333,42.1667 19.1667,41.8333 20.5,41.5 Z"/></g>
<g><path style="opacity:1" fill="#de3e67" d="M 81.5,42.5 C 81.8333,43.8333 82.1667,45.1667 82.5,46.5C 81.8658,47.9468 80.6991,48.6134 79,48.5C 76.63,48.3998 74.7966,47.3998 73.5,45.5C 74.9001,43.9254 75.7334,42.2587 76,40.5C 77.8003,41.3195 79.6336,41.9862 81.5,42.5 Z"/></g>
<g><path style="opacity:1" fill="#f9356f" d="M 42.5,40.5 C 43.075,42.4113 44.075,44.078 45.5,45.5C 45.7148,47.1788 45.0481,48.1788 43.5,48.5C 38.8333,48.5 34.1667,48.5 29.5,48.5C 29.366,46.7085 29.6993,45.0418 30.5,43.5C 32.1376,42.343 33.8043,41.1764 35.5,40C 37.8848,39.4436 40.2181,39.6103 42.5,40.5 Z"/></g>
<g><path style="opacity:1" fill="#f02e66" d="M 61.5,39.5 C 62.4363,40.9744 63.7697,41.9744 65.5,42.5C 66.925,43.922 67.925,45.5887 68.5,47.5C 66.7085,47.366 65.0418,47.6993 63.5,48.5C 62.1667,48.5 60.8333,48.5 59.5,48.5C 56.1008,48.3915 53.4341,47.0582 51.5,44.5C 54.2817,41.7758 57.615,40.1092 61.5,39.5 Z"/></g>
<g><path style="opacity:1" fill="#fb4374" d="M 20.5,41.5 C 21.5676,40.5655 22.901,40.2322 24.5,40.5C 24.2627,41.791 24.596,42.791 25.5,43.5C 25.8333,44.5 26.5,45.1667 27.5,45.5C 27.719,46.675 27.3857,47.675 26.5,48.5C 23.4597,50.5138 20.1263,51.5138 16.5,51.5C 16.5,52.8333 16.5,54.1667 16.5,55.5C 15.8333,54.8333 15.1667,54.1667 14.5,53.5C 14.5,51.5 14.5,49.5 14.5,47.5C 18.8199,47.1494 20.8199,45.1494 20.5,41.5 Z"/></g>
<g><path style="opacity:0.016" fill="#da3941" d="M 84.5,52.5 C 84.3379,50.4727 84.5045,48.4727 85,46.5C 85.7891,48.7116 85.6225,50.7116 84.5,52.5 Z"/></g>
<g><path style="opacity:1" fill="#ac071d" d="M 73.5,41.5 C 69.7677,46.9508 70.4344,51.9508 75.5,56.5C 75.8333,57.1667 76.1667,57.8333 76.5,58.5C 75.8501,58.8039 75.1835,59.1373 74.5,59.5C 69.9425,55.1283 66.2759,55.795 63.5,61.5C 60.3981,63.6409 59.3981,66.4742 60.5,70C 59.552,70.4828 58.552,70.6495 57.5,70.5C 56.8333,70.5 56.5,70.1667 56.5,69.5C 56.5,69.1667 56.5,68.8333 56.5,68.5C 57.6946,68.1344 58.3613,67.301 58.5,66C 57.259,64.2691 56.259,62.4358 55.5,60.5C 57.1703,60.7512 58.6703,61.4178 60,62.5C 61.045,61.6266 61.8783,60.6266 62.5,59.5C 67.1291,56.9089 69.1291,52.9089 68.5,47.5C 67.925,45.5887 66.925,43.922 65.5,42.5C 68.0808,42.1158 70.7475,41.7825 73.5,41.5 Z"/></g>
<g><path style="opacity:1" fill="#d00e28" d="M 45.5,45.5 C 45.8333,45.5 46.1667,45.5 46.5,45.5C 46.273,48.5767 45.273,51.4101 43.5,54C 43.7432,54.9021 44.0766,55.7354 44.5,56.5C 42.7837,58.0248 40.7837,59.0248 38.5,59.5C 36.602,58.9035 34.9354,58.9035 33.5,59.5C 31.8958,58.713 31.2291,57.3797 31.5,55.5C 34.1128,56.4349 36.7795,56.6015 39.5,56C 41.4944,53.8425 42.8277,51.3425 43.5,48.5C 45.0481,48.1788 45.7148,47.1788 45.5,45.5 Z"/></g>
<g><path style="opacity:1" fill="#d20f29" d="M 59.5,48.5 C 60.8333,48.5 62.1667,48.5 63.5,48.5C 66.7828,53.1463 65.6161,56.1463 60,57.5C 56.6076,56.6602 53.7742,54.9935 51.5,52.5C 53.5273,52.6621 55.5273,52.4955 57.5,52C 58.8228,51.1841 59.4894,50.0174 59.5,48.5 Z"/></g>
<g><path style="opacity:0.016" fill="#ff7f91" d="M 14.5,46.5 C 13.5318,48.6074 13.1984,50.9407 13.5,53.5C 12.0793,50.4918 12.2459,47.4918 14,44.5C 14.4643,45.0944 14.631,45.7611 14.5,46.5 Z"/></g>
<g><path style="opacity:1" fill="#e21133" d="M 50.5,44.5 C 50.8333,44.5 51.1667,44.5 51.5,44.5C 53.4341,47.0582 56.1008,48.3915 59.5,48.5C 59.4894,50.0174 58.8228,51.1841 57.5,52C 55.5273,52.4955 53.5273,52.6621 51.5,52.5C 50.8333,52.5 50.1667,52.5 49.5,52.5C 49.2786,49.7212 49.612,47.0545 50.5,44.5 Z"/></g>
<g><path style="opacity:1" fill="#df1130" d="M 30.5,43.5 C 29.6993,45.0418 29.366,46.7085 29.5,48.5C 34.1667,48.5 38.8333,48.5 43.5,48.5C 42.8277,51.3425 41.4944,53.8425 39.5,56C 36.7795,56.6015 34.1128,56.4349 31.5,55.5C 30.5,55.5 29.5,55.5 28.5,55.5C 29.9551,53.6898 29.7884,52.0231 28,50.5C 25.4953,52.3235 23.9953,54.6569 23.5,57.5C 20.8915,57.5997 18.5582,56.9331 16.5,55.5C 16.5,54.1667 16.5,52.8333 16.5,51.5C 20.1263,51.5138 23.4597,50.5138 26.5,48.5C 27.3857,47.675 27.719,46.675 27.5,45.5C 27.7496,44.0779 28.583,43.0779 30,42.5C 30.3988,42.7284 30.5654,43.0618 30.5,43.5 Z"/></g>
<g><path style="opacity:0.012" fill="#c8493e" d="M 83.5,52.5 C 83.8333,52.5 84.1667,52.5 84.5,52.5C 84.1667,55.1667 83.8333,55.1667 83.5,52.5 Z"/></g>
<g><path style="opacity:0.008" fill="#b17065" d="M 13.5,53.5 C 13.8333,53.5 14.1667,53.5 14.5,53.5C 14.1667,56.1667 13.8333,56.1667 13.5,53.5 Z"/></g>
<g><path style="opacity:0.008" fill="#fe0000" d="M 82.5,55.5 C 83.8333,56.1667 83.8333,56.1667 82.5,55.5 Z"/></g>
<g><path style="opacity:1" fill="#990316" d="M 50.5,44.5 C 49.612,47.0545 49.2786,49.7212 49.5,52.5C 52.657,56.9847 56.9903,59.318 62.5,59.5C 61.8783,60.6266 61.045,61.6266 60,62.5C 58.6703,61.4178 57.1703,60.7512 55.5,60.5C 53.8379,59.0154 52.0046,57.6821 50,56.5C 47.7039,56.8588 45.8705,57.8588 44.5,59.5C 42.326,59.7497 40.6594,60.7497 39.5,62.5C 38.596,61.791 38.2627,60.791 38.5,59.5C 40.7837,59.0248 42.7837,58.0248 44.5,56.5C 45.4584,56.0472 46.2917,55.3805 47,54.5C 47.4986,50.8484 47.6653,47.1817 47.5,43.5C 48.791,43.2627 49.791,43.596 50.5,44.5 Z"/></g>
<g><path style="opacity:1" fill="#ca1128" d="M 68.5,47.5 C 69.1291,52.9089 67.1291,56.9089 62.5,59.5C 56.9903,59.318 52.657,56.9847 49.5,52.5C 50.1667,52.5 50.8333,52.5 51.5,52.5C 53.7742,54.9935 56.6076,56.6602 60,57.5C 65.6161,56.1463 66.7828,53.1463 63.5,48.5C 65.0418,47.6993 66.7085,47.366 68.5,47.5 Z"/></g>
<g><path style="opacity:0.012" fill="#a95554" d="M 81.5,56.5 C 81.8333,56.5 82.1667,56.5 82.5,56.5C 82.3147,57.1701 81.9813,57.1701 81.5,56.5 Z"/></g>
<g><path style="opacity:0.702" fill="#d64d4e" d="M 83.5,50.5 C 83.5,51.1667 83.5,51.8333 83.5,52.5C 82.596,53.209 82.2627,54.209 82.5,55.5C 81.8333,55.5 81.5,55.8333 81.5,56.5C 80.1667,56.8333 80.1667,57.1667 81.5,57.5C 83.0524,60.7962 82.719,63.7962 80.5,66.5C 80.1667,61.1667 79.8333,61.1667 79.5,66.5C 79.1667,66.5 78.8333,66.5 78.5,66.5C 78.8893,63.4467 78.2227,60.78 76.5,58.5C 76.1667,57.8333 75.8333,57.1667 75.5,56.5C 76.9778,56.762 78.3112,56.4287 79.5,55.5C 79.2907,54.914 78.9574,54.414 78.5,54C 79.5089,51.8282 81.1756,50.6615 83.5,50.5 Z"/></g>
<g><path style="opacity:1" fill="#e92144" d="M 28.5,55.5 C 29.5,55.5 30.5,55.5 31.5,55.5C 31.2291,57.3797 31.8958,58.713 33.5,59.5C 32.1995,60.8816 31.3661,62.5483 31,64.5C 29.3775,65.0989 27.8775,65.7656 26.5,66.5C 25.2521,65.6661 24.5854,64.3328 24.5,62.5C 24.8333,61.1667 25.1667,59.8333 25.5,58.5C 26.8549,57.8118 27.8549,56.8118 28.5,55.5 Z"/></g>
<g><path style="opacity:0.993" fill="#d9353e" d="M 16.5,55.5 C 18.5582,56.9331 20.8915,57.5997 23.5,57.5C 23.0868,60.6675 22.7534,63.8342 22.5,67C 23.8029,70.044 26.1362,71.2107 29.5,70.5C 29.4431,71.609 29.1098,72.609 28.5,73.5C 29.3186,75.7722 29.9853,78.1055 30.5,80.5C 30.1667,80.5 29.8333,80.5 29.5,80.5C 29.5,79.8333 29.1667,79.5 28.5,79.5C 28.6716,78.5084 28.3382,77.8417 27.5,77.5C 27.7845,75.5853 27.4511,73.9187 26.5,72.5C 25.8333,71.1667 25.1667,71.1667 24.5,72.5C 22.2547,72.4588 21.5881,71.6255 22.5,70C 21.3636,68.8549 20.3636,67.6883 19.5,66.5C 19.1667,62.5 18.8333,62.5 18.5,66.5C 15.8663,63.7841 15.8663,60.9508 18.5,58C 17.6195,57.2917 16.9528,56.4584 16.5,55.5 Z"/></g>
<g><path style="opacity:1" fill="#d3102a" d="M 44.5,59.5 C 45.7255,60.937 46.7255,62.6036 47.5,64.5C 48.7481,63.9598 49.9148,63.2931 51,62.5C 53.2526,64.1885 55.0859,66.1885 56.5,68.5C 56.5,68.8333 56.5,69.1667 56.5,69.5C 56.1667,69.5 55.8333,69.5 55.5,69.5C 53.1607,67.6636 50.4941,66.3303 47.5,65.5C 44.9233,65.7474 43.2567,67.0807 42.5,69.5C 40.1824,67.8148 39.1824,65.4815 39.5,62.5C 40.6594,60.7497 42.326,59.7497 44.5,59.5 Z"/></g>
<g><path style="opacity:1" fill="#d2112a" d="M 63.5,61.5 C 66.8333,61.5 70.1667,61.5 73.5,61.5C 73.3022,66.3942 70.9689,70.0608 66.5,72.5C 65.6906,74.0709 65.3573,75.7376 65.5,77.5C 65.1667,77.5 64.8333,77.5 64.5,77.5C 60.7223,75.0364 56.7223,74.8697 52.5,77C 50.7308,80.4096 51.7308,82.5763 55.5,83.5C 57.337,83.6395 57.6704,84.3061 56.5,85.5C 54.8944,84.9234 53.2278,84.5901 51.5,84.5C 48.4175,84.8795 45.4175,85.5462 42.5,86.5C 42.1667,85.8333 41.8333,85.1667 41.5,84.5C 43.9653,84.233 46.2986,83.5664 48.5,82.5C 51.3882,79.3958 51.0549,76.7291 47.5,74.5C 51.567,74.7937 54.9003,73.4603 57.5,70.5C 58.552,70.6495 59.552,70.4828 60.5,70C 59.3981,66.4742 60.3981,63.6409 63.5,61.5 Z"/></g>
<g><path style="opacity:1" fill="#cc162a" d="M 28.5,55.5 C 27.8549,56.8118 26.8549,57.8118 25.5,58.5C 25.1667,59.8333 24.8333,61.1667 24.5,62.5C 24.5854,64.3328 25.2521,65.6661 26.5,66.5C 27.147,68.1405 28.147,69.4739 29.5,70.5C 26.1362,71.2107 23.8029,70.044 22.5,67C 22.7534,63.8342 23.0868,60.6675 23.5,57.5C 23.9953,54.6569 25.4953,52.3235 28,50.5C 29.7884,52.0231 29.9551,53.6898 28.5,55.5 Z"/></g>
<g><path style="opacity:1" fill="#b3091d" d="M 33.5,59.5 C 34.9354,58.9035 36.602,58.9035 38.5,59.5C 38.2627,60.791 38.596,61.791 39.5,62.5C 39.1824,65.4815 40.1824,67.8148 42.5,69.5C 46.9174,73.4715 51.2507,73.4715 55.5,69.5C 55.8333,69.5 56.1667,69.5 56.5,69.5C 56.5,70.1667 56.8333,70.5 57.5,70.5C 54.9003,73.4603 51.567,74.7937 47.5,74.5C 46.7095,73.5987 45.7095,72.9321 44.5,72.5C 39.8539,69.4297 35.8539,70.0964 32.5,74.5C 31.2638,73.7542 29.9305,73.4208 28.5,73.5C 29.1098,72.609 29.4431,71.609 29.5,70.5C 32.5979,71.5656 35.4312,70.8989 38,68.5C 38.6667,67.1667 38.6667,65.8333 38,64.5C 35.9782,63.1982 34.4782,61.5315 33.5,59.5 Z"/></g>
<g><path style="opacity:1" fill="#db102c" d="M 55.5,69.5 C 51.2507,73.4715 46.9174,73.4715 42.5,69.5C 43.2567,67.0807 44.9233,65.7474 47.5,65.5C 50.4941,66.3303 53.1607,67.6636 55.5,69.5 Z"/></g>
<g><path style="opacity:1" fill="#d11a35" d="M 55.5,60.5 C 56.259,62.4358 57.259,64.2691 58.5,66C 58.3613,67.301 57.6946,68.1344 56.5,68.5C 55.0859,66.1885 53.2526,64.1885 51,62.5C 49.9148,63.2931 48.7481,63.9598 47.5,64.5C 46.7255,62.6036 45.7255,60.937 44.5,59.5C 45.8705,57.8588 47.7039,56.8588 50,56.5C 52.0046,57.6821 53.8379,59.0154 55.5,60.5 Z"/></g>
<g><path style="opacity:0.99" fill="#c82136" d="M 76.5,58.5 C 78.2227,60.78 78.8893,63.4467 78.5,66.5C 78.5,67.1667 78.5,67.8333 78.5,68.5C 77.8333,68.5 77.5,68.8333 77.5,69.5C 76.1667,69.8333 76.1667,70.1667 77.5,70.5C 77.0269,71.9063 76.0269,72.573 74.5,72.5C 74.1583,71.6618 73.4916,71.3284 72.5,71.5C 69.5493,72.8094 68.2159,75.1427 68.5,78.5C 67.5,78.5 66.5,78.5 65.5,78.5C 65.5,78.1667 65.5,77.8333 65.5,77.5C 65.3573,75.7376 65.6906,74.0709 66.5,72.5C 70.9689,70.0608 73.3022,66.3942 73.5,61.5C 70.1667,61.5 66.8333,61.5 63.5,61.5C 66.2759,55.795 69.9425,55.1283 74.5,59.5C 75.1835,59.1373 75.8501,58.8039 76.5,58.5 Z"/></g>
<g><path style="opacity:0.008" fill="#fe7f7e" d="M 79.5,66.5 C 79.8333,66.5 80.1667,66.5 80.5,66.5C 80.3147,67.1701 79.9813,67.1701 79.5,66.5 Z"/></g>
<g><path style="opacity:0.004" fill="#ff4433" d="M 18.5,66.5 C 18.8333,66.5 19.1667,66.5 19.5,66.5C 19.1667,69.1667 18.8333,69.1667 18.5,66.5 Z"/></g>
<g><path style="opacity:0.008" fill="#fe0000" d="M 78.5,68.5 C 79.8333,69.1667 79.8333,69.1667 78.5,68.5 Z"/></g>
<g><path style="opacity:1" fill="#d6112b" d="M 33.5,59.5 C 34.4782,61.5315 35.9782,63.1982 38,64.5C 38.6667,65.8333 38.6667,67.1667 38,68.5C 35.4312,70.8989 32.5979,71.5656 29.5,70.5C 28.147,69.4739 27.147,68.1405 26.5,66.5C 27.8775,65.7656 29.3775,65.0989 31,64.5C 31.3661,62.5483 32.1995,60.8816 33.5,59.5 Z"/></g>
<g><path style="opacity:0.004" fill="#fe00ff" d="M 77.5,69.5 C 77.8333,69.5 78.1667,69.5 78.5,69.5C 78.3147,70.1701 77.9813,70.1701 77.5,69.5 Z"/></g>
<g><path style="opacity:0.008" fill="#beff25" d="M 72.5,72.5 C 73.1667,72.5 73.8333,72.5 74.5,72.5C 73.4523,74.9327 72.7856,74.9327 72.5,72.5 Z"/></g>
<g><path style="opacity:0.012" fill="#e33a30" d="M 24.5,72.5 C 25.1667,72.5 25.8333,72.5 26.5,72.5C 26.5,74.1667 26.5,75.8333 26.5,77.5C 25.6908,75.9724 25.0241,74.3057 24.5,72.5 Z"/></g>
<g><path style="opacity:1" fill="#da112e" d="M 44.5,72.5 C 45.7095,72.9321 46.7095,73.5987 47.5,74.5C 51.0549,76.7291 51.3882,79.3958 48.5,82.5C 48.822,80.2776 48.1554,78.4443 46.5,77C 42.5095,75.3303 38.5095,75.1637 34.5,76.5C 34.5,75.5 34.5,74.5 34.5,73.5C 38.0419,73.8128 41.3752,73.4794 44.5,72.5 Z"/></g>
<g><path style="opacity:1" fill="#d92b39" d="M 44.5,72.5 C 41.3752,73.4794 38.0419,73.8128 34.5,73.5C 34.5,74.5 34.5,75.5 34.5,76.5C 35.3439,79.678 37.0105,82.3446 39.5,84.5C 40.1667,84.5 40.8333,84.5 41.5,84.5C 41.8333,85.1667 42.1667,85.8333 42.5,86.5C 42.8333,87.8333 43.1667,89.1667 43.5,90.5C 43.5,90.8333 43.5,91.1667 43.5,91.5C 41.0272,91.3957 40.3606,90.3957 41.5,88.5C 40.9646,86.7295 40.1313,86.3961 39,87.5C 37.2663,86.7511 35.433,86.2511 33.5,86C 32.6195,85.2917 31.9528,84.4584 31.5,83.5C 32.8333,83.1667 32.8333,82.8333 31.5,82.5C 31.5,81.8333 31.1667,81.5 30.5,81.5C 30.5,81.1667 30.5,80.8333 30.5,80.5C 29.9853,78.1055 29.3186,75.7722 28.5,73.5C 29.9305,73.4208 31.2638,73.7542 32.5,74.5C 35.8539,70.0964 39.8539,69.4297 44.5,72.5 Z"/></g>
<g><path style="opacity:1" fill="#e21232" d="M 64.5,77.5 C 64.1412,79.371 63.1412,80.871 61.5,82C 59.2922,82.1909 57.2922,82.6909 55.5,83.5C 51.7308,82.5763 50.7308,80.4096 52.5,77C 56.7223,74.8697 60.7223,75.0364 64.5,77.5 Z"/></g>
<g><path style="opacity:1" fill="#e61536" d="M 48.5,82.5 C 46.2986,83.5664 43.9653,84.233 41.5,84.5C 40.8333,84.5 40.1667,84.5 39.5,84.5C 37.0105,82.3446 35.3439,79.678 34.5,76.5C 38.5095,75.1637 42.5095,75.3303 46.5,77C 48.1554,78.4443 48.822,80.2776 48.5,82.5 Z"/></g>
<g><path style="opacity:0.012" fill="#ff4455" d="M 26.5,77.5 C 26.8333,77.5 27.1667,77.5 27.5,77.5C 27.5,78.1667 27.5,78.8333 27.5,79.5C 26.6618,79.1583 26.3284,78.4916 26.5,77.5 Z"/></g>
<g><path style="opacity:0.976" fill="#d54342" d="M 72.5,71.5 C 72.5,71.8333 72.5,72.1667 72.5,72.5C 72.1667,74.5 71.8333,76.5 71.5,78.5C 71.1667,75.8333 70.8333,75.8333 70.5,78.5C 69.6618,78.8417 69.3284,79.5084 69.5,80.5C 68.8333,80.5 68.5,80.8333 68.5,81.5C 67.1667,81.8333 67.1667,82.1667 68.5,82.5C 66.2414,85.4095 63.2414,87.0761 59.5,87.5C 59.5,86.8333 59.1667,86.5 58.5,86.5C 58.5,85.5 58.5,84.5 58.5,83.5C 61.394,83.4436 64.0607,82.6103 66.5,81C 65.7476,80.3292 65.4142,79.4959 65.5,78.5C 66.5,78.5 67.5,78.5 68.5,78.5C 68.2159,75.1427 69.5493,72.8094 72.5,71.5 Z"/></g>
<g><path style="opacity:0.008" fill="#a70003" d="M 70.5,78.5 C 70.8333,78.5 71.1667,78.5 71.5,78.5C 71.6716,79.4916 71.3382,80.1583 70.5,80.5C 70.5,79.8333 70.5,79.1667 70.5,78.5 Z"/></g>
<g><path style="opacity:0.004" fill="#861811" d="M 27.5,79.5 C 27.8333,79.5 28.1667,79.5 28.5,79.5C 29.1667,79.5 29.5,79.8333 29.5,80.5C 29.5,81.1667 29.8333,81.5 30.5,81.5C 31.1667,81.5 31.5,81.8333 31.5,82.5C 31.5,82.8333 31.5,83.1667 31.5,83.5C 29.1667,83.1667 27.8333,81.8333 27.5,79.5 Z"/></g>
<g><path style="opacity:0.008" fill="#7e0000" d="M 69.5,80.5 C 69.8333,80.5 70.1667,80.5 70.5,80.5C 70.3147,81.1701 69.9813,81.1701 69.5,80.5 Z"/></g>
<g><path style="opacity:0.012" fill="#fe5554" d="M 68.5,81.5 C 68.8333,81.5 69.1667,81.5 69.5,81.5C 69.3147,82.1701 68.9813,82.1701 68.5,81.5 Z"/></g>
<g><path style="opacity:0.994" fill="#e32e40" d="M 64.5,77.5 C 64.8333,77.5 65.1667,77.5 65.5,77.5C 65.5,77.8333 65.5,78.1667 65.5,78.5C 65.4142,79.4959 65.7476,80.3292 66.5,81C 64.0607,82.6103 61.394,83.4436 58.5,83.5C 58.5,84.5 58.5,85.5 58.5,86.5C 58.5,86.8333 58.5,87.1667 58.5,87.5C 57.8333,87.5 57.5,87.8333 57.5,88.5C 56.8333,88.5 56.5,88.8333 56.5,89.5C 55.8333,89.5 55.5,89.8333 55.5,90.5C 54.1667,90.8333 54.1667,91.1667 55.5,91.5C 54.713,93.1042 53.3797,93.7709 51.5,93.5C 50.1667,92.1667 48.8333,92.1667 47.5,93.5C 45.6203,93.7709 44.287,93.1042 43.5,91.5C 44.8333,91.1667 44.8333,90.8333 43.5,90.5C 43.1667,89.1667 42.8333,87.8333 42.5,86.5C 45.4175,85.5462 48.4175,84.8795 51.5,84.5C 53.2278,84.5901 54.8944,84.9234 56.5,85.5C 57.6704,84.3061 57.337,83.6395 55.5,83.5C 57.2922,82.6909 59.2922,82.1909 61.5,82C 63.1412,80.871 64.1412,79.371 64.5,77.5 Z"/></g>
<g><path style="opacity:0.012" fill="#fe5554" d="M 58.5,87.5 C 58.8333,87.5 59.1667,87.5 59.5,87.5C 59.3147,88.1701 58.9813,88.1701 58.5,87.5 Z"/></g>
<g><path style="opacity:0.004" fill="#dd001d" d="M 57.5,88.5 C 57.8333,88.5 58.1667,88.5 58.5,88.5C 58.5,89.8333 57.8333,90.5 56.5,90.5C 56.5,90.1667 56.5,89.8333 56.5,89.5C 57.1667,89.5 57.5,89.1667 57.5,88.5 Z"/></g>
<g><path style="opacity:0.012" fill="#fe5554" d="M 55.5,90.5 C 55.8333,90.5 56.1667,90.5 56.5,90.5C 56.3147,91.1701 55.9813,91.1701 55.5,90.5 Z"/></g>
<g><path style="opacity:0.008" fill="#b00003" d="M 47.5,93.5 C 48.8333,93.5 50.1667,93.5 51.5,93.5C 50.1667,94.8333 48.8333,94.8333 47.5,93.5 Z"/></g>
</svg>
