<?xml version="1.0" encoding="UTF-8"?>
<!DOCTYPE svg PUBLIC "-//W3C//DTD SVG 1.1//EN" "http://www.w3.org/Graphics/SVG/1.1/DTD/svg11.dtd">
<svg xmlns="http://www.w3.org/2000/svg" version="1.1" width="100px" height="100px" style="shape-rendering:geometricPrecision; text-rendering:geometricPrecision; image-rendering:optimizeQuality; fill-rule:evenodd; clip-rule:evenodd" xmlns:xlink="http://www.w3.org/1999/xlink">
<g><path style="opacity:0.471" fill="#d27c8c" d="M 86.5,13.5 C 86.44,14.0431 86.1067,14.3764 85.5,14.5C 82.774,11.471 79.4406,9.47102 75.5,8.5C 73.5,8.5 71.5,8.5 69.5,8.5C 66.2655,10.1383 63.2655,12.305 60.5,15C 57.0847,15.4057 54.418,17.0723 52.5,20C 51.552,20.4828 50.552,20.6495 49.5,20.5C 49.5,19.8333 49.1667,19.5 48.5,19.5C 49.9558,16.4645 52.1225,15.1312 55,15.5C 57.6309,13.635 59.1309,11.4684 59.5,9C 67.8506,3.07945 76.1839,3.07945 84.5,9C 84.1667,9.33333 83.8333,9.66667 83.5,10C 84.7101,11.0391 85.7101,12.2058 86.5,13.5 Z"/></g>
<g><path style="opacity:1" fill="#d96072" d="M 75.5,8.5 C 79.4406,9.47102 82.774,11.471 85.5,14.5C 86.1067,14.3764 86.44,14.0431 86.5,13.5C 87.5,13.8333 88.1667,14.5 88.5,15.5C 82.159,20.2099 75.8257,25.2099 69.5,30.5C 69.1667,30.3333 68.8333,30.1667 68.5,30C 70.819,27.1798 72.4857,24.0132 73.5,20.5C 74.1175,18.7708 75.1175,17.2708 76.5,16C 76.2716,15.6012 75.9382,15.4346 75.5,15.5C 77.9222,13.0596 77.9222,10.7263 75.5,8.5 Z"/></g>
<g><path style="opacity:1" fill="#e34266" d="M 67.5,11.5 C 69.3769,12.6591 69.8769,14.3258 69,16.5C 60.6835,29.4827 51.1835,41.4827 40.5,52.5C 38.847,52.3404 37.5137,51.6737 36.5,50.5C 38.2984,42.2549 42.2984,34.9216 48.5,28.5C 53.914,21.7497 60.2473,16.0831 67.5,11.5 Z"/></g>
<g><path style="opacity:0.984" fill="#e47a93" d="M 47.5,21.5 C 48.5735,22.2506 48.7401,23.2506 48,24.5C 39.6418,33.2482 30.8085,41.4148 21.5,49C 24.4816,49.498 27.4816,49.6646 30.5,49.5C 32.5648,49.5172 34.5648,49.8505 36.5,50.5C 37.5137,51.6737 38.847,52.3404 40.5,52.5C 40.5,52.8333 40.5,53.1667 40.5,53.5C 40.5654,53.9382 40.3988,54.2716 40,54.5C 33.1185,49.8835 25.9518,49.3835 18.5,53C 20.6797,53.4188 22.8463,53.2521 25,52.5C 27.1114,52.7006 28.9448,53.3673 30.5,54.5C 29.1667,54.5 27.8333,54.5 26.5,54.5C 25.7494,53.4265 24.7494,53.2599 23.5,54C 22.9152,55.3024 22.2485,56.469 21.5,57.5C 21.5,56.5 21.5,55.5 21.5,54.5C 20.1667,54.5 18.8333,54.5 17.5,54.5C 16.791,53.596 15.791,53.2627 14.5,53.5C 16.2941,51.2034 18.2941,49.0367 20.5,47C 20.1667,46.6667 19.8333,46.3333 19.5,46C 21.1667,44.3333 22.8333,42.6667 24.5,41C 26.366,42.0084 27.6993,41.5084 28.5,39.5C 29.1667,39.5 29.5,39.1667 29.5,38.5C 33.8645,35.1392 37.1978,31.3058 39.5,27C 42.9152,26.8286 45.5819,24.9952 47.5,21.5 Z"/></g>
<g><path style="opacity:1" fill="#d8586a" d="M 88.5,15.5 C 89.6737,16.5137 90.3404,17.847 90.5,19.5C 85.7057,19.264 82.3724,21.5973 80.5,26.5C 74.7514,29.7468 69.7514,33.9135 65.5,39C 62.5291,39.4709 59.8624,40.6375 57.5,42.5C 57.1667,42.3333 56.8333,42.1667 56.5,42C 61.6497,34.3588 67.3164,27.1921 73.5,20.5C 72.4857,24.0132 70.819,27.1798 68.5,30C 68.8333,30.1667 69.1667,30.3333 69.5,30.5C 75.8257,25.2099 82.159,20.2099 88.5,15.5 Z"/></g>
<g><path style="opacity:1" fill="#ae121b" d="M 92.5,34.5 C 92.5,34.1667 92.5,33.8333 92.5,33.5C 92.6716,32.5084 92.3382,31.8417 91.5,31.5C 88.3787,32.7358 87.0454,35.0692 87.5,38.5C 86.448,38.3505 85.448,38.5172 84.5,39C 79.5691,45.0917 73.9024,50.2584 67.5,54.5C 65.1833,57.3174 62.6833,59.9841 60,62.5C 58.6591,65.022 57.8257,67.6887 57.5,70.5C 54.7147,70.933 52.3813,72.2663 50.5,74.5C 49.8933,74.3764 49.56,74.0431 49.5,73.5C 49.5,70.8333 49.5,68.1667 49.5,65.5C 62.6803,53.818 74.6803,40.9847 85.5,27C 87.1667,26.1667 88.8333,25.3333 90.5,24.5C 91.1818,25.2427 91.8485,25.9094 92.5,26.5C 92.3433,27.8734 92.51,29.2068 93,30.5C 93.3333,27.8333 93.6667,25.1667 94,22.5C 94.9124,26.8064 94.4124,30.8064 92.5,34.5 Z"/></g>
<g><path style="opacity:1" fill="#df4c69" d="M 69.5,8.5 C 71.5,8.5 73.5,8.5 75.5,8.5C 77.9222,10.7263 77.9222,13.0596 75.5,15.5C 64.2105,27.6886 53.5438,40.5219 43.5,54C 44.2524,54.6708 44.5858,55.5041 44.5,56.5C 43.1667,55.5 41.8333,54.5 40.5,53.5C 40.5,53.1667 40.5,52.8333 40.5,52.5C 51.1835,41.4827 60.6835,29.4827 69,16.5C 69.8769,14.3258 69.3769,12.6591 67.5,11.5C 68.5511,10.7777 69.2178,9.77765 69.5,8.5 Z"/></g>
<g><path style="opacity:0.008" fill="#7e0000" d="M 90.5,36.5 C 90.8333,36.5 91.1667,36.5 91.5,36.5C 91.3147,37.1701 90.9813,37.1701 90.5,36.5 Z"/></g>
<g><path style="opacity:0.006" fill="#fe0000" d="M 89.5,37.5 C 89.8333,37.5 90.1667,37.5 90.5,37.5C 90.6716,38.4916 90.3382,39.1583 89.5,39.5C 89.5,38.8333 89.5,38.1667 89.5,37.5 Z"/></g>
<g><path style="opacity:0.024" fill="#ba5568" d="M 29.5,38.5 C 28.8333,38.5 28.5,38.8333 28.5,39.5C 27.9569,39.44 27.6236,39.1067 27.5,38.5C 28.2565,37.2267 28.9232,37.2267 29.5,38.5 Z"/></g>
<g><path style="opacity:1" fill="#e7496f" d="M 48.5,28.5 C 42.2984,34.9216 38.2984,42.2549 36.5,50.5C 34.5648,49.8505 32.5648,49.5172 30.5,49.5C 28.7078,48.6909 26.7078,48.1909 24.5,48C 31.1667,42 37.8333,36 44.5,30C 45.9007,29.5899 47.234,29.0899 48.5,28.5 Z"/></g>
<g><path style="opacity:0.008" fill="#7e0000" d="M 88.5,39.5 C 88.8333,39.5 89.1667,39.5 89.5,39.5C 89.3147,40.1701 88.9813,40.1701 88.5,39.5 Z"/></g>
<g><path style="opacity:0.008" fill="#7e0000" d="M 87.5,40.5 C 87.8333,40.5 88.1667,40.5 88.5,40.5C 88.3147,41.1701 87.9813,41.1701 87.5,40.5 Z"/></g>
<g><path style="opacity:1" fill="#e3607f" d="M 69.5,8.5 C 69.2178,9.77765 68.5511,10.7777 67.5,11.5C 60.2473,16.0831 53.914,21.7497 48.5,28.5C 47.234,29.0899 45.9007,29.5899 44.5,30C 37.8333,36 31.1667,42 24.5,48C 26.7078,48.1909 28.7078,48.6909 30.5,49.5C 27.4816,49.6646 24.4816,49.498 21.5,49C 30.8085,41.4148 39.6418,33.2482 48,24.5C 48.7401,23.2506 48.5735,22.2506 47.5,21.5C 46.5613,20.6726 46.8946,20.0059 48.5,19.5C 49.1667,19.5 49.5,19.8333 49.5,20.5C 50.552,20.6495 51.552,20.4828 52.5,20C 54.418,17.0723 57.0847,15.4057 60.5,15C 63.2655,12.305 66.2655,10.1383 69.5,8.5 Z"/></g>
<g><path style="opacity:0.016" fill="#7e0000" d="M 86.5,41.5 C 86.8333,41.5 87.1667,41.5 87.5,41.5C 87.3147,42.1701 86.9813,42.1701 86.5,41.5 Z"/></g>
<g><path style="opacity:0.02" fill="#980000" d="M 85.5,42.5 C 85.8333,42.5 86.1667,42.5 86.5,42.5C 86.3147,43.1701 85.9813,43.1701 85.5,42.5 Z"/></g>
<g><path style="opacity:1" fill="#d74b5e" d="M 75.5,15.5 C 75.9382,15.4346 76.2716,15.6012 76.5,16C 75.1175,17.2708 74.1175,18.7708 73.5,20.5C 67.3164,27.1921 61.6497,34.3588 56.5,42C 56.8333,42.1667 57.1667,42.3333 57.5,42.5C 59.8624,40.6375 62.5291,39.4709 65.5,39C 69.7514,33.9135 74.7514,29.7468 80.5,26.5C 82.3724,21.5973 85.7057,19.264 90.5,19.5C 91.3382,19.8417 91.6716,20.5084 91.5,21.5C 87.4706,22.1865 84.4706,24.3532 82.5,28C 76.7095,32.1218 71.2095,36.6218 66,41.5C 65,43.8333 64,46.1667 63,48.5C 57.6371,52.6976 52.8038,57.3643 48.5,62.5C 47.7281,61.3065 46.7281,60.3065 45.5,59.5C 45.4431,58.391 45.1098,57.391 44.5,56.5C 44.5858,55.5041 44.2524,54.6708 43.5,54C 53.5438,40.5219 64.2105,27.6886 75.5,15.5 Z"/></g>
<g><path style="opacity:0.02" fill="#980000" d="M 84.5,43.5 C 84.8333,43.5 85.1667,43.5 85.5,43.5C 85.3147,44.1701 84.9813,44.1701 84.5,43.5 Z"/></g>
<g><path style="opacity:1" fill="#c32433" d="M 91.5,21.5 C 92.3007,23.0418 92.634,24.7085 92.5,26.5C 91.8485,25.9094 91.1818,25.2427 90.5,24.5C 88.8333,25.3333 87.1667,26.1667 85.5,27C 74.6803,40.9847 62.6803,53.818 49.5,65.5C 48.596,64.791 48.2627,63.791 48.5,62.5C 52.8038,57.3643 57.6371,52.6976 63,48.5C 64,46.1667 65,43.8333 66,41.5C 71.2095,36.6218 76.7095,32.1218 82.5,28C 84.4706,24.3532 87.4706,22.1865 91.5,21.5 Z"/></g>
<g><path style="opacity:0.012" fill="#a90000" d="M 78.5,50.5 C 78.8333,50.5 79.1667,50.5 79.5,50.5C 79.3147,51.1701 78.9813,51.1701 78.5,50.5 Z"/></g>
<g><path style="opacity:0.012" fill="#540000" d="M 77.5,51.5 C 77.8333,51.5 78.1667,51.5 78.5,51.5C 78.3147,52.1701 77.9813,52.1701 77.5,51.5 Z"/></g>
<g><path style="opacity:0.016" fill="#7e0000" d="M 76.5,52.5 C 76.8333,52.5 77.1667,52.5 77.5,52.5C 77.3147,53.1701 76.9813,53.1701 76.5,52.5 Z"/></g>
<g><path style="opacity:0.016" fill="#be0000" d="M 75.5,53.5 C 75.8333,53.5 76.1667,53.5 76.5,53.5C 76.3147,54.1701 75.9813,54.1701 75.5,53.5 Z"/></g>
<g><path style="opacity:1" fill="#9b1d1e" d="M 91.5,31.5 C 91.3284,32.4916 91.6618,33.1583 92.5,33.5C 92.5,33.8333 92.5,34.1667 92.5,34.5C 92.6716,35.4916 92.3382,36.1583 91.5,36.5C 91.1667,33.8333 90.8333,33.8333 90.5,36.5C 89.8333,36.5 89.5,36.8333 89.5,37.5C 88.6618,37.8417 88.3284,38.5084 88.5,39.5C 87.8333,39.5 87.5,39.8333 87.5,40.5C 86.8333,40.5 86.5,40.8333 86.5,41.5C 85.8333,41.5 85.5,41.8333 85.5,42.5C 84.8333,42.5 84.5,42.8333 84.5,43.5C 83.1667,43.8333 83.1667,44.1667 84.5,44.5C 83.5806,47.0892 81.914,49.0892 79.5,50.5C 79.1667,49.1667 78.8333,49.1667 78.5,50.5C 77.8333,50.5 77.5,50.8333 77.5,51.5C 76.8333,51.5 76.5,51.8333 76.5,52.5C 75.8333,52.5 75.5,52.8333 75.5,53.5C 74.8333,53.5 74.5,53.8333 74.5,54.5C 73.8333,54.5 73.5,54.8333 73.5,55.5C 72.8333,55.5 72.5,55.8333 72.5,56.5C 71.8333,56.5 71.5,56.8333 71.5,57.5C 70.8333,57.5 70.5,57.8333 70.5,58.5C 69.8333,58.5 69.5,58.8333 69.5,59.5C 68.8333,59.5 68.5,59.8333 68.5,60.5C 67.8333,60.5 67.5,60.8333 67.5,61.5C 66.8333,61.5 66.5,61.8333 66.5,62.5C 65.8333,62.5 65.5,62.8333 65.5,63.5C 64.6618,63.8417 64.3284,64.5084 64.5,65.5C 63.1667,65.8333 63.1667,66.1667 64.5,66.5C 64.1667,67.5 63.5,68.1667 62.5,68.5C 62.1667,67.1667 61.8333,67.1667 61.5,68.5C 60.8333,68.5 60.5,68.8333 60.5,69.5C 59.8333,69.5 59.5,69.8333 59.5,70.5C 58.8333,70.5 58.5,70.8333 58.5,71.5C 57.8333,71.5 57.5,71.8333 57.5,72.5C 56.8333,72.5 56.5,72.8333 56.5,73.5C 55.8333,73.5 55.5,73.8333 55.5,74.5C 54.8333,74.5 54.5,74.8333 54.5,75.5C 53.8333,75.5 53.5,75.8333 53.5,76.5C 52.8333,76.5 52.5,76.8333 52.5,77.5C 51.8333,77.5 51.5,77.8333 51.5,78.5C 50.8333,78.5 50.5,78.8333 50.5,79.5C 49.8333,79.5 49.5,79.8333 49.5,80.5C 48.8333,80.5 48.5,80.8333 48.5,81.5C 47.8333,81.5 47.5,81.8333 47.5,82.5C 47.1667,82.5 46.8333,82.5 46.5,82.5C 46.5,82.1667 46.5,81.8333 46.5,81.5C 47.5115,78.7479 48.5115,76.0812 49.5,73.5C 49.56,74.0431 49.8933,74.3764 50.5,74.5C 52.3813,72.2663 54.7147,70.933 57.5,70.5C 57.8257,67.6887 58.6591,65.022 60,62.5C 62.6833,59.9841 65.1833,57.3174 67.5,54.5C 73.9024,50.2584 79.5691,45.0917 84.5,39C 85.448,38.5172 86.448,38.3505 87.5,38.5C 87.0454,35.0692 88.3787,32.7358 91.5,31.5 Z"/></g>
<g><path style="opacity:0.02" fill="#983300" d="M 74.5,54.5 C 74.8333,54.5 75.1667,54.5 75.5,54.5C 75.3147,55.1701 74.9813,55.1701 74.5,54.5 Z"/></g>
<g><path style="opacity:1" fill="#e3dbde" d="M 26.5,54.5 C 27.8333,54.5 29.1667,54.5 30.5,54.5C 32.3769,55.6591 32.8769,57.3258 32,59.5C 30.6439,60.3802 29.1439,60.7135 27.5,60.5C 25.4686,58.7508 25.1353,56.7508 26.5,54.5 Z"/></g>
<g><path style="opacity:0.02" fill="#650000" d="M 73.5,55.5 C 73.8333,55.5 74.1667,55.5 74.5,55.5C 74.3147,56.1701 73.9813,56.1701 73.5,55.5 Z"/></g>
<g><path style="opacity:0.016" fill="#7e0000" d="M 72.5,56.5 C 72.8333,56.5 73.1667,56.5 73.5,56.5C 73.3147,57.1701 72.9813,57.1701 72.5,56.5 Z"/></g>
<g><path style="opacity:0.012" fill="#540000" d="M 71.5,57.5 C 71.8333,57.5 72.1667,57.5 72.5,57.5C 72.3147,58.1701 71.9813,58.1701 71.5,57.5 Z"/></g>
<g><path style="opacity:1" fill="#e56e8e" d="M 14.5,53.5 C 15.791,53.2627 16.791,53.596 17.5,54.5C 17.3369,58.0348 18.6702,59.0348 21.5,57.5C 22.2485,56.469 22.9152,55.3024 23.5,54C 24.7494,53.2599 25.7494,53.4265 26.5,54.5C 25.1353,56.7508 25.4686,58.7508 27.5,60.5C 25.8906,61.6654 25.5573,62.9988 26.5,64.5C 25.0047,64.4148 24.0047,65.0815 23.5,66.5C 24.3202,68.1112 25.6536,68.7778 27.5,68.5C 25.7354,69.4614 23.7354,69.7947 21.5,69.5C 21.6602,67.8008 21.4935,66.1341 21,64.5C 20.79,66.0581 20.29,67.3915 19.5,68.5C 19.336,62.5123 16.836,61.179 12,64.5C 11.51,65.7932 11.3433,67.1266 11.5,68.5C 11.0826,65.8411 10.0826,63.5078 8.5,61.5C 9.35912,59.8941 9.52579,58.2275 9,56.5C 10.9935,56.4622 12.8268,55.4622 14.5,53.5 Z"/></g>
<g><path style="opacity:1" fill="#e4e0e3" d="M 17.5,54.5 C 18.8333,54.5 20.1667,54.5 21.5,54.5C 21.5,55.5 21.5,56.5 21.5,57.5C 18.6702,59.0348 17.3369,58.0348 17.5,54.5 Z"/></g>
<g><path style="opacity:1" fill="#e46c8b" d="M 40.5,53.5 C 41.8333,54.5 43.1667,55.5 44.5,56.5C 45.1098,57.391 45.4431,58.391 45.5,59.5C 43.1223,58.763 40.6223,57.763 38,56.5C 36.1489,58.0399 34.9822,59.5399 34.5,61C 35.4158,61.2784 36.0825,61.7784 36.5,62.5C 32.9286,62.4077 31.7619,64.0743 33,67.5C 34.8278,68.7525 36.6612,68.7525 38.5,67.5C 38.6495,68.552 38.4828,69.552 38,70.5C 35.1106,70.1197 32.2773,69.7863 29.5,69.5C 29.8545,67.2326 29.5211,65.8993 28.5,65.5C 27.8333,65.1667 27.1667,64.8333 26.5,64.5C 25.5573,62.9988 25.8906,61.6654 27.5,60.5C 29.1439,60.7135 30.6439,60.3802 32,59.5C 32.8769,57.3258 32.3769,55.6591 30.5,54.5C 28.9448,53.3673 27.1114,52.7006 25,52.5C 22.8463,53.2521 20.6797,53.4188 18.5,53C 25.9518,49.3835 33.1185,49.8835 40,54.5C 40.3988,54.2716 40.5654,53.9382 40.5,53.5 Z"/></g>
<g><path style="opacity:0.005" fill="#a11107" d="M 70.5,58.5 C 70.8333,58.5 71.1667,58.5 71.5,58.5C 70.2427,61.4274 68.2427,63.7607 65.5,65.5C 65.5,64.8333 65.5,64.1667 65.5,63.5C 66.1667,63.5 66.5,63.1667 66.5,62.5C 67.1667,62.5 67.5,62.1667 67.5,61.5C 68.1667,61.5 68.5,61.1667 68.5,60.5C 69.1667,60.5 69.5,60.1667 69.5,59.5C 70.1667,59.5 70.5,59.1667 70.5,58.5 Z"/></g>
<g><path style="opacity:1" fill="#e0dfe1" d="M 19.5,68.5 C 18.0101,70.2798 16.0101,70.9465 13.5,70.5C 12.5,70.1667 11.8333,69.5 11.5,68.5C 11.3433,67.1266 11.51,65.7932 12,64.5C 16.836,61.179 19.336,62.5123 19.5,68.5 Z"/></g>
<g><path style="opacity:1" fill="#e0e0e2" d="M 36.5,62.5 C 38.2132,63.6354 38.8799,65.302 38.5,67.5C 36.6612,68.7525 34.8278,68.7525 33,67.5C 31.7619,64.0743 32.9286,62.4077 36.5,62.5 Z"/></g>
<g><path style="opacity:0.008" fill="#7e0000" d="M 64.5,65.5 C 64.8333,65.5 65.1667,65.5 65.5,65.5C 65.3147,66.1701 64.9813,66.1701 64.5,65.5 Z"/></g>
<g><path style="opacity:1" fill="#e16584" d="M 45.5,59.5 C 46.7281,60.3065 47.7281,61.3065 48.5,62.5C 48.2627,63.791 48.596,64.791 49.5,65.5C 49.5,68.1667 49.5,70.8333 49.5,73.5C 48.5115,76.0812 47.5115,78.7479 46.5,81.5C 45.1667,81.5 43.8333,81.5 42.5,81.5C 43.1285,75.7527 40.7952,74.086 35.5,76.5C 35.2172,75.7109 34.7172,75.0442 34,74.5C 33.7645,76.1193 32.9311,77.1193 31.5,77.5C 32.2341,76.2921 32.5674,74.9587 32.5,73.5C 31.1667,73.5 29.8333,73.5 28.5,73.5C 28.5,74.5 28.5,75.5 28.5,76.5C 27.7784,76.0825 27.2784,75.4158 27,74.5C 24.1061,74.6807 21.6061,76.014 19.5,78.5C 19.5,77.5 19.5,76.5 19.5,75.5C 18.5,75.5 17.5,75.5 16.5,75.5C 16.9175,74.7784 17.5842,74.2784 18.5,74C 16.6992,73.6827 16.3659,73.016 17.5,72C 15.9419,71.79 14.6085,71.29 13.5,70.5C 16.0101,70.9465 18.0101,70.2798 19.5,68.5C 20.29,67.3915 20.79,66.0581 21,64.5C 21.4935,66.1341 21.6602,67.8008 21.5,69.5C 23.7354,69.7947 25.7354,69.4614 27.5,68.5C 28.1098,67.609 28.4431,66.609 28.5,65.5C 29.5211,65.8993 29.8545,67.2326 29.5,69.5C 32.2773,69.7863 35.1106,70.1197 38,70.5C 38.4828,69.552 38.6495,68.552 38.5,67.5C 38.8799,65.302 38.2132,63.6354 36.5,62.5C 36.0825,61.7784 35.4158,61.2784 34.5,61C 34.9822,59.5399 36.1489,58.0399 38,56.5C 40.6223,57.763 43.1223,58.763 45.5,59.5 Z"/></g>
<g><path style="opacity:1" fill="#e0dcdf" d="M 26.5,64.5 C 27.1667,64.8333 27.8333,65.1667 28.5,65.5C 28.4431,66.609 28.1098,67.609 27.5,68.5C 25.6536,68.7778 24.3202,68.1112 23.5,66.5C 24.0047,65.0815 25.0047,64.4148 26.5,64.5 Z"/></g>
<g><path style="opacity:0.012" fill="#a90000" d="M 61.5,68.5 C 61.8333,68.5 62.1667,68.5 62.5,68.5C 62.3147,69.1701 61.9813,69.1701 61.5,68.5 Z"/></g>
<g><path style="opacity:0.016" fill="#7e0000" d="M 60.5,69.5 C 60.8333,69.5 61.1667,69.5 61.5,69.5C 61.3147,70.1701 60.9813,70.1701 60.5,69.5 Z"/></g>
<g><path style="opacity:0.016" fill="#7e0000" d="M 59.5,70.5 C 59.8333,70.5 60.1667,70.5 60.5,70.5C 60.3147,71.1701 59.9813,71.1701 59.5,70.5 Z"/></g>
<g><path style="opacity:1" fill="#e0d2d7" d="M 41.5,68.5 C 45.1612,68.3501 46.1612,69.8501 44.5,73C 40.7071,73.4866 39.7071,71.9866 41.5,68.5 Z"/></g>
<g><path style="opacity:0.012" fill="#540000" d="M 58.5,71.5 C 58.8333,71.5 59.1667,71.5 59.5,71.5C 59.3147,72.1701 58.9813,72.1701 58.5,71.5 Z"/></g>
<g><path style="opacity:0.012" fill="#540000" d="M 57.5,72.5 C 57.8333,72.5 58.1667,72.5 58.5,72.5C 58.3147,73.1701 57.9813,73.1701 57.5,72.5 Z"/></g>
<g><path style="opacity:1" fill="#dedbde" d="M 31.5,77.5 C 30.209,77.7373 29.209,77.404 28.5,76.5C 28.5,75.5 28.5,74.5 28.5,73.5C 29.8333,73.5 31.1667,73.5 32.5,73.5C 32.5674,74.9587 32.2341,76.2921 31.5,77.5 Z"/></g>
<g><path style="opacity:0.02" fill="#983332" d="M 56.5,73.5 C 56.8333,73.5 57.1667,73.5 57.5,73.5C 57.3147,74.1701 56.9813,74.1701 56.5,73.5 Z"/></g>
<g><path style="opacity:0.02" fill="#650000" d="M 55.5,74.5 C 55.8333,74.5 56.1667,74.5 56.5,74.5C 56.3147,75.1701 55.9813,75.1701 55.5,74.5 Z"/></g>
<g><path style="opacity:1" fill="#df5e7d" d="M 8.5,61.5 C 10.0826,63.5078 11.0826,65.8411 11.5,68.5C 11.8333,69.5 12.5,70.1667 13.5,70.5C 14.6085,71.29 15.9419,71.79 17.5,72C 16.3659,73.016 16.6992,73.6827 18.5,74C 17.5842,74.2784 16.9175,74.7784 16.5,75.5C 15.4265,76.2506 15.2599,77.2506 16,78.5C 17.2917,79.7911 18.4583,79.7911 19.5,78.5C 21.6061,76.014 24.1061,74.6807 27,74.5C 27.2784,75.4158 27.7784,76.0825 28.5,76.5C 29.209,77.404 30.209,77.7373 31.5,77.5C 32.9311,77.1193 33.7645,76.1193 34,74.5C 34.7172,75.0442 35.2172,75.7109 35.5,76.5C 34.0623,79.0835 34.3956,81.4168 36.5,83.5C 35.1196,84.7065 33.9529,84.3731 33,82.5C 31.4152,83.3757 30.4152,84.7091 30,86.5C 29.9174,84.4936 29.4174,83.4936 28.5,83.5C 23.7852,80.4012 21.7852,81.5678 22.5,87C 24.1341,87.4935 25.8008,87.6602 27.5,87.5C 29.8234,88.0584 32.1568,88.7251 34.5,89.5C 30.2172,90.4922 25.8839,90.8256 21.5,90.5C 20.5084,90.3284 19.8417,90.6618 19.5,91.5C 17.0634,91.114 15.0634,89.9473 13.5,88C 13.8333,87.6667 14.1667,87.3333 14.5,87C 13.3333,85.8333 12.1667,84.6667 11,83.5C 9.37453,84.4119 8.5412,83.7453 8.5,81.5C 9.83333,80.8333 9.83333,80.1667 8.5,79.5C 8.67158,78.5084 8.33825,77.8417 7.5,77.5C 7.16667,73.5 6.83333,73.5 6.5,77.5C 4.58761,73.8064 4.08761,69.8064 5,65.5C 5.33333,68.1667 5.66667,70.8333 6,73.5C 6.18562,69.3194 7.01896,65.3194 8.5,61.5 Z"/></g>
<g><path style="opacity:0.012" fill="#540000" d="M 54.5,75.5 C 54.8333,75.5 55.1667,75.5 55.5,75.5C 55.3147,76.1701 54.9813,76.1701 54.5,75.5 Z"/></g>
<g><path style="opacity:1" fill="#dddbdd" d="M 42.5,81.5 C 41.0101,83.2798 39.0101,83.9465 36.5,83.5C 34.3956,81.4168 34.0623,79.0835 35.5,76.5C 40.7952,74.086 43.1285,75.7527 42.5,81.5 Z"/></g>
<g><path style="opacity:0.016" fill="#7e0000" d="M 53.5,76.5 C 53.8333,76.5 54.1667,76.5 54.5,76.5C 54.3147,77.1701 53.9813,77.1701 53.5,76.5 Z"/></g>
<g><path style="opacity:1" fill="#ded8dc" d="M 16.5,75.5 C 17.5,75.5 18.5,75.5 19.5,75.5C 19.5,76.5 19.5,77.5 19.5,78.5C 18.4583,79.7911 17.2917,79.7911 16,78.5C 15.2599,77.2506 15.4265,76.2506 16.5,75.5 Z"/></g>
<g><path style="opacity:0.012" fill="#ff5a5a" d="M 6.5,77.5 C 6.83333,77.5 7.16667,77.5 7.5,77.5C 7.5,78.1667 7.5,78.8333 7.5,79.5C 6.66175,79.1583 6.32842,78.4916 6.5,77.5 Z"/></g>
<g><path style="opacity:0.005" fill="#300e04" d="M 52.5,77.5 C 52.8333,77.5 53.1667,77.5 53.5,77.5C 52.9202,79.7488 51.5869,81.4154 49.5,82.5C 49.1667,82.5 48.8333,82.5 48.5,82.5C 48.5,82.1667 48.5,81.8333 48.5,81.5C 49.1667,81.5 49.5,81.1667 49.5,80.5C 50.1667,80.5 50.5,80.1667 50.5,79.5C 51.1667,79.5 51.5,79.1667 51.5,78.5C 52.1667,78.5 52.5,78.1667 52.5,77.5 Z"/></g>
<g><path style="opacity:0.008" fill="#8e251e" d="M 7.5,79.5 C 7.83333,79.5 8.16667,79.5 8.5,79.5C 8.5,80.1667 8.5,80.8333 8.5,81.5C 7.66175,81.1583 7.32842,80.4916 7.5,79.5 Z"/></g>
<g><path style="opacity:0.999" fill="#d14e67" d="M 42.5,81.5 C 43.8333,81.5 45.1667,81.5 46.5,81.5C 46.5,81.8333 46.5,82.1667 46.5,82.5C 46.8333,83.8333 47.1667,83.8333 47.5,82.5C 47.8333,82.5 48.1667,82.5 48.5,82.5C 48.8333,82.5 49.1667,82.5 49.5,82.5C 47.7607,85.2427 45.4274,87.2427 42.5,88.5C 42.1667,87.1667 41.8333,87.1667 41.5,88.5C 40.1667,88.8333 40.1667,89.1667 41.5,89.5C 34.6208,95.2769 27.2875,95.9435 19.5,91.5C 20.4916,91.6716 21.1583,91.3382 21.5,90.5C 25.8839,90.8256 30.2172,90.4922 34.5,89.5C 32.1568,88.7251 29.8234,88.0584 27.5,87.5C 28.2341,86.2921 28.5674,84.9587 28.5,83.5C 29.4174,83.4936 29.9174,84.4936 30,86.5C 30.4152,84.7091 31.4152,83.3757 33,82.5C 33.9529,84.3731 35.1196,84.7065 36.5,83.5C 39.0101,83.9465 41.0101,83.2798 42.5,81.5 Z"/></g>
<g><path style="opacity:1" fill="#dcd6d9" d="M 28.5,83.5 C 28.5674,84.9587 28.2341,86.2921 27.5,87.5C 25.8008,87.6602 24.1341,87.4935 22.5,87C 21.7852,81.5678 23.7852,80.4012 28.5,83.5 Z"/></g>
<g><path style="opacity:0.016" fill="#be3f3e" d="M 41.5,88.5 C 41.8333,88.5 42.1667,88.5 42.5,88.5C 42.3147,89.1701 41.9813,89.1701 41.5,88.5 Z"/></g>
</svg>
