<?xml version="1.0" encoding="UTF-8"?>
<!DOCTYPE svg PUBLIC "-//W3C//DTD SVG 1.1//EN" "http://www.w3.org/Graphics/SVG/1.1/DTD/svg11.dtd">
<svg xmlns="http://www.w3.org/2000/svg" version="1.1" width="100px" height="100px" style="shape-rendering:geometricPrecision; text-rendering:geometricPrecision; image-rendering:optimizeQuality; fill-rule:evenodd; clip-rule:evenodd" xmlns:xlink="http://www.w3.org/1999/xlink">
<g><path style="opacity:0.81" fill="#f49d9a" d="M 27.5,8.5 C 23.03,9.48612 18.3633,9.81946 13.5,9.5C 13.9175,8.77842 14.5842,8.27842 15.5,8C 14.8333,7.66667 14.1667,7.33333 13.5,7C 17.7109,5.46607 22.0442,5.13273 26.5,6C 26.8836,6.9506 27.2169,7.78393 27.5,8.5 Z"/></g>
<g><path style="opacity:0.012" fill="#ba6d65" d="M 12.5,11.5 C 11.4265,10.7494 11.2599,9.74943 12,8.5C 12.4828,9.44802 12.6495,10.448 12.5,11.5 Z"/></g>
<g><path style="opacity:0.004" fill="#d20002" d="M 29.5,11.5 C 29.369,10.7611 29.5357,10.0944 30,9.5C 30.6917,10.4368 30.525,11.1034 29.5,11.5 Z"/></g>
<g><path style="opacity:0.98" fill="#e33529" d="M 27.5,8.5 C 28.404,9.20895 28.7373,10.209 28.5,11.5C 27.8333,11.5 27.5,11.8333 27.5,12.5C 26.6618,12.8417 26.3284,13.5084 26.5,14.5C 25.8333,14.5 25.5,14.8333 25.5,15.5C 24.6618,15.8417 24.3284,16.5084 24.5,17.5C 22.1667,17.5 19.8333,17.5 17.5,17.5C 17.6716,16.5084 17.3382,15.8417 16.5,15.5C 16.5,14.8333 16.1667,14.5 15.5,14.5C 15.1667,13.1667 14.8333,13.1667 14.5,14.5C 13.0937,14.0269 12.427,13.0269 12.5,11.5C 13.3382,11.1583 13.6716,10.4916 13.5,9.5C 18.3633,9.81946 23.03,9.48612 27.5,8.5 Z"/></g>
<g><path style="opacity:0.008" fill="#b41607" d="M 28.5,11.5 C 28.8333,11.5 29.1667,11.5 29.5,11.5C 29.573,13.0269 28.9063,14.0269 27.5,14.5C 27.5,13.8333 27.5,13.1667 27.5,12.5C 28.1667,12.5 28.5,12.1667 28.5,11.5 Z"/></g>
<g><path style="opacity:0.012" fill="#fe5500" d="M 26.5,14.5 C 26.8333,14.5 27.1667,14.5 27.5,14.5C 27.3147,15.1701 26.9813,15.1701 26.5,14.5 Z"/></g>
<g><path style="opacity:1" fill="#f17c79" d="M 14.5,14.5 C 14.8333,14.5 15.1667,14.5 15.5,14.5C 16.1667,14.5 16.5,14.8333 16.5,15.5C 16.3284,16.4916 16.6618,17.1583 17.5,17.5C 19.8333,17.5 22.1667,17.5 24.5,17.5C 25.3382,17.1583 25.6716,16.4916 25.5,15.5C 25.8333,15.5 26.1667,15.5 26.5,15.5C 28.8682,16.783 31.0349,18.4497 33,20.5C 33.4696,21.5768 33.3029,22.5768 32.5,23.5C 30.619,25.8279 28.2856,26.1612 25.5,24.5C 23.2287,25.2708 21.062,26.2708 19,27.5C 16.4972,27.01 14.4972,25.6766 13,23.5C 11.5295,24.2666 10.0295,24.9332 8.5,25.5C 8.67158,24.5084 8.33825,23.8417 7.5,23.5C 7.5412,21.2547 8.37453,20.5881 10,21.5C 11.487,20.7471 11.6537,19.9138 10.5,19C 12.1918,17.6927 13.5251,16.1927 14.5,14.5 Z"/></g>
<g><path style="opacity:0.012" fill="#ff625b" d="M 7.5,23.5 C 7.5,24.1667 7.5,24.8333 7.5,25.5C 6.59603,26.209 6.26269,27.209 6.5,28.5C 6.16667,28.5 5.83333,28.5 5.5,28.5C 5.12012,26.302 5.78679,24.6354 7.5,23.5 Z"/></g>
<g><path style="opacity:1" fill="#e64f4b" d="M 32.5,23.5 C 33.6737,24.5137 34.3404,25.847 34.5,27.5C 31.1393,28.684 28.1393,30.5173 25.5,33C 24.3333,33.1667 23.1667,33.3333 22,33.5C 17.9358,32.0499 13.7691,31.0499 9.5,30.5C 8.88258,30.6107 8.38258,30.944 8,31.5C 7.50258,34.146 7.33591,36.8127 7.5,39.5C 7.16667,39.5 6.83333,39.5 6.5,39.5C 6.5,39.1667 6.5,38.8333 6.5,38.5C 6.5,35.1667 6.5,31.8333 6.5,28.5C 7.40397,27.791 7.73731,26.791 7.5,25.5C 7.83333,25.5 8.16667,25.5 8.5,25.5C 10.0295,24.9332 11.5295,24.2666 13,23.5C 14.4972,25.6766 16.4972,27.01 19,27.5C 21.062,26.2708 23.2287,25.2708 25.5,24.5C 28.2856,26.1612 30.619,25.8279 32.5,23.5 Z"/></g>
<g><path style="opacity:1" fill="#e2403a" d="M 36.5,43.5 C 35.5,43.5 34.5,43.5 33.5,43.5C 33.2279,39.1029 31.0613,37.4362 27,38.5C 26.8333,39 26.6667,39.5 26.5,40C 27.5089,41.1681 28.5089,42.3348 29.5,43.5C 28.6426,46.4509 28.6426,49.4509 29.5,52.5C 27.6777,47.0346 24.8444,42.0346 21,37.5C 17.7435,34.048 13.9101,31.7147 9.5,30.5C 13.7691,31.0499 17.9358,32.0499 22,33.5C 23.1667,33.3333 24.3333,33.1667 25.5,33C 28.1393,30.5173 31.1393,28.684 34.5,27.5C 35.3413,28.0093 35.8413,27.3427 36,25.5C 36.1667,26.1667 36.3333,26.8333 36.5,27.5C 35.2993,32.83 35.2993,38.1633 36.5,43.5 Z"/></g>
<g><path style="opacity:1" fill="#dd3630" d="M 9.5,30.5 C 13.9101,31.7147 17.7435,34.048 21,37.5C 24.8444,42.0346 27.6777,47.0346 29.5,52.5C 33.1132,60.4531 39.1132,65.4531 47.5,67.5C 49.2688,69.3974 51.6021,70.564 54.5,71C 62.5191,71.343 70.5191,71.843 78.5,72.5C 78.0377,73.8799 77.0377,74.5466 75.5,74.5C 68.8625,73.7422 62.1958,73.2422 55.5,73C 51.3334,72.1281 47.3334,70.9615 43.5,69.5C 38.2099,68.0148 34.2099,64.8482 31.5,60C 30.552,59.5172 29.552,59.3505 28.5,59.5C 24.555,49.6103 18.2216,41.6103 9.5,35.5C 8.54811,37.0453 8.21478,38.712 8.5,40.5C 8.16667,40.5 7.83333,40.5 7.5,40.5C 7.5,40.1667 7.5,39.8333 7.5,39.5C 7.33591,36.8127 7.50258,34.146 8,31.5C 8.38258,30.944 8.88258,30.6107 9.5,30.5 Z"/></g>
<g><path style="opacity:0.012" fill="#df3b33" d="M 38.5,45.5 C 38.6716,44.5084 38.3382,43.8417 37.5,43.5C 37.6985,38.4361 38.3651,38.6027 39.5,44C 39.4301,44.7648 39.0967,45.2648 38.5,45.5 Z"/></g>
<g><path style="opacity:1" fill="#da2a24" d="M 28.5,59.5 C 23.0827,53.7447 17.416,48.4114 11.5,43.5C 10.5,42.8333 9.5,42.1667 8.5,41.5C 8.5,41.1667 8.5,40.8333 8.5,40.5C 8.21478,38.712 8.54811,37.0453 9.5,35.5C 18.2216,41.6103 24.555,49.6103 28.5,59.5 Z"/></g>
<g><path style="opacity:0.012" fill="#b43a00" d="M 7.5,49.5 C 7.83333,49.5 8.16667,49.5 8.5,49.5C 8.16667,53.5 7.83333,53.5 7.5,49.5 Z"/></g>
<g><path style="opacity:1" fill="#e55450" d="M 37.5,45.5 C 37.8333,45.5 38.1667,45.5 38.5,45.5C 38.8925,47.2838 39.5592,48.9505 40.5,50.5C 40.631,51.2389 40.4643,51.9056 40,52.5C 39.0347,50.7397 37.868,50.4063 36.5,51.5C 39.1069,56.3177 43.1069,59.4844 48.5,61C 54.367,61.4431 60.0337,62.2764 65.5,63.5C 55.2351,65.0193 46.0685,62.686 38,56.5C 37.5357,57.0944 37.369,57.7611 37.5,58.5C 33.929,55.7074 31.5957,52.0407 30.5,47.5C 32.1333,44.5075 34.4666,43.8408 37.5,45.5 Z"/></g>
<g><path style="opacity:0.016" fill="#bb352e" d="M 53.5,58.5 C 53.5,58.1667 53.5,57.8333 53.5,57.5C 58.8333,57.8333 58.8333,58.1667 53.5,58.5 Z"/></g>
<g><path style="opacity:0.004" fill="#39200a" d="M 11.5,60.5 C 11.8333,60.5 12.1667,60.5 12.5,60.5C 12.5,61.1667 12.5,61.8333 12.5,62.5C 11.6618,62.1583 11.3284,61.4916 11.5,60.5 Z"/></g>
<g><path style="opacity:1" fill="#e1443f" d="M 36.5,43.5 C 36.8333,43.5 37.1667,43.5 37.5,43.5C 37.5,44.1667 37.5,44.8333 37.5,45.5C 34.4666,43.8408 32.1333,44.5075 30.5,47.5C 31.5957,52.0407 33.929,55.7074 37.5,58.5C 39.9929,61.5689 42.9929,63.9022 46.5,65.5C 46.8333,66.1667 47.1667,66.8333 47.5,67.5C 39.1132,65.4531 33.1132,60.4531 29.5,52.5C 28.6426,49.4509 28.6426,46.4509 29.5,43.5C 28.5089,42.3348 27.5089,41.1681 26.5,40C 26.6667,39.5 26.8333,39 27,38.5C 31.0613,37.4362 33.2279,39.1029 33.5,43.5C 34.5,43.5 35.5,43.5 36.5,43.5 Z"/></g>
<g><path style="opacity:1" fill="#e34a48" d="M 65.5,63.5 C 68.2492,63.2739 70.9159,63.6072 73.5,64.5C 74.4287,65.6888 74.762,67.0222 74.5,68.5C 71.3538,66.4798 68.0205,66.1465 64.5,67.5C 65.7287,68.2811 67.062,68.7811 68.5,69C 60.7375,70.2452 53.4041,69.0786 46.5,65.5C 42.9929,63.9022 39.9929,61.5689 37.5,58.5C 37.369,57.7611 37.5357,57.0944 38,56.5C 46.0685,62.686 55.2351,65.0193 65.5,63.5 Z"/></g>
<g><path style="opacity:0.988" fill="#e36d6c" d="M 53.5,57.5 C 52.1667,57.8333 52.1667,58.1667 53.5,58.5C 58.6411,58.6773 63.9744,58.8439 69.5,59C 71.8516,59.2401 73.8516,60.0735 75.5,61.5C 74.1667,61.8333 74.1667,62.1667 75.5,62.5C 75.5,63.1667 75.8333,63.5 76.5,63.5C 76.8769,65.258 77.5435,66.9246 78.5,68.5C 77.1916,69.6256 75.8583,69.6256 74.5,68.5C 74.762,67.0222 74.4287,65.6888 73.5,64.5C 70.9159,63.6072 68.2492,63.2739 65.5,63.5C 60.0337,62.2764 54.367,61.4431 48.5,61C 43.1069,59.4844 39.1069,56.3177 36.5,51.5C 37.868,50.4063 39.0347,50.7397 40,52.5C 40.4643,51.9056 40.631,51.2389 40.5,50.5C 41.1174,50.3893 41.6174,50.056 42,49.5C 45.1496,53.3107 48.983,55.9774 53.5,57.5 Z"/></g>
<g><path style="opacity:1" fill="#bb1611" d="M 8.5,41.5 C 9.5,42.1667 10.5,42.8333 11.5,43.5C 11.5,44.5 11.5,45.5 11.5,46.5C 16.8432,59.1765 25.8432,68.1765 38.5,73.5C 42.5519,76.3568 47.0519,78.3568 52,79.5C 59.1676,79.7071 66.1676,80.7071 73,82.5C 75.8348,81.7669 78.6681,81.1003 81.5,80.5C 81.1366,82.7773 80.1366,83.4439 78.5,82.5C 74.8285,84.3652 71.3285,84.3652 68,82.5C 61.789,83.4272 55.4557,82.7605 49,80.5C 48.1268,80.7355 47.2935,81.0688 46.5,81.5C 42.2563,79.5426 37.923,77.8759 33.5,76.5C 30.1761,73.7954 27.1761,70.6288 24.5,67C 22.913,66.1376 21.2464,65.4709 19.5,65C 13.0632,58.5502 9.39653,50.7168 8.5,41.5 Z"/></g>
<g><path style="opacity:1" fill="#de4542" d="M 75.5,62.5 C 75.5,62.1667 75.5,61.8333 75.5,61.5C 77.7453,61.5412 78.4119,62.3745 77.5,64C 79.4641,65.451 80.7974,67.2843 81.5,69.5C 80.8999,70.9002 79.8999,71.9002 78.5,72.5C 70.5191,71.843 62.5191,71.343 54.5,71C 51.6021,70.564 49.2688,69.3974 47.5,67.5C 47.1667,66.8333 46.8333,66.1667 46.5,65.5C 53.4041,69.0786 60.7375,70.2452 68.5,69C 67.062,68.7811 65.7287,68.2811 64.5,67.5C 68.0205,66.1465 71.3538,66.4798 74.5,68.5C 75.8583,69.6256 77.1916,69.6256 78.5,68.5C 77.5435,66.9246 76.8769,65.258 76.5,63.5C 75.8333,63.5 75.5,63.1667 75.5,62.5 Z"/></g>
<g><path style="opacity:0.008" fill="#6f0d03" d="M 18.5,69.5 C 18.5,70.1667 18.8333,70.5 19.5,70.5C 19.2533,72.9752 18.5866,72.9752 17.5,70.5C 17.6236,69.8933 17.9569,69.56 18.5,69.5 Z"/></g>
<g><path style="opacity:1" fill="#ca1913" d="M 11.5,46.5 C 19.1742,57.6695 29.1742,66.1695 41.5,72C 45.1117,73.15 48.7783,73.9834 52.5,74.5C 52.6107,75.1174 52.944,75.6174 53.5,76C 60.4756,76.8918 67.4756,77.3918 74.5,77.5C 70.6621,78.7779 66.8288,79.4445 63,79.5C 54.5561,78.6207 46.3894,76.6207 38.5,73.5C 25.8432,68.1765 16.8432,59.1765 11.5,46.5 Z"/></g>
<g><path style="opacity:1" fill="#d3221b" d="M 11.5,43.5 C 17.416,48.4114 23.0827,53.7447 28.5,59.5C 29.552,59.3505 30.552,59.5172 31.5,60C 34.2099,64.8482 38.2099,68.0148 43.5,69.5C 46.1896,71.7295 49.1896,73.3962 52.5,74.5C 48.7783,73.9834 45.1117,73.15 41.5,72C 29.1742,66.1695 19.1742,57.6695 11.5,46.5C 11.5,45.5 11.5,44.5 11.5,43.5 Z"/></g>
<g><path style="opacity:0.008" fill="#dd0001" d="M 93.5,70.5 C 94.8333,74.5 94.8333,78.5 93.5,82.5C 93.5,78.5 93.5,74.5 93.5,70.5 Z"/></g>
<g><path style="opacity:1" fill="#ab2014" d="M 5.5,28.5 C 5.18723,32.0419 5.52056,35.3752 6.5,38.5C 6.5,38.8333 6.5,39.1667 6.5,39.5C 6.66359,45.1667 6.99692,45.5 7.5,40.5C 7.83333,40.5 8.16667,40.5 8.5,40.5C 8.5,40.8333 8.5,41.1667 8.5,41.5C 9.39653,50.7168 13.0632,58.5502 19.5,65C 21.2464,65.4709 22.913,66.1376 24.5,67C 27.1761,70.6288 30.1761,73.7954 33.5,76.5C 32.8333,76.5 32.1667,76.5 31.5,76.5C 28.7511,74.5997 26.0845,72.433 23.5,70C 21.5932,68.878 19.5932,68.0447 17.5,67.5C 15.4935,68.6785 15.1602,68.1785 16.5,66C 15.7471,64.513 14.9138,64.3463 14,65.5C 12.9614,64.7562 12.4614,63.7562 12.5,62.5C 13.8333,61.8333 13.8333,61.1667 12.5,60.5C 12.1667,57.8333 11.8333,57.8333 11.5,60.5C 10.1402,58.9537 9.14024,57.1204 8.5,55C 9.66014,53.0025 9.66014,51.1692 8.5,49.5C 8.16667,44.1667 7.83333,44.1667 7.5,49.5C 4.78662,42.651 4.11995,35.651 5.5,28.5 Z"/></g>
<g><path style="opacity:1" fill="#d62e29" d="M 93.5,70.5 C 92.6618,70.8417 92.3284,71.5084 92.5,72.5C 91.2652,72.7214 90.2652,73.3881 89.5,74.5C 88.8333,73.8333 88.1667,73.1667 87.5,72.5C 84.7782,73.0092 82.6116,74.3425 81,76.5C 78.9011,77.2865 76.7345,77.6199 74.5,77.5C 67.4756,77.3918 60.4756,76.8918 53.5,76C 52.944,75.6174 52.6107,75.1174 52.5,74.5C 49.1896,73.3962 46.1896,71.7295 43.5,69.5C 47.3334,70.9615 51.3334,72.1281 55.5,73C 62.1958,73.2422 68.8625,73.7422 75.5,74.5C 77.0377,74.5466 78.0377,73.8799 78.5,72.5C 79.8999,71.9002 80.8999,70.9002 81.5,69.5C 81.8333,69.5 82.1667,69.5 82.5,69.5C 82.281,70.675 82.6143,71.675 83.5,72.5C 84.1067,72.3764 84.44,72.0431 84.5,71.5C 83.6618,71.1583 83.3284,70.4916 83.5,69.5C 85.8553,68.9056 88.022,67.9056 90,66.5C 92.0736,67.0717 93.2402,68.405 93.5,70.5 Z M 82.5,69.5 C 82.8333,69.5 83.1667,69.5 83.5,69.5C 83.3284,70.4916 83.6618,71.1583 84.5,71.5C 84.44,72.0431 84.1067,72.3764 83.5,72.5C 82.6143,71.675 82.281,70.675 82.5,69.5 Z"/></g>
<g><path style="opacity:0.999" fill="#c0130f" d="M 92.5,72.5 C 92.5,75.8333 92.5,79.1667 92.5,82.5C 91.596,83.209 91.2627,84.209 91.5,85.5C 88.4017,85.5875 88.0684,85.0875 90.5,84C 89.5838,83.6258 88.7504,83.1258 88,82.5C 86.5861,83.4132 85.0861,83.4132 83.5,82.5C 83.3284,81.5084 83.6618,80.8417 84.5,80.5C 84.1583,79.6618 83.4916,79.3284 82.5,79.5C 81.8333,79.5 81.5,79.8333 81.5,80.5C 78.6681,81.1003 75.8348,81.7669 73,82.5C 66.1676,80.7071 59.1676,79.7071 52,79.5C 47.0519,78.3568 42.5519,76.3568 38.5,73.5C 46.3894,76.6207 54.5561,78.6207 63,79.5C 66.8288,79.4445 70.6621,78.7779 74.5,77.5C 76.7345,77.6199 78.9011,77.2865 81,76.5C 82.6116,74.3425 84.7782,73.0092 87.5,72.5C 88.1667,73.1667 88.8333,73.8333 89.5,74.5C 90.2652,73.3881 91.2652,72.7214 92.5,72.5 Z M 82.5,79.5 C 83.4916,79.3284 84.1583,79.6618 84.5,80.5C 83.6618,80.8417 83.3284,81.5084 83.5,82.5C 83.1667,82.5 82.8333,82.5 82.5,82.5C 82.5,81.5 82.5,80.5 82.5,79.5 Z"/></g>
<g><path style="opacity:0.99" fill="#981a11" d="M 17.5,67.5 C 19.5932,68.0447 21.5932,68.878 23.5,70C 26.0845,72.433 28.7511,74.5997 31.5,76.5C 35.6115,79.3958 39.9448,82.0625 44.5,84.5C 46.3333,84.8333 48.1667,85.1667 50,85.5C 58.7576,87.0086 67.4243,87.6753 76,87.5C 76.4828,86.552 76.6495,85.552 76.5,84.5C 77.8333,84.5 79.1667,84.5 80.5,84.5C 80.5,84.8333 80.5,85.1667 80.5,85.5C 79.8333,85.5 79.5,85.8333 79.5,86.5C 78.8333,86.5 78.5,86.8333 78.5,87.5C 77.8333,87.5 77.5,87.8333 77.5,88.5C 76.1667,88.8333 76.1667,89.1667 77.5,89.5C 76.4863,90.6737 75.153,91.3404 73.5,91.5C 66.823,90.7433 59.9896,90.0766 53,89.5C 49.7612,90.9004 46.5945,90.7338 43.5,89C 38.5545,87.1939 33.8878,84.8606 29.5,82C 29.6192,80.7188 29.1192,79.5521 28,78.5C 27.2825,79.4506 26.4491,79.6172 25.5,79C 24.3638,75.9526 22.3638,73.1192 19.5,70.5C 18.8333,70.5 18.5,70.1667 18.5,69.5C 18.1667,68.8333 17.8333,68.1667 17.5,67.5 Z"/></g>
<g><path style="opacity:0.008" fill="#fe0000" d="M 92.5,82.5 C 92.8333,82.5 93.1667,82.5 93.5,82.5C 93.3147,83.1701 92.9813,83.1701 92.5,82.5 Z"/></g>
<g><path style="opacity:0.016" fill="#7e0000" d="M 81.5,84.5 C 82.8333,85.1667 82.8333,85.1667 81.5,84.5 Z"/></g>
<g><path style="opacity:1" fill="#a71310" d="M 31.5,76.5 C 32.1667,76.5 32.8333,76.5 33.5,76.5C 37.923,77.8759 42.2563,79.5426 46.5,81.5C 47.2935,81.0688 48.1268,80.7355 49,80.5C 55.4557,82.7605 61.789,83.4272 68,82.5C 71.3285,84.3652 74.8285,84.3652 78.5,82.5C 80.1366,83.4439 81.1366,82.7773 81.5,80.5C 81.5,79.8333 81.8333,79.5 82.5,79.5C 82.5,80.5 82.5,81.5 82.5,82.5C 81.6618,82.8417 81.3284,83.5084 81.5,84.5C 81.1667,84.5 80.8333,84.5 80.5,84.5C 79.1667,84.5 77.8333,84.5 76.5,84.5C 76.6495,85.552 76.4828,86.552 76,87.5C 67.4243,87.6753 58.7576,87.0086 50,85.5C 48.1667,85.1667 46.3333,84.8333 44.5,84.5C 39.9448,82.0625 35.6115,79.3958 31.5,76.5 Z"/></g>
<g><path style="opacity:0.012" fill="#a90000" d="M 80.5,85.5 C 80.8333,85.5 81.1667,85.5 81.5,85.5C 81.3147,86.1701 80.9813,86.1701 80.5,85.5 Z"/></g>
<g><path style="opacity:0.008" fill="#fe0000" d="M 79.5,86.5 C 79.8333,86.5 80.1667,86.5 80.5,86.5C 80.3147,87.1701 79.9813,87.1701 79.5,86.5 Z"/></g>
<g><path style="opacity:0.016" fill="#7e0000" d="M 78.5,87.5 C 78.8333,87.5 79.1667,87.5 79.5,87.5C 79.3147,88.1701 78.9813,88.1701 78.5,87.5 Z"/></g>
<g><path style="opacity:0.016" fill="#be3f00" d="M 77.5,88.5 C 77.8333,88.5 78.1667,88.5 78.5,88.5C 78.3147,89.1701 77.9813,89.1701 77.5,88.5 Z"/></g>
<g><path style="opacity:0.02" fill="#731303" d="M 73.5,91.5 C 71.5662,92.5316 69.3995,93.1983 67,93.5C 63.1875,92.8541 59.3542,92.3541 55.5,92C 61.4908,91.5005 67.4908,91.3338 73.5,91.5 Z"/></g>
</svg>
