<?xml version="1.0" encoding="UTF-8"?>
<!DOCTYPE svg PUBLIC "-//W3C//DTD SVG 1.1//EN" "http://www.w3.org/Graphics/SVG/1.1/DTD/svg11.dtd">
<svg xmlns="http://www.w3.org/2000/svg" version="1.1" width="100px" height="100px" style="shape-rendering:geometricPrecision; text-rendering:geometricPrecision; image-rendering:optimizeQuality; fill-rule:evenodd; clip-rule:evenodd" xmlns:xlink="http://www.w3.org/1999/xlink">
<g><path style="opacity:1" fill="#74ecc3" d="M 91.5,9.5 C 90.8333,9.5 90.1667,9.5 89.5,9.5C 89.1583,8.66175 88.4916,8.32842 87.5,8.5C 84.5,8.5 81.5,8.5 78.5,8.5C 76.1667,8.5 73.8333,8.5 71.5,8.5C 71.5,8.16667 71.5,7.83333 71.5,7.5C 72.4916,7.67158 73.1583,7.33825 73.5,6.5C 79.2289,6.78769 84.8955,6.45436 90.5,5.5C 92.7003,6.32457 93.0337,7.6579 91.5,9.5 Z"/></g>
<g><path style="opacity:0.929" fill="#94f0de" d="M 73.5,6.5 C 72.1266,6.34332 70.7932,6.50999 69.5,7C 70.0944,7.46434 70.7611,7.63101 71.5,7.5C 71.5,7.83333 71.5,8.16667 71.5,8.5C 70.0048,8.98869 68.6715,9.65536 67.5,10.5C 66.8333,10.5 66.1667,10.5 65.5,10.5C 64.8333,10.5 64.1667,10.5 63.5,10.5C 63.5,10.1667 63.5,9.83333 63.5,9.5C 65.3084,9.50864 66.9751,9.00864 68.5,8C 65.8333,7.33333 65.8333,6.66667 68.5,6C 70.3869,5.22039 72.0536,5.38705 73.5,6.5 Z"/></g>
<g><path style="opacity:0.997" fill="#0fa54d" d="M 78.5,9.5 C 77.7703,11.045 76.437,11.8784 74.5,12C 76.8516,12.2401 78.8516,13.0735 80.5,14.5C 78.7839,14.3713 77.1172,14.038 75.5,13.5C 74.1667,13.5 72.8333,13.5 71.5,13.5C 71.0618,13.5654 70.7284,13.3988 70.5,13C 71.9733,12.2904 72.6399,11.1238 72.5,9.5C 74.5,9.5 76.5,9.5 78.5,9.5 Z"/></g>
<g><path style="opacity:0.012" fill="#9bedda" d="M 63.5,9.5 C 62.1667,9.83333 62.1667,10.1667 63.5,10.5C 62.5,12.1667 61.1667,13.5 59.5,14.5C 57.673,17.3856 55.673,20.0523 53.5,22.5C 53.5,21.8333 53.1667,21.5 52.5,21.5C 52.1667,21.5 51.8333,21.5 51.5,21.5C 52.1593,18.5918 52.9926,18.2584 54,20.5C 55.6953,18.2068 56.362,15.8734 56,13.5C 57.0793,11.6063 58.4126,11.273 60,12.5C 61.1192,11.4479 61.6192,10.2812 61.5,9C 62.4368,8.30831 63.1034,8.47498 63.5,9.5 Z"/></g>
<g><path style="opacity:0.012" fill="#0b827a" d="M 93.5,24.5 C 93.3341,19.4889 93.5007,14.4889 94,9.5C 94.8163,14.6842 94.6497,19.6842 93.5,24.5 Z"/></g>
<g><path style="opacity:1" fill="#19bb6e" d="M 65.5,10.5 C 66.1667,10.5 66.8333,10.5 67.5,10.5C 66.6314,12.717 66.298,15.0504 66.5,17.5C 66.6716,18.4916 66.3382,19.1583 65.5,19.5C 65.631,18.7611 65.4643,18.0944 65,17.5C 63.6283,18.9101 62.795,20.5767 62.5,22.5C 61.8333,22.8333 61.1667,23.1667 60.5,23.5C 60.5605,18.4747 62.2272,14.1413 65.5,10.5 Z"/></g>
<g><path style="opacity:1" fill="#1ab766" d="M 71.5,8.5 C 73.8333,8.5 76.1667,8.5 78.5,8.5C 78.5,8.83333 78.5,9.16667 78.5,9.5C 76.5,9.5 74.5,9.5 72.5,9.5C 72.6399,11.1238 71.9733,12.2904 70.5,13C 70.7284,13.3988 71.0618,13.5654 71.5,13.5C 71.5,13.8333 71.5,14.1667 71.5,14.5C 69.6675,15.2485 68.0009,16.2485 66.5,17.5C 66.298,15.0504 66.6314,12.717 67.5,10.5C 68.6715,9.65536 70.0048,8.98869 71.5,8.5 Z"/></g>
<g><path style="opacity:1" fill="#129e4c" d="M 78.5,8.5 C 81.5,8.5 84.5,8.5 87.5,8.5C 86.5392,11.4261 85.8726,14.4261 85.5,17.5C 84.391,17.4431 83.391,17.1098 82.5,16.5C 82.1667,15.5 81.5,14.8333 80.5,14.5C 78.8516,13.0735 76.8516,12.2401 74.5,12C 76.437,11.8784 77.7703,11.045 78.5,9.5C 78.5,9.16667 78.5,8.83333 78.5,8.5 Z"/></g>
<g><path style="opacity:1" fill="#48c182" d="M 71.5,14.5 C 71.5,14.1667 71.5,13.8333 71.5,13.5C 72.8333,13.5 74.1667,13.5 75.5,13.5C 73.86,16.1492 72.1933,18.8159 70.5,21.5C 68.5,22.1667 66.5,22.8333 64.5,23.5C 64.2627,22.209 64.596,21.209 65.5,20.5C 65.8966,21.525 66.5632,21.6917 67.5,21C 69.0268,18.5615 71.0268,16.5615 73.5,15C 72.9056,14.5357 72.2389,14.369 71.5,14.5 Z"/></g>
<g><path style="opacity:0.996" fill="#4edcad" d="M 89.5,9.5 C 90.1667,9.5 90.8333,9.5 91.5,9.5C 90.9682,15.1523 90.6349,20.819 90.5,26.5C 89.8333,25.1667 89.1667,23.8333 88.5,22.5C 88.4431,21.391 88.1098,20.391 87.5,19.5C 87.1524,15.9153 87.819,12.582 89.5,9.5 Z"/></g>
<g><path style="opacity:1" fill="#27af64" d="M 75.5,13.5 C 77.1172,14.038 78.7839,14.3713 80.5,14.5C 81.5,14.8333 82.1667,15.5 82.5,16.5C 81.8333,16.8333 81.1667,17.1667 80.5,17.5C 77.2073,18.8086 73.874,20.142 70.5,21.5C 72.1933,18.8159 73.86,16.1492 75.5,13.5 Z"/></g>
<g><path style="opacity:1" fill="#30cc8f" d="M 87.5,8.5 C 88.4916,8.32842 89.1583,8.66175 89.5,9.5C 87.819,12.582 87.1524,15.9153 87.5,19.5C 87.1667,19.5 86.8333,19.5 86.5,19.5C 86.1667,18.8333 85.8333,18.1667 85.5,17.5C 85.8726,14.4261 86.5392,11.4261 87.5,8.5 Z"/></g>
<g><path style="opacity:1" fill="#89d2ac" d="M 71.5,14.5 C 72.2389,14.369 72.9056,14.5357 73.5,15C 71.0268,16.5615 69.0268,18.5615 67.5,21C 66.5632,21.6917 65.8966,21.525 65.5,20.5C 65.5,20.1667 65.5,19.8333 65.5,19.5C 66.3382,19.1583 66.6716,18.4916 66.5,17.5C 68.0009,16.2485 69.6675,15.2485 71.5,14.5 Z"/></g>
<g><path style="opacity:1" fill="#1fa454" d="M 80.5,17.5 C 81.5063,18.3957 81.5063,19.0623 80.5,19.5C 77.9635,21.7159 74.9635,22.8826 71.5,23C 70.1982,25.0218 68.5315,26.5218 66.5,27.5C 65.8333,27.5 65.1667,27.5 64.5,27.5C 64.5,26.1667 64.5,24.8333 64.5,23.5C 66.5,22.8333 68.5,22.1667 70.5,21.5C 73.874,20.142 77.2073,18.8086 80.5,17.5 Z"/></g>
<g><path style="opacity:0.82" fill="#38c185" d="M 91.5,9.5 C 92.4872,14.3054 92.8205,19.3054 92.5,24.5C 91.5489,25.9187 91.2155,27.5853 91.5,29.5C 91.1667,29.5 90.8333,29.5 90.5,29.5C 90.5,28.5 90.5,27.5 90.5,26.5C 90.6349,20.819 90.9682,15.1523 91.5,9.5 Z"/></g>
<g><path style="opacity:1" fill="#25c886" d="M 63.5,10.5 C 64.1667,10.5 64.8333,10.5 65.5,10.5C 62.2272,14.1413 60.5605,18.4747 60.5,23.5C 59.1667,23.8333 57.8333,24.1667 56.5,24.5C 59.1426,21.7664 60.1426,18.4331 59.5,14.5C 61.1667,13.5 62.5,12.1667 63.5,10.5 Z"/></g>
<g><path style="opacity:1" fill="#10aa53" d="M 65.5,19.5 C 65.5,19.8333 65.5,20.1667 65.5,20.5C 64.596,21.209 64.2627,22.209 64.5,23.5C 64.5,24.8333 64.5,26.1667 64.5,27.5C 63.8333,27.5 63.1667,27.5 62.5,27.5C 62.5,26.5 62.5,25.5 62.5,24.5C 62.5,23.8333 62.5,23.1667 62.5,22.5C 62.795,20.5767 63.6283,18.9101 65,17.5C 65.4643,18.0944 65.631,18.7611 65.5,19.5 Z"/></g>
<g><path style="opacity:1" fill="#1f9348" d="M 82.5,16.5 C 83.391,17.1098 84.391,17.4431 85.5,17.5C 85.8333,18.1667 86.1667,18.8333 86.5,19.5C 86.5,19.8333 86.5,20.1667 86.5,20.5C 85.7784,20.9175 85.2784,21.5842 85,22.5C 84.0138,21.8288 82.8471,21.8288 81.5,22.5C 80.8333,22.5 80.1667,22.5 79.5,22.5C 80.1098,21.609 80.4431,20.609 80.5,19.5C 81.5063,19.0623 81.5063,18.3957 80.5,17.5C 81.1667,17.1667 81.8333,16.8333 82.5,16.5 Z"/></g>
<g><path style="opacity:1" fill="#2ed097" d="M 59.5,14.5 C 60.1426,18.4331 59.1426,21.7664 56.5,24.5C 55.1667,24.5 53.8333,24.5 52.5,24.5C 52.8333,23.8333 53.1667,23.1667 53.5,22.5C 55.673,20.0523 57.673,17.3856 59.5,14.5 Z"/></g>
<g><path style="opacity:0.882" fill="#94f3d4" d="M 51.5,21.5 C 51.8333,21.5 52.1667,21.5 52.5,21.5C 53.1667,21.5 53.5,21.8333 53.5,22.5C 53.1667,23.1667 52.8333,23.8333 52.5,24.5C 50.6208,25.3414 48.6208,25.6747 46.5,25.5C 45.1667,25.5 43.8333,25.5 42.5,25.5C 42.0269,26.9063 41.0269,27.573 39.5,27.5C 39.5,27.1667 39.5,26.8333 39.5,26.5C 40.8333,26.1667 40.8333,25.8333 39.5,25.5C 39.6107,24.8826 39.944,24.3826 40.5,24C 44.0704,22.6905 47.737,21.8572 51.5,21.5 Z"/></g>
<g><path style="opacity:1" fill="#159744" d="M 80.5,19.5 C 80.4431,20.609 80.1098,21.609 79.5,22.5C 76.664,23.1684 74.164,24.5018 72,26.5C 70.2341,27.2335 68.4008,27.5668 66.5,27.5C 68.5315,26.5218 70.1982,25.0218 71.5,23C 74.9635,22.8826 77.9635,21.7159 80.5,19.5 Z"/></g>
<g><path style="opacity:0.978" fill="#3dce97" d="M 88.5,22.5 C 89.1667,23.8333 89.8333,25.1667 90.5,26.5C 90.5,27.5 90.5,28.5 90.5,29.5C 90.5,30.5 90.5,31.5 90.5,32.5C 90.1667,32.5 89.8333,32.5 89.5,32.5C 89.5654,32.0618 89.3988,31.7284 89,31.5C 88.237,34.0635 87.737,34.0635 87.5,31.5C 88.3022,28.5514 88.6355,25.5514 88.5,22.5 Z"/></g>
<g><path style="opacity:0.998" fill="#1ec07a" d="M 60.5,23.5 C 60.1961,24.1499 59.8627,24.8165 59.5,25.5C 55.8384,26.3128 52.1718,26.9794 48.5,27.5C 45.1541,28.2179 43.1541,30.2179 42.5,33.5C 42.5,32.8333 42.1667,32.5 41.5,32.5C 42.1098,31.609 42.4431,30.609 42.5,29.5C 43.3387,27.6161 44.672,26.2828 46.5,25.5C 48.6208,25.6747 50.6208,25.3414 52.5,24.5C 53.8333,24.5 55.1667,24.5 56.5,24.5C 57.8333,24.1667 59.1667,23.8333 60.5,23.5 Z"/></g>
<g><path style="opacity:1" fill="#19b66b" d="M 62.5,22.5 C 62.5,23.1667 62.5,23.8333 62.5,24.5C 61.5987,25.2905 60.9321,26.2905 60.5,27.5C 59.2921,28.2341 57.9587,28.5674 56.5,28.5C 54.8333,27.1667 53.1667,27.1667 51.5,28.5C 50.5,28.5 49.5,28.5 48.5,28.5C 48.5,28.1667 48.5,27.8333 48.5,27.5C 52.1718,26.9794 55.8384,26.3128 59.5,25.5C 59.8627,24.8165 60.1961,24.1499 60.5,23.5C 61.1667,23.1667 61.8333,22.8333 62.5,22.5 Z"/></g>
<g><path style="opacity:1" fill="#14a75b" d="M 62.5,24.5 C 62.5,25.5 62.5,26.5 62.5,27.5C 62.2627,28.791 62.596,29.791 63.5,30.5C 63.5,31.1667 63.8333,31.5 64.5,31.5C 64.5,31.8333 64.5,32.1667 64.5,32.5C 61.0897,32.6162 59.7564,30.9496 60.5,27.5C 60.9321,26.2905 61.5987,25.2905 62.5,24.5 Z"/></g>
<g><path style="opacity:1" fill="#0f8b38" d="M 79.5,22.5 C 80.1667,22.5 80.8333,22.5 81.5,22.5C 80.1394,24.5273 78.4727,26.194 76.5,27.5C 72.0166,28.373 67.6832,29.373 63.5,30.5C 62.596,29.791 62.2627,28.791 62.5,27.5C 63.1667,27.5 63.8333,27.5 64.5,27.5C 65.1667,27.5 65.8333,27.5 66.5,27.5C 68.4008,27.5668 70.2341,27.2335 72,26.5C 74.164,24.5018 76.664,23.1684 79.5,22.5 Z"/></g>
<g><path style="opacity:1" fill="#0d762a" d="M 86.5,20.5 C 86.5,20.8333 86.5,21.1667 86.5,21.5C 86.5,22.5 86.5,23.5 86.5,24.5C 83.6465,25.8783 80.9798,27.5449 78.5,29.5C 74.0666,31.3006 69.3999,31.9672 64.5,31.5C 67.3054,30.6805 70.3054,30.1805 73.5,30C 74.5707,29.1482 75.5707,28.3149 76.5,27.5C 78.4727,26.194 80.1394,24.5273 81.5,22.5C 82.8471,21.8288 84.0138,21.8288 85,22.5C 85.2784,21.5842 85.7784,20.9175 86.5,20.5 Z"/></g>
<g><path style="opacity:0.996" fill="#56e0ad" d="M 39.5,25.5 C 39.5,25.8333 39.5,26.1667 39.5,26.5C 38.1667,26.8333 38.1667,27.1667 39.5,27.5C 41.0269,27.573 42.0269,26.9063 42.5,25.5C 43.8333,25.5 45.1667,25.5 46.5,25.5C 44.672,26.2828 43.3387,27.6161 42.5,29.5C 41.5,30.1667 40.5,30.8333 39.5,31.5C 39.6309,30.6236 39.2975,29.9569 38.5,29.5C 37.4822,30.1925 36.4822,30.8592 35.5,31.5C 35.5569,30.391 35.8902,29.391 36.5,28.5C 37.8333,28.1667 37.8333,27.8333 36.5,27.5C 36.9731,26.0937 37.9731,25.427 39.5,25.5 Z"/></g>
<g><path style="opacity:1" fill="#15b867" d="M 48.5,28.5 C 49.5,28.5 50.5,28.5 51.5,28.5C 51.539,31.089 50.539,33.089 48.5,34.5C 48.1667,34.5 47.8333,34.5 47.5,34.5C 47.5172,32.4352 47.8505,30.4352 48.5,28.5 Z"/></g>
<g><path style="opacity:1" fill="#1aae65" d="M 60.5,27.5 C 59.7564,30.9496 61.0897,32.6162 64.5,32.5C 64.8333,32.5 65.1667,32.5 65.5,32.5C 66.5,33.8333 67.5,35.1667 68.5,36.5C 66.4418,35.0669 64.1085,34.4003 61.5,34.5C 61.5,35.5 61.5,36.5 61.5,37.5C 60.1301,37.1435 59.1301,36.3102 58.5,35C 58.2372,32.5675 57.2372,30.5675 55.5,29C 55.7284,28.6012 56.0618,28.4346 56.5,28.5C 57.9587,28.5674 59.2921,28.2341 60.5,27.5 Z"/></g>
<g><path style="opacity:1" fill="#096a23" d="M 86.5,24.5 C 86.5979,26.5529 85.9313,28.2196 84.5,29.5C 82.6531,28.4271 80.6531,28.4271 78.5,29.5C 80.9798,27.5449 83.6465,25.8783 86.5,24.5 Z"/></g>
<g><path style="opacity:1" fill="#0e8c47" d="M 86.5,21.5 C 87.6813,24.3623 87.6813,27.3623 86.5,30.5C 85.1667,31.5 83.8333,32.5 82.5,33.5C 82.7329,31.9382 83.3995,30.6049 84.5,29.5C 85.9313,28.2196 86.5979,26.5529 86.5,24.5C 86.5,23.5 86.5,22.5 86.5,21.5 Z"/></g>
<g><path style="opacity:0.008" fill="#3aa593" d="M 92.5,24.5 C 92.8333,24.5 93.1667,24.5 93.5,24.5C 93.7845,26.4147 93.4511,28.0813 92.5,29.5C 92.5,27.8333 92.5,26.1667 92.5,24.5 Z"/></g>
<g><path style="opacity:1" fill="#14b05f" d="M 56.5,28.5 C 56.0618,28.4346 55.7284,28.6012 55.5,29C 57.2372,30.5675 58.2372,32.5675 58.5,35C 59.1301,36.3102 60.1301,37.1435 61.5,37.5C 61.8333,38.1667 62.1667,38.8333 62.5,39.5C 61.8333,39.5 61.5,39.8333 61.5,40.5C 61.1667,40.5 60.8333,40.5 60.5,40.5C 60.1667,39.5 59.5,38.8333 58.5,38.5C 58.5,37.8333 58.1667,37.5 57.5,37.5C 57.5858,36.5041 57.2524,35.6708 56.5,35C 53.854,34.5026 51.1873,34.3359 48.5,34.5C 50.539,33.089 51.539,31.089 51.5,28.5C 53.1667,27.1667 54.8333,27.1667 56.5,28.5 Z"/></g>
<g><path style="opacity:1" fill="#0b7c2d" d="M 76.5,27.5 C 75.5707,28.3149 74.5707,29.1482 73.5,30C 70.3054,30.1805 67.3054,30.6805 64.5,31.5C 63.8333,31.5 63.5,31.1667 63.5,30.5C 67.6832,29.373 72.0166,28.373 76.5,27.5 Z"/></g>
<g><path style="opacity:1" fill="#1dc580" d="M 42.5,29.5 C 42.4431,30.609 42.1098,31.609 41.5,32.5C 39.2068,36.4749 36.8735,40.4749 34.5,44.5C 33.8333,45.1667 33.1667,45.8333 32.5,46.5C 33.4462,42.6587 34.7795,38.992 36.5,35.5C 37.0256,33.7697 38.0256,32.4363 39.5,31.5C 40.5,30.8333 41.5,30.1667 42.5,29.5 Z"/></g>
<g><path style="opacity:1" fill="#075f1c" d="M 84.5,29.5 C 83.3995,30.6049 82.7329,31.9382 82.5,33.5C 82.1667,33.5 81.8333,33.5 81.5,33.5C 77.7016,32.5166 73.7016,32.1832 69.5,32.5C 68.1667,32.5 66.8333,32.5 65.5,32.5C 65.1667,32.5 64.8333,32.5 64.5,32.5C 64.5,32.1667 64.5,31.8333 64.5,31.5C 69.3999,31.9672 74.0666,31.3006 78.5,29.5C 80.6531,28.4271 82.6531,28.4271 84.5,29.5 Z"/></g>
<g><path style="opacity:0.016" fill="#3ede6c" d="M 91.5,29.5 C 91.8333,29.5 92.1667,29.5 92.5,29.5C 92.7373,30.791 92.404,31.791 91.5,32.5C 91.5,31.5 91.5,30.5 91.5,29.5 Z"/></g>
<g><path style="opacity:0.788" fill="#9ee9de" d="M 36.5,27.5 C 36.5,27.8333 36.5,28.1667 36.5,28.5C 35.8902,29.391 35.5569,30.391 35.5,31.5C 34.5,31.8333 33.8333,32.5 33.5,33.5C 32.1667,34.1667 31.1667,35.1667 30.5,36.5C 30.1667,36.5 29.8333,36.5 29.5,36.5C 29.1667,35.1667 28.8333,35.1667 28.5,36.5C 27.8333,36.5 27.5,36.8333 27.5,37.5C 26.4407,35.9301 26.9407,34.5968 29,33.5C 29.3333,33.8333 29.6667,34.1667 30,34.5C 31.5,33 33,31.5 34.5,30C 33.5881,28.3745 34.2547,27.5412 36.5,27.5 Z"/></g>
<g><path style="opacity:1" fill="#18c278" d="M 41.5,32.5 C 42.1667,32.5 42.5,32.8333 42.5,33.5C 41.8772,35.7105 40.8772,37.7105 39.5,39.5C 37.9373,40.9448 36.604,42.6115 35.5,44.5C 35.1667,44.5 34.8333,44.5 34.5,44.5C 36.8735,40.4749 39.2068,36.4749 41.5,32.5 Z"/></g>
<g><path style="opacity:0.008" fill="#00ff7e" d="M 90.5,32.5 C 90.8333,32.5 91.1667,32.5 91.5,32.5C 91.1667,35.1667 90.8333,35.1667 90.5,32.5 Z"/></g>
<g><path style="opacity:1" fill="#044d13" d="M 65.5,32.5 C 66.8333,32.5 68.1667,32.5 69.5,32.5C 71.2646,33.4614 73.2646,33.7947 75.5,33.5C 75.5,34.5 75.5,35.5 75.5,36.5C 73.1667,36.5 70.8333,36.5 68.5,36.5C 67.5,35.1667 66.5,33.8333 65.5,32.5 Z"/></g>
<g><path style="opacity:1" fill="#065b1c" d="M 69.5,32.5 C 73.7016,32.1832 77.7016,32.5166 81.5,33.5C 79.6115,34.604 77.9448,35.9373 76.5,37.5C 74.1667,37.5 71.8333,37.5 69.5,37.5C 69.1667,37.5 68.8333,37.5 68.5,37.5C 68.5,37.1667 68.5,36.8333 68.5,36.5C 70.8333,36.5 73.1667,36.5 75.5,36.5C 75.5,35.5 75.5,34.5 75.5,33.5C 73.2646,33.7947 71.2646,33.4614 69.5,32.5 Z"/></g>
<g><path style="opacity:1" fill="#19a05f" d="M 86.5,30.5 C 86.5,31.1667 86.5,31.8333 86.5,32.5C 85.5275,34.1392 84.1942,35.4726 82.5,36.5C 80.4352,36.5172 78.4352,36.8505 76.5,37.5C 77.9448,35.9373 79.6115,34.604 81.5,33.5C 81.8333,33.5 82.1667,33.5 82.5,33.5C 83.8333,32.5 85.1667,31.5 86.5,30.5 Z"/></g>
<g><path style="opacity:1" fill="#31b97e" d="M 86.5,19.5 C 86.8333,19.5 87.1667,19.5 87.5,19.5C 88.1098,20.391 88.4431,21.391 88.5,22.5C 88.6355,25.5514 88.3022,28.5514 87.5,31.5C 87.737,34.0635 88.237,34.0635 89,31.5C 89.3988,31.7284 89.5654,32.0618 89.5,32.5C 89.5,33.5 89.5,34.5 89.5,35.5C 88.8333,35.5 88.5,35.8333 88.5,36.5C 87.6618,36.8417 87.3284,37.5084 87.5,38.5C 87.1667,38.5 86.8333,38.5 86.5,38.5C 86.5,36.5 86.5,34.5 86.5,32.5C 86.5,31.8333 86.5,31.1667 86.5,30.5C 87.6813,27.3623 87.6813,24.3623 86.5,21.5C 86.5,21.1667 86.5,20.8333 86.5,20.5C 86.5,20.1667 86.5,19.8333 86.5,19.5 Z"/></g>
<g><path style="opacity:1" fill="#1cbf72" d="M 48.5,27.5 C 48.5,27.8333 48.5,28.1667 48.5,28.5C 47.8505,30.4352 47.5172,32.4352 47.5,34.5C 46.0783,34.7086 44.745,35.2086 43.5,36C 44.0944,36.4643 44.7611,36.631 45.5,36.5C 43.8577,37.803 42.1911,39.1363 40.5,40.5C 40.5,39.8333 40.1667,39.5 39.5,39.5C 40.8772,37.7105 41.8772,35.7105 42.5,33.5C 43.1541,30.2179 45.1541,28.2179 48.5,27.5 Z"/></g>
<g><path style="opacity:1" fill="#28ce93" d="M 39.5,31.5 C 38.0256,32.4363 37.0256,33.7697 36.5,35.5C 35.2223,35.7822 34.2223,36.4489 33.5,37.5C 33.1667,37.5 32.8333,37.5 32.5,37.5C 33.2341,36.2921 33.5674,34.9587 33.5,33.5C 33.8333,32.5 34.5,31.8333 35.5,31.5C 36.4822,30.8592 37.4822,30.1925 38.5,29.5C 39.2975,29.9569 39.6309,30.6236 39.5,31.5 Z"/></g>
<g><path style="opacity:1" fill="#19bf6b" d="M 47.5,34.5 C 47.8333,34.5 48.1667,34.5 48.5,34.5C 51.1873,34.3359 53.854,34.5026 56.5,35C 57.2524,35.6708 57.5858,36.5041 57.5,37.5C 56.3951,36.3995 55.0618,35.7329 53.5,35.5C 52.8333,35.5 52.1667,35.5 51.5,35.5C 49.3792,35.3253 47.3792,35.6586 45.5,36.5C 44.7611,36.631 44.0944,36.4643 43.5,36C 44.745,35.2086 46.0783,34.7086 47.5,34.5 Z"/></g>
<g><path style="opacity:0.012" fill="#00aaa9" d="M 89.5,35.5 C 90.8333,36.1667 90.8333,36.1667 89.5,35.5 Z"/></g>
<g><path style="opacity:1" fill="#2cc486" d="M 68.5,36.5 C 68.5,36.8333 68.5,37.1667 68.5,37.5C 67.1667,37.5 65.8333,37.5 64.5,37.5C 64.5,39.1667 64.5,40.8333 64.5,42.5C 63.5987,41.7095 62.9321,40.7095 62.5,39.5C 62.1667,38.8333 61.8333,38.1667 61.5,37.5C 61.5,36.5 61.5,35.5 61.5,34.5C 64.1085,34.4003 66.4418,35.0669 68.5,36.5 Z"/></g>
<g><path style="opacity:1" fill="#25cb8e" d="M 32.5,37.5 C 32.8333,37.5 33.1667,37.5 33.5,37.5C 31.7341,42.6643 30.7341,47.9977 30.5,53.5C 29.609,54.1098 28.609,54.4431 27.5,54.5C 27.6896,52.3581 27.8563,50.0248 28,47.5C 28.9493,43.876 30.4493,40.5426 32.5,37.5 Z"/></g>
<g><path style="opacity:1" fill="#21b072" d="M 82.5,36.5 C 82.1667,37.1667 81.8333,37.8333 81.5,38.5C 78.2139,39.2071 74.8806,39.5405 71.5,39.5C 71.1667,39.5 70.8333,39.5 70.5,39.5C 70.5,38.8333 70.1667,38.5 69.5,38.5C 69.5,38.1667 69.5,37.8333 69.5,37.5C 71.8333,37.5 74.1667,37.5 76.5,37.5C 78.4352,36.8505 80.4352,36.5172 82.5,36.5 Z"/></g>
<g><path style="opacity:0.991" fill="#41c895" d="M 86.5,32.5 C 86.5,34.5 86.5,36.5 86.5,38.5C 86.5,38.8333 86.5,39.1667 86.5,39.5C 85.8333,39.5 85.5,39.8333 85.5,40.5C 84.8333,40.5 84.5,40.8333 84.5,41.5C 84.1667,41.5 83.8333,41.5 83.5,41.5C 83.573,39.9731 82.9063,38.9731 81.5,38.5C 81.8333,37.8333 82.1667,37.1667 82.5,36.5C 84.1942,35.4726 85.5275,34.1392 86.5,32.5 Z"/></g>
<g><path style="opacity:0.008" fill="#28a78d" d="M 88.5,36.5 C 88.8333,36.5 89.1667,36.5 89.5,36.5C 89.6716,37.4916 89.3382,38.1583 88.5,38.5C 88.5,37.8333 88.5,37.1667 88.5,36.5 Z"/></g>
<g><path style="opacity:1" fill="#70ca9b" d="M 51.5,35.5 C 51.719,36.675 51.3857,37.675 50.5,38.5C 47.727,39.9699 44.8937,41.3032 42,42.5C 41.2352,42.4301 40.7352,42.0967 40.5,41.5C 40.5,41.1667 40.5,40.8333 40.5,40.5C 42.1911,39.1363 43.8577,37.803 45.5,36.5C 47.3792,35.6586 49.3792,35.3253 51.5,35.5 Z"/></g>
<g><path style="opacity:0.012" fill="#00aa54" d="M 87.5,38.5 C 87.8333,38.5 88.1667,38.5 88.5,38.5C 88.3147,39.1701 87.9813,39.1701 87.5,38.5 Z"/></g>
<g><path style="opacity:1" fill="#47d2a2" d="M 81.5,38.5 C 82.9063,38.9731 83.573,39.9731 83.5,41.5C 82.391,41.5569 81.391,41.8902 80.5,42.5C 77.7967,40.89 74.7967,39.89 71.5,39.5C 74.8806,39.5405 78.2139,39.2071 81.5,38.5 Z"/></g>
<g><path style="opacity:0.008" fill="#00ff7e" d="M 86.5,39.5 C 86.8333,39.5 87.1667,39.5 87.5,39.5C 87.3147,40.1701 86.9813,40.1701 86.5,39.5 Z"/></g>
<g><path style="opacity:0.997" fill="#34d5a0" d="M 33.5,33.5 C 33.5674,34.9587 33.2341,36.2921 32.5,37.5C 30.4493,40.5426 28.9493,43.876 28,47.5C 27.8563,50.0248 27.6896,52.3581 27.5,54.5C 25.0971,54.448 22.7638,54.7814 20.5,55.5C 20.5,55.1667 20.5,54.8333 20.5,54.5C 20.5,54.1667 20.5,53.8333 20.5,53.5C 20.5,53.1667 20.5,52.8333 20.5,52.5C 20.4346,52.0618 20.6012,51.7284 21,51.5C 21.2784,52.4158 21.7784,53.0825 22.5,53.5C 23.7498,53.4226 24.5831,52.756 25,51.5C 25.7299,46.0504 27.5633,41.0504 30.5,36.5C 31.1667,35.1667 32.1667,34.1667 33.5,33.5 Z"/></g>
<g><path style="opacity:1" fill="#38b774" d="M 51.5,35.5 C 52.1667,35.5 52.8333,35.5 53.5,35.5C 53.9528,36.4584 54.6195,37.2917 55.5,38C 52.8085,39.6048 50.1418,41.1048 47.5,42.5C 44.646,42.9239 41.9793,43.9239 39.5,45.5C 38.7025,45.0431 38.3691,44.3764 38.5,43.5C 38.8333,42.5 39.5,41.8333 40.5,41.5C 40.7352,42.0967 41.2352,42.4301 42,42.5C 44.8937,41.3032 47.727,39.9699 50.5,38.5C 51.3857,37.675 51.719,36.675 51.5,35.5 Z"/></g>
<g><path style="opacity:1" fill="#39cf98" d="M 68.5,37.5 C 68.8333,37.5 69.1667,37.5 69.5,37.5C 69.5,37.8333 69.5,38.1667 69.5,38.5C 68.5,38.5 67.5,38.5 66.5,38.5C 66.7556,41.5979 67.4222,44.5979 68.5,47.5C 68.5,49.5 68.5,51.5 68.5,53.5C 67.8333,51.5 67.1667,49.5 66.5,47.5C 66.7709,45.6203 66.1042,44.287 64.5,43.5C 64.5,43.1667 64.5,42.8333 64.5,42.5C 64.5,40.8333 64.5,39.1667 64.5,37.5C 65.8333,37.5 67.1667,37.5 68.5,37.5 Z"/></g>
<g><path style="opacity:0.012" fill="#00ff54" d="M 85.5,40.5 C 85.8333,40.5 86.1667,40.5 86.5,40.5C 86.3147,41.1701 85.9813,41.1701 85.5,40.5 Z"/></g>
<g><path style="opacity:0.012" fill="#3effdb" d="M 25.5,41.5 C 24.6618,41.8417 24.3284,42.5084 24.5,43.5C 24.1667,43.5 23.8333,43.5 23.5,43.5C 23.3118,41.8967 23.8118,40.5634 25,39.5C 25.4643,40.0944 25.631,40.7611 25.5,41.5 Z"/></g>
<g><path style="opacity:1" fill="#28b065" d="M 53.5,35.5 C 55.0618,35.7329 56.3951,36.3995 57.5,37.5C 58.1667,37.5 58.5,37.8333 58.5,38.5C 55.8333,39.8333 53.1667,41.1667 50.5,42.5C 49.8333,42.5 49.1667,42.5 48.5,42.5C 48.1667,42.5 47.8333,42.5 47.5,42.5C 50.1418,41.1048 52.8085,39.6048 55.5,38C 54.6195,37.2917 53.9528,36.4584 53.5,35.5 Z"/></g>
<g><path style="opacity:1" fill="#24a85c" d="M 58.5,38.5 C 59.5,38.8333 60.1667,39.5 60.5,40.5C 59.3285,41.3446 57.9952,42.0113 56.5,42.5C 55.5,42.5 54.5,42.5 53.5,42.5C 52.5,42.5 51.5,42.5 50.5,42.5C 53.1667,41.1667 55.8333,39.8333 58.5,38.5 Z"/></g>
<g><path style="opacity:1" fill="#1fc785" d="M 36.5,35.5 C 34.7795,38.992 33.4462,42.6587 32.5,46.5C 32.0074,48.8056 31.6741,51.139 31.5,53.5C 31.1667,53.5 30.8333,53.5 30.5,53.5C 30.7341,47.9977 31.7341,42.6643 33.5,37.5C 34.2223,36.4489 35.2223,35.7822 36.5,35.5 Z"/></g>
<g><path style="opacity:0.757" fill="#2c9964" d="M 83.5,41.5 C 83.5,41.8333 83.5,42.1667 83.5,42.5C 82.1667,42.8333 82.1667,43.1667 83.5,43.5C 82.0003,45.1786 80.167,46.5119 78,47.5C 77.6667,48.5 77.3333,49.5 77,50.5C 76.7679,49.2625 76.2679,48.2625 75.5,47.5C 75.5,46.8333 75.5,46.1667 75.5,45.5C 75.5,45.1667 75.5,44.8333 75.5,44.5C 77.0495,43.5592 78.7162,42.8925 80.5,42.5C 81.391,41.8902 82.391,41.5569 83.5,41.5 Z"/></g>
<g><path style="opacity:0.004" fill="#1e5930" d="M 84.5,41.5 C 84.8333,41.5 85.1667,41.5 85.5,41.5C 85.5,42.8333 84.8333,43.5 83.5,43.5C 83.5,43.1667 83.5,42.8333 83.5,42.5C 84.1667,42.5 84.5,42.1667 84.5,41.5 Z"/></g>
<g><path style="opacity:1" fill="#209b4f" d="M 60.5,40.5 C 60.8333,40.5 61.1667,40.5 61.5,40.5C 61.5,41.8333 61.5,43.1667 61.5,44.5C 60.5,44.5 59.5,44.5 58.5,44.5C 57.5,44.5 56.5,44.5 55.5,44.5C 55.8333,43.8333 56.1667,43.1667 56.5,42.5C 57.9952,42.0113 59.3285,41.3446 60.5,40.5 Z"/></g>
<g><path style="opacity:1" fill="#5fddb5" d="M 70.5,39.5 C 70.8333,39.5 71.1667,39.5 71.5,39.5C 74.7967,39.89 77.7967,40.89 80.5,42.5C 78.7162,42.8925 77.0495,43.5592 75.5,44.5C 73.4727,44.6621 71.4727,44.4955 69.5,44C 67.9568,41.9551 68.2901,40.4551 70.5,39.5 Z"/></g>
<g><path style="opacity:1" fill="#6de4c4" d="M 28.5,36.5 C 28.8333,36.5 29.1667,36.5 29.5,36.5C 29.8333,36.5 30.1667,36.5 30.5,36.5C 27.5633,41.0504 25.7299,46.0504 25,51.5C 24.5831,52.756 23.7498,53.4226 22.5,53.5C 23.0796,50.0346 23.4129,46.7013 23.5,43.5C 23.8333,47.5 24.1667,47.5 24.5,43.5C 25.3382,43.1583 25.6716,42.4916 25.5,41.5C 26.6737,40.4863 27.3404,39.153 27.5,37.5C 28.1667,37.5 28.5,37.1667 28.5,36.5 Z"/></g>
<g><path style="opacity:1" fill="#1da455" d="M 48.5,42.5 C 49.1667,42.5 49.8333,42.5 50.5,42.5C 51.5,42.5 52.5,42.5 53.5,42.5C 50.038,43.8695 46.7046,45.5361 43.5,47.5C 43.5,47.8333 43.5,48.1667 43.5,48.5C 40.779,48.9628 38.1123,49.6295 35.5,50.5C 36.1098,49.609 36.4431,48.609 36.5,47.5C 40.9984,46.9142 44.9984,45.2475 48.5,42.5 Z"/></g>
<g><path style="opacity:1" fill="#1a9f4e" d="M 53.5,42.5 C 54.5,42.5 55.5,42.5 56.5,42.5C 56.1667,43.1667 55.8333,43.8333 55.5,44.5C 51.4043,45.1906 47.4043,46.1906 43.5,47.5C 46.7046,45.5361 50.038,43.8695 53.5,42.5 Z"/></g>
<g><path style="opacity:1" fill="#26ad63" d="M 47.5,42.5 C 47.8333,42.5 48.1667,42.5 48.5,42.5C 44.9984,45.2475 40.9984,46.9142 36.5,47.5C 36.6596,45.847 37.3263,44.5137 38.5,43.5C 38.3691,44.3764 38.7025,45.0431 39.5,45.5C 41.9793,43.9239 44.646,42.9239 47.5,42.5 Z"/></g>
<g><path style="opacity:1" fill="#179947" d="M 55.5,44.5 C 56.5,44.5 57.5,44.5 58.5,44.5C 54.738,45.585 51.0713,46.9183 47.5,48.5C 46.1667,48.5 44.8333,48.5 43.5,48.5C 43.5,48.1667 43.5,47.8333 43.5,47.5C 47.4043,46.1906 51.4043,45.1906 55.5,44.5 Z"/></g>
<g><path style="opacity:1" fill="#49d8a8" d="M 69.5,38.5 C 70.1667,38.5 70.5,38.8333 70.5,39.5C 68.2901,40.4551 67.9568,41.9551 69.5,44C 71.4727,44.4955 73.4727,44.6621 75.5,44.5C 75.5,44.8333 75.5,45.1667 75.5,45.5C 73.9582,46.3007 72.2915,46.634 70.5,46.5C 70.6621,48.5273 70.4955,50.5273 70,52.5C 69.8019,50.6183 69.3019,48.9516 68.5,47.5C 67.4222,44.5979 66.7556,41.5979 66.5,38.5C 67.5,38.5 68.5,38.5 69.5,38.5 Z"/></g>
<g><path style="opacity:1" fill="#10b059" d="M 39.5,39.5 C 40.1667,39.5 40.5,39.8333 40.5,40.5C 40.5,40.8333 40.5,41.1667 40.5,41.5C 39.5,41.8333 38.8333,42.5 38.5,43.5C 37.3263,44.5137 36.6596,45.847 36.5,47.5C 36.4431,48.609 36.1098,49.609 35.5,50.5C 35.1667,50.5 34.8333,50.5 34.5,50.5C 34.5,49.5 34.5,48.5 34.5,47.5C 34.5569,46.391 34.8902,45.391 35.5,44.5C 36.604,42.6115 37.9373,40.9448 39.5,39.5 Z"/></g>
<g><path style="opacity:1" fill="#138f3e" d="M 62.5,39.5 C 62.9321,40.7095 63.5987,41.7095 64.5,42.5C 64.5,42.8333 64.5,43.1667 64.5,43.5C 64.5,44.1667 64.5,44.8333 64.5,45.5C 64.5,45.8333 64.5,46.1667 64.5,46.5C 61.8393,45.6456 59.5059,46.3122 57.5,48.5C 55.4352,48.5172 53.4352,48.8505 51.5,49.5C 50.1667,49.5 48.8333,49.5 47.5,49.5C 47.5,49.1667 47.5,48.8333 47.5,48.5C 51.0713,46.9183 54.738,45.585 58.5,44.5C 59.5,44.5 60.5,44.5 61.5,44.5C 61.5,43.1667 61.5,41.8333 61.5,40.5C 61.5,39.8333 61.8333,39.5 62.5,39.5 Z"/></g>
<g><path style="opacity:1" fill="#0e8635" d="M 57.5,48.5 C 57.5,48.8333 57.5,49.1667 57.5,49.5C 50.2899,52.2058 42.9566,53.8725 35.5,54.5C 35.5,55.1667 35.5,55.8333 35.5,56.5C 34.5655,55.4324 34.2322,54.099 34.5,52.5C 34.8333,52.5 35.1667,52.5 35.5,52.5C 41.1373,52.4147 46.4706,51.4147 51.5,49.5C 53.4352,48.8505 55.4352,48.5172 57.5,48.5 Z"/></g>
<g><path style="opacity:1" fill="#108234" d="M 64.5,46.5 C 64.7947,48.7354 64.4614,50.7354 63.5,52.5C 64.0103,47.8308 62.6769,46.8308 59.5,49.5C 58.8333,49.5 58.1667,49.5 57.5,49.5C 57.5,49.1667 57.5,48.8333 57.5,48.5C 59.5059,46.3122 61.8393,45.6456 64.5,46.5 Z"/></g>
<g><path style="opacity:1" fill="#11934d" d="M 64.5,45.5 C 65.8671,49.1046 65.7004,52.7713 64,56.5C 61.4687,59.8881 58.302,62.2214 54.5,63.5C 54.5,63.1667 54.5,62.8333 54.5,62.5C 56.4044,62.2624 57.7377,61.2624 58.5,59.5C 59.5,59.1667 60.1667,58.5 60.5,57.5C 61.1667,57.5 61.5,57.1667 61.5,56.5C 62.6737,55.4863 63.3404,54.153 63.5,52.5C 64.4614,50.7354 64.7947,48.7354 64.5,46.5C 64.5,46.1667 64.5,45.8333 64.5,45.5 Z"/></g>
<g><path style="opacity:0.998" fill="#3fd09b" d="M 75.5,45.5 C 75.5,46.1667 75.5,46.8333 75.5,47.5C 75.5,48.8333 75.5,50.1667 75.5,51.5C 74.5655,52.5676 74.2322,53.901 74.5,55.5C 73.6618,55.8417 73.3284,56.5084 73.5,57.5C 72.8333,57.5 72.5,57.8333 72.5,58.5C 69.5159,58.2132 68.1826,56.5465 68.5,53.5C 68.5,51.5 68.5,49.5 68.5,47.5C 69.3019,48.9516 69.8019,50.6183 70,52.5C 70.4955,50.5273 70.6621,48.5273 70.5,46.5C 72.2915,46.634 73.9582,46.3007 75.5,45.5 Z"/></g>
<g><path style="opacity:1" fill="#129443" d="M 43.5,48.5 C 44.8333,48.5 46.1667,48.5 47.5,48.5C 47.5,48.8333 47.5,49.1667 47.5,49.5C 43.2976,50.1316 39.2976,51.1316 35.5,52.5C 35.1667,52.5 34.8333,52.5 34.5,52.5C 34.5,51.8333 34.5,51.1667 34.5,50.5C 34.8333,50.5 35.1667,50.5 35.5,50.5C 38.1123,49.6295 40.779,48.9628 43.5,48.5 Z"/></g>
<g><path style="opacity:1" fill="#108c3a" d="M 47.5,49.5 C 48.8333,49.5 50.1667,49.5 51.5,49.5C 46.4706,51.4147 41.1373,52.4147 35.5,52.5C 39.2976,51.1316 43.2976,50.1316 47.5,49.5 Z"/></g>
<g><path style="opacity:1" fill="#0c7d2e" d="M 57.5,49.5 C 58.1667,49.5 58.8333,49.5 59.5,49.5C 59.1667,50.1667 58.8333,50.8333 58.5,51.5C 55.0633,51.5519 52.0633,52.7186 49.5,55C 46.854,55.4974 44.1873,55.6641 41.5,55.5C 39.6208,54.6586 37.6208,54.3253 35.5,54.5C 42.9566,53.8725 50.2899,52.2058 57.5,49.5 Z"/></g>
<g><path style="opacity:1" fill="#0a7025" d="M 63.5,52.5 C 63.3404,54.153 62.6737,55.4863 61.5,56.5C 61.87,52.8141 60.5367,51.8141 57.5,53.5C 57.8333,52.8333 58.1667,52.1667 58.5,51.5C 58.8333,50.8333 59.1667,50.1667 59.5,49.5C 62.6769,46.8308 64.0103,47.8308 63.5,52.5 Z"/></g>
<g><path style="opacity:0.004" fill="#4cd0cc" d="M 20.5,52.5 C 20.5,52.8333 20.5,53.1667 20.5,53.5C 19.1667,53.8333 19.1667,54.1667 20.5,54.5C 20.5,54.8333 20.5,55.1667 20.5,55.5C 19.8333,55.5 19.1667,55.5 18.5,55.5C 18.1667,54.1667 17.8333,54.1667 17.5,55.5C 17.1667,55.5 16.8333,55.5 16.5,55.5C 15.8333,55.5 15.5,55.8333 15.5,56.5C 14.8333,56.5 14.5,56.8333 14.5,57.5C 13.8333,57.5 13.5,57.8333 13.5,58.5C 12.8333,58.5 12.5,58.8333 12.5,59.5C 11.9569,59.44 11.6236,59.1067 11.5,58.5C 13.66,55.2524 16.66,53.2524 20.5,52.5 Z"/></g>
<g><path style="opacity:1" fill="#1ab973" d="M 34.5,44.5 C 34.8333,44.5 35.1667,44.5 35.5,44.5C 34.8902,45.391 34.5569,46.391 34.5,47.5C 33.5489,48.9187 33.2155,50.5853 33.5,52.5C 32.9851,54.7512 31.9851,56.7512 30.5,58.5C 29.1667,57.8333 27.8333,57.1667 26.5,56.5C 29.285,57.0838 30.9517,56.0838 31.5,53.5C 31.6741,51.139 32.0074,48.8056 32.5,46.5C 33.1667,45.8333 33.8333,45.1667 34.5,44.5 Z"/></g>
<g><path style="opacity:0.006" fill="#64ebd7" d="M 75.5,51.5 C 76.8333,52.8333 76.8333,54.1667 75.5,55.5C 75.5,54.1667 75.5,52.8333 75.5,51.5 Z"/></g>
<g><path style="opacity:1" fill="#0b7327" d="M 58.5,51.5 C 58.1667,52.1667 57.8333,52.8333 57.5,53.5C 55.368,53.5544 54.0347,54.5544 53.5,56.5C 49.2984,56.8168 45.2984,56.4834 41.5,55.5C 44.1873,55.6641 46.854,55.4974 49.5,55C 52.0633,52.7186 55.0633,51.5519 58.5,51.5 Z"/></g>
<g><path style="opacity:1" fill="#096820" d="M 61.5,56.5 C 61.5,57.1667 61.1667,57.5 60.5,57.5C 60.0133,56.5266 59.5133,55.5266 59,54.5C 57.2745,55.464 55.4412,56.1307 53.5,56.5C 54.0347,54.5544 55.368,53.5544 57.5,53.5C 60.5367,51.8141 61.87,52.8141 61.5,56.5 Z"/></g>
<g><path style="opacity:1" fill="#08611d" d="M 60.5,57.5 C 60.1667,58.5 59.5,59.1667 58.5,59.5C 58.5299,58.5028 58.0299,57.8361 57,57.5C 52.2874,59.2459 47.4541,59.7459 42.5,59C 41.944,58.6174 41.6107,58.1174 41.5,57.5C 45.7016,57.8168 49.7016,57.4834 53.5,56.5C 55.4412,56.1307 57.2745,55.464 59,54.5C 59.5133,55.5266 60.0133,56.5266 60.5,57.5 Z"/></g>
<g><path style="opacity:0.998" fill="#1fbf7d" d="M 30.5,53.5 C 30.8333,53.5 31.1667,53.5 31.5,53.5C 30.9517,56.0838 29.285,57.0838 26.5,56.5C 24.5,56.5 22.5,56.5 20.5,56.5C 20.5,56.1667 20.5,55.8333 20.5,55.5C 22.7638,54.7814 25.0971,54.448 27.5,54.5C 28.609,54.4431 29.609,54.1098 30.5,53.5 Z"/></g>
<g><path style="opacity:1" fill="#14a75c" d="M 34.5,47.5 C 34.5,48.5 34.5,49.5 34.5,50.5C 34.5,51.1667 34.5,51.8333 34.5,52.5C 34.2322,54.099 34.5655,55.4324 35.5,56.5C 35.3284,57.4916 35.6618,58.1583 36.5,58.5C 37.1098,59.391 37.4431,60.391 37.5,61.5C 33.9915,59.6209 32.6581,56.6209 33.5,52.5C 33.2155,50.5853 33.5489,48.9187 34.5,47.5 Z"/></g>
<g><path style="opacity:1" fill="#1cb46d" d="M 33.5,52.5 C 32.6581,56.6209 33.9915,59.6209 37.5,61.5C 37.5,62.1667 37.5,62.8333 37.5,63.5C 36.5178,62.8592 35.5178,62.1925 34.5,61.5C 33.6143,62.325 33.281,63.325 33.5,64.5C 32.5084,64.6716 31.8417,64.3382 31.5,63.5C 31.6085,61.4862 30.9418,59.8195 29.5,58.5C 29.8333,58.5 30.1667,58.5 30.5,58.5C 31.9851,56.7512 32.9851,54.7512 33.5,52.5 Z"/></g>
<g><path style="opacity:1" fill="#096d24" d="M 35.5,54.5 C 37.6208,54.3253 39.6208,54.6586 41.5,55.5C 45.2984,56.4834 49.2984,56.8168 53.5,56.5C 49.7016,57.4834 45.7016,57.8168 41.5,57.5C 40.0695,57.5792 38.7362,57.2458 37.5,56.5C 36.7025,56.9569 36.3691,57.6236 36.5,58.5C 35.6618,58.1583 35.3284,57.4916 35.5,56.5C 35.5,55.8333 35.5,55.1667 35.5,54.5 Z"/></g>
<g><path style="opacity:0.997" fill="#36c48d" d="M 66.5,47.5 C 67.1667,49.5 67.8333,51.5 68.5,53.5C 68.1826,56.5465 69.5159,58.2132 72.5,58.5C 72.5,58.8333 72.5,59.1667 72.5,59.5C 71.6618,59.8417 71.3284,60.5084 71.5,61.5C 70.8333,61.5 70.5,61.8333 70.5,62.5C 69.8333,62.5 69.5,62.8333 69.5,63.5C 68.8333,63.5 68.5,63.8333 68.5,64.5C 66.9256,64.0629 65.7589,63.0629 65,61.5C 63.64,64.4018 61.8066,66.0685 59.5,66.5C 59.5,66.1667 59.5,65.8333 59.5,65.5C 62.4707,63.5574 64.4707,60.8908 65.5,57.5C 66.3242,54.2356 66.6576,50.9023 66.5,47.5 Z"/></g>
<g><path style="opacity:0.012" fill="#4ba45b" d="M 74.5,55.5 C 74.8333,55.5 75.1667,55.5 75.5,55.5C 75.6716,56.4916 75.3382,57.1583 74.5,57.5C 74.5,56.8333 74.5,56.1667 74.5,55.5 Z"/></g>
<g><path style="opacity:0.997" fill="#1bb870" d="M 19.5,56.5 C 19.8333,56.5 20.1667,56.5 20.5,56.5C 22.5,56.5 24.5,56.5 26.5,56.5C 27.8333,57.1667 29.1667,57.8333 30.5,58.5C 30.1667,58.5 29.8333,58.5 29.5,58.5C 25.6473,56.8974 21.9807,57.2308 18.5,59.5C 18.5569,58.391 18.8902,57.391 19.5,56.5 Z"/></g>
<g><path style="opacity:1" fill="#16b366" d="M 29.5,58.5 C 30.9418,59.8195 31.6085,61.4862 31.5,63.5C 29.1423,59.9229 25.809,58.7563 21.5,60C 20.7476,60.6708 20.4142,61.5041 20.5,62.5C 20.0269,63.9063 19.0269,64.573 17.5,64.5C 17.6287,62.7839 17.962,61.1172 18.5,59.5C 21.9807,57.2308 25.6473,56.8974 29.5,58.5 Z"/></g>
<g><path style="opacity:1" fill="#07591a" d="M 41.5,57.5 C 41.6107,58.1174 41.944,58.6174 42.5,59C 47.4541,59.7459 52.2874,59.2459 57,57.5C 58.0299,57.8361 58.5299,58.5028 58.5,59.5C 57.7377,61.2624 56.4044,62.2624 54.5,62.5C 53.0474,61.1751 53.3808,60.3418 55.5,60C 55,59.8333 54.5,59.6667 54,59.5C 50.8948,60.3672 47.7281,60.7006 44.5,60.5C 42.9397,60.4809 41.4397,60.1476 40,59.5C 38.9701,59.8361 38.4701,60.5028 38.5,61.5C 38.1667,61.5 37.8333,61.5 37.5,61.5C 37.4431,60.391 37.1098,59.391 36.5,58.5C 36.3691,57.6236 36.7025,56.9569 37.5,56.5C 38.7362,57.2458 40.0695,57.5792 41.5,57.5 Z"/></g>
<g><path style="opacity:0.008" fill="#189787" d="M 73.5,57.5 C 73.8333,57.5 74.1667,57.5 74.5,57.5C 74.6716,58.4916 74.3382,59.1583 73.5,59.5C 73.5,58.8333 73.5,58.1667 73.5,57.5 Z"/></g>
<g><path style="opacity:1" fill="#12ae5b" d="M 31.5,63.5 C 31.8417,64.3382 32.5084,64.6716 33.5,64.5C 33.8333,65.1667 34.1667,65.8333 34.5,66.5C 33.8333,66.5 33.5,66.8333 33.5,67.5C 33.1667,67.5 32.8333,67.5 32.5,67.5C 32.1667,66.5 31.5,65.8333 30.5,65.5C 30.3893,64.8826 30.056,64.3826 29.5,64C 27.1902,63.5034 24.8568,63.3367 22.5,63.5C 24.2922,62.6909 26.2922,62.1909 28.5,62C 25.7395,61.2782 23.0728,61.4448 20.5,62.5C 20.4142,61.5041 20.7476,60.6708 21.5,60C 25.809,58.7563 29.1423,59.9229 31.5,63.5 Z"/></g>
<g><path style="opacity:0.012" fill="#55aaa9" d="M 72.5,59.5 C 72.8333,59.5 73.1667,59.5 73.5,59.5C 73.3147,60.1701 72.9813,60.1701 72.5,59.5 Z"/></g>
<g><path style="opacity:0.992" fill="#23c889" d="M 19.5,56.5 C 18.8902,57.391 18.5569,58.391 18.5,59.5C 17.2794,60.0283 16.1127,60.695 15,61.5C 14.0997,64.7177 12.933,67.7177 11.5,70.5C 11.4013,67.7628 11.7347,65.0961 12.5,62.5C 13.9197,59.4123 16.253,57.4123 19.5,56.5 Z"/></g>
<g><path style="opacity:1" fill="#1ba867" d="M 64.5,43.5 C 66.1042,44.287 66.7709,45.6203 66.5,47.5C 66.6576,50.9023 66.3242,54.2356 65.5,57.5C 62.5,59.8333 59.8333,62.5 57.5,65.5C 52.5012,67.5937 47.5012,67.927 42.5,66.5C 45.5184,66.6646 48.5184,66.498 51.5,66C 52.9423,65.6232 53.9423,64.7899 54.5,63.5C 58.302,62.2214 61.4687,59.8881 64,56.5C 65.7004,52.7713 65.8671,49.1046 64.5,45.5C 64.5,44.8333 64.5,44.1667 64.5,43.5 Z"/></g>
<g><path style="opacity:0.675" fill="#62e3cb" d="M 16.5,55.5 C 16.8333,55.5 17.1667,55.5 17.5,55.5C 17.8333,55.5 18.1667,55.5 18.5,55.5C 19.1667,55.5 19.8333,55.5 20.5,55.5C 20.5,55.8333 20.5,56.1667 20.5,56.5C 20.1667,56.5 19.8333,56.5 19.5,56.5C 16.253,57.4123 13.9197,59.4123 12.5,62.5C 11.8333,62.5 11.1667,62.5 10.5,62.5C 9.83333,62.5 9.5,62.8333 9.5,63.5C 8.47498,63.1034 8.30831,62.4368 9,61.5C 10.5523,61.9889 11.719,61.3223 12.5,59.5C 13.1667,59.5 13.5,59.1667 13.5,58.5C 13.5,57.8333 13.8333,57.5 14.5,57.5C 15.1667,57.5 15.5,57.1667 15.5,56.5C 16.1667,56.5 16.5,56.1667 16.5,55.5 Z"/></g>
<g><path style="opacity:1" fill="#055116" d="M 54.5,62.5 C 54.5,62.8333 54.5,63.1667 54.5,63.5C 52.8828,64.038 51.2161,64.3713 49.5,64.5C 49.0825,63.7784 48.4158,63.2784 47.5,63C 48.8333,62.6667 50.1667,62.3333 51.5,62C 48.9644,61.8138 46.631,61.3138 44.5,60.5C 47.7281,60.7006 50.8948,60.3672 54,59.5C 54.5,59.6667 55,59.8333 55.5,60C 53.3808,60.3418 53.0474,61.1751 54.5,62.5 Z"/></g>
<g><path style="opacity:0.012" fill="#00aa54" d="M 71.5,61.5 C 72.8333,62.1667 72.8333,62.1667 71.5,61.5 Z"/></g>
<g><path style="opacity:1" fill="#054f17" d="M 44.5,60.5 C 46.631,61.3138 48.9644,61.8138 51.5,62C 50.1667,62.3333 48.8333,62.6667 47.5,63C 48.4158,63.2784 49.0825,63.7784 49.5,64.5C 45.1762,66.163 41.5095,65.163 38.5,61.5C 38.4701,60.5028 38.9701,59.8361 40,59.5C 41.4397,60.1476 42.9397,60.4809 44.5,60.5 Z"/></g>
<g><path style="opacity:0.996" fill="#32ab75" d="M 68.5,64.5 C 69.1667,64.5 69.5,64.1667 69.5,63.5C 70.1667,63.5 70.5,63.1667 70.5,62.5C 70.8333,62.5 71.1667,62.5 71.5,62.5C 68.3815,68.2837 63.7148,72.2837 57.5,74.5C 57.5,74.1667 57.5,73.8333 57.5,73.5C 58.8333,73.1667 58.8333,72.8333 57.5,72.5C 57.4431,71.391 57.1098,70.391 56.5,69.5C 56.8333,68.8333 57.1667,68.1667 57.5,67.5C 58.1667,67.1667 58.8333,66.8333 59.5,66.5C 61.8066,66.0685 63.64,64.4018 65,61.5C 65.7589,63.0629 66.9256,64.0629 68.5,64.5 Z"/></g>
<g><path style="opacity:1" fill="#25bd7d" d="M 37.5,63.5 C 38.5,63.8333 39.1667,64.5 39.5,65.5C 38.8333,65.5 38.1667,65.5 37.5,65.5C 37.44,64.9569 37.1067,64.6236 36.5,64.5C 35.6143,65.325 35.281,66.325 35.5,67.5C 34.8333,67.5 34.5,67.1667 34.5,66.5C 34.1667,65.8333 33.8333,65.1667 33.5,64.5C 33.281,63.325 33.6143,62.325 34.5,61.5C 35.5178,62.1925 36.5178,62.8592 37.5,63.5 Z"/></g>
<g><path style="opacity:1" fill="#24b176" d="M 65.5,57.5 C 64.4707,60.8908 62.4707,63.5574 59.5,65.5C 58.8333,65.5 58.1667,65.5 57.5,65.5C 59.8333,62.5 62.5,59.8333 65.5,57.5 Z"/></g>
<g><path style="opacity:1" fill="#18ba71" d="M 18.5,59.5 C 17.962,61.1172 17.6287,62.7839 17.5,64.5C 15.0605,67.0434 13.3938,70.0434 12.5,73.5C 12.5,74.1667 12.5,74.8333 12.5,75.5C 12.5,77.5 12.5,79.5 12.5,81.5C 11.0069,80.6879 10.3402,79.3545 10.5,77.5C 10.9971,75.1817 11.3305,72.8484 11.5,70.5C 12.933,67.7177 14.0997,64.7177 15,61.5C 16.1127,60.695 17.2794,60.0283 18.5,59.5 Z"/></g>
<g><path style="opacity:1" fill="#0ea652" d="M 22.5,63.5 C 20.8608,64.4725 19.5274,65.8058 18.5,67.5C 17.5,67.8333 16.8333,68.5 16.5,69.5C 15.5987,70.2905 14.9321,71.2905 14.5,72.5C 14.5,72.8333 14.5,73.1667 14.5,73.5C 13.8333,73.5 13.1667,73.5 12.5,73.5C 13.3938,70.0434 15.0605,67.0434 17.5,64.5C 19.0269,64.573 20.0269,63.9063 20.5,62.5C 23.0728,61.4448 25.7395,61.2782 28.5,62C 26.2922,62.1909 24.2922,62.6909 22.5,63.5 Z"/></g>
<g><path style="opacity:1" fill="#128e4a" d="M 37.5,61.5 C 37.8333,61.5 38.1667,61.5 38.5,61.5C 41.5095,65.163 45.1762,66.163 49.5,64.5C 51.2161,64.3713 52.8828,64.038 54.5,63.5C 53.9423,64.7899 52.9423,65.6232 51.5,66C 48.5184,66.498 45.5184,66.6646 42.5,66.5C 41.609,65.8902 40.609,65.5569 39.5,65.5C 39.1667,64.5 38.5,63.8333 37.5,63.5C 37.5,62.8333 37.5,62.1667 37.5,61.5 Z"/></g>
<g><path style="opacity:1" fill="#48b97c" d="M 22.5,63.5 C 24.8568,63.3367 27.1902,63.5034 29.5,64C 30.056,64.3826 30.3893,64.8826 30.5,65.5C 26.6836,66.4824 22.6836,67.1491 18.5,67.5C 19.5274,65.8058 20.8608,64.4725 22.5,63.5 Z"/></g>
<g><path style="opacity:1" fill="#24a860" d="M 30.5,65.5 C 31.5,65.8333 32.1667,66.5 32.5,67.5C 27.3192,68.3151 21.9858,68.9818 16.5,69.5C 16.8333,68.5 17.5,67.8333 18.5,67.5C 22.6836,67.1491 26.6836,66.4824 30.5,65.5 Z"/></g>
<g><path style="opacity:1" fill="#25b47b" d="M 39.5,65.5 C 40.609,65.5569 41.609,65.8902 42.5,66.5C 47.5012,67.927 52.5012,67.5937 57.5,65.5C 58.1667,65.5 58.8333,65.5 59.5,65.5C 59.5,65.8333 59.5,66.1667 59.5,66.5C 58.8333,66.8333 58.1667,67.1667 57.5,67.5C 52.547,68.3292 47.547,68.6625 42.5,68.5C 42.1667,68.5 41.8333,68.5 41.5,68.5C 40.8333,67.5 40.1667,66.5 39.5,65.5 Z"/></g>
<g><path style="opacity:1" fill="#2dbd87" d="M 57.5,67.5 C 57.1667,68.1667 56.8333,68.8333 56.5,69.5C 55.0413,69.4326 53.7079,69.7659 52.5,70.5C 49.4816,70.6646 46.4816,70.498 43.5,70C 42.944,69.6174 42.6107,69.1174 42.5,68.5C 47.547,68.6625 52.547,68.3292 57.5,67.5 Z"/></g>
<g><path style="opacity:0.843" fill="#48e1b6" d="M 9.5,63.5 C 9.83333,63.5 10.1667,63.5 10.5,63.5C 10.8743,67.6474 9.87429,71.3141 7.5,74.5C 7.5,74.1667 7.5,73.8333 7.5,73.5C 7.5,72.1667 7.5,70.8333 7.5,69.5C 8.73838,67.7857 9.40505,65.7857 9.5,63.5 Z"/></g>
<g><path style="opacity:1" fill="#1c9f54" d="M 32.5,67.5 C 32.8333,67.5 33.1667,67.5 33.5,67.5C 33.5,68.1667 33.5,68.8333 33.5,69.5C 29.8183,69.3347 26.1516,69.5014 22.5,70C 21.5842,70.2784 20.9175,70.7784 20.5,71.5C 18.5,71.8333 16.5,72.1667 14.5,72.5C 14.9321,71.2905 15.5987,70.2905 16.5,69.5C 21.9858,68.9818 27.3192,68.3151 32.5,67.5 Z"/></g>
<g><path style="opacity:1" fill="#189748" d="M 33.5,69.5 C 29.4552,71.1773 25.1219,71.8439 20.5,71.5C 20.9175,70.7784 21.5842,70.2784 22.5,70C 26.1516,69.5014 29.8183,69.3347 33.5,69.5 Z"/></g>
<g><path style="opacity:1" fill="#46cea0" d="M 41.5,68.5 C 41.8333,68.5 42.1667,68.5 42.5,68.5C 42.6107,69.1174 42.944,69.6174 43.5,70C 46.4816,70.498 49.4816,70.6646 52.5,70.5C 52.5,71.8333 51.8333,72.5 50.5,72.5C 47.6926,71.3433 45.0259,71.3433 42.5,72.5C 41.8333,72.8333 41.1667,73.1667 40.5,73.5C 40.5792,72.0695 40.2458,70.7362 39.5,69.5C 39.9569,68.7025 40.6236,68.3691 41.5,68.5 Z"/></g>
<g><path style="opacity:0.998" fill="#3cce9b" d="M 56.5,69.5 C 57.1098,70.391 57.4431,71.391 57.5,72.5C 55.139,72.6741 52.8056,73.0074 50.5,73.5C 50.5,73.1667 50.5,72.8333 50.5,72.5C 51.8333,72.5 52.5,71.8333 52.5,70.5C 53.7079,69.7659 55.0413,69.4326 56.5,69.5 Z"/></g>
<g><path style="opacity:1" fill="#149242" d="M 34.5,66.5 C 34.5,67.1667 34.8333,67.5 35.5,67.5C 35.5,67.8333 35.5,68.1667 35.5,68.5C 34.596,69.209 34.2627,70.209 34.5,71.5C 27.8597,72.3462 21.193,73.0128 14.5,73.5C 14.5,73.1667 14.5,72.8333 14.5,72.5C 16.5,72.1667 18.5,71.8333 20.5,71.5C 25.1219,71.8439 29.4552,71.1773 33.5,69.5C 33.5,68.8333 33.5,68.1667 33.5,67.5C 33.5,66.8333 33.8333,66.5 34.5,66.5 Z"/></g>
<g><path style="opacity:0.999" fill="#4ed6aa" d="M 50.5,72.5 C 50.5,72.8333 50.5,73.1667 50.5,73.5C 49.5084,73.3284 48.8417,73.6618 48.5,74.5C 47.8333,74.5 47.1667,74.5 46.5,74.5C 44.6203,74.7709 43.287,74.1042 42.5,72.5C 45.0259,71.3433 47.6926,71.3433 50.5,72.5 Z"/></g>
<g><path style="opacity:1" fill="#118b3c" d="M 34.5,71.5 C 33.4863,72.6737 32.153,73.3404 30.5,73.5C 24.6268,73.596 18.9601,74.2627 13.5,75.5C 13.1667,75.5 12.8333,75.5 12.5,75.5C 12.5,74.8333 12.5,74.1667 12.5,73.5C 13.1667,73.5 13.8333,73.5 14.5,73.5C 21.193,73.0128 27.8597,72.3462 34.5,71.5 Z"/></g>
<g><path style="opacity:1" fill="#2ac789" d="M 37.5,65.5 C 36.9569,65.56 36.6236,65.8933 36.5,66.5C 38.2558,70.2879 38.9225,74.2879 38.5,78.5C 38.1667,78.5 37.8333,78.5 37.5,78.5C 37.8016,75.9407 37.4682,73.6074 36.5,71.5C 36.4431,70.391 36.1098,69.391 35.5,68.5C 35.5,68.1667 35.5,67.8333 35.5,67.5C 35.281,66.325 35.6143,65.325 36.5,64.5C 37.1067,64.6236 37.44,64.9569 37.5,65.5 Z"/></g>
<g><path style="opacity:0.725" fill="#24a566" d="M 57.5,72.5 C 57.5,72.8333 57.5,73.1667 57.5,73.5C 57.5,73.8333 57.5,74.1667 57.5,74.5C 55.68,76.4611 53.68,76.7944 51.5,75.5C 55.5,75.1667 55.5,74.8333 51.5,74.5C 50.5,74.5 49.5,74.5 48.5,74.5C 48.8417,73.6618 49.5084,73.3284 50.5,73.5C 52.8056,73.0074 55.139,72.6741 57.5,72.5 Z"/></g>
<g><path style="opacity:1" fill="#0e8536" d="M 30.5,73.5 C 30.5,73.8333 30.5,74.1667 30.5,74.5C 24.8698,75.2919 19.2031,75.6252 13.5,75.5C 18.9601,74.2627 24.6268,73.596 30.5,73.5 Z"/></g>
<g><path style="opacity:1" fill="#0d8639" d="M 35.5,68.5 C 36.1098,69.391 36.4431,70.391 36.5,71.5C 38.0482,77.7181 36.0482,82.0514 30.5,84.5C 30.5,84.1667 30.5,83.8333 30.5,83.5C 31.8333,82.8333 32.8333,81.8333 33.5,80.5C 35.2798,79.0101 35.9465,77.0101 35.5,74.5C 34.5,74.5 33.5,74.5 32.5,74.5C 31.8333,74.5 31.1667,74.5 30.5,74.5C 30.5,74.1667 30.5,73.8333 30.5,73.5C 32.153,73.3404 33.4863,72.6737 34.5,71.5C 34.2627,70.209 34.596,69.209 35.5,68.5 Z"/></g>
<g><path style="opacity:1" fill="#36cc95" d="M 37.5,65.5 C 38.1667,65.5 38.8333,65.5 39.5,65.5C 40.1667,66.5 40.8333,67.5 41.5,68.5C 40.6236,68.3691 39.9569,68.7025 39.5,69.5C 40.2458,70.7362 40.5792,72.0695 40.5,73.5C 40.628,75.6547 40.128,77.6547 39,79.5C 38.6012,79.2716 38.4346,78.9382 38.5,78.5C 38.9225,74.2879 38.2558,70.2879 36.5,66.5C 36.6236,65.8933 36.9569,65.56 37.5,65.5 Z"/></g>
<g><path style="opacity:0.997" fill="#39cc97" d="M 42.5,72.5 C 43.287,74.1042 44.6203,74.7709 46.5,74.5C 46.5,75.1667 46.5,75.8333 46.5,76.5C 45.8333,76.5 45.5,76.8333 45.5,77.5C 42.9162,78.0483 41.9162,79.715 42.5,82.5C 42.5,82.8333 42.5,83.1667 42.5,83.5C 41.8333,83.5 41.5,83.8333 41.5,84.5C 40.8333,84.5 40.5,84.8333 40.5,85.5C 40.1667,85.5 39.8333,85.5 39.5,85.5C 39.5386,84.2438 39.0386,83.2438 38,82.5C 36.549,84.4641 34.7157,85.7974 32.5,86.5C 32.5,86.1667 32.5,85.8333 32.5,85.5C 35.3644,83.9767 37.031,81.6433 37.5,78.5C 37.8333,78.5 38.1667,78.5 38.5,78.5C 38.4346,78.9382 38.6012,79.2716 39,79.5C 40.128,77.6547 40.628,75.6547 40.5,73.5C 41.1667,73.1667 41.8333,72.8333 42.5,72.5 Z"/></g>
<g><path style="opacity:1" fill="#0c8032" d="M 30.5,74.5 C 24.9305,76.0175 19.2638,77.0175 13.5,77.5C 13.5,77.8333 13.5,78.1667 13.5,78.5C 13.6287,80.2161 13.962,81.8828 14.5,83.5C 13.5,83.1667 12.8333,82.5 12.5,81.5C 12.5,79.5 12.5,77.5 12.5,75.5C 12.8333,75.5 13.1667,75.5 13.5,75.5C 19.2031,75.6252 24.8698,75.2919 30.5,74.5 Z"/></g>
<g><path style="opacity:1" fill="#0c792b" d="M 30.5,74.5 C 31.1667,74.5 31.8333,74.5 32.5,74.5C 31.9522,76.5323 30.6188,77.5323 28.5,77.5C 23.5411,78.3163 18.5411,78.3163 13.5,77.5C 19.2638,77.0175 24.9305,76.0175 30.5,74.5 Z"/></g>
<g><path style="opacity:1" fill="#096e23" d="M 32.5,74.5 C 33.5,74.5 34.5,74.5 35.5,74.5C 35.9465,77.0101 35.2798,79.0101 33.5,80.5C 33.4116,77.3937 32.0783,77.0603 29.5,79.5C 28.5,79.5 27.5,79.5 26.5,79.5C 27.1667,78.8333 27.8333,78.1667 28.5,77.5C 30.6188,77.5323 31.9522,76.5323 32.5,74.5 Z"/></g>
<g><path style="opacity:0.976" fill="#34d7a1" d="M 10.5,62.5 C 11.1667,62.5 11.8333,62.5 12.5,62.5C 11.7347,65.0961 11.4013,67.7628 11.5,70.5C 9.96046,72.8383 9.29379,75.5049 9.5,78.5C 8.83333,79.1667 8.16667,79.8333 7.5,80.5C 7.5,78.5 7.5,76.5 7.5,74.5C 9.87429,71.3141 10.8743,67.6474 10.5,63.5C 10.5,63.1667 10.5,62.8333 10.5,62.5 Z"/></g>
<g><path style="opacity:1" fill="#0a7126" d="M 13.5,78.5 C 13.5,78.1667 13.5,77.8333 13.5,77.5C 18.5411,78.3163 23.5411,78.3163 28.5,77.5C 27.8333,78.1667 27.1667,78.8333 26.5,79.5C 22.1018,79.7059 17.7685,79.3726 13.5,78.5 Z"/></g>
<g><path style="opacity:1" fill="#086822" d="M 13.5,78.5 C 17.7685,79.3726 22.1018,79.7059 26.5,79.5C 27.5,79.5 28.5,79.5 29.5,79.5C 26.8291,81.1181 23.8291,81.7847 20.5,81.5C 15.4053,79.8727 14.4053,81.206 17.5,85.5C 16.8333,85.5 16.1667,85.5 15.5,85.5C 15.1667,84.8333 14.8333,84.1667 14.5,83.5C 13.962,81.8828 13.6287,80.2161 13.5,78.5 Z"/></g>
<g><path style="opacity:1" fill="#07611c" d="M 33.5,80.5 C 32.8333,81.8333 31.8333,82.8333 30.5,83.5C 30.5299,82.5028 30.0299,81.8361 29,81.5C 26.0169,82.7321 23.1836,82.7321 20.5,81.5C 23.8291,81.7847 26.8291,81.1181 29.5,79.5C 32.0783,77.0603 33.4116,77.3937 33.5,80.5 Z"/></g>
<g><path style="opacity:0.769" fill="#358c59" d="M 46.5,74.5 C 47.1667,74.5 47.8333,74.5 48.5,74.5C 49.5,74.5 50.5,74.5 51.5,74.5C 51.5,74.8333 51.5,75.1667 51.5,75.5C 47.1074,75.4568 46.7741,75.9568 50.5,77C 47.7683,77.3981 45.935,78.8981 45,81.5C 43.8932,80.2881 43.3932,80.6214 43.5,82.5C 43.1667,82.5 42.8333,82.5 42.5,82.5C 41.9162,79.715 42.9162,78.0483 45.5,77.5C 46.1667,77.5 46.5,77.1667 46.5,76.5C 46.5,75.8333 46.5,75.1667 46.5,74.5 Z"/></g>
<g><path style="opacity:0.271" fill="#34ba8e" d="M 7.5,69.5 C 6.16667,70.8333 6.16667,72.1667 7.5,73.5C 7.5,73.8333 7.5,74.1667 7.5,74.5C 7.5,76.5 7.5,78.5 7.5,80.5C 7.5,83.5 7.5,86.5 7.5,89.5C 7.16667,89.5 6.83333,89.5 6.5,89.5C 6.16667,69.5 5.83333,69.5 5.5,89.5C 3.95883,81.8286 4.45883,74.162 7,66.5C 7.48278,67.448 7.64945,68.448 7.5,69.5 Z"/></g>
<g><path style="opacity:1" fill="#07581a" d="M 20.5,81.5 C 23.1836,82.7321 26.0169,82.7321 29,81.5C 30.0299,81.8361 30.5299,82.5028 30.5,83.5C 30.5,83.8333 30.5,84.1667 30.5,84.5C 30.1667,84.5 29.8333,84.5 29.5,84.5C 27.866,83.8389 26.0326,83.5056 24,83.5C 21.7047,83.5465 19.8714,84.2132 18.5,85.5C 18.1667,85.5 17.8333,85.5 17.5,85.5C 14.4053,81.206 15.4053,79.8727 20.5,81.5 Z"/></g>
<g><path style="opacity:1" fill="#20be7d" d="M 11.5,70.5 C 11.3305,72.8484 10.9971,75.1817 10.5,77.5C 10.3402,79.3545 11.0069,80.6879 12.5,81.5C 12.8333,82.5 13.5,83.1667 14.5,83.5C 14.8333,84.1667 15.1667,84.8333 15.5,85.5C 15.5,85.8333 15.5,86.1667 15.5,86.5C 13.825,84.998 11.9917,83.6647 10,82.5C 9.50999,81.2068 9.34332,79.8734 9.5,78.5C 9.29379,75.5049 9.96046,72.8383 11.5,70.5 Z"/></g>
<g><path style="opacity:0.993" fill="#3ed2a0" d="M 39.5,85.5 C 36.8333,86.5 34.1667,87.5 31.5,88.5C 30.8333,88.5 30.1667,88.5 29.5,88.5C 30.2905,87.5987 31.2905,86.9321 32.5,86.5C 34.7157,85.7974 36.549,84.4641 38,82.5C 39.0386,83.2438 39.5386,84.2438 39.5,85.5 Z"/></g>
<g><path style="opacity:0.008" fill="#00ff7e" d="M 43.5,82.5 C 44.8333,83.1667 44.8333,83.1667 43.5,82.5 Z"/></g>
<g><path style="opacity:1" fill="#055216" d="M 29.5,84.5 C 25.8802,86.5812 22.2135,86.9145 18.5,85.5C 19.8714,84.2132 21.7047,83.5465 24,83.5C 26.0326,83.5056 27.866,83.8389 29.5,84.5 Z"/></g>
<g><path style="opacity:1" fill="#1daf6e" d="M 36.5,71.5 C 37.4682,73.6074 37.8016,75.9407 37.5,78.5C 37.031,81.6433 35.3644,83.9767 32.5,85.5C 31.8333,85.5 31.1667,85.5 30.5,85.5C 30.5,85.1667 30.5,84.8333 30.5,84.5C 36.0482,82.0514 38.0482,77.7181 36.5,71.5 Z"/></g>
<g><path style="opacity:0.012" fill="#00aaa9" d="M 42.5,83.5 C 42.8333,83.5 43.1667,83.5 43.5,83.5C 43.3147,84.1701 42.9813,84.1701 42.5,83.5 Z"/></g>
<g><path style="opacity:1" fill="#36ce96" d="M 9.5,78.5 C 9.34332,79.8734 9.50999,81.2068 10,82.5C 11.9917,83.6647 13.825,84.998 15.5,86.5C 15.5,86.8333 15.5,87.1667 15.5,87.5C 14.1266,87.3433 12.7932,87.51 11.5,88C 10.4019,88.7697 10.4019,89.603 11.5,90.5C 10.1667,90.5 8.83333,90.5 7.5,90.5C 7.5,90.1667 7.5,89.8333 7.5,89.5C 7.5,86.5 7.5,83.5 7.5,80.5C 8.16667,79.8333 8.83333,79.1667 9.5,78.5 Z"/></g>
<g><path style="opacity:0.004" fill="#24c850" d="M 41.5,84.5 C 41.8333,84.5 42.1667,84.5 42.5,84.5C 42.5,85.8333 41.8333,86.5 40.5,86.5C 40.5,86.1667 40.5,85.8333 40.5,85.5C 41.1667,85.5 41.5,85.1667 41.5,84.5 Z"/></g>
<g><path style="opacity:1" fill="#129451" d="M 29.5,84.5 C 29.8333,84.5 30.1667,84.5 30.5,84.5C 30.5,84.8333 30.5,85.1667 30.5,85.5C 29.7375,86.2679 28.7375,86.7679 27.5,87C 23.5138,87.4988 19.5138,87.6655 15.5,87.5C 15.5,87.1667 15.5,86.8333 15.5,86.5C 15.5,86.1667 15.5,85.8333 15.5,85.5C 16.1667,85.5 16.8333,85.5 17.5,85.5C 17.8333,85.5 18.1667,85.5 18.5,85.5C 22.2135,86.9145 25.8802,86.5812 29.5,84.5 Z"/></g>
<g><path style="opacity:0.012" fill="#00aa54" d="M 39.5,86.5 C 39.8333,86.5 40.1667,86.5 40.5,86.5C 40.3147,87.1701 39.9813,87.1701 39.5,86.5 Z"/></g>
<g><path style="opacity:1" fill="#1fb578" d="M 30.5,85.5 C 31.1667,85.5 31.8333,85.5 32.5,85.5C 32.5,85.8333 32.5,86.1667 32.5,86.5C 31.2905,86.9321 30.2905,87.5987 29.5,88.5C 25.5,88.5 21.5,88.5 17.5,88.5C 16.5084,88.6716 15.8417,88.3382 15.5,87.5C 19.5138,87.6655 23.5138,87.4988 27.5,87C 28.7375,86.7679 29.7375,86.2679 30.5,85.5 Z"/></g>
<g><path style="opacity:0.604" fill="#219d5b" d="M 39.5,85.5 C 39.5,85.8333 39.5,86.1667 39.5,86.5C 38.1667,86.8333 38.1667,87.1667 39.5,87.5C 39.0269,88.9063 38.0269,89.573 36.5,89.5C 35.8333,88.1667 35.1667,88.1667 34.5,89.5C 33.5084,89.3284 32.8417,89.6618 32.5,90.5C 31.5,90.5 30.5,90.5 29.5,90.5C 30.1667,89.8333 30.8333,89.1667 31.5,88.5C 34.1667,87.5 36.8333,86.5 39.5,85.5 Z"/></g>
<g><path style="opacity:1" fill="#38ca95" d="M 17.5,88.5 C 21.5,88.5 25.5,88.5 29.5,88.5C 30.1667,88.5 30.8333,88.5 31.5,88.5C 30.8333,89.1667 30.1667,89.8333 29.5,90.5C 25.8333,90.5 22.1667,90.5 18.5,90.5C 18.1667,89.8333 17.8333,89.1667 17.5,88.5 Z"/></g>
<g><path style="opacity:0.996" fill="#66dfba" d="M 15.5,87.5 C 15.8417,88.3382 16.5084,88.6716 17.5,88.5C 17.8333,89.1667 18.1667,89.8333 18.5,90.5C 16.1667,90.5 13.8333,90.5 11.5,90.5C 10.4019,89.603 10.4019,88.7697 11.5,88C 12.7932,87.51 14.1266,87.3433 15.5,87.5 Z"/></g>
<g><path style="opacity:0.012" fill="#1dc58c" d="M 34.5,90.5 C 34.5,90.1667 34.5,89.8333 34.5,89.5C 35.1667,89.5 35.8333,89.5 36.5,89.5C 36.1583,90.3382 35.4916,90.6716 34.5,90.5 Z"/></g>
<g><path style="opacity:0.004" fill="#163720" d="M 5.5,89.5 C 5.83333,89.5 6.16667,89.5 6.5,89.5C 6.5,90.1667 6.5,90.8333 6.5,91.5C 5.66175,91.1583 5.32842,90.4916 5.5,89.5 Z"/></g>
<g><path style="opacity:0.965" fill="#29a967" d="M 7.5,90.5 C 8.83333,90.5 10.1667,90.5 11.5,90.5C 13.8333,90.5 16.1667,90.5 18.5,90.5C 22.1667,90.5 25.8333,90.5 29.5,90.5C 29.5,90.8333 29.5,91.1667 29.5,91.5C 29.1667,91.5 28.8333,91.5 28.5,91.5C 27.1667,91.5 25.8333,91.5 24.5,91.5C 19.5,91.5 14.5,91.5 9.5,91.5C 8.16667,91.8333 8.16667,92.1667 9.5,92.5C 9.83333,92.5 10.1667,92.5 10.5,92.5C 14.2984,93.4834 18.2984,93.8168 22.5,93.5C 22.5,93.8333 22.5,94.1667 22.5,94.5C 18.1539,94.6657 13.8206,94.499 9.5,94C 8.05773,93.6232 7.05773,92.7899 6.5,91.5C 7.16667,91.5 7.5,91.1667 7.5,90.5 Z"/></g>
<g><path style="opacity:0.008" fill="#0e1f1f" d="M 32.5,91.5 C 32.5,91.1667 32.5,90.8333 32.5,90.5C 33.1667,90.5 33.8333,90.5 34.5,90.5C 34.1583,91.3382 33.4916,91.6716 32.5,91.5 Z"/></g>
<g><path style="opacity:0.016" fill="#267541" d="M 9.5,92.5 C 9.5,92.1667 9.5,91.8333 9.5,91.5C 14.5,91.5 19.5,91.5 24.5,91.5C 25.8333,92.8333 27.1667,92.8333 28.5,91.5C 28.8333,91.5 29.1667,91.5 29.5,91.5C 30.5,91.5 31.5,91.5 32.5,91.5C 29.4168,92.9927 26.0835,93.9927 22.5,94.5C 22.5,94.1667 22.5,93.8333 22.5,93.5C 19.2775,92.4982 15.2775,92.1649 10.5,92.5C 10.1667,92.5 9.83333,92.5 9.5,92.5 Z"/></g>
</svg>
