<?xml version="1.0" encoding="UTF-8"?>
<!DOCTYPE svg PUBLIC "-//W3C//DTD SVG 1.1//EN" "http://www.w3.org/Graphics/SVG/1.1/DTD/svg11.dtd">
<svg xmlns="http://www.w3.org/2000/svg" version="1.1" width="100px" height="100px" style="shape-rendering:geometricPrecision; text-rendering:geometricPrecision; image-rendering:optimizeQuality; fill-rule:evenodd; clip-rule:evenodd" xmlns:xlink="http://www.w3.org/1999/xlink">
<g><path style="opacity:0.993" fill="#52d969" d="M 93.5,52.5 C 83.2808,55.9426 73.2808,59.9426 63.5,64.5C 51.2972,64.2652 39.2972,64.9319 27.5,66.5C 23.1667,67.8333 18.8333,69.1667 14.5,70.5C 23.1025,64.5235 32.1025,59.0235 41.5,54C 46.6013,53.599 51.6013,53.9323 56.5,55C 57.1667,54.3333 57.8333,53.6667 58.5,53C 55.0801,52.483 51.7468,51.6497 48.5,50.5C 50.1667,49.3333 51.8333,48.1667 53.5,47C 58.5628,46.8546 63.5628,47.188 68.5,48C 69.1667,47.3333 69.8333,46.6667 70.5,46C 67.0801,45.483 63.7468,44.6497 60.5,43.5C 63.8708,41.1542 67.2041,38.8208 70.5,36.5C 69.6721,35.5853 68.6721,34.9186 67.5,34.5C 61.5853,37.7069 55.7519,41.0402 50,44.5C 48.3409,43.1832 47.1743,41.5165 46.5,39.5C 44.6351,38.3338 42.9684,38.6671 41.5,40.5C 42.9587,42.583 44.2921,44.7497 45.5,47C 43.0829,48.6258 40.5829,50.1258 38,51.5C 36.3409,50.1832 35.1743,48.5165 34.5,46.5C 32.6351,45.3338 30.9684,45.6671 29.5,47.5C 30.9587,49.583 32.2921,51.7497 33.5,54C 25.9171,58.3742 18.4171,62.8742 11,67.5C 10.2828,66.9558 9.78281,66.2891 9.5,65.5C 12.1303,63.3719 14.6303,61.0386 17,58.5C 17.6667,51.8333 18.3333,45.1667 19,38.5C 26.2568,33.1211 33.4234,27.6211 40.5,22C 50.8333,21.3333 61.1667,21.3333 71.5,22C 78.5,26.1667 85.5,30.3333 92.5,34.5C 93.4959,40.4632 93.8293,46.4632 93.5,52.5 Z"/></g>
<g><path style="opacity:1" fill="#5bf074" d="M 14.5,70.5 C 10.1536,70.8537 8.48692,73.187 9.5,77.5C 6.47524,76.9668 5.14191,75.1335 5.5,72C 5.39799,68.9381 6.73132,66.7714 9.5,65.5C 9.78281,66.2891 10.2828,66.9558 11,67.5C 18.4171,62.8742 25.9171,58.3742 33.5,54C 32.2921,51.7497 30.9587,49.583 29.5,47.5C 30.9684,45.6671 32.6351,45.3338 34.5,46.5C 35.1743,48.5165 36.3409,50.1832 38,51.5C 40.5829,50.1258 43.0829,48.6258 45.5,47C 44.2921,44.7497 42.9587,42.583 41.5,40.5C 42.9684,38.6671 44.6351,38.3338 46.5,39.5C 47.1743,41.5165 48.3409,43.1832 50,44.5C 55.7519,41.0402 61.5853,37.7069 67.5,34.5C 68.6721,34.9186 69.6721,35.5853 70.5,36.5C 67.2041,38.8208 63.8708,41.1542 60.5,43.5C 63.7468,44.6497 67.0801,45.483 70.5,46C 69.8333,46.6667 69.1667,47.3333 68.5,48C 63.5628,47.188 58.5628,46.8546 53.5,47C 51.8333,48.1667 50.1667,49.3333 48.5,50.5C 51.7468,51.6497 55.0801,52.483 58.5,53C 57.8333,53.6667 57.1667,54.3333 56.5,55C 51.6013,53.9323 46.6013,53.599 41.5,54C 32.1025,59.0235 23.1025,64.5235 14.5,70.5 Z"/></g>
<g><path style="opacity:1" fill="#45b657" d="M 93.5,52.5 C 93.7852,54.288 93.4519,55.9547 92.5,57.5C 82.9263,61.7888 73.2597,65.7888 63.5,69.5C 63.5,67.8333 63.5,66.1667 63.5,64.5C 73.2808,59.9426 83.2808,55.9426 93.5,52.5 Z"/></g>
<g><path style="opacity:0.991" fill="#4ecd62" d="M 63.5,64.5 C 63.5,66.1667 63.5,67.8333 63.5,69.5C 52.1795,70.1806 40.8462,70.5139 29.5,70.5C 29.8432,68.5168 29.1765,67.1834 27.5,66.5C 39.2972,64.9319 51.2972,64.2652 63.5,64.5 Z"/></g>
<g><path style="opacity:1" fill="#49c15d" d="M 27.5,66.5 C 29.1765,67.1834 29.8432,68.5168 29.5,70.5C 23.0585,73.2042 16.3918,75.5375 9.5,77.5C 8.48692,73.187 10.1536,70.8537 14.5,70.5C 18.8333,69.1667 23.1667,67.8333 27.5,66.5 Z"/></g>
</svg>
