<?xml version="1.0" encoding="UTF-8"?>
<!DOCTYPE svg PUBLIC "-//W3C//DTD SVG 1.1//EN" "http://www.w3.org/Graphics/SVG/1.1/DTD/svg11.dtd">
<svg xmlns="http://www.w3.org/2000/svg" version="1.1" width="100px" height="100px" style="shape-rendering:geometricPrecision; text-rendering:geometricPrecision; image-rendering:optimizeQuality; fill-rule:evenodd; clip-rule:evenodd" xmlns:xlink="http://www.w3.org/1999/xlink">
<g><path style="opacity:0.51" fill="#f5d8dc" d="M 66.5,9.5 C 65.5084,9.32842 64.8417,9.66175 64.5,10.5C 62.7411,10.9539 60.7411,10.9539 58.5,10.5C 46.9667,7.99794 36.9667,10.6646 28.5,18.5C 26.6855,19.4848 25.3522,19.4848 24.5,18.5C 23.8333,18.5 23.5,18.8333 23.5,19.5C 22.9131,17.3152 23.9131,15.6485 26.5,14.5C 27.1667,15.8333 27.8333,15.8333 28.5,14.5C 29.1667,14.5 29.5,14.1667 29.5,13.5C 31.3223,12.719 31.9889,11.5523 31.5,10C 35.4694,9.73194 39.4694,8.73194 43.5,7C 42.5,6.66667 41.5,6.33333 40.5,6C 41.1667,5.83333 41.8333,5.66667 42.5,5.5C 47.5,6.83333 52.5,6.83333 57.5,5.5C 60.9305,6.07925 63.9305,7.41259 66.5,9.5 Z"/></g>
<g><path style="opacity:0.01" fill="#fefffe" d="M 29.5,13.5 C 28.8333,13.5 28.5,13.8333 28.5,14.5C 27.8333,14.5 27.1667,14.5 26.5,14.5C 27.221,12.6182 28.221,12.2848 29.5,13.5 Z"/></g>
<g><path style="opacity:0.973" fill="#eab0b5" d="M 66.5,9.5 C 68.7453,9.5412 69.4119,10.3745 68.5,12C 69.3247,13.6883 70.3247,13.8549 71.5,12.5C 74.5651,13.976 75.8985,16.1427 75.5,19C 76.7107,20.8445 78.044,21.6778 79.5,21.5C 78.6371,22.7264 78.6371,24.0597 79.5,25.5C 79.7148,27.1788 79.0481,28.1788 77.5,28.5C 76.4196,26.0038 75.0862,23.6705 73.5,21.5C 69.3206,16.6453 64.3206,12.9787 58.5,10.5C 60.7411,10.9539 62.7411,10.9539 64.5,10.5C 65.4916,10.6716 66.1583,10.3382 66.5,9.5 Z"/></g>
<g><path style="opacity:1" fill="#e8797a" d="M 58.5,10.5 C 64.3206,12.9787 69.3206,16.6453 73.5,21.5C 69.7521,22.3939 65.9188,23.0606 62,23.5C 59.4441,23.6373 57.2775,22.804 55.5,21C 52.1667,20.3333 48.8333,20.3333 45.5,21C 40.1663,26.9632 33.4996,29.1299 25.5,27.5C 25.7373,26.209 25.404,25.209 24.5,24.5C 25.4151,22.2459 26.7484,20.2459 28.5,18.5C 36.9667,10.6646 46.9667,7.99794 58.5,10.5 Z"/></g>
<g><path style="opacity:0.008" fill="#f7988e" d="M 82.5,31.5 C 82.7373,30.209 82.404,29.209 81.5,28.5C 81.4125,25.4017 81.9125,25.0684 83,27.5C 83.765,29.0657 83.5983,30.3991 82.5,31.5 Z"/></g>
<g><path style="opacity:1" fill="#e86167" d="M 73.5,21.5 C 75.0862,23.6705 76.4196,26.0038 77.5,28.5C 77.5,29.1667 77.5,29.8333 77.5,30.5C 76.596,31.209 76.2627,32.209 76.5,33.5C 70.802,33.596 65.1354,34.096 59.5,35C 56.8246,37.9004 53.4913,39.067 49.5,38.5C 47.5,38.3333 45.5,38.1667 43.5,38C 41.7668,36.0844 39.6001,34.9177 37,34.5C 34.0609,34.7959 30.8942,35.1292 27.5,35.5C 25.2147,35.3241 23.2147,34.6574 21.5,33.5C 21.9049,30.2854 22.9049,27.2854 24.5,24.5C 25.404,25.209 25.7373,26.209 25.5,27.5C 33.4996,29.1299 40.1663,26.9632 45.5,21C 48.8333,20.3333 52.1667,20.3333 55.5,21C 57.2775,22.804 59.4441,23.6373 62,23.5C 65.9188,23.0606 69.7521,22.3939 73.5,21.5 Z"/></g>
<g><path style="opacity:1" fill="#dad6d8" d="M 45.5,24.5 C 49.8394,23.8461 53.6727,24.8461 57,27.5C 58.0419,30.8039 56.8753,32.9705 53.5,34C 50.8333,34.6667 48.1667,34.6667 45.5,34C 41.5808,30.8397 41.5808,27.673 45.5,24.5 Z"/></g>
<g><path style="opacity:0.016" fill="#6a372c" d="M 14.5,34.5 C 15.6484,38.9811 15.8151,43.6478 15,48.5C 14.5008,43.8452 14.3342,39.1785 14.5,34.5 Z"/></g>
<g><path style="opacity:0.012" fill="#9d5851" d="M 83.5,32.5 C 84.6573,41.3238 84.824,50.3238 84,59.5C 83.5002,50.5062 83.3336,41.5062 83.5,32.5 Z"/></g>
<g><path style="opacity:1" fill="#e59da4" d="M 28.5,18.5 C 26.7484,20.2459 25.4151,22.2459 24.5,24.5C 22.9049,27.2854 21.9049,30.2854 21.5,33.5C 21.3345,37.5138 21.5012,41.5138 22,45.5C 22.2784,46.4158 22.7784,47.0825 23.5,47.5C 24.4919,53.4898 27.4919,58.1565 32.5,61.5C 37.1225,64.7354 40.2892,69.0687 42,74.5C 48.9637,82.0188 57.1304,83.5188 66.5,79C 72.2796,73.0215 75.7796,65.8549 77,57.5C 77.4955,55.5273 77.6621,53.5273 77.5,51.5C 78.4767,48.7131 78.81,45.7131 78.5,42.5C 78.8168,38.2984 78.4834,34.2984 77.5,30.5C 77.5,29.8333 77.5,29.1667 77.5,28.5C 79.0481,28.1788 79.7148,27.1788 79.5,25.5C 80.1667,26.5 80.8333,27.5 81.5,28.5C 81.2627,29.791 81.596,30.791 82.5,31.5C 82.5,37.8333 82.5,44.1667 82.5,50.5C 81.8333,51.8333 81.1667,53.1667 80.5,54.5C 78.8676,58.2441 77.7009,62.2441 77,66.5C 71.4498,81.1928 61.2831,86.0261 46.5,81C 39.9762,73.4776 33.1428,66.311 26,59.5C 23.5759,55.2956 21.0759,51.2956 18.5,47.5C 17.8734,42.8592 17.5401,38.1925 17.5,33.5C 17.1667,29.5 16.8333,29.5 16.5,33.5C 15.291,31.5654 15.4577,29.5654 17,27.5C 17.3333,28.1667 17.6667,28.8333 18,29.5C 19.9638,26.9822 20.6305,24.3155 20,21.5C 21.5523,21.9889 22.719,21.3223 23.5,19.5C 24.1667,19.5 24.5,19.1667 24.5,18.5C 25.3522,19.4848 26.6855,19.4848 28.5,18.5 Z"/></g>
<g><path style="opacity:1" fill="#e22e3a" d="M 77.5,51.5 C 77.6621,53.5273 77.4955,55.5273 77,57.5C 75.7796,65.8549 72.2796,73.0215 66.5,79C 57.1304,83.5188 48.9637,82.0188 42,74.5C 40.2892,69.0687 37.1225,64.7354 32.5,61.5C 33.3168,59.6923 32.6502,58.1923 30.5,57C 45.2061,55.2308 59.7061,52.3975 74,48.5C 74.9454,48.9054 75.6121,49.572 76,50.5C 77.1068,49.2881 77.6068,49.6214 77.5,51.5 Z"/></g>
<g><path style="opacity:1" fill="#e43441" d="M 78.5,42.5 C 78.81,45.7131 78.4767,48.7131 77.5,51.5C 77.6068,49.6214 77.1068,49.2881 76,50.5C 75.6121,49.572 74.9454,48.9054 74,48.5C 59.7061,52.3975 45.2061,55.2308 30.5,57C 32.6502,58.1923 33.3168,59.6923 32.5,61.5C 27.4919,58.1565 24.4919,53.4898 23.5,47.5C 23.4346,47.0618 23.6012,46.7284 24,46.5C 24.3333,47.1667 24.6667,47.8333 25,48.5C 43.1651,48.5324 60.9984,46.5324 78.5,42.5 Z"/></g>
<g><path style="opacity:1" fill="#e6424d" d="M 77.5,30.5 C 78.4834,34.2984 78.8168,38.2984 78.5,42.5C 60.9984,46.5324 43.1651,48.5324 25,48.5C 24.6667,47.8333 24.3333,47.1667 24,46.5C 23.6012,46.7284 23.4346,47.0618 23.5,47.5C 22.7784,47.0825 22.2784,46.4158 22,45.5C 21.5012,41.5138 21.3345,37.5138 21.5,33.5C 23.2147,34.6574 25.2147,35.3241 27.5,35.5C 30.8942,35.1292 34.0609,34.7959 37,34.5C 39.6001,34.9177 41.7668,36.0844 43.5,38C 45.5,38.1667 47.5,38.3333 49.5,38.5C 53.4913,39.067 56.8246,37.9004 59.5,35C 65.1354,34.096 70.802,33.596 76.5,33.5C 76.2627,32.209 76.596,31.209 77.5,30.5 Z"/></g>
<g><path style="opacity:0.004" fill="#2c2b0d" d="M 18.5,59.5 C 18.8333,59.5 19.1667,59.5 19.5,59.5C 19.5,60.1667 19.5,60.8333 19.5,61.5C 18.6618,61.1583 18.3284,60.4916 18.5,59.5 Z"/></g>
<g><path style="opacity:0.004" fill="#211f07" d="M 19.5,61.5 C 19.8333,61.5 20.1667,61.5 20.5,61.5C 20.1667,64.1667 19.8333,64.1667 19.5,61.5 Z"/></g>
<g><path style="opacity:0.008" fill="#211f07" d="M 79.5,74.5 C 79.8333,74.5 80.1667,74.5 80.5,74.5C 80.1667,77.1667 79.8333,77.1667 79.5,74.5 Z"/></g>
<g><path style="opacity:1" fill="#c86c71" d="M 18.5,47.5 C 21.0759,51.2956 23.5759,55.2956 26,59.5C 33.1428,66.311 39.9762,73.4776 46.5,81C 61.2831,86.0261 71.4498,81.1928 77,66.5C 77.7009,62.2441 78.8676,58.2441 80.5,54.5C 79.8519,63.0962 77.3519,71.0962 73,78.5C 57.8124,90.9784 45.4791,88.6451 36,71.5C 31.5811,67.1496 27.2478,62.8162 23,58.5C 21.2006,54.93 19.7006,51.2634 18.5,47.5 Z"/></g>
<g><path style="opacity:0.004" fill="#1b1903" d="M 35.5,80.5 C 35.8333,80.5 36.1667,80.5 36.5,80.5C 36.1667,83.1667 35.8333,83.1667 35.5,80.5 Z"/></g>
<g><path style="opacity:0.008" fill="#240800" d="M 76.5,80.5 C 76.8333,80.5 77.1667,80.5 77.5,80.5C 77.6716,81.4916 77.3382,82.1583 76.5,82.5C 76.5,81.8333 76.5,81.1667 76.5,80.5 Z"/></g>
<g><path style="opacity:0.012" fill="#545500" d="M 75.5,82.5 C 75.8333,82.5 76.1667,82.5 76.5,82.5C 76.3147,83.1701 75.9813,83.1701 75.5,82.5 Z"/></g>
<g><path style="opacity:0.962" fill="#563424" d="M 16.5,33.5 C 16.8333,33.5 17.1667,33.5 17.5,33.5C 17.5401,38.1925 17.8734,42.8592 18.5,47.5C 19.7006,51.2634 21.2006,54.93 23,58.5C 27.2478,62.8162 31.5811,67.1496 36,71.5C 45.4791,88.6451 57.8124,90.9784 73,78.5C 77.3519,71.0962 79.8519,63.0962 80.5,54.5C 81.1667,53.1667 81.8333,51.8333 82.5,50.5C 82.403,55.0302 82.7363,59.5302 83.5,64C 83.1765,67.8098 82.1765,71.3098 80.5,74.5C 80.1667,69.1667 79.8333,69.1667 79.5,74.5C 78.2947,75.6719 78.2947,77.0052 79.5,78.5C 79.1445,79.5223 78.4778,80.189 77.5,80.5C 77.1667,79.1667 76.8333,79.1667 76.5,80.5C 75.6618,80.8417 75.3284,81.5084 75.5,82.5C 74.1667,82.8333 74.1667,83.1667 75.5,83.5C 72.6099,89.2818 67.9432,92.6152 61.5,93.5C 58.1667,92.1667 54.8333,92.1667 51.5,93.5C 43.4362,92.0723 38.4362,87.739 36.5,80.5C 36.1667,77.8333 35.8333,77.8333 35.5,80.5C 33.1704,77.4403 31.3371,74.4403 30,71.5C 29.2825,72.4506 28.4491,72.6172 27.5,72C 26,70.5 24.5,69 23,67.5C 23.5414,65.1249 22.7081,63.1249 20.5,61.5C 20.6716,60.5084 20.3382,59.8417 19.5,59.5C 19.1667,56.8333 18.8333,56.8333 18.5,59.5C 16.8386,57.3667 15.8386,54.8667 15.5,52C 16.3936,45.8685 16.7269,39.7019 16.5,33.5 Z"/></g>
<g><path style="opacity:0.012" fill="#450a00" d="M 51.5,93.5 C 54.8333,93.5 58.1667,93.5 61.5,93.5C 58.1667,94.8333 54.8333,94.8333 51.5,93.5 Z"/></g>
</svg>
