<?xml version="1.0" encoding="UTF-8"?>
<!DOCTYPE svg PUBLIC "-//W3C//DTD SVG 1.1//EN" "http://www.w3.org/Graphics/SVG/1.1/DTD/svg11.dtd">
<svg xmlns="http://www.w3.org/2000/svg" version="1.1" width="100px" height="100px" style="shape-rendering:geometricPrecision; text-rendering:geometricPrecision; image-rendering:optimizeQuality; fill-rule:evenodd; clip-rule:evenodd" xmlns:xlink="http://www.w3.org/1999/xlink">
<g><path style="opacity:0.847" fill="#98f0d7" d="M 68.5,15.5 C 62.9809,13.7041 57.3142,12.7041 51.5,12.5C 51.5,13.5 51.5,14.5 51.5,15.5C 51.1667,15.5 50.8333,15.5 50.5,15.5C 49.8333,14.1667 48.8333,13.1667 47.5,12.5C 45.3926,11.5318 43.0593,11.1984 40.5,11.5C 50.4867,7.04368 60.1533,7.87702 69.5,14C 68.944,14.3826 68.6107,14.8826 68.5,15.5 Z"/></g>
<g><path style="opacity:0.471" fill="#abf0d7" d="M 90.5,17.5 C 90.1667,17.5 89.8333,17.5 89.5,17.5C 88.791,16.596 87.791,16.2627 86.5,16.5C 85.7494,15.4265 84.7494,15.2599 83.5,16C 82.6705,17.8161 81.8372,19.6494 81,21.5C 80.1841,22.8228 79.0174,23.4894 77.5,23.5C 77.5,23.1667 77.5,22.8333 77.5,22.5C 78.1667,22.5 78.5,22.1667 78.5,21.5C 80.7881,18.6209 82.1215,15.6209 82.5,12.5C 84.3435,12.7552 86.3435,12.9219 88.5,13C 88.3423,14.5869 89.0089,16.0869 90.5,17.5 Z"/></g>
<g><path style="opacity:0.008" fill="#72feab" d="M 91.5,17.5 C 91.369,16.7611 91.5357,16.0944 92,15.5C 92.6917,16.4368 92.525,17.1034 91.5,17.5 Z"/></g>
<g><path style="opacity:0.999" fill="#ffd2d6" d="M 40.5,11.5 C 42.6074,12.4682 44.9407,12.8016 47.5,12.5C 48.8333,13.1667 49.8333,14.1667 50.5,15.5C 47.0901,15.4571 43.7568,15.9571 40.5,17C 37.6039,20.1116 34.9372,23.4449 32.5,27C 28.8411,26.9628 25.6745,28.1295 23,30.5C 21.2389,33.4111 19.7389,36.4111 18.5,39.5C 17.1182,41.5486 15.4516,43.2153 13.5,44.5C 13.5,43.1667 13.5,41.8333 13.5,40.5C 15.2927,38.5739 16.2927,36.2406 16.5,33.5C 17.1667,33.5 17.5,33.1667 17.5,32.5C 18.2674,31.828 18.9341,30.9947 19.5,30C 18.1669,28.1598 18.3335,27.6598 20,28.5C 20.7172,27.9558 21.2172,27.2891 21.5,26.5C 22.1667,26.5 22.5,26.1667 22.5,25.5C 23.616,22.3947 25.616,19.5614 28.5,17C 30.8442,16.1628 32.8442,14.8294 34.5,13C 36.4357,12.187 38.4357,11.687 40.5,11.5 Z"/></g>
<g><path style="opacity:1" fill="#4bdfa7" d="M 68.5,15.5 C 69.7072,16.1888 71.0406,16.3554 72.5,16C 72.9361,18.3661 74.2695,20.5328 76.5,22.5C 76.3284,23.4916 76.6618,24.1583 77.5,24.5C 77.189,25.4778 76.5223,26.1445 75.5,26.5C 72.9302,25.3657 70.2635,24.5323 67.5,24C 66.9341,23.0053 66.2674,22.172 65.5,21.5C 65.67,20.1779 65.3366,19.0113 64.5,18C 61.4195,15.9756 58.0861,15.3089 54.5,16C 55.8333,17 55.8333,18 54.5,19C 53.2068,19.49 51.8734,19.6567 50.5,19.5C 51.2625,18.7321 52.2625,18.2321 53.5,18C 52.9558,17.2828 52.2891,16.7828 51.5,16.5C 51.5,16.1667 51.5,15.8333 51.5,15.5C 51.5,14.5 51.5,13.5 51.5,12.5C 57.3142,12.7041 62.9809,13.7041 68.5,15.5 Z"/></g>
<g><path style="opacity:0.008" fill="#007f00" d="M 90.5,17.5 C 90.8333,17.5 91.1667,17.5 91.5,17.5C 91.3147,18.1701 90.9813,18.1701 90.5,17.5 Z"/></g>
<g><path style="opacity:1" fill="#ff919f" d="M 50.5,15.5 C 50.8333,15.5 51.1667,15.5 51.5,15.5C 51.5,15.8333 51.5,16.1667 51.5,16.5C 49.8008,16.3398 48.1341,16.5065 46.5,17C 45.2842,18.7398 43.6175,19.7398 41.5,20C 39.315,27.5197 34.315,31.1864 26.5,31C 23.4788,33.5795 20.8121,36.4128 18.5,39.5C 19.7389,36.4111 21.2389,33.4111 23,30.5C 25.6745,28.1295 28.8411,26.9628 32.5,27C 34.9372,23.4449 37.6039,20.1116 40.5,17C 43.7568,15.9571 47.0901,15.4571 50.5,15.5 Z"/></g>
<g><path style="opacity:0.027" fill="#64e39c" d="M 78.5,21.5 C 77.8333,21.5 77.5,21.8333 77.5,22.5C 77.1667,22.5 76.8333,22.5 76.5,22.5C 77.032,19.5404 77.6987,19.2071 78.5,21.5 Z"/></g>
<g><path style="opacity:0.008" fill="#7e7f7e" d="M 87.5,21.5 C 87.8333,21.5 88.1667,21.5 88.5,21.5C 88.3147,22.1701 87.9813,22.1701 87.5,21.5 Z"/></g>
<g><path style="opacity:1" fill="#33d981" d="M 65.5,21.5 C 61.4547,23.2426 57.288,24.9092 53,26.5C 50.83,25.2799 48.6633,25.2799 46.5,26.5C 46.1667,26.5 45.8333,26.5 45.5,26.5C 45.5,25.8333 45.1667,25.5 44.5,25.5C 44.5311,22.1254 46.5311,20.1254 50.5,19.5C 51.8734,19.6567 53.2068,19.49 54.5,19C 55.8333,18 55.8333,17 54.5,16C 58.0861,15.3089 61.4195,15.9756 64.5,18C 65.3366,19.0113 65.67,20.1779 65.5,21.5 Z"/></g>
<g><path style="opacity:0.012" fill="#005500" d="M 86.5,22.5 C 86.8333,22.5 87.1667,22.5 87.5,22.5C 87.3147,23.1701 86.9813,23.1701 86.5,22.5 Z"/></g>
<g><path style="opacity:0.016" fill="#3f7f3e" d="M 85.5,23.5 C 85.8333,23.5 86.1667,23.5 86.5,23.5C 86.3147,24.1701 85.9813,24.1701 85.5,23.5 Z"/></g>
<g><path style="opacity:0.01" fill="#ffe6e4" d="M 22.5,25.5 C 21.8333,25.5 21.5,25.8333 21.5,26.5C 20.2875,25.5029 20.4542,24.5029 22,23.5C 22.4643,24.0944 22.631,24.7611 22.5,25.5 Z"/></g>
<g><path style="opacity:1" fill="#2cc572" d="M 86.5,16.5 C 83.5707,21.0994 79.904,25.0994 75.5,28.5C 72.7719,27.7948 69.9386,27.1281 67,26.5C 61.8259,29.6434 56.3259,30.3101 50.5,28.5C 48.847,28.3404 47.5137,27.6737 46.5,26.5C 48.6633,25.2799 50.83,25.2799 53,26.5C 57.288,24.9092 61.4547,23.2426 65.5,21.5C 66.2674,22.172 66.9341,23.0053 67.5,24C 70.2635,24.5323 72.9302,25.3657 75.5,26.5C 76.5223,26.1445 77.189,25.4778 77.5,24.5C 77.5,24.1667 77.5,23.8333 77.5,23.5C 79.0174,23.4894 80.1841,22.8228 81,21.5C 81.8372,19.6494 82.6705,17.8161 83.5,16C 84.7494,15.2599 85.7494,15.4265 86.5,16.5 Z"/></g>
<g><path style="opacity:1" fill="#2eae60" d="M 75.5,28.5 C 70.7273,31.0578 66.0607,33.8911 61.5,37C 59.0452,38.9416 57.7118,41.4416 57.5,44.5C 56.5489,43.0813 56.2155,41.4147 56.5,39.5C 56.7239,37.2133 57.3906,35.0466 58.5,33C 55.9722,31.2074 53.3056,29.7074 50.5,28.5C 56.3259,30.3101 61.8259,29.6434 67,26.5C 69.9386,27.1281 72.7719,27.7948 75.5,28.5 Z"/></g>
<g><path style="opacity:0.008" fill="#ffeeed" d="M 17.5,32.5 C 16.8333,32.5 16.5,32.8333 16.5,33.5C 15.2875,32.5029 15.4542,31.5029 17,30.5C 17.4643,31.0944 17.631,31.7611 17.5,32.5 Z"/></g>
<g><path style="opacity:1" fill="#fc717d" d="M 51.5,16.5 C 52.2891,16.7828 52.9558,17.2828 53.5,18C 52.2625,18.2321 51.2625,18.7321 50.5,19.5C 46.5311,20.1254 44.5311,22.1254 44.5,25.5C 42.9081,26.6016 42.0748,25.935 42,23.5C 39.6356,26.6902 37.1356,29.6902 34.5,32.5C 34.5,32.8333 34.5,33.1667 34.5,33.5C 34.1667,33.5 33.8333,33.5 33.5,33.5C 33.5,32.8333 33.1667,32.5 32.5,32.5C 29.4582,30.9799 26.7915,31.6466 24.5,34.5C 20.6277,38.6857 17.6277,43.3524 15.5,48.5C 14.5,48.5 13.5,48.5 12.5,48.5C 12.2322,46.901 12.5655,45.5676 13.5,44.5C 15.4516,43.2153 17.1182,41.5486 18.5,39.5C 20.8121,36.4128 23.4788,33.5795 26.5,31C 34.315,31.1864 39.315,27.5197 41.5,20C 43.6175,19.7398 45.2842,18.7398 46.5,17C 48.1341,16.5065 49.8008,16.3398 51.5,16.5 Z"/></g>
<g><path style="opacity:1" fill="#f4374d" d="M 45.5,26.5 C 45.8333,26.5 46.1667,26.5 46.5,26.5C 47.5137,27.6737 48.847,28.3404 50.5,28.5C 53.3056,29.7074 55.9722,31.2074 58.5,33C 57.3906,35.0466 56.7239,37.2133 56.5,39.5C 55.596,40.209 55.2627,41.209 55.5,42.5C 54.8333,42.5 54.5,42.8333 54.5,43.5C 53.1667,43.5 51.8333,43.5 50.5,43.5C 45.3176,43.1368 40.3176,41.8035 35.5,39.5C 34.5344,37.604 34.2011,35.604 34.5,33.5C 34.5,33.1667 34.5,32.8333 34.5,32.5C 35.2076,34.3779 36.3743,36.0445 38,37.5C 39.9387,35.8063 41.7721,33.973 43.5,32C 44.5,31.3333 45.5,31.3333 46.5,32C 48.4105,33.4959 50.4105,34.8292 52.5,36C 51.1667,37 49.8333,38 48.5,39C 52.4743,40.0216 54.3077,38.5216 54,34.5C 51.1033,32.3987 48.2699,30.232 45.5,28C 44.2617,27.31 44.2617,26.81 45.5,26.5 Z"/></g>
<g><path style="opacity:1" fill="#fdd477" d="M 32.5,32.5 C 33.1667,32.5 33.5,32.8333 33.5,33.5C 33.2882,35.3841 32.2882,36.7174 30.5,37.5C 29.1766,35.146 29.8433,33.4793 32.5,32.5 Z"/></g>
<g><path style="opacity:1" fill="#fb455a" d="M 44.5,25.5 C 45.1667,25.5 45.5,25.8333 45.5,26.5C 44.2617,26.81 44.2617,27.31 45.5,28C 48.2699,30.232 51.1033,32.3987 54,34.5C 54.3077,38.5216 52.4743,40.0216 48.5,39C 49.8333,38 51.1667,37 52.5,36C 50.4105,34.8292 48.4105,33.4959 46.5,32C 45.5,31.3333 44.5,31.3333 43.5,32C 41.7721,33.973 39.9387,35.8063 38,37.5C 36.3743,36.0445 35.2076,34.3779 34.5,32.5C 37.1356,29.6902 39.6356,26.6902 42,23.5C 42.0748,25.935 42.9081,26.6016 44.5,25.5 Z"/></g>
<g><path style="opacity:1" fill="#2a9653" d="M 86.5,16.5 C 87.791,16.2627 88.791,16.596 89.5,17.5C 88.0474,18.8249 88.3808,19.6582 90.5,20C 89.9558,20.7172 89.2891,21.2172 88.5,21.5C 88.1667,20.1667 87.8333,20.1667 87.5,21.5C 86.8333,21.5 86.5,21.8333 86.5,22.5C 85.8333,22.5 85.5,22.8333 85.5,23.5C 84.8333,23.5 84.5,23.8333 84.5,24.5C 83.8333,24.5 83.5,24.8333 83.5,25.5C 82.8333,25.5 82.5,25.8333 82.5,26.5C 81.8333,26.5 81.5,26.8333 81.5,27.5C 80.8333,27.5 80.5,27.8333 80.5,28.5C 77.4582,30.224 75.6249,32.8907 75,36.5C 74.6667,36.1667 74.3333,35.8333 74,35.5C 73.5348,36.9308 72.7014,38.0975 71.5,39C 68.7607,40.1502 66.7607,41.3169 65.5,42.5C 62.9471,43.2549 60.2804,43.9216 57.5,44.5C 57.7118,41.4416 59.0452,38.9416 61.5,37C 66.0607,33.8911 70.7273,31.0578 75.5,28.5C 79.904,25.0994 83.5707,21.0994 86.5,16.5 Z"/></g>
<g><path style="opacity:0.016" fill="#ffd4d3" d="M 13.5,40.5 C 12.475,40.1034 12.3083,39.4368 13,38.5C 13.4643,39.0944 13.631,39.7611 13.5,40.5 Z"/></g>
<g><path style="opacity:1" fill="#3c9b68" d="M 84.5,24.5 C 84.8333,24.5 85.1667,24.5 85.5,24.5C 84.254,26.4167 83.5873,28.25 83.5,30C 85.3515,32.4447 87.3515,33.9447 89.5,34.5C 89.1667,35.1667 88.8333,35.8333 88.5,36.5C 89.7853,39.0205 90.4519,41.6872 90.5,44.5C 85.2743,44.3899 80.2743,45.3899 75.5,47.5C 72.9147,46.9272 71.9147,45.2605 72.5,42.5C 70.1667,42.5 67.8333,42.5 65.5,42.5C 66.7607,41.3169 68.7607,40.1502 71.5,39C 72.7014,38.0975 73.5348,36.9308 74,35.5C 74.3333,35.8333 74.6667,36.1667 75,36.5C 75.6249,32.8907 77.4582,30.224 80.5,28.5C 81.1667,28.5 81.5,28.1667 81.5,27.5C 82.1667,27.5 82.5,27.1667 82.5,26.5C 83.1667,26.5 83.5,26.1667 83.5,25.5C 84.1667,25.5 84.5,25.1667 84.5,24.5 Z"/></g>
<g><path style="opacity:1" fill="#f8283a" d="M 32.5,32.5 C 29.8433,33.4793 29.1766,35.146 30.5,37.5C 32.2882,36.7174 33.2882,35.3841 33.5,33.5C 33.8333,33.5 34.1667,33.5 34.5,33.5C 34.2011,35.604 34.5344,37.604 35.5,39.5C 40.3176,41.8035 45.3176,43.1368 50.5,43.5C 46.8809,44.1805 43.2142,44.6805 39.5,45C 41.0581,45.21 42.3915,45.71 43.5,46.5C 36.1741,47.5381 30.3408,45.8714 26,41.5C 24.0653,43.1022 21.8987,44.2689 19.5,45C 17.5313,46.4998 16.198,48.3331 15.5,50.5C 15.5,49.8333 15.5,49.1667 15.5,48.5C 17.6277,43.3524 20.6277,38.6857 24.5,34.5C 26.7915,31.6466 29.4582,30.9799 32.5,32.5 Z"/></g>
<g><path style="opacity:1" fill="#277b37" d="M 56.5,39.5 C 56.2155,41.4147 56.5489,43.0813 57.5,44.5C 60.2804,43.9216 62.9471,43.2549 65.5,42.5C 67.8333,42.5 70.1667,42.5 72.5,42.5C 71.9147,45.2605 72.9147,46.9272 75.5,47.5C 80.2743,45.3899 85.2743,44.3899 90.5,44.5C 86.5216,45.8842 82.8549,48.0509 79.5,51C 77.1902,51.4966 74.8568,51.6633 72.5,51.5C 71.6586,49.6208 71.3253,47.6208 71.5,45.5C 66.5233,46.3273 61.5233,46.994 56.5,47.5C 55.6993,45.9582 55.366,44.2915 55.5,42.5C 55.2627,41.209 55.596,40.209 56.5,39.5 Z"/></g>
<g><path style="opacity:1" fill="#ef152a" d="M 43.5,46.5 C 44.552,46.3505 45.552,46.5172 46.5,47C 40.8101,49.3293 35.1434,51.496 29.5,53.5C 29.1667,53.5 28.8333,53.5 28.5,53.5C 28.5,53.1667 28.5,52.8333 28.5,52.5C 27.5039,51.3349 26.1705,50.6682 24.5,50.5C 22.3768,51.3118 20.2101,51.9785 18,52.5C 16.6244,52.3158 15.7911,51.6491 15.5,50.5C 16.198,48.3331 17.5313,46.4998 19.5,45C 21.8987,44.2689 24.0653,43.1022 26,41.5C 30.3408,45.8714 36.1741,47.5381 43.5,46.5 Z"/></g>
<g><path style="opacity:1" fill="#e51628" d="M 50.5,43.5 C 51.8333,43.5 53.1667,43.5 54.5,43.5C 54.2178,44.7777 53.5511,45.7777 52.5,46.5C 49.403,49.3677 45.7364,51.201 41.5,52C 38.9823,55.5645 35.649,57.2311 31.5,57C 30.695,55.8873 30.0283,54.7206 29.5,53.5C 35.1434,51.496 40.8101,49.3293 46.5,47C 45.552,46.5172 44.552,46.3505 43.5,46.5C 42.3915,45.71 41.0581,45.21 39.5,45C 43.2142,44.6805 46.8809,44.1805 50.5,43.5 Z"/></g>
<g><path style="opacity:0.994" fill="#266d2a" d="M 88.5,56.5 C 87.6109,54.264 86.2776,52.264 84.5,50.5C 83.0788,53.6793 81.4122,56.6793 79.5,59.5C 78.3121,60.6843 77.1455,60.6843 76,59.5C 74.5462,56.9289 73.3795,54.2622 72.5,51.5C 74.8568,51.6633 77.1902,51.4966 79.5,51C 82.8549,48.0509 86.5216,45.8842 90.5,44.5C 91.29,43.3915 91.79,42.0581 92,40.5C 93.339,45.7364 93.839,51.0698 93.5,56.5C 91.8333,56.5 90.1667,56.5 88.5,56.5 Z"/></g>
<g><path style="opacity:1" fill="#dc1726" d="M 52.5,46.5 C 52.4488,50.6767 54.7821,53.51 59.5,55C 55.6382,56.822 51.9716,56.6554 48.5,54.5C 47.1667,53.1667 45.8333,53.1667 44.5,54.5C 42.5695,54.7706 41.2362,55.7706 40.5,57.5C 39.5798,56.9326 39.2465,57.5992 39.5,59.5C 35.7432,59.0708 32.2432,59.7375 29,61.5C 28.5034,59.1902 28.3367,56.8568 28.5,54.5C 28.5,54.1667 28.5,53.8333 28.5,53.5C 28.8333,53.5 29.1667,53.5 29.5,53.5C 30.0283,54.7206 30.695,55.8873 31.5,57C 35.649,57.2311 38.9823,55.5645 41.5,52C 45.7364,51.201 49.403,49.3677 52.5,46.5 Z"/></g>
<g><path style="opacity:1" fill="#bf1922" d="M 72.5,51.5 C 73.3795,54.2622 74.5462,56.9289 76,59.5C 77.1455,60.6843 78.3121,60.6843 79.5,59.5C 80.8221,59.67 81.9887,59.3366 83,58.5C 82.9369,62.079 81.1036,64.4123 77.5,65.5C 74.5723,63.9134 71.9056,61.9134 69.5,59.5C 68.2276,56.9019 67.561,54.4019 67.5,52C 63.5,51 59.5,50 55.5,49C 56.056,48.6174 56.3893,48.1174 56.5,47.5C 61.5233,46.994 66.5233,46.3273 71.5,45.5C 71.3253,47.6208 71.6586,49.6208 72.5,51.5 Z"/></g>
<g><path style="opacity:1" fill="#f5b24e" d="M 28.5,52.5 C 28.5,52.8333 28.5,53.1667 28.5,53.5C 28.5,53.8333 28.5,54.1667 28.5,54.5C 27.5489,56.118 26.2156,57.4513 24.5,58.5C 22.9536,54.6988 24.287,52.6988 28.5,52.5 Z"/></g>
<g><path style="opacity:1" fill="#d71827" d="M 55.5,42.5 C 55.366,44.2915 55.6993,45.9582 56.5,47.5C 56.3893,48.1174 56.056,48.6174 55.5,49C 59.5,50 63.5,51 67.5,52C 67.561,54.4019 68.2276,56.9019 69.5,59.5C 62.2537,58.536 54.9204,58.2027 47.5,58.5C 47.2322,56.901 47.5655,55.5676 48.5,54.5C 51.9716,56.6554 55.6382,56.822 59.5,55C 54.7821,53.51 52.4488,50.6767 52.5,46.5C 53.5511,45.7777 54.2178,44.7777 54.5,43.5C 54.5,42.8333 54.8333,42.5 55.5,42.5 Z"/></g>
<g><path style="opacity:1" fill="#dd1e2d" d="M 15.5,50.5 C 15.7911,51.6491 16.6244,52.3158 18,52.5C 20.2101,51.9785 22.3768,51.3118 24.5,50.5C 26.1705,50.6682 27.5039,51.3349 28.5,52.5C 24.287,52.6988 22.9536,54.6988 24.5,58.5C 26.2156,57.4513 27.5489,56.118 28.5,54.5C 28.3367,56.8568 28.5034,59.1902 29,61.5C 32.2432,59.7375 35.7432,59.0708 39.5,59.5C 39.2465,57.5992 39.5798,56.9326 40.5,57.5C 43.2052,60.3162 45.2052,59.6495 46.5,55.5C 46.0431,54.7025 45.3764,54.3691 44.5,54.5C 45.8333,53.1667 47.1667,53.1667 48.5,54.5C 47.5655,55.5676 47.2322,56.901 47.5,58.5C 54.9204,58.2027 62.2537,58.536 69.5,59.5C 71.9056,61.9134 74.5723,63.9134 77.5,65.5C 75.2655,65.6199 73.0989,65.2865 71,64.5C 69.8261,65.5442 68.6594,66.5442 67.5,67.5C 67.4827,65.9719 66.816,65.4719 65.5,66C 64.3128,67.0195 63.3128,68.1861 62.5,69.5C 62.9569,70.2975 63.6236,70.6309 64.5,70.5C 64.5,70.8333 64.5,71.1667 64.5,71.5C 62.567,71.2714 60.9003,70.4381 59.5,69C 60.056,68.6174 60.3893,68.1174 60.5,67.5C 61.8181,66.2426 63.1515,64.9093 64.5,63.5C 61.2912,62.3599 57.7912,61.0265 54,59.5C 47.4087,62.4192 40.5754,63.2525 33.5,62C 31.6498,62.6897 30.3164,63.8564 29.5,65.5C 25.4454,65.8242 21.4454,65.4909 17.5,64.5C 17.1924,63.6919 16.6924,63.0253 16,62.5C 15.1072,63.7112 14.2739,63.7112 13.5,62.5C 12.2359,58.8466 12.2359,55.18 13.5,51.5C 14.1835,51.1373 14.8501,50.8039 15.5,50.5 Z"/></g>
<g><path style="opacity:1" fill="#f4b447" d="M 44.5,54.5 C 45.3764,54.3691 46.0431,54.7025 46.5,55.5C 45.2052,59.6495 43.2052,60.3162 40.5,57.5C 41.2362,55.7706 42.5695,54.7706 44.5,54.5 Z"/></g>
<g><path style="opacity:0.012" fill="#b06e63" d="M 89.5,61.5 C 89.3433,60.1266 89.51,58.7932 90,57.5C 90.765,59.0657 90.5983,60.3991 89.5,61.5 Z"/></g>
<g><path style="opacity:1" fill="#e31f33" d="M 60.5,67.5 C 51.7986,66.4826 43.1319,66.9826 34.5,69C 31.7619,70.1737 29.7619,72.0071 28.5,74.5C 28.5,73.8333 28.5,73.1667 28.5,72.5C 28.7035,70.6096 28.0368,69.1096 26.5,68C 27.5707,67.1482 28.5707,66.3149 29.5,65.5C 30.3164,63.8564 31.6498,62.6897 33.5,62C 40.5754,63.2525 47.4087,62.4192 54,59.5C 57.7912,61.0265 61.2912,62.3599 64.5,63.5C 63.1515,64.9093 61.8181,66.2426 60.5,67.5 Z"/></g>
<g><path style="opacity:0.008" fill="#fe0000" d="M 86.5,66.5 C 86.8333,66.5 87.1667,66.5 87.5,66.5C 87.3147,67.1701 86.9813,67.1701 86.5,66.5 Z"/></g>
<g><path style="opacity:1" fill="#db4340" d="M 11.5,48.5 C 10.1667,49.8333 10.1667,51.1667 11.5,52.5C 11.2,63.1761 12.5333,73.1761 15.5,82.5C 15.5,83.1667 15.5,83.8333 15.5,84.5C 14.603,83.4019 13.7697,83.4019 13,84.5C 13.5356,82.553 13.2022,80.553 12,78.5C 11.6667,79.5 11.3333,80.5 11,81.5C 10.1376,79.913 9.47093,78.2464 9,76.5C 7.89413,65.693 8.5608,55.0263 11,44.5C 11.49,45.7932 11.6567,47.1266 11.5,48.5 Z"/></g>
<g><path style="opacity:1" fill="#dc2936" d="M 11.5,48.5 C 11.8333,48.5 12.1667,48.5 12.5,48.5C 13.5,48.5 14.5,48.5 15.5,48.5C 15.5,49.1667 15.5,49.8333 15.5,50.5C 14.8501,50.8039 14.1835,51.1373 13.5,51.5C 12.2359,55.18 12.2359,58.8466 13.5,62.5C 14.2739,63.7112 15.1072,63.7112 16,62.5C 16.6924,63.0253 17.1924,63.6919 17.5,64.5C 21.4454,65.4909 25.4454,65.8242 29.5,65.5C 28.5707,66.3149 27.5707,67.1482 26.5,68C 28.0368,69.1096 28.7035,70.6096 28.5,72.5C 25.5,72.1667 24.1667,73.5 24.5,76.5C 23.2101,75.9423 22.3768,74.9423 22,73.5C 19.7727,74.9547 18.2727,76.9547 17.5,79.5C 17.0679,80.7095 16.4013,81.7095 15.5,82.5C 12.5333,73.1761 11.2,63.1761 11.5,52.5C 11.5,51.1667 11.5,49.8333 11.5,48.5 Z"/></g>
<g><path style="opacity:1" fill="#f3b23f" d="M 67.5,67.5 C 66.8333,68.8333 65.8333,69.8333 64.5,70.5C 63.6236,70.6309 62.9569,70.2975 62.5,69.5C 63.3128,68.1861 64.3128,67.0195 65.5,66C 66.816,65.4719 67.4827,65.9719 67.5,67.5 Z"/></g>
<g><path style="opacity:1" fill="#d4333c" d="M 88.5,56.5 C 88.2155,58.4147 88.5489,60.0813 89.5,61.5C 89.5979,63.5529 88.9313,65.2196 87.5,66.5C 87.1667,63.8333 86.8333,63.8333 86.5,66.5C 85.1667,66.8333 85.1667,67.1667 86.5,67.5C 86.6716,68.4916 86.3382,69.1583 85.5,69.5C 85.1667,68.1667 84.8333,68.1667 84.5,69.5C 83.8333,69.5 83.5,69.8333 83.5,70.5C 82.6618,70.8417 82.3284,71.5084 82.5,72.5C 81.8333,72.5 81.5,72.8333 81.5,73.5C 80.8333,73.5 80.5,73.8333 80.5,74.5C 79.8333,74.5 79.5,74.8333 79.5,75.5C 78.8333,75.5 78.5,75.8333 78.5,76.5C 78.1667,76.5 77.8333,76.5 77.5,76.5C 75.8333,76.5 74.1667,76.5 72.5,76.5C 72.5,76.1667 72.5,75.8333 72.5,75.5C 72.5,74.5 72.5,73.5 72.5,72.5C 69.5205,71.9933 66.8538,71.66 64.5,71.5C 64.5,71.1667 64.5,70.8333 64.5,70.5C 65.8333,69.8333 66.8333,68.8333 67.5,67.5C 68.6594,66.5442 69.8261,65.5442 71,64.5C 73.0989,65.2865 75.2655,65.6199 77.5,65.5C 81.1036,64.4123 82.9369,62.079 83,58.5C 81.9887,59.3366 80.8221,59.67 79.5,59.5C 81.4122,56.6793 83.0788,53.6793 84.5,50.5C 86.2776,52.264 87.6109,54.264 88.5,56.5 Z"/></g>
<g><path style="opacity:1" fill="#e7283e" d="M 60.5,67.5 C 60.3893,68.1174 60.056,68.6174 59.5,69C 60.9003,70.4381 62.567,71.2714 64.5,71.5C 66.8538,71.66 69.5205,71.9933 72.5,72.5C 72.5,73.5 72.5,74.5 72.5,75.5C 70.233,77.7869 68.5663,77.6202 67.5,75C 61.9976,73.9638 56.4976,73.1304 51,72.5C 50.9428,74.9102 49.7761,76.2435 47.5,76.5C 50.484,73.4702 49.8174,72.3035 45.5,73C 44.1772,73.8159 43.5106,74.9826 43.5,76.5C 42.7515,75.469 42.0848,74.3024 41.5,73C 36.7658,72.8583 32.4324,74.1916 28.5,77C 24.6495,77.4144 20.9828,78.2477 17.5,79.5C 18.2727,76.9547 19.7727,74.9547 22,73.5C 22.3768,74.9423 23.2101,75.9423 24.5,76.5C 26.3797,76.7709 27.713,76.1042 28.5,74.5C 29.7619,72.0071 31.7619,70.1737 34.5,69C 43.1319,66.9826 51.7986,66.4826 60.5,67.5 Z"/></g>
<g><path style="opacity:0.008" fill="#85140c" d="M 84.5,69.5 C 84.8333,69.5 85.1667,69.5 85.5,69.5C 85.573,71.0269 84.9063,72.0269 83.5,72.5C 83.5,71.8333 83.5,71.1667 83.5,70.5C 84.1667,70.5 84.5,70.1667 84.5,69.5 Z"/></g>
<g><path style="opacity:0.012" fill="#fe5554" d="M 82.5,72.5 C 82.8333,72.5 83.1667,72.5 83.5,72.5C 83.3147,73.1701 82.9813,73.1701 82.5,72.5 Z"/></g>
<g><path style="opacity:0.016" fill="#be3f3e" d="M 81.5,73.5 C 81.8333,73.5 82.1667,73.5 82.5,73.5C 82.3147,74.1701 81.9813,74.1701 81.5,73.5 Z"/></g>
<g><path style="opacity:1" fill="#f8b73e" d="M 28.5,72.5 C 28.5,73.1667 28.5,73.8333 28.5,74.5C 27.713,76.1042 26.3797,76.7709 24.5,76.5C 24.1667,73.5 25.5,72.1667 28.5,72.5 Z"/></g>
<g><path style="opacity:1" fill="#f8b33f" d="M 47.5,76.5 C 46.2921,77.2341 44.9587,77.5674 43.5,77.5C 43.5,77.1667 43.5,76.8333 43.5,76.5C 43.5106,74.9826 44.1772,73.8159 45.5,73C 49.8174,72.3035 50.484,73.4702 47.5,76.5 Z"/></g>
<g><path style="opacity:0.016" fill="#be3f3e" d="M 80.5,74.5 C 80.8333,74.5 81.1667,74.5 81.5,74.5C 81.3147,75.1701 80.9813,75.1701 80.5,74.5 Z"/></g>
<g><path style="opacity:1" fill="#ec314a" d="M 43.5,76.5 C 43.5,76.8333 43.5,77.1667 43.5,77.5C 37.2681,78.7247 30.9348,79.5581 24.5,80C 20.2854,82.1037 19.9521,84.2703 23.5,86.5C 24.2389,86.369 24.9056,86.5357 25.5,87C 24.5842,87.2784 23.9175,87.7784 23.5,88.5C 22.8333,88.5 22.1667,88.5 21.5,88.5C 20.1667,88.8333 20.1667,89.1667 21.5,89.5C 20.2789,90.4646 18.9456,90.298 17.5,89C 17.8363,87.371 17.1696,85.871 15.5,84.5C 15.5,83.8333 15.5,83.1667 15.5,82.5C 16.4013,81.7095 17.0679,80.7095 17.5,79.5C 20.9828,78.2477 24.6495,77.4144 28.5,77C 32.4324,74.1916 36.7658,72.8583 41.5,73C 42.0848,74.3024 42.7515,75.469 43.5,76.5 Z"/></g>
<g><path style="opacity:0.012" fill="#a95554" d="M 79.5,75.5 C 79.8333,75.5 80.1667,75.5 80.5,75.5C 80.3147,76.1701 79.9813,76.1701 79.5,75.5 Z"/></g>
<g><path style="opacity:0.016" fill="#be3f3e" d="M 78.5,76.5 C 78.8333,76.5 79.1667,76.5 79.5,76.5C 79.3147,77.1701 78.9813,77.1701 78.5,76.5 Z"/></g>
<g><path style="opacity:0.016" fill="#be3f3e" d="M 77.5,77.5 C 77.8333,77.5 78.1667,77.5 78.5,77.5C 78.3147,78.1701 77.9813,78.1701 77.5,77.5 Z"/></g>
<g><path style="opacity:1" fill="#f03350" d="M 72.5,75.5 C 72.5,75.8333 72.5,76.1667 72.5,76.5C 70.5,77.8333 68.5,79.1667 66.5,80.5C 57.993,79.924 49.3263,79.7574 40.5,80C 34.2709,80.9063 28.6042,83.073 23.5,86.5C 19.9521,84.2703 20.2854,82.1037 24.5,80C 30.9348,79.5581 37.2681,78.7247 43.5,77.5C 44.9587,77.5674 46.2921,77.2341 47.5,76.5C 49.7761,76.2435 50.9428,74.9102 51,72.5C 56.4976,73.1304 61.9976,73.9638 67.5,75C 68.5663,77.6202 70.233,77.7869 72.5,75.5 Z"/></g>
<g><path style="opacity:1" fill="#f33a59" d="M 66.5,80.5 C 65.2196,81.9313 63.5529,82.5979 61.5,82.5C 56.212,83.1339 50.8787,82.8006 45.5,81.5C 40.3455,82.0254 35.3455,83.1921 30.5,85C 29.4019,85.7697 29.4019,86.603 30.5,87.5C 28.3926,88.4682 26.0593,88.8016 23.5,88.5C 23.9175,87.7784 24.5842,87.2784 25.5,87C 24.9056,86.5357 24.2389,86.369 23.5,86.5C 28.6042,83.073 34.2709,80.9063 40.5,80C 49.3263,79.7574 57.993,79.924 66.5,80.5 Z"/></g>
<g><path style="opacity:1" fill="#f63f60" d="M 61.5,82.5 C 59.5242,84.0109 57.1909,84.8442 54.5,85C 46.4925,85.8344 38.4925,86.6678 30.5,87.5C 29.4019,86.603 29.4019,85.7697 30.5,85C 35.3455,83.1921 40.3455,82.0254 45.5,81.5C 50.8787,82.8006 56.212,83.1339 61.5,82.5 Z"/></g>
<g><path style="opacity:0.998" fill="#e95462" d="M 72.5,76.5 C 74.1667,76.5 75.8333,76.5 77.5,76.5C 77.5,76.8333 77.5,77.1667 77.5,77.5C 76.1667,77.8333 76.1667,78.1667 77.5,78.5C 75.4541,81.3659 72.7874,83.5325 69.5,85C 67.3496,86.4114 65.0163,87.2447 62.5,87.5C 61.8333,86.1667 61.1667,86.1667 60.5,87.5C 56.5,87.8333 56.5,88.1667 60.5,88.5C 58.5242,90.0109 56.1909,90.8442 53.5,91C 43.1137,93.9791 32.7804,93.9791 22.5,91C 24.9316,89.9125 24.5983,89.4125 21.5,89.5C 21.5,89.1667 21.5,88.8333 21.5,88.5C 22.1667,88.5 22.8333,88.5 23.5,88.5C 26.0593,88.8016 28.3926,88.4682 30.5,87.5C 38.4925,86.6678 46.4925,85.8344 54.5,85C 57.1909,84.8442 59.5242,84.0109 61.5,82.5C 63.5529,82.5979 65.2196,81.9313 66.5,80.5C 68.5,79.1667 70.5,77.8333 72.5,76.5 Z"/></g>
<g><path style="opacity:0.012" fill="#b14e4d" d="M 60.5,88.5 C 60.5,88.1667 60.5,87.8333 60.5,87.5C 61.1667,87.5 61.8333,87.5 62.5,87.5C 62.1583,88.3382 61.4916,88.6716 60.5,88.5 Z"/></g>
</svg>
