<?xml version="1.0" encoding="UTF-8"?>
<!DOCTYPE svg PUBLIC "-//W3C//DTD SVG 1.1//EN" "http://www.w3.org/Graphics/SVG/1.1/DTD/svg11.dtd">
<svg xmlns="http://www.w3.org/2000/svg" version="1.1" width="94px" height="94px" style="shape-rendering:geometricPrecision; text-rendering:geometricPrecision; image-rendering:optimizeQuality; fill-rule:evenodd; clip-rule:evenodd" xmlns:xlink="http://www.w3.org/1999/xlink">
<g><path style="opacity:0.01" fill="#cefee5" d="M 49.5,5.5 C 48.8333,5.5 48.5,5.83333 48.5,6.5C 46.5887,7.07501 44.922,8.07501 43.5,9.5C 43.1667,9.5 42.8333,9.5 42.5,9.5C 42.5,9.16667 42.5,8.83333 42.5,8.5C 44.7914,7.45788 45.7914,5.95788 45.5,4C 47.3524,3.2274 48.6857,3.7274 49.5,5.5 Z"/></g>
<g><path style="opacity:0.004" fill="#40fe78" d="M 50.5,7.5 C 50.369,6.76109 50.5357,6.09442 51,5.5C 51.6917,6.43677 51.525,7.10343 50.5,7.5 Z"/></g>
<g><path style="opacity:0.004" fill="#00ff00" d="M 42.5,8.5 C 41.8333,7.16667 41.8333,7.16667 42.5,8.5 Z"/></g>
<g><path style="opacity:0.008" fill="#41ff6a" d="M 42.5,9.5 C 42.5,10.5 42.5,11.5 42.5,12.5C 41.1667,11.5 41.1667,10.5 42.5,9.5 Z"/></g>
<g><path style="opacity:0.012" fill="#50eeb4" d="M 53.5,16.5 C 55.2884,15.3775 57.2884,15.2109 59.5,16C 57.5273,16.4955 55.5273,16.6621 53.5,16.5 Z"/></g>
<g><path style="opacity:0.006" fill="#efffee" d="M 20.5,24.5 C 19.8333,24.5 19.5,24.8333 19.5,25.5C 18.9569,25.44 18.6236,25.1067 18.5,24.5C 19.2565,23.2267 19.9232,23.2267 20.5,24.5 Z"/></g>
<g><path style="opacity:0.004" fill="#47e9d4" d="M 72.5,24.5 C 73.6226,23.2426 74.2893,23.5759 74.5,25.5C 74.1667,25.5 73.8333,25.5 73.5,25.5C 73.5,24.8333 73.1667,24.5 72.5,24.5 Z"/></g>
<g><path style="opacity:1" fill="#44b675" d="M 49.5,5.5 C 49.3284,6.49162 49.6618,7.15829 50.5,7.5C 50.3347,11.1817 50.5014,14.8484 51,18.5C 51.3333,15.1667 51.6667,11.8333 52,8.5C 52.1829,11.3647 52.6829,14.0314 53.5,16.5C 57.1141,17.2222 60.7808,18.2222 64.5,19.5C 66.2237,18.3387 67.8904,18.5053 69.5,20C 70.5282,21.6316 71.5282,23.1316 72.5,24.5C 73.1667,24.5 73.5,24.8333 73.5,25.5C 73.5,26.1667 73.8333,26.5 74.5,26.5C 74.5,27.1667 74.8333,27.5 75.5,27.5C 75.8333,28.1667 76.1667,28.8333 76.5,29.5C 76.1583,30.3382 75.4916,30.6716 74.5,30.5C 72.396,30.2011 70.396,30.5344 68.5,31.5C 71.1709,34.6845 71.8376,38.1845 70.5,42C 66.4586,41.9303 62.7919,40.7636 59.5,38.5C 61.1439,38.2865 62.6439,38.6198 64,39.5C 64.6667,38.8333 65.3333,38.1667 66,37.5C 66.3707,33.4771 66.204,29.8104 65.5,26.5C 65.4606,25.4168 65.1272,24.4168 64.5,23.5C 62.5101,22.5019 60.5101,21.5019 58.5,20.5C 54.9062,21.4259 51.2396,21.7592 47.5,21.5C 47.6133,16.482 47.9466,11.482 48.5,6.5C 48.5,5.83333 48.8333,5.5 49.5,5.5 Z"/></g>
<g><path style="opacity:0.004" fill="#9cc9a1" d="M 74.5,26.5 C 74.5,26.1667 74.5,25.8333 74.5,25.5C 76.4241,25.7107 76.7574,26.3774 75.5,27.5C 74.8333,27.5 74.5,27.1667 74.5,26.5 Z"/></g>
<g><path style="opacity:1" fill="#a7f5cc" d="M 34.5,17.5 C 29.9972,20.8491 27.8305,25.5158 28,31.5C 27.074,33.6917 25.9073,35.6917 24.5,37.5C 24.1583,38.3382 23.4916,38.6716 22.5,38.5C 22.8726,35.4261 23.5392,32.4261 24.5,29.5C 22.8333,29.5 21.1667,29.5 19.5,29.5C 18.5084,29.6716 17.8417,29.3382 17.5,28.5C 18.1667,27.5 18.8333,26.5 19.5,25.5C 20.1667,25.5 20.5,25.1667 20.5,24.5C 22.7914,23.4579 23.7914,21.9579 23.5,20C 24.549,19.5078 25.549,19.6744 26.5,20.5C 29.0354,19.1 31.702,18.1 34.5,17.5 Z"/></g>
<g><path style="opacity:1" fill="#2cc164" d="M 65.5,26.5 C 66.204,29.8104 66.3707,33.4771 66,37.5C 65.3333,38.1667 64.6667,38.8333 64,39.5C 62.6439,38.6198 61.1439,38.2865 59.5,38.5C 58.4693,37.645 57.3026,36.9783 56,36.5C 53.5246,39.6471 51.0246,42.8138 48.5,46C 47.0715,46.5791 45.7382,46.4124 44.5,45.5C 42.347,43.2063 40.6803,40.5396 39.5,37.5C 42.5623,37.1558 45.5623,36.4891 48.5,35.5C 49.7345,33.6017 49.4011,31.935 47.5,30.5C 50.0537,29.1008 51.7204,27.1008 52.5,24.5C 53.9305,24.5792 55.2638,24.2458 56.5,23.5C 59.357,24.9634 62.357,25.9634 65.5,26.5 Z"/></g>
<g><path style="opacity:1" fill="#63efb2" d="M 41.5,15.5 C 39.7761,15.4607 39.4427,15.794 40.5,16.5C 41.209,17.404 42.209,17.7373 43.5,17.5C 43.8333,17.5 44.1667,17.5 44.5,17.5C 44.5,18.1667 44.8333,18.5 45.5,18.5C 46.5735,19.2506 46.7401,20.2506 46,21.5C 45.3333,20.1667 44.6667,20.1667 44,21.5C 39.9271,29.7871 33.4271,35.1204 24.5,37.5C 25.9073,35.6917 27.074,33.6917 28,31.5C 27.8305,25.5158 29.9972,20.8491 34.5,17.5C 35.8734,17.6567 37.2068,17.49 38.5,17C 36.5,16.6667 34.5,16.3333 32.5,16C 34.8474,15.5639 37.1807,15.0639 39.5,14.5C 40.4164,14.5427 41.0831,14.8761 41.5,15.5 Z"/></g>
<g><path style="opacity:1" fill="#37d376" d="M 48.5,6.5 C 47.9466,11.482 47.6133,16.482 47.5,21.5C 51.2396,21.7592 54.9062,21.4259 58.5,20.5C 60.5101,21.5019 62.5101,22.5019 64.5,23.5C 65.1272,24.4168 65.4606,25.4168 65.5,26.5C 62.357,25.9634 59.357,24.9634 56.5,23.5C 55.2638,24.2458 53.9305,24.5792 52.5,24.5C 51.7204,27.1008 50.0537,29.1008 47.5,30.5C 49.4011,31.935 49.7345,33.6017 48.5,35.5C 45.5623,36.4891 42.5623,37.1558 39.5,37.5C 39.189,36.5222 38.5223,35.8555 37.5,35.5C 32.9476,38.5537 27.9476,40.2204 22.5,40.5C 22.5,39.8333 22.5,39.1667 22.5,38.5C 23.4916,38.6716 24.1583,38.3382 24.5,37.5C 33.4271,35.1204 39.9271,29.7871 44,21.5C 44.6667,20.1667 45.3333,20.1667 46,21.5C 46.7401,20.2506 46.5735,19.2506 45.5,18.5C 45.4437,15.483 45.1103,15.1497 44.5,17.5C 44.1667,17.5 43.8333,17.5 43.5,17.5C 42.791,16.596 41.791,16.2627 40.5,16.5C 39.4427,15.794 39.7761,15.4607 41.5,15.5C 42.404,14.791 42.7373,13.791 42.5,12.5C 43.404,11.791 43.7373,10.791 43.5,9.5C 44.922,8.07501 46.5887,7.07501 48.5,6.5 Z"/></g>
<g><path style="opacity:0.788" fill="#feddd8" d="M 17.5,28.5 C 17.8417,29.3382 18.5084,29.6716 19.5,29.5C 18.0427,31.6282 17.0427,33.9616 16.5,36.5C 15.8333,36.5 15.5,36.8333 15.5,37.5C 12.5268,38.8103 10.1935,40.8103 8.5,43.5C 9.14894,40.0554 10.4823,36.8887 12.5,34C 11.1669,32.1598 11.3335,31.6598 13,32.5C 14.3712,30.9586 15.8712,29.6253 17.5,28.5 Z"/></g>
<g><path style="opacity:1" fill="#f4987e" d="M 19.5,29.5 C 21.1667,29.5 22.8333,29.5 24.5,29.5C 23.5392,32.4261 22.8726,35.4261 22.5,38.5C 22.5,39.1667 22.5,39.8333 22.5,40.5C 21.5655,39.4324 21.2322,38.099 21.5,36.5C 19.8333,36.5 18.1667,36.5 16.5,36.5C 17.0427,33.9616 18.0427,31.6282 19.5,29.5 Z"/></g>
<g><path style="opacity:1" fill="#da898e" d="M 76.5,29.5 C 77.7942,30.2899 78.9609,31.2899 80,32.5C 81.6665,31.6598 81.8331,32.1598 80.5,34C 81.5822,35.3297 82.2488,36.8297 82.5,38.5C 82.5,38.8333 82.5,39.1667 82.5,39.5C 76.4152,39.7086 73.7485,36.7086 74.5,30.5C 75.4916,30.6716 76.1583,30.3382 76.5,29.5 Z"/></g>
<g><path style="opacity:1" fill="#b71c14" d="M 82.5,42.5 C 80.0003,51.3248 78.0003,60.3248 76.5,69.5C 74.9892,70.9575 73.9892,72.7908 73.5,75C 70.0029,78.0134 66.0029,79.8468 61.5,80.5C 69.4106,77.1356 73.4106,71.3023 73.5,63C 70.9174,61.2556 68.9174,59.0889 67.5,56.5C 68.9322,53.6727 69.5988,50.6727 69.5,47.5C 67.4862,47.6085 65.8195,46.9418 64.5,45.5C 64.5,44.8333 64.5,44.1667 64.5,43.5C 66.7925,43.2436 68.9592,43.5769 71,44.5C 74.4935,42.623 78.3268,41.9564 82.5,42.5 Z"/></g>
<g><path style="opacity:1" fill="#e72110" d="M 16.5,36.5 C 18.1667,36.5 19.8333,36.5 21.5,36.5C 21.2322,38.099 21.5655,39.4324 22.5,40.5C 23.624,41.8086 25.124,42.4753 27,42.5C 30.1676,41.2956 33.3343,40.4623 36.5,40C 38.7585,41.7527 40.4251,43.9193 41.5,46.5C 42.0262,49.8078 40.6928,51.9745 37.5,53C 28.8465,54.6504 20.8465,53.1504 13.5,48.5C 12.9478,46.9974 12.9478,45.3307 13.5,43.5C 13.7036,41.3146 14.3702,39.3146 15.5,37.5C 15.5,36.8333 15.8333,36.5 16.5,36.5 Z"/></g>
<g><path style="opacity:1" fill="#dd1b0e" d="M 13.5,43.5 C 12.9478,45.3307 12.9478,46.9974 13.5,48.5C 20.8465,53.1504 28.8465,54.6504 37.5,53C 40.6928,51.9745 42.0262,49.8078 41.5,46.5C 44.1438,48.516 44.9772,51.1827 44,54.5C 33.8128,58.5566 23.9795,57.7232 14.5,52C 12.9512,50.786 11.7845,49.286 11,47.5C 10.6174,48.056 10.1174,48.3893 9.5,48.5C 8.75635,45.0504 10.0897,43.3838 13.5,43.5 Z"/></g>
<g><path style="opacity:1" fill="#b62d25" d="M 74.5,30.5 C 73.7485,36.7086 76.4152,39.7086 82.5,39.5C 82.5,40.5 82.5,41.5 82.5,42.5C 78.3268,41.9564 74.4935,42.623 71,44.5C 68.9592,43.5769 66.7925,43.2436 64.5,43.5C 62.0972,42.2735 59.5972,41.2735 57,40.5C 54.1697,41.9911 51.6697,44.4911 49.5,48C 47.8925,47.9813 46.2259,47.8146 44.5,47.5C 44.5,46.8333 44.5,46.1667 44.5,45.5C 45.7382,46.4124 47.0715,46.5791 48.5,46C 51.0246,42.8138 53.5246,39.6471 56,36.5C 57.3026,36.9783 58.4693,37.645 59.5,38.5C 62.7919,40.7636 66.4586,41.9303 70.5,42C 71.8376,38.1845 71.1709,34.6845 68.5,31.5C 70.396,30.5344 72.396,30.2011 74.5,30.5 Z"/></g>
<g><path style="opacity:1" fill="#cc1910" d="M 64.5,43.5 C 64.5,44.1667 64.5,44.8333 64.5,45.5C 62.103,49.7965 60.103,54.2965 58.5,59C 63.1544,60.6622 67.1544,63.3289 70.5,67C 69.1084,69.7238 67.9417,72.5571 67,75.5C 66.3292,76.2524 65.4959,76.5858 64.5,76.5C 65.2341,75.2921 65.5674,73.9587 65.5,72.5C 67.561,71.2486 67.8943,69.5819 66.5,67.5C 62.0944,64.53 57.4277,62.03 52.5,60C 53.4231,57.9592 53.7564,55.7925 53.5,53.5C 52.1266,53.6567 50.7932,53.49 49.5,53C 48.2949,51.6244 46.9616,50.4577 45.5,49.5C 45.1667,48.8333 44.8333,48.1667 44.5,47.5C 46.2259,47.8146 47.8925,47.9813 49.5,48C 51.6697,44.4911 54.1697,41.9911 57,40.5C 59.5972,41.2735 62.0972,42.2735 64.5,43.5 Z"/></g>
<g><path style="opacity:1" fill="#c51911" d="M 64.5,45.5 C 65.8195,46.9418 67.4862,47.6085 69.5,47.5C 69.5988,50.6727 68.9322,53.6727 67.5,56.5C 68.9174,59.0889 70.9174,61.2556 73.5,63C 73.4106,71.3023 69.4106,77.1356 61.5,80.5C 58.8333,80.5 56.1667,80.5 53.5,80.5C 56.9545,78.7909 60.6212,77.4576 64.5,76.5C 65.4959,76.5858 66.3292,76.2524 67,75.5C 67.9417,72.5571 69.1084,69.7238 70.5,67C 67.1544,63.3289 63.1544,60.6622 58.5,59C 60.103,54.2965 62.103,49.7965 64.5,45.5 Z"/></g>
<g><path style="opacity:1" fill="#a83727" d="M 82.5,38.5 C 83.963,41.2026 84.7963,44.2026 85,47.5C 85.3333,45.5 85.6667,43.5 86,41.5C 86.2178,44.4262 86.7178,47.2595 87.5,50C 86.8719,52.9386 86.2052,55.7719 85.5,58.5C 85.1667,50.5 84.8333,50.5 84.5,58.5C 83.5655,59.5676 83.2322,60.901 83.5,62.5C 82.1667,63.5 82.1667,64.5 83.5,65.5C 83.573,67.0269 82.9063,68.0269 81.5,68.5C 81.5,67.8333 81.1667,67.5 80.5,67.5C 78.9256,67.9371 77.7589,68.9371 77,70.5C 76.6012,70.2716 76.4346,69.9382 76.5,69.5C 78.0003,60.3248 80.0003,51.3248 82.5,42.5C 82.5,41.5 82.5,40.5 82.5,39.5C 82.5,39.1667 82.5,38.8333 82.5,38.5 Z"/></g>
<g><path style="opacity:1" fill="#d52413" d="M 39.5,37.5 C 40.6803,40.5396 42.347,43.2063 44.5,45.5C 44.5,46.1667 44.5,46.8333 44.5,47.5C 44.8333,48.1667 45.1667,48.8333 45.5,49.5C 48.9754,56.548 46.8088,60.8813 39,62.5C 28.3483,60.9198 18.515,57.2531 9.5,51.5C 9.5,50.5 9.5,49.5 9.5,48.5C 10.1174,48.3893 10.6174,48.056 11,47.5C 11.7845,49.286 12.9512,50.786 14.5,52C 23.9795,57.7232 33.8128,58.5566 44,54.5C 44.9772,51.1827 44.1438,48.516 41.5,46.5C 40.4251,43.9193 38.7585,41.7527 36.5,40C 33.3343,40.4623 30.1676,41.2956 27,42.5C 25.124,42.4753 23.624,41.8086 22.5,40.5C 27.9476,40.2204 32.9476,38.5537 37.5,35.5C 38.5223,35.8555 39.189,36.5222 39.5,37.5 Z"/></g>
<g><path style="opacity:1" fill="#be4b37" d="M 15.5,37.5 C 14.3702,39.3146 13.7036,41.3146 13.5,43.5C 10.0897,43.3838 8.75635,45.0504 9.5,48.5C 9.5,49.5 9.5,50.5 9.5,51.5C 9.83333,52.1667 10.1667,52.8333 10.5,53.5C 11.8333,55.8333 13.1667,58.1667 14.5,60.5C 13.8826,60.3893 13.3826,60.056 13,59.5C 13.4969,61.1984 13.3302,62.8651 12.5,64.5C 14.8003,68.7898 17.467,72.7898 20.5,76.5C 19.1667,76.8333 19.1667,77.1667 20.5,77.5C 20.1034,78.525 19.4368,78.6917 18.5,78C 16.6061,76.8989 15.9394,75.5655 16.5,74C 15.6959,72.2287 14.5292,70.7287 13,69.5C 12.6667,69.8333 12.3333,70.1667 12,70.5C 11.5814,69.3279 10.9147,68.3279 10,67.5C 9.02393,64.449 8.52393,61.449 8.5,58.5C 8.16667,49.1667 7.83333,49.1667 7.5,58.5C 5.4421,52.9747 5.27544,47.308 7,41.5C 7.33333,43.5 7.66667,45.5 8,47.5C 8.49001,46.2068 8.65668,44.8734 8.5,43.5C 10.1935,40.8103 12.5268,38.8103 15.5,37.5 Z"/></g>
<g><path style="opacity:0.016" fill="#ca5542" d="M 7.5,58.5 C 7.83333,58.5 8.16667,58.5 8.5,58.5C 8.16667,62.5 7.83333,62.5 7.5,58.5 Z"/></g>
<g><path style="opacity:1" fill="#d1170e" d="M 45.5,49.5 C 46.9616,50.4577 48.2949,51.6244 49.5,53C 50.7932,53.49 52.1266,53.6567 53.5,53.5C 53.7564,55.7925 53.4231,57.9592 52.5,60C 57.4277,62.03 62.0944,64.53 66.5,67.5C 67.8943,69.5819 67.561,71.2486 65.5,72.5C 65.67,71.1779 65.3366,70.0113 64.5,69C 54.9227,62.8161 44.9227,61.9828 34.5,66.5C 30.3001,70.6823 30.6334,74.5156 35.5,78C 41.0331,79.5672 46.6998,80.4005 52.5,80.5C 42.8706,82.6146 34.3706,80.2813 27,73.5C 25.908,70.9556 25.2414,68.2889 25,65.5C 22.1972,63.6984 20.0305,61.365 18.5,58.5C 15.4685,57.3228 12.8019,55.6562 10.5,53.5C 10.1667,52.8333 9.83333,52.1667 9.5,51.5C 18.515,57.2531 28.3483,60.9198 39,62.5C 46.8088,60.8813 48.9754,56.548 45.5,49.5 Z"/></g>
<g><path style="opacity:1" fill="#c71d14" d="M 10.5,53.5 C 12.8019,55.6562 15.4685,57.3228 18.5,58.5C 20.0305,61.365 22.1972,63.6984 25,65.5C 25.2414,68.2889 25.908,70.9556 27,73.5C 34.3706,80.2813 42.8706,82.6146 52.5,80.5C 52.8333,80.5 53.1667,80.5 53.5,80.5C 56.1667,80.5 58.8333,80.5 61.5,80.5C 60.0697,81.5375 58.403,82.2041 56.5,82.5C 42.906,85.0718 31.5727,81.4051 22.5,71.5C 21.846,69.8849 21.346,68.2182 21,66.5C 18.1677,65.038 16.0011,63.038 14.5,60.5C 13.1667,58.1667 11.8333,55.8333 10.5,53.5 Z"/></g>
<g><path style="opacity:0.004" fill="#5b312c" d="M 84.5,58.5 C 84.8333,58.5 85.1667,58.5 85.5,58.5C 85.7678,60.099 85.4345,61.4324 84.5,62.5C 84.5,61.1667 84.5,59.8333 84.5,58.5 Z"/></g>
<g><path style="opacity:1" fill="#d81810" d="M 65.5,72.5 C 65.5674,73.9587 65.2341,75.2921 64.5,76.5C 60.6212,77.4576 56.9545,78.7909 53.5,80.5C 53.1667,80.5 52.8333,80.5 52.5,80.5C 46.6998,80.4005 41.0331,79.5672 35.5,78C 30.6334,74.5156 30.3001,70.6823 34.5,66.5C 44.9227,61.9828 54.9227,62.8161 64.5,69C 65.3366,70.0113 65.67,71.1779 65.5,72.5 Z"/></g>
<g><path style="opacity:0.012" fill="#b95a4e" d="M 83.5,62.5 C 83.8333,62.5 84.1667,62.5 84.5,62.5C 84.7373,63.791 84.404,64.791 83.5,65.5C 83.5,64.5 83.5,63.5 83.5,62.5 Z"/></g>
<g><path style="opacity:1" fill="#ba271d" d="M 14.5,60.5 C 16.0011,63.038 18.1677,65.038 21,66.5C 21.346,68.2182 21.846,69.8849 22.5,71.5C 31.5727,81.4051 42.906,85.0718 56.5,82.5C 50.013,83.654 43.3464,83.8206 36.5,83C 31.4393,81.1275 26.4393,79.2942 21.5,77.5C 21.1667,77.5 20.8333,77.5 20.5,77.5C 20.5,77.1667 20.5,76.8333 20.5,76.5C 17.467,72.7898 14.8003,68.7898 12.5,64.5C 13.3302,62.8651 13.4969,61.1984 13,59.5C 13.3826,60.056 13.8826,60.3893 14.5,60.5 Z"/></g>
<g><path style="opacity:0.016" fill="#be3f3e" d="M 79.5,70.5 C 79.8333,70.5 80.1667,70.5 80.5,70.5C 80.3147,71.1701 79.9813,71.1701 79.5,70.5 Z"/></g>
<g><path style="opacity:1" fill="#e01810" d="M 42.5,66.5 C 48.345,66.151 54.0117,66.9843 59.5,69C 61.0368,70.1096 61.7035,71.6096 61.5,73.5C 57.6581,75.696 53.4915,77.3627 49,78.5C 44.6135,76.8898 40.1135,75.7231 35.5,75C 33.987,72.5459 34.6537,70.8793 37.5,70C 37.1667,69.6667 36.8333,69.3333 36.5,69C 38.7226,68.4338 40.7226,67.6005 42.5,66.5 Z"/></g>
<g><path style="opacity:0.004" fill="#e10000" d="M 78.5,71.5 C 78.8333,71.5 79.1667,71.5 79.5,71.5C 79.6716,72.4916 79.3382,73.1583 78.5,73.5C 78.5,72.8333 78.5,72.1667 78.5,71.5 Z"/></g>
<g><path style="opacity:0.008" fill="#fe7f00" d="M 77.5,73.5 C 77.8333,73.5 78.1667,73.5 78.5,73.5C 78.3147,74.1701 77.9813,74.1701 77.5,73.5 Z"/></g>
<g><path style="opacity:0.329" fill="#b9513d" d="M 80.5,67.5 C 81.1667,67.5 81.5,67.8333 81.5,68.5C 81.6716,69.4916 81.3382,70.1583 80.5,70.5C 80.1667,69.1667 79.8333,69.1667 79.5,70.5C 78.8333,70.5 78.5,70.8333 78.5,71.5C 77.6618,71.8417 77.3284,72.5084 77.5,73.5C 76.1667,73.8333 76.1667,74.1667 77.5,74.5C 76.4154,76.5869 74.7488,77.9202 72.5,78.5C 72.1667,77.1667 71.8333,77.1667 71.5,78.5C 70.1667,78.8333 70.1667,79.1667 71.5,79.5C 71.1583,80.3382 70.4916,80.6716 69.5,80.5C 69.1667,79.1667 68.8333,79.1667 68.5,80.5C 67.7611,80.369 67.0944,80.5357 66.5,81C 67.8333,81.6667 67.8333,82.3333 66.5,83C 63.5597,84.1524 60.5597,85.1524 57.5,86C 50.1667,86.6667 42.8333,86.6667 35.5,86C 30.3487,85.09 25.682,83.09 21.5,80C 22.5981,79.2303 22.5981,78.397 21.5,77.5C 26.4393,79.2942 31.4393,81.1275 36.5,83C 43.3464,83.8206 50.013,83.654 56.5,82.5C 58.403,82.2041 60.0697,81.5375 61.5,80.5C 66.0029,79.8468 70.0029,78.0134 73.5,75C 73.9892,72.7908 74.9892,70.9575 76.5,69.5C 76.4346,69.9382 76.6012,70.2716 77,70.5C 77.7589,68.9371 78.9256,67.9371 80.5,67.5 Z"/></g>
<g><path style="opacity:0.012" fill="#a95554" d="M 71.5,78.5 C 71.8333,78.5 72.1667,78.5 72.5,78.5C 72.3147,79.1701 71.9813,79.1701 71.5,78.5 Z"/></g>
<g><path style="opacity:0.012" fill="#a95554" d="M 68.5,80.5 C 68.8333,80.5 69.1667,80.5 69.5,80.5C 69.3147,81.1701 68.9813,81.1701 68.5,80.5 Z"/></g>
</svg>
