<?xml version="1.0" encoding="UTF-8"?>
<!DOCTYPE svg PUBLIC "-//W3C//DTD SVG 1.1//EN" "http://www.w3.org/Graphics/SVG/1.1/DTD/svg11.dtd">
<svg xmlns="http://www.w3.org/2000/svg" version="1.1" width="100px" height="100px" style="shape-rendering:geometricPrecision; text-rendering:geometricPrecision; image-rendering:optimizeQuality; fill-rule:evenodd; clip-rule:evenodd" xmlns:xlink="http://www.w3.org/1999/xlink">
<g><path style="opacity:0.999" fill="#ededef" d="M 57.5,13.5 C 57.1568,15.4832 57.8235,16.8166 59.5,17.5C 59.8333,17.5 60.1667,17.5 60.5,17.5C 62.205,18.5353 63.8716,18.5353 65.5,17.5C 66.3081,17.8076 66.9747,18.3076 67.5,19C 64.5,19.3333 61.5,19.6667 58.5,20C 59.5,20.3333 60.5,20.6667 61.5,21C 50.1495,27.3362 38.1495,29.3362 25.5,27C 26.6956,26.3457 26.6956,25.8457 25.5,25.5C 24.1861,26.3128 23.0195,27.3128 22,28.5C 21.5357,27.9056 21.369,27.2389 21.5,26.5C 22.5981,25.603 22.5981,24.7697 21.5,24C 23.0009,22.7485 24.6675,21.7485 26.5,21C 30.9979,20.2427 35.1645,18.7427 39,16.5C 39.3333,17.1667 39.6667,17.8333 40,18.5C 40.6377,17.3914 41.1377,16.2247 41.5,15C 39.2807,12.9064 38.2807,10.5731 38.5,8C 44.2687,3.49793 49.9354,3.49793 55.5,8C 55.1667,8.33333 54.8333,8.66667 54.5,9C 56.1412,10.129 57.1412,11.629 57.5,13.5 Z"/></g>
<g><path style="opacity:1" fill="#e7e8e9" d="M 57.5,13.5 C 58.2216,13.9175 58.7216,14.5842 59,15.5C 59.3333,14.8333 59.6667,14.1667 60,13.5C 62.405,14.2744 64.905,14.7744 67.5,15C 65.5,15.3333 63.5,15.6667 61.5,16C 64.877,16.3685 68.2103,16.3685 71.5,16C 72.3117,17.8228 73.3117,19.6561 74.5,21.5C 74.6068,23.3786 74.1068,23.7119 73,22.5C 56.8794,29.3815 40.0461,32.5482 22.5,32C 21.0267,31.2904 20.3601,30.1238 20.5,28.5C 20.3284,27.5084 20.6618,26.8417 21.5,26.5C 21.369,27.2389 21.5357,27.9056 22,28.5C 23.0195,27.3128 24.1861,26.3128 25.5,25.5C 26.6956,25.8457 26.6956,26.3457 25.5,27C 38.1495,29.3362 50.1495,27.3362 61.5,21C 60.5,20.6667 59.5,20.3333 58.5,20C 61.5,19.6667 64.5,19.3333 67.5,19C 66.9747,18.3076 66.3081,17.8076 65.5,17.5C 63.8716,18.5353 62.205,18.5353 60.5,17.5C 60.1667,16.1667 59.8333,16.1667 59.5,17.5C 57.8235,16.8166 57.1568,15.4832 57.5,13.5 Z"/></g>
<g><path style="opacity:1" fill="#d4d5d8" d="M 74.5,21.5 C 75.397,22.5981 76.2303,22.5981 77,21.5C 77.9147,22.3279 78.5814,23.3279 79,24.5C 79.2485,27.9194 79.7485,31.2527 80.5,34.5C 79.8333,34.5 79.1667,34.5 78.5,34.5C 78.1667,30.5 77.8333,30.5 77.5,34.5C 76.8333,34.5 76.5,34.8333 76.5,35.5C 58.7697,36.8998 41.103,38.8998 23.5,41.5C 22.4163,41.315 21.4163,40.9817 20.5,40.5C 20.6716,39.5084 20.3382,38.8417 19.5,38.5C 19.7373,37.209 19.404,36.209 18.5,35.5C 18.1706,32.7718 18.8372,30.4385 20.5,28.5C 20.3601,30.1238 21.0267,31.2904 22.5,32C 40.0461,32.5482 56.8794,29.3815 73,22.5C 74.1068,23.7119 74.6068,23.3786 74.5,21.5 Z"/></g>
<g><path style="opacity:0.008" fill="#cdccdc" d="M 18.5,35.5 C 18.5,36.5 18.5,37.5 18.5,38.5C 16.615,36.2046 16.115,33.538 17,30.5C 17.1981,32.3817 17.6981,34.0484 18.5,35.5 Z"/></g>
<g><path style="opacity:1" fill="#ecedee" d="M 76.5,35.5 C 75.8836,37.4171 74.5503,38.5838 72.5,39C 63.1082,40.745 53.7749,42.745 44.5,45C 38.1874,45.7646 31.8541,46.2646 25.5,46.5C 22.0606,46.4464 18.8939,45.7797 16,44.5C 14.6081,46.8418 13.7748,46.8418 13.5,44.5C 14.5981,43.603 14.5981,42.7697 13.5,42C 15.2331,40.8111 16.8998,39.6444 18.5,38.5C 18.8333,38.5 19.1667,38.5 19.5,38.5C 19.3284,39.4916 19.6618,40.1583 20.5,40.5C 21.4163,40.9817 22.4163,41.315 23.5,41.5C 41.103,38.8998 58.7697,36.8998 76.5,35.5 Z"/></g>
<g><path style="opacity:1" fill="#e0e1e4" d="M 77.5,34.5 C 77.8333,34.5 78.1667,34.5 78.5,34.5C 79.1667,35.8333 79.8333,35.8333 80.5,34.5C 82.7453,34.5412 83.4119,35.3745 82.5,37C 83.3805,37.7083 84.0472,38.5416 84.5,39.5C 84.6068,41.3786 84.1068,41.7119 83,40.5C 59.753,47.1738 35.9196,50.1738 11.5,49.5C 11.5,49.1667 11.5,48.8333 11.5,48.5C 11.6596,46.847 12.3263,45.5137 13.5,44.5C 13.7748,46.8418 14.6081,46.8418 16,44.5C 18.8939,45.7797 22.0606,46.4464 25.5,46.5C 31.8541,46.2646 38.1874,45.7646 44.5,45C 53.7749,42.745 63.1082,40.745 72.5,39C 74.5503,38.5838 75.8836,37.4171 76.5,35.5C 76.5,34.8333 76.8333,34.5 77.5,34.5 Z"/></g>
<g><path style="opacity:1" fill="#d1d0d3" d="M 84.5,39.5 C 85.1667,39.5 85.5,39.8333 85.5,40.5C 85.2852,42.1788 85.9519,43.1788 87.5,43.5C 87.5,44.1667 87.5,44.8333 87.5,45.5C 87.5,46.5 87.5,47.5 87.5,48.5C 72.0803,48.4927 56.747,49.6593 41.5,52C 31.5056,52.4998 21.5056,52.6665 11.5,52.5C 11.5,51.5 11.5,50.5 11.5,49.5C 35.9196,50.1738 59.753,47.1738 83,40.5C 84.1068,41.7119 84.6068,41.3786 84.5,39.5 Z"/></g>
<g><path style="opacity:1" fill="#c2b8b9" d="M 89.5,51.5 C 89.1667,44.8333 88.8333,44.8333 88.5,51.5C 87.6618,51.8417 87.3284,52.5084 87.5,53.5C 61.8333,53.5 36.1667,53.5 10.5,53.5C 10.1667,48.1667 9.83333,48.1667 9.5,53.5C 8.23555,51.2279 8.40221,48.8945 10,46.5C 10.2784,47.4158 10.7784,48.0825 11.5,48.5C 11.5,48.8333 11.5,49.1667 11.5,49.5C 11.5,50.5 11.5,51.5 11.5,52.5C 21.5056,52.6665 31.5056,52.4998 41.5,52C 56.747,49.6593 72.0803,48.4927 87.5,48.5C 87.5,47.5 87.5,46.5 87.5,45.5C 88.8333,44.8333 88.8333,44.1667 87.5,43.5C 85.9519,43.1788 85.2852,42.1788 85.5,40.5C 86.1174,40.3893 86.6174,40.056 87,39.5C 90.0883,43.2074 90.9217,47.2074 89.5,51.5 Z"/></g>
<g><path style="opacity:1" fill="#dda04d" d="M 88.5,51.5 C 88.8333,51.5 89.1667,51.5 89.5,51.5C 89.5,52.8333 89.5,54.1667 89.5,55.5C 62.8333,55.5 36.1667,55.5 9.5,55.5C 9.5,55.1667 9.5,54.8333 9.5,54.5C 9.5,54.1667 9.5,53.8333 9.5,53.5C 9.83333,53.5 10.1667,53.5 10.5,53.5C 36.1667,53.5 61.8333,53.5 87.5,53.5C 88.3382,53.1583 88.6716,52.4916 88.5,51.5 Z"/></g>
<g><path style="opacity:1" fill="#bd6010" d="M 9.5,55.5 C 36.1667,55.5 62.8333,55.5 89.5,55.5C 89.5,55.8333 89.5,56.1667 89.5,56.5C 75.6398,58.1244 61.6398,59.9578 47.5,62C 36.4169,62.9133 25.4169,62.4133 14.5,60.5C 12.9891,59.4975 11.3224,58.8308 9.5,58.5C 9.5,57.5 9.5,56.5 9.5,55.5 Z"/></g>
<g><path style="opacity:1" fill="#ae4e0c" d="M 90.5,65.5 C 90.6633,63.1432 90.4966,60.8098 90,58.5C 89.51,59.7932 89.3433,61.1266 89.5,62.5C 66.9115,63.9212 44.2449,64.4212 21.5,64C 18.6081,63.7509 16.2747,62.5842 14.5,60.5C 25.4169,62.4133 36.4169,62.9133 47.5,62C 61.6398,59.9578 75.6398,58.1244 89.5,56.5C 90.2679,55.7375 90.7679,54.7375 91,53.5C 92.4771,57.6094 92.3104,61.6094 90.5,65.5 Z"/></g>
<g><path style="opacity:0.012" fill="#aa4902" d="M 7.5,60.5 C 7.83333,60.5 8.16667,60.5 8.5,60.5C 8.5,62.1667 8.5,63.8333 8.5,65.5C 7.54885,64.0813 7.21552,62.4147 7.5,60.5 Z"/></g>
<g><path style="opacity:1" fill="#a1410c" d="M 9.5,54.5 C 9.5,54.8333 9.5,55.1667 9.5,55.5C 9.5,56.5 9.5,57.5 9.5,58.5C 11.3224,58.8308 12.9891,59.4975 14.5,60.5C 16.2747,62.5842 18.6081,63.7509 21.5,64C 44.2449,64.4212 66.9115,63.9212 89.5,62.5C 89.5,63.5 89.5,64.5 89.5,65.5C 88.596,66.209 88.2627,67.209 88.5,68.5C 87.8333,68.5 87.5,68.8333 87.5,69.5C 86.8333,69.5 86.1667,69.5 85.5,69.5C 83.6948,67.8031 81.3615,66.9698 78.5,67C 66.8266,66.4335 55.1599,66.6002 43.5,67.5C 32.7465,67.1597 22.0799,66.1597 11.5,64.5C 10.8333,64.5 10.1667,64.5 9.5,64.5C 9.76781,62.901 9.43448,61.5676 8.5,60.5C 8.16667,53.8333 7.83333,53.8333 7.5,60.5C 6.53862,58.7354 6.20528,56.7354 6.5,54.5C 7.5,54.5 8.5,54.5 9.5,54.5 Z"/></g>
<g><path style="opacity:0.012" fill="#9f4401" d="M 89.5,65.5 C 89.8333,65.5 90.1667,65.5 90.5,65.5C 90.7373,66.791 90.404,67.791 89.5,68.5C 89.5,67.5 89.5,66.5 89.5,65.5 Z"/></g>
<g><path style="opacity:1" fill="#8d2f07" d="M 11.5,64.5 C 22.0799,66.1597 32.7465,67.1597 43.5,67.5C 55.1599,66.6002 66.8266,66.4335 78.5,67C 81.3615,66.9698 83.6948,67.8031 85.5,69.5C 83.461,70.911 82.461,72.911 82.5,75.5C 61.1683,73.7177 39.8349,72.0511 18.5,70.5C 14.1401,70.7145 11.8068,68.7145 11.5,64.5 Z"/></g>
<g><path style="opacity:0.012" fill="#924900" d="M 88.5,68.5 C 88.8333,68.5 89.1667,68.5 89.5,68.5C 89.6716,69.4916 89.3382,70.1583 88.5,70.5C 88.5,69.8333 88.5,69.1667 88.5,68.5 Z"/></g>
<g><path style="opacity:0.012" fill="#9b4d00" d="M 87.5,70.5 C 87.8333,70.5 88.1667,70.5 88.5,70.5C 88.6716,71.4916 88.3382,72.1583 87.5,72.5C 87.5,71.8333 87.5,71.1667 87.5,70.5 Z"/></g>
<g><path style="opacity:0.004" fill="#211f07" d="M 11.5,73.5 C 11.8333,73.5 12.1667,73.5 12.5,73.5C 12.5,74.1667 12.5,74.8333 12.5,75.5C 11.6618,75.1583 11.3284,74.4916 11.5,73.5 Z"/></g>
<g><path style="opacity:0.012" fill="#a95500" d="M 85.5,75.5 C 86.8333,76.1667 86.8333,76.1667 85.5,75.5 Z"/></g>
<g><path style="opacity:1" fill="#782207" d="M 85.5,69.5 C 86.1667,69.5 86.8333,69.5 87.5,69.5C 87.5,69.8333 87.5,70.1667 87.5,70.5C 86.1667,71.1667 86.1667,71.8333 87.5,72.5C 86.8333,73.5 86.1667,74.5 85.5,75.5C 84.8333,75.5 84.5,75.8333 84.5,76.5C 83.8333,76.5 83.5,76.8333 83.5,77.5C 79.9499,78.2511 76.4499,79.2511 73,80.5C 56.4776,79.711 39.9776,78.5443 23.5,77C 20.521,75.8884 18.8543,73.7217 18.5,70.5C 39.8349,72.0511 61.1683,73.7177 82.5,75.5C 82.461,72.911 83.461,70.911 85.5,69.5 Z"/></g>
<g><path style="opacity:0.008" fill="#7f1f00" d="M 84.5,76.5 C 84.8333,76.5 85.1667,76.5 85.5,76.5C 85.6716,77.4916 85.3382,78.1583 84.5,78.5C 84.5,77.8333 84.5,77.1667 84.5,76.5 Z"/></g>
<g><path style="opacity:0.012" fill="#540000" d="M 83.5,78.5 C 83.8333,78.5 84.1667,78.5 84.5,78.5C 84.3147,79.1701 83.9813,79.1701 83.5,78.5 Z"/></g>
<g><path style="opacity:0.012" fill="#545500" d="M 82.5,79.5 C 82.8333,79.5 83.1667,79.5 83.5,79.5C 83.3147,80.1701 82.9813,80.1701 82.5,79.5 Z"/></g>
<g><path style="opacity:1" fill="#6b1d0a" d="M 9.5,64.5 C 10.1667,64.5 10.8333,64.5 11.5,64.5C 11.8068,68.7145 14.1401,70.7145 18.5,70.5C 18.8543,73.7217 20.521,75.8884 23.5,77C 39.9776,78.5443 56.4776,79.711 73,80.5C 76.4499,79.2511 79.9499,78.2511 83.5,77.5C 83.5,77.8333 83.5,78.1667 83.5,78.5C 82.8333,78.5 82.5,78.8333 82.5,79.5C 81.8333,79.5 81.5,79.8333 81.5,80.5C 81.1667,80.5 80.8333,80.5 80.5,80.5C 78.8042,80.6854 77.4709,81.5187 76.5,83C 59.1296,83.4979 41.7963,82.8312 24.5,81C 22.7148,79.8372 20.7148,79.1705 18.5,79C 17.3181,75.9881 15.3181,73.8214 12.5,72.5C 11.794,71.4427 11.4607,71.7761 11.5,73.5C 9.4152,71.3155 8.4152,68.6489 8.5,65.5C 9.16667,65.5 9.5,65.1667 9.5,64.5 Z"/></g>
<g><path style="opacity:1" fill="#5b1c0f" d="M 12.5,73.5 C 12.5,73.1667 12.5,72.8333 12.5,72.5C 15.3181,73.8214 17.3181,75.9881 18.5,79C 20.7148,79.1705 22.7148,79.8372 24.5,81C 41.7963,82.8312 59.1296,83.4979 76.5,83C 77.4709,81.5187 78.8042,80.6854 80.5,80.5C 80.8333,81.8333 81.1667,81.8333 81.5,80.5C 81.8333,80.5 82.1667,80.5 82.5,80.5C 80.4378,84.8947 77.1045,87.8947 72.5,89.5C 71.8333,88.1667 71.1667,88.1667 70.5,89.5C 67.8333,89.8333 67.8333,90.1667 70.5,90.5C 67.9164,92.4725 64.9164,93.4725 61.5,93.5C 53.5,92.1667 45.5,92.1667 37.5,93.5C 33.1074,93.5432 32.7741,93.0432 36.5,92C 34.1287,91.2652 31.7954,90.4318 29.5,89.5C 27.7763,90.6613 26.1096,90.4947 24.5,89C 25.6537,88.0862 25.487,87.2529 24,86.5C 22.1291,87.6678 20.6291,87.1678 19.5,85C 19.8333,84.6667 20.1667,84.3333 20.5,84C 19.2566,81.9662 17.7566,81.1329 16,81.5C 16.6171,79.9052 16.2837,78.5719 15,77.5C 13.3745,78.4119 12.5412,77.7453 12.5,75.5C 13.8333,74.8333 13.8333,74.1667 12.5,73.5 Z"/></g>
<g><path style="opacity:0.012" fill="#653207" d="M 70.5,90.5 C 70.5,90.1667 70.5,89.8333 70.5,89.5C 71.1667,89.5 71.8333,89.5 72.5,89.5C 72.1583,90.3382 71.4916,90.6716 70.5,90.5 Z"/></g>
<g><path style="opacity:0.012" fill="#3e0f02" d="M 37.5,93.5 C 45.5,93.5 53.5,93.5 61.5,93.5C 53.5,94.8333 45.5,94.8333 37.5,93.5 Z"/></g>
</svg>
