<?xml version="1.0" encoding="UTF-8"?>
<!DOCTYPE svg PUBLIC "-//W3C//DTD SVG 1.1//EN" "http://www.w3.org/Graphics/SVG/1.1/DTD/svg11.dtd">
<svg xmlns="http://www.w3.org/2000/svg" version="1.1" width="100px" height="100px" style="shape-rendering:geometricPrecision; text-rendering:geometricPrecision; image-rendering:optimizeQuality; fill-rule:evenodd; clip-rule:evenodd" xmlns:xlink="http://www.w3.org/1999/xlink">
<g><path style="opacity:0.004" fill="#00d200" d="M 48.5,5.5 C 48.8966,4.47498 49.5632,4.30831 50.5,5C 49.9056,5.46434 49.2389,5.63101 48.5,5.5 Z"/></g>
<g><path style="opacity:0.004" fill="#000000" d="M 48.5,5.5 C 48.5,5.83333 48.5,6.16667 48.5,6.5C 47.8299,6.01865 47.8299,5.68532 48.5,5.5 Z"/></g>
<g><path style="opacity:0.008" fill="#62ba6b" d="M 43.5,12.5 C 42.6618,12.8417 42.3284,13.5084 42.5,14.5C 42.1667,14.5 41.8333,14.5 41.5,14.5C 41.281,13.325 41.6143,12.325 42.5,11.5C 43.1067,11.6236 43.44,11.9569 43.5,12.5 Z"/></g>
<g><path style="opacity:1" fill="#389d4c" d="M 48.5,6.5 C 49.9311,6.88066 50.7645,7.88066 51,9.5C 51.3333,8.5 51.6667,7.5 52,6.5C 54.0815,9.14562 55.4149,12.1456 56,15.5C 56.3333,14.5 56.6667,13.5 57,12.5C 58.1488,15.3926 58.6488,18.3926 58.5,21.5C 58.1667,21.5 57.8333,21.5 57.5,21.5C 57.1667,14.8333 56.8333,14.8333 56.5,21.5C 51.8333,18.8333 47.1667,18.8333 42.5,21.5C 42.5,19.1667 42.5,16.8333 42.5,14.5C 43.3382,14.1583 43.6716,13.4916 43.5,12.5C 44.7736,11.8106 44.7736,10.9772 43.5,10C 44.0253,9.30762 44.6919,8.80762 45.5,8.5C 46.2811,9.72865 46.7811,11.062 47,12.5C 47.5046,10.4817 48.0046,8.48174 48.5,6.5 Z"/></g>
<g><path style="opacity:0.999" fill="#f2d065" d="M 56.5,21.5 C 56.5,22.5 56.5,23.5 56.5,24.5C 56.0825,25.2216 55.4158,25.7216 54.5,26C 55.3851,29.7909 57.7184,32.2909 61.5,33.5C 64.9891,36.9672 67.9891,40.6338 70.5,44.5C 69.6857,46.2726 68.3524,46.7726 66.5,46C 66.208,42.9545 64.708,40.7879 62,39.5C 62.3308,41.0187 62.1641,42.352 61.5,43.5C 61.5,42.8333 61.1667,42.5 60.5,42.5C 60.573,40.9731 59.9063,39.9731 58.5,39.5C 56.2129,35.2644 53.2129,31.5978 49.5,28.5C 48.8933,28.6236 48.56,28.9569 48.5,29.5C 46.8333,30.8333 45.1667,32.1667 43.5,33.5C 43.7947,31.2646 43.4614,29.2646 42.5,27.5C 42.5,25.8333 42.5,24.1667 42.5,22.5C 42.5,22.1667 42.5,21.8333 42.5,21.5C 47.1667,18.8333 51.8333,18.8333 56.5,21.5 Z"/></g>
<g><path style="opacity:1" fill="#f4d774" d="M 42.5,27.5 C 43.4614,29.2646 43.7947,31.2646 43.5,33.5C 40.0134,37.3218 37.3468,41.6551 35.5,46.5C 35.1667,47.1667 34.8333,47.8333 34.5,48.5C 33.5184,45.0381 33.185,41.3714 33.5,37.5C 31.3146,37.7036 29.3146,38.3702 27.5,39.5C 32.8017,35.7073 37.8017,31.7073 42.5,27.5 Z"/></g>
<g><path style="opacity:1" fill="#edd085" d="M 41.5,14.5 C 41.1936,17.3854 41.5269,20.0521 42.5,22.5C 42.5,24.1667 42.5,25.8333 42.5,27.5C 37.8017,31.7073 32.8017,35.7073 27.5,39.5C 24.5091,41.1233 22.1757,43.4567 20.5,46.5C 19.5,46.5 18.5,46.5 17.5,46.5C 20.1966,41.2941 23.8633,36.7941 28.5,33C 27.1667,32.3333 27.1667,31.6667 28.5,31C 32.0788,29.2941 35.5788,27.4608 39,25.5C 40.0141,21.7595 40.8474,18.0928 41.5,14.5 Z"/></g>
<g><path style="opacity:0.986" fill="#edc774" d="M 57.5,21.5 C 57.8333,21.5 58.1667,21.5 58.5,21.5C 58.7135,23.1439 58.3802,24.6439 57.5,26C 63.3736,26.9357 68.707,29.6024 73.5,34C 73.1667,34.3333 72.8333,34.6667 72.5,35C 74.3702,37.0396 76.3702,38.8729 78.5,40.5C 78.5,40.8333 78.5,41.1667 78.5,41.5C 77.5489,43.118 76.2156,44.4513 74.5,45.5C 73.2638,44.7542 71.9305,44.4208 70.5,44.5C 67.9891,40.6338 64.9891,36.9672 61.5,33.5C 57.7184,32.2909 55.3851,29.7909 54.5,26C 55.4158,25.7216 56.0825,25.2216 56.5,24.5C 57.404,23.791 57.7373,22.791 57.5,21.5 Z"/></g>
<g><path style="opacity:1" fill="#f1c539" d="M 58.5,39.5 C 59.4132,41.0861 59.4132,42.5861 58.5,44C 56.4636,44.4536 54.6303,45.2869 53,46.5C 52.2352,46.4301 51.7352,46.0967 51.5,45.5C 51.6633,43.1432 51.4966,40.8098 51,38.5C 48.6494,37.2857 46.1494,36.4523 43.5,36C 45.7899,34.2228 47.4566,32.0562 48.5,29.5C 48.56,28.9569 48.8933,28.6236 49.5,28.5C 53.2129,31.5978 56.2129,35.2644 58.5,39.5 Z"/></g>
<g><path style="opacity:1" fill="#f1cc5a" d="M 34.5,48.5 C 34.5,49.1667 34.5,49.8333 34.5,50.5C 32.9374,48.2703 30.9374,46.2703 28.5,44.5C 25.929,46.5046 23.2623,47.1713 20.5,46.5C 22.1757,43.4567 24.5091,41.1233 27.5,39.5C 29.3146,38.3702 31.3146,37.7036 33.5,37.5C 33.185,41.3714 33.5184,45.0381 34.5,48.5 Z"/></g>
<g><path style="opacity:0.012" fill="#a95554" d="M 78.5,39.5 C 79.8333,40.1667 79.8333,40.1667 78.5,39.5 Z"/></g>
<g><path style="opacity:0.02" fill="#edc734" d="M 82.5,45.5 C 82.1667,45.5 81.8333,45.5 81.5,45.5C 81.5,44.8333 81.1667,44.5 80.5,44.5C 81.3013,42.2071 81.968,42.5404 82.5,45.5 Z"/></g>
<g><path style="opacity:0.008" fill="#ffd64c" d="M 16.5,47.5 C 15.475,47.1034 15.3083,46.4368 16,45.5C 16.4643,46.0944 16.631,46.7611 16.5,47.5 Z"/></g>
<g><path style="opacity:0.012" fill="#ffc647" d="M 82.5,45.5 C 83.8333,46.1667 83.8333,46.8333 82.5,47.5C 82.5,46.8333 82.5,46.1667 82.5,45.5 Z"/></g>
<g><path style="opacity:1" fill="#e9b746" d="M 70.5,44.5 C 71.9305,44.4208 73.2638,44.7542 74.5,45.5C 76.2156,44.4513 77.5489,43.118 78.5,41.5C 79.1098,42.391 79.4431,43.391 79.5,44.5C 78.4975,46.0109 77.8308,47.6776 77.5,49.5C 73.543,49.8226 69.7097,49.8226 66,49.5C 65.7216,50.4158 65.2216,51.0825 64.5,51.5C 64.1667,50.1667 63.8333,48.8333 63.5,47.5C 62.8333,46.1667 62.1667,44.8333 61.5,43.5C 62.1641,42.352 62.3308,41.0187 62,39.5C 64.708,40.7879 66.208,42.9545 66.5,46C 68.3524,46.7726 69.6857,46.2726 70.5,44.5 Z"/></g>
<g><path style="opacity:1" fill="#efbf4b" d="M 48.5,29.5 C 47.4566,32.0562 45.7899,34.2228 43.5,36C 46.1494,36.4523 48.6494,37.2857 51,38.5C 51.4966,40.8098 51.6633,43.1432 51.5,45.5C 50.2542,47.9015 48.2542,49.4015 45.5,50C 42.3035,50.8045 39.3035,50.6378 36.5,49.5C 36.7373,48.209 36.404,47.209 35.5,46.5C 37.3468,41.6551 40.0134,37.3218 43.5,33.5C 45.1667,32.1667 46.8333,30.8333 48.5,29.5 Z"/></g>
<g><path style="opacity:1" fill="#f1ca70" d="M 40.5,39.5 C 46.9857,37.8346 49.819,40.168 49,46.5C 45.7623,48.757 42.2623,49.0904 38.5,47.5C 37.3465,44.4469 38.0132,41.7803 40.5,39.5 Z"/></g>
<g><path style="opacity:1" fill="#ecb333" d="M 58.5,39.5 C 59.9063,39.9731 60.573,40.9731 60.5,42.5C 60.8333,44.5 61.1667,46.5 61.5,48.5C 56.4457,49.6835 51.4457,51.1835 46.5,53C 42.6343,53.2978 38.9676,53.4645 35.5,53.5C 35.2322,51.901 35.5655,50.5676 36.5,49.5C 39.3035,50.6378 42.3035,50.8045 45.5,50C 48.2542,49.4015 50.2542,47.9015 51.5,45.5C 51.7352,46.0967 52.2352,46.4301 53,46.5C 54.6303,45.2869 56.4636,44.4536 58.5,44C 59.4132,42.5861 59.4132,41.0861 58.5,39.5 Z"/></g>
<g><path style="opacity:1" fill="#e8a523" d="M 60.5,42.5 C 61.1667,42.5 61.5,42.8333 61.5,43.5C 62.1667,44.8333 62.8333,46.1667 63.5,47.5C 62.9918,49.8422 61.9918,52.0088 60.5,54C 52.3311,56.4009 43.9977,57.5676 35.5,57.5C 35.5,56.1667 35.5,54.8333 35.5,53.5C 38.9676,53.4645 42.6343,53.2978 46.5,53C 51.4457,51.1835 56.4457,49.6835 61.5,48.5C 61.1667,46.5 60.8333,44.5 60.5,42.5 Z"/></g>
<g><path style="opacity:1" fill="#eab434" d="M 34.5,50.5 C 33.8902,51.391 33.5569,52.391 33.5,53.5C 33.5,54.5 33.5,55.5 33.5,56.5C 32.7784,56.9175 32.2784,57.5842 32,58.5C 26.262,56.9308 20.762,54.9308 15.5,52.5C 16.038,50.8828 16.3713,49.2161 16.5,47.5C 17.1667,47.5 17.5,47.1667 17.5,46.5C 18.5,46.5 19.5,46.5 20.5,46.5C 23.2623,47.1713 25.929,46.5046 28.5,44.5C 30.9374,46.2703 32.9374,48.2703 34.5,50.5 Z"/></g>
<g><path style="opacity:1" fill="#e2a330" d="M 79.5,44.5 C 79.8333,44.5 80.1667,44.5 80.5,44.5C 81.1667,44.5 81.5,44.8333 81.5,45.5C 81.5,46.1667 81.5,46.8333 81.5,47.5C 80.9344,49.0783 79.9344,50.4116 78.5,51.5C 74.8333,52.8333 71.1667,54.1667 67.5,55.5C 66.8281,56.9492 66.1614,58.2825 65.5,59.5C 65.5,59.1667 65.5,58.8333 65.5,58.5C 65.3259,56.139 64.9926,53.8056 64.5,51.5C 65.2216,51.0825 65.7216,50.4158 66,49.5C 69.7097,49.8226 73.543,49.8226 77.5,49.5C 77.8308,47.6776 78.4975,46.0109 79.5,44.5 Z"/></g>
<g><path style="opacity:1" fill="#e49618" d="M 35.5,46.5 C 36.404,47.209 36.7373,48.209 36.5,49.5C 35.5655,50.5676 35.2322,51.901 35.5,53.5C 35.5,54.8333 35.5,56.1667 35.5,57.5C 43.9977,57.5676 52.3311,56.4009 60.5,54C 61.9918,52.0088 62.9918,49.8422 63.5,47.5C 63.8333,48.8333 64.1667,50.1667 64.5,51.5C 63.776,53.2184 63.1094,55.0517 62.5,57C 53.3221,59.4302 43.9888,60.5969 34.5,60.5C 34.8016,57.9407 34.4682,55.6074 33.5,53.5C 33.5569,52.391 33.8902,51.391 34.5,50.5C 34.5,49.8333 34.5,49.1667 34.5,48.5C 34.8333,47.8333 35.1667,47.1667 35.5,46.5 Z"/></g>
<g><path style="opacity:1" fill="#dc911d" d="M 81.5,47.5 C 81.8333,47.5 82.1667,47.5 82.5,47.5C 82.5,48.8333 82.5,50.1667 82.5,51.5C 82.6602,53.1992 82.4935,54.8659 82,56.5C 81.6667,56.1667 81.3333,55.8333 81,55.5C 76.7339,57.623 72.2339,59.123 67.5,60C 66.5939,61.6995 66.2606,63.5328 66.5,65.5C 66.1667,65.5 65.8333,65.5 65.5,65.5C 65.5,63.5 65.5,61.5 65.5,59.5C 66.1614,58.2825 66.8281,56.9492 67.5,55.5C 71.1667,54.1667 74.8333,52.8333 78.5,51.5C 79.9344,50.4116 80.9344,49.0783 81.5,47.5 Z"/></g>
<g><path style="opacity:1" fill="#df9517" d="M 15.5,52.5 C 20.762,54.9308 26.262,56.9308 32,58.5C 32.2784,57.5842 32.7784,56.9175 33.5,56.5C 33.5,59.1667 33.5,61.8333 33.5,64.5C 24.2842,66.8931 18.2842,63.5598 15.5,54.5C 15.5,53.8333 15.5,53.1667 15.5,52.5 Z"/></g>
<g><path style="opacity:1" fill="#df8810" d="M 64.5,51.5 C 64.9926,53.8056 65.3259,56.139 65.5,58.5C 64.0755,56.9689 63.4088,57.3023 63.5,59.5C 54.0403,62.2429 44.3736,63.5763 34.5,63.5C 34.5,62.5 34.5,61.5 34.5,60.5C 43.9888,60.5969 53.3221,59.4302 62.5,57C 63.1094,55.0517 63.776,53.2184 64.5,51.5 Z"/></g>
<g><path style="opacity:0.999" fill="#d47d10" d="M 82.5,51.5 C 83.4345,52.5676 83.7678,53.901 83.5,55.5C 83.6989,58.941 83.1989,62.2744 82,65.5C 81.6667,64.8333 81.3333,64.1667 81,63.5C 76.4695,64.1146 71.6361,64.7812 66.5,65.5C 66.2606,63.5328 66.5939,61.6995 67.5,60C 72.2339,59.123 76.7339,57.623 81,55.5C 81.3333,55.8333 81.6667,56.1667 82,56.5C 82.4935,54.8659 82.6602,53.1992 82.5,51.5 Z"/></g>
<g><path style="opacity:1" fill="#d37009" d="M 33.5,53.5 C 34.4682,55.6074 34.8016,57.9407 34.5,60.5C 34.5,61.5 34.5,62.5 34.5,63.5C 34.4142,64.4959 34.7476,65.3292 35.5,66C 37.5,66.1667 39.5,66.3333 41.5,66.5C 48.8772,65.7145 56.2105,64.7145 63.5,63.5C 63.5,62.1667 63.5,60.8333 63.5,59.5C 63.4088,57.3023 64.0755,56.9689 65.5,58.5C 65.5,58.8333 65.5,59.1667 65.5,59.5C 65.5,61.5 65.5,63.5 65.5,65.5C 65.7373,66.791 65.404,67.791 64.5,68.5C 64.6495,67.448 64.4828,66.448 64,65.5C 54.5793,69.2379 44.9126,70.2379 35,68.5C 34.5065,70.1341 34.3398,71.8008 34.5,73.5C 27.8704,72.1922 21.8704,69.5255 16.5,65.5C 16.1667,65.5 15.8333,65.5 15.5,65.5C 15.3505,64.448 15.5172,63.448 16,62.5C 17.214,64.0488 18.714,65.2155 20.5,66C 23.682,66.4069 26.8486,66.9069 30,67.5C 31.3261,67.7549 32.3261,68.4216 33,69.5C 33.4935,67.8659 33.6602,66.1992 33.5,64.5C 33.5,61.8333 33.5,59.1667 33.5,56.5C 33.5,55.5 33.5,54.5 33.5,53.5 Z"/></g>
<g><path style="opacity:1" fill="#da7d0b" d="M 63.5,59.5 C 63.5,60.8333 63.5,62.1667 63.5,63.5C 56.2105,64.7145 48.8772,65.7145 41.5,66.5C 39.5,66.3333 37.5,66.1667 35.5,66C 34.7476,65.3292 34.4142,64.4959 34.5,63.5C 44.3736,63.5763 54.0403,62.2429 63.5,59.5 Z"/></g>
<g><path style="opacity:1" fill="#d07d15" d="M 15.5,54.5 C 18.2842,63.5598 24.2842,66.8931 33.5,64.5C 33.6602,66.1992 33.4935,67.8659 33,69.5C 32.3261,68.4216 31.3261,67.7549 30,67.5C 26.8486,66.9069 23.682,66.4069 20.5,66C 18.714,65.2155 17.214,64.0488 16,62.5C 15.5172,63.448 15.3505,64.448 15.5,65.5C 14.71,66.6085 14.21,67.9419 14,69.5C 12,63.1667 12,56.8333 14,50.5C 14.21,52.0581 14.71,53.3915 15.5,54.5 Z"/></g>
<g><path style="opacity:1" fill="#cd740f" d="M 84.5,68.5 C 84.1667,61.8333 83.8333,61.8333 83.5,68.5C 82.6618,68.8417 82.3284,69.5084 82.5,70.5C 81.8333,70.5 81.1667,70.5 80.5,70.5C 80.5,69.5 80.5,68.5 80.5,67.5C 76.5104,66.8099 72.5104,66.6432 68.5,67C 67.0797,68.4916 65.7464,69.9916 64.5,71.5C 64.5,70.5 64.5,69.5 64.5,68.5C 65.404,67.791 65.7373,66.791 65.5,65.5C 65.8333,65.5 66.1667,65.5 66.5,65.5C 71.6361,64.7812 76.4695,64.1146 81,63.5C 81.3333,64.1667 81.6667,64.8333 82,65.5C 83.1989,62.2744 83.6989,58.941 83.5,55.5C 84.29,54.3915 84.79,53.0581 85,51.5C 87.1339,57.3714 86.9672,63.0381 84.5,68.5 Z"/></g>
<g><path style="opacity:1" fill="#cc6207" d="M 64.5,68.5 C 64.5,69.5 64.5,70.5 64.5,71.5C 64.1667,71.5 63.8333,71.5 63.5,71.5C 53.9954,73.0176 44.6621,73.6843 35.5,73.5C 35.1667,73.5 34.8333,73.5 34.5,73.5C 34.3398,71.8008 34.5065,70.1341 35,68.5C 44.9126,70.2379 54.5793,69.2379 64,65.5C 64.4828,66.448 64.6495,67.448 64.5,68.5 Z"/></g>
<g><path style="opacity:1" fill="#c8680b" d="M 80.5,70.5 C 80.2792,73.0972 79.7792,73.0972 79,70.5C 77.6246,72.3761 76.458,74.3761 75.5,76.5C 73.2362,75.9622 70.9028,76.2956 68.5,77.5C 67.1667,79.1667 67.1667,80.8333 68.5,82.5C 69.086,82.2907 69.586,81.9574 70,81.5C 70.49,82.7932 70.6567,84.1266 70.5,85.5C 70.5,85.8333 70.5,86.1667 70.5,86.5C 69.1667,86.8333 69.1667,87.1667 70.5,87.5C 70.1667,88.5 69.5,89.1667 68.5,89.5C 68.5,89.1667 68.5,88.8333 68.5,88.5C 68.5,87.8333 68.1667,87.5 67.5,87.5C 65.0108,87.7022 62.6775,87.2022 60.5,86C 62.5532,84.3221 62.8866,82.4888 61.5,80.5C 62.3234,77.5394 62.99,74.5394 63.5,71.5C 63.8333,71.5 64.1667,71.5 64.5,71.5C 65.7464,69.9916 67.0797,68.4916 68.5,67C 72.5104,66.6432 76.5104,66.8099 80.5,67.5C 80.5,68.5 80.5,69.5 80.5,70.5 Z"/></g>
<g><path style="opacity:0.012" fill="#d6a8ff" d="M 83.5,68.5 C 83.8333,68.5 84.1667,68.5 84.5,68.5C 84.7373,69.791 84.404,70.791 83.5,71.5C 83.5,70.5 83.5,69.5 83.5,68.5 Z"/></g>
<g><path style="opacity:1" fill="#c5630e" d="M 16.5,65.5 C 21.8704,69.5255 27.8704,72.1922 34.5,73.5C 34.8333,73.5 35.1667,73.5 35.5,73.5C 35.3284,74.4916 35.6618,75.1583 36.5,75.5C 38.4556,81.4103 41.4556,86.7436 45.5,91.5C 44.1667,91.5 42.8333,91.5 41.5,91.5C 40.0474,90.1751 40.3808,89.3418 42.5,89C 38.8173,85.303 36.1506,80.9697 34.5,76C 30.027,73.8821 25.3603,72.3821 20.5,71.5C 17.6803,70.5353 16.3469,68.5353 16.5,65.5 Z"/></g>
<g><path style="opacity:1" fill="#c5590b" d="M 63.5,71.5 C 62.99,74.5394 62.3234,77.5394 61.5,80.5C 61.1667,80.5 60.8333,80.5 60.5,80.5C 60.5,79.5 60.5,78.5 60.5,77.5C 55.57,77.1975 50.7367,77.5308 46,78.5C 45.4806,77.4844 44.6473,76.8178 43.5,76.5C 41.2351,76.0603 39.0684,75.3936 37,74.5C 36.6012,74.7284 36.4346,75.0618 36.5,75.5C 35.6618,75.1583 35.3284,74.4916 35.5,73.5C 44.6621,73.6843 53.9954,73.0176 63.5,71.5 Z"/></g>
<g><path style="opacity:0.004" fill="#e4c5ff" d="M 16.5,72.5 C 16.5,73.1667 16.5,73.8333 16.5,74.5C 15.1667,73.8333 15.1667,73.1667 16.5,72.5 Z"/></g>
<g><path style="opacity:0.012" fill="#d54a04" d="M 82.5,71.5 C 82.8333,71.5 83.1667,71.5 83.5,71.5C 83.7709,73.3797 83.1042,74.713 81.5,75.5C 81.5,74.8333 81.5,74.1667 81.5,73.5C 82.3382,73.1583 82.6716,72.4916 82.5,71.5 Z"/></g>
<g><path style="opacity:0.991" fill="#b05816" d="M 15.5,65.5 C 15.8333,65.5 16.1667,65.5 16.5,65.5C 16.3469,68.5353 17.6803,70.5353 20.5,71.5C 23.1966,76.7059 26.8633,81.2059 31.5,85C 30.4019,85.7697 30.4019,86.603 31.5,87.5C 30.1667,87.8333 30.1667,88.1667 31.5,88.5C 31.8333,89.8333 32.1667,89.8333 32.5,88.5C 33.4916,88.3284 34.1583,88.6618 34.5,89.5C 33.7354,89.9234 32.9021,90.2568 32,90.5C 30.1769,89.3488 28.3436,88.1821 26.5,87C 25.7772,84.1891 23.9438,81.6891 21,79.5C 19.3335,80.3402 19.1669,79.8402 20.5,78C 19.7471,76.513 18.9138,76.3463 18,77.5C 16.9614,76.7562 16.4614,75.7562 16.5,74.5C 17.8333,73.8333 17.8333,73.1667 16.5,72.5C 16.0074,70.1944 15.6741,67.861 15.5,65.5 Z"/></g>
<g><path style="opacity:1" fill="#be6010" d="M 80.5,70.5 C 81.1667,70.5 81.8333,70.5 82.5,70.5C 82.5,70.8333 82.5,71.1667 82.5,71.5C 81.6618,71.8417 81.3284,72.5084 81.5,73.5C 80.6618,73.8417 80.3284,74.5084 80.5,75.5C 79.6618,75.8417 79.3284,76.5084 79.5,77.5C 78.1667,77.8333 78.1667,78.1667 79.5,78.5C 78.9202,80.7488 77.5869,82.4154 75.5,83.5C 75.1667,82.1667 74.8333,82.1667 74.5,83.5C 73.1667,83.8333 73.1667,84.1667 74.5,84.5C 73.7377,86.2624 72.4044,87.2624 70.5,87.5C 70.5,87.1667 70.5,86.8333 70.5,86.5C 71.8333,86.1667 71.8333,85.8333 70.5,85.5C 70.6567,84.1266 70.49,82.7932 70,81.5C 69.586,81.9574 69.086,82.2907 68.5,82.5C 67.1667,80.8333 67.1667,79.1667 68.5,77.5C 70.9028,76.2956 73.2362,75.9622 75.5,76.5C 76.458,74.3761 77.6246,72.3761 79,70.5C 79.7792,73.0972 80.2792,73.0972 80.5,70.5 Z"/></g>
<g><path style="opacity:0.004" fill="#ee3dff" d="M 80.5,75.5 C 80.8333,75.5 81.1667,75.5 81.5,75.5C 81.6716,76.4916 81.3382,77.1583 80.5,77.5C 80.5,76.8333 80.5,76.1667 80.5,75.5 Z"/></g>
<g><path style="opacity:0.008" fill="#7e0000" d="M 79.5,77.5 C 79.8333,77.5 80.1667,77.5 80.5,77.5C 80.3147,78.1701 79.9813,78.1701 79.5,77.5 Z"/></g>
<g><path style="opacity:1" fill="#c4601c" d="M 59.5,82.5 C 58.9202,84.7488 57.5869,86.4154 55.5,87.5C 52.8904,88.502 50.2237,88.3353 47.5,87C 46.5769,84.9592 46.2436,82.7925 46.5,80.5C 49.1178,80.2208 51.6178,79.5541 54,78.5C 55.3988,79.2266 56.8988,79.7266 58.5,80C 59.2524,80.6708 59.5858,81.5041 59.5,82.5 Z"/></g>
<g><path style="opacity:0.008" fill="#fe0000" d="M 74.5,83.5 C 74.8333,83.5 75.1667,83.5 75.5,83.5C 75.3147,84.1701 74.9813,84.1701 74.5,83.5 Z"/></g>
<g><path style="opacity:0.994" fill="#bb570c" d="M 20.5,71.5 C 25.3603,72.3821 30.027,73.8821 34.5,76C 36.1506,80.9697 38.8173,85.303 42.5,89C 40.3808,89.3418 40.0474,90.1751 41.5,91.5C 37.5,91.8333 37.5,92.1667 41.5,92.5C 41.8333,92.5 42.1667,92.5 42.5,92.5C 46.97,93.4861 51.6367,93.8195 56.5,93.5C 49.4805,95.0649 42.4805,94.5649 35.5,92C 37.7416,90.9926 37.4082,90.1593 34.5,89.5C 34.1583,88.6618 33.4916,88.3284 32.5,88.5C 32.1667,88.5 31.8333,88.5 31.5,88.5C 31.5,88.1667 31.5,87.8333 31.5,87.5C 30.4019,86.603 30.4019,85.7697 31.5,85C 26.8633,81.2059 23.1966,76.7059 20.5,71.5 Z"/></g>
<g><path style="opacity:1" fill="#c15814" d="M 60.5,80.5 C 60.6716,81.4916 60.3382,82.1583 59.5,82.5C 59.5858,81.5041 59.2524,80.6708 58.5,80C 56.8988,79.7266 55.3988,79.2266 54,78.5C 51.6178,79.5541 49.1178,80.2208 46.5,80.5C 46.2436,82.7925 46.5769,84.9592 47.5,87C 50.2237,88.3353 52.8904,88.502 55.5,87.5C 55.0557,89.1132 54.0557,90.2798 52.5,91C 50.1902,91.4966 47.8568,91.6633 45.5,91.5C 41.4556,86.7436 38.4556,81.4103 36.5,75.5C 36.4346,75.0618 36.6012,74.7284 37,74.5C 39.0684,75.3936 41.2351,76.0603 43.5,76.5C 44.6473,76.8178 45.4806,77.4844 46,78.5C 50.7367,77.5308 55.57,77.1975 60.5,77.5C 60.5,78.5 60.5,79.5 60.5,80.5 Z"/></g>
<g><path style="opacity:0.994" fill="#c06418" d="M 60.5,80.5 C 60.8333,80.5 61.1667,80.5 61.5,80.5C 62.8866,82.4888 62.5532,84.3221 60.5,86C 62.6775,87.2022 65.0108,87.7022 67.5,87.5C 68.1667,87.5 68.5,87.8333 68.5,88.5C 68.5,88.8333 68.5,89.1667 68.5,89.5C 67.609,90.1098 66.609,90.4431 65.5,90.5C 64.8333,89.1667 64.1667,89.1667 63.5,90.5C 59.5,90.8333 59.5,91.1667 63.5,91.5C 61.5615,93.1628 59.2282,93.8294 56.5,93.5C 52.03,92.5139 47.3633,92.1805 42.5,92.5C 42.1667,92.5 41.8333,92.5 41.5,92.5C 41.5,92.1667 41.5,91.8333 41.5,91.5C 42.8333,91.5 44.1667,91.5 45.5,91.5C 47.8568,91.6633 50.1902,91.4966 52.5,91C 54.0557,90.2798 55.0557,89.1132 55.5,87.5C 57.5869,86.4154 58.9202,84.7488 59.5,82.5C 60.3382,82.1583 60.6716,81.4916 60.5,80.5 Z"/></g>
<g><path style="opacity:0.004" fill="#e4c5ff" d="M 63.5,91.5 C 63.5,91.1667 63.5,90.8333 63.5,90.5C 64.1667,90.5 64.8333,90.5 65.5,90.5C 65.1583,91.3382 64.4916,91.6716 63.5,91.5 Z"/></g>
</svg>
